<?xml version="1.0" encoding="utf-8"?>
<!-- Generator: Adobe Illustrator 25.0.0, SVG Export Plug-In . SVG Version: 6.00 Build 0)  -->
<svg version="1.1" id="Layer_1" xmlns="http://www.w3.org/2000/svg" xmlns:xlink="http://www.w3.org/1999/xlink" x="0px" y="0px"
	 viewBox="0 0 1480.3 194.6" style="enable-background:new 0 0 1480.3 194.6;" xml:space="preserve">
<style type="text/css">
	.st0{fill:none;}
	.st1{fill:#FFFFFF;stroke:#E2E2E2;stroke-miterlimit:10;}
	.st2{fill:url(#SVGID_1_);}
	.st3{fill:url(#SVGID_2_);}
	.st4{enable-background:new    ;}
	.st5{fill:#FFFFFF;}
	.st6{fill:url(#SVGID_3_);}
	.st7{fill:url(#SVGID_4_);}
	.st8{fill:url(#SVGID_5_);}
	.st9{fill:url(#SVGID_6_);}
	.st10{fill:url(#SVGID_7_);}
	.st11{display:none;fill:url(#SVGID_8_);}
	.st12{display:none;fill:url(#SVGID_9_);}
	.st13{fill:url(#SVGID_10_);}
	.st14{font-family:'Ubuntu';}
	.st15{font-size:24.8715px;}
	.st16{font-family:'Ubuntu-Medium';}
	.st17{font-size:12.3466px;}
	.st18{font-size:12.6808px;}
	.st19{fill:url(#SVGID_11_);}
	.st20{fill:url(#SVGID_12_);}
	.st21{fill:url(#SVGID_13_);}
	.st22{fill:url(#SVGID_14_);}
	.st23{fill:url(#SVGID_15_);}
	.st24{fill:url(#SVGID_16_);}
	.st25{fill:url(#SVGID_17_);}
	.st26{fill:url(#SVGID_18_);}
	.st27{fill:url(#SVGID_19_);}
	.st28{fill:url(#SVGID_20_);}
	.st29{fill:url(#SVGID_21_);}
	.st30{fill:url(#SVGID_22_);}
	.st31{fill:url(#SVGID_23_);}
	.st32{fill:url(#SVGID_24_);}
	.st33{fill:url(#SVGID_25_);}
	.st34{fill:url(#SVGID_26_);}
	.st35{fill:url(#SVGID_27_);}
	.st36{fill:url(#SVGID_28_);}
	.st37{fill:url(#SVGID_29_);}
	.st38{fill:url(#SVGID_30_);}
	.st39{fill:url(#SVGID_31_);}
	.st40{fill:url(#SVGID_32_);}
	.st41{fill:url(#SVGID_33_);}
	.st42{fill:#012B45;}
	.st43{clip-path:url(#SVGID_38_);}
	.st44{clip-path:url(#SVGID_39_);fill:url(#SVGID_40_);}
	.st45{opacity:0.33;fill:url(#SVGID_41_);enable-background:new    ;}
	.st46{fill:url(#SVGID_42_);}
	.st47{fill:url(#SVGID_43_);}
	.st48{fill:url(#SVGID_44_);}
	.st49{fill:url(#SVGID_45_);}
	.st50{fill:url(#SVGID_46_);}
	.st51{fill:url(#SVGID_47_);}
	.st52{fill:url(#SVGID_48_);}
	.st53{fill:url(#SVGID_49_);}
	.st54{fill:url(#SVGID_50_);}
	.st55{fill:url(#SVGID_51_);}
	.st56{fill:url(#SVGID_52_);}
	.st57{fill:url(#SVGID_53_);}
	.st58{fill:url(#SVGID_54_);}
	.st59{fill:url(#SVGID_55_);}
	.st60{fill:url(#SVGID_56_);}
	.st61{fill:url(#SVGID_57_);}
	.st62{fill:url(#SVGID_58_);}
	.st63{fill:url(#SVGID_59_);}
	.st64{fill:url(#SVGID_60_);}
	.st65{fill:url(#SVGID_61_);}
	.st66{fill:url(#SVGID_62_);}
	.st67{fill:url(#SVGID_63_);}
	.st68{fill:url(#SVGID_64_);}
	.st69{fill:url(#SVGID_65_);}
	.st70{fill:url(#SVGID_66_);}
	.st71{fill:url(#SVGID_67_);}
	.st72{fill:url(#SVGID_68_);}
	.st73{fill:url(#SVGID_69_);}
	.st74{fill:url(#SVGID_70_);}
	.st75{fill:url(#SVGID_71_);}
	.st76{fill:url(#SVGID_72_);}
	.st77{fill:url(#SVGID_73_);}
	.st78{fill:url(#SVGID_74_);}
	.st79{fill:url(#SVGID_75_);}
	.st80{fill:url(#SVGID_76_);}
	.st81{fill:url(#SVGID_77_);}
	.st82{fill:url(#SVGID_78_);}
	.st83{fill:url(#SVGID_79_);}
	.st84{fill:url(#SVGID_80_);}
	.st85{fill:url(#SVGID_81_);}
	.st86{fill:url(#SVGID_82_);}
	.st87{fill:url(#SVGID_83_);}
	.st88{fill:url(#SVGID_84_);}
	.st89{fill:url(#SVGID_85_);}
	.st90{fill:url(#SVGID_86_);}
	.st91{fill:url(#SVGID_87_);}
	.st92{fill:url(#SVGID_88_);}
	.st93{fill:url(#SVGID_89_);}
	.st94{fill:url(#SVGID_90_);}
	.st95{fill:url(#SVGID_91_);}
	.st96{fill:url(#SVGID_92_);}
	.st97{fill:url(#SVGID_93_);}
	.st98{fill:url(#SVGID_94_);}
	.st99{fill:url(#SVGID_95_);}
	.st100{fill:url(#SVGID_96_);}
	.st101{fill:url(#SVGID_97_);}
	.st102{fill:url(#SVGID_98_);}
	.st103{fill:url(#SVGID_99_);}
	.st104{fill:url(#SVGID_100_);}
	.st105{fill:url(#SVGID_101_);}
	.st106{fill:url(#SVGID_102_);}
	.st107{fill:url(#SVGID_103_);}
	.st108{fill:url(#SVGID_104_);}
	.st109{fill:url(#SVGID_105_);}
	.st110{fill:url(#SVGID_106_);}
	.st111{fill:url(#SVGID_107_);}
	.st112{fill:url(#SVGID_108_);}
	.st113{fill:url(#SVGID_109_);}
	.st114{fill:url(#SVGID_110_);}
	.st115{fill:url(#SVGID_111_);}
	.st116{fill:url(#SVGID_112_);}
	.st117{fill:url(#SVGID_113_);}
	.st118{fill-rule:evenodd;clip-rule:evenodd;fill:url(#SVGID_114_);}
	.st119{fill-rule:evenodd;clip-rule:evenodd;fill:url(#SVGID_115_);}
	.st120{fill-rule:evenodd;clip-rule:evenodd;fill:url(#SVGID_116_);}
	.st121{fill-rule:evenodd;clip-rule:evenodd;fill:url(#SVGID_117_);}
	.st122{fill-rule:evenodd;clip-rule:evenodd;fill:url(#SVGID_118_);}
	.st123{fill-rule:evenodd;clip-rule:evenodd;fill:url(#SVGID_119_);}
	.st124{fill-rule:evenodd;clip-rule:evenodd;fill:url(#SVGID_120_);}
	.st125{fill:url(#SVGID_121_);}
	.st126{fill:url(#SVGID_122_);}
	.st127{fill:url(#SVGID_123_);}
	.st128{fill-rule:evenodd;clip-rule:evenodd;fill:url(#SVGID_124_);}
	.st129{fill-rule:evenodd;clip-rule:evenodd;fill:url(#SVGID_125_);}
</style>
<rect x="483.4" y="95" class="st0" width="75.2" height="31.6"/>
<rect x="236.1" y="95.3" class="st0" width="75.2" height="36.5"/>
<rect x="732.9" y="95" class="st0" width="75.2" height="34.8"/>
<rect x="966.3" y="32.3" class="st1" width="217.2" height="136.4"/>
<rect x="658.9" y="32.3" class="st1" width="179.9" height="136"/>
<rect x="337" y="32.3" class="st1" width="188.5" height="136"/>
<rect x="10.5" y="32.3" class="st1" width="186.6" height="136"/>
<g>
	
		<radialGradient id="SVGID_1_" cx="203.325" cy="-97.5166" r="80.1711" gradientTransform="matrix(1 0 0 1 0 197.9605)" gradientUnits="userSpaceOnUse">
		<stop  offset="0" style="stop-color:#A8A8A8"/>
		<stop  offset="0.1552" style="stop-color:#B7B7B7"/>
		<stop  offset="0.488" style="stop-color:#D3D3D3"/>
		<stop  offset="0.7806" style="stop-color:#E4E4E4"/>
		<stop  offset="1" style="stop-color:#EAEAEA"/>
	</radialGradient>
	<circle class="st2" cx="203.3" cy="100.4" r="68.7"/>
	
		<linearGradient id="SVGID_2_" gradientUnits="userSpaceOnUse" x1="258.8291" y1="1032.6105" x2="385.4913" y2="981.9453" gradientTransform="matrix(0.6982 0.7159 -0.7159 0.6982 731.0698 -830.2573)">
		<stop  offset="0" style="stop-color:#1E476C"/>
		<stop  offset="9.326005e-02" style="stop-color:#1A4A74"/>
		<stop  offset="0.4504" style="stop-color:#0D5490"/>
		<stop  offset="0.7646" style="stop-color:#055BA1"/>
		<stop  offset="1" style="stop-color:#025DA7"/>
	</linearGradient>
	<path class="st3" d="M328.5,111.8l-26.1,23.1c-7.1,6.2-18,1.1-18-8.3l0.2-11.3h-30.8c-2.4,8.3-6.8,16.3-13.5,22.7
		c-20.3,19.7-52.6,19.3-72.3-0.9s-19.3-52.6,0.9-72.3c20.3-19.7,52.6-19.3,72.3,0.9c6,6.2,10.1,13.5,12.4,21.2H285l0.2-13
		c0.2-8.3,10.3-12.6,16.3-6.8l27.8,26.5C334.4,98.5,334.2,107.1,328.5,111.8z"/>
	<g class="st4">
		<path class="st5" d="M188.1,85.7c0.4,0,0.6,0,0.9,0c0.2,0,0.4-0.2,0.4-0.2s0.2-0.2,0.2-0.4s0-0.2,0-0.4c0-0.4-0.2-0.6-0.4-0.9
			c-0.2-0.2-0.9-0.4-1.7-0.6c-0.4-0.2-0.6-0.2-1.1-0.4c-0.4-0.2-0.6-0.4-0.9-0.6c-0.2-0.2-0.4-0.4-0.6-0.9c-0.2-0.4-0.2-0.6-0.2-1.3
			c0-0.6,0-0.9,0.2-1.3c0.2-0.4,0.4-0.6,0.9-1.1c0.4-0.2,0.6-0.4,1.3-0.6c0.4-0.2,1.1-0.2,1.5-0.2c0.6,0,1.3,0,1.7,0.2
			c0.4,0.2,0.9,0.2,1.3,0.4l-0.6,1.9c-0.2-0.2-0.6-0.2-1.1-0.4c-0.4-0.2-0.9-0.2-1.3-0.2c-0.6,0-0.9,0-1.3,0.2
			c-0.2,0.2-0.4,0.4-0.4,0.6c0,0.2,0,0.4,0.2,0.4c0.2,0,0.2,0.2,0.4,0.4c0.2,0,0.4,0.2,0.6,0.2c0.2,0,0.4,0.2,0.6,0.2
			c0.6,0.2,1.1,0.4,1.5,0.6c0.4,0.2,0.6,0.4,1.1,0.6c0.4,0.2,0.4,0.6,0.6,0.9c0.2,0.4,0.2,0.9,0.2,1.3c0,1.1-0.4,1.7-1.1,2.4
			c-0.6,0.4-1.7,0.9-3,0.9c-0.4,0-0.9,0-1.3,0c-0.4,0-0.6-0.2-1.1-0.2c-0.2,0-0.4-0.2-0.6-0.2s-0.4-0.2-0.4-0.2l0.6-1.9
			c0.2,0.2,0.6,0.2,1.1,0.4C187.1,85.7,187.5,85.7,188.1,85.7z"/>
		<path class="st5" d="M201.4,77.1v1.9h-3v8.3h-2.4v-8.3h-3.2v-1.9H201.4z"/>
		<path class="st5" d="M202.9,87.6V77.3h7.1v1.9h-4.7v2.1h4.1v1.9h-4.1v2.6h4.9v1.9L202.9,87.6L202.9,87.6z"/>
		<path class="st5" d="M215.1,77.1c1.5,0,2.8,0.2,3.6,0.9s1.3,1.5,1.3,2.6c0,1.3-0.4,2.1-1.3,2.8c-0.9,0.6-2.1,0.9-3.6,0.9h-0.6v3.4
			h-2.4V77.3c0.4,0,1.1-0.2,1.7-0.2C214.2,77.1,214.7,77.1,215.1,77.1z M215.3,79.1c-0.2,0-0.4,0-0.4,0c-0.2,0-0.2,0-0.4,0v3h0.6
			c0.9,0,1.5-0.2,1.9-0.4c0.4-0.2,0.6-0.6,0.6-1.3c0-0.2,0-0.4-0.2-0.6c0-0.2-0.2-0.4-0.4-0.4c-0.2-0.2-0.4-0.2-0.6-0.2
			C215.9,79.1,215.5,79.1,215.3,79.1z"/>
	</g>
	<g class="st4">
		<path class="st5" d="M202.5,110.1c0,4.7-0.9,8.1-2.6,10.7c-1.7,2.6-4.3,3.6-7.3,3.6c-3,0-5.6-1.3-7.3-3.6c-1.7-2.6-2.6-6-2.6-10.7
			c0-2.4,0.2-4.3,0.6-6.2c0.4-1.9,1.1-3.2,1.9-4.5s1.9-2.1,3.2-2.8s2.6-0.9,4.1-0.9c3,0,5.6,1.3,7.3,3.6
			C201.6,101.9,202.5,105.4,202.5,110.1z M196.5,110.1c0-1.3,0-2.6-0.2-3.9c-0.2-1.3-0.4-2.1-0.6-3c-0.2-0.9-0.6-1.5-1.3-1.9
			c-0.4-0.4-1.1-0.6-1.9-0.6c-0.6,0-1.3,0.2-1.9,0.6c-0.4,0.4-0.9,1.1-1.3,1.9c-0.2,0.9-0.4,1.7-0.6,3c-0.2,1.1-0.2,2.4-0.2,3.9
			c0,1.3,0,2.6,0.2,3.9c0.2,1.1,0.4,2.1,0.6,3c0.2,0.9,0.6,1.5,1.3,1.9c0.4,0.4,1.1,0.6,1.9,0.6c0.6,0,1.3-0.2,1.9-0.6
			c0.6-0.4,0.9-1.1,1.3-1.9c0.4-0.9,0.4-1.7,0.6-3C196.5,112.6,196.5,111.4,196.5,110.1z"/>
		<path class="st5" d="M206.7,102.2c0.9-0.2,1.5-0.6,2.4-1.1c0.9-0.4,1.7-0.9,2.4-1.3c0.9-0.4,1.5-1.1,2.4-1.5
			c0.6-0.6,1.3-1.1,1.9-1.7h4.1v27.6h-6v-19.9c-0.9,0.4-1.7,1.1-2.6,1.5c-0.9,0.4-1.9,0.9-2.8,1.1L206.7,102.2z"/>
	</g>
</g>
<g>
	
		<radialGradient id="SVGID_3_" cx="526.6659" cy="-98.1157" r="79.8973" gradientTransform="matrix(1 0 0 1 0 197.9605)" gradientUnits="userSpaceOnUse">
		<stop  offset="0" style="stop-color:#A8A8A8"/>
		<stop  offset="0.1552" style="stop-color:#B7B7B7"/>
		<stop  offset="0.488" style="stop-color:#D3D3D3"/>
		<stop  offset="0.7806" style="stop-color:#E4E4E4"/>
		<stop  offset="1" style="stop-color:#EAEAEA"/>
	</radialGradient>
	<circle class="st6" cx="526.7" cy="99.8" r="68.4"/>
	
		<linearGradient id="SVGID_4_" gradientUnits="userSpaceOnUse" x1="484.3117" y1="800.6875" x2="610.5236" y2="750.2026" gradientTransform="matrix(0.6982 0.7159 -0.7159 0.6982 731.0698 -830.2573)">
		<stop  offset="0" style="stop-color:#03BBF3"/>
		<stop  offset="0.2503" style="stop-color:#02AEF0"/>
		<stop  offset="0.6785" style="stop-color:#009DED"/>
		<stop  offset="1" style="stop-color:#0097EC"/>
	</linearGradient>
	<path class="st7" d="M651.4,111.1l-26,23c-7,6.2-17.9,1.1-17.9-8.3l0.2-11.3H577c-2.3,8.3-6.8,16.2-13.4,22.6
		c-20.2,19.6-52.4,19.2-72-0.9c-19.6-20.2-19.2-52.4,0.9-72c20.2-19.6,52.4-19.2,72,0.9c6,6.2,10,13.4,12.4,21.1h31.3l0.2-13
		c0.2-8.3,10.2-12.6,16.2-6.8l27.7,26.4C657.3,97.9,657.1,106.5,651.4,111.1z"/>
	<g class="st4">
		<path class="st5" d="M511.5,85.1c0.4,0,0.6,0,0.9,0c0.2,0,0.4-0.2,0.4-0.2s0.2-0.2,0.2-0.4s0-0.2,0-0.4c0-0.4-0.2-0.6-0.4-0.9
			s-0.9-0.4-1.7-0.6c-0.4-0.2-0.6-0.2-1.1-0.4s-0.6-0.4-0.9-0.6c-0.2-0.2-0.4-0.4-0.6-0.9c-0.2-0.4-0.2-0.6-0.2-1.3s0-0.9,0.2-1.3
			c0.2-0.4,0.4-0.6,0.9-1.1c0.4-0.2,0.6-0.4,1.3-0.6c0.4-0.2,1.1-0.2,1.5-0.2c0.6,0,1.3,0,1.7,0.2c0.4,0.2,0.9,0.2,1.3,0.4l-0.6,1.9
			c-0.2-0.2-0.6-0.2-1.1-0.4c-0.4-0.2-0.9-0.2-1.3-0.2c-0.6,0-0.9,0-1.3,0.2c-0.2,0.2-0.4,0.4-0.4,0.6c0,0.2,0,0.4,0.2,0.4
			c0.2,0,0.2,0.2,0.4,0.4c0.2,0,0.4,0.2,0.6,0.2c0.2,0,0.4,0.2,0.6,0.2c0.6,0.2,1.1,0.4,1.5,0.6c0.4,0.2,0.6,0.4,1.1,0.6
			c0.4,0.2,0.4,0.6,0.6,0.9c0.2,0.4,0.2,0.9,0.2,1.3c0,1.1-0.4,1.7-1.1,2.3c-0.6,0.4-1.7,0.9-3,0.9c-0.4,0-0.9,0-1.3,0
			s-0.6-0.2-1.1-0.2c-0.2,0-0.4-0.2-0.6-0.2c-0.2,0-0.4-0.2-0.4-0.2l0.6-1.9c0.2,0.2,0.6,0.2,1.1,0.4
			C510.5,85.1,510.9,85.1,511.5,85.1z"/>
		<path class="st5" d="M524.7,76.6v1.9h-3.2v8.3h-2.3v-8.3H516v-1.9H524.7z"/>
		<path class="st5" d="M526.2,87.1V76.8h7v1.9h-4.7v2.1h4v1.9h-4v2.6h4.9v1.9L526.2,87.1L526.2,87.1z"/>
		<path class="st5" d="M538.4,76.6c1.5,0,2.8,0.2,3.6,0.9c0.9,0.6,1.3,1.5,1.3,2.6c0,1.3-0.4,2.1-1.3,2.8s-2.1,0.9-3.6,0.9h-0.6v3.4
			h-2.3V76.8c0.4,0,1.1-0.2,1.7-0.2C537.5,76.6,538,76.6,538.4,76.6z M538.6,78.5c-0.2,0-0.4,0-0.4,0c-0.2,0-0.2,0-0.4,0v3h0.6
			c0.9,0,1.5-0.2,1.9-0.4c0.4-0.2,0.6-0.6,0.6-1.3c0-0.2,0-0.4-0.2-0.6c0-0.2-0.2-0.4-0.4-0.4c-0.2-0.2-0.4-0.2-0.6-0.2
			C539.2,78.5,538.8,78.5,538.6,78.5z"/>
	</g>
	<g class="st4">
		<path class="st5" d="M525.8,109.4c0,4.7-0.9,8.1-2.6,10.7s-4.3,3.6-7.2,3.6s-5.5-1.3-7.2-3.6c-1.7-2.6-2.6-6-2.6-10.7
			c0-2.3,0.2-4.3,0.6-6.2c0.4-1.9,1.1-3.2,1.9-4.5s1.9-2.1,3.2-2.8c1.3-0.6,2.6-0.9,4-0.9c3,0,5.5,1.3,7.2,3.6
			C525,101.3,525.8,104.7,525.8,109.4z M519.8,109.4c0-1.3,0-2.6-0.2-3.8s-0.4-2.1-0.6-3c-0.2-0.9-0.6-1.5-1.3-1.9
			c-0.4-0.4-1.1-0.6-1.9-0.6c-0.6,0-1.3,0.2-1.9,0.6c-0.4,0.4-0.9,1.1-1.3,1.9c-0.2,0.9-0.4,1.7-0.6,3c-0.2,1.1-0.2,2.3-0.2,3.8
			c0,1.3,0,2.6,0.2,3.8c0.2,1.1,0.4,2.1,0.6,3c0.2,0.9,0.6,1.5,1.3,1.9c0.4,0.4,1.1,0.6,1.9,0.6c0.6,0,1.3-0.2,1.9-0.6
			s0.9-1.1,1.3-1.9c0.4-0.9,0.4-1.7,0.6-3C519.8,112,519.8,110.7,519.8,109.4z"/>
		<path class="st5" d="M546.9,103c0,1.1-0.2,1.9-0.6,3c-0.4,0.9-0.9,1.9-1.5,2.8s-1.3,1.7-2.1,2.6c-0.9,0.9-1.5,1.5-2.3,2.3
			c-0.4,0.4-0.9,0.9-1.3,1.3c-0.4,0.4-0.9,0.9-1.3,1.5c-0.4,0.4-0.9,0.9-1.1,1.3c-0.4,0.4-0.6,0.9-0.6,1.1h11.7v4.9h-18.3
			c0-0.2,0-0.6,0-1.1s0-0.9,0-0.9c0-1.3,0.2-2.3,0.6-3.4c0.4-1.1,0.9-2.1,1.7-3c0.6-0.9,1.5-1.7,2.3-2.6c0.9-0.9,1.7-1.5,2.6-2.3
			c0.6-0.6,1.3-1.3,1.7-1.7c0.4-0.4,1.1-1.1,1.5-1.5c0.4-0.4,0.9-1.1,1.1-1.5s0.4-1.1,0.4-1.5c0-1.1-0.4-1.9-1.1-2.6
			c-0.6-0.4-1.5-0.6-2.6-0.6c-0.6,0-1.3,0.2-1.9,0.4s-1.3,0.4-1.7,0.9c-0.4,0.2-0.9,0.6-1.3,0.9c-0.4,0.2-0.6,0.6-0.9,0.6l-3-4
			c1.1-1.1,2.6-1.9,4-2.8c1.5-0.6,3.2-1.1,4.9-1.1s3,0.2,4.3,0.6c1.1,0.4,2.1,0.9,2.8,1.5c0.9,0.6,1.3,1.5,1.7,2.6
			C546.7,100.7,546.9,101.8,546.9,103z"/>
	</g>
</g>
<g>
	
		<radialGradient id="SVGID_5_" cx="834.1315" cy="-97.8918" r="80.0575" gradientTransform="matrix(1 0 0 1 0 197.9605)" gradientUnits="userSpaceOnUse">
		<stop  offset="0" style="stop-color:#A8A8A8"/>
		<stop  offset="0.1552" style="stop-color:#B7B7B7"/>
		<stop  offset="0.488" style="stop-color:#D3D3D3"/>
		<stop  offset="0.7806" style="stop-color:#E4E4E4"/>
		<stop  offset="1" style="stop-color:#EAEAEA"/>
	</radialGradient>
	<circle class="st8" cx="834.1" cy="100.1" r="68.6"/>
	
		<linearGradient id="SVGID_6_" gradientUnits="userSpaceOnUse" x1="699.0002" y1="580.7606" x2="825.5193" y2="530.1528" gradientTransform="matrix(0.6982 0.7159 -0.7159 0.6982 731.0698 -830.2573)">
		<stop  offset="0" style="stop-color:#F9A700"/>
		<stop  offset="0.2369" style="stop-color:#FAB301"/>
		<stop  offset="0.6727" style="stop-color:#FCC402"/>
		<stop  offset="1" style="stop-color:#FDCA02"/>
	</linearGradient>
	<path class="st9" d="M959.1,111.4l-26.1,23.1c-7.1,6.2-17.9,1.1-17.9-8.3l0.2-11.3h-30.8c-2.4,8.3-6.8,16.2-13.5,22.6
		c-20.3,19.7-52.6,19.2-72.2-0.9c-19.7-20.3-19.2-52.6,0.9-72.2c20.3-19.7,52.6-19.2,72.2,0.9c6,6.2,10,13.5,12.4,21.2h31.4l0.2-13
		c0.2-8.3,10.3-12.6,16.2-6.8L960,93C965.1,98.1,964.9,106.7,959.1,111.4z"/>
	<g class="st4">
		<path class="st5" d="M819,85.3c0.4,0,0.6,0,0.9,0c0.2,0,0.4-0.2,0.4-0.2s0.2-0.2,0.2-0.4s0-0.2,0-0.4c0-0.4-0.2-0.6-0.4-0.9
			s-0.9-0.4-1.7-0.6c-0.4-0.2-0.6-0.2-1.1-0.4c-0.4-0.2-0.6-0.4-0.9-0.6c-0.2-0.2-0.4-0.4-0.6-0.9c-0.2-0.4-0.2-0.6-0.2-1.3
			s0-0.9,0.2-1.3c0.2-0.4,0.4-0.6,0.9-1.1c0.4-0.2,0.6-0.4,1.3-0.6c0.4-0.2,1.1-0.2,1.5-0.2c0.6,0,1.3,0,1.7,0.2
			c0.4,0.2,0.9,0.2,1.3,0.4l-0.6,1.9c-0.2-0.2-0.6-0.2-1.1-0.4c-0.4-0.2-0.9-0.2-1.3-0.2c-0.6,0-0.9,0-1.3,0.2
			c-0.2,0.2-0.4,0.4-0.4,0.6c0,0.2,0,0.4,0.2,0.4s0.2,0.2,0.4,0.4c0.2,0.2,0.4,0.2,0.6,0.2s0.4,0.2,0.6,0.2c0.6,0.2,1.1,0.4,1.5,0.6
			c0.4,0.2,0.6,0.4,1.1,0.6c0.2,0.2,0.4,0.6,0.6,0.9s0.2,0.9,0.2,1.3c0,1.1-0.4,1.7-1.1,2.4c-0.6,0.4-1.7,0.9-3,0.9
			c-0.4,0-0.9,0-1.3,0c-0.4,0-0.6-0.2-1.1-0.2c-0.4,0-0.4-0.2-0.6-0.2c-0.2,0-0.4-0.2-0.4-0.2l0.6-1.9c0.2,0.2,0.6,0.2,1.1,0.4
			C817.7,85.3,818.3,85.3,819,85.3z"/>
		<path class="st5" d="M832.2,76.8v1.9H829V87h-2.4v-8.3h-3.2v-1.9H832.2z"/>
		<path class="st5" d="M833.7,87.2V77h7.1v1.9h-4.7v2.1h4.1V83h-4.1v2.6h4.9v1.9L833.7,87.2L833.7,87.2z"/>
		<path class="st5" d="M845.9,76.8c1.5,0,2.8,0.2,3.6,0.9c0.9,0.6,1.3,1.5,1.3,2.6c0,1.3-0.4,2.1-1.3,2.8s-2.1,0.9-3.6,0.9h-0.6v3.4
			h-2.4V77c0.4,0,1.1-0.2,1.7-0.2S845.5,76.8,845.9,76.8z M846.1,78.7c-0.2,0-0.4,0-0.4,0c-0.2,0-0.2,0-0.4,0v3h0.6
			c0.9,0,1.5-0.2,1.9-0.4c0.4-0.2,0.6-0.6,0.6-1.3c0-0.2,0-0.4-0.2-0.6c0-0.2-0.2-0.4-0.4-0.4c-0.2-0.2-0.4-0.2-0.6-0.2
			C846.7,78.7,846.3,78.7,846.1,78.7z"/>
	</g>
	<g class="st4">
		<path class="st5" d="M833.3,109.7c0,4.7-0.9,8.1-2.6,10.7c-1.7,2.6-4.3,3.6-7.3,3.6c-3,0-5.6-1.3-7.3-3.6c-1.7-2.6-2.6-6-2.6-10.7
			c0-2.4,0.2-4.3,0.6-6.2s1.1-3.2,1.9-4.5c0.9-1.3,1.9-2.1,3.2-2.8c1.3-0.6,2.6-0.9,4.1-0.9c3.2,0,5.6,1.3,7.3,3.6
			C832.4,101.6,833.3,105,833.3,109.7z M827.3,109.7c0-1.3,0-2.6-0.2-3.8c-0.2-1.1-0.4-2.1-0.6-3c-0.2-0.9-0.6-1.5-1.3-1.9
			c-0.4-0.4-1.1-0.6-1.9-0.6s-1.3,0.2-1.9,0.6c-0.4,0.4-0.9,1.1-1.3,1.9c-0.4,0.9-0.4,1.7-0.6,3c-0.2,1.1-0.2,2.4-0.2,3.8
			c0,1.3,0,2.6,0.2,3.8c0.2,1.1,0.4,2.1,0.6,3c0.2,0.9,0.6,1.5,1.3,1.9s1.1,0.6,1.9,0.6s1.3-0.2,1.9-0.6s0.9-1.1,1.3-1.9
			c0.2-0.9,0.4-1.7,0.6-3C827.3,112.2,827.3,111,827.3,109.7z"/>
		<path class="st5" d="M843.7,124c-0.6,0-1.5,0-2.4-0.2c-0.9,0-1.5-0.2-2.4-0.4c-0.6-0.2-1.5-0.4-1.9-0.4s-1.1-0.4-1.5-0.4l1.1-4.9
			c0.6,0.2,1.5,0.6,2.6,0.9c1.1,0.4,2.4,0.4,4.1,0.4c1.9,0,3.2-0.4,4.1-1.1s1.3-1.7,1.3-2.8c0-0.6-0.2-1.3-0.4-1.7
			c-0.2-0.4-0.6-0.9-1.3-1.3c-0.6-0.4-1.1-0.4-1.9-0.6c-0.6-0.2-1.5-0.2-2.4-0.2h-2.4v-4.7h2.6c0.6,0,1.1,0,1.7-0.2s1.1-0.2,1.5-0.6
			c0.4-0.2,0.9-0.6,1.1-1.1s0.4-1.1,0.4-1.7c0-0.4,0-0.9-0.2-1.3s-0.4-0.6-0.9-0.9c-0.4-0.2-0.6-0.4-1.1-0.6
			c-0.4-0.2-0.9-0.2-1.3-0.2c-1.1,0-2.1,0.2-3.2,0.4c-1.1,0.4-1.9,0.9-2.6,1.3l-2.1-4.3c0.4-0.2,0.9-0.6,1.5-0.9
			c0.6-0.2,1.3-0.6,1.9-0.9s1.5-0.4,2.1-0.6c0.9-0.2,1.7-0.2,2.6-0.2c1.7,0,3,0.2,4.3,0.6c1.3,0.4,2.1,0.9,3,1.7
			c0.9,0.9,1.3,1.5,1.7,2.6c0.4,0.9,0.6,1.9,0.6,3s-0.2,2.1-0.9,3.2s-1.5,1.7-2.6,2.4c1.5,0.6,2.6,1.5,3.4,2.6s1.1,2.6,1.1,4.1
			c0,1.3-0.2,2.4-0.6,3.4c-0.4,1.1-1.1,1.9-1.9,2.8s-2.1,1.5-3.4,1.9C847.8,123.4,845.7,124,843.7,124z"/>
	</g>
</g>
<g>
	
		<radialGradient id="SVGID_7_" cx="1185.3351" cy="-98.087" r="79.8813" gradientTransform="matrix(1 0 0 1 0 197.9605)" gradientUnits="userSpaceOnUse">
		<stop  offset="0" style="stop-color:#A8A8A8"/>
		<stop  offset="0.1552" style="stop-color:#B7B7B7"/>
		<stop  offset="0.488" style="stop-color:#D3D3D3"/>
		<stop  offset="0.7806" style="stop-color:#E4E4E4"/>
		<stop  offset="1" style="stop-color:#EAEAEA"/>
	</radialGradient>
	<circle class="st10" cx="1185.3" cy="99.9" r="68.4"/>
	
		<linearGradient id="SVGID_8_" gradientUnits="userSpaceOnUse" x1="944.2567" y1="329.1529" x2="1070.4159" y2="278.6894" gradientTransform="matrix(0.6982 0.7159 -0.7159 0.6982 731.0698 -830.2573)">
		<stop  offset="0" style="stop-color:#FB067B"/>
		<stop  offset="1.979089e-02" style="stop-color:#FB097D"/>
		<stop  offset="0.3138" style="stop-color:#FD2F94"/>
		<stop  offset="0.5848" style="stop-color:#FE4BA4"/>
		<stop  offset="0.8221" style="stop-color:#FF5CAE"/>
		<stop  offset="1" style="stop-color:#FF62B2"/>
	</linearGradient>
	<path class="st11" d="M1310,111.2l-26,23c-7,6.2-17.9,1.1-17.9-8.3l0.2-11.3h-30.7c-2.3,8.3-6.8,16.2-13.4,22.6
		c-20.2,19.6-52.4,19.2-72-0.9c-19.6-20.2-19.2-52.4,0.9-72c20.2-19.6,52.4-19.2,72,0.9c6,6.2,10,13.4,12.4,21.1h31.3l0.2-13
		c0.2-8.3,10.2-12.6,16.2-6.8l27.7,26.4C1316.1,98,1315.7,106.5,1310,111.2z"/>
	
		<linearGradient id="SVGID_9_" gradientUnits="userSpaceOnUse" x1="1135.4817" y1="-97.4479" x2="1237.3188" y2="-97.4479" gradientTransform="matrix(1 0 0 1 0 197.9605)">
		<stop  offset="0" style="stop-color:#FB067B"/>
		<stop  offset="1.979089e-02" style="stop-color:#FB097D"/>
		<stop  offset="0.3138" style="stop-color:#FD2F94"/>
		<stop  offset="0.5848" style="stop-color:#FE4BA4"/>
		<stop  offset="0.8221" style="stop-color:#FF5CAE"/>
		<stop  offset="1" style="stop-color:#FF62B2"/>
	</linearGradient>
	<circle class="st12" cx="1186.4" cy="100.5" r="50.9"/>
	
		<linearGradient id="SVGID_10_" gradientUnits="userSpaceOnUse" x1="943.1952" y1="328.4121" x2="1069.3541" y2="277.9484" gradientTransform="matrix(0.6982 0.7159 -0.7159 0.6982 731.0698 -830.2573)">
		<stop  offset="0" style="stop-color:#FB067B"/>
		<stop  offset="1.979089e-02" style="stop-color:#FB097D"/>
		<stop  offset="0.3138" style="stop-color:#FD2F94"/>
		<stop  offset="0.5848" style="stop-color:#FE4BA4"/>
		<stop  offset="0.8221" style="stop-color:#FF5CAE"/>
		<stop  offset="1" style="stop-color:#FF62B2"/>
	</linearGradient>
	<path class="st13" d="M1309.8,109.9l-26,23c-7,6.2-17.9,1.1-17.9-8.3l0.2-11.3h-30.7c-2.3,8.3-6.8,16.2-13.4,22.6
		c-20.2,19.6-52.4,19.2-72-0.9c-19.6-20.2-19.2-52.4,0.9-72c20.2-19.6,52.4-19.2,72,0.9c6,6.2,10,13.4,12.4,21.1h31.3l0.2-13
		c0.2-8.3,10.2-12.6,16.2-6.8l27.7,26.4C1315.7,96.7,1315.5,105.2,1309.8,109.9z"/>
	<g class="st4">
		<path class="st5" d="M1170.2,85.2c0.4,0,0.6,0,0.9,0s0.4-0.2,0.4-0.2s0.2-0.2,0.2-0.4s0-0.2,0-0.4c0-0.4-0.2-0.6-0.4-0.9
			c-0.2-0.2-0.9-0.4-1.7-0.6c-0.4-0.2-0.6-0.2-1.1-0.4s-0.6-0.4-0.9-0.6c-0.2-0.2-0.4-0.4-0.6-0.9c-0.2-0.4-0.2-0.6-0.2-1.3
			s0-0.9,0.2-1.3c0.2-0.4,0.4-0.6,0.9-1.1c0.4-0.2,0.6-0.4,1.3-0.6c0.4-0.2,1.1-0.2,1.5-0.2c0.6,0,1.3,0,1.7,0.2
			c0.4,0.2,0.9,0.2,1.3,0.4l-0.6,1.9c-0.2-0.2-0.6-0.2-1.1-0.4c-0.4-0.2-0.9-0.2-1.3-0.2c-0.6,0-0.9,0-1.3,0.2
			c-0.4,0.2-0.4,0.4-0.4,0.6c0,0.2,0,0.4,0.2,0.4s0.2,0.2,0.4,0.4c0.2,0,0.4,0.2,0.6,0.2s0.4,0.2,0.6,0.2c0.6,0.2,1.1,0.4,1.5,0.6
			c0.4,0.2,0.6,0.4,1.1,0.6c0.2,0.2,0.4,0.6,0.6,0.9c0.2,0.4,0.2,0.9,0.2,1.3c0,1.1-0.4,1.7-1.1,2.3c-0.6,0.4-1.7,0.9-3,0.9
			c-0.4,0-0.9,0-1.3,0c-0.4,0-0.6-0.2-1.1-0.2c-0.2,0-0.4-0.2-0.6-0.2s-0.4-0.2-0.4-0.2l0.6-1.9c0.2,0.2,0.6,0.2,1.1,0.4
			C1169.1,85.2,1169.6,85.2,1170.2,85.2z"/>
		<path class="st5" d="M1183.4,76.7v1.9h-3.2v8.3h-2.3v-8.3h-3v-1.9H1183.4z"/>
		<path class="st5" d="M1184.9,87.1V76.9h7v1.9h-4.7v2.1h4v1.9h-4v2.6h4.9v1.9L1184.9,87.1L1184.9,87.1z"/>
		<path class="st5" d="M1197.1,76.7c1.5,0,2.8,0.2,3.6,0.9c0.9,0.6,1.3,1.5,1.3,2.6c0,1.3-0.4,2.1-1.3,2.8c-0.9,0.6-2.1,0.9-3.6,0.9
			h-0.6v3.4h-2.3V76.9c0.4,0,1.1-0.2,1.7-0.2C1196.2,76.7,1196.6,76.7,1197.1,76.7z M1197.3,78.6c-0.2,0-0.4,0-0.4,0s-0.2,0-0.4,0v3
			h0.6c0.9,0,1.5-0.2,1.9-0.4c0.4-0.2,0.6-0.6,0.6-1.3c0-0.2,0-0.4-0.2-0.6c0-0.2-0.2-0.4-0.4-0.4c-0.2-0.2-0.4-0.2-0.6-0.2
			C1197.9,78.6,1197.7,78.6,1197.3,78.6z"/>
	</g>
	<g class="st4">
		<path class="st5" d="M1184.7,109.5c0,4.7-0.9,8.1-2.6,10.7s-4.3,3.6-7.2,3.6c-3.2,0-5.5-1.3-7.2-3.6c-1.7-2.3-2.6-6-2.6-10.7
			c0-2.3,0.2-4.3,0.6-6.2c0.4-1.9,1.1-3.2,1.9-4.5c0.9-1.3,1.9-2.1,3.2-2.8c1.3-0.6,2.6-0.9,4-0.9c3,0,5.5,1.3,7.2,3.6
			C1183.6,101.4,1184.7,104.8,1184.7,109.5z M1178.5,109.5c0-1.3,0-2.6-0.2-3.8c-0.2-1.1-0.4-2.1-0.6-3c-0.2-0.9-0.6-1.5-1.3-1.9
			c-0.4-0.4-1.1-0.6-1.9-0.6c-0.6,0-1.3,0.2-1.9,0.6c-0.4,0.4-0.9,1.1-1.3,1.9c-0.2,0.9-0.4,1.7-0.6,3c-0.2,1.1-0.2,2.3-0.2,3.8
			c0,1.3,0,2.6,0.2,3.8c0.2,1.1,0.4,2.1,0.6,3s0.6,1.5,1.3,1.9c0.4,0.4,1.1,0.6,1.9,0.6c0.6,0,1.3-0.2,1.9-0.6
			c0.6-0.4,0.9-1.1,1.3-1.9c0.2-0.9,0.4-1.7,0.6-3S1178.5,110.7,1178.5,109.5z"/>
		<path class="st5" d="M1204.3,95.8v16.4h3v4.9h-3v6.2h-5.8v-6.2h-11.9v-4.3c0.6-1.1,1.3-2.6,2.1-3.8c0.9-1.5,1.9-3,3-4.5
			c1.1-1.5,2.1-3,3.4-4.5c1.3-1.5,2.3-2.8,3.6-4L1204.3,95.8L1204.3,95.8z M1198.5,103.1c-1.1,1.3-2.1,2.8-3.2,4.5
			c-1.1,1.5-2.1,3.2-3,4.9h6.2V103.1z"/>
	</g>
</g>
<g id="Layer_3">
</g>
<g>
	<path d="M29.9,84.1c-1.2,0-2.3-0.2-3.3-0.6s-1.9-1-2.6-1.8c-0.7-0.8-1.3-1.7-1.7-2.8c-0.4-1.1-0.6-2.4-0.6-3.9
		c0-1.5,0.2-2.7,0.7-3.9s1-2.1,1.8-2.8s1.6-1.4,2.6-1.8S28.9,66,30,66c0.7,0,1.4,0.1,1.9,0.1c0.6,0.1,1.1,0.2,1.5,0.4
		c0.4,0.1,0.8,0.3,1,0.4c0.3,0.1,0.4,0.2,0.5,0.3l-0.7,2c-0.1-0.1-0.4-0.2-0.6-0.3c-0.3-0.1-0.6-0.2-1-0.4c-0.4-0.1-0.8-0.2-1.2-0.3
		c-0.4-0.1-0.9-0.1-1.3-0.1c-0.9,0-1.7,0.2-2.5,0.5c-0.7,0.3-1.4,0.8-1.9,1.4s-0.9,1.3-1.2,2.2s-0.4,1.8-0.4,2.9c0,1,0.1,2,0.4,2.8
		c0.2,0.9,0.6,1.6,1.1,2.2c0.5,0.6,1.1,1.1,1.8,1.4c0.7,0.3,1.6,0.5,2.5,0.5c1.1,0,2-0.1,2.8-0.4c0.7-0.2,1.3-0.4,1.6-0.6l0.6,2
		c-0.1,0.1-0.3,0.2-0.6,0.3s-0.7,0.2-1.1,0.4c-0.5,0.1-1,0.2-1.6,0.3C31.3,84.1,30.6,84.1,29.9,84.1z"/>
	<path d="M37.8,83.7v-19l2.3-0.4V71c0.4-0.2,0.9-0.3,1.4-0.4c0.5-0.1,1-0.1,1.5-0.1c1,0,1.9,0.1,2.6,0.4c0.7,0.3,1.2,0.7,1.6,1.2
		c0.4,0.5,0.7,1.2,0.9,1.9c0.2,0.7,0.2,1.5,0.2,2.4v7.3H46v-6.8c0-0.8-0.1-1.5-0.2-2.1c-0.1-0.6-0.3-1-0.5-1.4s-0.6-0.6-1-0.8
		c-0.4-0.2-0.9-0.2-1.6-0.2c-0.2,0-0.5,0-0.8,0.1s-0.5,0.1-0.8,0.1c-0.2,0-0.5,0.1-0.7,0.1c-0.2,0-0.3,0.1-0.4,0.1v10.8H37.8z"/>
	<path d="M63.6,77.2c0,1-0.1,2-0.5,2.8c-0.3,0.8-0.7,1.6-1.3,2.2c-0.5,0.6-1.2,1.1-1.9,1.4c-0.8,0.3-1.6,0.5-2.5,0.5
		c-0.9,0-1.7-0.2-2.5-0.5c-0.8-0.3-1.4-0.8-1.9-1.4c-0.5-0.6-1-1.3-1.3-2.2c-0.3-0.8-0.5-1.8-0.5-2.8c0-1,0.1-1.9,0.5-2.8
		c0.3-0.8,0.7-1.6,1.3-2.2c0.5-0.6,1.2-1.1,1.9-1.4c0.8-0.3,1.6-0.5,2.5-0.5c0.9,0,1.7,0.2,2.5,0.5c0.8,0.3,1.4,0.8,1.9,1.4
		c0.5,0.6,1,1.3,1.3,2.2C63.4,75.3,63.6,76.2,63.6,77.2z M61.1,77.2c0-1.5-0.3-2.6-1-3.5c-0.7-0.9-1.6-1.3-2.7-1.3
		c-1.1,0-2,0.4-2.7,1.3c-0.7,0.9-1,2-1,3.5c0,1.5,0.3,2.6,1,3.5c0.7,0.9,1.6,1.3,2.7,1.3c1.1,0,2-0.4,2.7-1.3
		C60.8,79.9,61.1,78.7,61.1,77.2z"/>
	<path d="M78.3,77.2c0,1-0.1,2-0.5,2.8c-0.3,0.8-0.7,1.6-1.3,2.2c-0.5,0.6-1.2,1.1-1.9,1.4c-0.8,0.3-1.6,0.5-2.5,0.5
		c-0.9,0-1.7-0.2-2.5-0.5c-0.8-0.3-1.4-0.8-1.9-1.4c-0.5-0.6-1-1.3-1.3-2.2c-0.3-0.8-0.5-1.8-0.5-2.8c0-1,0.1-1.9,0.5-2.8
		c0.3-0.8,0.7-1.6,1.3-2.2c0.5-0.6,1.2-1.1,1.9-1.4c0.8-0.3,1.6-0.5,2.5-0.5c0.9,0,1.7,0.2,2.5,0.5c0.8,0.3,1.4,0.8,1.9,1.4
		c0.5,0.6,1,1.3,1.3,2.2C78.2,75.3,78.3,76.2,78.3,77.2z M75.9,77.2c0-1.5-0.3-2.6-1-3.5c-0.7-0.9-1.6-1.3-2.7-1.3
		c-1.1,0-2,0.4-2.7,1.3c-0.7,0.9-1,2-1,3.5c0,1.5,0.3,2.6,1,3.5c0.7,0.9,1.6,1.3,2.7,1.3c1.1,0,2-0.4,2.7-1.3
		C75.6,79.9,75.9,78.7,75.9,77.2z"/>
	<path d="M84.6,82.1c1,0,1.7-0.1,2.1-0.4c0.5-0.2,0.7-0.7,0.7-1.2c0-0.6-0.2-1-0.7-1.4c-0.4-0.3-1.2-0.7-2.2-1.1
		c-0.5-0.2-1-0.4-1.4-0.6s-0.9-0.5-1.2-0.7c-0.3-0.3-0.6-0.6-0.8-1s-0.3-0.9-0.3-1.5c0-1.1,0.4-2.1,1.3-2.7s2-1,3.5-1
		c0.4,0,0.7,0,1.1,0.1c0.4,0,0.7,0.1,1,0.2c0.3,0.1,0.6,0.1,0.8,0.2c0.2,0.1,0.4,0.1,0.6,0.2l-0.4,2c-0.2-0.1-0.6-0.3-1.2-0.4
		c-0.5-0.1-1.2-0.2-1.9-0.2c-0.7,0-1.2,0.1-1.7,0.4s-0.7,0.7-0.7,1.2c0,0.3,0.1,0.5,0.2,0.8c0.1,0.2,0.3,0.4,0.5,0.6
		s0.5,0.3,0.8,0.5c0.3,0.2,0.7,0.3,1.2,0.5c0.6,0.2,1.2,0.5,1.6,0.7s0.9,0.5,1.2,0.8s0.6,0.7,0.8,1.1c0.2,0.4,0.3,0.9,0.3,1.6
		c0,1.2-0.4,2.1-1.3,2.7c-0.9,0.6-2.2,0.9-3.8,0.9c-1.1,0-2-0.1-2.7-0.3c-0.7-0.2-1.1-0.3-1.3-0.4l0.4-2c0.3,0.1,0.7,0.2,1.3,0.4
		C82.9,82,83.6,82.1,84.6,82.1z"/>
	<path d="M92,77.3c0-1.1,0.2-2.2,0.5-3s0.8-1.6,1.3-2.1c0.5-0.6,1.2-1,1.9-1.3c0.7-0.3,1.5-0.4,2.2-0.4c1.8,0,3.1,0.5,4,1.6
		c0.9,1.1,1.4,2.8,1.4,5c0,0.1,0,0.2,0,0.4c0,0.2,0,0.3,0,0.4h-8.9c0.1,1.4,0.5,2.4,1.2,3.1c0.7,0.7,1.8,1,3.2,1
		c0.8,0,1.5-0.1,2.1-0.2c0.6-0.1,1-0.3,1.3-0.4l0.3,2c-0.3,0.1-0.8,0.3-1.5,0.5c-0.7,0.2-1.5,0.2-2.4,0.2c-1.1,0-2.1-0.2-2.9-0.5
		c-0.8-0.3-1.5-0.8-2-1.4c-0.5-0.6-0.9-1.3-1.2-2.1C92.1,79.1,92,78.2,92,77.3z M100.9,76c0-1-0.2-1.9-0.8-2.6c-0.5-0.7-1.3-1-2.2-1
		c-0.5,0-1,0.1-1.4,0.3c-0.4,0.2-0.8,0.5-1,0.8c-0.3,0.3-0.5,0.7-0.7,1.1c-0.2,0.4-0.3,0.9-0.3,1.3H100.9z"/>
</g>
<text transform="matrix(1 0 0 1 349.7554 83.9944)" class="st14 st15">Prepare</text>
<text transform="matrix(1 0 0 1 350.5186 102.99)"><tspan x="0" y="0" class="st16 st17">Prepare for your </tspan><tspan x="0" y="14.8" class="st16 st17">exam using our </tspan><tspan x="0" y="29.6" class="st16 st17">learning resources.</tspan></text>
<text transform="matrix(1 0 0 1 21.627 102.6414)"><tspan x="0" y="0" class="st16 st18">Choose Your</tspan><tspan x="0" y="15.2" class="st16 st18">Certification type</tspan><tspan x="0" y="30.4" class="st16 st18">(FO,BO,Technical).</tspan></text>
<text transform="matrix(1 0 0 1 666.8893 83.7027)" class="st14 st15">Enroll</text>
<text transform="matrix(1 0 0 1 668.0482 102.99)"><tspan x="0" y="0" class="st16 st17">Register to take </tspan><tspan x="0" y="14.8" class="st16 st17">your exam.</tspan></text>
<text transform="matrix(1 0 0 1 974.7181 83.9943)" class="st14 st15">Earn Credits</text>
<text transform="matrix(1 0 0 1 974.8803 103.1563)"><tspan x="0" y="0" class="st16 st17">Pass the exams and </tspan><tspan x="0" y="14.8" class="st16 st17">earn minimum credits </tspan><tspan x="0" y="29.6" class="st16 st17">required to complete</tspan><tspan x="0" y="44.4" class="st16 st17">the Certification.</tspan></text>
<g>
	<radialGradient id="SVGID_11_" cx="1395.9648" cy="69.9621" r="69.6097" gradientUnits="userSpaceOnUse">
		<stop  offset="3.067480e-02" style="stop-color:#4A94D0"/>
		<stop  offset="1" style="stop-color:#005282"/>
	</radialGradient>
	<path class="st19" d="M1446.2,131.1H1346c-5.6,0-10.2-4.6-10.2-10.2l-17-101.8c0-5.6,4.6-10.2,10.2-10.2h133.9
		c5.6,0,10.2,4.6,10.2,10.2l-17,101.8C1456.2,126.6,1451.8,131.1,1446.2,131.1z"/>
	<g>
		<linearGradient id="SVGID_12_" gradientUnits="userSpaceOnUse" x1="1313.8322" y1="137.4699" x2="1337.9583" y2="137.4699">
			<stop  offset="0" style="stop-color:#0B4166"/>
			<stop  offset="1" style="stop-color:#00609C"/>
		</linearGradient>
		<path class="st20" d="M1313.8,121.4c0,0,0.8,0.4,1.9,0.8c3.5,1.3,16.4,3.9,22.2,0v30.1c0,0-15.8,3.9-24.1-1.9
			c0,0,5.8-5.8,8.1-12.5C1321.9,138,1319.5,134.5,1313.8,121.4z"/>
		<g>
			<g>
				<radialGradient id="SVGID_13_" cx="1327.1122" cy="145.1161" r="40.8465" gradientUnits="userSpaceOnUse">
					<stop  offset="0" style="stop-color:#D3EEFB"/>
					<stop  offset="1" style="stop-color:#70BBE7"/>
				</radialGradient>
				<path class="st21" d="M1318,150.5c-0.2,0-0.6-0.2-0.8-0.2l-0.4-0.4l0.4-0.4c0.2-0.2,0.4-0.4,0.4-0.6l0.6,0.4c0,0,0,0.2-0.2,0.2
					h0.2L1318,150.5z"/>
			</g>
			<g>
				<radialGradient id="SVGID_14_" cx="1327.1129" cy="145.1131" r="40.8592" gradientUnits="userSpaceOnUse">
					<stop  offset="0" style="stop-color:#D3EEFB"/>
					<stop  offset="1" style="stop-color:#70BBE7"/>
				</radialGradient>
				<path class="st22" d="M1319.2,148.4l-0.6-0.4c0.2-0.4,0.6-0.8,0.8-1.2l0.6,0.4C1319.5,147.6,1319.4,148,1319.2,148.4z
					 M1320.7,146.1l-0.6-0.4c0.2-0.4,0.6-0.8,0.8-1.2l0.6,0.4C1321.3,145.3,1320.9,145.7,1320.7,146.1z M1322.2,143.8l-0.6-0.4
					c0.2-0.4,0.4-0.8,0.6-1.2l0.6,0.4C1322.6,142.8,1322.4,143.4,1322.2,143.8z M1323.4,141.3l-0.8-0.4c0.2-0.4,0.4-0.8,0.6-1.3
					l0.8,0.2C1323.8,140.3,1323.6,140.7,1323.4,141.3z"/>
			</g>
			<g>
				<radialGradient id="SVGID_15_" cx="1327.1125" cy="145.1138" r="40.8646" gradientUnits="userSpaceOnUse">
					<stop  offset="0" style="stop-color:#D3EEFB"/>
					<stop  offset="1" style="stop-color:#70BBE7"/>
				</radialGradient>
				<polygon class="st23" points="1324.6,138.6 1323.8,138.4 1324,137.8 1323.6,137.2 1324.4,136.8 1324.7,137.6 				"/>
			</g>
			<g>
				<radialGradient id="SVGID_16_" cx="1327.1129" cy="145.1102" r="40.8523" gradientUnits="userSpaceOnUse">
					<stop  offset="0" style="stop-color:#D3EEFB"/>
					<stop  offset="1" style="stop-color:#70BBE7"/>
				</radialGradient>
				<path class="st24" d="M1323,136.1c-0.2-0.4-0.4-0.8-0.6-1.2l0.6-0.4c0.2,0.6,0.4,1,0.6,1.2L1323,136.1z M1321.7,133.8
					c-0.2-0.4-0.4-0.8-0.6-1.2l0.8-0.4c0.2,0.4,0.4,0.8,0.6,1.2L1321.7,133.8z M1320.5,131.3c-0.2-0.4-0.4-0.8-0.6-1.2l0.8-0.4
					c0.2,0.4,0.4,0.8,0.6,1.2L1320.5,131.3z M1319.2,128.7c-0.2-0.4-0.4-0.8-0.6-1.2l0.8-0.4c0.2,0.4,0.4,0.8,0.6,1.2L1319.2,128.7z
					"/>
			</g>
			<g>
				<radialGradient id="SVGID_17_" cx="1327.1132" cy="145.0949" r="40.8271" gradientUnits="userSpaceOnUse">
					<stop  offset="0" style="stop-color:#D3EEFB"/>
					<stop  offset="1" style="stop-color:#70BBE7"/>
				</radialGradient>
				<path class="st25" d="M1318,126.2l-0.6-1.3l0.8,0.2c0.2,0,0.4,0.2,0.8,0.2l-0.2,0.6l0,0l0,0l0,0L1318,126.2z"/>
			</g>
			<g>
				<radialGradient id="SVGID_18_" cx="1327.1122" cy="145.1024" r="40.8384" gradientUnits="userSpaceOnUse">
					<stop  offset="0" style="stop-color:#D3EEFB"/>
					<stop  offset="1" style="stop-color:#70BBE7"/>
				</radialGradient>
				<path class="st26" d="M1329.2,127v-0.8c0.6,0,1,0,1.5,0v0.8C1330.1,127,1329.6,127,1329.2,127z M1327.6,127c-0.6,0-1,0-1.5,0
					v-0.8c0.6,0,1,0,1.5,0V127z M1332.1,126.8V126c0.6,0,1-0.2,1.3-0.2l0.2,0.8C1333,126.8,1332.7,126.8,1332.1,126.8z
					 M1324.6,126.8c-0.6,0-1-0.2-1.5-0.2v-0.8c0.4,0,1,0.2,1.5,0.2V126.8z M1321.7,126.4c-0.6,0-1-0.2-1.5-0.2l0.2-0.8
					c0.4,0,1,0.2,1.5,0.2L1321.7,126.4z"/>
			</g>
			<g>
				<radialGradient id="SVGID_19_" cx="1327.1132" cy="145.1115" r="40.8562" gradientUnits="userSpaceOnUse">
					<stop  offset="0" style="stop-color:#D3EEFB"/>
					<stop  offset="1" style="stop-color:#70BBE7"/>
				</radialGradient>
				<path class="st27" d="M1336.1,126.6h-0.8v-0.2h-0.2l-0.2-0.8c0.2,0,0.4-0.2,0.8-0.2l0.4-0.2V126.6z"/>
			</g>
			<g>
				<radialGradient id="SVGID_20_" cx="1327.1125" cy="145.1129" r="40.8571" gradientUnits="userSpaceOnUse">
					<stop  offset="0" style="stop-color:#D3EEFB"/>
					<stop  offset="1" style="stop-color:#70BBE7"/>
				</radialGradient>
				<path class="st28" d="M1336.1,148.2h-0.8v-1.5h0.8V148.2z M1336.1,145.1h-0.8v-1.5h0.8V145.1z M1336.1,142h-0.8v-1.5h0.8V142z
					 M1336.1,139h-0.8v-1.5h0.8V139z M1336.1,135.9h-0.8v-1.5h0.8V135.9z M1336.1,132.8h-0.8v-1.5h0.8V132.8z M1336.1,129.7h-0.8
					v-1.5h0.8V129.7z"/>
			</g>
			<g>
				<radialGradient id="SVGID_21_" cx="1327.1129" cy="145.1138" r="40.851" gradientUnits="userSpaceOnUse">
					<stop  offset="0" style="stop-color:#D3EEFB"/>
					<stop  offset="1" style="stop-color:#70BBE7"/>
				</radialGradient>
				<path class="st29" d="M1335,151.1v-0.8c0.2,0,0.4,0,0.4,0v-0.4h0.8v1.2h-0.4C1335.5,150.9,1335.4,150.9,1335,151.1z"/>
			</g>
			<g>
				<radialGradient id="SVGID_22_" cx="1327.1122" cy="145.1117" r="40.8585" gradientUnits="userSpaceOnUse">
					<stop  offset="0" style="stop-color:#D3EEFB"/>
					<stop  offset="1" style="stop-color:#70BBE7"/>
				</radialGradient>
				<path class="st30" d="M1326.9,151.7c-0.4,0-0.8,0-1.2,0v-0.8c0.4,0,0.8,0,1.2,0h0.4v0.8H1326.9z M1328.8,151.7v-0.8
					c0.6,0,1,0,1.5,0v0.8C1330,151.7,1329.4,151.7,1328.8,151.7z M1324.2,151.7c-0.6,0-1,0-1.5-0.2v-0.8c0.6,0,1,0.2,1.5,0.2V151.7z
					 M1331.9,151.5v-0.8c0.6,0,1-0.2,1.5-0.2l0.2,0.8C1333,151.3,1332.5,151.3,1331.9,151.5z M1321.1,151.3c-0.6-0.2-1-0.2-1.5-0.4
					l0.2-0.8c0.4,0.2,1,0.2,1.5,0.4L1321.1,151.3z"/>
			</g>
		</g>
	</g>
	<g>
		
			<linearGradient id="SVGID_23_" gradientUnits="userSpaceOnUse" x1="507.9986" y1="137.4699" x2="532.1272" y2="137.4699" gradientTransform="matrix(-1 0 0 1 1985.9033 0)">
			<stop  offset="0" style="stop-color:#0B4166"/>
			<stop  offset="1" style="stop-color:#00609C"/>
		</linearGradient>
		<path class="st31" d="M1478,121.4c0,0-0.8,0.4-1.9,0.8c-3.5,1.3-16.4,3.9-22.2,0v30.1c0,0,15.8,3.9,24.1-1.9c0,0-5.8-5.8-8.1-12.5
			C1469.9,138,1472.2,134.5,1478,121.4z"/>
		<g>
			<g>
				<radialGradient id="SVGID_24_" cx="1478.6567" cy="143.1422" r="24.8967" gradientUnits="userSpaceOnUse">
					<stop  offset="0" style="stop-color:#D3EEFB"/>
					<stop  offset="1" style="stop-color:#70BBE7"/>
				</radialGradient>
				<path class="st32" d="M1473.7,150.5c0.2,0,0.6-0.2,0.8-0.2l0.4-0.2l-0.4-0.4c-0.2-0.2-0.4-0.4-0.4-0.6l-0.6,0.4l0.2,0.2h-0.2
					L1473.7,150.5z"/>
			</g>
			<g>
				<radialGradient id="SVGID_25_" cx="1478.6561" cy="143.1373" r="24.9125" gradientUnits="userSpaceOnUse">
					<stop  offset="0" style="stop-color:#D3EEFB"/>
					<stop  offset="1" style="stop-color:#70BBE7"/>
				</radialGradient>
				<path class="st33" d="M1471.8,147.2l0.6-0.4c0.2,0.4,0.6,0.8,0.8,1.2l-0.6,0.4C1472.4,148,1472.2,147.6,1471.8,147.2z
					 M1470.3,144.9l0.6-0.4c0.2,0.4,0.6,0.8,0.8,1.2l-0.6,0.4C1470.8,145.7,1470.5,145.3,1470.3,144.9z M1468.9,142.4l0.6-0.4
					c0.2,0.4,0.4,0.8,0.6,1.2l-0.6,0.4C1469.3,143.4,1469.1,142.8,1468.9,142.4z M1467.8,139.9l0.8-0.2c0.2,0.4,0.4,0.8,0.6,1.3
					l-0.8,0.4C1468.1,140.7,1468,140.3,1467.8,139.9z"/>
			</g>
			<g>
				<radialGradient id="SVGID_26_" cx="1478.6561" cy="143.1377" r="24.9131" gradientUnits="userSpaceOnUse">
					<stop  offset="0" style="stop-color:#D3EEFB"/>
					<stop  offset="1" style="stop-color:#70BBE7"/>
				</radialGradient>
				<polygon class="st34" points="1467.2,138.6 1468,138.4 1467.8,137.8 1468.1,137.2 1467.4,136.8 1467,137.6 				"/>
			</g>
			<g>
				<radialGradient id="SVGID_27_" cx="1478.6564" cy="143.1348" r="24.91" gradientUnits="userSpaceOnUse">
					<stop  offset="0" style="stop-color:#D3EEFB"/>
					<stop  offset="1" style="stop-color:#70BBE7"/>
				</radialGradient>
				<path class="st35" d="M1468.1,135.7c0.2-0.4,0.4-0.8,0.6-1.2l0.6,0.4c-0.2,0.6-0.4,1-0.6,1.2L1468.1,135.7z M1469.5,133.4
					c0.2-0.4,0.4-0.8,0.6-1.2l0.6,0.4c-0.2,0.4-0.4,0.8-0.6,1.2L1469.5,133.4z M1470.6,130.9c0.2-0.4,0.4-0.8,0.6-1.2l0.8,0.4
					c-0.2,0.4-0.4,0.8-0.6,1.2L1470.6,130.9z M1471.8,128.4c0.2-0.4,0.4-0.8,0.6-1.2l0.8,0.4c-0.2,0.4-0.4,0.8-0.6,1.2L1471.8,128.4
					z"/>
			</g>
			<g>
				<radialGradient id="SVGID_28_" cx="1478.6558" cy="143.1212" r="24.8917" gradientUnits="userSpaceOnUse">
					<stop  offset="0" style="stop-color:#D3EEFB"/>
					<stop  offset="1" style="stop-color:#70BBE7"/>
				</radialGradient>
				<path class="st36" d="M1473.7,126.2l0.6-1.3l-0.8,0.2c-0.2,0-0.4,0.2-0.8,0.2l0.2,0.8l0,0l0,0l0,0L1473.7,126.2z"/>
			</g>
			<g>
				<radialGradient id="SVGID_29_" cx="1478.6558" cy="143.1281" r="24.8952" gradientUnits="userSpaceOnUse">
					<stop  offset="0" style="stop-color:#D3EEFB"/>
					<stop  offset="1" style="stop-color:#70BBE7"/>
				</radialGradient>
				<path class="st37" d="M1461.2,127v-0.8c0.4,0,1,0,1.5,0v0.8C1462.2,127,1461.6,127,1461.2,127z M1464.1,126.2c0.6,0,1,0,1.5,0
					v0.8c-0.6,0-1,0-1.5,0V126.2z M1458.1,126.6l0.2-0.8c0.4,0,1,0.2,1.3,0.2v0.8C1459.1,126.8,1458.7,126.8,1458.1,126.6z
					 M1467,126c0.6,0,1-0.2,1.5-0.2v0.8c-0.6,0-1,0.2-1.5,0.2V126z M1469.9,125.7c0.6,0,1-0.2,1.5-0.2l0.2,0.8c-0.4,0-1,0.2-1.5,0.2
					L1469.9,125.7z"/>
			</g>
			<g>
				<radialGradient id="SVGID_30_" cx="1478.6554" cy="143.1358" r="24.9117" gradientUnits="userSpaceOnUse">
					<stop  offset="0" style="stop-color:#D3EEFB"/>
					<stop  offset="1" style="stop-color:#70BBE7"/>
				</radialGradient>
				<path class="st38" d="M1455.6,126.6h0.8v-0.2h0.2l0.2-0.8c-0.2,0-0.4-0.2-0.8-0.2l-0.4-0.2V126.6z"/>
			</g>
			<g>
				<radialGradient id="SVGID_31_" cx="1478.6556" cy="143.1373" r="24.9119" gradientUnits="userSpaceOnUse">
					<stop  offset="0" style="stop-color:#D3EEFB"/>
					<stop  offset="1" style="stop-color:#70BBE7"/>
				</radialGradient>
				<path class="st39" d="M1455.6,146.7h0.8v1.5h-0.8V146.7z M1455.6,143.6h0.8v1.5h-0.8V143.6z M1455.6,140.5h0.8v1.5h-0.8V140.5z
					 M1455.6,137.4h0.8v1.5h-0.8V137.4z M1455.6,134.3h0.8v1.5h-0.8V134.3z M1455.6,131.3h0.8v1.5h-0.8V131.3z M1455.6,128.2h0.8
					v1.5h-0.8V128.2z"/>
			</g>
			<g>
				<radialGradient id="SVGID_32_" cx="1478.6548" cy="143.1391" r="24.9102" gradientUnits="userSpaceOnUse">
					<stop  offset="0" style="stop-color:#D3EEFB"/>
					<stop  offset="1" style="stop-color:#70BBE7"/>
				</radialGradient>
				<path class="st40" d="M1456.8,151.1l0.2-0.8c-0.2,0-0.4,0-0.4,0v-0.4h-1v1.2h0.4C1456.2,150.9,1456.4,150.9,1456.8,151.1z"/>
			</g>
			<g>
				<radialGradient id="SVGID_33_" cx="1478.6558" cy="143.1362" r="24.9119" gradientUnits="userSpaceOnUse">
					<stop  offset="0" style="stop-color:#D3EEFB"/>
					<stop  offset="1" style="stop-color:#70BBE7"/>
				</radialGradient>
				<path class="st41" d="M1464.5,151.7v-0.8h0.4c0.4,0,0.8,0,1.2,0v0.8c-0.4,0-0.8,0-1.2,0H1464.5z M1461.4,151.5v-0.8
					c0.6,0,1,0,1.5,0v0.8C1462.4,151.7,1461.8,151.7,1461.4,151.5z M1467.6,150.9c0.6,0,1,0,1.5-0.2v0.8c-0.6,0-1,0.2-1.5,0.2V150.9
					z M1458.3,151.3l0.2-0.8c0.4,0,1,0.2,1.5,0.2v0.8C1459.3,151.3,1458.7,151.3,1458.3,151.3z M1470.5,150.5c0.6,0,1-0.2,1.5-0.4
					l0.2,0.8c-0.6,0.2-1,0.2-1.5,0.4L1470.5,150.5z"/>
			</g>
		</g>
	</g>
	<path class="st42" d="M1391.6,187.5c-0.6,0-1.3,0-2.1-0.2c-3.9-0.4-6.9-1.7-9.6-4.2c-0.6-0.4-1.2-1-2.1-1.3c-0.4-0.2-1-0.2-1.3-0.4
		c-0.4,0-0.6,0-1,0c-0.6,0-1.2,0-1.5,0.2c-1.2,0.2-2.3,0.4-3.3,0.4c-2.5,0-4.8-0.6-7.1-1.7c-3.5-1.5-6-3.9-7.5-7.3
		c-0.4-0.6-0.8-1.3-1.5-1.9c-0.4-0.2-0.8-0.6-1.2-0.8c-1-0.4-1.7-0.6-2.3-0.8c-3.7-0.6-6.7-2.1-9.3-4.8c-2.7-2.7-4.2-5.8-4.6-9.4
		c0-0.8-0.4-1.5-0.8-2.3c-0.4-0.4-0.6-0.8-1-1.3c-0.6-0.6-1.3-1.2-1.9-1.5c-3.3-1.7-5.6-4.2-7.1-7.7c-1.5-3.5-1.9-6.7-1.2-10.4
		c0.2-0.8,0.2-1.5,0.2-2.5c0-0.2-0.4-1.2-0.4-1.3c-0.4-1-1-1.5-1.3-2.1c-2.5-2.7-3.9-6-4-9.8c-0.4-3.9,0.4-7.1,2.5-10.2
		c0.4-0.6,0.8-1.3,1-2.3c0-0.6,0-1,0.2-1.5c0-1-0.2-1.7-0.6-2.3c-1.3-3.5-1.5-6.9-0.4-10.6c1-3.7,2.9-6.6,5.8-8.7
		c0.6-0.4,1.2-1,1.7-1.7c0.2-0.4,0.4-0.8,0.6-1.3c0.2-1,0.4-1.7,0.4-2.5c-0.2-3.7,1-6.9,3.1-10c2.1-3.1,5-5.2,8.5-6.2
		c0.6-0.2,1.3-0.6,2.1-1.2c0.4-0.4,0.8-0.8,1.2-1c0.6-0.8,1-1.5,1.2-2.1c1.2-3.5,3.3-6.2,6.4-8.3c2.9-1.9,5.8-2.9,9.1-2.9
		c0.4,0,0.6,0,1,0c0.2,0,0.2,0,0.4,0c0.6,0,1.3,0,2.1-0.2c0.4-0.2,1-0.4,1.3-0.6c0.8-0.6,1.3-1.2,1.7-1.7c2.3-2.9,5.2-4.8,8.9-5.6
		c1.5-0.4,2.9-0.6,4.4-0.6c2.1,0,4,0.4,6.2,1.3c0.6,0.2,1.5,0.4,2.3,0.6c0.6,0,1,0,1.5-0.2c1-0.2,1.7-0.6,2.3-1
		c2.5-1.5,5.4-2.3,8.3-2.3c0.6,0,1.3,0,2.1,0.2c3.9,0.4,6.9,1.7,9.6,4.2c0.6,0.4,1.2,1,2.1,1.3c0.4,0.2,1,0.2,1.3,0.4
		c0.4,0,0.6,0,1,0c0.6,0,1.2,0,1.5-0.2c1.2-0.2,2.3-0.4,3.3-0.4c2.5,0,4.8,0.6,7.1,1.7c3.5,1.5,6,3.9,7.5,7.1
		c0.4,0.6,0.8,1.3,1.5,2.1c0.4,0.2,0.8,0.6,1.2,0.8c1,0.4,1.7,0.6,2.3,0.8c3.7,0.6,6.7,2.1,9.3,4.8c2.7,2.7,4.2,5.8,4.6,9.4
		c0,0.8,0.4,1.5,0.8,2.3c0.4,0.4,0.6,0.8,1,1.3c0.6,0.6,1.3,1.2,1.9,1.5c3.3,1.7,5.6,4.2,7.1,7.7c1.5,3.5,1.9,6.7,1.2,10.4
		c-0.2,0.8-0.2,1.5-0.2,2.5c0,0.2,0.4,1.2,0.4,1.3c0.4,1,1,1.5,1.3,2.1c2.5,2.7,3.9,6,4,9.8c0.4,3.9-0.4,7.1-2.5,10.2
		c-0.4,0.6-0.8,1.3-1,2.3c0,0.6,0,1-0.2,1.5c0,1,0.2,1.7,0.6,2.3c1.3,3.5,1.5,6.9,0.4,10.6c-1,3.7-2.9,6.6-5.8,8.7
		c-0.6,0.4-1.2,1-1.7,1.7c-0.2,0.4-0.4,0.8-0.6,1.2c-0.2,1-0.4,1.7-0.4,2.5c0.2,3.7-1,6.9-3.1,10c-2.1,3.1-4.8,5.2-8.5,6.2
		c-0.6,0.2-1.3,0.6-2.1,1.2c-0.4,0.4-0.8,0.8-1.2,1c-0.6,0.8-1,1.5-1.2,2.1c-1.2,3.5-3.3,6.2-6.4,8.3c-2.9,1.9-5.8,2.9-9.1,2.9l0,0
		c-0.4,0-0.6,0-1,0c-0.2,0-0.2,0-0.4,0c-0.6,0-1.3,0-2.1,0.2c-0.4,0.2-1,0.4-1.3,0.6c-0.8,0.6-1.3,1.2-1.7,1.7
		c-2.3,2.9-5.2,4.8-8.9,5.6c-1.5,0.4-2.9,0.6-4.4,0.6c-2.1,0-4-0.4-6-1.3c-0.6-0.2-1.5-0.4-2.3-0.6c-0.6,0-1,0-1.5,0.2
		c-1,0.2-1.7,0.6-2.3,1C1397.4,186.8,1394.5,187.5,1391.6,187.5z"/>
	<path class="st5" d="M1380.1,46.3c-35.3,9.1-56.5,45.1-47.4,80.4c9.3,35.5,45.1,56.7,80.4,47.4c35.3-9.1,56.5-45.1,47.4-80.4
		C1451.4,58.4,1415.3,37.2,1380.1,46.3z M1412.8,173.1c-34.7,8.9-70.2-11.9-79-46.6s11.9-70.2,46.6-79c34.7-8.9,70.2,11.9,79,46.6
		C1468.5,128.7,1447.5,164.2,1412.8,173.1z"/>
	<g>
		<g>
			<g>
				<defs>
					<polygon id="SVGID_34_" points="1301.4,3.9 1303.4,3.9 1301.4,5.8 					"/>
				</defs>
				<clipPath id="SVGID_35_">
					<use xlink:href="#SVGID_34_"  style="overflow:visible;"/>
				</clipPath>
			</g>
			<g>
				<defs>
					<polygon id="SVGID_36_" points="1301.4,3.9 1303.4,3.9 1301.4,5.8 					"/>
				</defs>
				<defs>
					<polygon id="SVGID_37_" points="1297.6,0 1295.6,0 1297.6,-1.9 					"/>
				</defs>
				<clipPath id="SVGID_38_">
					<use xlink:href="#SVGID_36_"  style="overflow:visible;"/>
				</clipPath>
				<clipPath id="SVGID_39_" class="st43">
					<use xlink:href="#SVGID_37_"  style="overflow:visible;"/>
				</clipPath>
				
					<linearGradient id="SVGID_40_" gradientUnits="userSpaceOnUse" x1="399.6981" y1="-728.1861" x2="472.0362" y2="-591.2433" gradientTransform="matrix(-0.1344 1.1462 -1.1893 -0.1394 673.3482 -481.9457)">
					<stop  offset="0" style="stop-color:#FFFFFF"/>
					<stop  offset="5.383337e-02" style="stop-color:#DFDFDF"/>
					<stop  offset="0.1552" style="stop-color:#ACACAC"/>
					<stop  offset="0.2611" style="stop-color:#7F7F7F"/>
					<stop  offset="0.3694" style="stop-color:#575757"/>
					<stop  offset="0.4805" style="stop-color:#383838"/>
					<stop  offset="0.5954" style="stop-color:#1F1F1F"/>
					<stop  offset="0.7159" style="stop-color:#0F0F10"/>
					<stop  offset="0.8453" style="stop-color:#030303"/>
					<stop  offset="1" style="stop-color:#000000"/>
				</linearGradient>
				<path class="st44" d="M1371.8,65.9c35.8,4.2,61.3,36.8,57,72.9c-1.5,13.5-7.1,25.6-15.4,35.1c25.6-6.4,45.9-28.1,49.1-56.1
					c4.2-35.8-21.2-68.4-57-72.7c-22.4-2.7-43.4,6.4-57,22.4C1356,65.7,1363.9,65.1,1371.8,65.9z"/>
			</g>
		</g>
	</g>
	
		<linearGradient id="SVGID_41_" gradientUnits="userSpaceOnUse" x1="399.6981" y1="-728.1861" x2="472.0362" y2="-591.2433" gradientTransform="matrix(-0.1344 1.1462 -1.1893 -0.1394 673.3482 -481.9457)">
		<stop  offset="0" style="stop-color:#F4F5F5"/>
		<stop  offset="7.761335e-02" style="stop-color:#F4F5F5"/>
		<stop  offset="1" style="stop-color:#F4F5F5"/>
	</linearGradient>
	<path class="st45" d="M1371.8,65.9c35.8,4.2,61.3,36.8,57,72.9c-1.5,13.5-7.1,25.6-15.4,35.1c25.6-6.4,45.9-28.1,49.1-56.1
		c4.2-35.8-21.2-68.4-57-72.7c-22.4-2.7-43.4,6.4-57,22.4C1356,65.7,1363.9,65.1,1371.8,65.9z"/>
	<g>
		<radialGradient id="SVGID_42_" cx="1446.1184" cy="97.2884" r="101.5714" gradientUnits="userSpaceOnUse">
			<stop  offset="2.453990e-02" style="stop-color:#FFFFFF"/>
			<stop  offset="1" style="stop-color:#B4E3F9"/>
		</radialGradient>
		<polygon class="st46" points="1396.6,52 1393.4,48.4 1390.9,48.6 1394.1,52.2 		"/>
		<radialGradient id="SVGID_43_" cx="1446.1149" cy="97.288" r="101.5673" gradientUnits="userSpaceOnUse">
			<stop  offset="2.453990e-02" style="stop-color:#FFFFFF"/>
			<stop  offset="1" style="stop-color:#B4E3F9"/>
		</radialGradient>
		<polygon class="st47" points="1391.6,52.2 1388,49 1385.5,49.3 1389.1,52.6 		"/>
		<radialGradient id="SVGID_44_" cx="1446.1147" cy="97.2884" r="101.5679" gradientUnits="userSpaceOnUse">
			<stop  offset="2.453990e-02" style="stop-color:#FFFFFF"/>
			<stop  offset="1" style="stop-color:#B4E3F9"/>
		</radialGradient>
		<polygon class="st48" points="1386.6,52.8 1382.8,49.9 1380.3,50.5 1384.1,53.4 		"/>
		<radialGradient id="SVGID_45_" cx="1446.1267" cy="97.2894" r="101.5808" gradientUnits="userSpaceOnUse">
			<stop  offset="2.453990e-02" style="stop-color:#FFFFFF"/>
			<stop  offset="1" style="stop-color:#B4E3F9"/>
		</radialGradient>
		<polygon class="st49" points="1381.6,54 1377.6,51.3 1375.1,52 1379.3,54.7 		"/>
		<radialGradient id="SVGID_46_" cx="1446.1177" cy="97.2892" r="101.5715" gradientUnits="userSpaceOnUse">
			<stop  offset="2.453990e-02" style="stop-color:#FFFFFF"/>
			<stop  offset="1" style="stop-color:#B4E3F9"/>
		</radialGradient>
		<polygon class="st50" points="1376.8,55.5 1372.4,53.2 1370.2,54.2 1374.5,56.5 		"/>
		<radialGradient id="SVGID_47_" cx="1446.1134" cy="97.2884" r="101.5663" gradientUnits="userSpaceOnUse">
			<stop  offset="2.453990e-02" style="stop-color:#FFFFFF"/>
			<stop  offset="1" style="stop-color:#B4E3F9"/>
		</radialGradient>
		<polygon class="st51" points="1372,57.4 1367.5,55.5 1365.4,56.7 1369.8,58.6 		"/>
		<radialGradient id="SVGID_48_" cx="1446.1149" cy="97.2882" r="101.5679" gradientUnits="userSpaceOnUse">
			<stop  offset="2.453990e-02" style="stop-color:#FFFFFF"/>
			<stop  offset="1" style="stop-color:#B4E3F9"/>
		</radialGradient>
		<polygon class="st52" points="1367.5,59.7 1362.9,58.4 1360.8,59.6 1365.4,61.1 		"/>
		<radialGradient id="SVGID_49_" cx="1446.1184" cy="97.2886" r="101.5721" gradientUnits="userSpaceOnUse">
			<stop  offset="2.453990e-02" style="stop-color:#FFFFFF"/>
			<stop  offset="1" style="stop-color:#B4E3F9"/>
		</radialGradient>
		<polygon class="st53" points="1363.3,62.4 1358.5,61.5 1356.6,63 1361.4,64 		"/>
		<radialGradient id="SVGID_50_" cx="1446.1184" cy="97.2882" r="101.5714" gradientUnits="userSpaceOnUse">
			<stop  offset="2.453990e-02" style="stop-color:#FFFFFF"/>
			<stop  offset="1" style="stop-color:#B4E3F9"/>
		</radialGradient>
		<polygon class="st54" points="1354.4,65 1352.5,66.7 1357.5,67.3 1359.2,65.5 		"/>
		<radialGradient id="SVGID_51_" cx="1446.1078" cy="97.2888" r="101.5606" gradientUnits="userSpaceOnUse">
			<stop  offset="2.453990e-02" style="stop-color:#FFFFFF"/>
			<stop  offset="1" style="stop-color:#B4E3F9"/>
		</radialGradient>
		<polygon class="st55" points="1350.6,68.8 1349,70.7 1353.9,70.9 1355.6,69 		"/>
		<radialGradient id="SVGID_52_" cx="1446.1185" cy="97.2888" r="101.5715" gradientUnits="userSpaceOnUse">
			<stop  offset="2.453990e-02" style="stop-color:#FFFFFF"/>
			<stop  offset="1" style="stop-color:#B4E3F9"/>
		</radialGradient>
		<polygon class="st56" points="1347.1,73 1345.8,75 1350.6,74.8 1352.1,72.9 		"/>
		<radialGradient id="SVGID_53_" cx="1446.1255" cy="97.2879" r="101.5781" gradientUnits="userSpaceOnUse">
			<stop  offset="2.453990e-02" style="stop-color:#FFFFFF"/>
			<stop  offset="1" style="stop-color:#B4E3F9"/>
		</radialGradient>
		<polygon class="st57" points="1344.2,77.5 1342.9,79.6 1347.7,78.8 1349,76.9 		"/>
		<radialGradient id="SVGID_54_" cx="1446.1117" cy="97.2902" r="101.565" gradientUnits="userSpaceOnUse">
			<stop  offset="2.453990e-02" style="stop-color:#FFFFFF"/>
			<stop  offset="1" style="stop-color:#B4E3F9"/>
		</radialGradient>
		<polygon class="st58" points="1346.1,81.1 1341.5,82.1 1340.4,84.4 1345.2,83.3 		"/>
		<radialGradient id="SVGID_55_" cx="1446.1348" cy="97.2884" r="101.5872" gradientUnits="userSpaceOnUse">
			<stop  offset="2.453990e-02" style="stop-color:#FFFFFF"/>
			<stop  offset="1" style="stop-color:#B4E3F9"/>
		</radialGradient>
		<polygon class="st59" points="1343.8,85.6 1339.2,87.1 1338.2,89.2 1342.9,87.9 		"/>
		<radialGradient id="SVGID_56_" cx="1446.1201" cy="97.2875" r="101.5733" gradientUnits="userSpaceOnUse">
			<stop  offset="2.453990e-02" style="stop-color:#FFFFFF"/>
			<stop  offset="1" style="stop-color:#B4E3F9"/>
		</radialGradient>
		<polygon class="st60" points="1341.9,90.2 1337.5,92.1 1336.7,94.4 1341.1,92.7 		"/>
		<radialGradient id="SVGID_57_" cx="1446.1268" cy="97.2888" r="101.5794" gradientUnits="userSpaceOnUse">
			<stop  offset="2.453990e-02" style="stop-color:#FFFFFF"/>
			<stop  offset="1" style="stop-color:#B4E3F9"/>
		</radialGradient>
		<polygon class="st61" points="1340.4,95.2 1336.1,97.3 1335.5,99.8 1340,97.5 		"/>
		<radialGradient id="SVGID_58_" cx="1446.1294" cy="97.2888" r="101.5821" gradientUnits="userSpaceOnUse">
			<stop  offset="2.453990e-02" style="stop-color:#FFFFFF"/>
			<stop  offset="1" style="stop-color:#B4E3F9"/>
		</radialGradient>
		<polygon class="st62" points="1339.4,100 1335.2,102.7 1334.8,105.2 1339,102.5 		"/>
		<radialGradient id="SVGID_59_" cx="1446.1091" cy="97.2886" r="101.5629" gradientUnits="userSpaceOnUse">
			<stop  offset="2.453990e-02" style="stop-color:#FFFFFF"/>
			<stop  offset="1" style="stop-color:#B4E3F9"/>
		</radialGradient>
		<polygon class="st63" points="1338.6,105 1334.8,108.1 1334.6,110.6 1338.6,107.5 		"/>
		<radialGradient id="SVGID_60_" cx="1446.1434" cy="97.2884" r="101.5941" gradientUnits="userSpaceOnUse">
			<stop  offset="2.453990e-02" style="stop-color:#FFFFFF"/>
			<stop  offset="1" style="stop-color:#B4E3F9"/>
		</radialGradient>
		<polygon class="st64" points="1338.4,110.2 1334.8,113.5 1335,116 1338.6,112.6 		"/>
		<radialGradient id="SVGID_61_" cx="1446.1454" cy="97.2898" r="101.5951" gradientUnits="userSpaceOnUse">
			<stop  offset="2.453990e-02" style="stop-color:#FFFFFF"/>
			<stop  offset="1" style="stop-color:#B4E3F9"/>
		</radialGradient>
		<polygon class="st65" points="1338.6,115.3 1335.4,118.9 1335.7,121.2 1339,117.8 		"/>
		<radialGradient id="SVGID_62_" cx="1446.1177" cy="97.2892" r="101.5702" gradientUnits="userSpaceOnUse">
			<stop  offset="2.453990e-02" style="stop-color:#FFFFFF"/>
			<stop  offset="1" style="stop-color:#B4E3F9"/>
		</radialGradient>
		<polygon class="st66" points="1339.2,120.3 1336.3,124.1 1336.9,126.6 1339.8,122.8 		"/>
		<radialGradient id="SVGID_63_" cx="1446.1311" cy="97.2865" r="101.5829" gradientUnits="userSpaceOnUse">
			<stop  offset="2.453990e-02" style="stop-color:#FFFFFF"/>
			<stop  offset="1" style="stop-color:#B4E3F9"/>
		</radialGradient>
		<polygon class="st67" points="1340.4,125.3 1337.7,129.3 1338.4,131.6 1341.1,127.6 		"/>
		<radialGradient id="SVGID_64_" cx="1446.0925" cy="97.295" r="101.5473" gradientUnits="userSpaceOnUse">
			<stop  offset="2.453990e-02" style="stop-color:#FFFFFF"/>
			<stop  offset="1" style="stop-color:#B4E3F9"/>
		</radialGradient>
		<polygon class="st68" points="1341.9,130.1 1339.6,134.3 1340.6,136.6 1342.9,132.4 		"/>
		<radialGradient id="SVGID_65_" cx="1446.1188" cy="97.288" r="101.5717" gradientUnits="userSpaceOnUse">
			<stop  offset="2.453990e-02" style="stop-color:#FFFFFF"/>
			<stop  offset="1" style="stop-color:#B4E3F9"/>
		</radialGradient>
		<polygon class="st69" points="1343.8,134.7 1341.9,139.3 1343.1,141.5 1345,137 		"/>
		<radialGradient id="SVGID_66_" cx="1446.1204" cy="97.28" r="101.5762" gradientUnits="userSpaceOnUse">
			<stop  offset="2.453990e-02" style="stop-color:#FFFFFF"/>
			<stop  offset="1" style="stop-color:#B4E3F9"/>
		</radialGradient>
		<polygon class="st70" points="1344.8,144 1346,146.1 1347.5,141.3 1346.1,139.3 		"/>
		<radialGradient id="SVGID_67_" cx="1446.1344" cy="97.295" r="101.5816" gradientUnits="userSpaceOnUse">
			<stop  offset="2.453990e-02" style="stop-color:#FFFFFF"/>
			<stop  offset="1" style="stop-color:#B4E3F9"/>
		</radialGradient>
		<polygon class="st71" points="1347.9,148.4 1349.4,150.3 1350.4,145.5 1348.8,143.6 		"/>
		<radialGradient id="SVGID_68_" cx="1446.1204" cy="97.295" r="101.5696" gradientUnits="userSpaceOnUse">
			<stop  offset="2.453990e-02" style="stop-color:#FFFFFF"/>
			<stop  offset="1" style="stop-color:#B4E3F9"/>
		</radialGradient>
		<polygon class="st72" points="1351.3,152.5 1353.1,154.2 1353.7,149.4 1351.9,147.6 		"/>
		<radialGradient id="SVGID_69_" cx="1446.1022" cy="97.2859" r="101.5604" gradientUnits="userSpaceOnUse">
			<stop  offset="2.453990e-02" style="stop-color:#FFFFFF"/>
			<stop  offset="1" style="stop-color:#B4E3F9"/>
		</radialGradient>
		<polygon class="st73" points="1355.2,156.3 1357.1,157.8 1357.3,153 1355.4,151.3 		"/>
		<radialGradient id="SVGID_70_" cx="1446.1207" cy="97.2811" r="101.5779" gradientUnits="userSpaceOnUse">
			<stop  offset="2.453990e-02" style="stop-color:#FFFFFF"/>
			<stop  offset="1" style="stop-color:#B4E3F9"/>
		</radialGradient>
		<polygon class="st74" points="1359.4,159.6 1361.4,161.1 1361.2,156.3 1359.2,154.8 		"/>
		<radialGradient id="SVGID_71_" cx="1446.13" cy="97.2871" r="101.581" gradientUnits="userSpaceOnUse">
			<stop  offset="2.453990e-02" style="stop-color:#FFFFFF"/>
			<stop  offset="1" style="stop-color:#B4E3F9"/>
		</radialGradient>
		<polygon class="st75" points="1363.3,157.8 1363.9,162.7 1366,164 1365.2,159.2 		"/>
		<radialGradient id="SVGID_72_" cx="1446.1167" cy="97.3029" r="101.5602" gradientUnits="userSpaceOnUse">
			<stop  offset="2.453990e-02" style="stop-color:#FFFFFF"/>
			<stop  offset="1" style="stop-color:#B4E3F9"/>
		</radialGradient>
		<polygon class="st76" points="1367.5,160.5 1368.5,165.4 1370.8,166.5 1369.7,161.7 		"/>
		<radialGradient id="SVGID_73_" cx="1446.1111" cy="97.278" r="101.5742" gradientUnits="userSpaceOnUse">
			<stop  offset="2.453990e-02" style="stop-color:#FFFFFF"/>
			<stop  offset="1" style="stop-color:#B4E3F9"/>
		</radialGradient>
		<polygon class="st77" points="1372,162.9 1373.5,167.7 1375.6,168.6 1374.3,163.8 		"/>
		<radialGradient id="SVGID_74_" cx="1446.1195" cy="97.2886" r="101.5723" gradientUnits="userSpaceOnUse">
			<stop  offset="2.453990e-02" style="stop-color:#FFFFFF"/>
			<stop  offset="1" style="stop-color:#B4E3F9"/>
		</radialGradient>
		<polygon class="st78" points="1376.6,165 1378.5,169.4 1380.8,170.2 1379.1,165.6 		"/>
		<radialGradient id="SVGID_75_" cx="1446.1128" cy="97.2827" r="101.5737" gradientUnits="userSpaceOnUse">
			<stop  offset="2.453990e-02" style="stop-color:#FFFFFF"/>
			<stop  offset="1" style="stop-color:#B4E3F9"/>
		</radialGradient>
		<polygon class="st79" points="1381.6,166.5 1383.7,170.8 1386.2,171.3 1383.9,166.9 		"/>
		<radialGradient id="SVGID_76_" cx="1446.118" cy="97.2682" r="101.5902" gradientUnits="userSpaceOnUse">
			<stop  offset="2.453990e-02" style="stop-color:#FFFFFF"/>
			<stop  offset="1" style="stop-color:#B4E3F9"/>
		</radialGradient>
		<polygon class="st80" points="1386.4,167.5 1389.1,171.7 1391.6,171.9 1388.9,167.9 		"/>
		<radialGradient id="SVGID_77_" cx="1446.1147" cy="97.3046" r="101.554" gradientUnits="userSpaceOnUse">
			<stop  offset="2.453990e-02" style="stop-color:#FFFFFF"/>
			<stop  offset="1" style="stop-color:#B4E3F9"/>
		</radialGradient>
		<polygon class="st81" points="1391.4,168.3 1394.5,172.1 1397,172.1 1393.9,168.3 		"/>
		<radialGradient id="SVGID_78_" cx="1446.1121" cy="97.3139" r="101.5415" gradientUnits="userSpaceOnUse">
			<stop  offset="2.453990e-02" style="stop-color:#FFFFFF"/>
			<stop  offset="1" style="stop-color:#B4E3F9"/>
		</radialGradient>
		<polygon class="st82" points="1396.6,168.4 1399.9,172.1 1402.4,171.9 1399,168.3 		"/>
		<radialGradient id="SVGID_79_" cx="1446.1215" cy="97.3062" r="101.5532" gradientUnits="userSpaceOnUse">
			<stop  offset="2.453990e-02" style="stop-color:#FFFFFF"/>
			<stop  offset="1" style="stop-color:#B4E3F9"/>
		</radialGradient>
		<polygon class="st83" points="1401.7,168.3 1405.3,171.5 1407.6,171.1 1404.2,167.9 		"/>
		<radialGradient id="SVGID_80_" cx="1446.1168" cy="97.2809" r="101.5794" gradientUnits="userSpaceOnUse">
			<stop  offset="2.453990e-02" style="stop-color:#FFFFFF"/>
			<stop  offset="1" style="stop-color:#B4E3F9"/>
		</radialGradient>
		<polygon class="st84" points="1406.7,167.5 1410.5,170.6 1413,170 1409.2,167.1 		"/>
		<radialGradient id="SVGID_81_" cx="1446.1208" cy="97.3139" r="101.5409" gradientUnits="userSpaceOnUse">
			<stop  offset="2.453990e-02" style="stop-color:#FFFFFF"/>
			<stop  offset="1" style="stop-color:#B4E3F9"/>
		</radialGradient>
		<polygon class="st85" points="1411.7,166.5 1415.7,169 1418,168.3 1414,165.8 		"/>
		<radialGradient id="SVGID_82_" cx="1446.1198" cy="97.2958" r="101.5619" gradientUnits="userSpaceOnUse">
			<stop  offset="2.453990e-02" style="stop-color:#FFFFFF"/>
			<stop  offset="1" style="stop-color:#B4E3F9"/>
		</radialGradient>
		<polygon class="st86" points="1416.5,165 1420.7,167.1 1423,166.3 1418.8,164 		"/>
		<radialGradient id="SVGID_83_" cx="1446.1191" cy="97.2803" r="101.5841" gradientUnits="userSpaceOnUse">
			<stop  offset="2.453990e-02" style="stop-color:#FFFFFF"/>
			<stop  offset="1" style="stop-color:#B4E3F9"/>
		</radialGradient>
		<polygon class="st87" points="1421.1,163.1 1425.7,164.8 1427.9,163.6 1423.4,161.9 		"/>
		<radialGradient id="SVGID_84_" cx="1446.1195" cy="97.289" r="101.5717" gradientUnits="userSpaceOnUse">
			<stop  offset="2.453990e-02" style="stop-color:#FFFFFF"/>
			<stop  offset="1" style="stop-color:#B4E3F9"/>
		</radialGradient>
		<polygon class="st88" points="1425.7,160.7 1430.4,162.1 1432.5,160.7 1427.7,159.4 		"/>
		<radialGradient id="SVGID_85_" cx="1446.1174" cy="97.2576" r="101.6224" gradientUnits="userSpaceOnUse">
			<stop  offset="2.453990e-02" style="stop-color:#FFFFFF"/>
			<stop  offset="1" style="stop-color:#B4E3F9"/>
		</radialGradient>
		<polygon class="st89" points="1430,157.8 1434.8,159 1436.7,157.5 1431.9,156.5 		"/>
		<radialGradient id="SVGID_86_" cx="1446.1185" cy="97.2694" r="101.606" gradientUnits="userSpaceOnUse">
			<stop  offset="2.453990e-02" style="stop-color:#FFFFFF"/>
			<stop  offset="1" style="stop-color:#B4E3F9"/>
		</radialGradient>
		<polygon class="st90" points="1434,154.8 1438.8,155.5 1440.6,153.8 1435.8,153.2 		"/>
		<radialGradient id="SVGID_87_" cx="1446.1194" cy="97.278" r="101.5912" gradientUnits="userSpaceOnUse">
			<stop  offset="2.453990e-02" style="stop-color:#FFFFFF"/>
			<stop  offset="1" style="stop-color:#B4E3F9"/>
		</radialGradient>
		<polygon class="st91" points="1437.7,151.5 1442.7,151.7 1444.2,149.8 1439.4,149.6 		"/>
		<radialGradient id="SVGID_88_" cx="1446.119" cy="97.2618" r="101.6271" gradientUnits="userSpaceOnUse">
			<stop  offset="2.453990e-02" style="stop-color:#FFFFFF"/>
			<stop  offset="1" style="stop-color:#B4E3F9"/>
		</radialGradient>
		<polygon class="st92" points="1441.2,147.6 1446,147.4 1447.5,145.5 1442.7,145.7 		"/>
		<radialGradient id="SVGID_89_" cx="1446.1188" cy="97.3098" r="101.5243" gradientUnits="userSpaceOnUse">
			<stop  offset="2.453990e-02" style="stop-color:#FFFFFF"/>
			<stop  offset="1" style="stop-color:#B4E3F9"/>
		</radialGradient>
		<polygon class="st93" points="1444.2,143.6 1449.1,143 1450.4,140.9 1445.6,141.5 		"/>
		<radialGradient id="SVGID_90_" cx="1446.1182" cy="97.2732" r="101.6095" gradientUnits="userSpaceOnUse">
			<stop  offset="2.453990e-02" style="stop-color:#FFFFFF"/>
			<stop  offset="1" style="stop-color:#B4E3F9"/>
		</radialGradient>
		<polygon class="st94" points="1446.9,139.3 1451.8,138.4 1452.9,136.1 1448.1,137.2 		"/>
		<radialGradient id="SVGID_91_" cx="1446.119" cy="97.2857" r="101.5798" gradientUnits="userSpaceOnUse">
			<stop  offset="2.453990e-02" style="stop-color:#FFFFFF"/>
			<stop  offset="1" style="stop-color:#B4E3F9"/>
		</radialGradient>
		<polygon class="st95" points="1449.3,134.9 1454.1,133.4 1455,131.1 1450.2,132.6 		"/>
		<radialGradient id="SVGID_92_" cx="1446.1182" cy="97.2911" r="101.5642" gradientUnits="userSpaceOnUse">
			<stop  offset="2.453990e-02" style="stop-color:#FFFFFF"/>
			<stop  offset="1" style="stop-color:#B4E3F9"/>
		</radialGradient>
		<polygon class="st96" points="1451.4,130.1 1455.8,128.4 1456.6,126 1452,127.8 		"/>
		<radialGradient id="SVGID_93_" cx="1446.1194" cy="97.2861" r="101.5773" gradientUnits="userSpaceOnUse">
			<stop  offset="2.453990e-02" style="stop-color:#FFFFFF"/>
			<stop  offset="1" style="stop-color:#B4E3F9"/>
		</radialGradient>
		<polygon class="st97" points="1452.7,125.3 1457.2,123.2 1457.7,120.7 1453.3,123 		"/>
		<radialGradient id="SVGID_94_" cx="1446.119" cy="97.29" r="101.565" gradientUnits="userSpaceOnUse">
			<stop  offset="2.453990e-02" style="stop-color:#FFFFFF"/>
			<stop  offset="1" style="stop-color:#B4E3F9"/>
		</radialGradient>
		<polygon class="st98" points="1453.9,120.5 1458.1,117.8 1458.3,115.3 1454.3,118 		"/>
		<radialGradient id="SVGID_95_" cx="1446.119" cy="97.2882" r="101.5756" gradientUnits="userSpaceOnUse">
			<stop  offset="2.453990e-02" style="stop-color:#FFFFFF"/>
			<stop  offset="1" style="stop-color:#B4E3F9"/>
		</radialGradient>
		<polygon class="st99" points="1454.7,112.9 1454.7,115.3 1458.5,112.4 1458.5,109.9 		"/>
		<radialGradient id="SVGID_96_" cx="1446.1198" cy="97.2888" r="101.5677" gradientUnits="userSpaceOnUse">
			<stop  offset="2.453990e-02" style="stop-color:#FFFFFF"/>
			<stop  offset="1" style="stop-color:#B4E3F9"/>
		</radialGradient>
		<polygon class="st100" points="1454.8,110.2 1458.5,107 1458.3,104.5 1454.7,107.7 		"/>
		<radialGradient id="SVGID_97_" cx="1446.1185" cy="97.2888" r="101.5683" gradientUnits="userSpaceOnUse">
			<stop  offset="2.453990e-02" style="stop-color:#FFFFFF"/>
			<stop  offset="1" style="stop-color:#B4E3F9"/>
		</radialGradient>
		<polygon class="st101" points="1454.7,105.2 1457.9,101.6 1457.5,99.1 1454.3,102.7 		"/>
		<radialGradient id="SVGID_98_" cx="1446.1177" cy="97.288" r="101.581" gradientUnits="userSpaceOnUse">
			<stop  offset="2.453990e-02" style="stop-color:#FFFFFF"/>
			<stop  offset="1" style="stop-color:#B4E3F9"/>
		</radialGradient>
		<polygon class="st102" points="1453.9,100.2 1457,96.4 1456.4,93.9 1453.5,97.7 		"/>
		<radialGradient id="SVGID_99_" cx="1446.1199" cy="97.2886" r="101.5582" gradientUnits="userSpaceOnUse">
			<stop  offset="2.453990e-02" style="stop-color:#FFFFFF"/>
			<stop  offset="1" style="stop-color:#B4E3F9"/>
		</radialGradient>
		<polygon class="st103" points="1452.9,95.2 1455.4,91.2 1454.7,88.7 1452.1,92.9 		"/>
		<radialGradient id="SVGID_100_" cx="1446.1174" cy="97.2875" r="101.576" gradientUnits="userSpaceOnUse">
			<stop  offset="2.453990e-02" style="stop-color:#FFFFFF"/>
			<stop  offset="1" style="stop-color:#B4E3F9"/>
		</radialGradient>
		<polygon class="st104" points="1451.4,90.4 1453.5,86 1452.7,83.8 1450.4,88.1 		"/>
		<radialGradient id="SVGID_101_" cx="1446.1185" cy="97.2898" r="101.5802" gradientUnits="userSpaceOnUse">
			<stop  offset="2.453990e-02" style="stop-color:#FFFFFF"/>
			<stop  offset="1" style="stop-color:#B4E3F9"/>
		</radialGradient>
		<polygon class="st105" points="1449.4,85.6 1451.2,81.1 1450,79 1448.3,83.5 		"/>
		<radialGradient id="SVGID_102_" cx="1446.1185" cy="97.2882" r="101.5702" gradientUnits="userSpaceOnUse">
			<stop  offset="2.453990e-02" style="stop-color:#FFFFFF"/>
			<stop  offset="1" style="stop-color:#B4E3F9"/>
		</radialGradient>
		<polygon class="st106" points="1448.5,76.5 1447.1,74.4 1445.8,79 1446.9,81.1 		"/>
		<radialGradient id="SVGID_103_" cx="1446.1184" cy="97.2886" r="101.5723" gradientUnits="userSpaceOnUse">
			<stop  offset="2.453990e-02" style="stop-color:#FFFFFF"/>
			<stop  offset="1" style="stop-color:#B4E3F9"/>
		</radialGradient>
		<polygon class="st107" points="1445.4,72.1 1443.9,70.2 1442.9,75 1444.2,76.9 		"/>
		<radialGradient id="SVGID_104_" cx="1446.1184" cy="97.2884" r="101.5712" gradientUnits="userSpaceOnUse">
			<stop  offset="2.453990e-02" style="stop-color:#FFFFFF"/>
			<stop  offset="1" style="stop-color:#B4E3F9"/>
		</radialGradient>
		<polygon class="st108" points="1441.9,68 1440.2,66.1 1439.6,71.1 1441.2,72.9 		"/>
		<radialGradient id="SVGID_105_" cx="1446.1184" cy="97.2882" r="101.5712" gradientUnits="userSpaceOnUse">
			<stop  offset="2.453990e-02" style="stop-color:#FFFFFF"/>
			<stop  offset="1" style="stop-color:#B4E3F9"/>
		</radialGradient>
		<polygon class="st109" points="1438.1,64.2 1436.1,62.6 1436,67.5 1437.9,69.2 		"/>
		<radialGradient id="SVGID_106_" cx="1446.1161" cy="97.2882" r="101.5688" gradientUnits="userSpaceOnUse">
			<stop  offset="2.453990e-02" style="stop-color:#FFFFFF"/>
			<stop  offset="1" style="stop-color:#B4E3F9"/>
		</radialGradient>
		<polygon class="st110" points="1433.8,60.7 1431.9,59.4 1432.1,64.2 1434,65.7 		"/>
		<radialGradient id="SVGID_107_" cx="1446.1157" cy="97.289" r="101.5698" gradientUnits="userSpaceOnUse">
			<stop  offset="2.453990e-02" style="stop-color:#FFFFFF"/>
			<stop  offset="1" style="stop-color:#B4E3F9"/>
		</radialGradient>
		<polygon class="st111" points="1430,62.6 1429.4,57.8 1427.3,56.5 1427.9,61.3 		"/>
		<radialGradient id="SVGID_108_" cx="1446.1132" cy="97.2886" r="101.5555" gradientUnits="userSpaceOnUse">
			<stop  offset="2.453990e-02" style="stop-color:#FFFFFF"/>
			<stop  offset="1" style="stop-color:#B4E3F9"/>
		</radialGradient>
		<polygon class="st112" points="1425.7,59.7 1424.8,55.1 1422.5,54 1423.6,58.8 		"/>
		<radialGradient id="SVGID_109_" cx="1446.1245" cy="97.2884" r="101.5779" gradientUnits="userSpaceOnUse">
			<stop  offset="2.453990e-02" style="stop-color:#FFFFFF"/>
			<stop  offset="1" style="stop-color:#B4E3F9"/>
		</radialGradient>
		<polygon class="st113" points="1421.3,57.4 1419.8,52.8 1417.5,51.8 1419,56.5 		"/>
		<radialGradient id="SVGID_110_" cx="1446.1155" cy="97.2888" r="101.569" gradientUnits="userSpaceOnUse">
			<stop  offset="2.453990e-02" style="stop-color:#FFFFFF"/>
			<stop  offset="1" style="stop-color:#B4E3F9"/>
		</radialGradient>
		<polygon class="st114" points="1416.5,55.5 1414.8,51.1 1412.3,50.3 1414.2,54.7 		"/>
		<radialGradient id="SVGID_111_" cx="1446.1221" cy="97.2892" r="101.5762" gradientUnits="userSpaceOnUse">
			<stop  offset="2.453990e-02" style="stop-color:#FFFFFF"/>
			<stop  offset="1" style="stop-color:#B4E3F9"/>
		</radialGradient>
		<polygon class="st115" points="1411.7,54 1409.6,49.7 1407,49.1 1409.4,53.6 		"/>
		<radialGradient id="SVGID_112_" cx="1446.119" cy="97.2888" r="101.5717" gradientUnits="userSpaceOnUse">
			<stop  offset="2.453990e-02" style="stop-color:#FFFFFF"/>
			<stop  offset="1" style="stop-color:#B4E3F9"/>
		</radialGradient>
		<polygon class="st116" points="1406.9,53 1404.2,48.8 1401.7,48.4 1404.3,52.6 		"/>
		<radialGradient id="SVGID_113_" cx="1446.1227" cy="97.2888" r="101.576" gradientUnits="userSpaceOnUse">
			<stop  offset="2.453990e-02" style="stop-color:#FFFFFF"/>
			<stop  offset="1" style="stop-color:#B4E3F9"/>
		</radialGradient>
		<polygon class="st117" points="1401.7,52.2 1398.8,48.4 1396.3,48.2 1399.3,52.2 		"/>
	</g>
	<g>
		<g>
			<g>
				<radialGradient id="SVGID_114_" cx="1396.5835" cy="68.4912" r="3.0101" gradientUnits="userSpaceOnUse">
					<stop  offset="2.453990e-02" style="stop-color:#FFFFFF"/>
					<stop  offset="1" style="stop-color:#B4E3F9"/>
				</radialGradient>
				<path class="st118" d="M1396.6,65.5l0.6,2.3h2.3l-1.9,1.3l0.6,2.3l-1.9-1.3l-1.9,1.3l0.8-2.1l-1.9-1.3h2.3L1396.6,65.5z"/>
			</g>
			<g>
				<radialGradient id="SVGID_115_" cx="1386.5475" cy="70.0271" r="3.0097" gradientUnits="userSpaceOnUse">
					<stop  offset="2.453990e-02" style="stop-color:#FFFFFF"/>
					<stop  offset="1" style="stop-color:#B4E3F9"/>
				</radialGradient>
				<path class="st119" d="M1386.6,67.1l0.6,2.3h2.3l-1.9,1.3l0.6,2.3l-1.9-1.3l-1.9,1.3l0.8-2.1l-1.9-1.3h2.3L1386.6,67.1z"/>
			</g>
			<g>
				<radialGradient id="SVGID_116_" cx="1406.7041" cy="70.0271" r="3.0097" gradientUnits="userSpaceOnUse">
					<stop  offset="2.453990e-02" style="stop-color:#FFFFFF"/>
					<stop  offset="1" style="stop-color:#B4E3F9"/>
				</radialGradient>
				<path class="st120" d="M1406.7,67.1l0.8,2.3h2.3l-1.9,1.3l0.6,2.3l-1.9-1.3l-1.9,1.3l0.8-2.1l-1.9-1.3h2.3L1406.7,67.1z"/>
			</g>
		</g>
		
			<radialGradient id="SVGID_117_" cx="1567.2915" cy="-173.2813" r="5.7722" gradientTransform="matrix(0.729 0 0 0.5 233.1328 156.9598)" gradientUnits="userSpaceOnUse">
			<stop  offset="2.453990e-02" style="stop-color:#FFFFFF"/>
			<stop  offset="1" style="stop-color:#B4E3F9"/>
		</radialGradient>
		<rect x="1369.7" y="70.2" class="st121" width="11.9" height="0.2"/>
		
			<radialGradient id="SVGID_118_" cx="1786.3776" cy="-171.0477" r="5.772" gradientTransform="matrix(0.5571 0 0 0.5 381.9004 156.9598)" gradientUnits="userSpaceOnUse">
			<stop  offset="2.453990e-02" style="stop-color:#FFFFFF"/>
			<stop  offset="1" style="stop-color:#B4E3F9"/>
		</radialGradient>
		<rect x="1372.5" y="71.3" class="st122" width="9.1" height="0.2"/>
		
			<radialGradient id="SVGID_119_" cx="269.1583" cy="-173.2813" r="5.7722" gradientTransform="matrix(-0.729 0 0 0.5 1613.9475 156.9598)" gradientUnits="userSpaceOnUse">
			<stop  offset="2.453990e-02" style="stop-color:#FFFFFF"/>
			<stop  offset="1" style="stop-color:#B4E3F9"/>
		</radialGradient>
		<rect x="1411.9" y="70.2" class="st123" width="11.9" height="0.2"/>
		
			<radialGradient id="SVGID_120_" cx="87.6914" cy="-171.0477" r="5.772" gradientTransform="matrix(-0.5571 0 0 0.5 1465.1809 156.9598)" gradientUnits="userSpaceOnUse">
			<stop  offset="2.453990e-02" style="stop-color:#FFFFFF"/>
			<stop  offset="1" style="stop-color:#B4E3F9"/>
		</radialGradient>
		<rect x="1411.9" y="71.3" class="st124" width="9.1" height="0.2"/>
	</g>
	<g>
		<path class="st5" d="M1362.3,102.9c-3.1,2.1-5.4,3.1-6.9,3.5h13.9v-3.5C1366.8,99.6,1362.3,102.9,1362.3,102.9L1362.3,102.9z"/>
		<path class="st5" d="M1349.4,103.3l-2.9,2.9h6.7C1351.5,106,1349.8,104.7,1349.4,103.3L1349.4,103.3z"/>
		<path class="st5" d="M1350.4,102.5c1.5,1.5,4.8,1.5,11-2.9c0,0,5.8-4.2,7.7,1.5V83.8L1350.4,102.5L1350.4,102.5z"/>
		<polygon class="st5" points="1371.6,104.5 1371,104.5 1371,104.3 1372.5,104.3 1372.5,104.5 1371.8,104.5 1371.8,106.4 
			1371.6,106.4 		"/>
		<polygon class="st5" points="1372.9,104.3 1373.1,104.3 1373.9,106 1374.7,104.3 1375.1,104.3 1375.1,106.4 1374.9,106.4 
			1374.9,104.5 1374.7,104.5 1373.9,106.4 1373.9,106.4 1373.1,104.5 1373.1,104.5 1373.1,106.4 1372.9,106.4 		"/>
		<path class="st5" d="M1384.1,93.9c-0.8-0.8-1.5-1-2.1-1c-2.1,0-3.7,1.7-3.7,3.9c0,2.3,1.3,3.9,3.7,3.9c0.8,0,1.7-0.4,2.3-1.3
			l1.5,1.2c-1,1.3-2.3,1.9-3.9,1.9c-3.3,0-5.6-2.1-5.6-5.4c0-3.5,2.3-5.6,5.6-5.6c1.3,0,2.7,0.4,3.7,1.7L1384.1,93.9L1384.1,93.9z"
			/>
		<path class="st5" d="M1393,97.9l-1.5-4.2l-1.7,4.2H1393L1393,97.9z M1390.5,91.4h1.5l4.6,10.6h-2.1l-1-2.5h-4.6l-1,2.5h-2.1
			L1390.5,91.4L1390.5,91.4z"/>
		<polygon class="st5" points="1398,91.4 1399.9,91.4 1399.9,100.2 1404.3,100.2 1404.3,101.8 1398,101.8 		"/>
		<polygon class="st5" points="1408.4,97.3 1404.5,91.4 1406.9,91.4 1409.4,95.6 1412.1,91.4 1414.4,91.4 1410.3,97.3 1410.3,101.8 
			1408.4,101.8 		"/>
		<path class="st5" d="M1418.4,95.8c1.2,0,2.5,0,2.5-1.5c0-1.3-1.2-1.5-2.3-1.5h-1.3v2.9L1418.4,95.8L1418.4,95.8z M1415.3,91.4h3.7
			c2.1,0,3.9,0.8,3.9,3.1c0,2.7-1.9,3.1-4.2,3.1h-1.3v4.4h-1.9V91.4L1415.3,91.4z"/>
		<path class="st5" d="M1429.8,93.7c-0.4-0.6-1.2-0.8-1.9-0.8c-0.8,0-1.7,0.4-1.7,1.3c0,2.1,5,1,5,4.6c0,2.3-1.7,3.3-3.9,3.3
			c-1.3,0-2.5-0.4-3.5-1.3l1.3-1.3c0.4,0.8,1.2,1.2,2.1,1.2c0.8,0,1.9-0.4,1.9-1.3c0-2.3-5-1-5-4.8c0-2.1,1.9-3.3,3.9-3.3
			c1.2,0,2.1,0.4,3.1,1.2L1429.8,93.7L1429.8,93.7z"/>
		<path class="st5" d="M1438.3,100.4c2.1,0,3.7-1.7,3.7-3.9c0-2.1-1.3-3.9-3.7-3.9c-2.1,0-3.7,1.7-3.7,3.9
			C1434.8,98.7,1436.1,100.4,1438.3,100.4L1438.3,100.4z M1438.3,91c3.3,0,5.6,2.1,5.6,5.6c0,3.3-2.3,5.4-5.6,5.6
			c-3.3,0-5.6-2.1-5.6-5.4C1432.7,93.3,1435,91,1438.3,91L1438.3,91z"/>
		<path class="st5" d="M1444.8,91.9v0.6c0,0,0,0,0.2,0s0.2,0,0.4,0v-0.2C1445.4,92.1,1445.2,91.9,1444.8,91.9L1444.8,91.9
			L1444.8,91.9L1444.8,91.9z M1445.4,93.5l-0.4-0.8h-0.2v0.8h-0.2v-1.5h0.4c0.4,0,0.6,0.2,0.6,0.4s-0.2,0.4-0.4,0.4l0.4,0.8
			L1445.4,93.5L1445.4,93.5z M1446.2,92.7c0-0.4-0.2-0.6-0.4-0.8c-0.2-0.2-0.4-0.4-0.8-0.4s-0.6,0.2-0.8,0.4
			c-0.2,0.2-0.2,0.4-0.2,0.8c0,0.4,0.2,0.6,0.4,0.8s0.4,0.4,0.8,0.4c0.4,0,0.6-0.2,0.8-0.4C1446,93.3,1446.2,92.9,1446.2,92.7
			L1446.2,92.7z M1443.9,92.7c0-0.4,0.2-0.6,0.4-1c0.2-0.2,0.6-0.4,1-0.4c0.4,0,0.6,0.2,1,0.4c0.2,0.2,0.4,0.6,0.4,1s-0.2,0.6-0.4,1
			c-0.2,0.2-0.6,0.4-1,0.4c-0.4,0-0.6-0.2-1-0.4C1443.9,93.3,1443.9,92.9,1443.9,92.7L1443.9,92.7z"/>
	</g>
	<g>
		<path class="st5" d="M1375.2,117.2c1,0,1.7,0.4,2.1,1l-0.8,1c-0.4-0.4-0.8-0.6-1.3-0.6c-1.3,0-2.1,1.2-2.1,2.9s0.8,2.9,2.1,2.9
			c0.8,0,1.2-0.2,1.5-0.8l0.8,0.8c-0.6,0.8-1.5,1.2-2.5,1.2c-1.9,0-3.5-1.3-3.5-4S1373.1,117.2,1375.2,117.2z"/>
		<path class="st5" d="M1378.7,117.4h4.6v1.2h-3.3v1.9h2.7v1.2h-2.7v2.3h3.5v1.2h-4.8V117.4z"/>
		<path class="st5" d="M1389.5,125.1l-1.7-3.1h-1.2v3.1h-1.3v-7.7h2.7c1.5,0,2.9,0.6,2.9,2.3c0,1.2-0.6,1.9-1.5,2.3l1.9,3.3
			L1389.5,125.1L1389.5,125.1z M1386.6,121h1.2c1,0,1.5-0.4,1.5-1.3c0-1-0.6-1.2-1.5-1.2h-1.2V121z"/>
		<path class="st5" d="M1393.6,118.5h-2.3v-1.2h5.8v1.2h-2.3v6.6h-1.3v-6.6H1393.6z"/>
		<path class="st5" d="M1398.6,117.4h1.3v7.7h-1.3V117.4z"/>
		<path class="st5" d="M1401.8,117.4h4.6v1.2h-3.3v2.1h2.9v1.2h-2.9v3.3h-1.3V117.4z"/>
		<path class="st5" d="M1407.8,117.4h1.5v7.7h-1.3L1407.8,117.4L1407.8,117.4z"/>
		<path class="st5" d="M1411.3,117.4h4.6v1.2h-3.3v1.9h2.7v1.2h-2.7v2.3h3.5v1.2h-4.8V117.4z"/>
		<path class="st5" d="M1417.6,117.4h2.1c2.3,0,3.9,1.3,3.9,3.9c0,2.5-1.3,3.9-3.7,3.9h-2.1L1417.6,117.4L1417.6,117.4z
			 M1419.6,123.9c1.5,0,2.5-1,2.5-2.9s-1-2.7-2.5-2.7h-0.6v5.6H1419.6z"/>
	</g>
	<g>
		
			<linearGradient id="SVGID_121_" gradientUnits="userSpaceOnUse" x1="1328.4117" y1="221.5323" x2="1466.2161" y2="221.5323" gradientTransform="matrix(1 0 0 1.1999 0 -116.9544)">
			<stop  offset="0" style="stop-color:#0B4166"/>
			<stop  offset="1" style="stop-color:#00609C"/>
		</linearGradient>
		<path class="st125" d="M1466.2,162.1c-45.7,7.9-92.3,7.9-137.8,0c0-10.8,0-21.6,0-32.4c45.7,7.9,92.3,7.9,137.8,0
			C1466.2,140.5,1466.2,151.3,1466.2,162.1z"/>
		<g>
			<radialGradient id="SVGID_122_" cx="1397.0248" cy="136.1662" r="45.4827" gradientUnits="userSpaceOnUse">
				<stop  offset="0" style="stop-color:#D3EEFB"/>
				<stop  offset="1" style="stop-color:#70BBE7"/>
			</radialGradient>
			<path class="st126" d="M1461.2,133.9c-0.8,0.2-1.5,0.2-2.3,0.4c0-0.2,0-0.4,0-0.6c0.8-0.2,1.5-0.2,2.3-0.4
				C1461.2,133.6,1461.2,133.8,1461.2,133.9z M1456.8,134.5c-0.8,0.2-1.5,0.2-2.3,0.4c0-0.2,0-0.4,0-0.6c0.8-0.2,1.5-0.2,2.3-0.4
				C1456.8,134.1,1456.8,134.3,1456.8,134.5z M1452.3,135.3c-0.8,0.2-1.5,0.2-2.3,0.4c0-0.2,0-0.4,0-0.6c0.8-0.2,1.5-0.2,2.3-0.4
				C1452.3,134.9,1452.3,135.1,1452.3,135.3z M1447.9,135.9c-0.8,0-1.5,0.2-2.3,0.2c0-0.2,0-0.4,0-0.6c0.8,0,1.5-0.2,2.3-0.2
				C1447.9,135.5,1447.9,135.7,1447.9,135.9z M1443.3,136.5c-0.8,0-1.5,0.2-2.3,0.2c0-0.2,0-0.4,0-0.6c0.8,0,1.5-0.2,2.3-0.2
				C1443.3,136.1,1443.3,136.3,1443.3,136.5z M1438.8,136.8c-0.8,0-1.5,0.2-2.3,0.2c0-0.2,0-0.4,0-0.6c0.8,0,1.5-0.2,2.3-0.2
				C1438.8,136.5,1438.8,136.6,1438.8,136.8z M1434.4,137.4c-0.8,0-1.5,0.2-2.3,0.2c0-0.2,0-0.4,0-0.6c0.8,0,1.5-0.2,2.3-0.2
				C1434.4,137,1434.4,137.2,1434.4,137.4z M1429.8,137.8c-0.8,0-1.5,0.2-2.3,0.2c0-0.2,0-0.4,0-0.6c0.8,0,1.5-0.2,2.3-0.2
				C1429.8,137.4,1429.8,137.6,1429.8,137.8z M1425.4,138c-0.8,0-1.5,0.2-2.3,0.2c0-0.2,0-0.4,0-0.6c0.8,0,1.5-0.2,2.3-0.2
				C1425.4,137.6,1425.4,137.8,1425.4,138z M1420.7,138.4c-0.8,0-1.5,0-2.3,0.2c0-0.2,0-0.4,0-0.6c0.8,0,1.5,0,2.3-0.2
				C1420.7,138,1420.7,138.2,1420.7,138.4z M1416.3,138.6c-0.8,0-1.5,0-2.3,0.2c0-0.2,0-0.4,0-0.6c0.8,0,1.5,0,2.3-0.2
				C1416.3,138.2,1416.3,138.4,1416.3,138.6z M1411.9,138.8c-0.8,0-1.5,0-2.3,0c0-0.2,0-0.4,0-0.6c0.8,0,1.5,0,2.3,0
				C1411.9,138.4,1411.9,138.6,1411.9,138.8z M1407.2,139c-0.8,0-1.5,0-2.3,0c0-0.2,0-0.4,0-0.6c0.8,0,1.5,0,2.3,0
				C1407.2,138.6,1407.2,138.8,1407.2,139z M1402.8,139c-0.8,0-1.5,0-2.3,0c0-0.2,0-0.4,0-0.6c0.8,0,1.5,0,2.3,0
				C1402.8,138.6,1402.8,138.8,1402.8,139z M1398.2,139c-0.8,0-1.5,0-2.3,0c0-0.2,0-0.4,0-0.6c0.8,0,1.5,0,2.3,0
				C1398.2,138.6,1398.2,138.8,1398.2,139z M1393.7,139c-0.8,0-1.5,0-2.3,0c0-0.2,0-0.4,0-0.6c0.8,0,1.5,0,2.3,0
				C1393.7,138.6,1393.7,138.8,1393.7,139z M1389.1,139c-0.8,0-1.5,0-2.3,0c0-0.2,0-0.4,0-0.6c0.8,0,1.5,0,2.3,0
				C1389.1,138.6,1389.1,138.8,1389.1,139z M1384.7,138.8c-0.8,0-1.5,0-2.3,0c0-0.2,0-0.4,0-0.6c0.8,0,1.5,0,2.3,0
				C1384.7,138.4,1384.7,138.6,1384.7,138.8z M1380.3,138.8c-0.8,0-1.5,0-2.3-0.2c0-0.2,0-0.4,0-0.6c0.8,0,1.5,0,2.3,0.2
				C1380.3,138.4,1380.3,138.6,1380.3,138.8z M1375.6,138.4c-0.8,0-1.5,0-2.3-0.2c0-0.2,0-0.4,0-0.6c0.8,0,1.5,0,2.3,0.2
				C1375.6,138,1375.6,138.2,1375.6,138.4z M1371.2,138.2c-0.8,0-1.5-0.2-2.3-0.2c0-0.2,0-0.4,0-0.6c0.8,0,1.5,0.2,2.3,0.2
				C1371.2,137.8,1371.2,138,1371.2,138.2z M1366.6,137.8c-0.8,0-1.5-0.2-2.3-0.2c0-0.2,0-0.4,0-0.6c0.8,0,1.5,0.2,2.3,0.2
				C1366.6,137.4,1366.6,137.6,1366.6,137.8z M1362.1,137.4c-0.8,0-1.5-0.2-2.3-0.2c0-0.2,0-0.4,0-0.6c0.8,0,1.5,0.2,2.3,0.2
				C1362.1,137,1362.1,137.2,1362.1,137.4z M1357.7,137c-0.8,0-1.5-0.2-2.3-0.2c0-0.2,0-0.4,0-0.6c0.8,0,1.5,0.2,2.3,0.2
				C1357.7,136.6,1357.7,136.8,1357.7,137z M1353.1,136.6c-0.8,0-1.5-0.2-2.3-0.2c0-0.2,0-0.4,0-0.6c0.8,0,1.5,0.2,2.3,0.2
				C1353.1,136.3,1353.1,136.5,1353.1,136.6z M1348.6,136.1c-0.8,0-1.5-0.2-2.3-0.2c0-0.2,0-0.4,0-0.6c0.8,0,1.5,0.2,2.3,0.2
				C1348.6,135.7,1348.6,135.9,1348.6,136.1z M1344.2,135.5c-0.8-0.2-1.5-0.2-2.3-0.4c0-0.2,0-0.4,0-0.6c0.8,0.2,1.5,0.2,2.3,0.4
				C1344.2,135.1,1344.2,135.3,1344.2,135.5z M1339.6,134.9c-0.8-0.2-1.5-0.2-2.3-0.4c0-0.2,0-0.4,0-0.6c0.8,0.2,1.5,0.2,2.3,0.4
				C1339.6,134.5,1339.6,134.7,1339.6,134.9z M1335.2,134.1c-0.8-0.2-1.5-0.2-2.3-0.4c0-0.2,0-0.4,0-0.6c0.8,0.2,1.5,0.2,2.3,0.4
				C1335.2,133.8,1335.2,133.9,1335.2,134.1z"/>
		</g>
		<g>
			<radialGradient id="SVGID_123_" cx="1397.0248" cy="161.48" r="45.4827" gradientUnits="userSpaceOnUse">
				<stop  offset="0" style="stop-color:#D3EEFB"/>
				<stop  offset="1" style="stop-color:#70BBE7"/>
			</radialGradient>
			<path class="st127" d="M1461.2,159.2c-0.8,0.2-1.5,0.2-2.3,0.4c0-0.2,0-0.4,0-0.6c0.8-0.2,1.5-0.2,2.3-0.4
				C1461.2,158.8,1461.2,159,1461.2,159.2z M1456.8,160c-0.8,0.2-1.5,0.2-2.3,0.4c0-0.2,0-0.4,0-0.6c0.8-0.2,1.5-0.2,2.3-0.4
				C1456.8,159.6,1456.8,159.8,1456.8,160z M1452.3,160.5c-0.8,0.2-1.5,0.2-2.3,0.4c0-0.2,0-0.4,0-0.6c0.8-0.2,1.5-0.2,2.3-0.4
				C1452.3,160.2,1452.3,160.4,1452.3,160.5z M1447.9,161.1c-0.8,0-1.5,0.2-2.3,0.2c0-0.2,0-0.4,0-0.6c0.8,0,1.5-0.2,2.3-0.2
				C1447.9,160.7,1447.9,160.9,1447.9,161.1z M1443.3,161.7c-0.8,0-1.5,0.2-2.3,0.2c0-0.2,0-0.4,0-0.6c0.8,0,1.5-0.2,2.3-0.2
				C1443.3,161.3,1443.3,161.5,1443.3,161.7z M1438.8,162.3c-0.8,0-1.5,0.2-2.3,0.2c0-0.2,0-0.4,0-0.6c0.8,0,1.5-0.2,2.3-0.2
				C1438.8,161.9,1438.8,162.1,1438.8,162.3z M1434.4,162.7c-0.8,0-1.5,0.2-2.3,0.2c0-0.2,0-0.4,0-0.6c0.8,0,1.5-0.2,2.3-0.2
				C1434.4,162.3,1434.4,162.5,1434.4,162.7z M1429.8,163.1c-0.8,0-1.5,0.2-2.3,0.2c0-0.2,0-0.4,0-0.6c0.8,0,1.5-0.2,2.3-0.2
				C1429.8,162.7,1429.8,162.9,1429.8,163.1z M1425.4,163.4c-0.8,0-1.5,0.2-2.3,0.2c0-0.2,0-0.4,0-0.6c0.8,0,1.5-0.2,2.3-0.2
				C1425.4,163.1,1425.4,163.2,1425.4,163.4z M1420.7,163.6c-0.8,0-1.5,0-2.3,0.2c0-0.2,0-0.4,0-0.6c0.8,0,1.5,0,2.3-0.2
				C1420.7,163.2,1420.7,163.4,1420.7,163.6z M1416.3,163.8c-0.8,0-1.5,0-2.3,0.2c0-0.2,0-0.4,0-0.6c0.8,0,1.5,0,2.3-0.2
				C1416.3,163.4,1416.3,163.6,1416.3,163.8z M1411.9,164c-0.8,0-1.5,0-2.3,0c0-0.2,0-0.4,0-0.6c0.8,0,1.5,0,2.3,0
				C1411.9,163.6,1411.9,163.8,1411.9,164z M1407.2,164.2c-0.8,0-1.5,0-2.3,0c0-0.2,0-0.4,0-0.6c0.8,0,1.5,0,2.3,0
				C1407.2,163.8,1407.2,164,1407.2,164.2z M1402.8,164.4c-0.8,0-1.5,0-2.3,0c0-0.2,0-0.4,0-0.6c0.8,0,1.5,0,2.3,0
				C1402.8,164,1402.8,164.2,1402.8,164.4z M1398.2,164.4c-0.8,0-1.5,0-2.3,0c0-0.2,0-0.4,0-0.6c0.8,0,1.5,0,2.3,0
				C1398.2,164,1398.2,164.2,1398.2,164.4z M1393.7,164.4c-0.8,0-1.5,0-2.3,0c0-0.2,0-0.4,0-0.6c0.8,0,1.5,0,2.3,0
				C1393.7,164,1393.7,164.2,1393.7,164.4z M1389.1,164.2c-0.8,0-1.5,0-2.3,0c0-0.2,0-0.4,0-0.6c0.8,0,1.5,0,2.3,0
				C1389.1,163.8,1389.1,164,1389.1,164.2z M1384.7,164.2c-0.8,0-1.5,0-2.3,0c0-0.2,0-0.4,0-0.6c0.8,0,1.5,0,2.3,0
				C1384.7,163.8,1384.7,164,1384.7,164.2z M1380.3,164c-0.8,0-1.5,0-2.3-0.2c0-0.2,0-0.4,0-0.6c0.8,0,1.5,0,2.3,0.2
				C1380.3,163.6,1380.3,163.8,1380.3,164z M1375.6,163.8c-0.8,0-1.5,0-2.3-0.2c0-0.2,0-0.4,0-0.6c0.8,0,1.5,0,2.3,0.2
				C1375.6,163.4,1375.6,163.6,1375.6,163.8z M1371.2,163.4c-0.8,0-1.5-0.2-2.3-0.2c0-0.2,0-0.4,0-0.6c0.8,0,1.5,0.2,2.3,0.2
				C1371.2,163.1,1371.2,163.2,1371.2,163.4z M1366.6,163.2c-0.8,0-1.5-0.2-2.3-0.2c0-0.2,0-0.4,0-0.6c0.8,0,1.5,0.2,2.3,0.2
				C1366.6,162.9,1366.6,163.1,1366.6,163.2z M1362.1,162.9c-0.8,0-1.5-0.2-2.3-0.2c0-0.2,0-0.4,0-0.6c0.8,0,1.5,0.2,2.3,0.2
				C1362.1,162.5,1362.1,162.7,1362.1,162.9z M1357.7,162.5c-0.8,0-1.5-0.2-2.3-0.2c0-0.2,0-0.4,0-0.6c0.8,0,1.5,0.2,2.3,0.2
				C1357.7,162.1,1357.7,162.3,1357.7,162.5z M1353.1,161.9c-0.8,0-1.5-0.2-2.3-0.2c0-0.2,0-0.4,0-0.6c0.8,0,1.5,0.2,2.3,0.2
				C1353.1,161.5,1353.1,161.7,1353.1,161.9z M1348.6,161.3c-0.8,0-1.5-0.2-2.3-0.2c0-0.2,0-0.4,0-0.6c0.8,0.2,1.5,0.2,2.3,0.2
				C1348.6,160.9,1348.6,161.1,1348.6,161.3z M1344.2,160.7c-0.8-0.2-1.5-0.2-2.3-0.4c0-0.2,0-0.4,0-0.6c0.8,0.2,1.5,0.2,2.3,0.4
				C1344.2,160.4,1344.2,160.5,1344.2,160.7z M1339.6,160.2c-0.8-0.2-1.5-0.2-2.3-0.4c0-0.2,0-0.4,0-0.6c0.8,0.2,1.5,0.2,2.3,0.4
				C1339.6,159.8,1339.6,160,1339.6,160.2z M1335.2,159.6c-0.8-0.2-1.5-0.2-2.3-0.4c0-0.2,0-0.4,0-0.6c0.8,0.2,1.5,0.2,2.3,0.4
				C1335.2,159.2,1335.2,159.4,1335.2,159.6z"/>
		</g>
		<radialGradient id="SVGID_124_" cx="1406.4126" cy="149.0631" r="51.1737" gradientUnits="userSpaceOnUse">
			<stop  offset="0" style="stop-color:#D3EEFB"/>
			<stop  offset="1" style="stop-color:#70BBE7"/>
		</radialGradient>
		<path class="st128" d="M1337.5,145.1c0,0,0.2,0,0.2,0.2l2.1,2.1l0,0l0,0l0,0l0,0l0,0l0,0l-2.1,2.1l-0.2,0.2c-0.4,0.2-1,0-1.3-0.4
			c-0.2-0.4-0.2-0.6,0-1c-0.6,0-1-0.4-1-1s0.4-1,1-1c-0.2-0.2-0.2-0.6,0-1C1336.5,145.1,1337.1,144.9,1337.5,145.1z"/>
		<radialGradient id="SVGID_125_" cx="1406.4122" cy="149.0625" r="51.1732" gradientUnits="userSpaceOnUse">
			<stop  offset="0" style="stop-color:#D3EEFB"/>
			<stop  offset="1" style="stop-color:#70BBE7"/>
		</radialGradient>
		<path class="st129" d="M1457.7,149.8C1457.7,149.8,1457.5,149.8,1457.7,149.8l-2.3-2.3l0,0l0,0l0,0l0,0l0,0l0,0l2.1-2.1l0.2-0.2
			c0.4-0.2,1,0,1.3,0.4c0.2,0.4,0.2,0.6,0,1c0.6,0,1,0.4,1,1s-0.4,1-1,1c0.2,0.2,0.2,0.6,0,1
			C1458.7,149.9,1458.1,150.1,1457.7,149.8z"/>
	</g>
	<g>
		<path class="st5" d="M1373.3,144.4h5.6v1.3h-4v2.3h3.5v1.3h-3.5v2.7h4v1.3h-5.8L1373.3,144.4L1373.3,144.4z"/>
		<path class="st5" d="M1382.8,149l-2.5-4.6h1.9l1,2.1c0.2,0.4,0.4,1,0.8,1.3l0,0c0.2-0.6,0.4-1,0.6-1.3l1-2.1h1.7l-2.5,4.6l2.7,4.8
			h-1.9l-1.2-2.1c-0.2-0.6-0.4-1-0.8-1.5l0,0c-0.2,0.6-0.4,1-0.8,1.5l-1.2,2.1h-1.7L1382.8,149z"/>
		<path class="st5" d="M1388.9,144.4h3.1c2.1,0,3.7,0.8,3.7,2.9c0,2.1-1.5,3.1-3.7,3.1h-1.5v3.5h-1.7v-9.4H1388.9z M1391.8,149
			c1.3,0,2.1-0.6,2.1-1.7c0-1.2-0.8-1.5-2.1-1.5h-1.3v3.3C1390.5,149,1391.8,149,1391.8,149z"/>
		<path class="st5" d="M1397.4,144.4h5.6v1.3h-4v2.3h3.5v1.3h-3.5v2.7h4v1.3h-5.8L1397.4,144.4L1397.4,144.4z"/>
		<path class="st5" d="M1410.3,153.8l-2.1-3.7h-1.3v3.7h-1.7v-9.4h3.1c1.9,0,3.5,0.8,3.5,2.7c0,1.3-0.8,2.3-1.9,2.7l2.3,3.9
			L1410.3,153.8L1410.3,153.8z M1406.9,148.8h1.3c1.3,0,1.9-0.6,1.9-1.5c0-1.2-0.8-1.5-1.9-1.5h-1.3V148.8z"/>
		<path class="st5" d="M1415.3,145.9h-2.7v-1.3h7.1v1.3h-2.7v7.9h-1.7V145.9z"/>
	</g>
</g>
</svg>
