<?xml version="1.0" encoding="utf-8"?>
<!-- Generator: Adobe Illustrator 25.0.0, SVG Export Plug-In . SVG Version: 6.00 Build 0)  -->
<svg version="1.1" id="Layer_1" xmlns="http://www.w3.org/2000/svg" xmlns:xlink="http://www.w3.org/1999/xlink" x="0px" y="0px"
	 viewBox="0 0 100 100" style="enable-background:new 0 0 100 100;" xml:space="preserve">
<style type="text/css">
	.st0{fill:url(#SVGID_2_);}
	.st1{fill:#EDEDEE;}
	.st2{fill:url(#SVGID_3_);}
	.st3{fill:url(#SVGID_4_);}
	.st4{fill:url(#SVGID_5_);}
	.st5{fill:url(#SVGID_6_);}
	.st6{fill:url(#SVGID_7_);}
	.st7{fill:url(#SVGID_8_);}
	.st8{fill:url(#SVGID_9_);}
	.st9{fill:url(#SVGID_10_);}
	.st10{fill:url(#SVGID_11_);}
	.st11{fill:url(#SVGID_12_);}
	.st12{fill:url(#SVGID_13_);}
	.st13{fill:url(#SVGID_14_);}
	.st14{fill:url(#SVGID_15_);}
	.st15{fill:url(#SVGID_16_);}
	.st16{fill:url(#SVGID_17_);}
	.st17{fill:url(#SVGID_18_);}
	.st18{fill:url(#SVGID_19_);}
	.st19{fill:url(#SVGID_20_);}
	.st20{fill:url(#SVGID_21_);}
	.st21{fill:url(#SVGID_22_);}
	.st22{fill:url(#SVGID_23_);}
	.st23{fill:url(#SVGID_24_);}
	.st24{fill:#022B45;}
	.st25{fill:#FFFFFF;}
	.st26{clip-path:url(#SVGID_27_);}
	.st27{clip-path:url(#SVGID_28_);fill:url(#SVGID_29_);}
	.st28{opacity:0.33;fill:url(#SVGID_30_);enable-background:new    ;}
	.st29{fill:url(#SVGID_31_);}
	.st30{fill:url(#SVGID_32_);}
	.st31{fill:url(#SVGID_33_);}
	.st32{fill:url(#SVGID_34_);}
	.st33{fill:url(#SVGID_35_);}
	.st34{fill:url(#SVGID_36_);}
	.st35{fill:url(#SVGID_37_);}
	.st36{fill:url(#SVGID_38_);}
	.st37{fill:url(#SVGID_39_);}
	.st38{fill:url(#SVGID_40_);}
	.st39{fill:url(#SVGID_41_);}
	.st40{fill:url(#SVGID_42_);}
	.st41{fill:url(#SVGID_43_);}
	.st42{fill:url(#SVGID_44_);}
	.st43{fill:url(#SVGID_45_);}
	.st44{fill:url(#SVGID_46_);}
	.st45{fill:url(#SVGID_47_);}
	.st46{fill:url(#SVGID_48_);}
	.st47{fill:url(#SVGID_49_);}
	.st48{fill:url(#SVGID_50_);}
	.st49{fill:url(#SVGID_51_);}
	.st50{fill:url(#SVGID_52_);}
	.st51{fill:url(#SVGID_53_);}
	.st52{fill:url(#SVGID_54_);}
	.st53{fill:url(#SVGID_55_);}
	.st54{fill:url(#SVGID_56_);}
	.st55{fill:url(#SVGID_57_);}
	.st56{fill:url(#SVGID_58_);}
	.st57{fill:url(#SVGID_59_);}
	.st58{fill:url(#SVGID_60_);}
	.st59{fill:url(#SVGID_61_);}
	.st60{fill:url(#SVGID_62_);}
	.st61{fill:url(#SVGID_63_);}
	.st62{fill:url(#SVGID_64_);}
	.st63{fill:url(#SVGID_65_);}
	.st64{fill:url(#SVGID_66_);}
	.st65{fill:url(#SVGID_67_);}
	.st66{fill:url(#SVGID_68_);}
	.st67{fill:url(#SVGID_69_);}
	.st68{fill:url(#SVGID_70_);}
	.st69{fill:url(#SVGID_71_);}
	.st70{fill:url(#SVGID_72_);}
	.st71{fill:url(#SVGID_73_);}
	.st72{fill:url(#SVGID_74_);}
	.st73{fill:url(#SVGID_75_);}
	.st74{fill:url(#SVGID_76_);}
	.st75{fill:url(#SVGID_77_);}
	.st76{fill:url(#SVGID_78_);}
	.st77{fill:url(#SVGID_79_);}
	.st78{fill:url(#SVGID_80_);}
	.st79{fill:url(#SVGID_81_);}
	.st80{fill:url(#SVGID_82_);}
	.st81{fill:url(#SVGID_83_);}
	.st82{fill:url(#SVGID_84_);}
	.st83{fill:url(#SVGID_85_);}
	.st84{fill:url(#SVGID_86_);}
	.st85{fill:url(#SVGID_87_);}
	.st86{fill:url(#SVGID_88_);}
	.st87{fill:url(#SVGID_89_);}
	.st88{fill:url(#SVGID_90_);}
	.st89{fill:url(#SVGID_91_);}
	.st90{fill:url(#SVGID_92_);}
	.st91{fill:url(#SVGID_93_);}
	.st92{fill:url(#SVGID_94_);}
	.st93{fill:url(#SVGID_95_);}
	.st94{fill:url(#SVGID_96_);}
	.st95{fill:url(#SVGID_97_);}
	.st96{fill:url(#SVGID_98_);}
	.st97{fill:url(#SVGID_99_);}
	.st98{fill:url(#SVGID_100_);}
	.st99{fill:url(#SVGID_101_);}
	.st100{fill:url(#SVGID_102_);}
	.st101{fill-rule:evenodd;clip-rule:evenodd;fill:url(#SVGID_103_);}
	.st102{fill-rule:evenodd;clip-rule:evenodd;fill:url(#SVGID_104_);}
	.st103{fill-rule:evenodd;clip-rule:evenodd;fill:url(#SVGID_105_);}
	.st104{fill-rule:evenodd;clip-rule:evenodd;fill:url(#SVGID_106_);}
	.st105{fill-rule:evenodd;clip-rule:evenodd;fill:url(#SVGID_107_);}
	.st106{fill:none;}
	.st107{enable-background:new    ;}
	.st108{fill:url(#SVGID_108_);}
	.st109{fill:url(#SVGID_109_);}
	.st110{fill:url(#SVGID_110_);}
	.st111{fill-rule:evenodd;clip-rule:evenodd;fill:url(#SVGID_111_);}
	.st112{fill-rule:evenodd;clip-rule:evenodd;fill:url(#SVGID_112_);}
</style>
<g>
	
		<radialGradient id="SVGID_2_" cx="50.0342" cy="63.9285" r="37.024" gradientTransform="matrix(1 0 0 -1 0 100)" gradientUnits="userSpaceOnUse">
		<stop  offset="3.067480e-02" style="stop-color:#4A95D0"/>
		<stop  offset="1" style="stop-color:#005183"/>
	</radialGradient>
	<path class="st0" d="M76.7,68.6H23.4c-3,0-5.4-2.4-5.4-5.4L9,8.9c0-3,2.4-5.4,5.4-5.4h71.3c3,0,5.4,2.4,5.4,5.4l-9,54.1
		C82.1,66.1,79.7,68.6,76.7,68.6z"/>
	<g>
		<g>
			<path class="st1" d="M26.3,8.2h-1.9V7h5.2v1.2h-1.9v5.3h-1.6V8.2H26.3z"/>
			<path class="st1" d="M30.7,7h4.1v1.2h-2.7v1.3h2.3v1.2h-2.3v1.4H35v1.2h-4.2V7z"/>
			<path class="st1" d="M39.2,6.9c0.8,0,1.6,0.4,2,0.8l-0.8,0.9c-0.3-0.3-0.6-0.5-1.1-0.5c-0.9,0-1.7,0.8-1.7,2.1
				c0,1.3,0.6,2.1,1.7,2.1c0.5,0,0.9-0.2,1.2-0.6l0.8,0.9c-0.5,0.6-1.2,0.9-2.2,0.9c-1.8,0-3.1-1.1-3.1-3.3
				C36,8.1,37.5,6.9,39.2,6.9z"/>
			<path class="st1" d="M42.3,7h1.4v2.5H46V7h1.6v6.4H46v-2.7h-2.3v2.7h-1.6V7H42.3z"/>
			<path class="st1" d="M49.3,7h1.6l1.8,3.2l0.6,1.4l0,0c-0.1-0.7-0.2-1.6-0.2-2.4V7h1.4v6.4h-1.6l-1.8-3.2l-0.6-1.4l0,0
				c0.1,0.7,0.2,1.6,0.2,2.4v2.3h-1.4V7z"/>
			<path class="st1" d="M56,7h1.6v6.4H56V7z"/>
			<path class="st1" d="M62,6.9c0.8,0,1.6,0.4,2,0.8l-0.8,0.9c-0.3-0.3-0.6-0.5-1.1-0.5c-0.9,0-1.7,0.8-1.7,2.1
				c0,1.3,0.6,2.1,1.7,2.1c0.5,0,0.9-0.2,1.2-0.6l0.8,0.9c-0.5,0.6-1.2,0.9-2.2,0.9c-1.8,0-3.1-1.1-3.1-3.3
				C58.8,8.1,60.2,6.9,62,6.9z"/>
			<path class="st1" d="M68.2,12h-2.1l-0.4,1.6h-1.6l2.1-6.4h1.9l2.1,6.4h-1.6L68.2,12z M67.9,10.8l-0.1-0.6
				c-0.2-0.6-0.4-1.4-0.5-2.1l0,0c-0.2,0.7-0.3,1.4-0.5,2.1l-0.2,0.6H67.9z"/>
			<path class="st1" d="M71,7h1.6v5.3h2.7v1.2h-4.1V7H71z"/>
		</g>
	</g>
	<g>
		
			<linearGradient id="SVGID_3_" gradientUnits="userSpaceOnUse" x1="6.3323" y1="28.1034" x2="19.1693" y2="28.1034" gradientTransform="matrix(1 0 0 -1 0 100)">
			<stop  offset="0" style="stop-color:#0E4066"/>
			<stop  offset="1" style="stop-color:#00609D"/>
		</linearGradient>
		<path class="st2" d="M6.3,63.4c0,0,0.4,0.2,1,0.4c1.9,0.7,8.7,2.1,11.8,0v15.9c0,0-8.4,2-12.8-1c0,0,3.1-3.1,4.2-6.6
			C10.6,72.2,9.4,70.3,6.3,63.4z"/>
		<g>
			<g>
				
					<radialGradient id="SVGID_4_" cx="13.3983" cy="24.0042" r="21.7338" gradientTransform="matrix(1 0 0 -1 0 100)" gradientUnits="userSpaceOnUse">
					<stop  offset="0" style="stop-color:#D4EFFC"/>
					<stop  offset="1" style="stop-color:#6FBCE9"/>
				</radialGradient>
				<path class="st3" d="M8.6,78.8c-0.1,0-0.3-0.1-0.4-0.1L8,78.6l0.2-0.2c0.1-0.1,0.2-0.2,0.2-0.3l0.3,0.2c0,0,0,0.1-0.1,0.1h0.1
					L8.6,78.8z"/>
			</g>
			<g>
				
					<radialGradient id="SVGID_5_" cx="13.3988" cy="24.0058" r="21.7406" gradientTransform="matrix(1 0 0 -1 0 100)" gradientUnits="userSpaceOnUse">
					<stop  offset="0" style="stop-color:#D4EFFC"/>
					<stop  offset="1" style="stop-color:#6FBCE9"/>
				</radialGradient>
				<path class="st4" d="M9.1,77.7l-0.3-0.2c0.1-0.2,0.3-0.4,0.4-0.6l0.3,0.2C9.4,77.4,9.3,77.6,9.1,77.7z M10,76.5l-0.4-0.2
					c0.1-0.2,0.3-0.4,0.4-0.6l0.3,0.2C10.2,76.1,10.1,76.3,10,76.5z M10.7,75.2L10.4,75c0.1-0.2,0.2-0.4,0.3-0.6l0.3,0.2
					C11.1,74.8,10.9,75,10.7,75.2z M11.5,74l-0.4-0.2c0.1-0.2,0.2-0.4,0.3-0.6l0.4,0.1C11.7,73.4,11.6,73.7,11.5,74z"/>
			</g>
			<g>
				
					<radialGradient id="SVGID_6_" cx="13.3986" cy="24.0054" r="21.7434" gradientTransform="matrix(1 0 0 -1 0 100)" gradientUnits="userSpaceOnUse">
					<stop  offset="0" style="stop-color:#D4EFFC"/>
					<stop  offset="1" style="stop-color:#6FBCE9"/>
				</radialGradient>
				<polygon class="st5" points="12,72.5 11.6,72.4 11.7,72.1 11.6,71.9 11.9,71.6 12.2,72.1 				"/>
			</g>
			<g>
				
					<radialGradient id="SVGID_7_" cx="13.3988" cy="24.0073" r="21.7368" gradientTransform="matrix(1 0 0 -1 0 100)" gradientUnits="userSpaceOnUse">
					<stop  offset="0" style="stop-color:#D4EFFC"/>
					<stop  offset="1" style="stop-color:#6FBCE9"/>
				</radialGradient>
				<path class="st6" d="M11.2,71.2c-0.1-0.2-0.2-0.4-0.3-0.6l0.3-0.2c0.1,0.3,0.2,0.5,0.3,0.6L11.2,71.2z M10.5,69.9
					c-0.1-0.2-0.2-0.4-0.3-0.6l0.3-0.2c0.1,0.2,0.2,0.4,0.3,0.6L10.5,69.9z M9.8,68.6c-0.1-0.2-0.2-0.4-0.3-0.6l0.3-0.2
					c0.1,0.2,0.2,0.4,0.3,0.6L9.8,68.6z M9.2,67.2C9.1,67,9,66.8,8.9,66.6l0.4-0.2c0.1,0.2,0.2,0.4,0.3,0.6L9.2,67.2z"/>
			</g>
			<g>
				
					<radialGradient id="SVGID_8_" cx="13.3989" cy="24.0154" r="21.7235" gradientTransform="matrix(1 0 0 -1 0 100)" gradientUnits="userSpaceOnUse">
					<stop  offset="0" style="stop-color:#D4EFFC"/>
					<stop  offset="1" style="stop-color:#6FBCE9"/>
				</radialGradient>
				<path class="st7" d="M8.6,65.9l-0.3-0.7l0.4,0.1c0.1,0,0.2,0.1,0.4,0.1L9,65.8l0,0l0,0l0,0L8.6,65.9z"/>
			</g>
			<g>
				
					<radialGradient id="SVGID_9_" cx="13.3985" cy="24.0114" r="21.7295" gradientTransform="matrix(1 0 0 -1 0 100)" gradientUnits="userSpaceOnUse">
					<stop  offset="0" style="stop-color:#D4EFFC"/>
					<stop  offset="1" style="stop-color:#6FBCE9"/>
				</radialGradient>
				<path class="st8" d="M14.5,66.4V66c0.3,0,0.5,0,0.8,0v0.4C15,66.4,14.7,66.4,14.5,66.4z M13.6,66.4c-0.3,0-0.5,0-0.8,0V66
					c0.3,0,0.5,0,0.8,0V66.4z M16,66.3v-0.4c0.3,0,0.5-0.1,0.7-0.1l0.1,0.4C16.5,66.2,16.3,66.3,16,66.3z M12.1,66.3
					c-0.3,0-0.5-0.1-0.8-0.1v-0.4c0.2,0,0.5,0.1,0.7,0.1L12.1,66.3z M10.5,66.1c-0.3,0-0.5-0.1-0.8-0.1l0.1-0.4
					c0.2,0,0.5,0.1,0.7,0.1V66.1z"/>
			</g>
			<g>
				
					<radialGradient id="SVGID_10_" cx="13.3989" cy="24.0066" r="21.739" gradientTransform="matrix(1 0 0 -1 0 100)" gradientUnits="userSpaceOnUse">
					<stop  offset="0" style="stop-color:#D4EFFC"/>
					<stop  offset="1" style="stop-color:#6FBCE9"/>
				</radialGradient>
				<path class="st9" d="M18.2,66.1h-0.4V66h-0.1l-0.1-0.4c0.1,0,0.2-0.1,0.4-0.1l0.2-0.1C18.2,65.4,18.2,66.1,18.2,66.1z"/>
			</g>
			<g>
				
					<radialGradient id="SVGID_11_" cx="13.3987" cy="24.0059" r="21.7394" gradientTransform="matrix(1 0 0 -1 0 100)" gradientUnits="userSpaceOnUse">
					<stop  offset="0" style="stop-color:#D4EFFC"/>
					<stop  offset="1" style="stop-color:#6FBCE9"/>
				</radialGradient>
				<path class="st10" d="M18.2,77.7h-0.4v-0.8h0.4V77.7z M18.2,76h-0.4v-0.8h0.4V76z M18.2,74.4h-0.4v-0.8h0.4V74.4z M18.2,72.7
					h-0.4v-0.8h0.4V72.7z M18.2,71.1h-0.4v-0.8h0.4V71.1z M18.2,69.4h-0.4v-0.8h0.4V69.4z M18.2,67.7h-0.4v-0.8h0.4V67.7z"/>
			</g>
			<g>
				
					<radialGradient id="SVGID_12_" cx="13.3989" cy="24.0054" r="21.7362" gradientTransform="matrix(1 0 0 -1 0 100)" gradientUnits="userSpaceOnUse">
					<stop  offset="0" style="stop-color:#D4EFFC"/>
					<stop  offset="1" style="stop-color:#6FBCE9"/>
				</radialGradient>
				<path class="st11" d="M17.6,79.1l-0.1-0.4c0.1,0,0.1,0,0.2,0v-0.2h0.4V79h-0.2C17.9,79,17.8,79.1,17.6,79.1z"/>
			</g>
			<g>
				
					<radialGradient id="SVGID_13_" cx="13.3983" cy="24.0065" r="21.7401" gradientTransform="matrix(1 0 0 -1 0 100)" gradientUnits="userSpaceOnUse">
					<stop  offset="0" style="stop-color:#D4EFFC"/>
					<stop  offset="1" style="stop-color:#6FBCE9"/>
				</radialGradient>
				<path class="st12" d="M13.2,79.6c-0.2,0-0.4,0-0.6,0v-0.4c0.2,0,0.4,0,0.5,0h0.2v0.4H13.2z M14.3,79.4V79c0.3,0,0.5,0,0.8,0v0.4
					C14.9,79.4,14.6,79.4,14.3,79.4z M11.8,79.4c-0.3,0-0.5,0-0.8-0.1v-0.4c0.3,0,0.5,0.1,0.8,0.1V79.4z M15.9,79.3v-0.4
					c0.3,0,0.5-0.1,0.8-0.1l0.1,0.4C16.5,79.2,16.2,79.3,15.9,79.3z M10.2,79.2c-0.3-0.1-0.5-0.1-0.8-0.2l0.1-0.4
					c0.2,0.1,0.5,0.1,0.8,0.2L10.2,79.2z"/>
			</g>
		</g>
	</g>
	<g>
		
			<linearGradient id="SVGID_14_" gradientUnits="userSpaceOnUse" x1="1033.6974" y1="28.1034" x2="1046.5344" y2="28.1034" gradientTransform="matrix(-1 0 0 -1 1127.3301 100)">
			<stop  offset="0" style="stop-color:#0E4066"/>
			<stop  offset="1" style="stop-color:#00609D"/>
		</linearGradient>
		<path class="st13" d="M93.7,63.4c0,0-0.4,0.2-1,0.4c-1.9,0.7-8.7,2.1-11.8,0v15.9c0,0,8.4,2,12.8-1c0,0-3.1-3.1-4.2-6.6
			C89.3,72.2,90.6,70.3,93.7,63.4z"/>
		<g>
			<g>
				
					<radialGradient id="SVGID_15_" cx="94.0329" cy="25.0544" r="13.2493" gradientTransform="matrix(1 0 0 -1 0 100)" gradientUnits="userSpaceOnUse">
					<stop  offset="0" style="stop-color:#D4EFFC"/>
					<stop  offset="1" style="stop-color:#6FBCE9"/>
				</radialGradient>
				<path class="st14" d="M91.4,78.8c0.1,0,0.2-0.1,0.4-0.1l0.2-0.1l-0.2-0.2c-0.1-0.1-0.2-0.2-0.2-0.3l-0.3,0.2c0,0,0,0.1,0.1,0.1
					h-0.1L91.4,78.8z"/>
			</g>
			<g>
				
					<radialGradient id="SVGID_16_" cx="94.0326" cy="25.0571" r="13.2555" gradientTransform="matrix(1 0 0 -1 0 100)" gradientUnits="userSpaceOnUse">
					<stop  offset="0" style="stop-color:#D4EFFC"/>
					<stop  offset="1" style="stop-color:#6FBCE9"/>
				</radialGradient>
				<path class="st15" d="M90.4,77.2l0.3-0.2c0.1,0.2,0.3,0.4,0.4,0.6l-0.3,0.2C90.7,77.6,90.6,77.4,90.4,77.2z M89.5,75.9l0.3-0.2
					c0.1,0.2,0.3,0.4,0.4,0.6l-0.3,0.2C89.8,76.3,89.7,76.1,89.5,75.9z M88.8,74.6l0.3-0.2c0.1,0.2,0.2,0.4,0.3,0.6l-0.3,0.2
					C89.1,75,88.9,74.8,88.8,74.6z M88.2,73.2l0.4-0.1c0.1,0.2,0.2,0.4,0.3,0.6L88.5,74C88.4,73.7,88.3,73.4,88.2,73.2z"/>
			</g>
			<g>
				
					<radialGradient id="SVGID_17_" cx="94.0325" cy="25.0568" r="13.2558" gradientTransform="matrix(1 0 0 -1 0 100)" gradientUnits="userSpaceOnUse">
					<stop  offset="0" style="stop-color:#D4EFFC"/>
					<stop  offset="1" style="stop-color:#6FBCE9"/>
				</radialGradient>
				<polygon class="st16" points="88,72.5 88.4,72.4 88.3,72.1 88.4,71.9 88.1,71.6 87.8,72.1 				"/>
			</g>
			<g>
				
					<radialGradient id="SVGID_18_" cx="94.0327" cy="25.0583" r="13.2543" gradientTransform="matrix(1 0 0 -1 0 100)" gradientUnits="userSpaceOnUse">
					<stop  offset="0" style="stop-color:#D4EFFC"/>
					<stop  offset="1" style="stop-color:#6FBCE9"/>
				</radialGradient>
				<path class="st17" d="M88.4,71c0.1-0.2,0.2-0.4,0.3-0.6l0.3,0.2c-0.1,0.3-0.2,0.5-0.3,0.6L88.4,71z M89.1,69.7
					c0.1-0.2,0.2-0.4,0.3-0.6l0.3,0.2c-0.1,0.2-0.2,0.4-0.3,0.6L89.1,69.7z M89.7,68.4c0.1-0.2,0.2-0.4,0.3-0.6l0.3,0.2
					c-0.1,0.2-0.2,0.4-0.3,0.6L89.7,68.4z M90.4,67.1c0.1-0.2,0.2-0.4,0.3-0.6l0.4,0.2c-0.1,0.2-0.2,0.4-0.3,0.6L90.4,67.1z"/>
			</g>
			<g>
				
					<radialGradient id="SVGID_19_" cx="94.0324" cy="25.0657" r="13.2444" gradientTransform="matrix(1 0 0 -1 0 100)" gradientUnits="userSpaceOnUse">
					<stop  offset="0" style="stop-color:#D4EFFC"/>
					<stop  offset="1" style="stop-color:#6FBCE9"/>
				</radialGradient>
				<path class="st18" d="M91.4,65.9l0.3-0.7l-0.4,0.1c-0.1,0-0.2,0.1-0.4,0.1l0.1,0.4l0,0l0,0l0,0L91.4,65.9z"/>
			</g>
			<g>
				
					<radialGradient id="SVGID_20_" cx="94.0324" cy="25.062" r="13.2463" gradientTransform="matrix(1 0 0 -1 0 100)" gradientUnits="userSpaceOnUse">
					<stop  offset="0" style="stop-color:#D4EFFC"/>
					<stop  offset="1" style="stop-color:#6FBCE9"/>
				</radialGradient>
				<path class="st19" d="M84.8,66.3v-0.4c0.2,0,0.5,0,0.8,0v0.4C85.3,66.4,85,66.4,84.8,66.3z M86.3,66c0.3,0,0.5,0,0.8,0v0.4
					c-0.3,0-0.5,0-0.8,0V66z M83.1,66.2l0.1-0.4c0.2,0,0.5,0.1,0.7,0.1v0.4C83.6,66.3,83.4,66.2,83.1,66.2z M87.9,65.9
					c0.3,0,0.5-0.1,0.7-0.1v0.4c-0.3,0-0.5,0.1-0.8,0.1L87.9,65.9z M89.4,65.7c0.3,0,0.5-0.1,0.7-0.1l0.1,0.4
					c-0.2,0-0.5,0.1-0.8,0.1L89.4,65.7z"/>
			</g>
			<g>
				
					<radialGradient id="SVGID_21_" cx="94.0321" cy="25.0578" r="13.2552" gradientTransform="matrix(1 0 0 -1 0 100)" gradientUnits="userSpaceOnUse">
					<stop  offset="0" style="stop-color:#D4EFFC"/>
					<stop  offset="1" style="stop-color:#6FBCE9"/>
				</radialGradient>
				<path class="st20" d="M81.8,66.1h0.4V66h0.1l0.1-0.4c-0.1,0-0.2-0.1-0.4-0.1l-0.2-0.1V66.1z"/>
			</g>
			<g>
				
					<radialGradient id="SVGID_22_" cx="94.0323" cy="25.0571" r="13.2552" gradientTransform="matrix(1 0 0 -1 0 100)" gradientUnits="userSpaceOnUse">
					<stop  offset="0" style="stop-color:#D4EFFC"/>
					<stop  offset="1" style="stop-color:#6FBCE9"/>
				</radialGradient>
				<path class="st21" d="M81.8,76.9h0.4v0.8h-0.4V76.9z M81.8,75.2h0.4V76h-0.4V75.2z M81.8,73.5h0.4v0.8h-0.4V73.5z M81.8,71.9
					h0.4v0.8h-0.4V71.9z M81.8,70.2h0.4v0.8h-0.4V70.2z M81.8,68.6h0.4v0.8h-0.4V68.6z M81.8,66.9h0.4v0.8h-0.4V66.9z"/>
			</g>
			<g>
				
					<radialGradient id="SVGID_23_" cx="94.0318" cy="25.0562" r="13.2543" gradientTransform="matrix(1 0 0 -1 0 100)" gradientUnits="userSpaceOnUse">
					<stop  offset="0" style="stop-color:#D4EFFC"/>
					<stop  offset="1" style="stop-color:#6FBCE9"/>
				</radialGradient>
				<path class="st22" d="M82.4,79.1l0.1-0.4c-0.1,0-0.1,0-0.2,0v-0.2h-0.4V79h0.2C82.1,79,82.2,79.1,82.4,79.1z"/>
			</g>
			<g>
				
					<radialGradient id="SVGID_24_" cx="94.0324" cy="25.0577" r="13.2552" gradientTransform="matrix(1 0 0 -1 0 100)" gradientUnits="userSpaceOnUse">
					<stop  offset="0" style="stop-color:#D4EFFC"/>
					<stop  offset="1" style="stop-color:#6FBCE9"/>
				</radialGradient>
				<path class="st23" d="M86.5,79.6v-0.4h0.2c0.2,0,0.4,0,0.5,0v0.4c-0.2,0-0.4,0-0.6,0H86.5z M84.9,79.4V79c0.3,0,0.5,0,0.8,0v0.4
					C85.4,79.4,85.1,79.4,84.9,79.4z M88.1,79c0.3,0,0.5,0,0.8-0.1v0.4c-0.3,0-0.5,0.1-0.8,0.1V79z M83.2,79.2l0.1-0.4
					c0.2,0,0.5,0.1,0.8,0.1v0.4C83.7,79.3,83.4,79.2,83.2,79.2z M89.7,78.8c0.3,0,0.5-0.1,0.8-0.2l0.1,0.4c-0.2,0.1-0.5,0.1-0.8,0.2
					L89.7,78.8z"/>
			</g>
		</g>
	</g>
	<path class="st24" d="M47.7,98.6c-0.3,0-0.7,0-1-0.1c-2-0.2-3.7-0.9-5.1-2.3c-0.3-0.2-0.6-0.5-1.1-0.7c-0.2-0.1-0.5-0.1-0.7-0.2
		c-0.2,0-0.3,0-0.5,0c-0.3,0-0.6,0-0.8,0.1c-0.6,0.1-1.1,0.2-1.8,0.2c-1.2,0-2.5-0.3-3.8-0.9c-1.9-0.8-3.2-2.1-4-3.8
		c-0.2-0.3-0.4-0.7-0.8-1c-0.2-0.1-0.4-0.3-0.6-0.4c-0.5-0.2-0.9-0.3-1.2-0.4c-2-0.3-3.5-1.1-5-2.6c-1.4-1.4-2.3-3.1-2.5-5
		c0-0.4-0.2-0.8-0.3-1.2c-0.2-0.2-0.3-0.4-0.5-0.7c-0.3-0.3-0.7-0.6-1-0.8c-1.8-0.9-3-2.3-3.8-4.1c-0.8-1.9-1-3.6-0.6-5.6
		c0.1-0.4,0.1-0.8,0.1-1.3c0-0.1-0.1-0.6-0.2-0.7c-0.2-0.5-0.4-0.8-0.7-1.1c-1.3-1.4-2-3.1-2.2-5.2c-0.2-2,0.2-3.8,1.3-5.4
		c0.2-0.3,0.4-0.7,0.5-1.1c0-0.3,0-0.5,0.1-0.8c0-0.5-0.1-0.9-0.3-1.2c-0.7-1.8-0.8-3.6-0.2-5.6c0.5-2,1.6-3.5,3.1-4.7
		c0.3-0.2,0.6-0.5,0.9-0.9c0.1-0.2,0.2-0.4,0.3-0.6c0.1-0.5,0.2-0.9,0.2-1.3c-0.1-2,0.5-3.7,1.7-5.4c1.1-1.7,2.6-2.8,4.5-3.3
		c0.3-0.1,0.7-0.3,1.1-0.6c0.2-0.2,0.4-0.4,0.5-0.5c0.3-0.4,0.5-0.8,0.6-1.1c0.6-1.9,1.8-3.3,3.4-4.5c1.4-1,3.1-1.6,4.9-1.6
		c0.2,0,0.3,0,0.5,0c0.1,0,0.1,0,0.2,0c0.3,0,0.7,0,1.1-0.1c0.2-0.1,0.5-0.2,0.7-0.3c0.4-0.3,0.7-0.6,0.9-0.9c1.2-1.6,2.8-2.5,4.8-3
		c0.8-0.2,1.6-0.3,2.4-0.3c1.1,0,2.2,0.2,3.2,0.7c0.3,0.1,0.7,0.2,1.2,0.3c0.3,0,0.5,0,0.8-0.1c0.5-0.1,0.9-0.3,1.2-0.5
		c1.3-0.8,2.8-1.2,4.3-1.2c0.3,0,0.7,0,1,0.1c2,0.2,3.7,0.9,5.1,2.3c0.3,0.2,0.6,0.5,1.1,0.7c0.2,0.1,0.5,0.1,0.7,0.2
		c0.2,0,0.3,0,0.5,0c0.3,0,0.6,0,0.8-0.1c0.6-0.1,1.1-0.2,1.8-0.2c1.2,0,2.5,0.3,3.8,0.9c1.9,0.8,3.2,2.1,4,3.8
		c0.2,0.3,0.4,0.7,0.8,1c0.2,0.1,0.4,0.3,0.6,0.4c0.5,0.2,0.9,0.3,1.2,0.4c2,0.3,3.5,1.1,5,2.6c1.4,1.4,2.3,3.1,2.5,5
		c0,0.4,0.2,0.8,0.3,1.2c0.2,0.2,0.3,0.4,0.5,0.7c0.3,0.3,0.7,0.6,1,0.8c1.8,0.9,3,2.3,3.8,4.1c0.8,1.9,1,3.6,0.6,5.6
		c-0.1,0.4-0.1,0.8-0.1,1.3c0,0.1,0.1,0.6,0.2,0.7c0.2,0.5,0.5,0.8,0.7,1.1c1.3,1.4,2,3.1,2.2,5.2c0.2,2-0.2,3.8-1.3,5.4
		c-0.2,0.3-0.4,0.7-0.5,1.1c0,0.3,0,0.5-0.1,0.8c0,0.5,0.1,0.9,0.3,1.2c0.7,1.8,0.8,3.6,0.2,5.6c-0.5,2-1.6,3.5-3.1,4.7
		c-0.3,0.2-0.6,0.5-0.9,0.9c-0.1,0.2-0.2,0.4-0.3,0.6c-0.1,0.5-0.2,0.9-0.2,1.3c0.1,2-0.5,3.7-1.7,5.4s-2.6,2.7-4.5,3.3
		c-0.3,0.1-0.7,0.3-1.1,0.6c-0.2,0.2-0.4,0.4-0.5,0.5c-0.3,0.4-0.5,0.8-0.6,1.1c-0.6,1.9-1.8,3.3-3.4,4.5c-1.4,1-3.1,1.6-4.9,1.6
		l0,0c-0.2,0-0.3,0-0.5,0c-0.1,0-0.1,0-0.2,0c-0.3,0-0.7,0-1.1,0.1c-0.2,0.1-0.5,0.2-0.7,0.3c-0.4,0.3-0.7,0.6-0.9,0.9
		c-1.2,1.6-2.8,2.5-4.8,3c-0.8,0.2-1.6,0.3-2.4,0.3c-1.1,0-2.2-0.2-3.2-0.7c-0.3-0.1-0.7-0.2-1.2-0.3c-0.3,0-0.5,0-0.8,0.1
		c-0.5,0.1-0.9,0.3-1.2,0.5C50.8,98.2,49.3,98.6,47.7,98.6z"/>
	<path class="st25" d="M41.6,23.4c-18.7,4.9-30,24-25.3,42.8c4.9,18.7,24,30,42.8,25.3c18.7-4.9,30-24,25.3-42.8
		C79.5,29.9,60.3,18.6,41.6,23.4z M59,90.8C40.6,95.6,21.7,84.5,17,66c-4.8-18.4,6.3-37.3,24.8-42c18.4-4.8,37.3,6.3,42,24.8
		C88.6,67.2,77.5,86.1,59,90.8z"/>
	<g>
		<g>
			<defs>
				<polygon id="SVGID_25_" points="-0.7,0.4 0.3,0.4 -0.7,1.4 				"/>
			</defs>
			<defs>
				<polygon id="SVGID_26_" points="-2.8,-1.7 -3.8,-1.7 -2.8,-2.8 				"/>
			</defs>
			<clipPath id="SVGID_27_">
				<use xlink:href="#SVGID_25_"  style="overflow:visible;"/>
			</clipPath>
			<clipPath id="SVGID_28_" class="st26">
				<use xlink:href="#SVGID_26_"  style="overflow:visible;"/>
			</clipPath>
			
				<linearGradient id="SVGID_29_" gradientUnits="userSpaceOnUse" x1="78.431" y1="85.0507" x2="116.9211" y2="12.1857" gradientTransform="matrix(-0.1344 1.1462 1.1893 0.1394 7.174 -61.5704)">
				<stop  offset="0" style="stop-color:#FFFFFF"/>
				<stop  offset="5.383337e-02" style="stop-color:#E0E0E0"/>
				<stop  offset="0.1552" style="stop-color:#ACACAC"/>
				<stop  offset="0.2611" style="stop-color:#7E7E7E"/>
				<stop  offset="0.3694" style="stop-color:#575757"/>
				<stop  offset="0.4805" style="stop-color:#383838"/>
				<stop  offset="0.5954" style="stop-color:#1F1F1F"/>
				<stop  offset="0.7159" style="stop-color:#0E0E0E"/>
				<stop  offset="0.8453" style="stop-color:#030303"/>
				<stop  offset="1" style="stop-color:#000000"/>
			</linearGradient>
			<path class="st27" d="M37.1,33.9c19,2.3,32.6,19.6,30.4,38.7c-0.8,7.1-3.8,13.6-8.2,18.7c13.6-3.4,24.3-15,26.1-29.9
				C87.8,42.3,74.1,25,55.2,22.7c-11.9-1.3-23.1,3.5-30.3,12C28.8,33.7,32.9,33.4,37.1,33.9z"/>
		</g>
	</g>
	
		<linearGradient id="SVGID_30_" gradientUnits="userSpaceOnUse" x1="78.431" y1="85.0507" x2="116.9211" y2="12.1857" gradientTransform="matrix(-0.1344 1.1462 1.1893 0.1394 7.174 -61.5704)">
		<stop  offset="0" style="stop-color:#F5F5F5"/>
		<stop  offset="7.761335e-02" style="stop-color:#F5F5F5"/>
		<stop  offset="1" style="stop-color:#F5F5F5"/>
	</linearGradient>
	<path class="st28" d="M37.1,33.9c19,2.3,32.6,19.6,30.4,38.7c-0.8,7.1-3.8,13.6-8.2,18.7c13.6-3.4,24.3-15,26.1-29.9
		C87.8,42.3,74.1,25,55.2,22.7c-11.9-1.3-23.1,3.5-30.3,12C28.8,33.7,32.9,33.4,37.1,33.9z"/>
	<g>
		
			<radialGradient id="SVGID_31_" cx="76.7197" cy="49.4525" r="54.0445" gradientTransform="matrix(1 0 0 -1 0 100)" gradientUnits="userSpaceOnUse">
			<stop  offset="2.453990e-02" style="stop-color:#FFFFFF"/>
			<stop  offset="1" style="stop-color:#B4E4FA"/>
		</radialGradient>
		<polygon class="st29" points="50.4,26.4 48.6,24.6 47.3,24.6 49.1,26.5 		"/>
		
			<radialGradient id="SVGID_32_" cx="76.7179" cy="49.4527" r="54.0423" gradientTransform="matrix(1 0 0 -1 0 100)" gradientUnits="userSpaceOnUse">
			<stop  offset="2.453990e-02" style="stop-color:#FFFFFF"/>
			<stop  offset="1" style="stop-color:#B4E4FA"/>
		</radialGradient>
		<polygon class="st30" points="47.7,26.5 45.8,24.8 44.5,25 46.4,26.8 		"/>
		
			<radialGradient id="SVGID_33_" cx="76.7178" cy="49.4525" r="54.0426" gradientTransform="matrix(1 0 0 -1 0 100)" gradientUnits="userSpaceOnUse">
			<stop  offset="2.453990e-02" style="stop-color:#FFFFFF"/>
			<stop  offset="1" style="stop-color:#B4E4FA"/>
		</radialGradient>
		<polygon class="st31" points="45,27 42.9,25.3 41.7,25.6 43.8,27.2 		"/>
		
			<radialGradient id="SVGID_34_" cx="76.7241" cy="49.452" r="54.0496" gradientTransform="matrix(1 0 0 -1 0 100)" gradientUnits="userSpaceOnUse">
			<stop  offset="2.453990e-02" style="stop-color:#FFFFFF"/>
			<stop  offset="1" style="stop-color:#B4E4FA"/>
		</radialGradient>
		<polygon class="st32" points="42.4,27.5 40.1,26.1 38.9,26.5 41.2,27.9 		"/>
		
			<radialGradient id="SVGID_35_" cx="76.7193" cy="49.4521" r="54.0446" gradientTransform="matrix(1 0 0 -1 0 100)" gradientUnits="userSpaceOnUse">
			<stop  offset="2.453990e-02" style="stop-color:#FFFFFF"/>
			<stop  offset="1" style="stop-color:#B4E4FA"/>
		</radialGradient>
		<polygon class="st33" points="39.8,28.3 37.6,27.2 36.3,27.6 38.6,28.8 		"/>
		
			<radialGradient id="SVGID_36_" cx="76.717" cy="49.4525" r="54.0418" gradientTransform="matrix(1 0 0 -1 0 100)" gradientUnits="userSpaceOnUse">
			<stop  offset="2.453990e-02" style="stop-color:#FFFFFF"/>
			<stop  offset="1" style="stop-color:#B4E4FA"/>
		</radialGradient>
		<polygon class="st34" points="37.4,29.3 34.9,28.3 33.7,28.9 36.1,30 		"/>
		
			<radialGradient id="SVGID_37_" cx="76.7179" cy="49.4526" r="54.0426" gradientTransform="matrix(1 0 0 -1 0 100)" gradientUnits="userSpaceOnUse">
			<stop  offset="2.453990e-02" style="stop-color:#FFFFFF"/>
			<stop  offset="1" style="stop-color:#B4E4FA"/>
		</radialGradient>
		<polygon class="st35" points="34.9,30.6 32.5,29.9 31.3,30.5 33.8,31.3 		"/>
		
			<radialGradient id="SVGID_38_" cx="76.7196" cy="49.4524" r="54.0449" gradientTransform="matrix(1 0 0 -1 0 100)" gradientUnits="userSpaceOnUse">
			<stop  offset="2.453990e-02" style="stop-color:#FFFFFF"/>
			<stop  offset="1" style="stop-color:#B4E4FA"/>
		</radialGradient>
		<polygon class="st36" points="32.6,32 30.1,31.5 29.1,32.2 31.6,32.9 		"/>
		
			<radialGradient id="SVGID_39_" cx="76.7197" cy="49.4525" r="54.0445" gradientTransform="matrix(1 0 0 -1 0 100)" gradientUnits="userSpaceOnUse">
			<stop  offset="2.453990e-02" style="stop-color:#FFFFFF"/>
			<stop  offset="1" style="stop-color:#B4E4FA"/>
		</radialGradient>
		<polygon class="st37" points="27.9,33.4 26.9,34.2 29.5,34.6 30.5,33.7 		"/>
		
			<radialGradient id="SVGID_40_" cx="76.714" cy="49.4523" r="54.0388" gradientTransform="matrix(1 0 0 -1 0 100)" gradientUnits="userSpaceOnUse">
			<stop  offset="2.453990e-02" style="stop-color:#FFFFFF"/>
			<stop  offset="1" style="stop-color:#B4E4FA"/>
		</radialGradient>
		<polygon class="st38" points="25.9,35.3 25,36.4 27.6,36.5 28.4,35.6 		"/>
		
			<radialGradient id="SVGID_41_" cx="76.7198" cy="49.4523" r="54.0446" gradientTransform="matrix(1 0 0 -1 0 100)" gradientUnits="userSpaceOnUse">
			<stop  offset="2.453990e-02" style="stop-color:#FFFFFF"/>
			<stop  offset="1" style="stop-color:#B4E4FA"/>
		</radialGradient>
		<polygon class="st39" points="24.1,37.6 23.3,38.7 25.9,38.6 26.7,37.5 		"/>
		
			<radialGradient id="SVGID_42_" cx="76.7235" cy="49.4528" r="54.0481" gradientTransform="matrix(1 0 0 -1 0 100)" gradientUnits="userSpaceOnUse">
			<stop  offset="2.453990e-02" style="stop-color:#FFFFFF"/>
			<stop  offset="1" style="stop-color:#B4E4FA"/>
		</radialGradient>
		<polygon class="st40" points="22.4,40 21.7,41 24.3,40.7 25,39.7 		"/>
		
			<radialGradient id="SVGID_43_" cx="76.7161" cy="49.4516" r="54.0411" gradientTransform="matrix(1 0 0 -1 0 100)" gradientUnits="userSpaceOnUse">
			<stop  offset="2.453990e-02" style="stop-color:#FFFFFF"/>
			<stop  offset="1" style="stop-color:#B4E4FA"/>
		</radialGradient>
		<polygon class="st41" points="23.6,42 21,42.5 20.5,43.6 23,43.1 		"/>
		
			<radialGradient id="SVGID_44_" cx="76.7284" cy="49.4525" r="54.053" gradientTransform="matrix(1 0 0 -1 0 100)" gradientUnits="userSpaceOnUse">
			<stop  offset="2.453990e-02" style="stop-color:#FFFFFF"/>
			<stop  offset="1" style="stop-color:#B4E4FA"/>
		</radialGradient>
		<polygon class="st42" points="22.3,44.4 19.9,45.1 19.3,46.3 21.8,45.5 		"/>
		
			<radialGradient id="SVGID_45_" cx="76.7206" cy="49.453" r="54.0455" gradientTransform="matrix(1 0 0 -1 0 100)" gradientUnits="userSpaceOnUse">
			<stop  offset="2.453990e-02" style="stop-color:#FFFFFF"/>
			<stop  offset="1" style="stop-color:#B4E4FA"/>
		</radialGradient>
		<polygon class="st43" points="21.3,46.8 18.9,47.8 18.5,49 20.9,48.1 		"/>
		
			<radialGradient id="SVGID_46_" cx="76.7242" cy="49.4523" r="54.0488" gradientTransform="matrix(1 0 0 -1 0 100)" gradientUnits="userSpaceOnUse">
			<stop  offset="2.453990e-02" style="stop-color:#FFFFFF"/>
			<stop  offset="1" style="stop-color:#B4E4FA"/>
		</radialGradient>
		<polygon class="st44" points="20.5,49.4 18.2,50.6 17.9,51.9 20.2,50.7 		"/>
		
			<radialGradient id="SVGID_47_" cx="76.7255" cy="49.4523" r="54.0502" gradientTransform="matrix(1 0 0 -1 0 100)" gradientUnits="userSpaceOnUse">
			<stop  offset="2.453990e-02" style="stop-color:#FFFFFF"/>
			<stop  offset="1" style="stop-color:#B4E4FA"/>
		</radialGradient>
		<polygon class="st45" points="19.9,52 17.7,53.5 17.5,54.7 19.8,53.4 		"/>
		
			<radialGradient id="SVGID_48_" cx="76.7148" cy="49.4524" r="54.04" gradientTransform="matrix(1 0 0 -1 0 100)" gradientUnits="userSpaceOnUse">
			<stop  offset="2.453990e-02" style="stop-color:#FFFFFF"/>
			<stop  offset="1" style="stop-color:#B4E4FA"/>
		</radialGradient>
		<polygon class="st46" points="19.5,54.7 17.5,56.3 17.4,57.6 19.4,56.1 		"/>
		
			<radialGradient id="SVGID_49_" cx="76.733" cy="49.4525" r="54.0566" gradientTransform="matrix(1 0 0 -1 0 100)" gradientUnits="userSpaceOnUse">
			<stop  offset="2.453990e-02" style="stop-color:#FFFFFF"/>
			<stop  offset="1" style="stop-color:#B4E4FA"/>
		</radialGradient>
		<polygon class="st47" points="19.4,57.4 17.5,59.2 17.6,60.5 19.4,58.7 		"/>
		
			<radialGradient id="SVGID_50_" cx="76.7341" cy="49.4518" r="54.0571" gradientTransform="matrix(1 0 0 -1 0 100)" gradientUnits="userSpaceOnUse">
			<stop  offset="2.453990e-02" style="stop-color:#FFFFFF"/>
			<stop  offset="1" style="stop-color:#B4E4FA"/>
		</radialGradient>
		<polygon class="st48" points="19.5,60.1 17.8,62.1 18,63.3 19.8,61.4 		"/>
		
			<radialGradient id="SVGID_51_" cx="76.7193" cy="49.4521" r="54.0439" gradientTransform="matrix(1 0 0 -1 0 100)" gradientUnits="userSpaceOnUse">
			<stop  offset="2.453990e-02" style="stop-color:#FFFFFF"/>
			<stop  offset="1" style="stop-color:#B4E4FA"/>
		</radialGradient>
		<polygon class="st49" points="19.9,62.8 18.3,64.9 18.6,66.1 20.2,64 		"/>
		
			<radialGradient id="SVGID_52_" cx="76.7265" cy="49.4536" r="54.0507" gradientTransform="matrix(1 0 0 -1 0 100)" gradientUnits="userSpaceOnUse">
			<stop  offset="2.453990e-02" style="stop-color:#FFFFFF"/>
			<stop  offset="1" style="stop-color:#B4E4FA"/>
		</radialGradient>
		<polygon class="st50" points="20.5,65.5 19,67.6 19.4,68.9 20.9,66.7 		"/>
		
			<radialGradient id="SVGID_53_" cx="76.706" cy="49.4491" r="54.0318" gradientTransform="matrix(1 0 0 -1 0 100)" gradientUnits="userSpaceOnUse">
			<stop  offset="2.453990e-02" style="stop-color:#FFFFFF"/>
			<stop  offset="1" style="stop-color:#B4E4FA"/>
		</radialGradient>
		<polygon class="st51" points="21.3,68 20.1,70.3 20.6,71.5 21.8,69.2 		"/>
		
			<radialGradient id="SVGID_54_" cx="76.7199" cy="49.4527" r="54.0447" gradientTransform="matrix(1 0 0 -1 0 100)" gradientUnits="userSpaceOnUse">
			<stop  offset="2.453990e-02" style="stop-color:#FFFFFF"/>
			<stop  offset="1" style="stop-color:#B4E4FA"/>
		</radialGradient>
		<polygon class="st52" points="22.3,70.5 21.3,72.9 21.9,74.1 23,71.7 		"/>
		
			<radialGradient id="SVGID_55_" cx="76.7208" cy="49.457" r="54.0471" gradientTransform="matrix(1 0 0 -1 0 100)" gradientUnits="userSpaceOnUse">
			<stop  offset="2.453990e-02" style="stop-color:#FFFFFF"/>
			<stop  offset="1" style="stop-color:#B4E4FA"/>
		</radialGradient>
		<polygon class="st53" points="22.8,75.4 23.5,76.4 24.3,74 23.6,72.9 		"/>
		
			<radialGradient id="SVGID_56_" cx="76.7282" cy="49.449" r="54.05" gradientTransform="matrix(1 0 0 -1 0 100)" gradientUnits="userSpaceOnUse">
			<stop  offset="2.453990e-02" style="stop-color:#FFFFFF"/>
			<stop  offset="1" style="stop-color:#B4E4FA"/>
		</radialGradient>
		<polygon class="st54" points="24.4,77.7 25.2,78.7 25.8,76.2 25,75.2 		"/>
		
			<radialGradient id="SVGID_57_" cx="76.7208" cy="49.449" r="54.0436" gradientTransform="matrix(1 0 0 -1 0 100)" gradientUnits="userSpaceOnUse">
			<stop  offset="2.453990e-02" style="stop-color:#FFFFFF"/>
			<stop  offset="1" style="stop-color:#B4E4FA"/>
		</radialGradient>
		<polygon class="st55" points="26.3,79.9 27.2,80.9 27.5,78.3 26.7,77.3 		"/>
		
			<radialGradient id="SVGID_58_" cx="76.711" cy="49.4539" r="54.0387" gradientTransform="matrix(1 0 0 -1 0 100)" gradientUnits="userSpaceOnUse">
			<stop  offset="2.453990e-02" style="stop-color:#FFFFFF"/>
			<stop  offset="1" style="stop-color:#B4E4FA"/>
		</radialGradient>
		<polygon class="st56" points="28.3,81.9 29.3,82.8 29.5,80.2 28.4,79.3 		"/>
		
			<radialGradient id="SVGID_59_" cx="76.721" cy="49.4565" r="54.048" gradientTransform="matrix(1 0 0 -1 0 100)" gradientUnits="userSpaceOnUse">
			<stop  offset="2.453990e-02" style="stop-color:#FFFFFF"/>
			<stop  offset="1" style="stop-color:#B4E4FA"/>
		</radialGradient>
		<polygon class="st57" points="30.5,83.7 31.7,84.5 31.5,81.9 30.4,81.1 		"/>
		
			<radialGradient id="SVGID_60_" cx="76.7258" cy="49.4533" r="54.0497" gradientTransform="matrix(1 0 0 -1 0 100)" gradientUnits="userSpaceOnUse">
			<stop  offset="2.453990e-02" style="stop-color:#FFFFFF"/>
			<stop  offset="1" style="stop-color:#B4E4FA"/>
		</radialGradient>
		<polygon class="st58" points="32.6,82.8 32.9,85.3 34,86.1 33.7,83.5 		"/>
		
			<radialGradient id="SVGID_61_" cx="76.7188" cy="49.4448" r="54.0386" gradientTransform="matrix(1 0 0 -1 0 100)" gradientUnits="userSpaceOnUse">
			<stop  offset="2.453990e-02" style="stop-color:#FFFFFF"/>
			<stop  offset="1" style="stop-color:#B4E4FA"/>
		</radialGradient>
		<polygon class="st59" points="34.9,84.2 35.4,86.8 36.6,87.4 36,84.8 		"/>
		
			<radialGradient id="SVGID_62_" cx="76.7158" cy="49.458" r="54.0461" gradientTransform="matrix(1 0 0 -1 0 100)" gradientUnits="userSpaceOnUse">
			<stop  offset="2.453990e-02" style="stop-color:#FFFFFF"/>
			<stop  offset="1" style="stop-color:#B4E4FA"/>
		</radialGradient>
		<polygon class="st60" points="37.2,85.5 38.1,87.9 39.2,88.5 38.5,86 		"/>
		
			<radialGradient id="SVGID_63_" cx="76.7204" cy="49.4524" r="54.045" gradientTransform="matrix(1 0 0 -1 0 100)" gradientUnits="userSpaceOnUse">
			<stop  offset="2.453990e-02" style="stop-color:#FFFFFF"/>
			<stop  offset="1" style="stop-color:#B4E4FA"/>
		</radialGradient>
		<polygon class="st61" points="39.7,86.5 40.8,89 42,89.3 41,86.9 		"/>
		
			<radialGradient id="SVGID_64_" cx="76.7167" cy="49.4555" r="54.0457" gradientTransform="matrix(1 0 0 -1 0 100)" gradientUnits="userSpaceOnUse">
			<stop  offset="2.453990e-02" style="stop-color:#FFFFFF"/>
			<stop  offset="1" style="stop-color:#B4E4FA"/>
		</radialGradient>
		<polygon class="st62" points="42.3,87.3 43.6,89.7 44.8,89.9 43.7,87.6 		"/>
		
			<radialGradient id="SVGID_65_" cx="76.7195" cy="49.4633" r="54.0546" gradientTransform="matrix(1 0 0 -1 0 100)" gradientUnits="userSpaceOnUse">
			<stop  offset="2.453990e-02" style="stop-color:#FFFFFF"/>
			<stop  offset="1" style="stop-color:#B4E4FA"/>
		</radialGradient>
		<polygon class="st63" points="45,87.9 46.4,90.1 47.7,90.3 46.3,88 		"/>
		
			<radialGradient id="SVGID_66_" cx="76.7178" cy="49.4439" r="54.0353" gradientTransform="matrix(1 0 0 -1 0 100)" gradientUnits="userSpaceOnUse">
			<stop  offset="2.453990e-02" style="stop-color:#FFFFFF"/>
			<stop  offset="1" style="stop-color:#B4E4FA"/>
		</radialGradient>
		<polygon class="st64" points="47.7,88.2 49.3,90.3 50.5,90.4 48.9,88.4 		"/>
		
			<radialGradient id="SVGID_67_" cx="76.7163" cy="49.439" r="54.0286" gradientTransform="matrix(1 0 0 -1 0 100)" gradientUnits="userSpaceOnUse">
			<stop  offset="2.453990e-02" style="stop-color:#FFFFFF"/>
			<stop  offset="1" style="stop-color:#B4E4FA"/>
		</radialGradient>
		<polygon class="st65" points="50.4,88.4 52.2,90.3 53.4,90.2 51.6,88.4 		"/>
		
			<radialGradient id="SVGID_68_" cx="76.7213" cy="49.4431" r="54.0349" gradientTransform="matrix(1 0 0 -1 0 100)" gradientUnits="userSpaceOnUse">
			<stop  offset="2.453990e-02" style="stop-color:#FFFFFF"/>
			<stop  offset="1" style="stop-color:#B4E4FA"/>
		</radialGradient>
		<polygon class="st66" points="53.1,88.2 55,90 56.3,89.9 54.3,88.1 		"/>
		
			<radialGradient id="SVGID_69_" cx="76.7188" cy="49.4565" r="54.0488" gradientTransform="matrix(1 0 0 -1 0 100)" gradientUnits="userSpaceOnUse">
			<stop  offset="2.453990e-02" style="stop-color:#FFFFFF"/>
			<stop  offset="1" style="stop-color:#B4E4FA"/>
		</radialGradient>
		<polygon class="st67" points="55.8,87.9 57.7,89.5 59.1,89.3 57,87.6 		"/>
		
			<radialGradient id="SVGID_70_" cx="76.7211" cy="49.4391" r="54.0282" gradientTransform="matrix(1 0 0 -1 0 100)" gradientUnits="userSpaceOnUse">
			<stop  offset="2.453990e-02" style="stop-color:#FFFFFF"/>
			<stop  offset="1" style="stop-color:#B4E4FA"/>
		</radialGradient>
		<polygon class="st68" points="58.4,87.3 60.5,88.8 61.8,88.4 59.6,86.9 		"/>
		
			<radialGradient id="SVGID_71_" cx="76.7204" cy="49.4487" r="54.0395" gradientTransform="matrix(1 0 0 -1 0 100)" gradientUnits="userSpaceOnUse">
			<stop  offset="2.453990e-02" style="stop-color:#FFFFFF"/>
			<stop  offset="1" style="stop-color:#B4E4FA"/>
		</radialGradient>
		<polygon class="st69" points="61,86.5 63.2,87.7 64.5,87.2 62.2,86.1 		"/>
		
			<radialGradient id="SVGID_72_" cx="76.7201" cy="49.4568" r="54.0513" gradientTransform="matrix(1 0 0 -1 0 100)" gradientUnits="userSpaceOnUse">
			<stop  offset="2.453990e-02" style="stop-color:#FFFFFF"/>
			<stop  offset="1" style="stop-color:#B4E4FA"/>
		</radialGradient>
		<polygon class="st70" points="63.4,85.5 65.8,86.5 67.1,85.9 64.6,84.9 		"/>
		
			<radialGradient id="SVGID_73_" cx="76.7204" cy="49.4522" r="54.0447" gradientTransform="matrix(1 0 0 -1 0 100)" gradientUnits="userSpaceOnUse">
			<stop  offset="2.453990e-02" style="stop-color:#FFFFFF"/>
			<stop  offset="1" style="stop-color:#B4E4FA"/>
		</radialGradient>
		<polygon class="st71" points="65.8,84.2 68.3,85 69.4,84.3 67,83.6 		"/>
		
			<radialGradient id="SVGID_74_" cx="76.7192" cy="49.469" r="54.0717" gradientTransform="matrix(1 0 0 -1 0 100)" gradientUnits="userSpaceOnUse">
			<stop  offset="2.453990e-02" style="stop-color:#FFFFFF"/>
			<stop  offset="1" style="stop-color:#B4E4FA"/>
		</radialGradient>
		<polygon class="st72" points="68.1,82.8 70.7,83.4 71.7,82.6 69.1,82 		"/>
		
			<radialGradient id="SVGID_75_" cx="76.7198" cy="49.4627" r="54.063" gradientTransform="matrix(1 0 0 -1 0 100)" gradientUnits="userSpaceOnUse">
			<stop  offset="2.453990e-02" style="stop-color:#FFFFFF"/>
			<stop  offset="1" style="stop-color:#B4E4FA"/>
		</radialGradient>
		<polygon class="st73" points="70.3,81.2 72.9,81.5 73.8,80.6 71.2,80.3 		"/>
		
			<radialGradient id="SVGID_76_" cx="76.7203" cy="49.4581" r="54.0551" gradientTransform="matrix(1 0 0 -1 0 100)" gradientUnits="userSpaceOnUse">
			<stop  offset="2.453990e-02" style="stop-color:#FFFFFF"/>
			<stop  offset="1" style="stop-color:#B4E4FA"/>
		</radialGradient>
		<polygon class="st74" points="72.2,79.3 74.8,79.4 75.8,78.5 73.2,78.4 		"/>
		
			<radialGradient id="SVGID_77_" cx="76.72" cy="49.4667" r="54.0742" gradientTransform="matrix(1 0 0 -1 0 100)" gradientUnits="userSpaceOnUse">
			<stop  offset="2.453990e-02" style="stop-color:#FFFFFF"/>
			<stop  offset="1" style="stop-color:#B4E4FA"/>
		</radialGradient>
		<polygon class="st75" points="74.1,77.4 76.7,77.3 77.5,76.2 74.9,76.3 		"/>
		
			<radialGradient id="SVGID_78_" cx="76.7198" cy="49.4411" r="54.0194" gradientTransform="matrix(1 0 0 -1 0 100)" gradientUnits="userSpaceOnUse">
			<stop  offset="2.453990e-02" style="stop-color:#FFFFFF"/>
			<stop  offset="1" style="stop-color:#B4E4FA"/>
		</radialGradient>
		<polygon class="st76" points="75.8,75.2 78.3,74.9 79,73.8 76.5,74.1 		"/>
		
			<radialGradient id="SVGID_79_" cx="76.7196" cy="49.4606" r="54.0648" gradientTransform="matrix(1 0 0 -1 0 100)" gradientUnits="userSpaceOnUse">
			<stop  offset="2.453990e-02" style="stop-color:#FFFFFF"/>
			<stop  offset="1" style="stop-color:#B4E4FA"/>
		</radialGradient>
		<polygon class="st77" points="77.2,72.9 79.7,72.4 80.3,71.2 77.8,71.8 		"/>
		
			<radialGradient id="SVGID_80_" cx="76.72" cy="49.4539" r="54.0491" gradientTransform="matrix(1 0 0 -1 0 100)" gradientUnits="userSpaceOnUse">
			<stop  offset="2.453990e-02" style="stop-color:#FFFFFF"/>
			<stop  offset="1" style="stop-color:#B4E4FA"/>
		</radialGradient>
		<polygon class="st78" points="78.5,70.5 80.9,69.7 81.5,68.6 79,69.3 		"/>
		
			<radialGradient id="SVGID_81_" cx="76.7195" cy="49.4511" r="54.0408" gradientTransform="matrix(1 0 0 -1 0 100)" gradientUnits="userSpaceOnUse">
			<stop  offset="2.453990e-02" style="stop-color:#FFFFFF"/>
			<stop  offset="1" style="stop-color:#B4E4FA"/>
		</radialGradient>
		<polygon class="st79" points="79.5,68.1 81.9,67 82.3,65.8 79.9,66.8 		"/>
		
			<radialGradient id="SVGID_82_" cx="76.7203" cy="49.4538" r="54.0477" gradientTransform="matrix(1 0 0 -1 0 100)" gradientUnits="userSpaceOnUse">
			<stop  offset="2.453990e-02" style="stop-color:#FFFFFF"/>
			<stop  offset="1" style="stop-color:#B4E4FA"/>
		</radialGradient>
		<polygon class="st80" points="80.3,65.5 82.6,64.2 82.9,63 80.5,64.2 		"/>
		
			<radialGradient id="SVGID_83_" cx="76.7199" cy="49.4517" r="54.0412" gradientTransform="matrix(1 0 0 -1 0 100)" gradientUnits="userSpaceOnUse">
			<stop  offset="2.453990e-02" style="stop-color:#FFFFFF"/>
			<stop  offset="1" style="stop-color:#B4E4FA"/>
		</radialGradient>
		<polygon class="st81" points="80.8,62.8 83.1,61.4 83.2,60.1 81,61.5 		"/>
		
			<radialGradient id="SVGID_84_" cx="76.7199" cy="49.4526" r="54.0468" gradientTransform="matrix(1 0 0 -1 0 100)" gradientUnits="userSpaceOnUse">
			<stop  offset="2.453990e-02" style="stop-color:#FFFFFF"/>
			<stop  offset="1" style="stop-color:#B4E4FA"/>
		</radialGradient>
		<polygon class="st82" points="81.2,58.8 81.2,60.2 83.3,58.5 83.3,57.3 		"/>
		
			<radialGradient id="SVGID_85_" cx="76.7205" cy="49.4523" r="54.0425" gradientTransform="matrix(1 0 0 -1 0 100)" gradientUnits="userSpaceOnUse">
			<stop  offset="2.453990e-02" style="stop-color:#FFFFFF"/>
			<stop  offset="1" style="stop-color:#B4E4FA"/>
		</radialGradient>
		<polygon class="st83" points="81.4,57.5 83.3,55.7 83.2,54.4 81.2,56.2 		"/>
		
			<radialGradient id="SVGID_86_" cx="76.7198" cy="49.4523" r="54.0428" gradientTransform="matrix(1 0 0 -1 0 100)" gradientUnits="userSpaceOnUse">
			<stop  offset="2.453990e-02" style="stop-color:#FFFFFF"/>
			<stop  offset="1" style="stop-color:#B4E4FA"/>
		</radialGradient>
		<polygon class="st84" points="81.2,54.7 83,52.8 82.8,51.5 81,53.5 		"/>
		
			<radialGradient id="SVGID_87_" cx="76.7193" cy="49.4527" r="54.0497" gradientTransform="matrix(1 0 0 -1 0 100)" gradientUnits="userSpaceOnUse">
			<stop  offset="2.453990e-02" style="stop-color:#FFFFFF"/>
			<stop  offset="1" style="stop-color:#B4E4FA"/>
		</radialGradient>
		<polygon class="st85" points="80.8,52.1 82.5,50 82.2,48.7 80.6,50.8 		"/>
		
			<radialGradient id="SVGID_88_" cx="76.7206" cy="49.4524" r="54.0376" gradientTransform="matrix(1 0 0 -1 0 100)" gradientUnits="userSpaceOnUse">
			<stop  offset="2.453990e-02" style="stop-color:#FFFFFF"/>
			<stop  offset="1" style="stop-color:#B4E4FA"/>
		</radialGradient>
		<polygon class="st86" points="80.3,49.4 81.7,47.3 81.4,46 79.9,48.2 		"/>
		
			<radialGradient id="SVGID_89_" cx="76.7192" cy="49.453" r="54.047" gradientTransform="matrix(1 0 0 -1 0 100)" gradientUnits="userSpaceOnUse">
			<stop  offset="2.453990e-02" style="stop-color:#FFFFFF"/>
			<stop  offset="1" style="stop-color:#B4E4FA"/>
		</radialGradient>
		<polygon class="st87" points="79.5,46.8 80.7,44.6 80.2,43.3 79,45.7 		"/>
		
			<radialGradient id="SVGID_90_" cx="76.7197" cy="49.4518" r="54.0493" gradientTransform="matrix(1 0 0 -1 0 100)" gradientUnits="userSpaceOnUse">
			<stop  offset="2.453990e-02" style="stop-color:#FFFFFF"/>
			<stop  offset="1" style="stop-color:#B4E4FA"/>
		</radialGradient>
		<polygon class="st88" points="78.5,44.4 79.5,42 78.9,40.8 77.8,43.2 		"/>
		
			<radialGradient id="SVGID_91_" cx="76.7198" cy="49.4526" r="54.0439" gradientTransform="matrix(1 0 0 -1 0 100)" gradientUnits="userSpaceOnUse">
			<stop  offset="2.453990e-02" style="stop-color:#FFFFFF"/>
			<stop  offset="1" style="stop-color:#B4E4FA"/>
		</radialGradient>
		<polygon class="st89" points="78,39.5 77.3,38.3 76.5,40.8 77.2,42 		"/>
		
			<radialGradient id="SVGID_92_" cx="76.7196" cy="49.4524" r="54.045" gradientTransform="matrix(1 0 0 -1 0 100)" gradientUnits="userSpaceOnUse">
			<stop  offset="2.453990e-02" style="stop-color:#FFFFFF"/>
			<stop  offset="1" style="stop-color:#B4E4FA"/>
		</radialGradient>
		<polygon class="st90" points="76.3,37.1 75.6,36.1 74.9,38.7 75.8,39.7 		"/>
		
			<radialGradient id="SVGID_93_" cx="76.7197" cy="49.4525" r="54.0445" gradientTransform="matrix(1 0 0 -1 0 100)" gradientUnits="userSpaceOnUse">
			<stop  offset="2.453990e-02" style="stop-color:#FFFFFF"/>
			<stop  offset="1" style="stop-color:#B4E4FA"/>
		</radialGradient>
		<polygon class="st91" points="74.4,34.9 73.6,34 73.3,36.6 74.1,37.5 		"/>
		
			<radialGradient id="SVGID_94_" cx="76.7197" cy="49.4526" r="54.0444" gradientTransform="matrix(1 0 0 -1 0 100)" gradientUnits="userSpaceOnUse">
			<stop  offset="2.453990e-02" style="stop-color:#FFFFFF"/>
			<stop  offset="1" style="stop-color:#B4E4FA"/>
		</radialGradient>
		<polygon class="st92" points="72.4,33 71.4,32 71.3,34.6 72.2,35.6 		"/>
		
			<radialGradient id="SVGID_95_" cx="76.7185" cy="49.4526" r="54.0433" gradientTransform="matrix(1 0 0 -1 0 100)" gradientUnits="userSpaceOnUse">
			<stop  offset="2.453990e-02" style="stop-color:#FFFFFF"/>
			<stop  offset="1" style="stop-color:#B4E4FA"/>
		</radialGradient>
		<polygon class="st93" points="70.2,31.1 69.1,30.3 69.2,33 70.3,33.7 		"/>
		
			<radialGradient id="SVGID_96_" cx="76.7183" cy="49.4522" r="54.0437" gradientTransform="matrix(1 0 0 -1 0 100)" gradientUnits="userSpaceOnUse">
			<stop  offset="2.453990e-02" style="stop-color:#FFFFFF"/>
			<stop  offset="1" style="stop-color:#B4E4FA"/>
		</radialGradient>
		<polygon class="st94" points="68.2,32 67.8,29.4 66.8,28.8 67.1,31.4 		"/>
		
			<radialGradient id="SVGID_97_" cx="76.7169" cy="49.4524" r="54.0259" gradientTransform="matrix(1 0 0 -1 0 100)" gradientUnits="userSpaceOnUse">
			<stop  offset="2.453990e-02" style="stop-color:#FFFFFF"/>
			<stop  offset="1" style="stop-color:#B4E4FA"/>
		</radialGradient>
		<polygon class="st95" points="65.9,30.6 65.3,28.1 64.2,27.5 64.7,30.1 		"/>
		
			<radialGradient id="SVGID_98_" cx="76.7229" cy="49.4525" r="54.0479" gradientTransform="matrix(1 0 0 -1 0 100)" gradientUnits="userSpaceOnUse">
			<stop  offset="2.453990e-02" style="stop-color:#FFFFFF"/>
			<stop  offset="1" style="stop-color:#B4E4FA"/>
		</radialGradient>
		<polygon class="st96" points="63.4,29.3 62.7,26.9 61.5,26.3 62.3,28.8 		"/>
		
			<radialGradient id="SVGID_99_" cx="76.7182" cy="49.4523" r="54.0433" gradientTransform="matrix(1 0 0 -1 0 100)" gradientUnits="userSpaceOnUse">
			<stop  offset="2.453990e-02" style="stop-color:#FFFFFF"/>
			<stop  offset="1" style="stop-color:#B4E4FA"/>
		</radialGradient>
		<polygon class="st97" points="61,28.3 60,25.9 58.8,25.5 59.7,28 		"/>
		
			<radialGradient id="SVGID_100_" cx="76.7216" cy="49.4521" r="54.047" gradientTransform="matrix(1 0 0 -1 0 100)" gradientUnits="userSpaceOnUse">
			<stop  offset="2.453990e-02" style="stop-color:#FFFFFF"/>
			<stop  offset="1" style="stop-color:#B4E4FA"/>
		</radialGradient>
		<polygon class="st98" points="58.4,27.5 57.2,25.2 56,24.9 57.1,27.3 		"/>
		
			<radialGradient id="SVGID_101_" cx="76.7199" cy="49.4523" r="54.0447" gradientTransform="matrix(1 0 0 -1 0 100)" gradientUnits="userSpaceOnUse">
			<stop  offset="2.453990e-02" style="stop-color:#FFFFFF"/>
			<stop  offset="1" style="stop-color:#B4E4FA"/>
		</radialGradient>
		<polygon class="st99" points="55.8,27 54.4,24.8 53.1,24.6 54.4,26.8 		"/>
		
			<radialGradient id="SVGID_102_" cx="76.7219" cy="49.4523" r="54.047" gradientTransform="matrix(1 0 0 -1 0 100)" gradientUnits="userSpaceOnUse">
			<stop  offset="2.453990e-02" style="stop-color:#FFFFFF"/>
			<stop  offset="1" style="stop-color:#B4E4FA"/>
		</radialGradient>
		<polygon class="st100" points="53.1,26.5 51.5,24.5 50.2,24.5 51.7,26.5 		"/>
	</g>
	<g>
		<g>
			<g>
				
					<radialGradient id="SVGID_103_" cx="50.3629" cy="64.7751" r="1.6016" gradientTransform="matrix(1 0 0 -1 0 100)" gradientUnits="userSpaceOnUse">
					<stop  offset="2.453990e-02" style="stop-color:#FFFFFF"/>
					<stop  offset="1" style="stop-color:#B4E4FA"/>
				</radialGradient>
				<path class="st101" d="M50.4,33.7l0.3,1.2h1.2L51,35.6l0.3,1.2l-1-0.7l-1,0.7l0.4-1.1l-1-0.7h1.2L50.4,33.7z"/>
			</g>
		</g>
		
			<radialGradient id="SVGID_104_" cx="-106.3802" cy="290.8548" r="3.0712" gradientTransform="matrix(0.729 0 0 -0.5 116.7961 181.625)" gradientUnits="userSpaceOnUse">
			<stop  offset="2.453990e-02" style="stop-color:#FFFFFF"/>
			<stop  offset="1" style="stop-color:#B4E4FA"/>
		</radialGradient>
		<rect x="36.1" y="36.2" class="st102" width="6.3" height="0.1"/>
		
			<radialGradient id="SVGID_105_" cx="-272.441" cy="289.6664" r="3.0699" gradientTransform="matrix(0.5571 0 0 -0.5 191.7693 181.625)" gradientUnits="userSpaceOnUse">
			<stop  offset="2.453990e-02" style="stop-color:#FFFFFF"/>
			<stop  offset="1" style="stop-color:#B4E4FA"/>
		</radialGradient>
		<rect x="37.6" y="36.7" class="st103" width="4.9" height="0.1"/>
		
			<radialGradient id="SVGID_106_" cx="1111.2424" cy="290.8548" r="3.0712" gradientTransform="matrix(-0.729 0 0 -0.5 871.711 181.625)" gradientUnits="userSpaceOnUse">
			<stop  offset="2.453990e-02" style="stop-color:#FFFFFF"/>
			<stop  offset="1" style="stop-color:#B4E4FA"/>
		</radialGradient>
		<rect x="58.5" y="36.2" class="st104" width="6.3" height="0.1"/>
		
			<radialGradient id="SVGID_107_" cx="1320.8938" cy="289.6664" r="3.0711" gradientTransform="matrix(-0.5571 0 0 -0.5 796.7387 181.625)" gradientUnits="userSpaceOnUse">
			<stop  offset="2.453990e-02" style="stop-color:#FFFFFF"/>
			<stop  offset="1" style="stop-color:#B4E4FA"/>
		</radialGradient>
		<rect x="58.5" y="36.7" class="st105" width="4.9" height="0.1"/>
	</g>
	<g>
		<path class="st25" d="M32.1,53.5c-1.7,1.1-2.8,1.7-3.7,1.9h7.4v-1.9C34.6,51.8,32.1,53.5,32.1,53.5L32.1,53.5z"/>
		<path class="st25" d="M25.3,53.8l-1.6,1.6h3.5C26.4,55.2,25.6,54.5,25.3,53.8L25.3,53.8z"/>
		<path class="st25" d="M25.8,53.3c0.7,0.8,2.6,0.8,5.9-1.6c0,0,3.1-2.3,4.1,0.8v-9.2L25.8,53.3L25.8,53.3z"/>
		<polygon class="st25" points="37,54.3 36.7,54.3 36.7,54.2 37.6,54.2 37.6,54.3 37.1,54.3 37.1,55.3 37,55.3 		"/>
		<polygon class="st25" points="37.8,54.2 37.9,54.2 38.3,55.2 38.7,54.2 38.9,54.2 38.9,55.3 38.8,55.3 38.8,54.4 38.8,54.4 
			38.3,55.3 38.3,55.3 37.9,54.4 37.9,54.4 37.9,55.3 37.8,55.3 		"/>
		<path class="st25" d="M43.7,48.7c-0.4-0.4-0.8-0.5-1.1-0.5c-1.1,0-2,0.9-2,2c0,1.2,0.7,2.1,2,2.1c0.4,0,0.9-0.2,1.2-0.7l0.8,0.6
			c-0.5,0.7-1.2,1-2.1,1c-1.8,0-3-1.1-3-2.9c0-1.8,1.2-3,3-3c0.7,0,1.4,0.2,2,0.9L43.7,48.7L43.7,48.7z"/>
		<path class="st25" d="M48.4,50.9l-0.8-2.3l-0.8,2.3H48.4L48.4,50.9z M47.2,47.4H48l2.4,5.6h-1.1l-0.5-1.2h-2.4l-0.5,1.2h-1.1
			L47.2,47.4L47.2,47.4z"/>
		<polygon class="st25" points="51.1,47.4 52.2,47.4 52.2,52.1 54.5,52.1 54.5,52.9 51.1,52.9 		"/>
		<polygon class="st25" points="56.7,50.6 54.5,47.4 55.8,47.4 57.2,49.6 58.6,47.4 59.8,47.4 57.6,50.6 57.6,52.9 56.7,52.9 		"/>
		<path class="st25" d="M62,49.8c0.6,0,1.3,0,1.3-0.8c0-0.7-0.6-0.8-1.2-0.8h-0.7v1.6H62V49.8z M60.3,47.4h1.9c1,0,2.1,0.4,2.1,1.7
			c0,1.4-1,1.7-2.3,1.7h-0.6v2.3h-1V47.4L60.3,47.4z"/>
		<path class="st25" d="M68,48.6c-0.2-0.3-0.6-0.4-0.9-0.4c-0.4,0-0.9,0.2-0.9,0.7c0,1.1,2.7,0.5,2.7,2.5c0,1.2-0.9,1.8-2.1,1.8
			c-0.7,0-1.3-0.2-1.9-0.7l0.7-0.7c0.2,0.4,0.6,0.6,1.1,0.6c0.4,0,0.9-0.2,0.9-0.7c0-1.2-2.7-0.5-2.7-2.5c0-1.1,1-1.7,2.1-1.7
			c0.6,0,1.1,0.2,1.7,0.6L68,48.6L68,48.6z"/>
		<path class="st25" d="M72.6,52.2c1.1,0,2-0.9,2-2.1c0-1.1-0.7-2-2-2c-1.1,0-2,0.9-2,2C70.7,51.3,71.4,52.2,72.6,52.2L72.6,52.2z
			 M72.6,47.3c1.8,0,3,1.1,3,2.9c0,1.8-1.2,2.9-3,3c-1.8,0-3-1.1-3-2.9C69.7,48.4,70.9,47.3,72.6,47.3L72.6,47.3z"/>
		<path class="st25" d="M76.1,47.8V48c0,0,0,0,0.1,0s0.1,0,0.2,0v-0.1C76.3,47.8,76.3,47.8,76.1,47.8L76.1,47.8L76.1,47.8L76.1,47.8
			z M76.4,48.5l-0.2-0.4h-0.1v0.4H76v-0.8h0.2c0.2,0,0.3,0.1,0.3,0.2c0,0.1-0.1,0.2-0.2,0.2l0.2,0.4L76.4,48.5L76.4,48.5z
			 M76.8,48.1c0-0.2-0.1-0.3-0.2-0.4c-0.1-0.1-0.2-0.2-0.4-0.2c-0.2,0-0.3,0.1-0.4,0.2s-0.2,0.2-0.2,0.4c0,0.2,0.1,0.3,0.2,0.4
			c0.1,0.1,0.2,0.2,0.4,0.2c0.2,0,0.3-0.1,0.4-0.2C76.7,48.4,76.8,48.2,76.8,48.1L76.8,48.1z M75.4,48.1c0-0.2,0.1-0.3,0.2-0.5
			c0.1-0.1,0.3-0.2,0.5-0.2s0.3,0.1,0.5,0.2c0.1,0.1,0.2,0.3,0.2,0.5c0,0.2-0.1,0.3-0.2,0.5c-0.1,0.1-0.3,0.2-0.5,0.2
			s-0.3-0.1-0.5-0.2C75.6,48.4,75.4,48.3,75.4,48.1L75.4,48.1z"/>
	</g>
	<rect x="22.8" y="58.7" class="st106" width="56.1" height="6.9"/>
	<g class="st107">
		<path class="st25" d="M38.9,61.2c0.5,0,0.9,0.2,1.2,0.5l-0.4,0.5c-0.2-0.2-0.4-0.3-0.8-0.3c-0.7,0-1.2,0.6-1.2,1.5
			c0,0.9,0.4,1.5,1.1,1.5c0.4,0,0.6-0.2,0.9-0.4l0.4,0.4c-0.3,0.4-0.8,0.6-1.3,0.6c-1.1,0-1.9-0.8-1.9-2.1
			C37,62,37.8,61.2,38.9,61.2z"/>
		<path class="st25" d="M40.8,61.2h2.5v0.6h-1.8v1.1h1.5v0.6h-1.5v1.2h1.8v0.6h-2.5V61.2z"/>
		<path class="st25" d="M46.5,65.4l-0.9-1.6H45v1.6h-0.7v-4.1h1.4c0.9,0,1.5,0.3,1.5,1.2c0,0.6-0.3,1-0.8,1.2l1,1.7H46.5z M45,63.2
			h0.6c0.6,0,0.9-0.2,0.9-0.7c0-0.5-0.3-0.6-0.9-0.6H45V63.2z"/>
		<path class="st25" d="M48.7,61.9h-1.2v-0.6h3.1v0.6h-1.2v3.5h-0.7V61.9z"/>
		<path class="st25" d="M51.3,61.2h0.7v4.1h-0.7V61.2z"/>
		<path class="st25" d="M53.1,61.2h2.5v0.6h-1.8V63h1.5v0.6h-1.5v1.7h-0.7V61.2z"/>
		<path class="st25" d="M56.3,61.2h0.7v4.1h-0.7V61.2z"/>
		<path class="st25" d="M58.1,61.2h2.5v0.6h-1.8v1.1h1.5v0.6h-1.5v1.2h1.8v0.6h-2.5V61.2z"/>
		<path class="st25" d="M61.5,61.2h1.1c1.3,0,2,0.7,2,2c0,1.4-0.7,2.1-2,2.1h-1.1V61.2z M62.5,64.8c0.8,0,1.3-0.5,1.3-1.5
			c0-1-0.5-1.4-1.3-1.4h-0.3v2.9H62.5z"/>
	</g>
	<g>
		
			<linearGradient id="SVGID_108_" gradientUnits="userSpaceOnUse" x1="14.0597" y1="-54.0222" x2="87.4582" y2="-54.0222" gradientTransform="matrix(1 0 0 -1.1999 0 13.1645)">
			<stop  offset="0" style="stop-color:#0E4066"/>
			<stop  offset="1" style="stop-color:#00609D"/>
		</linearGradient>
		<path class="st108" d="M87.5,85c-24.2,4.2-49.1,4.2-73.4,0c0-5.8,0-11.5,0-17.3c24.2,4.2,49.1,4.2,73.4,0
			C87.5,73.5,87.5,79.2,87.5,85z"/>
		<g>
			
				<radialGradient id="SVGID_109_" cx="50.6554" cy="28.7664" r="24.1441" gradientTransform="matrix(1 0 0 -1 0 100)" gradientUnits="userSpaceOnUse">
				<stop  offset="0" style="stop-color:#D4EFFC"/>
				<stop  offset="1" style="stop-color:#6FBCE9"/>
			</radialGradient>
			<path class="st109" d="M84.8,70c-0.4,0.1-0.8,0.1-1.1,0.2c0-0.1,0-0.2,0-0.3c0.4-0.1,0.8-0.1,1.1-0.2
				C84.8,69.8,84.8,69.9,84.8,70z M82.4,70.4c-0.4,0.1-0.8,0.1-1.2,0.2c0-0.1,0-0.2,0-0.3c0.4-0.1,0.8-0.1,1.2-0.2
				C82.4,70.2,82.4,70.3,82.4,70.4z M80,70.8c-0.4,0.1-0.8,0.1-1.2,0.2c0-0.1,0-0.2,0-0.3c0.4-0.1,0.8-0.1,1.2-0.2
				C80,70.5,80,70.6,80,70.8z M77.6,71.1c-0.4,0-0.8,0.1-1.2,0.1c0-0.1,0-0.2,0-0.3c0.4,0,0.8-0.1,1.2-0.1
				C77.6,70.9,77.6,71,77.6,71.1z M75.2,71.4c-0.4,0-0.8,0.1-1.2,0.1c0-0.1,0-0.2,0-0.3c0.4,0,0.8-0.1,1.2-0.1
				C75.2,71.2,75.2,71.3,75.2,71.4z M72.9,71.6c-0.4,0-0.8,0.1-1.2,0.1c0-0.1,0-0.2,0-0.3c0.4,0,0.8-0.1,1.2-0.1
				C72.9,71.4,72.9,71.5,72.9,71.6z M70.5,71.9c-0.4,0-0.8,0.1-1.2,0.1c0-0.1,0-0.2,0-0.3c0.4,0,0.8-0.1,1.2-0.1
				C70.5,71.7,70.5,71.8,70.5,71.9z M68.1,72.1c-0.4,0-0.8,0.1-1.2,0.1c0-0.1,0-0.2,0-0.3c0.4,0,0.8-0.1,1.2-0.1
				C68.1,71.9,68.1,72,68.1,72.1z M65.6,72.2c-0.4,0-0.8,0.1-1.2,0.1c0-0.1,0-0.2,0-0.3c0.4,0,0.8-0.1,1.2-0.1
				C65.6,72,65.6,72.1,65.6,72.2z M63.2,72.4c-0.4,0-0.8,0-1.2,0.1c0-0.1,0-0.2,0-0.3c0.4,0,0.8,0,1.2-0.1
				C63.2,72.2,63.2,72.3,63.2,72.4z M60.9,72.5c-0.4,0-0.8,0-1.2,0.1c0-0.1,0-0.2,0-0.3c0.4,0,0.8,0,1.2-0.1
				C60.9,72.3,60.9,72.4,60.9,72.5z M58.5,72.6c-0.4,0-0.8,0-1.2,0c0-0.1,0-0.2,0-0.3c0.4,0,0.8,0,1.2,0
				C58.5,72.4,58.5,72.5,58.5,72.6z M56.1,72.7c-0.4,0-0.8,0-1.2,0c0-0.1,0-0.2,0-0.3c0.4,0,0.8,0,1.2,0
				C56.1,72.5,56.1,72.6,56.1,72.7z M53.6,72.7c-0.4,0-0.8,0-1.2,0c0-0.1,0-0.2,0-0.3c0.4,0,0.8,0,1.2,0
				C53.6,72.5,53.6,72.6,53.6,72.7z M51.2,72.7c-0.4,0-0.8,0-1.2,0c0-0.1,0-0.2,0-0.3c0.4,0,0.8,0,1.2,0
				C51.2,72.6,51.2,72.6,51.2,72.7z M48.8,72.7c-0.4,0-0.8,0-1.2,0c0-0.1,0-0.2,0-0.3c0.4,0,0.8,0,1.2,0
				C48.8,72.5,48.8,72.6,48.8,72.7z M46.5,72.7c-0.4,0-0.8,0-1.2,0c0-0.1,0-0.2,0-0.3c0.4,0,0.8,0,1.2,0
				C46.5,72.5,46.5,72.6,46.5,72.7z M44.1,72.6c-0.4,0-0.8,0-1.2,0c0-0.1,0-0.2,0-0.3c0.4,0,0.8,0,1.2,0
				C44.1,72.5,44.1,72.5,44.1,72.6z M41.6,72.6c-0.4,0-0.8,0-1.2-0.1c0-0.1,0-0.2,0-0.3c0.4,0,0.8,0,1.2,0.1
				C41.6,72.4,41.6,72.5,41.6,72.6z M39.2,72.4c-0.4,0-0.8,0-1.2-0.1c0-0.1,0-0.2,0-0.3c0.4,0,0.8,0,1.2,0.1
				C39.2,72.3,39.2,72.3,39.2,72.4z M36.8,72.3c-0.4,0-0.8-0.1-1.2-0.1c0-0.1,0-0.2,0-0.3c0.4,0,0.8,0.1,1.2,0.1
				C36.8,72.1,36.8,72.2,36.8,72.3z M34.5,72.1c-0.4,0-0.8-0.1-1.2-0.1c0-0.1,0-0.2,0-0.3c0.4,0,0.8,0.1,1.2,0.1
				C34.5,71.9,34.5,72,34.5,72.1z M32.1,72c-0.4,0-0.8-0.1-1.2-0.1c0-0.1,0-0.2,0-0.3c0.4,0,0.8,0.1,1.2,0.1
				C32.1,71.8,32.1,71.9,32.1,72z M29.7,71.7c-0.4,0-0.8-0.1-1.2-0.1c0-0.1,0-0.2,0-0.3c0.4,0,0.8,0.1,1.2,0.1
				C29.7,71.5,29.7,71.6,29.7,71.7z M27.2,71.5c-0.4,0-0.8-0.1-1.2-0.1c0-0.1,0-0.2,0-0.3c0.4,0,0.8,0.1,1.2,0.1
				C27.2,71.3,27.2,71.4,27.2,71.5z M24.8,71.2c-0.4,0-0.8-0.1-1.2-0.1c0-0.1,0-0.2,0-0.3c0.4,0,0.8,0.1,1.2,0.1
				C24.8,71,24.8,71.1,24.8,71.2z M22.4,70.9c-0.4,0-0.7-0.1-1.1-0.1c0-0.1,0-0.2,0-0.3c0.4,0.1,0.8,0.1,1.2,0.2
				C22.4,70.6,22.4,70.8,22.4,70.9z M20.1,70.5c-0.4-0.1-0.8-0.1-1.2-0.2c0-0.1,0-0.2,0-0.3c0.4,0.1,0.8,0.1,1.2,0.2
				C20.1,70.3,20.1,70.4,20.1,70.5z M17.7,70.2c-0.4-0.1-0.8-0.1-1.1-0.2c0-0.1,0-0.2,0-0.3c0.4,0.1,0.8,0.1,1.1,0.2
				C17.7,70,17.7,70.1,17.7,70.2z"/>
		</g>
		<g>
			
				<radialGradient id="SVGID_110_" cx="50.6554" cy="15.2973" r="24.1444" gradientTransform="matrix(1 0 0 -1 0 100)" gradientUnits="userSpaceOnUse">
				<stop  offset="0" style="stop-color:#D4EFFC"/>
				<stop  offset="1" style="stop-color:#6FBCE9"/>
			</radialGradient>
			<path class="st110" d="M84.8,83.5c-0.4,0.1-0.8,0.1-1.1,0.2c0-0.1,0-0.2,0-0.3c0.4-0.1,0.8-0.1,1.1-0.2
				C84.8,83.3,84.8,83.4,84.8,83.5z M82.4,83.9C82,84,81.6,84,81.1,84.1c0-0.1,0-0.2,0-0.3c0.4-0.1,0.8-0.1,1.2-0.2
				C82.4,83.7,82.4,83.8,82.4,83.9z M80,84.2c-0.4,0.1-0.8,0.1-1.2,0.2c0-0.1,0-0.2,0-0.3c0.4-0.1,0.8-0.1,1.2-0.2
				C80,84,80,84.1,80,84.2z M77.6,84.5c-0.4,0-0.8,0.1-1.2,0.1c0-0.1,0-0.2,0-0.3c0.4,0,0.8-0.1,1.2-0.1
				C77.6,84.3,77.6,84.4,77.6,84.5z M75.2,84.8c-0.4,0-0.8,0.1-1.2,0.1c0-0.1,0-0.2,0-0.3c0.4,0,0.8-0.1,1.2-0.1
				C75.2,84.6,75.2,84.7,75.2,84.8z M72.9,85c-0.4,0-0.8,0.1-1.2,0.1c0-0.1,0-0.2,0-0.3c0.4,0,0.8-0.1,1.2-0.1
				C72.9,84.9,72.9,84.9,72.9,85z M70.5,85.3c-0.4,0-0.8,0.1-1.2,0.1c0-0.1,0-0.2,0-0.3c0.4,0,0.8-0.1,1.2-0.1
				C70.5,85.1,70.5,85.2,70.5,85.3z M68.1,85.6c-0.4,0-0.8,0.1-1.2,0.1c0-0.1,0-0.2,0-0.3c0.4,0,0.8-0.1,1.2-0.1
				C68.1,85.3,68.1,85.5,68.1,85.6z M65.6,85.7c-0.4,0-0.8,0.1-1.2,0.1c0-0.1,0-0.2,0-0.3c0.4,0,0.8-0.1,1.2-0.1
				C65.6,85.6,65.6,85.7,65.6,85.7z M63.2,85.9c-0.4,0-0.8,0-1.2,0.1c0-0.1,0-0.2,0-0.3c0.4,0,0.8,0,1.2-0.1
				C63.2,85.7,63.2,85.8,63.2,85.9z M60.9,86c-0.4,0-0.8,0-1.2,0.1c0-0.1,0-0.2,0-0.3c0.4,0,0.8,0,1.2-0.1
				C60.9,85.8,60.9,85.9,60.9,86z M58.5,86.1c-0.4,0-0.8,0-1.2,0c0-0.1,0-0.2,0-0.3c0.4,0,0.8,0,1.2,0C58.5,85.9,58.5,86,58.5,86.1z
				 M56.1,86.2c-0.4,0-0.8,0-1.2,0c0-0.1,0-0.2,0-0.3c0.4,0,0.8,0,1.2,0C56.1,86,56.1,86.1,56.1,86.2z M53.6,86.2
				c-0.4,0-0.8,0-1.2,0c0-0.1,0-0.2,0-0.3c0.4,0,0.8,0,1.2,0C53.6,86,53.6,86.1,53.6,86.2z M51.2,86.3c-0.4,0-0.8,0-1.2,0
				c0-0.1,0-0.2,0-0.3c0.4,0,0.8,0,1.2,0C51.2,86.1,51.2,86.2,51.2,86.3z M48.8,86.2c-0.4,0-0.8,0-1.2,0c0-0.1,0-0.2,0-0.3
				c0.4,0,0.8,0,1.2,0C48.8,86.1,48.8,86.1,48.8,86.2z M46.5,86.2c-0.4,0-0.8,0-1.2,0c0-0.1,0-0.2,0-0.3c0.4,0,0.8,0,1.2,0
				C46.5,86,46.5,86.1,46.5,86.2z M44.1,86.2c-0.4,0-0.8,0-1.2,0c0-0.1,0-0.2,0-0.3c0.4,0,0.8,0,1.2,0C44.1,86,44.1,86.1,44.1,86.2z
				 M41.6,86.1c-0.4,0-0.8,0-1.2-0.1c0-0.1,0-0.2,0-0.3c0.4,0,0.8,0,1.2,0.1C41.6,85.9,41.6,86,41.6,86.1z M39.2,86
				c-0.4,0-0.8,0-1.2-0.1c0-0.1,0-0.2,0-0.3c0.4,0,0.8,0,1.2,0.1C39.2,85.8,39.2,85.9,39.2,86z M36.8,85.8c-0.4,0-0.8-0.1-1.2-0.1
				c0-0.1,0-0.2,0-0.3c0.4,0,0.8,0.1,1.2,0.1C36.8,85.6,36.8,85.7,36.8,85.8z M34.5,85.7c-0.4,0-0.8-0.1-1.2-0.1c0-0.1,0-0.2,0-0.3
				c0.4,0,0.8,0.1,1.2,0.1C34.5,85.5,34.5,85.6,34.5,85.7z M32.1,85.5c-0.4,0-0.8-0.1-1.2-0.1c0-0.1,0-0.2,0-0.3
				c0.4,0,0.8,0.1,1.2,0.1C32.1,85.2,32.1,85.3,32.1,85.5z M29.7,85.1c-0.4,0-0.8-0.1-1.2-0.1c0-0.1,0-0.2,0-0.3
				c0.4,0,0.8,0.1,1.2,0.1C29.7,85,29.7,85,29.7,85.1z M27.2,84.9c-0.4,0-0.8-0.1-1.2-0.1c0-0.1,0-0.2,0-0.3c0.4,0,0.8,0.1,1.2,0.1
				C27.2,84.7,27.2,84.8,27.2,84.9z M24.8,84.6c-0.4,0-0.8-0.1-1.2-0.1c0-0.1,0-0.2,0-0.3c0.4,0.1,0.8,0.1,1.2,0.1
				C24.8,84.4,24.8,84.5,24.8,84.6z M22.4,84.3c-0.4,0-0.7-0.1-1.1-0.1c0-0.1,0-0.2,0-0.3c0.4,0.1,0.8,0.1,1.2,0.2
				C22.4,84.1,22.4,84.2,22.4,84.3z M20.1,84c-0.4-0.1-0.8-0.1-1.2-0.2c0-0.1,0-0.2,0-0.3c0.4,0.1,0.8,0.1,1.2,0.2
				C20.1,83.8,20.1,83.9,20.1,84z M17.7,83.7c-0.4-0.1-0.8-0.1-1.1-0.2c0-0.1,0-0.2,0-0.3c0.4,0.1,0.8,0.1,1.1,0.2
				C17.7,83.5,17.7,83.6,17.7,83.7z"/>
		</g>
		
			<radialGradient id="SVGID_111_" cx="55.593" cy="21.9041" r="27.2288" gradientTransform="matrix(1 0 0 -1 0 100)" gradientUnits="userSpaceOnUse">
			<stop  offset="0" style="stop-color:#D4EFFC"/>
			<stop  offset="1" style="stop-color:#6FBCE9"/>
		</radialGradient>
		<path class="st111" d="M18.9,76c0,0,0.1,0,0.1,0.1l1.1,1.1l0,0l0,0l0,0l0,0l0,0l0,0L19,78.4l-0.1,0.1c-0.2,0.1-0.5,0-0.7-0.2
			c-0.1-0.2-0.1-0.3,0-0.5c-0.3,0-0.5-0.2-0.5-0.5s0.2-0.5,0.5-0.5c-0.1-0.1-0.1-0.3,0-0.5C18.4,76,18.7,75.9,18.9,76z"/>
		
			<radialGradient id="SVGID_112_" cx="55.5928" cy="21.9044" r="27.2285" gradientTransform="matrix(1 0 0 -1 0 100)" gradientUnits="userSpaceOnUse">
			<stop  offset="0" style="stop-color:#D4EFFC"/>
			<stop  offset="1" style="stop-color:#6FBCE9"/>
		</radialGradient>
		<path class="st112" d="M82.9,78.5c0,0-0.1,0-0.1-0.1l-1.1-1.1l0,0l0,0l0,0l0,0l0,0l0,0l1.1-1.1l0.1-0.1c0.2-0.1,0.5,0,0.7,0.2
			c0.1,0.2,0.1,0.3,0,0.5c0.3,0,0.5,0.2,0.5,0.5s-0.2,0.5-0.5,0.5c0.1,0.1,0.1,0.3,0,0.5C83.4,78.5,83.1,78.6,82.9,78.5z"/>
	</g>
	<g>
		<path class="st25" d="M34.9,79.2h-1.7l-0.4,1.3h-0.9l1.7-5h1l1.7,5h-0.9L34.9,79.2z M34.7,78.6L34.5,78c-0.2-0.5-0.3-1.1-0.4-1.7
			l0,0c-0.1,0.5-0.3,1.1-0.4,1.7l-0.2,0.6H34.7z"/>
		<path class="st25" d="M36.9,79.4c0.3,0.3,0.8,0.5,1.3,0.5s0.8-0.2,0.8-0.6s-0.3-0.5-0.7-0.7l-0.7-0.3c-0.5-0.2-1-0.6-1-1.3
			c0-0.8,0.7-1.4,1.7-1.4c0.6,0,1.1,0.2,1.6,0.6l-0.4,0.5c-0.3-0.3-0.6-0.4-1.1-0.4s-0.8,0.2-0.8,0.6c0,0.4,0.4,0.5,0.8,0.7l0.7,0.3
			c0.6,0.2,1,0.6,1,1.3c0,0.8-0.7,1.4-1.8,1.4c-0.7,0-1.3-0.3-1.8-0.7L36.9,79.4z"/>
		<path class="st25" d="M41,79.4c0.3,0.3,0.8,0.5,1.3,0.5s0.8-0.2,0.8-0.6s-0.3-0.5-0.7-0.7l-0.7-0.3c-0.5-0.2-1-0.6-1-1.3
			c0-0.8,0.7-1.4,1.7-1.4c0.6,0,1.1,0.2,1.6,0.6l-0.4,0.5c-0.3-0.3-0.6-0.4-1.1-0.4s-0.8,0.2-0.8,0.6c0,0.4,0.4,0.5,0.8,0.7l0.7,0.3
			c0.6,0.2,1,0.6,1,1.3c0,0.8-0.7,1.4-1.8,1.4c-0.7,0-1.3-0.3-1.8-0.7L41,79.4z"/>
		<path class="st25" d="M44.7,78.1c0-1.7,0.9-2.6,2.2-2.6c1.3,0,2.2,0.9,2.2,2.6c0,1.7-0.9,2.6-2.2,2.6S44.7,79.8,44.7,78.1z
			 M48.2,78.1c0-1.1-0.5-1.8-1.3-1.8c-0.8,0-1.3,0.7-1.3,1.8c0,1.1,0.5,1.9,1.3,1.9C47.7,80,48.2,79.2,48.2,78.1z"/>
		<path class="st25" d="M52.3,75.5c0.6,0,1.1,0.3,1.4,0.6l-0.5,0.5c-0.2-0.2-0.5-0.4-0.9-0.4c-0.8,0-1.4,0.7-1.4,1.9
			c0,1.1,0.5,1.9,1.3,1.9c0.4,0,0.7-0.2,1-0.5l0.5,0.5c-0.4,0.5-0.9,0.7-1.6,0.7c-1.2,0-2.3-0.9-2.3-2.6
			C49.9,76.5,50.9,75.5,52.3,75.5z"/>
		<path class="st25" d="M54.5,75.6h0.9v5h-0.9V75.6z"/>
		<path class="st25" d="M59.1,79.2h-1.7L57,80.6h-0.9l1.7-5h1l1.7,5h-0.9L59.1,79.2z M58.9,78.6L58.7,78c-0.2-0.5-0.3-1.1-0.4-1.7
			l0,0c-0.1,0.5-0.3,1.1-0.4,1.7l-0.2,0.6H58.9z"/>
		<path class="st25" d="M61.7,76.3h-1.4v-0.7h3.8v0.7h-1.4v4.2h-0.9C61.7,80.6,61.7,76.3,61.7,76.3z"/>
		<path class="st25" d="M64.9,75.6h3v0.7h-2.2v1.2h1.9v0.7h-1.8v1.4H68v0.7h-3.1V75.6z"/>
	</g>
</g>
</svg>
