<?xml version="1.0" encoding="utf-8"?>
<!-- Generator: Adobe Illustrator 25.0.0, SVG Export Plug-In . SVG Version: 6.00 Build 0)  -->
<svg version="1.1" id="Layer_1" xmlns="http://www.w3.org/2000/svg" xmlns:xlink="http://www.w3.org/1999/xlink" x="0px" y="0px"
	 viewBox="0 0 100 100" style="enable-background:new 0 0 100 100;" xml:space="preserve">
<style type="text/css">
	.st0{fill:url(#SVGID_1_);}
	.st1{fill:#EDEDEE;}
	.st2{fill:url(#SVGID_2_);}
	.st3{fill:url(#SVGID_3_);}
	.st4{fill:url(#SVGID_4_);}
	.st5{fill:url(#SVGID_5_);}
	.st6{fill:url(#SVGID_6_);}
	.st7{fill:url(#SVGID_7_);}
	.st8{fill:url(#SVGID_8_);}
	.st9{fill:url(#SVGID_9_);}
	.st10{fill:url(#SVGID_10_);}
	.st11{fill:url(#SVGID_11_);}
	.st12{fill:url(#SVGID_12_);}
	.st13{fill:url(#SVGID_13_);}
	.st14{fill:url(#SVGID_14_);}
	.st15{fill:url(#SVGID_15_);}
	.st16{fill:url(#SVGID_16_);}
	.st17{fill:url(#SVGID_17_);}
	.st18{fill:url(#SVGID_18_);}
	.st19{fill:url(#SVGID_19_);}
	.st20{fill:url(#SVGID_20_);}
	.st21{fill:url(#SVGID_21_);}
	.st22{fill:url(#SVGID_22_);}
	.st23{fill:url(#SVGID_23_);}
	.st24{fill:#022B45;}
	.st25{fill:#FFFFFF;}
	.st26{filter:url(#Adobe_OpacityMaskFilter);}
	.st27{filter:url(#Adobe_OpacityMaskFilter_1_);}
	.st28{mask:url(#SVGID_24_);fill:url(#SVGID_25_);}
	.st29{opacity:0.33;fill:url(#SVGID_26_);}
	.st30{fill:url(#SVGID_27_);}
	.st31{fill:url(#SVGID_28_);}
	.st32{fill:url(#SVGID_29_);}
	.st33{fill:url(#SVGID_30_);}
	.st34{fill:url(#SVGID_31_);}
	.st35{fill:url(#SVGID_32_);}
	.st36{fill:url(#SVGID_33_);}
	.st37{fill:url(#SVGID_34_);}
	.st38{fill:url(#SVGID_35_);}
	.st39{fill:url(#SVGID_36_);}
	.st40{fill:url(#SVGID_37_);}
	.st41{fill:url(#SVGID_38_);}
	.st42{fill:url(#SVGID_39_);}
	.st43{fill:url(#SVGID_40_);}
	.st44{fill:url(#SVGID_41_);}
	.st45{fill:url(#SVGID_42_);}
	.st46{fill:url(#SVGID_43_);}
	.st47{fill:url(#SVGID_44_);}
	.st48{fill:url(#SVGID_45_);}
	.st49{fill:url(#SVGID_46_);}
	.st50{fill:url(#SVGID_47_);}
	.st51{fill:url(#SVGID_48_);}
	.st52{fill:url(#SVGID_49_);}
	.st53{fill:url(#SVGID_50_);}
	.st54{fill:url(#SVGID_51_);}
	.st55{fill:url(#SVGID_52_);}
	.st56{fill:url(#SVGID_53_);}
	.st57{fill:url(#SVGID_54_);}
	.st58{fill:url(#SVGID_55_);}
	.st59{fill:url(#SVGID_56_);}
	.st60{fill:url(#SVGID_57_);}
	.st61{fill:url(#SVGID_58_);}
	.st62{fill:url(#SVGID_59_);}
	.st63{fill:url(#SVGID_60_);}
	.st64{fill:url(#SVGID_61_);}
	.st65{fill:url(#SVGID_62_);}
	.st66{fill:url(#SVGID_63_);}
	.st67{fill:url(#SVGID_64_);}
	.st68{fill:url(#SVGID_65_);}
	.st69{fill:url(#SVGID_66_);}
	.st70{fill:url(#SVGID_67_);}
	.st71{fill:url(#SVGID_68_);}
	.st72{fill:url(#SVGID_69_);}
	.st73{fill:url(#SVGID_70_);}
	.st74{fill:url(#SVGID_71_);}
	.st75{fill:url(#SVGID_72_);}
	.st76{fill:url(#SVGID_73_);}
	.st77{fill:url(#SVGID_74_);}
	.st78{fill:url(#SVGID_75_);}
	.st79{fill:url(#SVGID_76_);}
	.st80{fill:url(#SVGID_77_);}
	.st81{fill:url(#SVGID_78_);}
	.st82{fill:url(#SVGID_79_);}
	.st83{fill:url(#SVGID_80_);}
	.st84{fill:url(#SVGID_81_);}
	.st85{fill:url(#SVGID_82_);}
	.st86{fill:url(#SVGID_83_);}
	.st87{fill:url(#SVGID_84_);}
	.st88{fill:url(#SVGID_85_);}
	.st89{fill:url(#SVGID_86_);}
	.st90{fill:url(#SVGID_87_);}
	.st91{fill:url(#SVGID_88_);}
	.st92{fill:url(#SVGID_89_);}
	.st93{fill:url(#SVGID_90_);}
	.st94{fill:url(#SVGID_91_);}
	.st95{fill:url(#SVGID_92_);}
	.st96{fill:url(#SVGID_93_);}
	.st97{fill:url(#SVGID_94_);}
	.st98{fill:url(#SVGID_95_);}
	.st99{fill:url(#SVGID_96_);}
	.st100{fill:url(#SVGID_97_);}
	.st101{fill:url(#SVGID_98_);}
	.st102{fill-rule:evenodd;clip-rule:evenodd;fill:url(#SVGID_99_);}
	.st103{fill-rule:evenodd;clip-rule:evenodd;fill:url(#SVGID_100_);}
	.st104{fill-rule:evenodd;clip-rule:evenodd;fill:url(#SVGID_101_);}
	.st105{fill-rule:evenodd;clip-rule:evenodd;fill:url(#SVGID_102_);}
	.st106{fill-rule:evenodd;clip-rule:evenodd;fill:url(#SVGID_103_);}
	.st107{fill-rule:evenodd;clip-rule:evenodd;fill:url(#SVGID_104_);}
	.st108{fill:url(#SVGID_105_);}
	.st109{fill:url(#SVGID_106_);}
	.st110{fill:url(#SVGID_107_);}
	.st111{fill-rule:evenodd;clip-rule:evenodd;fill:url(#SVGID_108_);}
	.st112{fill-rule:evenodd;clip-rule:evenodd;fill:url(#SVGID_109_);}
</style>
<g>
	<radialGradient id="SVGID_1_" cx="50.0835" cy="34.9571" r="37.0727" gradientUnits="userSpaceOnUse">
		<stop  offset="3.067480e-02" style="stop-color:#4A95D0"/>
		<stop  offset="1" style="stop-color:#005183"/>
	</radialGradient>
	<path class="st0" d="M76.8,67.5H23.4c-3,0-5.4-2.4-5.4-5.4L9,7.8c0-3,2.4-5.4,5.4-5.4h71.4c3,0,5.4,2.4,5.4,5.4l-9,54.2
		C82.2,65.1,79.7,67.5,76.8,67.5z"/>
	<g>
		<g>
			<path class="st1" d="M26.3,7.1h-1.8V5.9h5.2v1.2h-1.8v5.2h-1.5V7.1z"/>
			<path class="st1" d="M30.7,5.9h4.2v1.2h-2.7v1.3h2.3v1.2h-2.3v1.5H35v1.2h-4.3V5.9z"/>
			<path class="st1" d="M39.2,5.8c0.8,0,1.5,0.4,2,0.8l-0.8,0.9C40,7.2,39.7,7,39.2,7c-0.9,0-1.7,0.8-1.7,2.1c0,1.3,0.6,2.1,1.6,2.1
				c0.5,0,0.9-0.2,1.3-0.6l0.8,0.9c-0.6,0.6-1.3,1-2.1,1c-1.7,0-3.2-1.1-3.2-3.3C36,7,37.5,5.8,39.2,5.8z"/>
			<path class="st1" d="M42.3,5.9h1.5v2.5h2.3V5.9h1.5v6.5h-1.5V9.6h-2.3v2.7h-1.5V5.9z"/>
			<path class="st1" d="M49.2,5.9h1.6l1.7,3.2l0.7,1.4h0C53.2,9.8,53,8.9,53,8.2V5.9h1.4v6.5h-1.6l-1.7-3.2l-0.7-1.4h0
				c0.1,0.7,0.2,1.6,0.2,2.3v2.3h-1.4V5.9z"/>
			<path class="st1" d="M56.1,5.9h1.5v6.5h-1.5V5.9z"/>
			<path class="st1" d="M62,5.8c0.8,0,1.5,0.4,2,0.8l-0.8,0.9C62.8,7.2,62.5,7,62.1,7c-0.9,0-1.7,0.8-1.7,2.1c0,1.3,0.6,2.1,1.6,2.1
				c0.5,0,0.9-0.2,1.3-0.6l0.8,0.9c-0.6,0.6-1.3,1-2.1,1c-1.7,0-3.2-1.1-3.2-3.3C58.8,7,60.3,5.8,62,5.8z"/>
			<path class="st1" d="M68.3,10.8h-2l-0.4,1.5h-1.5l2.1-6.5h1.8l2.1,6.5h-1.6L68.3,10.8z M68,9.7l-0.2-0.6
				c-0.2-0.6-0.4-1.4-0.5-2.1h0c-0.2,0.7-0.3,1.4-0.5,2.1l-0.2,0.6H68z"/>
			<path class="st1" d="M71,5.9h1.5v5.2h2.6v1.2H71V5.9z"/>
		</g>
	</g>
	<g>
		<linearGradient id="SVGID_2_" gradientUnits="userSpaceOnUse" x1="6.2907" y1="70.9026" x2="19.1451" y2="70.9026">
			<stop  offset="0" style="stop-color:#0E4066"/>
			<stop  offset="1" style="stop-color:#00609D"/>
		</linearGradient>
		<path class="st2" d="M6.3,62.3c0,0,0.4,0.2,1,0.5c1.9,0.8,8.7,2,11.8,0v16c0,0-8.4,2-12.9-1c0,0,3.1-3.1,4.3-6.6
			C10.6,71.2,9.4,69.3,6.3,62.3z"/>
		<g>
			<g>
				<radialGradient id="SVGID_3_" cx="13.3663" cy="74.9471" r="21.7633" gradientUnits="userSpaceOnUse">
					<stop  offset="0" style="stop-color:#D4EFFC"/>
					<stop  offset="1" style="stop-color:#6FBCE9"/>
				</radialGradient>
				<path class="st3" d="M8.5,77.8c-0.1,0-0.3-0.1-0.4-0.1l-0.3-0.1l0.2-0.2c0.1-0.1,0.2-0.2,0.3-0.3l0.3,0.3c0,0-0.1,0.1-0.1,0.1
					c0,0,0.1,0,0.1,0L8.5,77.8z"/>
			</g>
			<g>
				<radialGradient id="SVGID_4_" cx="13.3667" cy="74.9454" r="21.77" gradientUnits="userSpaceOnUse">
					<stop  offset="0" style="stop-color:#D4EFFC"/>
					<stop  offset="1" style="stop-color:#6FBCE9"/>
				</radialGradient>
				<path class="st4" d="M9.1,76.7l-0.3-0.2c0.1-0.2,0.3-0.4,0.4-0.6l0.3,0.2C9.4,76.3,9.2,76.5,9.1,76.7z M9.9,75.5l-0.3-0.2
					c0.1-0.2,0.3-0.4,0.4-0.6l0.3,0.2C10.2,75.1,10.1,75.3,9.9,75.5z M10.7,74.2L10.4,74c0.1-0.2,0.2-0.4,0.3-0.6l0.4,0.2
					C11,73.8,10.9,74,10.7,74.2z M11.4,72.9L11,72.7c0.1-0.2,0.2-0.4,0.3-0.7l0.4,0.1C11.6,72.4,11.5,72.6,11.4,72.9z"/>
			</g>
			<g>
				<radialGradient id="SVGID_5_" cx="13.3665" cy="74.9459" r="21.7729" gradientUnits="userSpaceOnUse">
					<stop  offset="0" style="stop-color:#D4EFFC"/>
					<stop  offset="1" style="stop-color:#6FBCE9"/>
				</radialGradient>
				<polygon class="st5" points="12,71.5 11.6,71.3 11.7,71 11.5,70.8 11.9,70.6 12.1,71 				"/>
			</g>
			<g>
				<radialGradient id="SVGID_6_" cx="13.3667" cy="74.944" r="21.7663" gradientUnits="userSpaceOnUse">
					<stop  offset="0" style="stop-color:#D4EFFC"/>
					<stop  offset="1" style="stop-color:#6FBCE9"/>
				</radialGradient>
				<path class="st6" d="M11.1,70.1c-0.1-0.2-0.2-0.4-0.3-0.6l0.4-0.2c0.1,0.3,0.3,0.5,0.3,0.6L11.1,70.1z M10.5,68.8
					c-0.1-0.2-0.2-0.4-0.3-0.7l0.4-0.2c0.1,0.2,0.2,0.5,0.3,0.7L10.5,68.8z M9.8,67.5c-0.1-0.2-0.2-0.4-0.3-0.7l0.4-0.2
					c0.1,0.2,0.2,0.5,0.3,0.7L9.8,67.5z M9.2,66.2C9.1,66,9,65.8,8.9,65.5l0.4-0.2c0.1,0.2,0.2,0.5,0.3,0.7L9.2,66.2z"/>
			</g>
			<g>
				<radialGradient id="SVGID_7_" cx="13.3668" cy="74.9358" r="21.7529" gradientUnits="userSpaceOnUse">
					<stop  offset="0" style="stop-color:#D4EFFC"/>
					<stop  offset="1" style="stop-color:#6FBCE9"/>
				</radialGradient>
				<path class="st7" d="M8.5,64.9l-0.3-0.7l0.4,0.1c0.1,0,0.3,0.1,0.4,0.1l-0.1,0.4l0,0l0,0c0,0,0,0,0,0L8.5,64.9z"/>
			</g>
			<g>
				<radialGradient id="SVGID_8_" cx="13.3663" cy="74.9399" r="21.7589" gradientUnits="userSpaceOnUse">
					<stop  offset="0" style="stop-color:#D4EFFC"/>
					<stop  offset="1" style="stop-color:#6FBCE9"/>
				</radialGradient>
				<path class="st8" d="M14.4,65.3l0-0.4c0.3,0,0.5,0,0.8,0l0,0.4C15,65.3,14.7,65.3,14.4,65.3z M13.6,65.3c-0.3,0-0.5,0-0.8,0
					l0-0.4c0.3,0,0.5,0,0.8,0L13.6,65.3z M16,65.2l0-0.4c0.3,0,0.5-0.1,0.8-0.1l0.1,0.4C16.6,65.2,16.3,65.2,16,65.2z M12,65.2
					c-0.3,0-0.5-0.1-0.8-0.1l0.1-0.4c0.3,0,0.5,0.1,0.8,0.1L12,65.2z M10.5,65c-0.3,0-0.5-0.1-0.8-0.1l0.1-0.4
					c0.2,0,0.5,0.1,0.8,0.1L10.5,65z"/>
			</g>
			<g>
				<radialGradient id="SVGID_9_" cx="13.3668" cy="74.9446" r="21.7684" gradientUnits="userSpaceOnUse">
					<stop  offset="0" style="stop-color:#D4EFFC"/>
					<stop  offset="1" style="stop-color:#6FBCE9"/>
				</radialGradient>
				<path class="st9" d="M18.1,65h-0.4v-0.1c0,0-0.1,0-0.1,0l-0.1-0.4c0.1,0,0.3-0.1,0.4-0.1l0.3-0.1V65z"/>
			</g>
			<g>
				<radialGradient id="SVGID_10_" cx="13.3665" cy="74.9454" r="21.7689" gradientUnits="userSpaceOnUse">
					<stop  offset="0" style="stop-color:#D4EFFC"/>
					<stop  offset="1" style="stop-color:#6FBCE9"/>
				</radialGradient>
				<path class="st10" d="M18.1,76.6h-0.4v-0.8h0.4V76.6z M18.1,74.9h-0.4v-0.8h0.4V74.9z M18.1,73.3h-0.4v-0.8h0.4V73.3z
					 M18.1,71.6h-0.4v-0.8h0.4V71.6z M18.1,70h-0.4v-0.8h0.4V70z M18.1,68.3h-0.4v-0.8h0.4V68.3z M18.1,66.7h-0.4v-0.8h0.4V66.7z"/>
			</g>
			<g>
				<radialGradient id="SVGID_11_" cx="13.3668" cy="74.9459" r="21.7657" gradientUnits="userSpaceOnUse">
					<stop  offset="0" style="stop-color:#D4EFFC"/>
					<stop  offset="1" style="stop-color:#6FBCE9"/>
				</radialGradient>
				<path class="st11" d="M17.6,78.1l-0.1-0.4c0.1,0,0.2,0,0.2,0v-0.2h0.4V78L18,78C17.9,78,17.7,78.1,17.6,78.1z"/>
			</g>
			<g>
				<radialGradient id="SVGID_12_" cx="13.3663" cy="74.9447" r="21.7696" gradientUnits="userSpaceOnUse">
					<stop  offset="0" style="stop-color:#D4EFFC"/>
					<stop  offset="1" style="stop-color:#6FBCE9"/>
				</radialGradient>
				<path class="st12" d="M13.2,78.5c-0.2,0-0.4,0-0.6,0l0-0.4c0.2,0,0.4,0,0.6,0l0.2,0l0,0.4L13.2,78.5z M14.3,78.4l0-0.4
					c0.3,0,0.6,0,0.8-0.1l0,0.4C14.8,78.4,14.6,78.4,14.3,78.4z M11.8,78.4c-0.3,0-0.6,0-0.8-0.1l0-0.4c0.3,0,0.5,0.1,0.8,0.1
					L11.8,78.4z M15.9,78.3l0-0.4c0.3,0,0.6-0.1,0.8-0.1l0.1,0.4C16.5,78.2,16.2,78.3,15.9,78.3z M10.1,78.2
					c-0.3-0.1-0.6-0.1-0.8-0.2l0.1-0.4c0.2,0.1,0.5,0.1,0.8,0.2L10.1,78.2z"/>
			</g>
		</g>
	</g>
	<g>
		
			<linearGradient id="SVGID_13_" gradientUnits="userSpaceOnUse" x1="1033.6207" y1="70.9026" x2="1046.4766" y2="70.9026" gradientTransform="matrix(-1 0 0 1 1127.3301 0)">
			<stop  offset="0" style="stop-color:#0E4066"/>
			<stop  offset="1" style="stop-color:#00609D"/>
		</linearGradient>
		<path class="st13" d="M93.7,62.3c0,0-0.4,0.2-1,0.5c-1.9,0.8-8.7,2-11.8,0v16c0,0,8.4,2,12.9-1c0,0-3.1-3.1-4.3-6.6
			C89.4,71.2,90.6,69.3,93.7,62.3z"/>
		<g>
			<g>
				<radialGradient id="SVGID_14_" cx="94.1101" cy="73.8954" r="13.2651" gradientUnits="userSpaceOnUse">
					<stop  offset="0" style="stop-color:#D4EFFC"/>
					<stop  offset="1" style="stop-color:#6FBCE9"/>
				</radialGradient>
				<path class="st14" d="M91.5,77.8c0.1,0,0.3-0.1,0.4-0.1l0.3-0.1l-0.2-0.2c-0.1-0.1-0.2-0.2-0.3-0.3l-0.3,0.3
					c0,0,0.1,0.1,0.1,0.1c0,0-0.1,0-0.1,0L91.5,77.8z"/>
			</g>
			<g>
				<radialGradient id="SVGID_15_" cx="94.1097" cy="73.8928" r="13.2735" gradientUnits="userSpaceOnUse">
					<stop  offset="0" style="stop-color:#D4EFFC"/>
					<stop  offset="1" style="stop-color:#6FBCE9"/>
				</radialGradient>
				<path class="st15" d="M90.5,76.1l0.3-0.2c0.1,0.2,0.3,0.4,0.4,0.6l-0.3,0.2C90.8,76.5,90.6,76.3,90.5,76.1z M89.6,74.8l0.3-0.2
					c0.1,0.2,0.3,0.4,0.4,0.6l-0.3,0.2C89.9,75.3,89.8,75.1,89.6,74.8z M88.9,73.5l0.4-0.2c0.1,0.2,0.2,0.4,0.3,0.6l-0.3,0.2
					C89.1,74,89,73.8,88.9,73.5z M88.3,72.2l0.4-0.1c0.1,0.2,0.2,0.5,0.3,0.7l-0.4,0.2C88.5,72.6,88.4,72.4,88.3,72.2z"/>
			</g>
			<g>
				<radialGradient id="SVGID_16_" cx="94.1097" cy="73.893" r="13.2739" gradientUnits="userSpaceOnUse">
					<stop  offset="0" style="stop-color:#D4EFFC"/>
					<stop  offset="1" style="stop-color:#6FBCE9"/>
				</radialGradient>
				<polygon class="st16" points="88,71.5 88.4,71.3 88.3,71 88.5,70.8 88.1,70.6 87.9,71 				"/>
			</g>
			<g>
				<radialGradient id="SVGID_17_" cx="94.1099" cy="73.8915" r="13.2722" gradientUnits="userSpaceOnUse">
					<stop  offset="0" style="stop-color:#D4EFFC"/>
					<stop  offset="1" style="stop-color:#6FBCE9"/>
				</radialGradient>
				<path class="st17" d="M88.5,70c0.1-0.2,0.2-0.4,0.3-0.6l0.4,0.2c-0.1,0.3-0.3,0.5-0.3,0.6L88.5,70z M89.2,68.7
					c0.1-0.2,0.2-0.4,0.3-0.7l0.4,0.2c-0.1,0.2-0.2,0.5-0.3,0.7L89.2,68.7z M89.8,67.4c0.1-0.2,0.2-0.4,0.3-0.7l0.4,0.2
					c-0.1,0.2-0.2,0.5-0.3,0.7L89.8,67.4z M90.5,66c0.1-0.2,0.2-0.4,0.3-0.7l0.4,0.2c-0.1,0.2-0.2,0.5-0.3,0.7L90.5,66z"/>
			</g>
			<g>
				<radialGradient id="SVGID_18_" cx="94.1096" cy="73.8842" r="13.2624" gradientUnits="userSpaceOnUse">
					<stop  offset="0" style="stop-color:#D4EFFC"/>
					<stop  offset="1" style="stop-color:#6FBCE9"/>
				</radialGradient>
				<path class="st18" d="M91.5,64.9l0.3-0.7l-0.4,0.1c-0.1,0-0.3,0.1-0.4,0.1l0.1,0.4l0,0l0,0c0,0,0,0,0,0L91.5,64.9z"/>
			</g>
			<g>
				<radialGradient id="SVGID_19_" cx="94.1096" cy="73.8878" r="13.2642" gradientUnits="userSpaceOnUse">
					<stop  offset="0" style="stop-color:#D4EFFC"/>
					<stop  offset="1" style="stop-color:#6FBCE9"/>
				</radialGradient>
				<path class="st19" d="M84.8,65.3l0-0.4c0.3,0,0.5,0,0.8,0l0,0.4C85.3,65.3,85,65.3,84.8,65.3z M86.4,64.9c0.3,0,0.5,0,0.8,0
					l0,0.4c-0.3,0-0.5,0-0.8,0L86.4,64.9z M83.2,65.1l0.1-0.4c0.2,0,0.5,0.1,0.8,0.1l0,0.4C83.7,65.2,83.4,65.2,83.2,65.1z
					 M87.9,64.8c0.3,0,0.5-0.1,0.8-0.1l0.1,0.4c-0.3,0-0.5,0.1-0.8,0.1L87.9,64.8z M89.5,64.6c0.3,0,0.5-0.1,0.8-0.1l0.1,0.4
					c-0.3,0-0.5,0.1-0.8,0.1L89.5,64.6z"/>
			</g>
			<g>
				<radialGradient id="SVGID_20_" cx="94.1093" cy="73.892" r="13.2731" gradientUnits="userSpaceOnUse">
					<stop  offset="0" style="stop-color:#D4EFFC"/>
					<stop  offset="1" style="stop-color:#6FBCE9"/>
				</radialGradient>
				<path class="st20" d="M81.9,65h0.4v-0.1c0,0,0.1,0,0.1,0l0.1-0.4c-0.1,0-0.3-0.1-0.4-0.1l-0.3-0.1V65z"/>
			</g>
			<g>
				<radialGradient id="SVGID_21_" cx="94.1094" cy="73.8928" r="13.2732" gradientUnits="userSpaceOnUse">
					<stop  offset="0" style="stop-color:#D4EFFC"/>
					<stop  offset="1" style="stop-color:#6FBCE9"/>
				</radialGradient>
				<path class="st21" d="M81.9,75.8h0.4v0.8h-0.4V75.8z M81.9,74.1h0.4v0.8h-0.4V74.1z M81.9,72.5h0.4v0.8h-0.4V72.5z M81.9,70.8
					h0.4v0.8h-0.4V70.8z M81.9,69.2h0.4V70h-0.4V69.2z M81.9,67.5h0.4v0.8h-0.4V67.5z M81.9,65.9h0.4v0.8h-0.4V65.9z"/>
			</g>
			<g>
				<radialGradient id="SVGID_22_" cx="94.1091" cy="73.8937" r="13.2722" gradientUnits="userSpaceOnUse">
					<stop  offset="0" style="stop-color:#D4EFFC"/>
					<stop  offset="1" style="stop-color:#6FBCE9"/>
				</radialGradient>
				<path class="st22" d="M82.4,78.1l0.1-0.4c-0.1,0-0.2,0-0.2,0v-0.2h-0.4V78l0.2,0C82.1,78,82.3,78.1,82.4,78.1z"/>
			</g>
			<g>
				<radialGradient id="SVGID_23_" cx="94.1096" cy="73.8922" r="13.2732" gradientUnits="userSpaceOnUse">
					<stop  offset="0" style="stop-color:#D4EFFC"/>
					<stop  offset="1" style="stop-color:#6FBCE9"/>
				</radialGradient>
				<path class="st23" d="M86.5,78.5l0-0.4l0.2,0c0.2,0,0.4,0,0.6,0l0,0.4c-0.2,0-0.4,0-0.6,0L86.5,78.5z M84.9,78.4l0-0.4
					c0.3,0,0.5,0,0.8,0.1l0,0.4C85.4,78.4,85.2,78.4,84.9,78.4z M88.2,78c0.3,0,0.5,0,0.8-0.1l0,0.4c-0.3,0-0.5,0.1-0.8,0.1L88.2,78
					z M83.2,78.2l0.1-0.4c0.3,0,0.5,0.1,0.8,0.1l0,0.4C83.8,78.3,83.5,78.2,83.2,78.2z M89.8,77.8c0.3,0,0.5-0.1,0.8-0.2l0.1,0.4
					c-0.3,0.1-0.5,0.1-0.8,0.2L89.8,77.8z"/>
			</g>
		</g>
	</g>
	<path class="st24" d="M47.7,97.6c-0.4,0-0.7,0-1.1-0.1c-2-0.2-3.7-0.9-5.1-2.2c-0.3-0.3-0.6-0.5-1.1-0.7c-0.3-0.1-0.5-0.1-0.8-0.2
		c-0.2,0-0.3,0-0.5,0c-0.3,0-0.6,0-0.8,0.1c-0.6,0.1-1.2,0.2-1.8,0.2c-1.3,0-2.5-0.3-3.8-0.9c-1.8-0.8-3.2-2.1-4-3.9
		c-0.2-0.3-0.4-0.7-0.8-1.1c-0.2-0.1-0.4-0.3-0.6-0.4c-0.5-0.2-0.9-0.4-1.3-0.4c-1.9-0.3-3.6-1.1-5-2.6c-1.4-1.4-2.3-3.1-2.5-5
		c0-0.4-0.2-0.8-0.4-1.2c-0.2-0.2-0.3-0.5-0.5-0.7c-0.4-0.3-0.7-0.6-1-0.8c-1.7-0.9-3-2.3-3.8-4.1c-0.9-1.8-1.1-3.6-0.6-5.5
		c0.1-0.4,0.1-0.8,0.1-1.3c0-0.1-0.2-0.6-0.2-0.7c-0.2-0.5-0.5-0.9-0.7-1.1c-1.3-1.5-2-3.1-2.1-5.2c-0.2-2,0.2-3.8,1.3-5.4
		c0.2-0.3,0.4-0.7,0.5-1.2c0-0.3,0.1-0.6,0.1-0.8c0-0.5-0.1-0.9-0.3-1.3c-0.7-1.8-0.8-3.6-0.2-5.6c0.5-2,1.5-3.5,3.1-4.7
		c0.3-0.2,0.6-0.6,0.9-1c0.1-0.2,0.2-0.4,0.3-0.7c0.1-0.5,0.2-1,0.2-1.3c-0.1-2,0.5-3.7,1.7-5.4c1.1-1.7,2.6-2.7,4.5-3.3
		c0.4-0.1,0.7-0.3,1.2-0.6c0.2-0.2,0.4-0.4,0.6-0.6c0.3-0.4,0.5-0.8,0.6-1.2c0.6-1.9,1.7-3.3,3.4-4.4c1.5-1.1,3.1-1.6,4.9-1.6
		c0.2,0,0.3,0,0.5,0c0.1,0,0.1,0,0.2,0c0.3,0,0.7-0.1,1.1-0.2c0.2-0.1,0.5-0.2,0.7-0.3c0.4-0.3,0.7-0.6,1-0.9c1.2-1.5,2.8-2.5,4.7-3
		c0.8-0.2,1.6-0.3,2.3-0.3c1.1,0,2.2,0.2,3.2,0.7c0.3,0.1,0.8,0.3,1.3,0.3c0.3,0,0.5,0,0.8-0.1c0.5-0.1,0.9-0.3,1.2-0.5
		c1.3-0.8,2.8-1.3,4.4-1.3c0.4,0,0.7,0,1.1,0.1c2,0.2,3.7,0.9,5.1,2.2c0.3,0.3,0.6,0.5,1.1,0.7c0.3,0.1,0.5,0.1,0.8,0.2
		c0.2,0,0.3,0,0.5,0c0.3,0,0.6,0,0.8-0.1c0.6-0.1,1.2-0.2,1.8-0.2c1.3,0,2.5,0.3,3.8,0.9c1.8,0.8,3.2,2.1,4,3.8
		c0.2,0.3,0.4,0.7,0.8,1.1c0.2,0.1,0.4,0.3,0.6,0.4c0.5,0.2,0.9,0.4,1.3,0.4c1.9,0.3,3.6,1.1,5,2.6c1.4,1.4,2.3,3.1,2.5,5
		c0,0.4,0.2,0.8,0.4,1.2c0.2,0.2,0.3,0.5,0.5,0.7c0.4,0.3,0.7,0.6,1,0.8c1.7,0.9,3,2.3,3.8,4.1c0.9,1.8,1.1,3.6,0.6,5.5
		c-0.1,0.4-0.1,0.8-0.1,1.3c0,0.1,0.2,0.6,0.2,0.7c0.2,0.5,0.5,0.9,0.7,1.1c1.3,1.4,2,3.1,2.1,5.2c0.2,2-0.2,3.8-1.3,5.4
		c-0.2,0.3-0.4,0.7-0.5,1.2c0,0.3,0,0.6-0.1,0.8c0.1,0.5,0.1,0.9,0.3,1.3c0.7,1.8,0.8,3.6,0.2,5.6c-0.5,2-1.5,3.5-3.1,4.7
		c-0.3,0.2-0.6,0.6-0.9,1c-0.1,0.2-0.2,0.4-0.3,0.7c-0.1,0.5-0.2,1-0.2,1.3c0.1,2-0.5,3.7-1.7,5.4c-1.1,1.7-2.6,2.7-4.5,3.3
		c-0.4,0.1-0.7,0.3-1.2,0.6c-0.2,0.2-0.4,0.4-0.6,0.6c-0.3,0.4-0.5,0.8-0.6,1.2c-0.6,1.9-1.7,3.3-3.4,4.5C72.6,91.5,71,92,69.2,92
		l0,0c-0.2,0-0.3,0-0.5,0c-0.1,0-0.1,0-0.2,0c-0.3,0-0.7,0.1-1.1,0.2c-0.2,0.1-0.5,0.2-0.7,0.3c-0.4,0.3-0.7,0.6-1,0.9
		c-1.2,1.5-2.8,2.5-4.7,3c-0.8,0.2-1.6,0.3-2.3,0.3c-1.1,0-2.2-0.2-3.2-0.7c-0.3-0.1-0.8-0.3-1.3-0.3c-0.3,0-0.5,0-0.8,0.1
		c-0.5,0.1-0.9,0.3-1.2,0.5C50.8,97.1,49.3,97.6,47.7,97.6z"/>
	<path class="st25" d="M41.6,22.3c-18.8,4.9-30.1,24-25.3,42.8c4.9,18.8,24,30.1,42.8,25.3c18.8-4.9,30.1-24,25.3-42.8
		C79.6,28.8,60.4,17.5,41.6,22.3z M59,89.8C40.5,94.6,21.7,83.5,16.9,65c-4.8-18.5,6.3-37.4,24.8-42.1c18.5-4.8,37.4,6.3,42.1,24.8
		C88.7,66.2,77.5,85.1,59,89.8z"/>
	<defs>
		<filter id="Adobe_OpacityMaskFilter" filterUnits="userSpaceOnUse" x="24.8" y="21.4" width="61" height="68.9">
			<feFlood  style="flood-color:white;flood-opacity:1" result="back"/>
			<feBlend  in="SourceGraphic" in2="back" mode="normal"/>
		</filter>
	</defs>
	<mask maskUnits="userSpaceOnUse" x="24.8" y="21.4" width="61" height="68.9" id="SVGID_24_">
		<g class="st26">
			<defs>
				<filter id="Adobe_OpacityMaskFilter_1_" filterUnits="userSpaceOnUse" x="24.8" y="21.4" width="61" height="68.9">
					<feFlood  style="flood-color:white;flood-opacity:1" result="back"/>
					<feBlend  in="SourceGraphic" in2="back" mode="normal"/>
				</filter>
			</defs>
			<mask maskUnits="userSpaceOnUse" x="24.8" y="21.4" width="61" height="68.9" id="SVGID_24_">
				<g class="st27">
				</g>
			</mask>
			
				<linearGradient id="SVGID_25_" gradientUnits="userSpaceOnUse" x1="77.4629" y1="14.9959" x2="116.0051" y2="87.9597" gradientTransform="matrix(-0.1344 1.1462 -1.1893 -0.1394 126.104 -47.6304)">
				<stop  offset="0" style="stop-color:#FFFFFF"/>
				<stop  offset="5.383337e-02" style="stop-color:#E0E0E0"/>
				<stop  offset="0.1552" style="stop-color:#ACACAC"/>
				<stop  offset="0.2611" style="stop-color:#7E7E7E"/>
				<stop  offset="0.3694" style="stop-color:#575757"/>
				<stop  offset="0.4805" style="stop-color:#383838"/>
				<stop  offset="0.5954" style="stop-color:#1F1F1F"/>
				<stop  offset="0.7159" style="stop-color:#0E0E0E"/>
				<stop  offset="0.8453" style="stop-color:#030303"/>
				<stop  offset="1" style="stop-color:#000000"/>
			</linearGradient>
			<path class="st28" d="M37.2,32.8C56.2,35,69.8,52.4,67.6,71.6c-0.8,7.2-3.8,13.6-8.2,18.7c13.6-3.4,24.4-15,26.2-29.9
				c2.2-19.2-11.4-36.5-30.4-38.8c-11.9-1.4-23.1,3.4-30.4,11.9C28.7,32.6,32.9,32.3,37.2,32.8z"/>
		</g>
	</mask>
	
		<linearGradient id="SVGID_26_" gradientUnits="userSpaceOnUse" x1="77.4629" y1="14.9959" x2="116.0051" y2="87.9597" gradientTransform="matrix(-0.1344 1.1462 -1.1893 -0.1394 126.104 -47.6304)">
		<stop  offset="0" style="stop-color:#F5F5F5"/>
		<stop  offset="7.761335e-02" style="stop-color:#F5F5F5"/>
		<stop  offset="1" style="stop-color:#F5F5F5"/>
	</linearGradient>
	<path class="st29" d="M37.2,32.8C56.2,35,69.8,52.4,67.6,71.6c-0.8,7.2-3.8,13.6-8.2,18.7c13.6-3.4,24.4-15,26.2-29.9
		c2.2-19.2-11.4-36.5-30.4-38.8c-11.9-1.4-23.1,3.4-30.4,11.9C28.7,32.6,32.9,32.3,37.2,32.8z"/>
	<g>
		<radialGradient id="SVGID_27_" cx="76.7734" cy="49.4643" r="54.1177" gradientUnits="userSpaceOnUse">
			<stop  offset="2.453990e-02" style="stop-color:#FFFFFF"/>
			<stop  offset="1" style="stop-color:#B4E4FA"/>
		</radialGradient>
		<polygon class="st30" points="50.4,25.3 48.7,23.4 47.4,23.5 49.1,25.4 		"/>
		<radialGradient id="SVGID_28_" cx="76.7716" cy="49.4641" r="54.1156" gradientUnits="userSpaceOnUse">
			<stop  offset="2.453990e-02" style="stop-color:#FFFFFF"/>
			<stop  offset="1" style="stop-color:#B4E4FA"/>
		</radialGradient>
		<polygon class="st31" points="47.7,25.5 45.8,23.7 44.5,23.9 46.4,25.6 		"/>
		<radialGradient id="SVGID_29_" cx="76.7715" cy="49.4642" r="54.1159" gradientUnits="userSpaceOnUse">
			<stop  offset="2.453990e-02" style="stop-color:#FFFFFF"/>
			<stop  offset="1" style="stop-color:#B4E4FA"/>
		</radialGradient>
		<polygon class="st32" points="45,25.8 43,24.2 41.7,24.5 43.8,26.1 		"/>
		<radialGradient id="SVGID_30_" cx="76.7778" cy="49.4647" r="54.1228" gradientUnits="userSpaceOnUse">
			<stop  offset="2.453990e-02" style="stop-color:#FFFFFF"/>
			<stop  offset="1" style="stop-color:#B4E4FA"/>
		</radialGradient>
		<polygon class="st33" points="42.4,26.4 40.2,25 38.9,25.4 41.1,26.8 		"/>
		<radialGradient id="SVGID_31_" cx="76.7731" cy="49.4646" r="54.1179" gradientUnits="userSpaceOnUse">
			<stop  offset="2.453990e-02" style="stop-color:#FFFFFF"/>
			<stop  offset="1" style="stop-color:#B4E4FA"/>
		</radialGradient>
		<polygon class="st34" points="39.8,27.2 37.5,26 36.3,26.5 38.6,27.7 		"/>
		<radialGradient id="SVGID_32_" cx="76.7708" cy="49.4643" r="54.1151" gradientUnits="userSpaceOnUse">
			<stop  offset="2.453990e-02" style="stop-color:#FFFFFF"/>
			<stop  offset="1" style="stop-color:#B4E4FA"/>
		</radialGradient>
		<polygon class="st35" points="37.3,28.2 34.9,27.2 33.7,27.9 36.1,28.9 		"/>
		<radialGradient id="SVGID_33_" cx="76.7716" cy="49.4641" r="54.1159" gradientUnits="userSpaceOnUse">
			<stop  offset="2.453990e-02" style="stop-color:#FFFFFF"/>
			<stop  offset="1" style="stop-color:#B4E4FA"/>
		</radialGradient>
		<polygon class="st36" points="34.9,29.5 32.4,28.7 31.3,29.4 33.8,30.2 		"/>
		<radialGradient id="SVGID_34_" cx="76.7734" cy="49.4644" r="54.1182" gradientUnits="userSpaceOnUse">
			<stop  offset="2.453990e-02" style="stop-color:#FFFFFF"/>
			<stop  offset="1" style="stop-color:#B4E4FA"/>
		</radialGradient>
		<polygon class="st37" points="32.6,30.9 30.1,30.4 29,31.2 31.6,31.7 		"/>
		<radialGradient id="SVGID_35_" cx="76.7735" cy="49.4642" r="54.1178" gradientUnits="userSpaceOnUse">
			<stop  offset="2.453990e-02" style="stop-color:#FFFFFF"/>
			<stop  offset="1" style="stop-color:#B4E4FA"/>
		</radialGradient>
		<polygon class="st38" points="27.9,32.2 26.9,33.1 29.5,33.5 30.5,32.6 		"/>
		<radialGradient id="SVGID_36_" cx="76.7678" cy="49.4644" r="54.112" gradientUnits="userSpaceOnUse">
			<stop  offset="2.453990e-02" style="stop-color:#FFFFFF"/>
			<stop  offset="1" style="stop-color:#B4E4FA"/>
		</radialGradient>
		<polygon class="st39" points="25.9,34.3 25,35.3 27.6,35.4 28.5,34.4 		"/>
		<radialGradient id="SVGID_37_" cx="76.7736" cy="49.4645" r="54.1178" gradientUnits="userSpaceOnUse">
			<stop  offset="2.453990e-02" style="stop-color:#FFFFFF"/>
			<stop  offset="1" style="stop-color:#B4E4FA"/>
		</radialGradient>
		<polygon class="st40" points="24.1,36.5 23.3,37.6 25.9,37.5 26.7,36.4 		"/>
		<radialGradient id="SVGID_38_" cx="76.7772" cy="49.4639" r="54.1213" gradientUnits="userSpaceOnUse">
			<stop  offset="2.453990e-02" style="stop-color:#FFFFFF"/>
			<stop  offset="1" style="stop-color:#B4E4FA"/>
		</radialGradient>
		<polygon class="st41" points="22.4,38.9 21.7,40 24.3,39.7 25,38.6 		"/>
		<radialGradient id="SVGID_39_" cx="76.7698" cy="49.4652" r="54.1143" gradientUnits="userSpaceOnUse">
			<stop  offset="2.453990e-02" style="stop-color:#FFFFFF"/>
			<stop  offset="1" style="stop-color:#B4E4FA"/>
		</radialGradient>
		<polygon class="st42" points="23.6,40.8 21,41.4 20.4,42.6 23,42 		"/>
		<radialGradient id="SVGID_40_" cx="76.7822" cy="49.4643" r="54.1262" gradientUnits="userSpaceOnUse">
			<stop  offset="2.453990e-02" style="stop-color:#FFFFFF"/>
			<stop  offset="1" style="stop-color:#B4E4FA"/>
		</radialGradient>
		<polygon class="st43" points="22.3,43.2 19.8,44 19.3,45.2 21.8,44.4 		"/>
		<radialGradient id="SVGID_41_" cx="76.7744" cy="49.4638" r="54.1188" gradientUnits="userSpaceOnUse">
			<stop  offset="2.453990e-02" style="stop-color:#FFFFFF"/>
			<stop  offset="1" style="stop-color:#B4E4FA"/>
		</radialGradient>
		<polygon class="st44" points="21.3,45.7 18.9,46.7 18.5,48 20.9,47 		"/>
		<radialGradient id="SVGID_42_" cx="76.778" cy="49.4645" r="54.1221" gradientUnits="userSpaceOnUse">
			<stop  offset="2.453990e-02" style="stop-color:#FFFFFF"/>
			<stop  offset="1" style="stop-color:#B4E4FA"/>
		</radialGradient>
		<polygon class="st45" points="20.5,48.3 18.1,49.5 17.9,50.8 20.2,49.6 		"/>
		<radialGradient id="SVGID_43_" cx="76.7793" cy="49.4645" r="54.1235" gradientUnits="userSpaceOnUse">
			<stop  offset="2.453990e-02" style="stop-color:#FFFFFF"/>
			<stop  offset="1" style="stop-color:#B4E4FA"/>
		</radialGradient>
		<polygon class="st46" points="19.9,51 17.7,52.3 17.5,53.6 19.7,52.3 		"/>
		<radialGradient id="SVGID_44_" cx="76.7685" cy="49.4643" r="54.1133" gradientUnits="userSpaceOnUse">
			<stop  offset="2.453990e-02" style="stop-color:#FFFFFF"/>
			<stop  offset="1" style="stop-color:#B4E4FA"/>
		</radialGradient>
		<polygon class="st47" points="19.5,53.6 17.4,55.2 17.4,56.5 19.5,54.9 		"/>
		<radialGradient id="SVGID_45_" cx="76.7868" cy="49.4643" r="54.1298" gradientUnits="userSpaceOnUse">
			<stop  offset="2.453990e-02" style="stop-color:#FFFFFF"/>
			<stop  offset="1" style="stop-color:#B4E4FA"/>
		</radialGradient>
		<polygon class="st48" points="19.4,56.3 17.5,58.1 17.5,59.4 19.5,57.6 		"/>
		<radialGradient id="SVGID_46_" cx="76.7878" cy="49.465" r="54.1304" gradientUnits="userSpaceOnUse">
			<stop  offset="2.453990e-02" style="stop-color:#FFFFFF"/>
			<stop  offset="1" style="stop-color:#B4E4FA"/>
		</radialGradient>
		<polygon class="st49" points="19.5,59 17.7,61 17.9,62.3 19.7,60.3 		"/>
		<radialGradient id="SVGID_47_" cx="76.7731" cy="49.4647" r="54.1171" gradientUnits="userSpaceOnUse">
			<stop  offset="2.453990e-02" style="stop-color:#FFFFFF"/>
			<stop  offset="1" style="stop-color:#B4E4FA"/>
		</radialGradient>
		<polygon class="st50" points="19.9,61.7 18.3,63.8 18.6,65.1 20.1,63 		"/>
		<radialGradient id="SVGID_48_" cx="76.7803" cy="49.4633" r="54.1239" gradientUnits="userSpaceOnUse">
			<stop  offset="2.453990e-02" style="stop-color:#FFFFFF"/>
			<stop  offset="1" style="stop-color:#B4E4FA"/>
		</radialGradient>
		<polygon class="st51" points="20.4,64.4 19,66.6 19.4,67.8 20.8,65.6 		"/>
		<radialGradient id="SVGID_49_" cx="76.7596" cy="49.4677" r="54.105" gradientUnits="userSpaceOnUse">
			<stop  offset="2.453990e-02" style="stop-color:#FFFFFF"/>
			<stop  offset="1" style="stop-color:#B4E4FA"/>
		</radialGradient>
		<polygon class="st52" points="21.3,66.9 20,69.2 20.6,70.5 21.8,68.2 		"/>
		<radialGradient id="SVGID_50_" cx="76.7737" cy="49.4641" r="54.118" gradientUnits="userSpaceOnUse">
			<stop  offset="2.453990e-02" style="stop-color:#FFFFFF"/>
			<stop  offset="1" style="stop-color:#B4E4FA"/>
		</radialGradient>
		<polygon class="st53" points="22.3,69.4 21.3,71.8 21.9,73 22.9,70.6 		"/>
		<radialGradient id="SVGID_51_" cx="76.7745" cy="49.4598" r="54.1203" gradientUnits="userSpaceOnUse">
			<stop  offset="2.453990e-02" style="stop-color:#FFFFFF"/>
			<stop  offset="1" style="stop-color:#B4E4FA"/>
		</radialGradient>
		<polygon class="st54" points="22.7,74.3 23.5,75.4 24.2,73 23.5,71.8 		"/>
		<radialGradient id="SVGID_52_" cx="76.782" cy="49.4678" r="54.1232" gradientUnits="userSpaceOnUse">
			<stop  offset="2.453990e-02" style="stop-color:#FFFFFF"/>
			<stop  offset="1" style="stop-color:#B4E4FA"/>
		</radialGradient>
		<polygon class="st55" points="24.4,76.7 25.2,77.7 25.8,75.2 25,74.1 		"/>
		<radialGradient id="SVGID_53_" cx="76.7745" cy="49.4678" r="54.1168" gradientUnits="userSpaceOnUse">
			<stop  offset="2.453990e-02" style="stop-color:#FFFFFF"/>
			<stop  offset="1" style="stop-color:#B4E4FA"/>
		</radialGradient>
		<polygon class="st56" points="26.3,78.9 27.2,79.8 27.5,77.2 26.6,76.3 		"/>
		<radialGradient id="SVGID_54_" cx="76.7648" cy="49.4629" r="54.1119" gradientUnits="userSpaceOnUse">
			<stop  offset="2.453990e-02" style="stop-color:#FFFFFF"/>
			<stop  offset="1" style="stop-color:#B4E4FA"/>
		</radialGradient>
		<polygon class="st57" points="28.3,80.9 29.3,81.8 29.4,79.2 28.5,78.3 		"/>
		<radialGradient id="SVGID_55_" cx="76.7747" cy="49.4604" r="54.1213" gradientUnits="userSpaceOnUse">
			<stop  offset="2.453990e-02" style="stop-color:#FFFFFF"/>
			<stop  offset="1" style="stop-color:#B4E4FA"/>
		</radialGradient>
		<polygon class="st58" points="30.6,82.7 31.6,83.5 31.5,80.9 30.5,80.1 		"/>
		<radialGradient id="SVGID_56_" cx="76.7796" cy="49.4635" r="54.1229" gradientUnits="userSpaceOnUse">
			<stop  offset="2.453990e-02" style="stop-color:#FFFFFF"/>
			<stop  offset="1" style="stop-color:#B4E4FA"/>
		</radialGradient>
		<polygon class="st59" points="32.6,81.7 32.9,84.3 34,85 33.7,82.4 		"/>
		<radialGradient id="SVGID_57_" cx="76.7726" cy="49.472" r="54.1118" gradientUnits="userSpaceOnUse">
			<stop  offset="2.453990e-02" style="stop-color:#FFFFFF"/>
			<stop  offset="1" style="stop-color:#B4E4FA"/>
		</radialGradient>
		<polygon class="st60" points="34.9,83.2 35.4,85.7 36.6,86.3 36,83.8 		"/>
		<radialGradient id="SVGID_58_" cx="76.7695" cy="49.4588" r="54.1193" gradientUnits="userSpaceOnUse">
			<stop  offset="2.453990e-02" style="stop-color:#FFFFFF"/>
			<stop  offset="1" style="stop-color:#B4E4FA"/>
		</radialGradient>
		<polygon class="st61" points="37.3,84.4 38.1,86.9 39.3,87.4 38.5,85 		"/>
		<radialGradient id="SVGID_59_" cx="76.7741" cy="49.4644" r="54.1183" gradientUnits="userSpaceOnUse">
			<stop  offset="2.453990e-02" style="stop-color:#FFFFFF"/>
			<stop  offset="1" style="stop-color:#B4E4FA"/>
		</radialGradient>
		<polygon class="st62" points="39.8,85.5 40.8,87.9 42,88.3 41,85.9 		"/>
		<radialGradient id="SVGID_60_" cx="76.7704" cy="49.4612" r="54.119" gradientUnits="userSpaceOnUse">
			<stop  offset="2.453990e-02" style="stop-color:#FFFFFF"/>
			<stop  offset="1" style="stop-color:#B4E4FA"/>
		</radialGradient>
		<polygon class="st63" points="42.4,86.3 43.5,88.6 44.8,88.9 43.6,86.6 		"/>
		<radialGradient id="SVGID_61_" cx="76.7733" cy="49.4534" r="54.1279" gradientUnits="userSpaceOnUse">
			<stop  offset="2.453990e-02" style="stop-color:#FFFFFF"/>
			<stop  offset="1" style="stop-color:#B4E4FA"/>
		</radialGradient>
		<polygon class="st64" points="45,86.9 46.4,89.1 47.7,89.3 46.3,87.1 		"/>
		<radialGradient id="SVGID_62_" cx="76.7715" cy="49.4729" r="54.1085" gradientUnits="userSpaceOnUse">
			<stop  offset="2.453990e-02" style="stop-color:#FFFFFF"/>
			<stop  offset="1" style="stop-color:#B4E4FA"/>
		</radialGradient>
		<polygon class="st65" points="47.7,87.2 49.3,89.3 50.6,89.4 49,87.3 		"/>
		<radialGradient id="SVGID_63_" cx="76.7701" cy="49.4779" r="54.1018" gradientUnits="userSpaceOnUse">
			<stop  offset="2.453990e-02" style="stop-color:#FFFFFF"/>
			<stop  offset="1" style="stop-color:#B4E4FA"/>
		</radialGradient>
		<polygon class="st66" points="50.4,87.4 52.1,89.3 53.4,89.2 51.7,87.3 		"/>
		<radialGradient id="SVGID_64_" cx="76.7751" cy="49.4737" r="54.1082" gradientUnits="userSpaceOnUse">
			<stop  offset="2.453990e-02" style="stop-color:#FFFFFF"/>
			<stop  offset="1" style="stop-color:#B4E4FA"/>
		</radialGradient>
		<polygon class="st67" points="53.1,87.2 55,89 56.3,88.8 54.4,87.1 		"/>
		<radialGradient id="SVGID_65_" cx="76.7726" cy="49.4603" r="54.1221" gradientUnits="userSpaceOnUse">
			<stop  offset="2.453990e-02" style="stop-color:#FFFFFF"/>
			<stop  offset="1" style="stop-color:#B4E4FA"/>
		</radialGradient>
		<polygon class="st68" points="55.8,86.9 57.8,88.5 59.1,88.2 57,86.6 		"/>
		<radialGradient id="SVGID_66_" cx="76.7748" cy="49.4778" r="54.1015" gradientUnits="userSpaceOnUse">
			<stop  offset="2.453990e-02" style="stop-color:#FFFFFF"/>
			<stop  offset="1" style="stop-color:#B4E4FA"/>
		</radialGradient>
		<polygon class="st69" points="58.4,86.3 60.6,87.7 61.9,87.3 59.7,85.9 		"/>
		<radialGradient id="SVGID_67_" cx="76.7741" cy="49.4681" r="54.1128" gradientUnits="userSpaceOnUse">
			<stop  offset="2.453990e-02" style="stop-color:#FFFFFF"/>
			<stop  offset="1" style="stop-color:#B4E4FA"/>
		</radialGradient>
		<polygon class="st70" points="61,85.5 63.3,86.7 64.5,86.2 62.2,85 		"/>
		<radialGradient id="SVGID_68_" cx="76.7739" cy="49.46" r="54.1246" gradientUnits="userSpaceOnUse">
			<stop  offset="2.453990e-02" style="stop-color:#FFFFFF"/>
			<stop  offset="1" style="stop-color:#B4E4FA"/>
		</radialGradient>
		<polygon class="st71" points="63.5,84.5 65.9,85.5 67.1,84.9 64.6,83.9 		"/>
		<radialGradient id="SVGID_69_" cx="76.7741" cy="49.4646" r="54.1179" gradientUnits="userSpaceOnUse">
			<stop  offset="2.453990e-02" style="stop-color:#FFFFFF"/>
			<stop  offset="1" style="stop-color:#B4E4FA"/>
		</radialGradient>
		<polygon class="st72" points="65.9,83.2 68.4,84 69.5,83.3 67,82.5 		"/>
		<radialGradient id="SVGID_70_" cx="76.7729" cy="49.4478" r="54.145" gradientUnits="userSpaceOnUse">
			<stop  offset="2.453990e-02" style="stop-color:#FFFFFF"/>
			<stop  offset="1" style="stop-color:#B4E4FA"/>
		</radialGradient>
		<polygon class="st73" points="68.2,81.8 70.7,82.3 71.8,81.5 69.2,81 		"/>
		<radialGradient id="SVGID_71_" cx="76.7736" cy="49.4541" r="54.1363" gradientUnits="userSpaceOnUse">
			<stop  offset="2.453990e-02" style="stop-color:#FFFFFF"/>
			<stop  offset="1" style="stop-color:#B4E4FA"/>
		</radialGradient>
		<polygon class="st74" points="70.3,80.1 72.9,80.5 73.9,79.6 71.3,79.2 		"/>
		<radialGradient id="SVGID_72_" cx="76.774" cy="49.4587" r="54.1283" gradientUnits="userSpaceOnUse">
			<stop  offset="2.453990e-02" style="stop-color:#FFFFFF"/>
			<stop  offset="1" style="stop-color:#B4E4FA"/>
		</radialGradient>
		<polygon class="st75" points="72.3,78.3 74.9,78.4 75.8,77.4 73.2,77.3 		"/>
		<radialGradient id="SVGID_73_" cx="76.7738" cy="49.4501" r="54.1475" gradientUnits="userSpaceOnUse">
			<stop  offset="2.453990e-02" style="stop-color:#FFFFFF"/>
			<stop  offset="1" style="stop-color:#B4E4FA"/>
		</radialGradient>
		<polygon class="st76" points="74.1,76.3 76.7,76.2 77.5,75.2 74.9,75.3 		"/>
		<radialGradient id="SVGID_74_" cx="76.7736" cy="49.4757" r="54.0927" gradientUnits="userSpaceOnUse">
			<stop  offset="2.453990e-02" style="stop-color:#FFFFFF"/>
			<stop  offset="1" style="stop-color:#B4E4FA"/>
		</radialGradient>
		<polygon class="st77" points="75.8,74.2 78.4,73.8 79.1,72.7 76.5,73.1 		"/>
		<radialGradient id="SVGID_75_" cx="76.7733" cy="49.4561" r="54.1381" gradientUnits="userSpaceOnUse">
			<stop  offset="2.453990e-02" style="stop-color:#FFFFFF"/>
			<stop  offset="1" style="stop-color:#B4E4FA"/>
		</radialGradient>
		<polygon class="st78" points="77.2,71.9 79.8,71.3 80.4,70.2 77.8,70.7 		"/>
		<radialGradient id="SVGID_76_" cx="76.7738" cy="49.4629" r="54.1223" gradientUnits="userSpaceOnUse">
			<stop  offset="2.453990e-02" style="stop-color:#FFFFFF"/>
			<stop  offset="1" style="stop-color:#B4E4FA"/>
		</radialGradient>
		<polygon class="st79" points="78.5,69.5 81,68.7 81.5,67.5 79,68.3 		"/>
		<radialGradient id="SVGID_77_" cx="76.7733" cy="49.4657" r="54.114" gradientUnits="userSpaceOnUse">
			<stop  offset="2.453990e-02" style="stop-color:#FFFFFF"/>
			<stop  offset="1" style="stop-color:#B4E4FA"/>
		</radialGradient>
		<polygon class="st80" points="79.5,67 81.9,66 82.3,64.7 79.9,65.7 		"/>
		<radialGradient id="SVGID_78_" cx="76.774" cy="49.4631" r="54.1209" gradientUnits="userSpaceOnUse">
			<stop  offset="2.453990e-02" style="stop-color:#FFFFFF"/>
			<stop  offset="1" style="stop-color:#B4E4FA"/>
		</radialGradient>
		<polygon class="st81" points="80.3,64.4 82.7,63.2 82.9,61.9 80.6,63.1 		"/>
		<radialGradient id="SVGID_79_" cx="76.7737" cy="49.4651" r="54.1144" gradientUnits="userSpaceOnUse">
			<stop  offset="2.453990e-02" style="stop-color:#FFFFFF"/>
			<stop  offset="1" style="stop-color:#B4E4FA"/>
		</radialGradient>
		<polygon class="st82" points="80.9,61.8 83.1,60.4 83.3,59.1 81.1,60.5 		"/>
		<radialGradient id="SVGID_80_" cx="76.7737" cy="49.4642" r="54.1201" gradientUnits="userSpaceOnUse">
			<stop  offset="2.453990e-02" style="stop-color:#FFFFFF"/>
			<stop  offset="1" style="stop-color:#B4E4FA"/>
		</radialGradient>
		<polygon class="st83" points="81.3,57.8 81.3,59.1 83.4,57.5 83.4,56.2 		"/>
		<radialGradient id="SVGID_81_" cx="76.7742" cy="49.4644" r="54.1158" gradientUnits="userSpaceOnUse">
			<stop  offset="2.453990e-02" style="stop-color:#FFFFFF"/>
			<stop  offset="1" style="stop-color:#B4E4FA"/>
		</radialGradient>
		<polygon class="st84" points="81.4,56.4 83.3,54.6 83.3,53.3 81.3,55.1 		"/>
		<radialGradient id="SVGID_82_" cx="76.7736" cy="49.4645" r="54.1161" gradientUnits="userSpaceOnUse">
			<stop  offset="2.453990e-02" style="stop-color:#FFFFFF"/>
			<stop  offset="1" style="stop-color:#B4E4FA"/>
		</radialGradient>
		<polygon class="st85" points="81.3,53.7 83.1,51.8 82.9,50.5 81.1,52.4 		"/>
		<radialGradient id="SVGID_83_" cx="76.773" cy="49.4641" r="54.1229" gradientUnits="userSpaceOnUse">
			<stop  offset="2.453990e-02" style="stop-color:#FFFFFF"/>
			<stop  offset="1" style="stop-color:#B4E4FA"/>
		</radialGradient>
		<polygon class="st86" points="80.9,51 82.5,48.9 82.2,47.6 80.7,49.7 		"/>
		<radialGradient id="SVGID_84_" cx="76.7743" cy="49.4643" r="54.1108" gradientUnits="userSpaceOnUse">
			<stop  offset="2.453990e-02" style="stop-color:#FFFFFF"/>
			<stop  offset="1" style="stop-color:#B4E4FA"/>
		</radialGradient>
		<polygon class="st87" points="80.4,48.4 81.8,46.2 81.4,44.9 80,47.1 		"/>
		<radialGradient id="SVGID_85_" cx="76.7729" cy="49.4637" r="54.1202" gradientUnits="userSpaceOnUse">
			<stop  offset="2.453990e-02" style="stop-color:#FFFFFF"/>
			<stop  offset="1" style="stop-color:#B4E4FA"/>
		</radialGradient>
		<polygon class="st88" points="79.5,45.8 80.8,43.5 80.2,42.2 79,44.6 		"/>
		<radialGradient id="SVGID_86_" cx="76.7735" cy="49.465" r="54.1225" gradientUnits="userSpaceOnUse">
			<stop  offset="2.453990e-02" style="stop-color:#FFFFFF"/>
			<stop  offset="1" style="stop-color:#B4E4FA"/>
		</radialGradient>
		<polygon class="st89" points="78.5,43.3 79.5,40.9 78.9,39.7 77.9,42.1 		"/>
		<radialGradient id="SVGID_87_" cx="76.7736" cy="49.4642" r="54.1172" gradientUnits="userSpaceOnUse">
			<stop  offset="2.453990e-02" style="stop-color:#FFFFFF"/>
			<stop  offset="1" style="stop-color:#B4E4FA"/>
		</radialGradient>
		<polygon class="st90" points="78.1,38.4 77.3,37.3 76.6,39.8 77.3,40.9 		"/>
		<radialGradient id="SVGID_88_" cx="76.7734" cy="49.4644" r="54.1182" gradientUnits="userSpaceOnUse">
			<stop  offset="2.453990e-02" style="stop-color:#FFFFFF"/>
			<stop  offset="1" style="stop-color:#B4E4FA"/>
		</radialGradient>
		<polygon class="st91" points="76.4,36 75.6,35 75,37.5 75.8,38.6 		"/>
		<radialGradient id="SVGID_89_" cx="76.7735" cy="49.4642" r="54.1177" gradientUnits="userSpaceOnUse">
			<stop  offset="2.453990e-02" style="stop-color:#FFFFFF"/>
			<stop  offset="1" style="stop-color:#B4E4FA"/>
		</radialGradient>
		<polygon class="st92" points="74.5,33.9 73.6,32.9 73.3,35.5 74.2,36.4 		"/>
		<radialGradient id="SVGID_90_" cx="76.7735" cy="49.4642" r="54.1176" gradientUnits="userSpaceOnUse">
			<stop  offset="2.453990e-02" style="stop-color:#FFFFFF"/>
			<stop  offset="1" style="stop-color:#B4E4FA"/>
		</radialGradient>
		<polygon class="st93" points="72.5,31.8 71.5,31 71.4,33.6 72.3,34.4 		"/>
		<radialGradient id="SVGID_91_" cx="76.7722" cy="49.4642" r="54.1165" gradientUnits="userSpaceOnUse">
			<stop  offset="2.453990e-02" style="stop-color:#FFFFFF"/>
			<stop  offset="1" style="stop-color:#B4E4FA"/>
		</radialGradient>
		<polygon class="st94" points="70.2,30 69.2,29.2 69.3,31.8 70.3,32.6 		"/>
		<radialGradient id="SVGID_92_" cx="76.772" cy="49.4646" r="54.1169" gradientUnits="userSpaceOnUse">
			<stop  offset="2.453990e-02" style="stop-color:#FFFFFF"/>
			<stop  offset="1" style="stop-color:#B4E4FA"/>
		</radialGradient>
		<polygon class="st95" points="68.2,31 67.9,28.4 66.8,27.7 67.1,30.3 		"/>
		<radialGradient id="SVGID_93_" cx="76.7707" cy="49.4643" r="54.115" gradientUnits="userSpaceOnUse">
			<stop  offset="2.453990e-02" style="stop-color:#FFFFFF"/>
			<stop  offset="1" style="stop-color:#B4E4FA"/>
		</radialGradient>
		<polygon class="st96" points="65.9,29.5 65.4,27 64.2,26.4 64.8,28.9 		"/>
		<radialGradient id="SVGID_94_" cx="76.7767" cy="49.4643" r="54.1212" gradientUnits="userSpaceOnUse">
			<stop  offset="2.453990e-02" style="stop-color:#FFFFFF"/>
			<stop  offset="1" style="stop-color:#B4E4FA"/>
		</radialGradient>
		<polygon class="st97" points="63.5,28.3 62.7,25.8 61.5,25.3 62.3,27.8 		"/>
		<radialGradient id="SVGID_95_" cx="76.772" cy="49.4644" r="54.1165" gradientUnits="userSpaceOnUse">
			<stop  offset="2.453990e-02" style="stop-color:#FFFFFF"/>
			<stop  offset="1" style="stop-color:#B4E4FA"/>
		</radialGradient>
		<polygon class="st98" points="61,27.2 60,24.8 58.8,24.4 59.8,26.8 		"/>
		<radialGradient id="SVGID_96_" cx="76.7754" cy="49.4647" r="54.1203" gradientUnits="userSpaceOnUse">
			<stop  offset="2.453990e-02" style="stop-color:#FFFFFF"/>
			<stop  offset="1" style="stop-color:#B4E4FA"/>
		</radialGradient>
		<polygon class="st99" points="58.4,26.4 57.2,24.1 56,23.8 57.2,26.1 		"/>
		<radialGradient id="SVGID_97_" cx="76.7737" cy="49.4645" r="54.118" gradientUnits="userSpaceOnUse">
			<stop  offset="2.453990e-02" style="stop-color:#FFFFFF"/>
			<stop  offset="1" style="stop-color:#B4E4FA"/>
		</radialGradient>
		<polygon class="st100" points="55.8,25.8 54.4,23.6 53.1,23.5 54.5,25.7 		"/>
		<radialGradient id="SVGID_98_" cx="76.7757" cy="49.4644" r="54.1202" gradientUnits="userSpaceOnUse">
			<stop  offset="2.453990e-02" style="stop-color:#FFFFFF"/>
			<stop  offset="1" style="stop-color:#B4E4FA"/>
		</radialGradient>
		<polygon class="st101" points="53.1,25.5 51.5,23.4 50.2,23.3 51.8,25.4 		"/>
	</g>
	<g>
		<g>
			<g>
				<radialGradient id="SVGID_99_" cx="47.2891" cy="34.9393" r="1.6036" gradientUnits="userSpaceOnUse">
					<stop  offset="2.453990e-02" style="stop-color:#FFFFFF"/>
					<stop  offset="1" style="stop-color:#B4E4FA"/>
				</radialGradient>
				<path class="st102" d="M47.3,33.4l0.4,1.2l1.3,0l-1,0.7l0.4,1.2l-1-0.8l-1,0.7l0.4-1.2l-1-0.8l1.3,0L47.3,33.4z"/>
			</g>
			<g>
				<radialGradient id="SVGID_100_" cx="53.5179" cy="34.9393" r="1.6036" gradientUnits="userSpaceOnUse">
					<stop  offset="2.453990e-02" style="stop-color:#FFFFFF"/>
					<stop  offset="1" style="stop-color:#B4E4FA"/>
				</radialGradient>
				<path class="st103" d="M53.5,33.4l0.4,1.2l1.3,0l-1,0.7l0.4,1.2l-1-0.8l-1,0.7l0.4-1.2l-1-0.8l1.3,0L53.5,33.4z"/>
			</g>
		</g>
		
			<radialGradient id="SVGID_101_" cx="-106.3762" cy="-193.0602" r="3.0755" gradientTransform="matrix(0.729 0 0 0.5 116.7961 131.625)" gradientUnits="userSpaceOnUse">
			<stop  offset="2.453990e-02" style="stop-color:#FFFFFF"/>
			<stop  offset="1" style="stop-color:#B4E4FA"/>
		</radialGradient>
		<rect x="36.1" y="35" class="st104" width="6.3" height="0.1"/>
		
			<radialGradient id="SVGID_102_" cx="-272.4356" cy="-191.8701" r="3.0753" gradientTransform="matrix(0.5571 0 0 0.5 191.7693 131.625)" gradientUnits="userSpaceOnUse">
			<stop  offset="2.453990e-02" style="stop-color:#FFFFFF"/>
			<stop  offset="1" style="stop-color:#B4E4FA"/>
		</radialGradient>
		<rect x="37.6" y="35.6" class="st105" width="4.8" height="0.1"/>
		
			<radialGradient id="SVGID_103_" cx="1111.1968" cy="-193.0602" r="3.0755" gradientTransform="matrix(-0.729 0 0 0.5 871.711 131.625)" gradientUnits="userSpaceOnUse">
			<stop  offset="2.453990e-02" style="stop-color:#FFFFFF"/>
			<stop  offset="1" style="stop-color:#B4E4FA"/>
		</radialGradient>
		<rect x="58.5" y="35" class="st106" width="6.3" height="0.1"/>
		
			<radialGradient id="SVGID_104_" cx="1320.8359" cy="-191.8701" r="3.0753" gradientTransform="matrix(-0.5571 0 0 0.5 796.7387 131.625)" gradientUnits="userSpaceOnUse">
			<stop  offset="2.453990e-02" style="stop-color:#FFFFFF"/>
			<stop  offset="1" style="stop-color:#B4E4FA"/>
		</radialGradient>
		<rect x="58.5" y="35.6" class="st107" width="4.8" height="0.1"/>
	</g>
	<g>
		<path class="st25" d="M32.1,52.4c-1.6,1.2-2.8,1.7-3.7,1.9h7.4l0-1.9C34.5,50.7,32.1,52.4,32.1,52.4L32.1,52.4z"/>
		<path class="st25" d="M25.3,52.7l-1.6,1.6h3.6C26.4,54.1,25.5,53.4,25.3,52.7L25.3,52.7z"/>
		<path class="st25" d="M25.8,52.2c0.8,0.8,2.6,0.8,5.9-1.6c0,0,3.1-2.2,4.1,0.8l0-9.2L25.8,52.2L25.8,52.2z"/>
		<polygon class="st25" points="37.1,53.3 36.7,53.3 36.7,53.2 37.6,53.2 37.6,53.3 37.2,53.3 37.2,54.3 37.1,54.3 37.1,53.3 		"/>
		<polygon class="st25" points="37.7,53.2 37.9,53.2 38.3,54.1 38.7,53.2 38.9,53.2 38.9,54.3 38.8,54.3 38.8,53.3 38.8,53.3 
			38.3,54.3 38.3,54.3 37.8,53.3 37.8,53.3 37.8,54.3 37.7,54.3 37.7,53.2 		"/>
		<path class="st25" d="M43.7,47.6c-0.4-0.4-0.8-0.6-1.2-0.6c-1.2,0-1.9,0.9-1.9,2c0,1.2,0.8,2.1,1.9,2.1c0.5,0,0.9-0.2,1.3-0.7
			l0.8,0.6c-0.5,0.7-1.3,1-2.1,1c-1.7,0-3-1.2-3-2.9c0-1.8,1.2-3,3-3c0.8,0,1.4,0.2,2,0.9L43.7,47.6L43.7,47.6z"/>
		<path class="st25" d="M48.4,49.8l-0.9-2.3l-0.9,2.3H48.4L48.4,49.8z M47.2,46.3H48l2.4,5.6h-1.1l-0.5-1.3h-2.4l-0.5,1.3h-1.1
			L47.2,46.3L47.2,46.3z"/>
		<polygon class="st25" points="51.1,46.3 52.1,46.3 52.1,51 54.5,51 54.5,51.9 51.1,51.9 51.1,46.3 		"/>
		<polygon class="st25" points="56.7,49.5 54.6,46.3 55.9,46.3 57.2,48.5 58.6,46.3 59.8,46.3 57.7,49.5 57.7,51.9 56.7,51.9 
			56.7,49.5 		"/>
		<path class="st25" d="M62,48.7c0.6,0,1.3,0,1.3-0.8c0-0.7-0.7-0.8-1.2-0.8h-0.7v1.6H62L62,48.7z M60.4,46.3h1.9
			c1.1,0,2.1,0.4,2.1,1.6c0,1.4-1.1,1.7-2.2,1.7h-0.7v2.3h-1V46.3L60.4,46.3z"/>
		<path class="st25" d="M68.1,47.5c-0.2-0.3-0.6-0.4-1-0.4c-0.5,0-0.9,0.2-0.9,0.7c0,1.1,2.7,0.5,2.7,2.5c0,1.2-1,1.8-2.1,1.8
			c-0.7,0-1.4-0.2-1.8-0.8l0.8-0.7c0.2,0.4,0.7,0.6,1.1,0.6c0.5,0,1-0.3,1-0.8c0-1.2-2.7-0.5-2.7-2.5c0-1.2,1-1.7,2.1-1.7
			c0.6,0,1.2,0.2,1.6,0.6L68.1,47.5L68.1,47.5z"/>
		<path class="st25" d="M72.6,51.1c1.2,0,1.9-0.9,1.9-2.1c0-1.1-0.8-2-1.9-2c-1.2,0-1.9,0.9-1.9,2C70.7,50.2,71.5,51.1,72.6,51.1
			L72.6,51.1z M72.6,46.1c1.8,0,3,1.1,3,2.9c0,1.8-1.2,2.9-3,3c-1.7,0-3-1.2-3-2.9C69.7,47.3,70.9,46.1,72.6,46.1L72.6,46.1z"/>
		<path class="st25" d="M76.1,46.7v0.3c0,0,0,0,0.1,0c0.1,0,0.1,0,0.2,0c0,0,0-0.1,0-0.1C76.4,46.7,76.3,46.7,76.1,46.7L76.1,46.7
			L76.1,46.7L76.1,46.7z M76.4,47.4L76.2,47h-0.1v0.4H76v-0.9h0.2c0.2,0,0.3,0.1,0.3,0.2c0,0.1-0.1,0.2-0.2,0.2l0.2,0.4H76.4
			L76.4,47.4z M76.8,47c0-0.2-0.1-0.3-0.2-0.4c-0.1-0.1-0.3-0.2-0.4-0.2c-0.2,0-0.3,0.1-0.4,0.2c-0.1,0.1-0.2,0.3-0.2,0.4
			s0.1,0.3,0.2,0.4c0.1,0.1,0.3,0.2,0.4,0.2c0.2,0,0.3-0.1,0.4-0.2C76.7,47.3,76.8,47.1,76.8,47L76.8,47z M75.5,47
			c0-0.2,0.1-0.4,0.2-0.5c0.1-0.1,0.3-0.2,0.5-0.2c0.2,0,0.4,0.1,0.5,0.2c0.1,0.1,0.2,0.3,0.2,0.5c0,0.2-0.1,0.4-0.2,0.5
			c-0.1,0.1-0.3,0.2-0.5,0.2c-0.2,0-0.4-0.1-0.5-0.2C75.6,47.3,75.5,47.2,75.5,47L75.5,47z"/>
	</g>
	<g>
		<path class="st25" d="M39,60.1c0.5,0,0.9,0.2,1.2,0.5l-0.4,0.5c-0.2-0.2-0.4-0.3-0.8-0.3c-0.7,0-1.2,0.6-1.2,1.5
			c0,0.9,0.4,1.5,1.1,1.5c0.4,0,0.6-0.2,0.9-0.4l0.4,0.4c-0.3,0.4-0.8,0.6-1.3,0.6c-1.1,0-1.9-0.8-1.9-2.1
			C37.1,60.9,37.9,60.1,39,60.1z"/>
		<path class="st25" d="M40.9,60.2h2.5v0.6h-1.8v1.1h1.5v0.6h-1.5v1.2h1.8v0.6h-2.6V60.2z"/>
		<path class="st25" d="M46.6,64.3l-0.9-1.6H45v1.6h-0.7v-4.1h1.4c0.9,0,1.5,0.3,1.5,1.2c0,0.6-0.3,1-0.8,1.2l1,1.7H46.6z M45,62.1
			h0.6c0.6,0,0.9-0.2,0.9-0.7c0-0.5-0.3-0.6-0.9-0.6H45V62.1z"/>
		<path class="st25" d="M48.8,60.8h-1.2v-0.6h3.1v0.6h-1.2v3.5h-0.7V60.8z"/>
		<path class="st25" d="M51.4,60.2h0.7v4.1h-0.7V60.2z"/>
		<path class="st25" d="M53.2,60.2h2.5v0.6h-1.8V62h1.5v0.6h-1.5v1.7h-0.7V60.2z"/>
		<path class="st25" d="M56.4,60.2h0.7v4.1h-0.7V60.2z"/>
		<path class="st25" d="M58.2,60.2h2.5v0.6h-1.8v1.1h1.5v0.6h-1.5v1.2h1.8v0.6h-2.6V60.2z"/>
		<path class="st25" d="M61.6,60.2h1.1c1.3,0,2,0.7,2,2c0,1.4-0.7,2.1-2,2.1h-1.1V60.2z M62.6,63.7c0.8,0,1.3-0.5,1.3-1.5
			c0-1-0.5-1.5-1.3-1.5h-0.3v2.9H62.6z"/>
	</g>
	<g>
		
			<linearGradient id="SVGID_105_" gradientUnits="userSpaceOnUse" x1="14.0159" y1="153.131" x2="87.4832" y2="153.131" gradientTransform="matrix(1 0 0 1.1999 0 -106.8255)">
			<stop  offset="0" style="stop-color:#0E4066"/>
			<stop  offset="1" style="stop-color:#00609D"/>
		</linearGradient>
		<path class="st108" d="M87.5,84c-24.3,4.2-49.2,4.2-73.5,0c0-5.8,0-11.5,0-17.3c24.3,4.2,49.2,4.2,73.5,0
			C87.5,72.4,87.5,78.2,87.5,84z"/>
		<g>
			<radialGradient id="SVGID_106_" cx="50.6685" cy="70.1785" r="24.1964" gradientUnits="userSpaceOnUse">
				<stop  offset="0" style="stop-color:#D4EFFC"/>
				<stop  offset="1" style="stop-color:#6FBCE9"/>
			</radialGradient>
			<path class="st109" d="M84.9,69c-0.4,0.1-0.8,0.1-1.2,0.2c0-0.1,0-0.2,0-0.3c0.4-0.1,0.8-0.1,1.2-0.2
				C84.9,68.8,84.9,68.9,84.9,69z M82.5,69.3c-0.4,0.1-0.8,0.1-1.2,0.2c0-0.1,0-0.2,0-0.3c0.4-0.1,0.8-0.1,1.2-0.2
				C82.5,69.1,82.5,69.2,82.5,69.3z M80.1,69.7c-0.4,0.1-0.8,0.1-1.2,0.2c0-0.1,0-0.2,0-0.3c0.4-0.1,0.8-0.1,1.2-0.2
				C80.1,69.5,80.1,69.6,80.1,69.7z M77.7,70c-0.4,0.1-0.8,0.1-1.2,0.1c0-0.1,0-0.2,0-0.3c0.4,0,0.8-0.1,1.2-0.1
				C77.7,69.8,77.7,69.9,77.7,70z M75.3,70.3c-0.4,0-0.8,0.1-1.2,0.1c0-0.1,0-0.2,0-0.3c0.4,0,0.8-0.1,1.2-0.1
				C75.3,70.1,75.3,70.2,75.3,70.3z M72.9,70.6c-0.4,0-0.8,0.1-1.2,0.1c0-0.1,0-0.2,0-0.3c0.4,0,0.8-0.1,1.2-0.1
				C72.9,70.4,72.9,70.5,72.9,70.6z M70.5,70.8c-0.4,0-0.8,0.1-1.2,0.1c0-0.1,0-0.2,0-0.3c0.4,0,0.8-0.1,1.2-0.1
				C70.5,70.6,70.5,70.7,70.5,70.8z M68.1,71c-0.4,0-0.8,0.1-1.2,0.1c0-0.1,0-0.2,0-0.3c0.4,0,0.8-0.1,1.2-0.1
				C68.1,70.8,68.1,70.9,68.1,71z M65.7,71.2c-0.4,0-0.8,0.1-1.2,0.1c0-0.1,0-0.2,0-0.3c0.4,0,0.8-0.1,1.2-0.1
				C65.7,71,65.7,71.1,65.7,71.2z M63.3,71.3c-0.4,0-0.8,0-1.2,0.1c0-0.1,0-0.2,0-0.3c0.4,0,0.8,0,1.2-0.1
				C63.3,71.1,63.3,71.2,63.3,71.3z M60.9,71.5c-0.4,0-0.8,0-1.2,0.1c0-0.1,0-0.2,0-0.3c0.4,0,0.8,0,1.2-0.1
				C60.9,71.3,60.9,71.4,60.9,71.5z M58.5,71.6c-0.4,0-0.8,0-1.2,0c0-0.1,0-0.2,0-0.3c0.4,0,0.8,0,1.2,0
				C58.5,71.4,58.5,71.5,58.5,71.6z M56.1,71.6c-0.4,0-0.8,0-1.2,0c0-0.1,0-0.2,0-0.3c0.4,0,0.8,0,1.2,0
				C56.1,71.4,56.1,71.5,56.1,71.6z M53.7,71.7c-0.4,0-0.8,0-1.2,0c0-0.1,0-0.2,0-0.3c0.4,0,0.8,0,1.2,0
				C53.7,71.5,53.7,71.6,53.7,71.7z M51.3,71.7c-0.4,0-0.8,0-1.2,0c0-0.1,0-0.2,0-0.3c0.4,0,0.8,0,1.2,0
				C51.3,71.5,51.3,71.6,51.3,71.7z M48.9,71.7c-0.4,0-0.8,0-1.2,0c0-0.1,0-0.2,0-0.3c0.4,0,0.8,0,1.2,0
				C48.9,71.5,48.9,71.6,48.9,71.7z M46.5,71.7c-0.4,0-0.8,0-1.2,0c0-0.1,0-0.2,0-0.3c0.4,0,0.8,0,1.2,0
				C46.5,71.5,46.5,71.6,46.5,71.7z M44.1,71.6c-0.4,0-0.8,0-1.2,0c0-0.1,0-0.2,0-0.3c0.4,0,0.8,0,1.2,0
				C44.1,71.4,44.1,71.5,44.1,71.6z M41.6,71.5c-0.4,0-0.8,0-1.2-0.1c0-0.1,0-0.2,0-0.3c0.4,0,0.8,0,1.2,0.1
				C41.6,71.3,41.6,71.4,41.6,71.5z M39.2,71.4c-0.4,0-0.8,0-1.2-0.1c0-0.1,0-0.2,0-0.3c0.4,0,0.8,0,1.2,0.1
				C39.2,71.2,39.2,71.3,39.2,71.4z M36.8,71.3c-0.4,0-0.8-0.1-1.2-0.1c0-0.1,0-0.2,0-0.3c0.4,0,0.8,0.1,1.2,0.1
				C36.8,71.1,36.8,71.2,36.8,71.3z M34.4,71.1c-0.4,0-0.8-0.1-1.2-0.1c0-0.1,0-0.2,0-0.3c0.4,0,0.8,0.1,1.2,0.1
				C34.4,70.9,34.4,71,34.4,71.1z M32,70.9c-0.4,0-0.8-0.1-1.2-0.1c0-0.1,0-0.2,0-0.3c0.4,0,0.8,0.1,1.2,0.1
				C32,70.7,32,70.8,32,70.9z M29.6,70.7c-0.4,0-0.8-0.1-1.2-0.1c0-0.1,0-0.2,0-0.3c0.4,0,0.8,0.1,1.2,0.1
				C29.6,70.5,29.6,70.6,29.6,70.7z M27.2,70.4c-0.4,0-0.8-0.1-1.2-0.1c0-0.1,0-0.2,0-0.3c0.4,0,0.8,0.1,1.2,0.1
				C27.2,70.2,27.2,70.3,27.2,70.4z M24.8,70.1c-0.4,0-0.8-0.1-1.2-0.2c0-0.1,0-0.2,0-0.3c0.4,0.1,0.8,0.1,1.2,0.1
				C24.8,69.9,24.8,70,24.8,70.1z M22.5,69.8c-0.4-0.1-0.8-0.1-1.2-0.2c0-0.1,0-0.2,0-0.3c0.4,0.1,0.8,0.1,1.2,0.2
				C22.5,69.6,22.5,69.7,22.5,69.8z M20.1,69.5c-0.4-0.1-0.8-0.1-1.2-0.2c0-0.1,0-0.2,0-0.3c0.4,0.1,0.8,0.1,1.2,0.2
				C20.1,69.3,20.1,69.4,20.1,69.5z M17.7,69.1c-0.4-0.1-0.8-0.1-1.2-0.2c0-0.1,0-0.2,0-0.3c0.4,0.1,0.8,0.1,1.2,0.2
				C17.7,68.9,17.7,69,17.7,69.1z"/>
		</g>
		<g>
			<radialGradient id="SVGID_107_" cx="50.6685" cy="83.6658" r="24.1964" gradientUnits="userSpaceOnUse">
				<stop  offset="0" style="stop-color:#D4EFFC"/>
				<stop  offset="1" style="stop-color:#6FBCE9"/>
			</radialGradient>
			<path class="st110" d="M84.9,82.5c-0.4,0.1-0.8,0.1-1.2,0.2c0-0.1,0-0.2,0-0.3c0.4-0.1,0.8-0.1,1.2-0.2
				C84.9,82.3,84.9,82.4,84.9,82.5z M82.5,82.8c-0.4,0.1-0.8,0.1-1.2,0.2c0-0.1,0-0.2,0-0.3c0.4-0.1,0.8-0.1,1.2-0.2
				C82.5,82.6,82.5,82.7,82.5,82.8z M80.1,83.2c-0.4,0.1-0.8,0.1-1.2,0.2c0-0.1,0-0.2,0-0.3c0.4-0.1,0.8-0.1,1.2-0.2
				C80.1,83,80.1,83.1,80.1,83.2z M77.7,83.5c-0.4,0.1-0.8,0.1-1.2,0.1c0-0.1,0-0.2,0-0.3c0.4,0,0.8-0.1,1.2-0.1
				C77.7,83.3,77.7,83.4,77.7,83.5z M75.3,83.8c-0.4,0-0.8,0.1-1.2,0.1c0-0.1,0-0.2,0-0.3c0.4,0,0.8-0.1,1.2-0.1
				C75.3,83.6,75.3,83.7,75.3,83.8z M72.9,84c-0.4,0-0.8,0.1-1.2,0.1c0-0.1,0-0.2,0-0.3c0.4,0,0.8-0.1,1.2-0.1
				C72.9,83.8,72.9,83.9,72.9,84z M70.5,84.3c-0.4,0-0.8,0.1-1.2,0.1c0-0.1,0-0.2,0-0.3c0.4,0,0.8-0.1,1.2-0.1
				C70.5,84.1,70.5,84.2,70.5,84.3z M68.1,84.5c-0.4,0-0.8,0.1-1.2,0.1c0-0.1,0-0.2,0-0.3c0.4,0,0.8-0.1,1.2-0.1
				C68.1,84.3,68.1,84.4,68.1,84.5z M65.7,84.7c-0.4,0-0.8,0.1-1.2,0.1c0-0.1,0-0.2,0-0.3c0.4,0,0.8-0.1,1.2-0.1
				C65.7,84.5,65.7,84.6,65.7,84.7z M63.3,84.8c-0.4,0-0.8,0-1.2,0.1c0-0.1,0-0.2,0-0.3c0.4,0,0.8,0,1.2-0.1
				C63.3,84.6,63.3,84.7,63.3,84.8z M60.9,85c-0.4,0-0.8,0-1.2,0.1c0-0.1,0-0.2,0-0.3c0.4,0,0.8,0,1.2-0.1
				C60.9,84.8,60.9,84.9,60.9,85z M58.5,85.1c-0.4,0-0.8,0-1.2,0c0-0.1,0-0.2,0-0.3c0.4,0,0.8,0,1.2,0C58.5,84.9,58.5,85,58.5,85.1z
				 M56.1,85.1c-0.4,0-0.8,0-1.2,0c0-0.1,0-0.2,0-0.3c0.4,0,0.8,0,1.2,0C56.1,84.9,56.1,85,56.1,85.1z M53.7,85.2
				c-0.4,0-0.8,0-1.2,0c0-0.1,0-0.2,0-0.3c0.4,0,0.8,0,1.2,0C53.7,85,53.7,85.1,53.7,85.2z M51.3,85.2c-0.4,0-0.8,0-1.2,0
				c0-0.1,0-0.2,0-0.3c0.4,0,0.8,0,1.2,0C51.3,85,51.3,85.1,51.3,85.2z M48.9,85.2c-0.4,0-0.8,0-1.2,0c0-0.1,0-0.2,0-0.3
				c0.4,0,0.8,0,1.2,0C48.9,85,48.9,85.1,48.9,85.2z M46.5,85.2c-0.4,0-0.8,0-1.2,0c0-0.1,0-0.2,0-0.3c0.4,0,0.8,0,1.2,0
				C46.5,85,46.5,85.1,46.5,85.2z M44.1,85.1c-0.4,0-0.8,0-1.2,0c0-0.1,0-0.2,0-0.3c0.4,0,0.8,0,1.2,0C44.1,84.9,44.1,85,44.1,85.1z
				 M41.6,85c-0.4,0-0.8,0-1.2-0.1c0-0.1,0-0.2,0-0.3c0.4,0,0.8,0,1.2,0.1C41.6,84.8,41.6,84.9,41.6,85z M39.2,84.9
				c-0.4,0-0.8,0-1.2-0.1c0-0.1,0-0.2,0-0.3c0.4,0,0.8,0,1.2,0.1C39.2,84.7,39.2,84.8,39.2,84.9z M36.8,84.7c-0.4,0-0.8-0.1-1.2-0.1
				c0-0.1,0-0.2,0-0.3c0.4,0,0.8,0.1,1.2,0.1C36.8,84.5,36.8,84.6,36.8,84.7z M34.4,84.6c-0.4,0-0.8-0.1-1.2-0.1c0-0.1,0-0.2,0-0.3
				c0.4,0,0.8,0.1,1.2,0.1C34.4,84.4,34.4,84.5,34.4,84.6z M32,84.4c-0.4,0-0.8-0.1-1.2-0.1c0-0.1,0-0.2,0-0.3
				c0.4,0,0.8,0.1,1.2,0.1C32,84.2,32,84.3,32,84.4z M29.6,84.2c-0.4,0-0.8-0.1-1.2-0.1c0-0.1,0-0.2,0-0.3c0.4,0,0.8,0.1,1.2,0.1
				C29.6,84,29.6,84.1,29.6,84.2z M27.2,83.9c-0.4,0-0.8-0.1-1.2-0.1c0-0.1,0-0.2,0-0.3c0.4,0,0.8,0.1,1.2,0.1
				C27.2,83.7,27.2,83.8,27.2,83.9z M24.8,83.6c-0.4,0-0.8-0.1-1.2-0.1c0-0.1,0-0.2,0-0.3c0.4,0.1,0.8,0.1,1.2,0.1
				C24.8,83.4,24.8,83.5,24.8,83.6z M22.5,83.3c-0.4-0.1-0.8-0.1-1.2-0.2c0-0.1,0-0.2,0-0.3c0.4,0.1,0.8,0.1,1.2,0.2
				C22.5,83.1,22.5,83.2,22.5,83.3z M20.1,83c-0.4-0.1-0.8-0.1-1.2-0.2c0-0.1,0-0.2,0-0.3c0.4,0.1,0.8,0.1,1.2,0.2
				C20.1,82.8,20.1,82.9,20.1,83z M17.7,82.6c-0.4-0.1-0.8-0.1-1.2-0.2c0-0.1,0-0.2,0-0.3c0.4,0.1,0.8,0.1,1.2,0.2
				C17.7,82.4,17.7,82.5,17.7,82.6z"/>
		</g>
		<radialGradient id="SVGID_108_" cx="55.618" cy="77.0501" r="27.2656" gradientUnits="userSpaceOnUse">
			<stop  offset="0" style="stop-color:#D4EFFC"/>
			<stop  offset="1" style="stop-color:#6FBCE9"/>
		</radialGradient>
		<path class="st111" d="M18.9,75c0,0,0.1,0,0.1,0.1l1.2,1.2h0l0,0h0h0h0h0L19,77.4c0,0-0.1,0.1-0.1,0.1c-0.3,0.1-0.6,0-0.7-0.2
			c-0.1-0.2-0.1-0.3,0-0.5c-0.3,0-0.5-0.2-0.5-0.5s0.2-0.5,0.5-0.5c-0.1-0.1-0.1-0.3,0-0.5C18.4,74.9,18.7,74.8,18.9,75z"/>
		<radialGradient id="SVGID_109_" cx="55.6179" cy="77.0498" r="27.2653" gradientUnits="userSpaceOnUse">
			<stop  offset="0" style="stop-color:#D4EFFC"/>
			<stop  offset="1" style="stop-color:#6FBCE9"/>
		</radialGradient>
		<path class="st112" d="M82.9,77.4c0,0-0.1,0-0.1-0.1l-1.2-1.2h0h0h0l0,0h0h0l1.2-1.2c0,0,0.1-0.1,0.1-0.1c0.3-0.1,0.6,0,0.7,0.2
			c0.1,0.2,0.1,0.3,0,0.5c0.3,0,0.5,0.2,0.5,0.5c0,0.3-0.2,0.5-0.5,0.5c0.1,0.1,0.1,0.3,0,0.5C83.5,77.5,83.2,77.6,82.9,77.4z"/>
	</g>
	<g>
		<path class="st25" d="M25.2,74.6h1.7c1.1,0,1.9,0.4,1.9,1.6c0,1.1-0.8,1.6-1.9,1.6h-0.8v1.8h-0.9V74.6z M26.9,77
			c0.7,0,1.1-0.3,1.1-0.9c0-0.6-0.4-0.8-1.1-0.8h-0.7V77H26.9z"/>
		<path class="st25" d="M32.5,79.6l-1.1-2h-0.8v2h-0.9v-5h1.7c1,0,1.8,0.4,1.8,1.5c0,0.8-0.4,1.2-1,1.4l1.2,2.1H32.5z M30.7,76.9
			h0.7c0.7,0,1.1-0.3,1.1-0.9c0-0.6-0.4-0.8-1.1-0.8h-0.7V76.9z"/>
		<path class="st25" d="M34.1,77.1c0-1.6,0.9-2.6,2.2-2.6c1.3,0,2.2,1,2.2,2.6c0,1.6-0.9,2.6-2.2,2.6C35,79.7,34.1,78.7,34.1,77.1z
			 M37.6,77.1c0-1.1-0.5-1.8-1.3-1.8S35,76,35,77.1c0,1.1,0.5,1.9,1.3,1.9S37.6,78.2,37.6,77.1z"/>
		<path class="st25" d="M39.5,74.6h3v0.8h-2.1v1.4h1.8v0.8h-1.8v2.1h-0.9V74.6z"/>
		<path class="st25" d="M43.5,74.6h3v0.8h-2.1v1.3h1.8v0.8h-1.8v1.5h2.2v0.8h-3.1V74.6z"/>
		<path class="st25" d="M47.8,78.4c0.4,0.3,0.8,0.6,1.3,0.6c0.6,0,0.9-0.3,0.9-0.6c0-0.4-0.3-0.5-0.8-0.7l-0.7-0.3
			c-0.5-0.2-1-0.6-1-1.3c0-0.8,0.7-1.4,1.7-1.4c0.6,0,1.2,0.2,1.5,0.6l-0.5,0.6c-0.3-0.3-0.7-0.4-1.1-0.4c-0.5,0-0.8,0.2-0.8,0.6
			c0,0.4,0.4,0.5,0.8,0.7l0.7,0.3c0.6,0.3,1,0.6,1,1.4c0,0.8-0.7,1.5-1.8,1.5c-0.7,0-1.3-0.3-1.8-0.7L47.8,78.4z"/>
		<path class="st25" d="M51.8,78.4c0.4,0.3,0.8,0.6,1.3,0.6c0.6,0,0.9-0.3,0.9-0.6c0-0.4-0.3-0.5-0.8-0.7l-0.7-0.3
			c-0.5-0.2-1-0.6-1-1.3c0-0.8,0.7-1.4,1.7-1.4c0.6,0,1.2,0.2,1.5,0.6l-0.5,0.6c-0.3-0.3-0.7-0.4-1.1-0.4c-0.5,0-0.8,0.2-0.8,0.6
			c0,0.4,0.4,0.5,0.8,0.7l0.7,0.3c0.6,0.3,1,0.6,1,1.4c0,0.8-0.7,1.5-1.8,1.5c-0.7,0-1.3-0.3-1.8-0.7L51.8,78.4z"/>
		<path class="st25" d="M55.8,74.6h0.9v5h-0.9V74.6z"/>
		<path class="st25" d="M57.7,77.1c0-1.6,0.9-2.6,2.2-2.6c1.3,0,2.2,1,2.2,2.6c0,1.6-0.9,2.6-2.2,2.6C58.6,79.7,57.7,78.7,57.7,77.1
			z M61.2,77.1c0-1.1-0.5-1.8-1.3-1.8c-0.8,0-1.3,0.7-1.3,1.8c0,1.1,0.5,1.9,1.3,1.9C60.7,78.9,61.2,78.2,61.2,77.1z"/>
		<path class="st25" d="M63.1,74.6h0.9l1.6,2.8l0.5,1.1h0c0-0.5-0.1-1.2-0.1-1.7v-2.2h0.9v5H66l-1.6-2.8l-0.5-1.1h0
			c0,0.5,0.1,1.1,0.1,1.7v2.2h-0.9V74.6z"/>
		<path class="st25" d="M70.5,78.2h-1.7l-0.4,1.4h-0.9l1.6-5h1l1.6,5h-0.9L70.5,78.2z M70.3,77.5l-0.2-0.6c-0.2-0.5-0.3-1.1-0.5-1.7
			h0c-0.1,0.6-0.3,1.1-0.4,1.7L69,77.5H70.3z"/>
		<path class="st25" d="M72.5,74.6h0.9v4.3h2.1v0.8h-3V74.6z"/>
	</g>
</g>
</svg>
