<?xml version="1.0" encoding="utf-8"?>
<!-- Generator: Adobe Illustrator 25.0.0, SVG Export Plug-In . SVG Version: 6.00 Build 0)  -->
<svg version="1.1" id="Layer_1" xmlns="http://www.w3.org/2000/svg" xmlns:xlink="http://www.w3.org/1999/xlink" x="0px" y="0px"
	 viewBox="0 0 100 100" style="enable-background:new 0 0 100 100;" xml:space="preserve">
<style type="text/css">
	.st0{fill:url(#SVGID_1_);}
	.st1{fill:#EDEDEE;}
	.st2{fill:url(#SVGID_2_);}
	.st3{fill:url(#SVGID_3_);}
	.st4{fill:url(#SVGID_4_);}
	.st5{fill:url(#SVGID_5_);}
	.st6{fill:url(#SVGID_6_);}
	.st7{fill:url(#SVGID_7_);}
	.st8{fill:url(#SVGID_8_);}
	.st9{fill:url(#SVGID_9_);}
	.st10{fill:url(#SVGID_10_);}
	.st11{fill:url(#SVGID_11_);}
	.st12{fill:url(#SVGID_12_);}
	.st13{fill:url(#SVGID_13_);}
	.st14{fill:url(#SVGID_14_);}
	.st15{fill:url(#SVGID_15_);}
	.st16{fill:url(#SVGID_16_);}
	.st17{fill:url(#SVGID_17_);}
	.st18{fill:url(#SVGID_18_);}
	.st19{fill:url(#SVGID_19_);}
	.st20{fill:url(#SVGID_20_);}
	.st21{fill:url(#SVGID_21_);}
	.st22{fill:url(#SVGID_22_);}
	.st23{fill:url(#SVGID_23_);}
	.st24{fill:#022B45;}
	.st25{fill:#FFFFFF;}
	.st26{filter:url(#Adobe_OpacityMaskFilter);}
	.st27{filter:url(#Adobe_OpacityMaskFilter_1_);}
	.st28{mask:url(#SVGID_24_);fill:url(#SVGID_25_);}
	.st29{opacity:0.33;fill:url(#SVGID_26_);}
	.st30{fill:url(#SVGID_27_);}
	.st31{fill:url(#SVGID_28_);}
	.st32{fill:url(#SVGID_29_);}
	.st33{fill:url(#SVGID_30_);}
	.st34{fill:url(#SVGID_31_);}
	.st35{fill:url(#SVGID_32_);}
	.st36{fill:url(#SVGID_33_);}
	.st37{fill:url(#SVGID_34_);}
	.st38{fill:url(#SVGID_35_);}
	.st39{fill:url(#SVGID_36_);}
	.st40{fill:url(#SVGID_37_);}
	.st41{fill:url(#SVGID_38_);}
	.st42{fill:url(#SVGID_39_);}
	.st43{fill:url(#SVGID_40_);}
	.st44{fill:url(#SVGID_41_);}
	.st45{fill:url(#SVGID_42_);}
	.st46{fill:url(#SVGID_43_);}
	.st47{fill:url(#SVGID_44_);}
	.st48{fill:url(#SVGID_45_);}
	.st49{fill:url(#SVGID_46_);}
	.st50{fill:url(#SVGID_47_);}
	.st51{fill:url(#SVGID_48_);}
	.st52{fill:url(#SVGID_49_);}
	.st53{fill:url(#SVGID_50_);}
	.st54{fill:url(#SVGID_51_);}
	.st55{fill:url(#SVGID_52_);}
	.st56{fill:url(#SVGID_53_);}
	.st57{fill:url(#SVGID_54_);}
	.st58{fill:url(#SVGID_55_);}
	.st59{fill:url(#SVGID_56_);}
	.st60{fill:url(#SVGID_57_);}
	.st61{fill:url(#SVGID_58_);}
	.st62{fill:url(#SVGID_59_);}
	.st63{fill:url(#SVGID_60_);}
	.st64{fill:url(#SVGID_61_);}
	.st65{fill:url(#SVGID_62_);}
	.st66{fill:url(#SVGID_63_);}
	.st67{fill:url(#SVGID_64_);}
	.st68{fill:url(#SVGID_65_);}
	.st69{fill:url(#SVGID_66_);}
	.st70{fill:url(#SVGID_67_);}
	.st71{fill:url(#SVGID_68_);}
	.st72{fill:url(#SVGID_69_);}
	.st73{fill:url(#SVGID_70_);}
	.st74{fill:url(#SVGID_71_);}
	.st75{fill:url(#SVGID_72_);}
	.st76{fill:url(#SVGID_73_);}
	.st77{fill:url(#SVGID_74_);}
	.st78{fill:url(#SVGID_75_);}
	.st79{fill:url(#SVGID_76_);}
	.st80{fill:url(#SVGID_77_);}
	.st81{fill:url(#SVGID_78_);}
	.st82{fill:url(#SVGID_79_);}
	.st83{fill:url(#SVGID_80_);}
	.st84{fill:url(#SVGID_81_);}
	.st85{fill:url(#SVGID_82_);}
	.st86{fill:url(#SVGID_83_);}
	.st87{fill:url(#SVGID_84_);}
	.st88{fill:url(#SVGID_85_);}
	.st89{fill:url(#SVGID_86_);}
	.st90{fill:url(#SVGID_87_);}
	.st91{fill:url(#SVGID_88_);}
	.st92{fill:url(#SVGID_89_);}
	.st93{fill:url(#SVGID_90_);}
	.st94{fill:url(#SVGID_91_);}
	.st95{fill:url(#SVGID_92_);}
	.st96{fill:url(#SVGID_93_);}
	.st97{fill:url(#SVGID_94_);}
	.st98{fill:url(#SVGID_95_);}
	.st99{fill:url(#SVGID_96_);}
	.st100{fill:url(#SVGID_97_);}
	.st101{fill:url(#SVGID_98_);}
	.st102{fill-rule:evenodd;clip-rule:evenodd;fill:url(#SVGID_99_);}
	.st103{fill-rule:evenodd;clip-rule:evenodd;fill:url(#SVGID_100_);}
	.st104{fill-rule:evenodd;clip-rule:evenodd;fill:url(#SVGID_101_);}
	.st105{fill-rule:evenodd;clip-rule:evenodd;fill:url(#SVGID_102_);}
	.st106{fill-rule:evenodd;clip-rule:evenodd;fill:url(#SVGID_103_);}
	.st107{fill-rule:evenodd;clip-rule:evenodd;fill:url(#SVGID_104_);}
	.st108{fill-rule:evenodd;clip-rule:evenodd;fill:url(#SVGID_105_);}
	.st109{fill:url(#SVGID_106_);}
	.st110{fill:url(#SVGID_107_);}
	.st111{fill:url(#SVGID_108_);}
	.st112{fill-rule:evenodd;clip-rule:evenodd;fill:url(#SVGID_109_);}
	.st113{fill-rule:evenodd;clip-rule:evenodd;fill:url(#SVGID_110_);}
</style>
<g>
	<radialGradient id="SVGID_1_" cx="50.0811" cy="35.3932" r="35.998" gradientUnits="userSpaceOnUse">
		<stop  offset="3.067480e-02" style="stop-color:#4A95D0"/>
		<stop  offset="1" style="stop-color:#005183"/>
	</radialGradient>
	<path class="st0" d="M76,67H24.2c-2.9,0-5.3-2.4-5.3-5.3L10.2,9.1c0-2.9,2.4-5.3,5.3-5.3h69.3c2.9,0,5.3,2.4,5.3,5.3l-8.8,52.7
		C81.2,64.6,78.9,67,76,67z"/>
	<g>
		<g>
			<path class="st1" d="M22,7.2h2.2c1.3,0,2.4,0.4,2.4,1.6c0,0.6-0.3,1.2-1.1,1.4v0c0.9,0.2,1.4,0.6,1.4,1.5c0,1.3-1.1,1.9-2.5,1.9
				H22V7.2z M24.2,9.7c0.7,0,1-0.3,1-0.8s-0.3-0.7-1-0.7h-0.7v1.4H24.2z M24.3,12.3c0.8,0,1.2-0.3,1.2-0.9c0-0.5-0.4-0.8-1.2-0.8
				h-0.8v1.6H24.3z"/>
			<path class="st1" d="M31.1,11.9h-2l-0.4,1.5h-1.5l2-6.3H31l2,6.3h-1.6L31.1,11.9z M30.8,10.8l-0.1-0.6c-0.2-0.6-0.4-1.4-0.5-2h0
				c-0.2,0.7-0.3,1.4-0.5,2l-0.2,0.6H30.8z"/>
			<path class="st1" d="M36.5,7c0.8,0,1.5,0.4,1.9,0.8l-0.8,0.9c-0.3-0.3-0.6-0.5-1.1-0.5c-0.9,0-1.6,0.8-1.6,2c0,1.3,0.6,2,1.6,2
				c0.5,0,0.9-0.2,1.2-0.6l0.8,0.9c-0.5,0.6-1.3,0.9-2.1,0.9c-1.7,0-3.1-1.1-3.1-3.2C33.4,8.3,34.8,7,36.5,7z"/>
			<path class="st1" d="M39.5,7.2H41v2.6h0l1.9-2.6h1.6l-2,2.5l2.3,3.8h-1.6l-1.6-2.7l-0.8,1v1.7h-1.5V7.2z"/>
			<path class="st1" d="M47.4,10.3c0-2.1,1.2-3.2,3-3.2s3,1.2,3,3.2c0,2.1-1.2,3.3-3,3.3S47.4,12.3,47.4,10.3z M51.8,10.3
				c0-1.3-0.6-2-1.4-2s-1.4,0.8-1.4,2c0,1.3,0.6,2.1,1.4,2.1S51.8,11.5,51.8,10.3z"/>
			<path class="st1" d="M54.5,7.2h4.1v1.2H56v1.5h2.3V11H56v2.4h-1.5V7.2z"/>
			<path class="st1" d="M59.8,7.2h4.1v1.2h-2.6v1.5h2.3V11h-2.3v2.4h-1.5V7.2z"/>
			<path class="st1" d="M65,7.2h1.5v6.3H65V7.2z"/>
			<path class="st1" d="M70.8,7c0.8,0,1.5,0.4,1.9,0.8l-0.8,0.9c-0.3-0.3-0.6-0.5-1.1-0.5c-0.9,0-1.6,0.8-1.6,2c0,1.3,0.6,2,1.6,2
				c0.5,0,0.9-0.2,1.2-0.6l0.8,0.9c-0.5,0.6-1.3,0.9-2.1,0.9c-1.7,0-3.1-1.1-3.1-3.2C67.7,8.3,69.1,7,70.8,7z"/>
			<path class="st1" d="M73.8,7.2h4.1v1.2h-2.6v1.3h2.2v1.2h-2.2v1.4H78v1.2h-4.2V7.2z"/>
		</g>
	</g>
	<g>
		<linearGradient id="SVGID_2_" gradientUnits="userSpaceOnUse" x1="7.5578" y1="70.2966" x2="20.0396" y2="70.2966">
			<stop  offset="0" style="stop-color:#0E4066"/>
			<stop  offset="1" style="stop-color:#00609D"/>
		</linearGradient>
		<path class="st2" d="M7.6,62c0,0,0.4,0.2,1,0.4c1.8,0.7,8.4,2,11.5,0V78c0,0-8.2,2-12.5-1c0,0,3-3,4.2-6.4
			C11.7,70.6,10.5,68.7,7.6,62z"/>
		<g>
			<g>
				<radialGradient id="SVGID_3_" cx="14.4283" cy="74.2239" r="21.1323" gradientUnits="userSpaceOnUse">
					<stop  offset="0" style="stop-color:#D4EFFC"/>
					<stop  offset="1" style="stop-color:#6FBCE9"/>
				</radialGradient>
				<path class="st3" d="M9.7,77c-0.1,0-0.3-0.1-0.4-0.1l-0.2-0.1l0.2-0.2c0.1-0.1,0.2-0.2,0.2-0.3l0.3,0.2c0,0,0,0.1-0.1,0.1
					c0,0,0.1,0,0.1,0L9.7,77z"/>
			</g>
			<g>
				<radialGradient id="SVGID_4_" cx="14.4287" cy="74.2223" r="21.1389" gradientUnits="userSpaceOnUse">
					<stop  offset="0" style="stop-color:#D4EFFC"/>
					<stop  offset="1" style="stop-color:#6FBCE9"/>
				</radialGradient>
				<path class="st4" d="M10.3,75.9L10,75.7c0.1-0.2,0.3-0.4,0.4-0.6l0.3,0.2C10.6,75.5,10.4,75.7,10.3,75.9z M11.1,74.7l-0.3-0.2
					c0.1-0.2,0.3-0.4,0.4-0.6l0.3,0.2C11.4,74.3,11.2,74.5,11.1,74.7z M11.9,73.5l-0.3-0.2c0.1-0.2,0.2-0.4,0.3-0.6l0.3,0.2
					C12.1,73.1,12,73.3,11.9,73.5z M12.5,72.2L12.2,72c0.1-0.2,0.2-0.4,0.3-0.7l0.4,0.1C12.7,71.8,12.6,72,12.5,72.2z"/>
			</g>
			<g>
				<radialGradient id="SVGID_5_" cx="14.4285" cy="74.2227" r="21.1416" gradientUnits="userSpaceOnUse">
					<stop  offset="0" style="stop-color:#D4EFFC"/>
					<stop  offset="1" style="stop-color:#6FBCE9"/>
				</radialGradient>
				<polygon class="st5" points="13.1,70.8 12.7,70.7 12.8,70.4 12.6,70.2 13,70 13.2,70.4 				"/>
			</g>
			<g>
				<radialGradient id="SVGID_6_" cx="14.4287" cy="74.2208" r="21.1353" gradientUnits="userSpaceOnUse">
					<stop  offset="0" style="stop-color:#D4EFFC"/>
					<stop  offset="1" style="stop-color:#6FBCE9"/>
				</radialGradient>
				<path class="st6" d="M12.3,69.6c-0.1-0.2-0.2-0.4-0.3-0.6l0.3-0.2c0.1,0.3,0.2,0.5,0.3,0.6L12.3,69.6z M11.6,68.3
					c-0.1-0.2-0.2-0.4-0.3-0.6l0.3-0.2c0.1,0.2,0.2,0.4,0.3,0.6L11.6,68.3z M11,67c-0.1-0.2-0.2-0.4-0.3-0.6l0.4-0.2
					c0.1,0.2,0.2,0.4,0.3,0.6L11,67z M10.3,65.7c-0.1-0.2-0.2-0.4-0.3-0.6l0.4-0.2c0.1,0.2,0.2,0.4,0.3,0.6L10.3,65.7z"/>
			</g>
			<g>
				<radialGradient id="SVGID_7_" cx="14.4289" cy="74.2129" r="21.1223" gradientUnits="userSpaceOnUse">
					<stop  offset="0" style="stop-color:#D4EFFC"/>
					<stop  offset="1" style="stop-color:#6FBCE9"/>
				</radialGradient>
				<path class="st7" d="M9.7,64.4l-0.3-0.7l0.4,0.1c0.1,0,0.2,0.1,0.4,0.1l-0.1,0.4l0,0l0,0c0,0,0,0,0,0L9.7,64.4z"/>
			</g>
			<g>
				<radialGradient id="SVGID_8_" cx="14.4284" cy="74.2168" r="21.1281" gradientUnits="userSpaceOnUse">
					<stop  offset="0" style="stop-color:#D4EFFC"/>
					<stop  offset="1" style="stop-color:#6FBCE9"/>
				</radialGradient>
				<path class="st8" d="M15.5,64.9l0-0.4c0.3,0,0.5,0,0.8,0l0,0.4C16,64.9,15.7,64.9,15.5,64.9z M14.7,64.9c-0.3,0-0.5,0-0.8,0
					l0-0.4c0.3,0,0.5,0,0.8,0L14.7,64.9z M17,64.8l0-0.4c0.3,0,0.5-0.1,0.7-0.1l0.1,0.4C17.5,64.7,17.3,64.7,17,64.8z M13.1,64.8
					c-0.3,0-0.5-0.1-0.8-0.1l0-0.4c0.2,0,0.5,0.1,0.8,0.1L13.1,64.8z M11.6,64.6c-0.3,0-0.5-0.1-0.8-0.1l0.1-0.4
					c0.2,0,0.5,0.1,0.7,0.1L11.6,64.6z"/>
			</g>
			<g>
				<radialGradient id="SVGID_9_" cx="14.4288" cy="74.2215" r="21.1373" gradientUnits="userSpaceOnUse">
					<stop  offset="0" style="stop-color:#D4EFFC"/>
					<stop  offset="1" style="stop-color:#6FBCE9"/>
				</radialGradient>
				<path class="st9" d="M19.1,64.6h-0.4v-0.1c0,0-0.1,0-0.1,0l-0.1-0.4c0.1,0,0.2-0.1,0.4-0.1l0.2-0.1V64.6z"/>
			</g>
			<g>
				<radialGradient id="SVGID_10_" cx="14.4286" cy="74.2222" r="21.1378" gradientUnits="userSpaceOnUse">
					<stop  offset="0" style="stop-color:#D4EFFC"/>
					<stop  offset="1" style="stop-color:#6FBCE9"/>
				</radialGradient>
				<path class="st10" d="M19.1,75.8h-0.4V75h0.4V75.8z M19.1,74.2h-0.4v-0.8h0.4V74.2z M19.1,72.6h-0.4v-0.8h0.4V72.6z M19.1,71
					h-0.4v-0.8h0.4V71z M19.1,69.4h-0.4v-0.8h0.4V69.4z M19.1,67.8h-0.4V67h0.4V67.8z M19.1,66.2h-0.4v-0.8h0.4V66.2z"/>
			</g>
			<g>
				<radialGradient id="SVGID_11_" cx="14.4288" cy="74.2227" r="21.1347" gradientUnits="userSpaceOnUse">
					<stop  offset="0" style="stop-color:#D4EFFC"/>
					<stop  offset="1" style="stop-color:#6FBCE9"/>
				</radialGradient>
				<path class="st11" d="M18.5,77.3l-0.1-0.4c0.1,0,0.2,0,0.2,0v-0.2h0.4v0.6l-0.2,0C18.8,77.2,18.7,77.2,18.5,77.3z"/>
			</g>
			<g>
				<radialGradient id="SVGID_12_" cx="14.4283" cy="74.2216" r="21.1385" gradientUnits="userSpaceOnUse">
					<stop  offset="0" style="stop-color:#D4EFFC"/>
					<stop  offset="1" style="stop-color:#6FBCE9"/>
				</radialGradient>
				<path class="st12" d="M14.3,77.6c-0.2,0-0.4,0-0.6,0l0-0.4c0.2,0,0.4,0,0.5,0l0.2,0l0,0.4L14.3,77.6z M15.3,77.6l0-0.4
					c0.3,0,0.5,0,0.8,0l0,0.4C15.9,77.6,15.6,77.6,15.3,77.6z M12.9,77.6c-0.3,0-0.5,0-0.8-0.1l0-0.4c0.3,0,0.5,0.1,0.8,0.1
					L12.9,77.6z M16.9,77.5l0-0.4c0.3,0,0.5-0.1,0.8-0.1l0.1,0.4C17.5,77.4,17.2,77.5,16.9,77.5z M11.3,77.4
					c-0.3-0.1-0.5-0.1-0.8-0.2l0.1-0.4c0.2,0.1,0.5,0.1,0.8,0.2L11.3,77.4z"/>
			</g>
		</g>
	</g>
	<g>
		
			<linearGradient id="SVGID_13_" gradientUnits="userSpaceOnUse" x1="1034.8879" y1="70.2966" x2="1047.371" y2="70.2966" gradientTransform="matrix(-1 0 0 1 1127.3301 0)">
			<stop  offset="0" style="stop-color:#0E4066"/>
			<stop  offset="1" style="stop-color:#00609D"/>
		</linearGradient>
		<path class="st13" d="M92.4,62c0,0-0.4,0.2-1,0.4c-1.8,0.7-8.4,2-11.5,0V78c0,0,8.2,2,12.5-1c0,0-3-3-4.2-6.4
			C88.3,70.6,89.5,68.7,92.4,62z"/>
		<g>
			<g>
				<radialGradient id="SVGID_14_" cx="92.8313" cy="73.2027" r="12.8805" gradientUnits="userSpaceOnUse">
					<stop  offset="0" style="stop-color:#D4EFFC"/>
					<stop  offset="1" style="stop-color:#6FBCE9"/>
				</radialGradient>
				<path class="st14" d="M90.3,77c0.1,0,0.3-0.1,0.4-0.1l0.2-0.1l-0.2-0.2c-0.1-0.1-0.2-0.2-0.2-0.3l-0.3,0.2c0,0,0.1,0.1,0.1,0.1
					c0,0-0.1,0-0.1,0L90.3,77z"/>
			</g>
			<g>
				<radialGradient id="SVGID_15_" cx="92.831" cy="73.2001" r="12.8887" gradientUnits="userSpaceOnUse">
					<stop  offset="0" style="stop-color:#D4EFFC"/>
					<stop  offset="1" style="stop-color:#6FBCE9"/>
				</radialGradient>
				<path class="st15" d="M89.3,75.3l0.3-0.2c0.1,0.2,0.3,0.4,0.4,0.6l-0.3,0.2C89.6,75.7,89.4,75.5,89.3,75.3z M88.5,74.1l0.3-0.2
					c0.1,0.2,0.3,0.4,0.4,0.6l-0.3,0.2C88.8,74.5,88.6,74.3,88.5,74.1z M87.8,72.9l0.3-0.2c0.1,0.2,0.2,0.4,0.3,0.6l-0.3,0.2
					C88,73.3,87.9,73.1,87.8,72.9z M87.2,71.5l0.4-0.1c0.1,0.2,0.2,0.4,0.3,0.7l-0.4,0.2C87.4,72,87.3,71.8,87.2,71.5z"/>
			</g>
			<g>
				<radialGradient id="SVGID_16_" cx="92.831" cy="73.2004" r="12.889" gradientUnits="userSpaceOnUse">
					<stop  offset="0" style="stop-color:#D4EFFC"/>
					<stop  offset="1" style="stop-color:#6FBCE9"/>
				</radialGradient>
				<polygon class="st16" points="86.9,70.8 87.3,70.7 87.2,70.4 87.4,70.2 87,70 86.8,70.4 				"/>
			</g>
			<g>
				<radialGradient id="SVGID_17_" cx="92.8311" cy="73.1989" r="12.8875" gradientUnits="userSpaceOnUse">
					<stop  offset="0" style="stop-color:#D4EFFC"/>
					<stop  offset="1" style="stop-color:#6FBCE9"/>
				</radialGradient>
				<path class="st17" d="M87.4,69.4c0.1-0.2,0.2-0.4,0.3-0.6l0.3,0.2c-0.1,0.3-0.2,0.5-0.3,0.6L87.4,69.4z M88.1,68.1
					c0.1-0.2,0.2-0.4,0.3-0.6l0.3,0.2c-0.1,0.2-0.2,0.4-0.3,0.6L88.1,68.1z M88.7,66.9c0.1-0.2,0.2-0.4,0.3-0.6l0.4,0.2
					c-0.1,0.2-0.2,0.4-0.3,0.6L88.7,66.9z M89.3,65.6c0.1-0.2,0.2-0.4,0.3-0.6l0.4,0.2c-0.1,0.2-0.2,0.4-0.3,0.6L89.3,65.6z"/>
			</g>
			<g>
				<radialGradient id="SVGID_18_" cx="92.8308" cy="73.1917" r="12.8779" gradientUnits="userSpaceOnUse">
					<stop  offset="0" style="stop-color:#D4EFFC"/>
					<stop  offset="1" style="stop-color:#6FBCE9"/>
				</radialGradient>
				<path class="st18" d="M90.3,64.4l0.3-0.7l-0.4,0.1c-0.1,0-0.2,0.1-0.4,0.1l0.1,0.4l0,0l0,0c0,0,0,0,0,0L90.3,64.4z"/>
			</g>
			<g>
				<radialGradient id="SVGID_19_" cx="92.8308" cy="73.1953" r="12.8797" gradientUnits="userSpaceOnUse">
					<stop  offset="0" style="stop-color:#D4EFFC"/>
					<stop  offset="1" style="stop-color:#6FBCE9"/>
				</radialGradient>
				<path class="st19" d="M83.8,64.8l0-0.4c0.2,0,0.5,0,0.8,0l0,0.4C84.3,64.9,84,64.9,83.8,64.8z M85.3,64.5c0.3,0,0.5,0,0.8,0
					l0,0.4c-0.3,0-0.5,0-0.8,0L85.3,64.5z M82.2,64.7l0.1-0.4c0.2,0,0.5,0.1,0.7,0.1l0,0.4C82.7,64.7,82.5,64.7,82.2,64.7z
					 M86.8,64.4c0.3,0,0.5-0.1,0.8-0.1l0,0.4c-0.3,0-0.5,0.1-0.8,0.1L86.8,64.4z M88.3,64.2c0.3,0,0.5-0.1,0.7-0.1l0.1,0.4
					c-0.2,0-0.5,0.1-0.8,0.1L88.3,64.2z"/>
			</g>
			<g>
				<radialGradient id="SVGID_20_" cx="92.8306" cy="73.1994" r="12.8883" gradientUnits="userSpaceOnUse">
					<stop  offset="0" style="stop-color:#D4EFFC"/>
					<stop  offset="1" style="stop-color:#6FBCE9"/>
				</radialGradient>
				<path class="st20" d="M80.9,64.6h0.4v-0.1c0,0,0.1,0,0.1,0l0.1-0.4c-0.1,0-0.2-0.1-0.4-0.1L80.9,64V64.6z"/>
			</g>
			<g>
				<radialGradient id="SVGID_21_" cx="92.8307" cy="73.2001" r="12.8884" gradientUnits="userSpaceOnUse">
					<stop  offset="0" style="stop-color:#D4EFFC"/>
					<stop  offset="1" style="stop-color:#6FBCE9"/>
				</radialGradient>
				<path class="st21" d="M80.9,75h0.4v0.8h-0.4V75z M80.9,73.4h0.4v0.8h-0.4V73.4z M80.9,71.8h0.4v0.8h-0.4V71.8z M80.9,70.2h0.4
					V71h-0.4V70.2z M80.9,68.6h0.4v0.8h-0.4V68.6z M80.9,67h0.4v0.8h-0.4V67z M80.9,65.4h0.4v0.8h-0.4V65.4z"/>
			</g>
			<g>
				<radialGradient id="SVGID_22_" cx="92.8303" cy="73.201" r="12.8875" gradientUnits="userSpaceOnUse">
					<stop  offset="0" style="stop-color:#D4EFFC"/>
					<stop  offset="1" style="stop-color:#6FBCE9"/>
				</radialGradient>
				<path class="st22" d="M81.5,77.3l0.1-0.4c-0.1,0-0.1,0-0.2,0v-0.2h-0.4v0.6l0.2,0C81.2,77.2,81.3,77.2,81.5,77.3z"/>
			</g>
			<g>
				<radialGradient id="SVGID_23_" cx="92.8308" cy="73.1995" r="12.8884" gradientUnits="userSpaceOnUse">
					<stop  offset="0" style="stop-color:#D4EFFC"/>
					<stop  offset="1" style="stop-color:#6FBCE9"/>
				</radialGradient>
				<path class="st23" d="M85.5,77.6l0-0.4l0.2,0c0.2,0,0.4,0,0.5,0l0,0.4c-0.2,0-0.4,0-0.6,0L85.5,77.6z M83.9,77.6l0-0.4
					c0.3,0,0.5,0,0.8,0l0,0.4C84.4,77.6,84.1,77.6,83.9,77.6z M87.1,77.2c0.3,0,0.5,0,0.8-0.1l0,0.4c-0.3,0-0.5,0.1-0.8,0.1
					L87.1,77.2z M82.3,77.4l0.1-0.4c0.2,0,0.5,0.1,0.8,0.1l0,0.4C82.8,77.5,82.5,77.4,82.3,77.4z M88.6,77c0.3,0,0.5-0.1,0.8-0.2
					l0.1,0.4c-0.3,0.1-0.5,0.1-0.8,0.2L88.6,77z"/>
			</g>
		</g>
	</g>
	<path class="st24" d="M47.8,96.2c-0.3,0-0.7,0-1-0.1c-2-0.2-3.6-0.9-5-2.2c-0.3-0.2-0.6-0.5-1.1-0.7c-0.2-0.1-0.5-0.1-0.7-0.2
		c-0.2,0-0.3,0-0.5,0c-0.3,0-0.6,0-0.8,0.1c-0.6,0.1-1.2,0.2-1.7,0.2c-1.3,0-2.5-0.3-3.7-0.9c-1.8-0.8-3.1-2-3.9-3.7
		c-0.2-0.3-0.4-0.7-0.8-1c-0.2-0.1-0.4-0.3-0.6-0.4c-0.5-0.2-0.9-0.3-1.2-0.4c-1.9-0.3-3.5-1.1-4.8-2.5c-1.4-1.4-2.2-3-2.4-4.9
		c0-0.4-0.2-0.8-0.4-1.2c-0.2-0.2-0.3-0.4-0.5-0.7c-0.3-0.3-0.7-0.6-1-0.8c-1.7-0.9-2.9-2.2-3.7-4c-0.8-1.8-1-3.5-0.6-5.4
		c0.1-0.4,0.1-0.8,0.1-1.3c0-0.1-0.1-0.6-0.2-0.7c-0.2-0.5-0.5-0.8-0.7-1.1c-1.3-1.4-2-3.1-2.1-5c-0.2-2,0.2-3.7,1.3-5.3
		c0.2-0.3,0.4-0.7,0.5-1.2c0-0.3,0-0.5,0.1-0.8c0-0.5-0.1-0.9-0.3-1.2c-0.7-1.8-0.8-3.5-0.2-5.4c0.5-1.9,1.5-3.4,3-4.5
		c0.3-0.2,0.6-0.5,0.9-0.9c0.1-0.2,0.2-0.4,0.3-0.6c0.1-0.5,0.2-0.9,0.2-1.3c-0.1-1.9,0.5-3.6,1.6-5.2c1.1-1.6,2.5-2.7,4.4-3.2
		c0.3-0.1,0.7-0.3,1.1-0.6c0.2-0.2,0.4-0.4,0.6-0.5c0.3-0.4,0.5-0.8,0.6-1.1c0.6-1.8,1.7-3.2,3.3-4.3c1.5-1,3-1.5,4.7-1.5
		c0.2,0,0.3,0,0.5,0c0.1,0,0.1,0,0.2,0c0.3,0,0.7,0,1.1-0.1c0.2-0.1,0.5-0.2,0.7-0.3c0.4-0.3,0.7-0.6,0.9-0.9
		c1.2-1.5,2.7-2.5,4.6-2.9c0.8-0.2,1.5-0.3,2.3-0.3c1.1,0,2.1,0.2,3.1,0.7c0.3,0.1,0.7,0.2,1.2,0.3c0.3,0,0.5,0,0.8-0.1
		c0.5-0.1,0.9-0.3,1.2-0.5c1.3-0.8,2.7-1.2,4.3-1.2c0.3,0,0.7,0,1.1,0.1c1.9,0.2,3.6,0.9,5,2.2c0.3,0.2,0.6,0.5,1.1,0.7
		c0.2,0.1,0.5,0.1,0.7,0.2c0.2,0,0.3,0,0.5,0c0.3,0,0.6,0,0.8-0.1c0.6-0.1,1.2-0.2,1.7-0.2c1.3,0,2.5,0.3,3.7,0.9
		c1.8,0.8,3.1,2,3.9,3.7c0.2,0.3,0.4,0.7,0.8,1c0.2,0.1,0.4,0.3,0.6,0.4c0.5,0.2,0.9,0.3,1.2,0.4c1.9,0.3,3.5,1.1,4.8,2.5
		c1.4,1.4,2.2,3,2.4,4.9c0,0.4,0.2,0.8,0.4,1.2c0.2,0.2,0.3,0.4,0.5,0.7c0.3,0.3,0.7,0.6,1,0.8c1.7,0.9,2.9,2.2,3.7,4
		c0.8,1.8,1,3.5,0.6,5.4c-0.1,0.4-0.1,0.8-0.1,1.3c0,0.1,0.2,0.6,0.2,0.7c0.2,0.5,0.5,0.8,0.7,1.1c1.3,1.4,2,3.1,2.1,5
		c0.2,2-0.2,3.7-1.3,5.3c-0.2,0.3-0.4,0.7-0.5,1.2c0,0.3,0,0.5-0.1,0.8c0,0.5,0.1,0.9,0.3,1.2c0.7,1.8,0.8,3.5,0.2,5.4
		c-0.5,1.9-1.5,3.4-3,4.5c-0.3,0.2-0.6,0.5-0.9,0.9c-0.1,0.2-0.2,0.4-0.3,0.6c-0.1,0.5-0.2,0.9-0.2,1.3c0.1,1.9-0.5,3.6-1.6,5.2
		c-1.1,1.6-2.5,2.7-4.4,3.2c-0.3,0.1-0.7,0.3-1.1,0.6c-0.2,0.2-0.4,0.4-0.6,0.5c-0.3,0.4-0.5,0.8-0.6,1.1c-0.6,1.8-1.7,3.2-3.3,4.3
		c-1.5,1-3,1.5-4.7,1.5l0,0c-0.2,0-0.3,0-0.5,0c-0.1,0-0.1,0-0.2,0c-0.3,0-0.7,0-1.1,0.1c-0.2,0.1-0.5,0.2-0.7,0.3
		c-0.4,0.3-0.7,0.6-0.9,0.9c-1.2,1.5-2.7,2.5-4.6,2.9c-0.8,0.2-1.5,0.3-2.3,0.3c-1.1,0-2.1-0.2-3.1-0.7c-0.3-0.1-0.7-0.2-1.2-0.3
		c-0.3,0-0.5,0-0.8,0.1c-0.5,0.1-0.9,0.3-1.2,0.5C50.8,95.8,49.3,96.2,47.8,96.2z"/>
	<path class="st25" d="M41.9,23.1c-18.3,4.7-29.2,23.3-24.5,41.6C22,83,40.7,93.9,58.9,89.2c18.3-4.7,29.2-23.3,24.5-41.6
		C78.7,29.4,60.1,18.4,41.9,23.1z M58.8,88.7c-18,4.6-36.3-6.2-40.9-24.1C13.2,46.6,24,28.3,42,23.7c18-4.6,36.3,6.2,40.9,24.1
		C87.5,65.7,76.7,84.1,58.8,88.7z"/>
	<defs>
		<filter id="Adobe_OpacityMaskFilter" filterUnits="userSpaceOnUse" x="25.5" y="22.2" width="59.3" height="66.9">
			<feFlood  style="flood-color:white;flood-opacity:1" result="back"/>
			<feBlend  in="SourceGraphic" in2="back" mode="normal"/>
		</filter>
	</defs>
	<mask maskUnits="userSpaceOnUse" x="25.5" y="22.2" width="59.3" height="66.9" id="SVGID_24_">
		<g class="st26">
			<defs>
				<filter id="Adobe_OpacityMaskFilter_1_" filterUnits="userSpaceOnUse" x="25.5" y="22.2" width="59.3" height="66.9">
					<feFlood  style="flood-color:white;flood-opacity:1" result="back"/>
					<feBlend  in="SourceGraphic" in2="back" mode="normal"/>
				</filter>
			</defs>
			<mask maskUnits="userSpaceOnUse" x="25.5" y="22.2" width="59.3" height="66.9" id="SVGID_24_">
				<g class="st27">
				</g>
			</mask>
			
				<linearGradient id="SVGID_25_" gradientUnits="userSpaceOnUse" x1="77.8756" y1="16.1159" x2="115.3005" y2="86.9644" gradientTransform="matrix(-0.1344 1.1462 -1.1893 -0.1394 126.104 -47.6304)">
				<stop  offset="0" style="stop-color:#FFFFFF"/>
				<stop  offset="5.383337e-02" style="stop-color:#E0E0E0"/>
				<stop  offset="0.1552" style="stop-color:#ACACAC"/>
				<stop  offset="0.2611" style="stop-color:#7E7E7E"/>
				<stop  offset="0.3694" style="stop-color:#575757"/>
				<stop  offset="0.4805" style="stop-color:#383838"/>
				<stop  offset="0.5954" style="stop-color:#1F1F1F"/>
				<stop  offset="0.7159" style="stop-color:#0E0E0E"/>
				<stop  offset="0.8453" style="stop-color:#030303"/>
				<stop  offset="1" style="stop-color:#000000"/>
			</linearGradient>
			<path class="st28" d="M37.5,33.3c18.5,2.2,31.7,19,29.5,37.6c-0.8,7-3.7,13.2-7.9,18.2c13.2-3.3,23.7-14.6,25.4-29
				c2.2-18.6-11-35.5-29.5-37.6c-11.6-1.4-22.4,3.3-29.5,11.6C29.3,33.1,33.4,32.8,37.5,33.3z"/>
		</g>
	</mask>
	
		<linearGradient id="SVGID_26_" gradientUnits="userSpaceOnUse" x1="77.8756" y1="16.1159" x2="115.3005" y2="86.9644" gradientTransform="matrix(-0.1344 1.1462 -1.1893 -0.1394 126.104 -47.6304)">
		<stop  offset="0" style="stop-color:#F5F5F5"/>
		<stop  offset="7.761335e-02" style="stop-color:#F5F5F5"/>
		<stop  offset="1" style="stop-color:#F5F5F5"/>
	</linearGradient>
	<path class="st29" d="M37.5,33.3c18.5,2.2,31.7,19,29.5,37.6c-0.8,7-3.7,13.2-7.9,18.2c13.2-3.3,23.7-14.6,25.4-29
		c2.2-18.6-11-35.5-29.5-37.6c-11.6-1.4-22.4,3.3-29.5,11.6C29.3,33.1,33.4,32.8,37.5,33.3z"/>
	<g>
		<radialGradient id="SVGID_27_" cx="75.9973" cy="49.4798" r="52.5488" gradientUnits="userSpaceOnUse">
			<stop  offset="2.453990e-02" style="stop-color:#FFFFFF"/>
			<stop  offset="1" style="stop-color:#B4E4FA"/>
		</radialGradient>
		<polygon class="st30" points="50.4,26.1 48.7,24.2 47.4,24.3 49.1,26.1 		"/>
		<radialGradient id="SVGID_28_" cx="75.9955" cy="49.4796" r="52.5467" gradientUnits="userSpaceOnUse">
			<stop  offset="2.453990e-02" style="stop-color:#FFFFFF"/>
			<stop  offset="1" style="stop-color:#B4E4FA"/>
		</radialGradient>
		<polygon class="st31" points="47.8,26.2 45.9,24.5 44.7,24.6 46.5,26.3 		"/>
		<radialGradient id="SVGID_29_" cx="75.9954" cy="49.4798" r="52.5471" gradientUnits="userSpaceOnUse">
			<stop  offset="2.453990e-02" style="stop-color:#FFFFFF"/>
			<stop  offset="1" style="stop-color:#B4E4FA"/>
		</radialGradient>
		<polygon class="st32" points="45.2,26.5 43.2,25 41.9,25.3 43.9,26.8 		"/>
		<radialGradient id="SVGID_30_" cx="76.0015" cy="49.4803" r="52.5538" gradientUnits="userSpaceOnUse">
			<stop  offset="2.453990e-02" style="stop-color:#FFFFFF"/>
			<stop  offset="1" style="stop-color:#B4E4FA"/>
		</radialGradient>
		<polygon class="st33" points="42.6,27.1 40.5,25.7 39.3,26.1 41.4,27.5 		"/>
		<radialGradient id="SVGID_31_" cx="75.9969" cy="49.4802" r="52.549" gradientUnits="userSpaceOnUse">
			<stop  offset="2.453990e-02" style="stop-color:#FFFFFF"/>
			<stop  offset="1" style="stop-color:#B4E4FA"/>
		</radialGradient>
		<polygon class="st34" points="40.1,27.9 37.9,26.7 36.7,27.2 38.9,28.4 		"/>
		<radialGradient id="SVGID_32_" cx="75.9947" cy="49.4798" r="52.5462" gradientUnits="userSpaceOnUse">
			<stop  offset="2.453990e-02" style="stop-color:#FFFFFF"/>
			<stop  offset="1" style="stop-color:#B4E4FA"/>
		</radialGradient>
		<polygon class="st35" points="37.7,28.9 35.3,27.9 34.2,28.5 36.5,29.5 		"/>
		<radialGradient id="SVGID_33_" cx="75.9955" cy="49.4797" r="52.547" gradientUnits="userSpaceOnUse">
			<stop  offset="2.453990e-02" style="stop-color:#FFFFFF"/>
			<stop  offset="1" style="stop-color:#B4E4FA"/>
		</radialGradient>
		<polygon class="st36" points="35.4,30.1 32.9,29.3 31.9,30 34.3,30.8 		"/>
		<radialGradient id="SVGID_34_" cx="75.9972" cy="49.4799" r="52.5493" gradientUnits="userSpaceOnUse">
			<stop  offset="2.453990e-02" style="stop-color:#FFFFFF"/>
			<stop  offset="1" style="stop-color:#B4E4FA"/>
		</radialGradient>
		<polygon class="st37" points="33.1,31.5 30.7,30.9 29.7,31.7 32.1,32.3 		"/>
		<radialGradient id="SVGID_35_" cx="75.9973" cy="49.4797" r="52.5489" gradientUnits="userSpaceOnUse">
			<stop  offset="2.453990e-02" style="stop-color:#FFFFFF"/>
			<stop  offset="1" style="stop-color:#B4E4FA"/>
		</radialGradient>
		<polygon class="st38" points="28.5,32.8 27.6,33.6 30.1,34 31,33.1 		"/>
		<radialGradient id="SVGID_36_" cx="75.9917" cy="49.48" r="52.5433" gradientUnits="userSpaceOnUse">
			<stop  offset="2.453990e-02" style="stop-color:#FFFFFF"/>
			<stop  offset="1" style="stop-color:#B4E4FA"/>
		</radialGradient>
		<polygon class="st39" points="26.6,34.7 25.7,35.7 28.2,35.8 29.1,34.9 		"/>
		<radialGradient id="SVGID_37_" cx="75.9974" cy="49.48" r="52.5489" gradientUnits="userSpaceOnUse">
			<stop  offset="2.453990e-02" style="stop-color:#FFFFFF"/>
			<stop  offset="1" style="stop-color:#B4E4FA"/>
		</radialGradient>
		<polygon class="st40" points="24.8,36.9 24,37.9 26.6,37.8 27.3,36.8 		"/>
		<radialGradient id="SVGID_38_" cx="76.001" cy="49.4795" r="52.5523" gradientUnits="userSpaceOnUse">
			<stop  offset="2.453990e-02" style="stop-color:#FFFFFF"/>
			<stop  offset="1" style="stop-color:#B4E4FA"/>
		</radialGradient>
		<polygon class="st41" points="23.2,39.2 22.5,40.3 25.1,40 25.7,38.9 		"/>
		<radialGradient id="SVGID_39_" cx="75.9938" cy="49.4807" r="52.5455" gradientUnits="userSpaceOnUse">
			<stop  offset="2.453990e-02" style="stop-color:#FFFFFF"/>
			<stop  offset="1" style="stop-color:#B4E4FA"/>
		</radialGradient>
		<polygon class="st42" points="24.3,41.1 21.9,41.6 21.3,42.8 23.7,42.2 		"/>
		<radialGradient id="SVGID_40_" cx="76.0058" cy="49.4798" r="52.5571" gradientUnits="userSpaceOnUse">
			<stop  offset="2.453990e-02" style="stop-color:#FFFFFF"/>
			<stop  offset="1" style="stop-color:#B4E4FA"/>
		</radialGradient>
		<polygon class="st43" points="23.1,43.4 20.7,44.2 20.2,45.4 22.6,44.6 		"/>
		<radialGradient id="SVGID_41_" cx="75.9982" cy="49.4793" r="52.5499" gradientUnits="userSpaceOnUse">
			<stop  offset="2.453990e-02" style="stop-color:#FFFFFF"/>
			<stop  offset="1" style="stop-color:#B4E4FA"/>
		</radialGradient>
		<polygon class="st44" points="22.1,45.9 19.8,46.8 19.4,48 21.7,47.1 		"/>
		<radialGradient id="SVGID_42_" cx="76.0017" cy="49.48" r="52.553" gradientUnits="userSpaceOnUse">
			<stop  offset="2.453990e-02" style="stop-color:#FFFFFF"/>
			<stop  offset="1" style="stop-color:#B4E4FA"/>
		</radialGradient>
		<polygon class="st45" points="21.3,48.4 19.1,49.5 18.8,50.8 21,49.6 		"/>
		<radialGradient id="SVGID_43_" cx="76.003" cy="49.48" r="52.5544" gradientUnits="userSpaceOnUse">
			<stop  offset="2.453990e-02" style="stop-color:#FFFFFF"/>
			<stop  offset="1" style="stop-color:#B4E4FA"/>
		</radialGradient>
		<polygon class="st46" points="20.7,50.9 18.6,52.3 18.4,53.5 20.6,52.2 		"/>
		<radialGradient id="SVGID_44_" cx="75.9925" cy="49.4799" r="52.5445" gradientUnits="userSpaceOnUse">
			<stop  offset="2.453990e-02" style="stop-color:#FFFFFF"/>
			<stop  offset="1" style="stop-color:#B4E4FA"/>
		</radialGradient>
		<polygon class="st47" points="20.4,53.5 18.4,55.1 18.3,56.3 20.3,54.8 		"/>
		<radialGradient id="SVGID_45_" cx="76.0102" cy="49.4798" r="52.5606" gradientUnits="userSpaceOnUse">
			<stop  offset="2.453990e-02" style="stop-color:#FFFFFF"/>
			<stop  offset="1" style="stop-color:#B4E4FA"/>
		</radialGradient>
		<polygon class="st48" points="20.3,56.2 18.4,57.9 18.5,59.1 20.3,57.4 		"/>
		<radialGradient id="SVGID_46_" cx="76.0113" cy="49.4805" r="52.5611" gradientUnits="userSpaceOnUse">
			<stop  offset="2.453990e-02" style="stop-color:#FFFFFF"/>
			<stop  offset="1" style="stop-color:#B4E4FA"/>
		</radialGradient>
		<polygon class="st49" points="20.4,58.8 18.7,60.6 18.8,61.9 20.6,60 		"/>
		<radialGradient id="SVGID_47_" cx="75.9969" cy="49.4802" r="52.5482" gradientUnits="userSpaceOnUse">
			<stop  offset="2.453990e-02" style="stop-color:#FFFFFF"/>
			<stop  offset="1" style="stop-color:#B4E4FA"/>
		</radialGradient>
		<polygon class="st50" points="20.7,61.4 19.2,63.4 19.5,64.6 21,62.6 		"/>
		<radialGradient id="SVGID_48_" cx="76.0039" cy="49.4788" r="52.5548" gradientUnits="userSpaceOnUse">
			<stop  offset="2.453990e-02" style="stop-color:#FFFFFF"/>
			<stop  offset="1" style="stop-color:#B4E4FA"/>
		</radialGradient>
		<polygon class="st51" points="21.3,63.9 19.9,66.1 20.3,67.3 21.7,65.2 		"/>
		<radialGradient id="SVGID_49_" cx="75.9839" cy="49.4832" r="52.5364" gradientUnits="userSpaceOnUse">
			<stop  offset="2.453990e-02" style="stop-color:#FFFFFF"/>
			<stop  offset="1" style="stop-color:#B4E4FA"/>
		</radialGradient>
		<polygon class="st52" points="22.1,66.5 20.9,68.7 21.4,69.9 22.6,67.6 		"/>
		<radialGradient id="SVGID_50_" cx="75.9975" cy="49.4796" r="52.549" gradientUnits="userSpaceOnUse">
			<stop  offset="2.453990e-02" style="stop-color:#FFFFFF"/>
			<stop  offset="1" style="stop-color:#B4E4FA"/>
		</radialGradient>
		<polygon class="st53" points="23.1,68.9 22.1,71.2 22.7,72.3 23.7,70 		"/>
		<radialGradient id="SVGID_51_" cx="75.9983" cy="49.4754" r="52.5513" gradientUnits="userSpaceOnUse">
			<stop  offset="2.453990e-02" style="stop-color:#FFFFFF"/>
			<stop  offset="1" style="stop-color:#B4E4FA"/>
		</radialGradient>
		<polygon class="st54" points="23.5,73.6 24.2,74.7 25,72.3 24.3,71.2 		"/>
		<radialGradient id="SVGID_52_" cx="76.0056" cy="49.4832" r="52.5541" gradientUnits="userSpaceOnUse">
			<stop  offset="2.453990e-02" style="stop-color:#FFFFFF"/>
			<stop  offset="1" style="stop-color:#B4E4FA"/>
		</radialGradient>
		<polygon class="st55" points="25.2,75.9 25.9,76.9 26.5,74.4 25.7,73.4 		"/>
		<radialGradient id="SVGID_53_" cx="75.9983" cy="49.4832" r="52.5479" gradientUnits="userSpaceOnUse">
			<stop  offset="2.453990e-02" style="stop-color:#FFFFFF"/>
			<stop  offset="1" style="stop-color:#B4E4FA"/>
		</radialGradient>
		<polygon class="st56" points="27,78 27.8,79 28.2,76.5 27.3,75.5 		"/>
		<radialGradient id="SVGID_54_" cx="75.9889" cy="49.4785" r="52.5432" gradientUnits="userSpaceOnUse">
			<stop  offset="2.453990e-02" style="stop-color:#FFFFFF"/>
			<stop  offset="1" style="stop-color:#B4E4FA"/>
		</radialGradient>
		<polygon class="st57" points="29,80 29.9,80.8 30,78.3 29.1,77.4 		"/>
		<radialGradient id="SVGID_55_" cx="75.9985" cy="49.476" r="52.5523" gradientUnits="userSpaceOnUse">
			<stop  offset="2.453990e-02" style="stop-color:#FFFFFF"/>
			<stop  offset="1" style="stop-color:#B4E4FA"/>
		</radialGradient>
		<polygon class="st58" points="31.1,81.7 32.1,82.5 32,80 31,79.2 		"/>
		<radialGradient id="SVGID_56_" cx="76.0032" cy="49.4791" r="52.5538" gradientUnits="userSpaceOnUse">
			<stop  offset="2.453990e-02" style="stop-color:#FFFFFF"/>
			<stop  offset="1" style="stop-color:#B4E4FA"/>
		</radialGradient>
		<polygon class="st59" points="33.1,80.8 33.4,83.3 34.5,84 34.2,81.5 		"/>
		<radialGradient id="SVGID_57_" cx="75.9964" cy="49.4873" r="52.5431" gradientUnits="userSpaceOnUse">
			<stop  offset="2.453990e-02" style="stop-color:#FFFFFF"/>
			<stop  offset="1" style="stop-color:#B4E4FA"/>
		</radialGradient>
		<polygon class="st60" points="35.3,82.2 35.9,84.7 37,85.3 36.4,82.8 		"/>
		<radialGradient id="SVGID_58_" cx="75.9934" cy="49.4745" r="52.5504" gradientUnits="userSpaceOnUse">
			<stop  offset="2.453990e-02" style="stop-color:#FFFFFF"/>
			<stop  offset="1" style="stop-color:#B4E4FA"/>
		</radialGradient>
		<polygon class="st61" points="37.6,83.5 38.4,85.9 39.6,86.4 38.8,83.9 		"/>
		<radialGradient id="SVGID_59_" cx="75.9979" cy="49.4799" r="52.5494" gradientUnits="userSpaceOnUse">
			<stop  offset="2.453990e-02" style="stop-color:#FFFFFF"/>
			<stop  offset="1" style="stop-color:#B4E4FA"/>
		</radialGradient>
		<polygon class="st62" points="40.1,84.5 41,86.8 42.3,87.2 41.3,84.8 		"/>
		<radialGradient id="SVGID_60_" cx="75.9943" cy="49.4768" r="52.5501" gradientUnits="userSpaceOnUse">
			<stop  offset="2.453990e-02" style="stop-color:#FFFFFF"/>
			<stop  offset="1" style="stop-color:#B4E4FA"/>
		</radialGradient>
		<polygon class="st63" points="42.6,85.2 43.7,87.5 45,87.8 43.8,85.5 		"/>
		<radialGradient id="SVGID_61_" cx="75.9971" cy="49.4693" r="52.5587" gradientUnits="userSpaceOnUse">
			<stop  offset="2.453990e-02" style="stop-color:#FFFFFF"/>
			<stop  offset="1" style="stop-color:#B4E4FA"/>
		</radialGradient>
		<polygon class="st64" points="45.1,85.8 46.5,88 47.8,88.1 46.4,86 		"/>
		<radialGradient id="SVGID_62_" cx="75.9954" cy="49.4882" r="52.5398" gradientUnits="userSpaceOnUse">
			<stop  offset="2.453990e-02" style="stop-color:#FFFFFF"/>
			<stop  offset="1" style="stop-color:#B4E4FA"/>
		</radialGradient>
		<polygon class="st65" points="47.7,86.2 49.3,88.2 50.6,88.2 49,86.2 		"/>
		<radialGradient id="SVGID_63_" cx="75.994" cy="49.493" r="52.5334" gradientUnits="userSpaceOnUse">
			<stop  offset="2.453990e-02" style="stop-color:#FFFFFF"/>
			<stop  offset="1" style="stop-color:#B4E4FA"/>
		</radialGradient>
		<polygon class="st66" points="50.4,86.3 52.1,88.1 53.3,88.1 51.6,86.2 		"/>
		<radialGradient id="SVGID_64_" cx="75.9989" cy="49.489" r="52.5395" gradientUnits="userSpaceOnUse">
			<stop  offset="2.453990e-02" style="stop-color:#FFFFFF"/>
			<stop  offset="1" style="stop-color:#B4E4FA"/>
		</radialGradient>
		<polygon class="st67" points="53,86.2 54.9,87.9 56.1,87.7 54.3,86 		"/>
		<radialGradient id="SVGID_65_" cx="75.9964" cy="49.4759" r="52.5531" gradientUnits="userSpaceOnUse">
			<stop  offset="2.453990e-02" style="stop-color:#FFFFFF"/>
			<stop  offset="1" style="stop-color:#B4E4FA"/>
		</radialGradient>
		<polygon class="st68" points="55.6,85.8 57.6,87.4 58.8,87.1 56.8,85.6 		"/>
		<radialGradient id="SVGID_66_" cx="75.9986" cy="49.4929" r="52.5331" gradientUnits="userSpaceOnUse">
			<stop  offset="2.453990e-02" style="stop-color:#FFFFFF"/>
			<stop  offset="1" style="stop-color:#B4E4FA"/>
		</radialGradient>
		<polygon class="st69" points="58.2,85.3 60.3,86.6 61.5,86.2 59.4,84.9 		"/>
		<radialGradient id="SVGID_67_" cx="75.9979" cy="49.4836" r="52.544" gradientUnits="userSpaceOnUse">
			<stop  offset="2.453990e-02" style="stop-color:#FFFFFF"/>
			<stop  offset="1" style="stop-color:#B4E4FA"/>
		</radialGradient>
		<polygon class="st70" points="60.7,84.5 62.9,85.6 64.1,85.2 61.8,84 		"/>
		<radialGradient id="SVGID_68_" cx="75.9977" cy="49.4757" r="52.5555" gradientUnits="userSpaceOnUse">
			<stop  offset="2.453990e-02" style="stop-color:#FFFFFF"/>
			<stop  offset="1" style="stop-color:#B4E4FA"/>
		</radialGradient>
		<polygon class="st71" points="63.1,83.5 65.4,84.4 66.6,83.9 64.2,82.9 		"/>
		<radialGradient id="SVGID_69_" cx="75.9979" cy="49.4801" r="52.549" gradientUnits="userSpaceOnUse">
			<stop  offset="2.453990e-02" style="stop-color:#FFFFFF"/>
			<stop  offset="1" style="stop-color:#B4E4FA"/>
		</radialGradient>
		<polygon class="st72" points="65.4,82.3 67.8,83 68.9,82.3 66.5,81.6 		"/>
		<radialGradient id="SVGID_70_" cx="75.9968" cy="49.4638" r="52.5753" gradientUnits="userSpaceOnUse">
			<stop  offset="2.453990e-02" style="stop-color:#FFFFFF"/>
			<stop  offset="1" style="stop-color:#B4E4FA"/>
		</radialGradient>
		<polygon class="st73" points="67.6,80.8 70.1,81.4 71.1,80.6 68.7,80.1 		"/>
		<radialGradient id="SVGID_71_" cx="75.9974" cy="49.4699" r="52.5668" gradientUnits="userSpaceOnUse">
			<stop  offset="2.453990e-02" style="stop-color:#FFFFFF"/>
			<stop  offset="1" style="stop-color:#B4E4FA"/>
		</radialGradient>
		<polygon class="st74" points="69.7,79.2 72.2,79.6 73.2,78.7 70.7,78.4 		"/>
		<radialGradient id="SVGID_72_" cx="75.9978" cy="49.4744" r="52.5591" gradientUnits="userSpaceOnUse">
			<stop  offset="2.453990e-02" style="stop-color:#FFFFFF"/>
			<stop  offset="1" style="stop-color:#B4E4FA"/>
		</radialGradient>
		<polygon class="st75" points="71.7,77.5 74.2,77.6 75.1,76.7 72.5,76.5 		"/>
		<radialGradient id="SVGID_73_" cx="75.9976" cy="49.466" r="52.5777" gradientUnits="userSpaceOnUse">
			<stop  offset="2.453990e-02" style="stop-color:#FFFFFF"/>
			<stop  offset="1" style="stop-color:#B4E4FA"/>
		</radialGradient>
		<polygon class="st76" points="73.4,75.5 76,75.4 76.7,74.4 74.2,74.5 		"/>
		<radialGradient id="SVGID_74_" cx="75.9974" cy="49.4909" r="52.5245" gradientUnits="userSpaceOnUse">
			<stop  offset="2.453990e-02" style="stop-color:#FFFFFF"/>
			<stop  offset="1" style="stop-color:#B4E4FA"/>
		</radialGradient>
		<polygon class="st77" points="75,73.5 77.5,73.1 78.2,72.1 75.7,72.4 		"/>
		<radialGradient id="SVGID_75_" cx="75.9972" cy="49.4719" r="52.5686" gradientUnits="userSpaceOnUse">
			<stop  offset="2.453990e-02" style="stop-color:#FFFFFF"/>
			<stop  offset="1" style="stop-color:#B4E4FA"/>
		</radialGradient>
		<polygon class="st78" points="76.5,71.2 78.9,70.7 79.5,69.6 77,70.1 		"/>
		<radialGradient id="SVGID_76_" cx="75.9976" cy="49.4784" r="52.5533" gradientUnits="userSpaceOnUse">
			<stop  offset="2.453990e-02" style="stop-color:#FFFFFF"/>
			<stop  offset="1" style="stop-color:#B4E4FA"/>
		</radialGradient>
		<polygon class="st79" points="77.7,68.9 80.1,68.2 80.6,67 78.2,67.7 		"/>
		<radialGradient id="SVGID_77_" cx="75.9971" cy="49.4812" r="52.5452" gradientUnits="userSpaceOnUse">
			<stop  offset="2.453990e-02" style="stop-color:#FFFFFF"/>
			<stop  offset="1" style="stop-color:#B4E4FA"/>
		</radialGradient>
		<polygon class="st80" points="78.7,66.5 81,65.5 81.4,64.3 79.1,65.3 		"/>
		<radialGradient id="SVGID_78_" cx="75.9978" cy="49.4786" r="52.5519" gradientUnits="userSpaceOnUse">
			<stop  offset="2.453990e-02" style="stop-color:#FFFFFF"/>
			<stop  offset="1" style="stop-color:#B4E4FA"/>
		</radialGradient>
		<polygon class="st81" points="79.5,64 81.7,62.8 82,61.6 79.7,62.7 		"/>
		<radialGradient id="SVGID_79_" cx="75.9976" cy="49.4806" r="52.5456" gradientUnits="userSpaceOnUse">
			<stop  offset="2.453990e-02" style="stop-color:#FFFFFF"/>
			<stop  offset="1" style="stop-color:#B4E4FA"/>
		</radialGradient>
		<polygon class="st82" points="80,61.4 82.2,60.1 82.3,58.8 80.2,60.2 		"/>
		<radialGradient id="SVGID_80_" cx="75.9975" cy="49.4797" r="52.5511" gradientUnits="userSpaceOnUse">
			<stop  offset="2.453990e-02" style="stop-color:#FFFFFF"/>
			<stop  offset="1" style="stop-color:#B4E4FA"/>
		</radialGradient>
		<polygon class="st83" points="80.4,57.5 80.4,58.8 82.4,57.3 82.4,56 		"/>
		<radialGradient id="SVGID_81_" cx="75.998" cy="49.48" r="52.5469" gradientUnits="userSpaceOnUse">
			<stop  offset="2.453990e-02" style="stop-color:#FFFFFF"/>
			<stop  offset="1" style="stop-color:#B4E4FA"/>
		</radialGradient>
		<polygon class="st84" points="80.5,56.2 82.4,54.5 82.3,53.2 80.4,54.9 		"/>
		<radialGradient id="SVGID_82_" cx="75.9974" cy="49.48" r="52.5473" gradientUnits="userSpaceOnUse">
			<stop  offset="2.453990e-02" style="stop-color:#FFFFFF"/>
			<stop  offset="1" style="stop-color:#B4E4FA"/>
		</radialGradient>
		<polygon class="st85" points="80.4,53.6 82.1,51.7 81.9,50.4 80.2,52.3 		"/>
		<radialGradient id="SVGID_83_" cx="75.9969" cy="49.4796" r="52.5538" gradientUnits="userSpaceOnUse">
			<stop  offset="2.453990e-02" style="stop-color:#FFFFFF"/>
			<stop  offset="1" style="stop-color:#B4E4FA"/>
		</radialGradient>
		<polygon class="st86" points="80,51 81.6,49 81.3,47.7 79.8,49.7 		"/>
		<radialGradient id="SVGID_84_" cx="75.9981" cy="49.4799" r="52.5421" gradientUnits="userSpaceOnUse">
			<stop  offset="2.453990e-02" style="stop-color:#FFFFFF"/>
			<stop  offset="1" style="stop-color:#B4E4FA"/>
		</radialGradient>
		<polygon class="st87" points="79.5,48.4 80.8,46.3 80.5,45.1 79.1,47.2 		"/>
		<radialGradient id="SVGID_85_" cx="75.9967" cy="49.4793" r="52.5512" gradientUnits="userSpaceOnUse">
			<stop  offset="2.453990e-02" style="stop-color:#FFFFFF"/>
			<stop  offset="1" style="stop-color:#B4E4FA"/>
		</radialGradient>
		<polygon class="st88" points="78.7,45.9 79.9,43.7 79.4,42.5 78.2,44.7 		"/>
		<radialGradient id="SVGID_86_" cx="75.9973" cy="49.4805" r="52.5535" gradientUnits="userSpaceOnUse">
			<stop  offset="2.453990e-02" style="stop-color:#FFFFFF"/>
			<stop  offset="1" style="stop-color:#B4E4FA"/>
		</radialGradient>
		<polygon class="st89" points="77.7,43.5 78.7,41.1 78.1,40 77.1,42.3 		"/>
		<radialGradient id="SVGID_87_" cx="75.9974" cy="49.4797" r="52.5483" gradientUnits="userSpaceOnUse">
			<stop  offset="2.453990e-02" style="stop-color:#FFFFFF"/>
			<stop  offset="1" style="stop-color:#B4E4FA"/>
		</radialGradient>
		<polygon class="st90" points="77.2,38.7 76.6,37.6 75.8,40.1 76.5,41.1 		"/>
		<radialGradient id="SVGID_88_" cx="75.9972" cy="49.4799" r="52.5493" gradientUnits="userSpaceOnUse">
			<stop  offset="2.453990e-02" style="stop-color:#FFFFFF"/>
			<stop  offset="1" style="stop-color:#B4E4FA"/>
		</radialGradient>
		<polygon class="st91" points="75.6,36.5 74.8,35.4 74.3,37.9 75.1,38.9 		"/>
		<radialGradient id="SVGID_89_" cx="75.9973" cy="49.4798" r="52.5488" gradientUnits="userSpaceOnUse">
			<stop  offset="2.453990e-02" style="stop-color:#FFFFFF"/>
			<stop  offset="1" style="stop-color:#B4E4FA"/>
		</radialGradient>
		<polygon class="st92" points="73.8,34.3 72.9,33.4 72.6,35.9 73.5,36.8 		"/>
		<radialGradient id="SVGID_90_" cx="75.9973" cy="49.4797" r="52.5487" gradientUnits="userSpaceOnUse">
			<stop  offset="2.453990e-02" style="stop-color:#FFFFFF"/>
			<stop  offset="1" style="stop-color:#B4E4FA"/>
		</radialGradient>
		<polygon class="st93" points="71.8,32.4 70.9,31.5 70.8,34 71.7,34.9 		"/>
		<radialGradient id="SVGID_91_" cx="75.9961" cy="49.4797" r="52.5476" gradientUnits="userSpaceOnUse">
			<stop  offset="2.453990e-02" style="stop-color:#FFFFFF"/>
			<stop  offset="1" style="stop-color:#B4E4FA"/>
		</radialGradient>
		<polygon class="st94" points="69.7,30.6 68.6,29.8 68.7,32.3 69.8,33.1 		"/>
		<radialGradient id="SVGID_92_" cx="75.9959" cy="49.4801" r="52.548" gradientUnits="userSpaceOnUse">
			<stop  offset="2.453990e-02" style="stop-color:#FFFFFF"/>
			<stop  offset="1" style="stop-color:#B4E4FA"/>
		</radialGradient>
		<polygon class="st95" points="67.7,31.5 67.4,29 66.3,28.3 66.6,30.8 		"/>
		<radialGradient id="SVGID_93_" cx="75.9946" cy="49.4799" r="52.5462" gradientUnits="userSpaceOnUse">
			<stop  offset="2.453990e-02" style="stop-color:#FFFFFF"/>
			<stop  offset="1" style="stop-color:#B4E4FA"/>
		</radialGradient>
		<polygon class="st96" points="65.5,30.1 64.9,27.6 63.8,27 64.3,29.5 		"/>
		<radialGradient id="SVGID_94_" cx="76.0004" cy="49.4798" r="52.5522" gradientUnits="userSpaceOnUse">
			<stop  offset="2.453990e-02" style="stop-color:#FFFFFF"/>
			<stop  offset="1" style="stop-color:#B4E4FA"/>
		</radialGradient>
		<polygon class="st97" points="63.1,28.9 62.4,26.5 61.2,26 62,28.4 		"/>
		<radialGradient id="SVGID_95_" cx="75.9958" cy="49.4799" r="52.5476" gradientUnits="userSpaceOnUse">
			<stop  offset="2.453990e-02" style="stop-color:#FFFFFF"/>
			<stop  offset="1" style="stop-color:#B4E4FA"/>
		</radialGradient>
		<polygon class="st98" points="60.7,27.9 59.7,25.5 58.5,25.2 59.5,27.5 		"/>
		<radialGradient id="SVGID_96_" cx="75.9992" cy="49.4802" r="52.5513" gradientUnits="userSpaceOnUse">
			<stop  offset="2.453990e-02" style="stop-color:#FFFFFF"/>
			<stop  offset="1" style="stop-color:#B4E4FA"/>
		</radialGradient>
		<polygon class="st99" points="58.2,27.1 57,24.8 55.8,24.6 57,26.8 		"/>
		<radialGradient id="SVGID_97_" cx="75.9975" cy="49.48" r="52.5491" gradientUnits="userSpaceOnUse">
			<stop  offset="2.453990e-02" style="stop-color:#FFFFFF"/>
			<stop  offset="1" style="stop-color:#B4E4FA"/>
		</radialGradient>
		<polygon class="st100" points="55.6,26.5 54.3,24.4 53,24.2 54.4,26.4 		"/>
		<radialGradient id="SVGID_98_" cx="75.9995" cy="49.4799" r="52.5513" gradientUnits="userSpaceOnUse">
			<stop  offset="2.453990e-02" style="stop-color:#FFFFFF"/>
			<stop  offset="1" style="stop-color:#B4E4FA"/>
		</radialGradient>
		<polygon class="st101" points="53,26.2 51.5,24.2 50.2,24.1 51.8,26.1 		"/>
	</g>
	<g>
		<g>
			<g>
				<radialGradient id="SVGID_99_" cx="50.37" cy="34.5813" r="1.5573" gradientUnits="userSpaceOnUse">
					<stop  offset="2.453990e-02" style="stop-color:#FFFFFF"/>
					<stop  offset="1" style="stop-color:#B4E4FA"/>
				</radialGradient>
				<path class="st102" d="M50.4,33.1l0.3,1.2l1.2,0l-1,0.7l0.3,1.2l-1-0.7l-1,0.7l0.4-1.1l-1-0.7l1.2,0L50.4,33.1z"/>
			</g>
			<g>
				<radialGradient id="SVGID_100_" cx="45.1777" cy="35.3759" r="1.5571" gradientUnits="userSpaceOnUse">
					<stop  offset="2.453990e-02" style="stop-color:#FFFFFF"/>
					<stop  offset="1" style="stop-color:#B4E4FA"/>
				</radialGradient>
				<path class="st103" d="M45.2,33.9l0.3,1.2l1.2,0l-1,0.7l0.3,1.2l-1-0.7l-1,0.7l0.4-1.1l-1-0.7l1.2,0L45.2,33.9z"/>
			</g>
			<g>
				<radialGradient id="SVGID_101_" cx="55.6059" cy="35.3759" r="1.5571" gradientUnits="userSpaceOnUse">
					<stop  offset="2.453990e-02" style="stop-color:#FFFFFF"/>
					<stop  offset="1" style="stop-color:#B4E4FA"/>
				</radialGradient>
				<path class="st104" d="M55.6,33.9L56,35l1.2,0l-1,0.7l0.3,1.2l-1-0.7l-1,0.7l0.4-1.1L54,35l1.2,0L55.6,33.9z"/>
			</g>
		</g>
		
			<radialGradient id="SVGID_102_" cx="-105.9486" cy="-192.1959" r="2.9863" gradientTransform="matrix(0.729 0 0 0.5 116.7961 131.625)" gradientUnits="userSpaceOnUse">
			<stop  offset="2.453990e-02" style="stop-color:#FFFFFF"/>
			<stop  offset="1" style="stop-color:#B4E4FA"/>
		</radialGradient>
		<rect x="36.5" y="35.5" class="st105" width="6.2" height="0.1"/>
		
			<radialGradient id="SVGID_103_" cx="-271.915" cy="-191.0404" r="2.9862" gradientTransform="matrix(0.5571 0 0 0.5 191.7693 131.625)" gradientUnits="userSpaceOnUse">
			<stop  offset="2.453990e-02" style="stop-color:#FFFFFF"/>
			<stop  offset="1" style="stop-color:#B4E4FA"/>
		</radialGradient>
		<rect x="37.9" y="36.1" class="st106" width="4.7" height="0.1"/>
		
			<radialGradient id="SVGID_104_" cx="1111.66" cy="-192.1959" r="2.9863" gradientTransform="matrix(-0.729 0 0 0.5 871.711 131.625)" gradientUnits="userSpaceOnUse">
			<stop  offset="2.453990e-02" style="stop-color:#FFFFFF"/>
			<stop  offset="1" style="stop-color:#B4E4FA"/>
		</radialGradient>
		<rect x="58.2" y="35.5" class="st107" width="6.2" height="0.1"/>
		
			<radialGradient id="SVGID_105_" cx="1321.4032" cy="-191.0404" r="2.9862" gradientTransform="matrix(-0.5571 0 0 0.5 796.7387 131.625)" gradientUnits="userSpaceOnUse">
			<stop  offset="2.453990e-02" style="stop-color:#FFFFFF"/>
			<stop  offset="1" style="stop-color:#B4E4FA"/>
		</radialGradient>
		<rect x="58.2" y="36.1" class="st108" width="4.7" height="0.1"/>
	</g>
	<g>
		<path class="st25" d="M32.6,52.4C31,53.5,29.9,54,29,54.2h7.2l0-1.8C35,50.7,32.6,52.4,32.6,52.4L32.6,52.4z"/>
		<path class="st25" d="M26,52.6l-1.5,1.5H28C27.1,54,26.2,53.3,26,52.6L26,52.6z"/>
		<path class="st25" d="M26.5,52.2c0.8,0.8,2.5,0.8,5.7-1.5c0,0,3-2.2,4,0.8l0-9L26.5,52.2L26.5,52.2z"/>
		<polygon class="st25" points="37.5,53.2 37.1,53.2 37.1,53.1 37.9,53.1 37.9,53.2 37.6,53.2 37.6,54.2 37.5,54.2 37.5,53.2 		"/>
		<polygon class="st25" points="38.1,53.1 38.2,53.1 38.6,54 39,53.1 39.2,53.1 39.2,54.2 39.1,54.2 39.1,53.2 39.1,53.2 38.7,54.2 
			38.6,54.2 38.2,53.2 38.2,53.2 38.2,54.2 38.1,54.2 38.1,53.1 		"/>
		<path class="st25" d="M43.9,47.7c-0.4-0.4-0.8-0.5-1.1-0.5c-1.1,0-1.9,0.9-1.9,1.9c0,1.2,0.7,2,1.9,2c0.4,0,0.9-0.2,1.2-0.7
			l0.8,0.6c-0.5,0.7-1.2,1-2,1c-1.7,0-2.9-1.1-2.9-2.8c0-1.7,1.2-2.9,2.9-2.9c0.7,0,1.4,0.2,1.9,0.9L43.9,47.7L43.9,47.7z"/>
		<path class="st25" d="M48.5,49.8l-0.8-2.2l-0.9,2.2H48.5L48.5,49.8z M47.2,46.4h0.8l2.3,5.4h-1.1l-0.5-1.2h-2.4L46,51.8h-1.1
			L47.2,46.4L47.2,46.4z"/>
		<polygon class="st25" points="51.1,46.4 52.1,46.4 52.1,51 54.4,51 54.4,51.8 51.1,51.8 51.1,46.4 		"/>
		<polygon class="st25" points="56.5,49.5 54.5,46.4 55.7,46.4 57,48.6 58.4,46.4 59.5,46.4 57.5,49.5 57.5,51.8 56.5,51.8 
			56.5,49.5 		"/>
		<path class="st25" d="M61.7,48.8c0.6,0,1.3,0,1.3-0.8c0-0.7-0.6-0.8-1.2-0.8h-0.7v1.5H61.7L61.7,48.8z M60.1,46.4h1.8
			c1.1,0,2,0.4,2,1.6c0,1.4-1,1.6-2.2,1.6h-0.7v2.3h-1V46.4L60.1,46.4z"/>
		<path class="st25" d="M67.6,47.6c-0.2-0.3-0.6-0.4-1-0.4c-0.4,0-0.9,0.2-0.9,0.7c0,1.1,2.6,0.5,2.6,2.4c0,1.2-0.9,1.7-2,1.7
			c-0.7,0-1.3-0.2-1.8-0.7l0.7-0.7c0.2,0.4,0.6,0.6,1.1,0.6c0.4,0,1-0.2,1-0.7c0-1.2-2.6-0.5-2.6-2.5c0-1.1,1-1.6,2-1.6
			c0.6,0,1.1,0.2,1.6,0.6L67.6,47.6L67.6,47.6z"/>
		<path class="st25" d="M72,51.1c1.1,0,1.9-0.9,1.9-2c0-1.1-0.7-1.9-1.9-1.9c-1.1,0-1.9,0.9-1.9,1.9C70.1,50.2,70.9,51.1,72,51.1
			L72,51.1z M72,46.3c1.7,0,2.9,1.1,2.9,2.9c0,1.7-1.2,2.8-2.9,2.9c-1.7,0-2.9-1.1-2.9-2.8C69.1,47.4,70.3,46.3,72,46.3L72,46.3z"/>
		<path class="st25" d="M75.3,46.7V47c0,0,0,0,0.1,0c0.1,0,0.1,0,0.2,0c0,0,0-0.1,0-0.1C75.6,46.8,75.6,46.7,75.3,46.7L75.3,46.7
			L75.3,46.7L75.3,46.7z M75.7,47.5l-0.2-0.4h-0.1v0.4h-0.1v-0.8h0.2c0.2,0,0.3,0.1,0.3,0.2c0,0.1-0.1,0.2-0.2,0.2l0.2,0.4H75.7
			L75.7,47.5z M76,47.1c0-0.2-0.1-0.3-0.2-0.4c-0.1-0.1-0.2-0.2-0.4-0.2c-0.2,0-0.3,0.1-0.4,0.2s-0.2,0.2-0.2,0.4s0.1,0.3,0.2,0.4
			c0.1,0.1,0.2,0.2,0.4,0.2c0.2,0,0.3-0.1,0.4-0.2C76,47.4,76,47.2,76,47.1L76,47.1z M74.8,47.1c0-0.2,0.1-0.3,0.2-0.5
			c0.1-0.1,0.3-0.2,0.5-0.2c0.2,0,0.3,0.1,0.5,0.2c0.1,0.1,0.2,0.3,0.2,0.5c0,0.2-0.1,0.3-0.2,0.5c-0.1,0.1-0.3,0.2-0.5,0.2
			c-0.2,0-0.3-0.1-0.5-0.2C74.8,47.4,74.8,47.3,74.8,47.1L74.8,47.1z"/>
	</g>
	<g>
		<path class="st25" d="M39.3,59.8c0.5,0,0.9,0.2,1.1,0.5L40,60.8c-0.2-0.2-0.4-0.3-0.7-0.3c-0.7,0-1.1,0.6-1.1,1.5
			c0,0.9,0.4,1.5,1.1,1.5c0.4,0,0.6-0.1,0.8-0.4l0.4,0.4c-0.3,0.4-0.7,0.6-1.3,0.6c-1,0-1.8-0.7-1.8-2.1
			C37.4,60.6,38.3,59.8,39.3,59.8z"/>
		<path class="st25" d="M41.2,59.9h2.4v0.6h-1.7v1h1.4v0.6h-1.4v1.2h1.8v0.6h-2.5V59.9z"/>
		<path class="st25" d="M46.7,63.9l-0.9-1.6h-0.6v1.6h-0.7v-4h1.4c0.8,0,1.5,0.3,1.5,1.2c0,0.6-0.3,1-0.8,1.1l1,1.7H46.7z
			 M45.2,61.8h0.6c0.5,0,0.8-0.2,0.8-0.7c0-0.5-0.3-0.6-0.8-0.6h-0.6V61.8z"/>
		<path class="st25" d="M48.8,60.5h-1.2v-0.6h3v0.6h-1.2v3.4h-0.7V60.5z"/>
		<path class="st25" d="M51.4,59.9h0.7v4h-0.7V59.9z"/>
		<path class="st25" d="M53.1,59.9h2.4v0.6h-1.7v1.1h1.5v0.6h-1.5v1.7h-0.7V59.9z"/>
		<path class="st25" d="M56.2,59.9h0.7v4h-0.7V59.9z"/>
		<path class="st25" d="M58,59.9h2.4v0.6h-1.7v1h1.4v0.6h-1.4v1.2h1.8v0.6H58V59.9z"/>
		<path class="st25" d="M61.3,59.9h1.1c1.2,0,2,0.7,2,2c0,1.3-0.7,2-1.9,2h-1.1V59.9z M62.3,63.3c0.8,0,1.3-0.5,1.3-1.4
			c0-1-0.5-1.4-1.3-1.4H62v2.9H62.3z"/>
	</g>
	<g>
		
			<linearGradient id="SVGID_106_" gradientUnits="userSpaceOnUse" x1="15.0591" y1="152.4807" x2="86.3966" y2="152.4807" gradientTransform="matrix(1 0 0 1.1999 0 -106.8255)">
			<stop  offset="0" style="stop-color:#0E4066"/>
			<stop  offset="1" style="stop-color:#00609D"/>
		</linearGradient>
		<path class="st109" d="M86.4,83c-23.6,4.1-47.7,4.1-71.3,0c0-5.6,0-11.2,0-16.8c23.6,4.1,47.7,4.1,71.3,0
			C86.4,71.8,86.4,77.4,86.4,83z"/>
		<g>
			<radialGradient id="SVGID_107_" cx="50.6491" cy="69.5935" r="23.4949" gradientUnits="userSpaceOnUse">
				<stop  offset="0" style="stop-color:#D4EFFC"/>
				<stop  offset="1" style="stop-color:#6FBCE9"/>
			</radialGradient>
			<path class="st110" d="M83.8,68.4c-0.4,0.1-0.8,0.1-1.2,0.2c0-0.1,0-0.2,0-0.3c0.4-0.1,0.8-0.1,1.2-0.2
				C83.8,68.2,83.8,68.3,83.8,68.4z M81.5,68.8c-0.4,0.1-0.8,0.1-1.2,0.2c0-0.1,0-0.2,0-0.3c0.4-0.1,0.8-0.1,1.2-0.2
				C81.5,68.6,81.5,68.7,81.5,68.8z M79.2,69.1c-0.4,0.1-0.8,0.1-1.2,0.2c0-0.1,0-0.2,0-0.3c0.4-0.1,0.8-0.1,1.2-0.2
				C79.2,68.9,79.2,69,79.2,69.1z M76.9,69.4c-0.4,0-0.8,0.1-1.2,0.1c0-0.1,0-0.2,0-0.3c0.4,0,0.8-0.1,1.2-0.1
				C76.9,69.2,76.9,69.3,76.9,69.4z M74.6,69.7c-0.4,0-0.8,0.1-1.2,0.1c0-0.1,0-0.2,0-0.3c0.4,0,0.8-0.1,1.2-0.1
				C74.6,69.5,74.6,69.6,74.6,69.7z M72.2,70c-0.4,0-0.8,0.1-1.2,0.1c0-0.1,0-0.2,0-0.3c0.4,0,0.8-0.1,1.2-0.1
				C72.2,69.8,72.2,69.9,72.2,70z M69.9,70.2c-0.4,0-0.8,0.1-1.2,0.1c0-0.1,0-0.2,0-0.3c0.4,0,0.8-0.1,1.2-0.1
				C69.9,70,69.9,70.1,69.9,70.2z M67.6,70.4c-0.4,0-0.8,0.1-1.2,0.1c0-0.1,0-0.2,0-0.3c0.4,0,0.8-0.1,1.2-0.1
				C67.6,70.2,67.6,70.3,67.6,70.4z M65.2,70.6c-0.4,0-0.8,0.1-1.2,0.1c0-0.1,0-0.2,0-0.3c0.4,0,0.8-0.1,1.2-0.1
				C65.2,70.4,65.2,70.5,65.2,70.6z M62.9,70.7c-0.4,0-0.8,0-1.2,0.1c0-0.1,0-0.2,0-0.3c0.4,0,0.8,0,1.2-0.1
				C62.9,70.5,62.9,70.6,62.9,70.7z M60.6,70.8c-0.4,0-0.8,0-1.2,0.1c0-0.1,0-0.2,0-0.3c0.4,0,0.8,0,1.2-0.1
				C60.6,70.7,60.6,70.8,60.6,70.8z M58.2,70.9c-0.4,0-0.8,0-1.2,0c0-0.1,0-0.2,0-0.3c0.4,0,0.8,0,1.2,0
				C58.2,70.8,58.2,70.8,58.2,70.9z M55.9,71c-0.4,0-0.8,0-1.2,0c0-0.1,0-0.2,0-0.3c0.4,0,0.8,0,1.2,0C55.9,70.8,55.9,70.9,55.9,71z
				 M53.6,71.1c-0.4,0-0.8,0-1.2,0c0-0.1,0-0.2,0-0.3c0.4,0,0.8,0,1.2,0C53.6,70.9,53.6,71,53.6,71.1z M51.2,71.1
				c-0.4,0-0.8,0-1.2,0c0-0.1,0-0.2,0-0.3c0.4,0,0.8,0,1.2,0C51.2,70.9,51.2,71,51.2,71.1z M48.9,71.1c-0.4,0-0.8,0-1.2,0
				c0-0.1,0-0.2,0-0.3c0.4,0,0.8,0,1.2,0C48.9,70.9,48.9,71,48.9,71.1z M46.6,71c-0.4,0-0.8,0-1.2,0c0-0.1,0-0.2,0-0.3
				c0.4,0,0.8,0,1.2,0C46.6,70.8,46.6,70.9,46.6,71z M44.2,71c-0.4,0-0.8,0-1.2,0c0-0.1,0-0.2,0-0.3c0.4,0,0.8,0,1.2,0
				C44.2,70.8,44.2,70.9,44.2,71z M41.9,70.9c-0.4,0-0.8,0-1.2-0.1c0-0.1,0-0.2,0-0.3c0.4,0,0.8,0,1.2,0.1
				C41.9,70.7,41.9,70.8,41.9,70.9z M39.6,70.8c-0.4,0-0.8,0-1.2-0.1c0-0.1,0-0.2,0-0.3c0.4,0,0.8,0,1.2,0.1
				C39.6,70.6,39.6,70.7,39.6,70.8z M37.2,70.6c-0.4,0-0.8-0.1-1.2-0.1c0-0.1,0-0.2,0-0.3c0.4,0,0.8,0.1,1.2,0.1
				C37.2,70.4,37.2,70.5,37.2,70.6z M34.9,70.5c-0.4,0-0.8-0.1-1.2-0.1c0-0.1,0-0.2,0-0.3c0.4,0,0.8,0.1,1.2,0.1
				C34.9,70.3,34.9,70.4,34.9,70.5z M32.6,70.3c-0.4,0-0.8-0.1-1.2-0.1c0-0.1,0-0.2,0-0.3c0.4,0,0.8,0.1,1.2,0.1
				C32.6,70.1,32.6,70.2,32.6,70.3z M30.2,70.1c-0.4,0-0.8-0.1-1.2-0.1c0-0.1,0-0.2,0-0.3c0.4,0,0.8,0.1,1.2,0.1
				C30.2,69.9,30.2,70,30.2,70.1z M27.9,69.8c-0.4,0-0.8-0.1-1.2-0.1c0-0.1,0-0.2,0-0.3c0.4,0,0.8,0.1,1.2,0.1
				C27.9,69.6,27.9,69.7,27.9,69.8z M25.6,69.6c-0.4,0-0.8-0.1-1.2-0.1c0-0.1,0-0.2,0-0.3c0.4,0,0.8,0.1,1.2,0.1
				C25.6,69.4,25.6,69.5,25.6,69.6z M23.3,69.3c-0.4-0.1-0.8-0.1-1.2-0.2c0-0.1,0-0.2,0-0.3c0.4,0.1,0.8,0.1,1.2,0.2
				C23.3,69.1,23.3,69.2,23.3,69.3z M20.9,68.9c-0.4-0.1-0.8-0.1-1.2-0.2c0-0.1,0-0.2,0-0.3c0.4,0.1,0.8,0.1,1.2,0.2
				C20.9,68.7,20.9,68.8,20.9,68.9z M18.6,68.6c-0.4-0.1-0.8-0.1-1.2-0.2c0-0.1,0-0.2,0-0.3c0.4,0.1,0.8,0.1,1.2,0.2
				C18.6,68.4,18.6,68.5,18.6,68.6z"/>
		</g>
		<g>
			<radialGradient id="SVGID_108_" cx="50.6491" cy="82.6899" r="23.4949" gradientUnits="userSpaceOnUse">
				<stop  offset="0" style="stop-color:#D4EFFC"/>
				<stop  offset="1" style="stop-color:#6FBCE9"/>
			</radialGradient>
			<path class="st111" d="M83.8,81.5c-0.4,0.1-0.8,0.1-1.2,0.2c0-0.1,0-0.2,0-0.3c0.4-0.1,0.8-0.1,1.2-0.2
				C83.8,81.3,83.8,81.4,83.8,81.5z M81.5,81.9c-0.4,0.1-0.8,0.1-1.2,0.2c0-0.1,0-0.2,0-0.3c0.4-0.1,0.8-0.1,1.2-0.2
				C81.5,81.7,81.5,81.8,81.5,81.9z M79.2,82.2c-0.4,0.1-0.8,0.1-1.2,0.2c0-0.1,0-0.2,0-0.3c0.4-0.1,0.8-0.1,1.2-0.2
				C79.2,82,79.2,82.1,79.2,82.2z M76.9,82.5c-0.4,0-0.8,0.1-1.2,0.1c0-0.1,0-0.2,0-0.3c0.4,0,0.8-0.1,1.2-0.1
				C76.9,82.3,76.9,82.4,76.9,82.5z M74.6,82.8c-0.4,0-0.8,0.1-1.2,0.1c0-0.1,0-0.2,0-0.3c0.4,0,0.8-0.1,1.2-0.1
				C74.6,82.6,74.6,82.7,74.6,82.8z M72.2,83.1c-0.4,0-0.8,0.1-1.2,0.1c0-0.1,0-0.2,0-0.3c0.4,0,0.8-0.1,1.2-0.1
				C72.2,82.9,72.2,83,72.2,83.1z M69.9,83.3c-0.4,0-0.8,0.1-1.2,0.1c0-0.1,0-0.2,0-0.3c0.4,0,0.8-0.1,1.2-0.1
				C69.9,83.1,69.9,83.2,69.9,83.3z M67.6,83.5c-0.4,0-0.8,0.1-1.2,0.1c0-0.1,0-0.2,0-0.3c0.4,0,0.8-0.1,1.2-0.1
				C67.6,83.3,67.6,83.4,67.6,83.5z M65.2,83.7c-0.4,0-0.8,0.1-1.2,0.1c0-0.1,0-0.2,0-0.3c0.4,0,0.8-0.1,1.2-0.1
				C65.2,83.5,65.2,83.6,65.2,83.7z M62.9,83.8c-0.4,0-0.8,0-1.2,0.1c0-0.1,0-0.2,0-0.3c0.4,0,0.8,0,1.2-0.1
				C62.9,83.6,62.9,83.7,62.9,83.8z M60.6,83.9c-0.4,0-0.8,0-1.2,0.1c0-0.1,0-0.2,0-0.3c0.4,0,0.8,0,1.2-0.1
				C60.6,83.8,60.6,83.8,60.6,83.9z M58.2,84c-0.4,0-0.8,0-1.2,0c0-0.1,0-0.2,0-0.3c0.4,0,0.8,0,1.2,0C58.2,83.8,58.2,83.9,58.2,84z
				 M55.9,84.1c-0.4,0-0.8,0-1.2,0c0-0.1,0-0.2,0-0.3c0.4,0,0.8,0,1.2,0C55.9,83.9,55.9,84,55.9,84.1z M53.6,84.2
				c-0.4,0-0.8,0-1.2,0c0-0.1,0-0.2,0-0.3c0.4,0,0.8,0,1.2,0C53.6,84,53.6,84.1,53.6,84.2z M51.2,84.2c-0.4,0-0.8,0-1.2,0
				c0-0.1,0-0.2,0-0.3c0.4,0,0.8,0,1.2,0C51.2,84,51.2,84.1,51.2,84.2z M48.9,84.2c-0.4,0-0.8,0-1.2,0c0-0.1,0-0.2,0-0.3
				c0.4,0,0.8,0,1.2,0C48.9,84,48.9,84.1,48.9,84.2z M46.6,84.1c-0.4,0-0.8,0-1.2,0c0-0.1,0-0.2,0-0.3c0.4,0,0.8,0,1.2,0
				C46.6,83.9,46.6,84,46.6,84.1z M44.2,84.1c-0.4,0-0.8,0-1.2,0c0-0.1,0-0.2,0-0.3c0.4,0,0.8,0,1.2,0C44.2,83.9,44.2,84,44.2,84.1z
				 M41.9,84c-0.4,0-0.8,0-1.2-0.1c0-0.1,0-0.2,0-0.3c0.4,0,0.8,0,1.2,0.1C41.9,83.8,41.9,83.9,41.9,84z M39.6,83.9
				c-0.4,0-0.8,0-1.2-0.1c0-0.1,0-0.2,0-0.3c0.4,0,0.8,0,1.2,0.1C39.6,83.7,39.6,83.8,39.6,83.9z M37.2,83.7c-0.4,0-0.8-0.1-1.2-0.1
				c0-0.1,0-0.2,0-0.3c0.4,0,0.8,0.1,1.2,0.1C37.2,83.5,37.2,83.6,37.2,83.7z M34.9,83.6c-0.4,0-0.8-0.1-1.2-0.1c0-0.1,0-0.2,0-0.3
				c0.4,0,0.8,0.1,1.2,0.1C34.9,83.4,34.9,83.5,34.9,83.6z M32.6,83.4c-0.4,0-0.8-0.1-1.2-0.1c0-0.1,0-0.2,0-0.3
				c0.4,0,0.8,0.1,1.2,0.1C32.6,83.2,32.6,83.3,32.6,83.4z M30.2,83.2c-0.4,0-0.8-0.1-1.2-0.1c0-0.1,0-0.2,0-0.3
				c0.4,0,0.8,0.1,1.2,0.1C30.2,83,30.2,83.1,30.2,83.2z M27.9,82.9c-0.4,0-0.8-0.1-1.2-0.1c0-0.1,0-0.2,0-0.3
				c0.4,0,0.8,0.1,1.2,0.1C27.9,82.7,27.9,82.8,27.9,82.9z M25.6,82.6c-0.4,0-0.8-0.1-1.2-0.1c0-0.1,0-0.2,0-0.3
				c0.4,0.1,0.8,0.1,1.2,0.1C25.6,82.5,25.6,82.6,25.6,82.6z M23.3,82.4c-0.4-0.1-0.8-0.1-1.2-0.2c0-0.1,0-0.2,0-0.3
				c0.4,0.1,0.8,0.1,1.2,0.2C23.3,82.2,23.3,82.3,23.3,82.4z M20.9,82c-0.4-0.1-0.8-0.1-1.2-0.2c0-0.1,0-0.2,0-0.3
				c0.4,0.1,0.8,0.1,1.2,0.2C20.9,81.8,20.9,81.9,20.9,82z M18.6,81.7c-0.4-0.1-0.8-0.1-1.2-0.2c0-0.1,0-0.2,0-0.3
				c0.4,0.1,0.8,0.1,1.2,0.2C18.6,81.5,18.6,81.6,18.6,81.7z"/>
		</g>
		<radialGradient id="SVGID_109_" cx="55.4552" cy="76.2659" r="26.4752" gradientUnits="userSpaceOnUse">
			<stop  offset="0" style="stop-color:#D4EFFC"/>
			<stop  offset="1" style="stop-color:#6FBCE9"/>
		</radialGradient>
		<path class="st112" d="M19.8,74.2c0,0,0.1,0,0.1,0.1l1.1,1.1h0l0,0h0h0h0h0l-1.1,1.1c0,0-0.1,0.1-0.1,0.1c-0.2,0.1-0.5,0-0.7-0.2
			c-0.1-0.2-0.1-0.3,0-0.5c-0.3,0-0.5-0.2-0.5-0.5c0-0.3,0.2-0.5,0.5-0.5c-0.1-0.1-0.1-0.3,0-0.5C19.3,74.2,19.6,74.1,19.8,74.2z"/>
		<radialGradient id="SVGID_110_" cx="55.455" cy="76.2656" r="26.4749" gradientUnits="userSpaceOnUse">
			<stop  offset="0" style="stop-color:#D4EFFC"/>
			<stop  offset="1" style="stop-color:#6FBCE9"/>
		</radialGradient>
		<path class="st113" d="M82,76.7c0,0-0.1,0-0.1-0.1l-1.1-1.1h0h0h0l0,0h0h0l1.1-1.1c0,0,0.1-0.1,0.1-0.1c0.2-0.1,0.5,0,0.7,0.2
			c0.1,0.2,0.1,0.3,0,0.5c0.3,0,0.5,0.2,0.5,0.5c0,0.3-0.2,0.5-0.5,0.5c0.1,0.1,0.1,0.3,0,0.5C82.5,76.7,82.2,76.8,82,76.7z"/>
	</g>
	<g>
		<path class="st25" d="M38.3,73.9h2.9v0.7h-2.1v1.2H41v0.7h-1.7V78h2.1v0.7h-3V73.9z"/>
		<path class="st25" d="M43.2,76.2l-1.3-2.4h1l0.5,1.1c0.1,0.2,0.2,0.5,0.4,0.7h0c0.1-0.3,0.2-0.5,0.3-0.7l0.5-1.1h0.9l-1.3,2.4
			l1.4,2.5h-1l-0.6-1.1c-0.1-0.3-0.2-0.5-0.4-0.8h0c-0.1,0.3-0.2,0.5-0.4,0.8l-0.6,1.1h-0.9L43.2,76.2z"/>
		<path class="st25" d="M46.4,73.9H48c1.1,0,1.9,0.4,1.9,1.5c0,1.1-0.8,1.6-1.9,1.6h-0.8v1.8h-0.9V73.9z M47.9,76.3
			c0.7,0,1.1-0.3,1.1-0.9c0-0.6-0.4-0.8-1.1-0.8h-0.7v1.7H47.9z"/>
		<path class="st25" d="M50.8,73.9h2.9v0.7h-2.1v1.2h1.8v0.7h-1.8V78h2.1v0.7h-3V73.9z"/>
		<path class="st25" d="M57.4,78.7l-1-1.9h-0.7v1.9h-0.9v-4.9h1.6c1,0,1.8,0.4,1.8,1.4c0,0.7-0.4,1.2-1,1.4l1.2,2H57.4z M55.6,76.2
			h0.7c0.7,0,1-0.3,1-0.8c0-0.6-0.4-0.8-1-0.8h-0.7V76.2z"/>
		<path class="st25" d="M60.1,74.6h-1.4v-0.7h3.7v0.7h-1.4v4.1h-0.9V74.6z"/>
	</g>
</g>
</svg>
