<?xml version="1.0" encoding="utf-8"?>
<!-- Generator: Adobe Illustrator 25.0.0, SVG Export Plug-In . SVG Version: 6.00 Build 0)  -->
<svg version="1.1" id="Layer_1" xmlns="http://www.w3.org/2000/svg" xmlns:xlink="http://www.w3.org/1999/xlink" x="0px" y="0px"
	 viewBox="0 0 100 100" style="enable-background:new 0 0 100 100;" xml:space="preserve">
<style type="text/css">
	.st0{fill:url(#SVGID_2_);}
	.st1{enable-background:new    ;}
	.st2{fill:#EDEDEE;}
	.st3{fill:url(#SVGID_3_);}
	.st4{fill:url(#SVGID_4_);}
	.st5{fill:url(#SVGID_5_);}
	.st6{fill:url(#SVGID_6_);}
	.st7{fill:url(#SVGID_7_);}
	.st8{fill:url(#SVGID_8_);}
	.st9{fill:url(#SVGID_9_);}
	.st10{fill:url(#SVGID_10_);}
	.st11{fill:url(#SVGID_11_);}
	.st12{fill:url(#SVGID_12_);}
	.st13{fill:url(#SVGID_13_);}
	.st14{fill:url(#SVGID_14_);}
	.st15{fill:url(#SVGID_15_);}
	.st16{fill:url(#SVGID_16_);}
	.st17{fill:url(#SVGID_17_);}
	.st18{fill:url(#SVGID_18_);}
	.st19{fill:url(#SVGID_19_);}
	.st20{fill:url(#SVGID_20_);}
	.st21{fill:url(#SVGID_21_);}
	.st22{fill:url(#SVGID_22_);}
	.st23{fill:url(#SVGID_23_);}
	.st24{fill:url(#SVGID_24_);}
	.st25{fill:#022B45;}
	.st26{fill:#FFFFFF;}
	.st27{clip-path:url(#SVGID_27_);}
	.st28{clip-path:url(#SVGID_28_);fill:url(#SVGID_29_);}
	.st29{opacity:0.33;fill:url(#SVGID_30_);enable-background:new    ;}
	.st30{fill:url(#SVGID_31_);}
	.st31{fill:url(#SVGID_32_);}
	.st32{fill:url(#SVGID_33_);}
	.st33{fill:url(#SVGID_34_);}
	.st34{fill:url(#SVGID_35_);}
	.st35{fill:url(#SVGID_36_);}
	.st36{fill:url(#SVGID_37_);}
	.st37{fill:url(#SVGID_38_);}
	.st38{fill:url(#SVGID_39_);}
	.st39{fill:url(#SVGID_40_);}
	.st40{fill:url(#SVGID_41_);}
	.st41{fill:url(#SVGID_42_);}
	.st42{fill:url(#SVGID_43_);}
	.st43{fill:url(#SVGID_44_);}
	.st44{fill:url(#SVGID_45_);}
	.st45{fill:url(#SVGID_46_);}
	.st46{fill:url(#SVGID_47_);}
	.st47{fill:url(#SVGID_48_);}
	.st48{fill:url(#SVGID_49_);}
	.st49{fill:url(#SVGID_50_);}
	.st50{fill:url(#SVGID_51_);}
	.st51{fill:url(#SVGID_52_);}
	.st52{fill:url(#SVGID_53_);}
	.st53{fill:url(#SVGID_54_);}
	.st54{fill:url(#SVGID_55_);}
	.st55{fill:url(#SVGID_56_);}
	.st56{fill:url(#SVGID_57_);}
	.st57{fill:url(#SVGID_58_);}
	.st58{fill:url(#SVGID_59_);}
	.st59{fill:url(#SVGID_60_);}
	.st60{fill:url(#SVGID_61_);}
	.st61{fill:url(#SVGID_62_);}
	.st62{fill:url(#SVGID_63_);}
	.st63{fill:url(#SVGID_64_);}
	.st64{fill:url(#SVGID_65_);}
	.st65{fill:url(#SVGID_66_);}
	.st66{fill:url(#SVGID_67_);}
	.st67{fill:url(#SVGID_68_);}
	.st68{fill:url(#SVGID_69_);}
	.st69{fill:url(#SVGID_70_);}
	.st70{fill:url(#SVGID_71_);}
	.st71{fill:url(#SVGID_72_);}
	.st72{fill:url(#SVGID_73_);}
	.st73{fill:url(#SVGID_74_);}
	.st74{fill:url(#SVGID_75_);}
	.st75{fill:url(#SVGID_76_);}
	.st76{fill:url(#SVGID_77_);}
	.st77{fill:url(#SVGID_78_);}
	.st78{fill:url(#SVGID_79_);}
	.st79{fill:url(#SVGID_80_);}
	.st80{fill:url(#SVGID_81_);}
	.st81{fill:url(#SVGID_82_);}
	.st82{fill:url(#SVGID_83_);}
	.st83{fill:url(#SVGID_84_);}
	.st84{fill:url(#SVGID_85_);}
	.st85{fill:url(#SVGID_86_);}
	.st86{fill:url(#SVGID_87_);}
	.st87{fill:url(#SVGID_88_);}
	.st88{fill:url(#SVGID_89_);}
	.st89{fill:url(#SVGID_90_);}
	.st90{fill:url(#SVGID_91_);}
	.st91{fill:url(#SVGID_92_);}
	.st92{fill:url(#SVGID_93_);}
	.st93{fill:url(#SVGID_94_);}
	.st94{fill:url(#SVGID_95_);}
	.st95{fill:url(#SVGID_96_);}
	.st96{fill:url(#SVGID_97_);}
	.st97{fill:url(#SVGID_98_);}
	.st98{fill:url(#SVGID_99_);}
	.st99{fill:url(#SVGID_100_);}
	.st100{fill:url(#SVGID_101_);}
	.st101{fill:url(#SVGID_102_);}
	.st102{fill-rule:evenodd;clip-rule:evenodd;fill:url(#SVGID_103_);}
	.st103{fill-rule:evenodd;clip-rule:evenodd;fill:url(#SVGID_104_);}
	.st104{fill-rule:evenodd;clip-rule:evenodd;fill:url(#SVGID_105_);}
	.st105{fill-rule:evenodd;clip-rule:evenodd;fill:url(#SVGID_106_);}
	.st106{fill-rule:evenodd;clip-rule:evenodd;fill:url(#SVGID_107_);}
	.st107{fill:url(#SVGID_108_);}
	.st108{fill:url(#SVGID_109_);}
	.st109{fill:url(#SVGID_110_);}
	.st110{fill-rule:evenodd;clip-rule:evenodd;fill:url(#SVGID_111_);}
	.st111{fill-rule:evenodd;clip-rule:evenodd;fill:url(#SVGID_112_);}
</style>
<g>
	
		<radialGradient id="SVGID_2_" cx="50.1" cy="64.7" r="36.0773" gradientTransform="matrix(1 0 0 -1 0 100)" gradientUnits="userSpaceOnUse">
		<stop  offset="3.067480e-02" style="stop-color:#4A95D0"/>
		<stop  offset="1" style="stop-color:#005183"/>
	</radialGradient>
	<path class="st0" d="M76.1,67h-52c-2.9,0-5.3-2.4-5.3-5.3L10,8.9c0-2.9,2.4-5.3,5.3-5.3h69.6c2.9,0,5.3,2.4,5.3,5.3l-8.8,52.8
		C81.3,64.7,79,67,76.1,67z"/>
	<g class="st1">
		<path class="st2" d="M18.6,7h4.1v1.2H20v1.5h2.3v1.2H20v2.4h-1.5V7z"/>
		<path class="st2" d="M27.4,13.3l-1.3-2.3h-0.8v2.3h-1.5V7h2.4c1.4,0,2.5,0.5,2.5,2c0,0.9-0.5,1.5-1.2,1.8l1.5,2.5H27.4z M25.3,9.9
			h0.8c0.8,0,1.2-0.3,1.2-0.9s-0.4-0.8-1.2-0.8h-0.8V9.9z"/>
		<path class="st2" d="M29.7,10.1c0-2.1,1.2-3.2,3-3.2s3,1.2,3,3.2c0,2.1-1.2,3.3-3,3.3S29.7,12.2,29.7,10.1z M34.1,10.1
			c0-1.3-0.6-2-1.5-2s-1.5,0.8-1.5,2c0,1.3,0.6,2.1,1.5,2.1S34.1,11.4,34.1,10.1z"/>
		<path class="st2" d="M36.8,7h1.5l1.7,3.1l0.6,1.4h0c-0.1-0.7-0.2-1.6-0.2-2.3V7h1.4v6.3h-1.5l-1.7-3.1l-0.6-1.4h0
			c0.1,0.7,0.2,1.5,0.2,2.3v2.2h-1.4V7z"/>
		<path class="st2" d="M44.8,8.2H43V7H48v1.2h-1.8v5.1h-1.5V8.2z"/>
		<path class="st2" d="M50.8,10.1c0-2.1,1.2-3.2,3-3.2s3,1.2,3,3.2c0,2.1-1.2,3.3-3,3.3S50.8,12.2,50.8,10.1z M55.2,10.1
			c0-1.3-0.6-2-1.5-2c-0.9,0-1.5,0.8-1.5,2c0,1.3,0.6,2.1,1.5,2.1C54.7,12.2,55.2,11.4,55.2,10.1z"/>
		<path class="st2" d="M58,7h4.1v1.2h-2.6v1.5h2.3v1.2h-2.3v2.4H58V7z"/>
		<path class="st2" d="M63.2,7h4.1v1.2h-2.6v1.5H67v1.2h-2.3v2.4h-1.5V7z"/>
		<path class="st2" d="M68.5,7h1.5v6.3h-1.5V7z"/>
		<path class="st2" d="M74.3,6.9c0.8,0,1.5,0.4,1.9,0.8l-0.8,0.9c-0.3-0.3-0.7-0.5-1.1-0.5c-0.9,0-1.6,0.8-1.6,2c0,1.3,0.6,2,1.6,2
			c0.5,0,0.9-0.2,1.2-0.6l0.8,0.9c-0.5,0.6-1.3,0.9-2.1,0.9c-1.7,0-3.1-1.1-3.1-3.2C71.2,8.1,72.6,6.9,74.3,6.9z"/>
		<path class="st2" d="M77.3,7h4.1v1.2h-2.6v1.3H81v1.2h-2.2v1.4h2.7v1.2h-4.2V7z"/>
	</g>
	<g>
		
			<linearGradient id="SVGID_3_" gradientUnits="userSpaceOnUse" x1="7.4272" y1="29.6735" x2="19.9474" y2="29.6735" gradientTransform="matrix(1 0 0 -1 0 100)">
			<stop  offset="0" style="stop-color:#0E4066"/>
			<stop  offset="1" style="stop-color:#00609D"/>
		</linearGradient>
		<path class="st3" d="M7.4,62c0,0,0.4,0.2,1,0.4c1.8,0.7,8.5,2,11.5,0V78c0,0-8.2,2-12.5-1c0,0,3-3,4.2-6.5
			C11.6,70.6,10.4,68.8,7.4,62z"/>
		<g>
			<g>
				
					<radialGradient id="SVGID_4_" cx="14.3188" cy="25.7015" r="21.1974" gradientTransform="matrix(1 0 0 -1 0 100)" gradientUnits="userSpaceOnUse">
					<stop  offset="0" style="stop-color:#D4EFFC"/>
					<stop  offset="1" style="stop-color:#6FBCE9"/>
				</radialGradient>
				<path class="st4" d="M9.6,77.1c-0.1,0-0.3-0.1-0.4-0.1L9,76.8l0.2-0.2c0.1-0.1,0.2-0.2,0.2-0.3l0.3,0.2c0,0,0,0.1-0.1,0.1h0.1
					L9.6,77.1z"/>
			</g>
			<g>
				
					<radialGradient id="SVGID_5_" cx="14.3192" cy="25.7032" r="21.2039" gradientTransform="matrix(1 0 0 -1 0 100)" gradientUnits="userSpaceOnUse">
					<stop  offset="0" style="stop-color:#D4EFFC"/>
					<stop  offset="1" style="stop-color:#6FBCE9"/>
				</radialGradient>
				<path class="st5" d="M10.1,76l-0.3-0.2c0.1-0.2,0.3-0.4,0.4-0.6l0.3,0.2C10.4,75.6,10.3,75.8,10.1,76z M11,74.8l-0.3-0.2
					c0.1-0.2,0.3-0.4,0.4-0.6l0.3,0.2C11.3,74.4,11.1,74.6,11,74.8z M11.8,73.6l-0.3-0.2c0.1-0.2,0.2-0.4,0.3-0.6l0.3,0.2
					C12,73.1,11.9,73.4,11.8,73.6z M12.4,72.3L12,72.1c0.1-0.2,0.2-0.4,0.3-0.7l0.4,0.1C12.6,71.8,12.5,72,12.4,72.3z"/>
			</g>
			<g>
				
					<radialGradient id="SVGID_6_" cx="14.319" cy="25.7027" r="21.2067" gradientTransform="matrix(1 0 0 -1 0 100)" gradientUnits="userSpaceOnUse">
					<stop  offset="0" style="stop-color:#D4EFFC"/>
					<stop  offset="1" style="stop-color:#6FBCE9"/>
				</radialGradient>
				<polygon class="st6" points="13,70.9 12.6,70.8 12.7,70.5 12.5,70.2 12.9,70 13.1,70.4 				"/>
			</g>
			<g>
				
					<radialGradient id="SVGID_7_" cx="14.3192" cy="25.7046" r="21.2003" gradientTransform="matrix(1 0 0 -1 0 100)" gradientUnits="userSpaceOnUse">
					<stop  offset="0" style="stop-color:#D4EFFC"/>
					<stop  offset="1" style="stop-color:#6FBCE9"/>
				</radialGradient>
				<path class="st7" d="M12.2,69.6c-0.1-0.2-0.2-0.4-0.3-0.6l0.3-0.2c0.1,0.3,0.2,0.5,0.3,0.6L12.2,69.6z M11.5,68.4
					c-0.1-0.2-0.2-0.4-0.3-0.6l0.4-0.2c0.1,0.2,0.2,0.4,0.3,0.6L11.5,68.4z M10.8,67.1c-0.1-0.2-0.2-0.4-0.3-0.6l0.4-0.2
					c0.1,0.2,0.2,0.4,0.3,0.6L10.8,67.1z M10.2,65.8c-0.1-0.2-0.2-0.4-0.3-0.6l0.4-0.2c0.1,0.2,0.2,0.4,0.3,0.6L10.2,65.8z"/>
			</g>
			<g>
				
					<radialGradient id="SVGID_8_" cx="14.3193" cy="25.7126" r="21.1873" gradientTransform="matrix(1 0 0 -1 0 100)" gradientUnits="userSpaceOnUse">
					<stop  offset="0" style="stop-color:#D4EFFC"/>
					<stop  offset="1" style="stop-color:#6FBCE9"/>
				</radialGradient>
				<path class="st8" d="M9.6,64.5l-0.3-0.7l0.4,0.1c0.1,0,0.2,0.1,0.4,0.1L10,64.3l0,0l0,0l0,0L9.6,64.5z"/>
			</g>
			<g>
				
					<radialGradient id="SVGID_9_" cx="14.3188" cy="25.7086" r="21.1932" gradientTransform="matrix(1 0 0 -1 0 100)" gradientUnits="userSpaceOnUse">
					<stop  offset="0" style="stop-color:#D4EFFC"/>
					<stop  offset="1" style="stop-color:#6FBCE9"/>
				</radialGradient>
				<path class="st9" d="M15.3,64.9v-0.4c0.3,0,0.5,0,0.8,0v0.4C15.9,64.9,15.6,64.9,15.3,64.9z M14.6,64.9c-0.3,0-0.5,0-0.8,0v-0.4
					c0.3,0,0.5,0,0.8,0V64.9z M16.9,64.8v-0.4c0.3,0,0.5-0.1,0.7-0.1l0.1,0.4C17.4,64.8,17.2,64.8,16.9,64.8z M13,64.8
					c-0.3,0-0.5-0.1-0.8-0.1v-0.4c0.2,0,0.5,0.1,0.8,0.1V64.8z M11.5,64.6c-0.3,0-0.5-0.1-0.8-0.1l0.1-0.4c0.2,0,0.5,0.1,0.8,0.1
					L11.5,64.6z"/>
			</g>
			<g>
				
					<radialGradient id="SVGID_10_" cx="14.3193" cy="25.704" r="21.2024" gradientTransform="matrix(1 0 0 -1 0 100)" gradientUnits="userSpaceOnUse">
					<stop  offset="0" style="stop-color:#D4EFFC"/>
					<stop  offset="1" style="stop-color:#6FBCE9"/>
				</radialGradient>
				<path class="st10" d="M19,64.7h-0.4v-0.1h-0.1l-0.1-0.4c0.1,0,0.2-0.1,0.4-0.1L19,64V64.7z"/>
			</g>
			<g>
				
					<radialGradient id="SVGID_11_" cx="14.3191" cy="25.7032" r="21.2029" gradientTransform="matrix(1 0 0 -1 0 100)" gradientUnits="userSpaceOnUse">
					<stop  offset="0" style="stop-color:#D4EFFC"/>
					<stop  offset="1" style="stop-color:#6FBCE9"/>
				</radialGradient>
				<path class="st11" d="M19,75.9h-0.4v-0.8H19V75.9z M19,74.3h-0.4v-0.8H19V74.3z M19,72.7h-0.4v-0.8H19V72.7z M19,71.1h-0.4v-0.8
					H19V71.1z M19,69.5h-0.4v-0.8H19V69.5z M19,67.9h-0.4v-0.8H19V67.9z M19,66.3h-0.4v-0.8H19V66.3z"/>
			</g>
			<g>
				
					<radialGradient id="SVGID_12_" cx="14.3193" cy="25.7027" r="21.1997" gradientTransform="matrix(1 0 0 -1 0 100)" gradientUnits="userSpaceOnUse">
					<stop  offset="0" style="stop-color:#D4EFFC"/>
					<stop  offset="1" style="stop-color:#6FBCE9"/>
				</radialGradient>
				<path class="st12" d="M18.4,77.4V77c0.1,0,0.2,0,0.2,0v-0.2H19v0.6h-0.2C18.7,77.3,18.6,77.3,18.4,77.4z"/>
			</g>
			<g>
				
					<radialGradient id="SVGID_13_" cx="14.3188" cy="25.7038" r="21.2035" gradientTransform="matrix(1 0 0 -1 0 100)" gradientUnits="userSpaceOnUse">
					<stop  offset="0" style="stop-color:#D4EFFC"/>
					<stop  offset="1" style="stop-color:#6FBCE9"/>
				</radialGradient>
				<path class="st13" d="M14.2,77.7c-0.2,0-0.4,0-0.6,0v-0.4c0.2,0,0.4,0,0.6,0h0.2v0.4H14.2z M15.2,77.7v-0.4c0.3,0,0.5,0,0.8,0
					v0.4C15.8,77.7,15.5,77.7,15.2,77.7z M12.8,77.7c-0.3,0-0.5,0-0.8-0.1v-0.4c0.3,0,0.5,0.1,0.8,0.1V77.7z M16.8,77.6v-0.4
					c0.3,0,0.5-0.1,0.8-0.1l0.1,0.4C17.4,77.5,17.1,77.5,16.8,77.6z M11.2,77.5c-0.3-0.1-0.5-0.1-0.8-0.2l0.1-0.4
					c0.2,0.1,0.5,0.1,0.8,0.2L11.2,77.5z"/>
			</g>
		</g>
	</g>
	<g>
		
			<linearGradient id="SVGID_14_" gradientUnits="userSpaceOnUse" x1="1034.7572" y1="29.6735" x2="1047.2788" y2="29.6735" gradientTransform="matrix(-1 0 0 -1 1127.3301 100)">
			<stop  offset="0" style="stop-color:#0E4066"/>
			<stop  offset="1" style="stop-color:#00609D"/>
		</linearGradient>
		<path class="st14" d="M92.6,62c0,0-0.4,0.2-1,0.4c-1.8,0.7-8.5,2-11.5,0V78c0,0,8.2,2,12.5-1c0,0-3-3-4.2-6.5
			C88.4,70.6,89.6,68.8,92.6,62z"/>
		<g>
			<g>
				
					<radialGradient id="SVGID_15_" cx="92.9632" cy="26.7259" r="12.9202" gradientTransform="matrix(1 0 0 -1 0 100)" gradientUnits="userSpaceOnUse">
					<stop  offset="0" style="stop-color:#D4EFFC"/>
					<stop  offset="1" style="stop-color:#6FBCE9"/>
				</radialGradient>
				<path class="st15" d="M90.4,77.1c0.1,0,0.3-0.1,0.4-0.1l0.2-0.1l-0.2-0.2c-0.1-0.1-0.2-0.2-0.2-0.3l-0.3,0.2l0.1,0.1h-0.1
					L90.4,77.1z"/>
			</g>
			<g>
				
					<radialGradient id="SVGID_16_" cx="92.9629" cy="26.7284" r="12.9284" gradientTransform="matrix(1 0 0 -1 0 100)" gradientUnits="userSpaceOnUse">
					<stop  offset="0" style="stop-color:#D4EFFC"/>
					<stop  offset="1" style="stop-color:#6FBCE9"/>
				</radialGradient>
				<path class="st16" d="M89.4,75.4l0.3-0.2c0.1,0.2,0.3,0.4,0.4,0.6L89.9,76C89.7,75.8,89.6,75.6,89.4,75.4z M88.6,74.2L89,74
					c0.1,0.2,0.3,0.4,0.4,0.6L89,74.8C88.9,74.6,88.7,74.4,88.6,74.2z M87.9,72.9l0.3-0.2c0.1,0.2,0.2,0.4,0.3,0.6l-0.3,0.2
					C88.1,73.4,88,73.1,87.9,72.9z M87.3,71.6l0.4-0.1c0.1,0.2,0.2,0.4,0.3,0.7l-0.4,0.2C87.5,72,87.4,71.8,87.3,71.6z"/>
			</g>
			<g>
				
					<radialGradient id="SVGID_17_" cx="92.9628" cy="26.7282" r="12.9287" gradientTransform="matrix(1 0 0 -1 0 100)" gradientUnits="userSpaceOnUse">
					<stop  offset="0" style="stop-color:#D4EFFC"/>
					<stop  offset="1" style="stop-color:#6FBCE9"/>
				</radialGradient>
				<polygon class="st17" points="87,70.9 87.4,70.8 87.3,70.5 87.5,70.2 87.1,70 86.9,70.4 				"/>
			</g>
			<g>
				
					<radialGradient id="SVGID_18_" cx="92.963" cy="26.7297" r="12.9271" gradientTransform="matrix(1 0 0 -1 0 100)" gradientUnits="userSpaceOnUse">
					<stop  offset="0" style="stop-color:#D4EFFC"/>
					<stop  offset="1" style="stop-color:#6FBCE9"/>
				</radialGradient>
				<path class="st18" d="M87.5,69.4c0.1-0.2,0.2-0.4,0.3-0.6l0.3,0.2c-0.1,0.3-0.2,0.5-0.3,0.6L87.5,69.4z M88.2,68.2
					c0.1-0.2,0.2-0.4,0.3-0.6l0.3,0.2c-0.1,0.2-0.2,0.4-0.3,0.6L88.2,68.2z M88.8,66.9c0.1-0.2,0.2-0.4,0.3-0.6l0.4,0.2
					c-0.1,0.2-0.2,0.4-0.3,0.6L88.8,66.9z M89.4,65.6c0.1-0.2,0.2-0.4,0.3-0.6l0.4,0.2c-0.1,0.2-0.2,0.4-0.3,0.6L89.4,65.6z"/>
			</g>
			<g>
				
					<radialGradient id="SVGID_19_" cx="92.9627" cy="26.7369" r="12.9176" gradientTransform="matrix(1 0 0 -1 0 100)" gradientUnits="userSpaceOnUse">
					<stop  offset="0" style="stop-color:#D4EFFC"/>
					<stop  offset="1" style="stop-color:#6FBCE9"/>
				</radialGradient>
				<path class="st19" d="M90.4,64.5l0.3-0.7l-0.4,0.1c-0.1,0-0.2,0.1-0.4,0.1l0.1,0.4l0,0l0,0l0,0L90.4,64.5z"/>
			</g>
			<g>
				
					<radialGradient id="SVGID_20_" cx="92.9627" cy="26.7333" r="12.9193" gradientTransform="matrix(1 0 0 -1 0 100)" gradientUnits="userSpaceOnUse">
					<stop  offset="0" style="stop-color:#D4EFFC"/>
					<stop  offset="1" style="stop-color:#6FBCE9"/>
				</radialGradient>
				<path class="st20" d="M83.9,64.9v-0.4c0.2,0,0.5,0,0.8,0v0.4C84.4,64.9,84.1,64.9,83.9,64.9z M85.4,64.5c0.3,0,0.5,0,0.8,0v0.4
					c-0.3,0-0.5,0-0.8,0V64.5z M82.3,64.7l0.1-0.4c0.2,0,0.5,0.1,0.7,0.1v0.4C82.8,64.8,82.6,64.8,82.3,64.7z M86.9,64.4
					c0.3,0,0.5-0.1,0.8-0.1v0.4c-0.3,0-0.5,0.1-0.8,0.1V64.4z M88.4,64.2c0.3,0,0.5-0.1,0.8-0.1l0.1,0.4c-0.2,0-0.5,0.1-0.8,0.1
					L88.4,64.2z"/>
			</g>
			<g>
				
					<radialGradient id="SVGID_21_" cx="92.9624" cy="26.7292" r="12.928" gradientTransform="matrix(1 0 0 -1 0 100)" gradientUnits="userSpaceOnUse">
					<stop  offset="0" style="stop-color:#D4EFFC"/>
					<stop  offset="1" style="stop-color:#6FBCE9"/>
				</radialGradient>
				<path class="st21" d="M81,64.7h0.4v-0.1h0.1l0.1-0.4c-0.1,0-0.2-0.1-0.4-0.1L81,64V64.7z"/>
			</g>
			<g>
				
					<radialGradient id="SVGID_22_" cx="92.9625" cy="26.7284" r="12.928" gradientTransform="matrix(1 0 0 -1 0 100)" gradientUnits="userSpaceOnUse">
					<stop  offset="0" style="stop-color:#D4EFFC"/>
					<stop  offset="1" style="stop-color:#6FBCE9"/>
				</radialGradient>
				<path class="st22" d="M81,75.1h0.4v0.8H81V75.1z M81,73.5h0.4v0.8H81V73.5z M81,71.9h0.4v0.8H81V71.9z M81,70.3h0.4v0.8H81V70.3
					z M81,68.7h0.4v0.8H81V68.7z M81,67.1h0.4v0.8H81V67.1z M81,65.5h0.4v0.8H81V65.5z"/>
			</g>
			<g>
				
					<radialGradient id="SVGID_23_" cx="92.9622" cy="26.7276" r="12.9272" gradientTransform="matrix(1 0 0 -1 0 100)" gradientUnits="userSpaceOnUse">
					<stop  offset="0" style="stop-color:#D4EFFC"/>
					<stop  offset="1" style="stop-color:#6FBCE9"/>
				</radialGradient>
				<path class="st23" d="M81.6,77.4l0.1-0.4c-0.1,0-0.2,0-0.2,0v-0.2H81v0.6h0.2C81.3,77.3,81.4,77.3,81.6,77.4z"/>
			</g>
			<g>
				
					<radialGradient id="SVGID_24_" cx="92.9627" cy="26.729" r="12.9281" gradientTransform="matrix(1 0 0 -1 0 100)" gradientUnits="userSpaceOnUse">
					<stop  offset="0" style="stop-color:#D4EFFC"/>
					<stop  offset="1" style="stop-color:#6FBCE9"/>
				</radialGradient>
				<path class="st24" d="M85.6,77.7v-0.4h0.2c0.2,0,0.4,0,0.6,0v0.4c-0.2,0-0.4,0-0.6,0H85.6z M84,77.6v-0.4c0.3,0,0.5,0,0.8,0v0.4
					C84.5,77.7,84.2,77.7,84,77.6z M87.2,77.3c0.3,0,0.5,0,0.8-0.1v0.4c-0.3,0-0.5,0.1-0.8,0.1V77.3z M82.4,77.5l0.1-0.4
					c0.2,0,0.5,0.1,0.8,0.1v0.4C82.9,77.5,82.6,77.5,82.4,77.5z M88.7,77.1c0.3,0,0.5-0.1,0.8-0.2l0.1,0.4c-0.3,0.1-0.5,0.1-0.8,0.2
					L88.7,77.1z"/>
			</g>
		</g>
	</g>
	<path class="st25" d="M47.8,96.3c-0.3,0-0.7,0-1.1-0.1c-2-0.2-3.6-0.9-5-2.2c-0.3-0.2-0.6-0.5-1.1-0.7c-0.2-0.1-0.5-0.1-0.7-0.2
		c-0.2,0-0.3,0-0.5,0c-0.3,0-0.6,0-0.8,0.1c-0.6,0.1-1.2,0.2-1.7,0.2c-1.3,0-2.5-0.3-3.7-0.9c-1.8-0.8-3.1-2.1-3.9-3.8
		c-0.2-0.3-0.4-0.7-0.8-1.1c-0.2-0.1-0.4-0.3-0.6-0.4c-0.5-0.2-0.9-0.3-1.2-0.4c-1.9-0.3-3.5-1.1-4.8-2.5c-1.4-1.4-2.2-3-2.4-4.9
		c0-0.4-0.2-0.8-0.4-1.2c-0.2-0.2-0.3-0.4-0.5-0.7c-0.3-0.3-0.7-0.6-1-0.8c-1.7-0.9-2.9-2.2-3.7-4s-1-3.5-0.6-5.4
		c0.1-0.4,0.1-0.8,0.1-1.3c0-0.1-0.2-0.6-0.2-0.7c-0.2-0.5-0.5-0.8-0.7-1.1c-1.3-1.4-2-3.1-2.1-5.1c-0.2-2,0.2-3.7,1.3-5.3
		c0.2-0.3,0.4-0.7,0.5-1.2c0-0.3,0-0.5,0.1-0.8c0-0.5-0.1-0.9-0.3-1.2c-0.7-1.8-0.8-3.6-0.2-5.5c0.5-1.9,1.5-3.4,3-4.5
		c0.3-0.2,0.6-0.5,0.9-0.9c0.1-0.2,0.2-0.4,0.3-0.7c0.1-0.5,0.2-0.9,0.2-1.3c-0.1-1.9,0.5-3.6,1.6-5.2c1.1-1.6,2.6-2.7,4.4-3.2
		c0.3-0.1,0.7-0.3,1.1-0.6c0.2-0.2,0.4-0.4,0.6-0.5c0.3-0.4,0.5-0.8,0.6-1.1c0.6-1.8,1.7-3.2,3.3-4.3c1.5-1,3-1.6,4.7-1.6
		c0.2,0,0.3,0,0.5,0c0.1,0,0.1,0,0.2,0c0.3,0,0.7,0,1.1-0.1c0.2-0.1,0.5-0.2,0.7-0.3c0.4-0.3,0.7-0.6,0.9-0.9
		c1.2-1.5,2.7-2.5,4.6-2.9c0.8-0.2,1.5-0.3,2.3-0.3c1.1,0,2.1,0.2,3.2,0.7c0.3,0.1,0.8,0.2,1.2,0.3c0.3,0,0.5,0,0.8-0.1
		c0.5-0.1,0.9-0.3,1.2-0.5c1.3-0.8,2.8-1.2,4.3-1.2c0.3,0,0.7,0,1.1,0.1c2,0.2,3.6,0.9,5,2.2c0.3,0.2,0.6,0.5,1.1,0.7
		c0.2,0.1,0.5,0.1,0.7,0.2c0.2,0,0.3,0,0.5,0c0.3,0,0.6,0,0.8-0.1c0.6-0.1,1.2-0.2,1.7-0.2c1.3,0,2.5,0.3,3.7,0.9
		c1.8,0.8,3.1,2,3.9,3.7c0.2,0.3,0.4,0.7,0.8,1.1c0.2,0.1,0.4,0.3,0.6,0.4c0.5,0.2,0.9,0.3,1.2,0.4c1.9,0.3,3.5,1.1,4.9,2.5
		s2.2,3,2.4,4.9c0,0.4,0.2,0.8,0.4,1.2c0.2,0.2,0.3,0.4,0.5,0.7c0.3,0.3,0.7,0.6,1,0.8c1.7,0.9,2.9,2.2,3.7,4c0.8,1.8,1,3.5,0.6,5.4
		C88,45.2,88,45.6,88,46.1c0,0.1,0.2,0.6,0.2,0.7c0.2,0.5,0.5,0.8,0.7,1.1c1.3,1.4,2,3.1,2.1,5.1c0.2,2-0.2,3.7-1.3,5.3
		c-0.2,0.3-0.4,0.7-0.5,1.2c0,0.3,0,0.5-0.1,0.8c0,0.5,0.1,0.9,0.3,1.2c0.7,1.8,0.8,3.6,0.2,5.5c-0.5,1.9-1.5,3.4-3,4.5
		c-0.3,0.2-0.6,0.5-0.9,0.9c-0.1,0.2-0.2,0.4-0.3,0.6c-0.1,0.5-0.2,0.9-0.2,1.3c0.1,1.9-0.5,3.6-1.6,5.2s-2.5,2.7-4.4,3.2
		c-0.3,0.1-0.7,0.3-1.1,0.6c-0.2,0.2-0.4,0.4-0.6,0.5c-0.3,0.4-0.5,0.8-0.6,1.1c-0.6,1.8-1.7,3.2-3.3,4.3c-1.5,1-3,1.6-4.7,1.6l0,0
		c-0.2,0-0.3,0-0.5,0c-0.1,0-0.1,0-0.2,0c-0.3,0-0.7,0-1.1,0.1c-0.2,0.1-0.5,0.2-0.7,0.3c-0.4,0.3-0.7,0.6-0.9,0.9
		c-1.2,1.5-2.7,2.5-4.6,2.9c-0.8,0.2-1.5,0.3-2.3,0.3c-1.1,0-2.1-0.2-3.1-0.7c-0.3-0.1-0.8-0.2-1.2-0.3c-0.3,0-0.5,0-0.8,0.1
		c-0.5,0.1-0.9,0.3-1.2,0.5C50.8,95.9,49.3,96.3,47.8,96.3z"/>
	<path class="st26" d="M41.8,23c-18.3,4.7-29.3,23.4-24.6,41.7C22,83.1,40.6,94.1,58.9,89.3c18.3-4.7,29.3-23.4,24.6-41.7
		S60.1,18.3,41.8,23z M58.8,88.8c-18,4.7-36.4-6.2-41-24.2c-4.7-18,6.2-36.4,24.2-41c18-4.7,36.4,6.2,41,24.2
		C87.7,65.8,76.8,84.2,58.8,88.8z"/>
	<g>
		<g>
			<defs>
				<polygon id="SVGID_25_" points="1,1 2,1 1,2 				"/>
			</defs>
			<defs>
				<polygon id="SVGID_26_" points="-1,-1 -2,-1 -1,-2 				"/>
			</defs>
			<clipPath id="SVGID_27_">
				<use xlink:href="#SVGID_25_"  style="overflow:visible;"/>
			</clipPath>
			<clipPath id="SVGID_28_" class="st27">
				<use xlink:href="#SVGID_26_"  style="overflow:visible;"/>
			</clipPath>
			
				<linearGradient id="SVGID_29_" gradientUnits="userSpaceOnUse" x1="77.7993" y1="83.9818" x2="115.3394" y2="12.9151" gradientTransform="matrix(-0.1344 1.1462 1.1893 0.1394 7.174 -61.5704)">
				<stop  offset="0" style="stop-color:#FFFFFF"/>
				<stop  offset="5.383337e-02" style="stop-color:#E0E0E0"/>
				<stop  offset="0.1552" style="stop-color:#ACACAC"/>
				<stop  offset="0.2611" style="stop-color:#7E7E7E"/>
				<stop  offset="0.3694" style="stop-color:#575757"/>
				<stop  offset="0.4805" style="stop-color:#383838"/>
				<stop  offset="0.5954" style="stop-color:#1F1F1F"/>
				<stop  offset="0.7159" style="stop-color:#0E0E0E"/>
				<stop  offset="0.8453" style="stop-color:#030303"/>
				<stop  offset="1" style="stop-color:#000000"/>
			</linearGradient>
			<path class="st28" d="M37.5,33.2C56.1,35.4,69.3,52.3,67.1,71c-0.8,7-3.7,13.3-8,18.2c13.3-3.3,23.8-14.6,25.5-29.1
				c2.2-18.6-11-35.5-29.6-37.7C43.4,21,32.5,25.7,25.4,34C29.3,33.1,33.3,32.8,37.5,33.2z"/>
		</g>
	</g>
	
		<linearGradient id="SVGID_30_" gradientUnits="userSpaceOnUse" x1="77.7993" y1="83.9818" x2="115.3394" y2="12.9151" gradientTransform="matrix(-0.1344 1.1462 1.1893 0.1394 7.174 -61.5704)">
		<stop  offset="0" style="stop-color:#F5F5F5"/>
		<stop  offset="7.761335e-02" style="stop-color:#F5F5F5"/>
		<stop  offset="1" style="stop-color:#F5F5F5"/>
	</linearGradient>
	<path class="st29" d="M37.5,33.2C56.1,35.4,69.3,52.3,67.1,71c-0.8,7-3.7,13.3-8,18.2c13.3-3.3,23.8-14.6,25.5-29.1
		c2.2-18.6-11-35.5-29.6-37.7C43.4,21,32.5,25.7,25.4,34C29.3,33.1,33.3,32.8,37.5,33.2z"/>
	<g>
		
			<radialGradient id="SVGID_31_" cx="76.0773" cy="50.5218" r="52.7106" gradientTransform="matrix(1 0 0 -1 0 100)" gradientUnits="userSpaceOnUse">
			<stop  offset="2.453990e-02" style="stop-color:#FFFFFF"/>
			<stop  offset="1" style="stop-color:#B4E4FA"/>
		</radialGradient>
		<polygon class="st30" points="50.4,26 48.7,24.1 47.4,24.2 49.1,26 		"/>
		
			<radialGradient id="SVGID_32_" cx="76.0755" cy="50.522" r="52.7085" gradientTransform="matrix(1 0 0 -1 0 100)" gradientUnits="userSpaceOnUse">
			<stop  offset="2.453990e-02" style="stop-color:#FFFFFF"/>
			<stop  offset="1" style="stop-color:#B4E4FA"/>
		</radialGradient>
		<polygon class="st31" points="47.8,26.1 45.9,24.4 44.6,24.6 46.5,26.3 		"/>
		
			<radialGradient id="SVGID_33_" cx="76.0754" cy="50.5218" r="52.7088" gradientTransform="matrix(1 0 0 -1 0 100)" gradientUnits="userSpaceOnUse">
			<stop  offset="2.453990e-02" style="stop-color:#FFFFFF"/>
			<stop  offset="1" style="stop-color:#B4E4FA"/>
		</radialGradient>
		<polygon class="st32" points="45.2,26.4 43.2,24.9 41.9,25.2 43.9,26.7 		"/>
		
			<radialGradient id="SVGID_34_" cx="76.0816" cy="50.5213" r="52.7156" gradientTransform="matrix(1 0 0 -1 0 100)" gradientUnits="userSpaceOnUse">
			<stop  offset="2.453990e-02" style="stop-color:#FFFFFF"/>
			<stop  offset="1" style="stop-color:#B4E4FA"/>
		</radialGradient>
		<polygon class="st33" points="42.6,27 40.5,25.6 39.2,26 41.4,27.4 		"/>
		
			<radialGradient id="SVGID_35_" cx="76.0769" cy="50.5214" r="52.7108" gradientTransform="matrix(1 0 0 -1 0 100)" gradientUnits="userSpaceOnUse">
			<stop  offset="2.453990e-02" style="stop-color:#FFFFFF"/>
			<stop  offset="1" style="stop-color:#B4E4FA"/>
		</radialGradient>
		<polygon class="st34" points="40.1,27.8 37.8,26.6 36.6,27.1 38.9,28.3 		"/>
		
			<radialGradient id="SVGID_36_" cx="76.0747" cy="50.5218" r="52.708" gradientTransform="matrix(1 0 0 -1 0 100)" gradientUnits="userSpaceOnUse">
			<stop  offset="2.453990e-02" style="stop-color:#FFFFFF"/>
			<stop  offset="1" style="stop-color:#B4E4FA"/>
		</radialGradient>
		<polygon class="st35" points="37.6,28.8 35.3,27.8 34.2,28.4 36.5,29.4 		"/>
		
			<radialGradient id="SVGID_37_" cx="76.0755" cy="50.5219" r="52.7088" gradientTransform="matrix(1 0 0 -1 0 100)" gradientUnits="userSpaceOnUse">
			<stop  offset="2.453990e-02" style="stop-color:#FFFFFF"/>
			<stop  offset="1" style="stop-color:#B4E4FA"/>
		</radialGradient>
		<polygon class="st36" points="35.3,30 32.9,29.3 31.8,29.9 34.2,30.7 		"/>
		
			<radialGradient id="SVGID_38_" cx="76.0773" cy="50.5217" r="52.711" gradientTransform="matrix(1 0 0 -1 0 100)" gradientUnits="userSpaceOnUse">
			<stop  offset="2.453990e-02" style="stop-color:#FFFFFF"/>
			<stop  offset="1" style="stop-color:#B4E4FA"/>
		</radialGradient>
		<polygon class="st37" points="33.1,31.4 30.6,30.9 29.6,31.7 32.1,32.2 		"/>
		
			<radialGradient id="SVGID_39_" cx="76.0773" cy="50.5219" r="52.7107" gradientTransform="matrix(1 0 0 -1 0 100)" gradientUnits="userSpaceOnUse">
			<stop  offset="2.453990e-02" style="stop-color:#FFFFFF"/>
			<stop  offset="1" style="stop-color:#B4E4FA"/>
		</radialGradient>
		<polygon class="st38" points="28.5,32.7 27.5,33.6 30,33.9 31,33 		"/>
		
			<radialGradient id="SVGID_40_" cx="76.0718" cy="50.5216" r="52.7051" gradientTransform="matrix(1 0 0 -1 0 100)" gradientUnits="userSpaceOnUse">
			<stop  offset="2.453990e-02" style="stop-color:#FFFFFF"/>
			<stop  offset="1" style="stop-color:#B4E4FA"/>
		</radialGradient>
		<polygon class="st39" points="26.5,34.7 25.6,35.6 28.2,35.8 29,34.8 		"/>
		
			<radialGradient id="SVGID_41_" cx="76.0774" cy="50.5216" r="52.7107" gradientTransform="matrix(1 0 0 -1 0 100)" gradientUnits="userSpaceOnUse">
			<stop  offset="2.453990e-02" style="stop-color:#FFFFFF"/>
			<stop  offset="1" style="stop-color:#B4E4FA"/>
		</radialGradient>
		<polygon class="st40" points="24.7,36.9 24,37.9 26.5,37.8 27.3,36.8 		"/>
		
			<radialGradient id="SVGID_42_" cx="76.081" cy="50.5221" r="52.7141" gradientTransform="matrix(1 0 0 -1 0 100)" gradientUnits="userSpaceOnUse">
			<stop  offset="2.453990e-02" style="stop-color:#FFFFFF"/>
			<stop  offset="1" style="stop-color:#B4E4FA"/>
		</radialGradient>
		<polygon class="st41" points="23.1,39.2 22.5,40.3 25,39.9 25.7,38.9 		"/>
		
			<radialGradient id="SVGID_43_" cx="76.0738" cy="50.5209" r="52.7073" gradientTransform="matrix(1 0 0 -1 0 100)" gradientUnits="userSpaceOnUse">
			<stop  offset="2.453990e-02" style="stop-color:#FFFFFF"/>
			<stop  offset="1" style="stop-color:#B4E4FA"/>
		</radialGradient>
		<polygon class="st42" points="24.2,41.1 21.8,41.6 21.2,42.8 23.7,42.2 		"/>
		
			<radialGradient id="SVGID_44_" cx="76.0858" cy="50.5218" r="52.7189" gradientTransform="matrix(1 0 0 -1 0 100)" gradientUnits="userSpaceOnUse">
			<stop  offset="2.453990e-02" style="stop-color:#FFFFFF"/>
			<stop  offset="1" style="stop-color:#B4E4FA"/>
		</radialGradient>
		<polygon class="st43" points="23,43.4 20.6,44.2 20.1,45.3 22.5,44.6 		"/>
		
			<radialGradient id="SVGID_45_" cx="76.0782" cy="50.5223" r="52.7117" gradientTransform="matrix(1 0 0 -1 0 100)" gradientUnits="userSpaceOnUse">
			<stop  offset="2.453990e-02" style="stop-color:#FFFFFF"/>
			<stop  offset="1" style="stop-color:#B4E4FA"/>
		</radialGradient>
		<polygon class="st44" points="22,45.8 19.7,46.8 19.3,48 21.6,47.1 		"/>
		
			<radialGradient id="SVGID_46_" cx="76.0817" cy="50.5216" r="52.7148" gradientTransform="matrix(1 0 0 -1 0 100)" gradientUnits="userSpaceOnUse">
			<stop  offset="2.453990e-02" style="stop-color:#FFFFFF"/>
			<stop  offset="1" style="stop-color:#B4E4FA"/>
		</radialGradient>
		<polygon class="st45" points="21.2,48.4 19,49.5 18.7,50.8 20.9,49.6 		"/>
		
			<radialGradient id="SVGID_47_" cx="76.083" cy="50.5216" r="52.7162" gradientTransform="matrix(1 0 0 -1 0 100)" gradientUnits="userSpaceOnUse">
			<stop  offset="2.453990e-02" style="stop-color:#FFFFFF"/>
			<stop  offset="1" style="stop-color:#B4E4FA"/>
		</radialGradient>
		<polygon class="st46" points="20.6,50.9 18.5,52.3 18.3,53.6 20.5,52.2 		"/>
		
			<radialGradient id="SVGID_48_" cx="76.0725" cy="50.5217" r="52.7063" gradientTransform="matrix(1 0 0 -1 0 100)" gradientUnits="userSpaceOnUse">
			<stop  offset="2.453990e-02" style="stop-color:#FFFFFF"/>
			<stop  offset="1" style="stop-color:#B4E4FA"/>
		</radialGradient>
		<polygon class="st47" points="20.3,53.5 18.3,55.1 18.2,56.4 20.2,54.8 		"/>
		
			<radialGradient id="SVGID_49_" cx="76.0903" cy="50.5218" r="52.7224" gradientTransform="matrix(1 0 0 -1 0 100)" gradientUnits="userSpaceOnUse">
			<stop  offset="2.453990e-02" style="stop-color:#FFFFFF"/>
			<stop  offset="1" style="stop-color:#B4E4FA"/>
		</radialGradient>
		<polygon class="st48" points="20.2,56.2 18.3,57.9 18.4,59.2 20.2,57.4 		"/>
		
			<radialGradient id="SVGID_50_" cx="76.0913" cy="50.5211" r="52.723" gradientTransform="matrix(1 0 0 -1 0 100)" gradientUnits="userSpaceOnUse">
			<stop  offset="2.453990e-02" style="stop-color:#FFFFFF"/>
			<stop  offset="1" style="stop-color:#B4E4FA"/>
		</radialGradient>
		<polygon class="st49" points="20.3,58.8 18.6,60.7 18.8,61.9 20.5,60.1 		"/>
		
			<radialGradient id="SVGID_51_" cx="76.077" cy="50.5214" r="52.71" gradientTransform="matrix(1 0 0 -1 0 100)" gradientUnits="userSpaceOnUse">
			<stop  offset="2.453990e-02" style="stop-color:#FFFFFF"/>
			<stop  offset="1" style="stop-color:#B4E4FA"/>
		</radialGradient>
		<polygon class="st50" points="20.6,61.4 19.1,63.4 19.4,64.7 20.9,62.7 		"/>
		
			<radialGradient id="SVGID_52_" cx="76.0839" cy="50.5228" r="52.7166" gradientTransform="matrix(1 0 0 -1 0 100)" gradientUnits="userSpaceOnUse">
			<stop  offset="2.453990e-02" style="stop-color:#FFFFFF"/>
			<stop  offset="1" style="stop-color:#B4E4FA"/>
		</radialGradient>
		<polygon class="st51" points="21.2,64 19.8,66.1 20.2,67.3 21.6,65.2 		"/>
		
			<radialGradient id="SVGID_53_" cx="76.0639" cy="50.5184" r="52.6982" gradientTransform="matrix(1 0 0 -1 0 100)" gradientUnits="userSpaceOnUse">
			<stop  offset="2.453990e-02" style="stop-color:#FFFFFF"/>
			<stop  offset="1" style="stop-color:#B4E4FA"/>
		</radialGradient>
		<polygon class="st52" points="22,66.5 20.8,68.7 21.3,69.9 22.5,67.7 		"/>
		
			<radialGradient id="SVGID_54_" cx="76.0775" cy="50.522" r="52.7108" gradientTransform="matrix(1 0 0 -1 0 100)" gradientUnits="userSpaceOnUse">
			<stop  offset="2.453990e-02" style="stop-color:#FFFFFF"/>
			<stop  offset="1" style="stop-color:#B4E4FA"/>
		</radialGradient>
		<polygon class="st53" points="23,68.9 22,71.3 22.6,72.4 23.6,70.1 		"/>
		
			<radialGradient id="SVGID_55_" cx="76.0783" cy="50.5262" r="52.7131" gradientTransform="matrix(1 0 0 -1 0 100)" gradientUnits="userSpaceOnUse">
			<stop  offset="2.453990e-02" style="stop-color:#FFFFFF"/>
			<stop  offset="1" style="stop-color:#B4E4FA"/>
		</radialGradient>
		<polygon class="st54" points="23.5,73.7 24.1,74.8 24.9,72.4 24.2,71.3 		"/>
		
			<radialGradient id="SVGID_56_" cx="76.0856" cy="50.5184" r="52.7159" gradientTransform="matrix(1 0 0 -1 0 100)" gradientUnits="userSpaceOnUse">
			<stop  offset="2.453990e-02" style="stop-color:#FFFFFF"/>
			<stop  offset="1" style="stop-color:#B4E4FA"/>
		</radialGradient>
		<polygon class="st55" points="25.1,76 25.9,77 26.4,74.5 25.6,73.5 		"/>
		
			<radialGradient id="SVGID_57_" cx="76.0783" cy="50.5184" r="52.7097" gradientTransform="matrix(1 0 0 -1 0 100)" gradientUnits="userSpaceOnUse">
			<stop  offset="2.453990e-02" style="stop-color:#FFFFFF"/>
			<stop  offset="1" style="stop-color:#B4E4FA"/>
		</radialGradient>
		<polygon class="st56" points="26.9,78.1 27.8,79 28.1,76.5 27.2,75.6 		"/>
		
			<radialGradient id="SVGID_58_" cx="76.0689" cy="50.5231" r="52.7049" gradientTransform="matrix(1 0 0 -1 0 100)" gradientUnits="userSpaceOnUse">
			<stop  offset="2.453990e-02" style="stop-color:#FFFFFF"/>
			<stop  offset="1" style="stop-color:#B4E4FA"/>
		</radialGradient>
		<polygon class="st57" points="28.9,80.1 29.8,80.9 30,78.4 29,77.5 		"/>
		
			<radialGradient id="SVGID_59_" cx="76.0785" cy="50.5256" r="52.7141" gradientTransform="matrix(1 0 0 -1 0 100)" gradientUnits="userSpaceOnUse">
			<stop  offset="2.453990e-02" style="stop-color:#FFFFFF"/>
			<stop  offset="1" style="stop-color:#B4E4FA"/>
		</radialGradient>
		<polygon class="st58" points="31.1,81.8 32.1,82.6 32,80.1 31,79.3 		"/>
		
			<radialGradient id="SVGID_60_" cx="76.0833" cy="50.5225" r="52.7156" gradientTransform="matrix(1 0 0 -1 0 100)" gradientUnits="userSpaceOnUse">
			<stop  offset="2.453990e-02" style="stop-color:#FFFFFF"/>
			<stop  offset="1" style="stop-color:#B4E4FA"/>
		</radialGradient>
		<polygon class="st59" points="33,80.9 33.4,83.4 34.5,84.1 34.1,81.6 		"/>
		
			<radialGradient id="SVGID_61_" cx="76.0765" cy="50.5143" r="52.7049" gradientTransform="matrix(1 0 0 -1 0 100)" gradientUnits="userSpaceOnUse">
			<stop  offset="2.453990e-02" style="stop-color:#FFFFFF"/>
			<stop  offset="1" style="stop-color:#B4E4FA"/>
		</radialGradient>
		<polygon class="st60" points="35.3,82.3 35.8,84.8 37,85.4 36.4,82.9 		"/>
		
			<radialGradient id="SVGID_62_" cx="76.0735" cy="50.5272" r="52.7122" gradientTransform="matrix(1 0 0 -1 0 100)" gradientUnits="userSpaceOnUse">
			<stop  offset="2.453990e-02" style="stop-color:#FFFFFF"/>
			<stop  offset="1" style="stop-color:#B4E4FA"/>
		</radialGradient>
		<polygon class="st61" points="37.6,83.6 38.4,86 39.5,86.5 38.8,84 		"/>
		
			<radialGradient id="SVGID_63_" cx="76.0779" cy="50.5217" r="52.7112" gradientTransform="matrix(1 0 0 -1 0 100)" gradientUnits="userSpaceOnUse">
			<stop  offset="2.453990e-02" style="stop-color:#FFFFFF"/>
			<stop  offset="1" style="stop-color:#B4E4FA"/>
		</radialGradient>
		<polygon class="st62" points="40,84.6 41,86.9 42.2,87.3 41.3,84.9 		"/>
		
			<radialGradient id="SVGID_64_" cx="76.0744" cy="50.5248" r="52.7119" gradientTransform="matrix(1 0 0 -1 0 100)" gradientUnits="userSpaceOnUse">
			<stop  offset="2.453990e-02" style="stop-color:#FFFFFF"/>
			<stop  offset="1" style="stop-color:#B4E4FA"/>
		</radialGradient>
		<polygon class="st63" points="42.6,85.4 43.7,87.6 45,87.9 43.8,85.6 		"/>
		
			<radialGradient id="SVGID_65_" cx="76.0771" cy="50.5323" r="52.7205" gradientTransform="matrix(1 0 0 -1 0 100)" gradientUnits="userSpaceOnUse">
			<stop  offset="2.453990e-02" style="stop-color:#FFFFFF"/>
			<stop  offset="1" style="stop-color:#B4E4FA"/>
		</radialGradient>
		<polygon class="st64" points="45.1,85.9 46.5,88.1 47.8,88.2 46.4,86.1 		"/>
		
			<radialGradient id="SVGID_66_" cx="76.0754" cy="50.5134" r="52.7016" gradientTransform="matrix(1 0 0 -1 0 100)" gradientUnits="userSpaceOnUse">
			<stop  offset="2.453990e-02" style="stop-color:#FFFFFF"/>
			<stop  offset="1" style="stop-color:#B4E4FA"/>
		</radialGradient>
		<polygon class="st65" points="47.7,86.3 49.3,88.3 50.6,88.3 49,86.3 		"/>
		
			<radialGradient id="SVGID_67_" cx="76.074" cy="50.5086" r="52.6951" gradientTransform="matrix(1 0 0 -1 0 100)" gradientUnits="userSpaceOnUse">
			<stop  offset="2.453990e-02" style="stop-color:#FFFFFF"/>
			<stop  offset="1" style="stop-color:#B4E4FA"/>
		</radialGradient>
		<polygon class="st66" points="50.4,86.4 52.1,88.3 53.4,88.2 51.6,86.3 		"/>
		
			<radialGradient id="SVGID_68_" cx="76.0789" cy="50.5126" r="52.7013" gradientTransform="matrix(1 0 0 -1 0 100)" gradientUnits="userSpaceOnUse">
			<stop  offset="2.453990e-02" style="stop-color:#FFFFFF"/>
			<stop  offset="1" style="stop-color:#B4E4FA"/>
		</radialGradient>
		<polygon class="st67" points="53,86.3 54.9,88 56.1,87.8 54.3,86.1 		"/>
		
			<radialGradient id="SVGID_69_" cx="76.0765" cy="50.5257" r="52.7149" gradientTransform="matrix(1 0 0 -1 0 100)" gradientUnits="userSpaceOnUse">
			<stop  offset="2.453990e-02" style="stop-color:#FFFFFF"/>
			<stop  offset="1" style="stop-color:#B4E4FA"/>
		</radialGradient>
		<polygon class="st68" points="55.6,85.9 57.6,87.5 58.9,87.2 56.9,85.7 		"/>
		
			<radialGradient id="SVGID_70_" cx="76.0786" cy="50.5086" r="52.6948" gradientTransform="matrix(1 0 0 -1 0 100)" gradientUnits="userSpaceOnUse">
			<stop  offset="2.453990e-02" style="stop-color:#FFFFFF"/>
			<stop  offset="1" style="stop-color:#B4E4FA"/>
		</radialGradient>
		<polygon class="st69" points="58.2,85.4 60.3,86.7 61.5,86.4 59.4,85 		"/>
		
			<radialGradient id="SVGID_71_" cx="76.078" cy="50.518" r="52.7058" gradientTransform="matrix(1 0 0 -1 0 100)" gradientUnits="userSpaceOnUse">
			<stop  offset="2.453990e-02" style="stop-color:#FFFFFF"/>
			<stop  offset="1" style="stop-color:#B4E4FA"/>
		</radialGradient>
		<polygon class="st70" points="60.7,84.6 62.9,85.8 64.1,85.3 61.9,84.1 		"/>
		
			<radialGradient id="SVGID_72_" cx="76.0778" cy="50.526" r="52.7173" gradientTransform="matrix(1 0 0 -1 0 100)" gradientUnits="userSpaceOnUse">
			<stop  offset="2.453990e-02" style="stop-color:#FFFFFF"/>
			<stop  offset="1" style="stop-color:#B4E4FA"/>
		</radialGradient>
		<polygon class="st71" points="63.1,83.6 65.5,84.5 66.6,84 64.3,83 		"/>
		
			<radialGradient id="SVGID_73_" cx="76.0779" cy="50.5215" r="52.7108" gradientTransform="matrix(1 0 0 -1 0 100)" gradientUnits="userSpaceOnUse">
			<stop  offset="2.453990e-02" style="stop-color:#FFFFFF"/>
			<stop  offset="1" style="stop-color:#B4E4FA"/>
		</radialGradient>
		<polygon class="st72" points="65.5,82.4 67.9,83.1 69,82.4 66.5,81.7 		"/>
		
			<radialGradient id="SVGID_74_" cx="76.0768" cy="50.5378" r="52.7372" gradientTransform="matrix(1 0 0 -1 0 100)" gradientUnits="userSpaceOnUse">
			<stop  offset="2.453990e-02" style="stop-color:#FFFFFF"/>
			<stop  offset="1" style="stop-color:#B4E4FA"/>
		</radialGradient>
		<polygon class="st73" points="67.7,80.9 70.2,81.5 71.2,80.7 68.7,80.2 		"/>
		
			<radialGradient id="SVGID_75_" cx="76.0774" cy="50.5317" r="52.7287" gradientTransform="matrix(1 0 0 -1 0 100)" gradientUnits="userSpaceOnUse">
			<stop  offset="2.453990e-02" style="stop-color:#FFFFFF"/>
			<stop  offset="1" style="stop-color:#B4E4FA"/>
		</radialGradient>
		<polygon class="st74" points="69.8,79.3 72.3,79.7 73.2,78.8 70.7,78.5 		"/>
		
			<radialGradient id="SVGID_76_" cx="76.0778" cy="50.5272" r="52.7209" gradientTransform="matrix(1 0 0 -1 0 100)" gradientUnits="userSpaceOnUse">
			<stop  offset="2.453990e-02" style="stop-color:#FFFFFF"/>
			<stop  offset="1" style="stop-color:#B4E4FA"/>
		</radialGradient>
		<polygon class="st75" points="71.7,77.6 74.3,77.7 75.1,76.7 72.6,76.6 		"/>
		
			<radialGradient id="SVGID_77_" cx="76.0776" cy="50.5356" r="52.7396" gradientTransform="matrix(1 0 0 -1 0 100)" gradientUnits="userSpaceOnUse">
			<stop  offset="2.453990e-02" style="stop-color:#FFFFFF"/>
			<stop  offset="1" style="stop-color:#B4E4FA"/>
		</radialGradient>
		<polygon class="st76" points="73.5,75.6 76,75.5 76.8,74.5 74.3,74.6 		"/>
		
			<radialGradient id="SVGID_78_" cx="76.0775" cy="50.5107" r="52.6862" gradientTransform="matrix(1 0 0 -1 0 100)" gradientUnits="userSpaceOnUse">
			<stop  offset="2.453990e-02" style="stop-color:#FFFFFF"/>
			<stop  offset="1" style="stop-color:#B4E4FA"/>
		</radialGradient>
		<polygon class="st77" points="75.1,73.5 77.6,73.2 78.3,72.1 75.8,72.5 		"/>
		
			<radialGradient id="SVGID_79_" cx="76.0772" cy="50.5297" r="52.7304" gradientTransform="matrix(1 0 0 -1 0 100)" gradientUnits="userSpaceOnUse">
			<stop  offset="2.453990e-02" style="stop-color:#FFFFFF"/>
			<stop  offset="1" style="stop-color:#B4E4FA"/>
		</radialGradient>
		<polygon class="st78" points="76.5,71.3 79,70.8 79.6,69.6 77.1,70.2 		"/>
		
			<radialGradient id="SVGID_80_" cx="76.0776" cy="50.5232" r="52.7151" gradientTransform="matrix(1 0 0 -1 0 100)" gradientUnits="userSpaceOnUse">
			<stop  offset="2.453990e-02" style="stop-color:#FFFFFF"/>
			<stop  offset="1" style="stop-color:#B4E4FA"/>
		</radialGradient>
		<polygon class="st79" points="77.8,69 80.2,68.2 80.7,67 78.2,67.8 		"/>
		
			<radialGradient id="SVGID_81_" cx="76.0772" cy="50.5204" r="52.707" gradientTransform="matrix(1 0 0 -1 0 100)" gradientUnits="userSpaceOnUse">
			<stop  offset="2.453990e-02" style="stop-color:#FFFFFF"/>
			<stop  offset="1" style="stop-color:#B4E4FA"/>
		</radialGradient>
		<polygon class="st80" points="78.8,66.5 81.1,65.6 81.5,64.4 79.1,65.3 		"/>
		
			<radialGradient id="SVGID_82_" cx="76.0778" cy="50.523" r="52.7137" gradientTransform="matrix(1 0 0 -1 0 100)" gradientUnits="userSpaceOnUse">
			<stop  offset="2.453990e-02" style="stop-color:#FFFFFF"/>
			<stop  offset="1" style="stop-color:#B4E4FA"/>
		</radialGradient>
		<polygon class="st81" points="79.6,64 81.8,62.9 82.1,61.6 79.8,62.8 		"/>
		
			<radialGradient id="SVGID_83_" cx="76.0776" cy="50.521" r="52.7074" gradientTransform="matrix(1 0 0 -1 0 100)" gradientUnits="userSpaceOnUse">
			<stop  offset="2.453990e-02" style="stop-color:#FFFFFF"/>
			<stop  offset="1" style="stop-color:#B4E4FA"/>
		</radialGradient>
		<polygon class="st82" points="80.1,61.5 82.3,60.1 82.4,58.8 80.3,60.2 		"/>
		
			<radialGradient id="SVGID_84_" cx="76.0776" cy="50.5219" r="52.7129" gradientTransform="matrix(1 0 0 -1 0 100)" gradientUnits="userSpaceOnUse">
			<stop  offset="2.453990e-02" style="stop-color:#FFFFFF"/>
			<stop  offset="1" style="stop-color:#B4E4FA"/>
		</radialGradient>
		<polygon class="st83" points="80.5,57.6 80.5,58.8 82.5,57.3 82.5,56 		"/>
		
			<radialGradient id="SVGID_85_" cx="76.078" cy="50.5216" r="52.7087" gradientTransform="matrix(1 0 0 -1 0 100)" gradientUnits="userSpaceOnUse">
			<stop  offset="2.453990e-02" style="stop-color:#FFFFFF"/>
			<stop  offset="1" style="stop-color:#B4E4FA"/>
		</radialGradient>
		<polygon class="st84" points="80.6,56.2 82.5,54.5 82.4,53.2 80.5,54.9 		"/>
		
			<radialGradient id="SVGID_86_" cx="76.0775" cy="50.5216" r="52.709" gradientTransform="matrix(1 0 0 -1 0 100)" gradientUnits="userSpaceOnUse">
			<stop  offset="2.453990e-02" style="stop-color:#FFFFFF"/>
			<stop  offset="1" style="stop-color:#B4E4FA"/>
		</radialGradient>
		<polygon class="st85" points="80.5,53.6 82.2,51.7 82,50.4 80.3,52.3 		"/>
		
			<radialGradient id="SVGID_87_" cx="76.0769" cy="50.522" r="52.7156" gradientTransform="matrix(1 0 0 -1 0 100)" gradientUnits="userSpaceOnUse">
			<stop  offset="2.453990e-02" style="stop-color:#FFFFFF"/>
			<stop  offset="1" style="stop-color:#B4E4FA"/>
		</radialGradient>
		<polygon class="st86" points="80.1,51 81.7,49 81.4,47.7 79.9,49.7 		"/>
		
			<radialGradient id="SVGID_88_" cx="76.0781" cy="50.5217" r="52.7039" gradientTransform="matrix(1 0 0 -1 0 100)" gradientUnits="userSpaceOnUse">
			<stop  offset="2.453990e-02" style="stop-color:#FFFFFF"/>
			<stop  offset="1" style="stop-color:#B4E4FA"/>
		</radialGradient>
		<polygon class="st87" points="79.6,48.4 80.9,46.3 80.5,45 79.2,47.2 		"/>
		
			<radialGradient id="SVGID_89_" cx="76.0768" cy="50.5223" r="52.713" gradientTransform="matrix(1 0 0 -1 0 100)" gradientUnits="userSpaceOnUse">
			<stop  offset="2.453990e-02" style="stop-color:#FFFFFF"/>
			<stop  offset="1" style="stop-color:#B4E4FA"/>
		</radialGradient>
		<polygon class="st88" points="78.8,45.9 80,43.6 79.5,42.5 78.3,44.7 		"/>
		
			<radialGradient id="SVGID_90_" cx="76.0774" cy="50.5211" r="52.7153" gradientTransform="matrix(1 0 0 -1 0 100)" gradientUnits="userSpaceOnUse">
			<stop  offset="2.453990e-02" style="stop-color:#FFFFFF"/>
			<stop  offset="1" style="stop-color:#B4E4FA"/>
		</radialGradient>
		<polygon class="st89" points="77.8,43.4 78.7,41.1 78.2,40 77.2,42.3 		"/>
		
			<radialGradient id="SVGID_91_" cx="76.0774" cy="50.5219" r="52.7101" gradientTransform="matrix(1 0 0 -1 0 100)" gradientUnits="userSpaceOnUse">
			<stop  offset="2.453990e-02" style="stop-color:#FFFFFF"/>
			<stop  offset="1" style="stop-color:#B4E4FA"/>
		</radialGradient>
		<polygon class="st90" points="77.3,38.7 76.6,37.6 75.9,40 76.6,41.1 		"/>
		
			<radialGradient id="SVGID_92_" cx="76.0773" cy="50.5217" r="52.7111" gradientTransform="matrix(1 0 0 -1 0 100)" gradientUnits="userSpaceOnUse">
			<stop  offset="2.453990e-02" style="stop-color:#FFFFFF"/>
			<stop  offset="1" style="stop-color:#B4E4FA"/>
		</radialGradient>
		<polygon class="st91" points="75.7,36.4 74.9,35.4 74.4,37.9 75.1,38.9 		"/>
		
			<radialGradient id="SVGID_93_" cx="76.0773" cy="50.5218" r="52.7106" gradientTransform="matrix(1 0 0 -1 0 100)" gradientUnits="userSpaceOnUse">
			<stop  offset="2.453990e-02" style="stop-color:#FFFFFF"/>
			<stop  offset="1" style="stop-color:#B4E4FA"/>
		</radialGradient>
		<polygon class="st92" points="73.9,34.3 73,33.3 72.7,35.9 73.5,36.8 		"/>
		
			<radialGradient id="SVGID_94_" cx="76.0773" cy="50.5219" r="52.7105" gradientTransform="matrix(1 0 0 -1 0 100)" gradientUnits="userSpaceOnUse">
			<stop  offset="2.453990e-02" style="stop-color:#FFFFFF"/>
			<stop  offset="1" style="stop-color:#B4E4FA"/>
		</radialGradient>
		<polygon class="st93" points="71.9,32.3 70.9,31.5 70.8,34 71.8,34.8 		"/>
		
			<radialGradient id="SVGID_95_" cx="76.0761" cy="50.5219" r="52.7094" gradientTransform="matrix(1 0 0 -1 0 100)" gradientUnits="userSpaceOnUse">
			<stop  offset="2.453990e-02" style="stop-color:#FFFFFF"/>
			<stop  offset="1" style="stop-color:#B4E4FA"/>
		</radialGradient>
		<polygon class="st94" points="69.7,30.5 68.7,29.8 68.8,32.3 69.8,33.1 		"/>
		
			<radialGradient id="SVGID_96_" cx="76.0759" cy="50.5215" r="52.7098" gradientTransform="matrix(1 0 0 -1 0 100)" gradientUnits="userSpaceOnUse">
			<stop  offset="2.453990e-02" style="stop-color:#FFFFFF"/>
			<stop  offset="1" style="stop-color:#B4E4FA"/>
		</radialGradient>
		<polygon class="st95" points="67.7,31.5 67.4,28.9 66.3,28.3 66.6,30.8 		"/>
		
			<radialGradient id="SVGID_97_" cx="76.0746" cy="50.5217" r="52.6966" gradientTransform="matrix(1 0 0 -1 0 100)" gradientUnits="userSpaceOnUse">
			<stop  offset="2.453990e-02" style="stop-color:#FFFFFF"/>
			<stop  offset="1" style="stop-color:#B4E4FA"/>
		</radialGradient>
		<polygon class="st96" points="65.5,30 65,27.6 63.8,27 64.4,29.5 		"/>
		
			<radialGradient id="SVGID_98_" cx="76.0805" cy="50.5218" r="52.714" gradientTransform="matrix(1 0 0 -1 0 100)" gradientUnits="userSpaceOnUse">
			<stop  offset="2.453990e-02" style="stop-color:#FFFFFF"/>
			<stop  offset="1" style="stop-color:#B4E4FA"/>
		</radialGradient>
		<polygon class="st97" points="63.2,28.8 62.4,26.4 61.2,25.9 62,28.3 		"/>
		
			<radialGradient id="SVGID_99_" cx="76.0759" cy="50.5217" r="52.7094" gradientTransform="matrix(1 0 0 -1 0 100)" gradientUnits="userSpaceOnUse">
			<stop  offset="2.453990e-02" style="stop-color:#FFFFFF"/>
			<stop  offset="1" style="stop-color:#B4E4FA"/>
		</radialGradient>
		<polygon class="st98" points="60.7,27.8 59.8,25.5 58.6,25.1 59.5,27.4 		"/>
		
			<radialGradient id="SVGID_100_" cx="76.0792" cy="50.5214" r="52.7131" gradientTransform="matrix(1 0 0 -1 0 100)" gradientUnits="userSpaceOnUse">
			<stop  offset="2.453990e-02" style="stop-color:#FFFFFF"/>
			<stop  offset="1" style="stop-color:#B4E4FA"/>
		</radialGradient>
		<polygon class="st99" points="58.2,27 57.1,24.8 55.8,24.5 57,26.7 		"/>
		
			<radialGradient id="SVGID_101_" cx="76.0776" cy="50.5216" r="52.7109" gradientTransform="matrix(1 0 0 -1 0 100)" gradientUnits="userSpaceOnUse">
			<stop  offset="2.453990e-02" style="stop-color:#FFFFFF"/>
			<stop  offset="1" style="stop-color:#B4E4FA"/>
		</radialGradient>
		<polygon class="st100" points="55.7,26.5 54.3,24.3 53,24.1 54.4,26.3 		"/>
		
			<radialGradient id="SVGID_102_" cx="76.0795" cy="50.5217" r="52.7131" gradientTransform="matrix(1 0 0 -1 0 100)" gradientUnits="userSpaceOnUse">
			<stop  offset="2.453990e-02" style="stop-color:#FFFFFF"/>
			<stop  offset="1" style="stop-color:#B4E4FA"/>
		</radialGradient>
		<polygon class="st101" points="53,26.1 51.5,24.1 50.2,24 51.8,26.1 		"/>
	</g>
	<g>
		<g>
			<g>
				
					<radialGradient id="SVGID_103_" cx="50.3711" cy="65.4662" r="1.5621" gradientTransform="matrix(1 0 0 -1 0 100)" gradientUnits="userSpaceOnUse">
					<stop  offset="2.453990e-02" style="stop-color:#FFFFFF"/>
					<stop  offset="1" style="stop-color:#B4E4FA"/>
				</radialGradient>
				<path class="st102" d="M50.4,33l0.3,1.2h1.2l-1,0.7l0.3,1.2l-1-0.7l-1,0.7l0.4-1.2l-1-0.7h1.2L50.4,33z"/>
			</g>
		</g>
		
			<radialGradient id="SVGID_104_" cx="-105.9927" cy="292.285" r="2.9955" gradientTransform="matrix(0.729 0 0 -0.5 116.7961 181.625)" gradientUnits="userSpaceOnUse">
			<stop  offset="2.453990e-02" style="stop-color:#FFFFFF"/>
			<stop  offset="1" style="stop-color:#B4E4FA"/>
		</radialGradient>
		<rect x="36.4" y="35.4" class="st103" width="6.2" height="0.1"/>
		
			<radialGradient id="SVGID_105_" cx="-271.9687" cy="291.126" r="2.9954" gradientTransform="matrix(0.5571 0 0 -0.5 191.7693 181.625)" gradientUnits="userSpaceOnUse">
			<stop  offset="2.453990e-02" style="stop-color:#FFFFFF"/>
			<stop  offset="1" style="stop-color:#B4E4FA"/>
		</radialGradient>
		<rect x="37.9" y="36" class="st104" width="4.7" height="0.1"/>
		
			<radialGradient id="SVGID_106_" cx="1111.6123" cy="292.285" r="2.9955" gradientTransform="matrix(-0.729 0 0 -0.5 871.711 181.625)" gradientUnits="userSpaceOnUse">
			<stop  offset="2.453990e-02" style="stop-color:#FFFFFF"/>
			<stop  offset="1" style="stop-color:#B4E4FA"/>
		</radialGradient>
		<rect x="58.3" y="35.4" class="st105" width="6.2" height="0.1"/>
		
			<radialGradient id="SVGID_107_" cx="1321.3447" cy="291.126" r="2.9954" gradientTransform="matrix(-0.5571 0 0 -0.5 796.7387 181.625)" gradientUnits="userSpaceOnUse">
			<stop  offset="2.453990e-02" style="stop-color:#FFFFFF"/>
			<stop  offset="1" style="stop-color:#B4E4FA"/>
		</radialGradient>
		<rect x="58.3" y="36" class="st106" width="4.7" height="0.1"/>
	</g>
	<g>
		<path class="st26" d="M32.6,52.4C31,53.5,29.8,54,29,54.2h7.2v-1.8C34.9,50.7,32.6,52.4,32.6,52.4L32.6,52.4z"/>
		<path class="st26" d="M25.9,52.6l-1.5,1.5h3.5C27,54,26.1,53.3,25.9,52.6L25.9,52.6z"/>
		<path class="st26" d="M26.4,52.2c0.8,0.8,2.5,0.8,5.7-1.5c0,0,3-2.2,4,0.8v-9L26.4,52.2L26.4,52.2z"/>
		<polygon class="st26" points="37.4,53.2 37.1,53.2 37.1,53.1 37.9,53.1 37.9,53.2 37.5,53.2 37.5,54.2 37.4,54.2 		"/>
		<polygon class="st26" points="38.1,53.1 38.2,53.1 38.6,54 39,53.1 39.2,53.1 39.2,54.2 39.1,54.2 39.1,53.2 39,53.2 38.6,54.2 
			38.6,54.2 38.2,53.2 38.2,53.2 38.2,54.2 38.1,54.2 		"/>
		<path class="st26" d="M43.9,47.7c-0.4-0.4-0.8-0.5-1.2-0.5c-1.1,0-1.9,0.9-1.9,2c0,1.2,0.7,2,1.9,2c0.4,0,0.9-0.2,1.2-0.7l0.8,0.6
			c-0.5,0.7-1.2,1-2,1c-1.7,0-2.9-1.1-2.9-2.8c0-1.8,1.2-2.9,2.9-2.9c0.7,0,1.4,0.2,1.9,0.9L43.9,47.7L43.9,47.7z"/>
		<path class="st26" d="M48.5,49.8l-0.8-2.2l-0.9,2.2H48.5L48.5,49.8z M47.2,46.4H48l2.4,5.5h-1.1l-0.5-1.3h-2.4l-0.5,1.3h-1.1
			L47.2,46.4L47.2,46.4z"/>
		<polygon class="st26" points="51.1,46.4 52.1,46.4 52.1,51 54.4,51 54.4,51.8 51.1,51.8 		"/>
		<polygon class="st26" points="56.5,49.5 54.5,46.4 55.7,46.4 57,48.6 58.4,46.4 59.6,46.4 57.5,49.5 57.5,51.8 56.5,51.8 		"/>
		<path class="st26" d="M61.7,48.7c0.6,0,1.3,0,1.3-0.8c0-0.7-0.6-0.8-1.2-0.8h-0.7v1.5L61.7,48.7L61.7,48.7z M60.1,46.4H62
			c1.1,0,2,0.4,2,1.6c0,1.4-1,1.6-2.2,1.6h-0.7v2.3h-1V46.4L60.1,46.4z"/>
		<path class="st26" d="M67.6,47.6c-0.2-0.3-0.6-0.4-1-0.4s-0.9,0.2-0.9,0.7c0,1.1,2.6,0.5,2.6,2.4c0,1.2-0.9,1.7-2,1.7
			c-0.7,0-1.3-0.2-1.8-0.7l0.7-0.7c0.2,0.4,0.6,0.6,1.1,0.6c0.4,0,1-0.2,1-0.7c0-1.2-2.6-0.5-2.6-2.5c0-1.1,1-1.7,2-1.7
			c0.6,0,1.1,0.2,1.6,0.6L67.6,47.6L67.6,47.6z"/>
		<path class="st26" d="M72,51.1c1.1,0,1.9-0.9,1.9-2s-0.7-2-1.9-2c-1.1,0-1.9,0.9-1.9,2C70.2,50.2,70.9,51.1,72,51.1L72,51.1z
			 M72,46.2c1.7,0,2.9,1.1,2.9,2.9c0,1.7-1.2,2.8-2.9,2.9c-1.7,0-2.9-1.1-2.9-2.8C69.1,47.4,70.4,46.2,72,46.2L72,46.2z"/>
		<path class="st26" d="M75.4,46.7V47c0,0,0,0,0.1,0s0.1,0,0.2,0v-0.1C75.7,46.8,75.6,46.7,75.4,46.7L75.4,46.7L75.4,46.7L75.4,46.7
			z M75.7,47.5l-0.2-0.4h-0.1v0.4h-0.1v-0.8h0.2c0.2,0,0.3,0.1,0.3,0.2c0,0.1-0.1,0.2-0.2,0.2l0.2,0.4L75.7,47.5L75.7,47.5z
			 M76.1,47.1c0-0.2-0.1-0.3-0.2-0.4c-0.1-0.1-0.2-0.2-0.4-0.2c-0.2,0-0.3,0.1-0.4,0.2S75,46.9,75,47.1c0,0.2,0.1,0.3,0.2,0.4
			c0.1,0.1,0.2,0.2,0.4,0.2c0.2,0,0.3-0.1,0.4-0.2C76,47.4,76.1,47.2,76.1,47.1L76.1,47.1z M74.9,47.1c0-0.2,0.1-0.3,0.2-0.5
			c0.1-0.1,0.3-0.2,0.5-0.2s0.3,0.1,0.5,0.2c0.1,0.1,0.2,0.3,0.2,0.5s-0.1,0.3-0.2,0.5c-0.1,0.1-0.3,0.2-0.5,0.2s-0.3-0.1-0.5-0.2
			C74.9,47.4,74.9,47.2,74.9,47.1L74.9,47.1z"/>
	</g>
	<g>
		<path class="st26" d="M39.3,59.8c0.5,0,0.9,0.2,1.1,0.5L40,60.8c-0.2-0.2-0.4-0.3-0.7-0.3c-0.7,0-1.1,0.6-1.1,1.5s0.4,1.5,1.1,1.5
			c0.4,0,0.6-0.1,0.8-0.4l0.4,0.4c-0.3,0.4-0.8,0.6-1.3,0.6c-1,0-1.8-0.7-1.8-2.1C37.4,60.6,38.2,59.8,39.3,59.8z"/>
		<path class="st26" d="M41.1,59.9h2.4v0.6h-1.7v1h1.4v0.6h-1.4v1.2h1.8v0.6h-2.5V59.9z"/>
		<path class="st26" d="M46.7,63.9l-0.9-1.6h-0.6v1.6h-0.7v-4h1.4c0.8,0,1.5,0.3,1.5,1.2c0,0.6-0.3,1-0.8,1.1l1,1.7H46.7z
			 M45.2,61.8h0.6c0.5,0,0.8-0.2,0.8-0.7s-0.3-0.6-0.8-0.6h-0.6V61.8z"/>
		<path class="st26" d="M48.8,60.5h-1.2v-0.6h3v0.6h-1.2v3.4h-0.7v-3.4H48.8z"/>
		<path class="st26" d="M51.4,59.9h0.7v4h-0.7V59.9z"/>
		<path class="st26" d="M53.1,59.9h2.4v0.6h-1.7v1.1h1.5v0.6h-1.5v1.7h-0.7V59.9z"/>
		<path class="st26" d="M56.2,59.9H57v4h-0.7L56.2,59.9L56.2,59.9z"/>
		<path class="st26" d="M58,59.9h2.4v0.6h-1.7v1h1.4v0.6h-1.4v1.2h1.8v0.6H58V59.9z"/>
		<path class="st26" d="M61.3,59.9h1.1c1.2,0,2,0.7,2,2s-0.7,2-1.9,2h-1.1L61.3,59.9L61.3,59.9z M62.3,63.4c0.8,0,1.3-0.5,1.3-1.5
			s-0.5-1.4-1.3-1.4H62v2.9H62.3z"/>
	</g>
	<g>
		
			<linearGradient id="SVGID_108_" gradientUnits="userSpaceOnUse" x1="14.9" y1="-52.5652" x2="86.5" y2="-52.5652" gradientTransform="matrix(1 0 0 -1.1999 0 13.1645)">
			<stop  offset="0" style="stop-color:#0E4066"/>
			<stop  offset="1" style="stop-color:#00609D"/>
		</linearGradient>
		<path class="st107" d="M86.5,83.1c-23.7,4.1-47.9,4.1-71.6,0c0-5.6,0-11.2,0-16.8c23.7,4.1,47.9,4.1,71.6,0
			C86.5,71.9,86.5,77.5,86.5,83.1z"/>
		<g>
			
				<radialGradient id="SVGID_109_" cx="50.6" cy="30.3462" r="23.6033" gradientTransform="matrix(1 0 0 -1 0 100)" gradientUnits="userSpaceOnUse">
				<stop  offset="0" style="stop-color:#D4EFFC"/>
				<stop  offset="1" style="stop-color:#6FBCE9"/>
			</radialGradient>
			<path class="st108" d="M83.9,68.5c-0.4,0.1-0.8,0.1-1.2,0.2c0-0.1,0-0.2,0-0.3c0.4-0.1,0.8-0.1,1.2-0.2
				C83.9,68.3,83.9,68.4,83.9,68.5z M81.6,68.8c-0.4,0.1-0.8,0.1-1.2,0.2c0-0.1,0-0.2,0-0.3c0.4-0.1,0.8-0.1,1.2-0.2
				C81.6,68.6,81.6,68.7,81.6,68.8z M79.3,69.2c-0.4,0.1-0.8,0.1-1.2,0.2c0-0.1,0-0.2,0-0.3c0.4-0.1,0.8-0.1,1.2-0.2
				C79.3,69,79.3,69.1,79.3,69.2z M77,69.5c-0.4,0-0.8,0.1-1.2,0.1c0-0.1,0-0.2,0-0.3c0.4,0,0.8-0.1,1.2-0.1
				C77,69.3,77,69.4,77,69.5z M74.6,69.8c-0.4,0-0.8,0.1-1.2,0.1c0-0.1,0-0.2,0-0.3c0.4,0,0.8-0.1,1.2-0.1
				C74.6,69.6,74.6,69.7,74.6,69.8z M72.3,70c-0.4,0-0.8,0.1-1.2,0.1c0-0.1,0-0.2,0-0.3c0.4,0,0.8-0.1,1.2-0.1
				C72.3,69.8,72.3,69.9,72.3,70z M70,70.3c-0.4,0-0.8,0.1-1.2,0.1c0-0.1,0-0.2,0-0.3c0.4,0,0.8-0.1,1.2-0.1
				C70,70.1,70,70.2,70,70.3z M67.6,70.5c-0.4,0-0.8,0.1-1.2,0.1c0-0.1,0-0.2,0-0.3c0.4,0,0.8-0.1,1.2-0.1
				C67.6,70.3,67.6,70.4,67.6,70.5z M65.3,70.6c-0.4,0-0.8,0.1-1.2,0.1c0-0.1,0-0.2,0-0.3c0.4,0,0.8-0.1,1.2-0.1
				C65.3,70.4,65.3,70.5,65.3,70.6z M63,70.8c-0.4,0-0.8,0-1.2,0.1c0-0.1,0-0.2,0-0.3c0.4,0,0.8,0,1.2-0.1C63,70.6,63,70.7,63,70.8z
				 M60.6,70.9c-0.4,0-0.8,0-1.2,0.1c0-0.1,0-0.2,0-0.3c0.4,0,0.8,0,1.2-0.1C60.6,70.7,60.6,70.8,60.6,70.9z M58.3,71
				c-0.4,0-0.8,0-1.2,0c0-0.1,0-0.2,0-0.3c0.4,0,0.8,0,1.2,0C58.3,70.8,58.3,70.9,58.3,71z M55.9,71.1c-0.4,0-0.8,0-1.2,0
				c0-0.1,0-0.2,0-0.3c0.4,0,0.8,0,1.2,0C55.9,70.9,55.9,71,55.9,71.1z M53.6,71.1c-0.4,0-0.8,0-1.2,0c0-0.1,0-0.2,0-0.3
				c0.4,0,0.8,0,1.2,0C53.6,70.9,53.6,71,53.6,71.1z M51.2,71.1c-0.4,0-0.8,0-1.2,0c0-0.1,0-0.2,0-0.3c0.4,0,0.8,0,1.2,0
				C51.2,71,51.2,71,51.2,71.1z M48.9,71.1c-0.4,0-0.8,0-1.2,0c0-0.1,0-0.2,0-0.3c0.4,0,0.8,0,1.2,0C48.9,70.9,48.9,71,48.9,71.1z
				 M46.5,71.1c-0.4,0-0.8,0-1.2,0c0-0.1,0-0.2,0-0.3c0.4,0,0.8,0,1.2,0C46.5,70.9,46.5,71,46.5,71.1z M44.2,71c-0.4,0-0.8,0-1.2,0
				c0-0.1,0-0.2,0-0.3c0.4,0,0.8,0,1.2,0C44.2,70.9,44.2,70.9,44.2,71z M41.9,71c-0.4,0-0.8,0-1.2-0.1c0-0.1,0-0.2,0-0.3
				c0.4,0,0.8,0,1.2,0.1C41.9,70.8,41.9,70.9,41.9,71z M39.5,70.8c-0.4,0-0.8,0-1.2-0.1c0-0.1,0-0.2,0-0.3c0.4,0,0.8,0,1.2,0.1
				C39.5,70.7,39.5,70.7,39.5,70.8z M37.2,70.7c-0.4,0-0.8-0.1-1.2-0.1c0-0.1,0-0.2,0-0.3c0.4,0,0.8,0.1,1.2,0.1
				C37.2,70.5,37.2,70.6,37.2,70.7z M34.8,70.5c-0.4,0-0.8-0.1-1.2-0.1c0-0.1,0-0.2,0-0.3c0.4,0,0.8,0.1,1.2,0.1
				C34.8,70.3,34.8,70.4,34.8,70.5z M32.5,70.3c-0.4,0-0.8-0.1-1.2-0.1c0-0.1,0-0.2,0-0.3c0.4,0,0.8,0.1,1.2,0.1
				C32.5,70.2,32.5,70.2,32.5,70.3z M30.2,70.1c-0.4,0-0.8-0.1-1.2-0.1c0-0.1,0-0.2,0-0.3c0.4,0,0.8,0.1,1.2,0.1
				C30.2,69.9,30.2,70,30.2,70.1z M27.8,69.9c-0.4,0-0.8-0.1-1.2-0.1c0-0.1,0-0.2,0-0.3c0.4,0,0.8,0.1,1.2,0.1
				C27.8,69.7,27.8,69.8,27.8,69.9z M25.5,69.6c-0.4,0-0.8-0.1-1.2-0.1c0-0.1,0-0.2,0-0.3c0.4,0,0.8,0.1,1.2,0.1
				C25.5,69.4,25.5,69.5,25.5,69.6z M23.2,69.3c-0.4-0.1-0.8-0.1-1.2-0.2c0-0.1,0-0.2,0-0.3c0.4,0.1,0.8,0.1,1.2,0.2
				C23.2,69.1,23.2,69.2,23.2,69.3z M20.8,69c-0.4-0.1-0.8-0.1-1.2-0.2c0-0.1,0-0.2,0-0.3c0.4,0.1,0.8,0.1,1.2,0.2
				C20.8,68.8,20.8,68.9,20.8,69z M18.5,68.6c-0.4-0.1-0.8-0.1-1.2-0.2c0-0.1,0-0.2,0-0.3c0.4,0.1,0.8,0.1,1.2,0.2
				C18.5,68.4,18.5,68.5,18.5,68.6z"/>
		</g>
		<g>
			
				<radialGradient id="SVGID_110_" cx="50.6" cy="17.2095" r="23.6033" gradientTransform="matrix(1 0 0 -1 0 100)" gradientUnits="userSpaceOnUse">
				<stop  offset="0" style="stop-color:#D4EFFC"/>
				<stop  offset="1" style="stop-color:#6FBCE9"/>
			</radialGradient>
			<path class="st109" d="M83.9,81.6c-0.4,0.1-0.8,0.1-1.2,0.2c0-0.1,0-0.2,0-0.3c0.4-0.1,0.8-0.1,1.2-0.2
				C83.9,81.4,83.9,81.5,83.9,81.6z M81.6,82c-0.4,0.1-0.8,0.1-1.2,0.2c0-0.1,0-0.2,0-0.3c0.4-0.1,0.8-0.1,1.2-0.2
				C81.6,81.8,81.6,81.9,81.6,82z M79.3,82.3c-0.4,0.1-0.8,0.1-1.2,0.2c0-0.1,0-0.2,0-0.3c0.4-0.1,0.8-0.1,1.2-0.2
				C79.3,82.1,79.3,82.2,79.3,82.3z M77,82.6c-0.4,0-0.8,0.1-1.2,0.1c0-0.1,0-0.2,0-0.3c0.4,0,0.8-0.1,1.2-0.1
				C77,82.4,77,82.5,77,82.6z M74.6,82.9c-0.4,0-0.8,0.1-1.2,0.1c0-0.1,0-0.2,0-0.3c0.4,0,0.8-0.1,1.2-0.1
				C74.6,82.7,74.6,82.8,74.6,82.9z M72.3,83.2c-0.4,0-0.8,0.1-1.2,0.1c0-0.1,0-0.2,0-0.3c0.4,0,0.8-0.1,1.2-0.1
				C72.3,83,72.3,83.1,72.3,83.2z M70,83.4c-0.4,0-0.8,0.1-1.2,0.1c0-0.1,0-0.2,0-0.3c0.4,0,0.8-0.1,1.2-0.1
				C70,83.2,70,83.3,70,83.4z M67.6,83.6c-0.4,0-0.8,0.1-1.2,0.1c0-0.1,0-0.2,0-0.3c0.4,0,0.8-0.1,1.2-0.1
				C67.6,83.4,67.6,83.5,67.6,83.6z M65.3,83.8c-0.4,0-0.8,0.1-1.2,0.1c0-0.1,0-0.2,0-0.3c0.4,0,0.8-0.1,1.2-0.1
				C65.3,83.6,65.3,83.7,65.3,83.8z M63,83.9c-0.4,0-0.8,0-1.2,0.1c0-0.1,0-0.2,0-0.3c0.4,0,0.8,0,1.2-0.1C63,83.7,63,83.8,63,83.9z
				 M60.6,84c-0.4,0-0.8,0-1.2,0.1c0-0.1,0-0.2,0-0.3c0.4,0,0.8,0,1.2-0.1C60.6,83.9,60.6,84,60.6,84z M58.3,84.1
				c-0.4,0-0.8,0-1.2,0c0-0.1,0-0.2,0-0.3c0.4,0,0.8,0,1.2,0C58.3,84,58.3,84,58.3,84.1z M55.9,84.2c-0.4,0-0.8,0-1.2,0
				c0-0.1,0-0.2,0-0.3c0.4,0,0.8,0,1.2,0C55.9,84,55.9,84.1,55.9,84.2z M53.6,84.3c-0.4,0-0.8,0-1.2,0c0-0.1,0-0.2,0-0.3
				c0.4,0,0.8,0,1.2,0C53.6,84.1,53.6,84.2,53.6,84.3z M51.2,84.3c-0.4,0-0.8,0-1.2,0c0-0.1,0-0.2,0-0.3c0.4,0,0.8,0,1.2,0
				C51.2,84.1,51.2,84.2,51.2,84.3z M48.9,84.3c-0.4,0-0.8,0-1.2,0c0-0.1,0-0.2,0-0.3c0.4,0,0.8,0,1.2,0
				C48.9,84.1,48.9,84.2,48.9,84.3z M46.5,84.2c-0.4,0-0.8,0-1.2,0c0-0.1,0-0.2,0-0.3c0.4,0,0.8,0,1.2,0
				C46.5,84,46.5,84.1,46.5,84.2z M44.2,84.2c-0.4,0-0.8,0-1.2,0c0-0.1,0-0.2,0-0.3c0.4,0,0.8,0,1.2,0C44.2,84,44.2,84.1,44.2,84.2z
				 M41.9,84.1c-0.4,0-0.8,0-1.2-0.1c0-0.1,0-0.2,0-0.3c0.4,0,0.8,0,1.2,0.1C41.9,83.9,41.9,84,41.9,84.1z M39.5,84
				c-0.4,0-0.8,0-1.2-0.1c0-0.1,0-0.2,0-0.3c0.4,0,0.8,0,1.2,0.1C39.5,83.8,39.5,83.9,39.5,84z M37.2,83.8c-0.4,0-0.8-0.1-1.2-0.1
				c0-0.1,0-0.2,0-0.3c0.4,0,0.8,0.1,1.2,0.1C37.2,83.6,37.2,83.7,37.2,83.8z M34.8,83.7c-0.4,0-0.8-0.1-1.2-0.1c0-0.1,0-0.2,0-0.3
				c0.4,0,0.8,0.1,1.2,0.1C34.8,83.5,34.8,83.6,34.8,83.7z M32.5,83.5c-0.4,0-0.8-0.1-1.2-0.1c0-0.1,0-0.2,0-0.3
				c0.4,0,0.8,0.1,1.2,0.1C32.5,83.3,32.5,83.4,32.5,83.5z M30.2,83.3c-0.4,0-0.8-0.1-1.2-0.1c0-0.1,0-0.2,0-0.3
				c0.4,0,0.8,0.1,1.2,0.1C30.2,83.1,30.2,83.2,30.2,83.3z M27.8,83c-0.4,0-0.8-0.1-1.2-0.1c0-0.1,0-0.2,0-0.3
				c0.4,0,0.8,0.1,1.2,0.1C27.8,82.8,27.8,82.9,27.8,83z M25.5,82.7c-0.4,0-0.8-0.1-1.2-0.1c0-0.1,0-0.2,0-0.3
				c0.4,0.1,0.8,0.1,1.2,0.1C25.5,82.6,25.5,82.7,25.5,82.7z M23.2,82.5c-0.4-0.1-0.8-0.1-1.2-0.2c0-0.1,0-0.2,0-0.3
				c0.4,0.1,0.8,0.1,1.2,0.2C23.2,82.3,23.2,82.4,23.2,82.5z M20.8,82.1C20.4,82,20,82,19.6,81.9c0-0.1,0-0.2,0-0.3
				c0.4,0.1,0.8,0.1,1.2,0.2C20.8,81.9,20.8,82,20.8,82.1z M18.5,81.8c-0.4-0.1-0.8-0.1-1.2-0.2c0-0.1,0-0.2,0-0.3
				c0.4,0.1,0.8,0.1,1.2,0.2C18.5,81.6,18.5,81.7,18.5,81.8z"/>
		</g>
		
			<radialGradient id="SVGID_111_" cx="55.472" cy="23.6533" r="26.5567" gradientTransform="matrix(1 0 0 -1 0 100)" gradientUnits="userSpaceOnUse">
			<stop  offset="0" style="stop-color:#D4EFFC"/>
			<stop  offset="1" style="stop-color:#6FBCE9"/>
		</radialGradient>
		<path class="st110" d="M19.7,74.3c0,0,0.1,0,0.1,0.1l1.1,1.1l0,0l0,0l0,0l0,0l0,0l0,0l-1.1,1.1l-0.1,0.1c-0.2,0.1-0.5,0-0.7-0.2
			c-0.1-0.2-0.1-0.3,0-0.5c-0.3,0-0.5-0.2-0.5-0.5S18.7,75,19,75c-0.1-0.1-0.1-0.3,0-0.5C19.2,74.3,19.5,74.2,19.7,74.3z"/>
		
			<radialGradient id="SVGID_112_" cx="55.4718" cy="23.6536" r="26.5564" gradientTransform="matrix(1 0 0 -1 0 100)" gradientUnits="userSpaceOnUse">
			<stop  offset="0" style="stop-color:#D4EFFC"/>
			<stop  offset="1" style="stop-color:#6FBCE9"/>
		</radialGradient>
		<path class="st111" d="M82.1,76.7C82.1,76.7,82,76.7,82.1,76.7l-1.2-1.2l0,0l0,0l0,0l0,0l0,0l0,0l1.1-1.1l0.1-0.1
			c0.2-0.1,0.5,0,0.7,0.2c0.1,0.2,0.1,0.3,0,0.5c0.3,0,0.5,0.2,0.5,0.5S83.1,76,82.8,76c0.1,0.1,0.1,0.3,0,0.5
			C82.6,76.8,82.3,76.9,82.1,76.7z"/>
	</g>
	<g>
		<path class="st26" d="M35.2,77.5h-1.6l-0.4,1.3h-0.9l1.6-4.9h1l1.6,4.9h-0.9L35.2,77.5z M35,76.8l-0.2-0.6
			c-0.2-0.5-0.3-1.1-0.4-1.6l0,0c-0.1,0.5-0.3,1.1-0.4,1.6l-0.2,0.6H35z"/>
		<path class="st26" d="M37.3,77.6c0.4,0.3,0.8,0.6,1.3,0.6c0.6,0,0.9-0.2,0.9-0.6s-0.3-0.5-0.8-0.7L38,76.5c-0.5-0.2-1-0.6-1-1.3
			c0-0.8,0.7-1.4,1.6-1.4c0.6,0,1.1,0.2,1.5,0.6L39.7,75c-0.3-0.3-0.6-0.4-1.1-0.4s-0.8,0.2-0.8,0.6s0.4,0.5,0.8,0.7l0.7,0.3
			c0.6,0.2,1,0.6,1,1.3c0,0.8-0.7,1.4-1.8,1.4c-0.7,0-1.3-0.3-1.8-0.7L37.3,77.6z"/>
		<path class="st26" d="M41.2,77.6c0.4,0.3,0.8,0.6,1.3,0.6c0.6,0,0.9-0.2,0.9-0.6s-0.3-0.5-0.8-0.7l-0.7-0.3c-0.5-0.2-1-0.6-1-1.3
			c0-0.8,0.7-1.4,1.6-1.4c0.6,0,1.1,0.2,1.5,0.6L43.7,75c-0.3-0.3-0.6-0.4-1.1-0.4s-0.8,0.2-0.8,0.6s0.4,0.5,0.8,0.7l0.7,0.3
			c0.6,0.2,1,0.6,1,1.3c0,0.8-0.7,1.4-1.8,1.4c-0.7,0-1.3-0.3-1.8-0.7L41.2,77.6z"/>
		<path class="st26" d="M44.9,76.4c0-1.6,0.9-2.5,2.1-2.5c1.3,0,2.2,0.9,2.2,2.5S48.3,79,47,79C45.8,78.9,44.9,78,44.9,76.4z
			 M48.3,76.4c0-1.1-0.5-1.8-1.3-1.8s-1.3,0.7-1.3,1.8c0,1.1,0.5,1.8,1.3,1.8S48.3,77.5,48.3,76.4z"/>
		<path class="st26" d="M52.2,73.9c0.6,0,1.1,0.3,1.4,0.6L53.1,75c-0.2-0.2-0.5-0.4-0.9-0.4c-0.8,0-1.4,0.7-1.4,1.8
			c0,1.1,0.5,1.8,1.3,1.8c0.4,0,0.7-0.2,1-0.5l0.5,0.5c-0.4,0.5-0.9,0.7-1.5,0.7c-1.2,0-2.2-0.9-2.2-2.5
			C49.9,74.8,50.9,73.9,52.2,73.9z"/>
		<path class="st26" d="M54.5,74h0.9v4.9h-0.9V74z"/>
		<path class="st26" d="M58.9,77.5h-1.6l-0.4,1.3H56l1.6-4.9h1l1.6,4.9h-0.9L58.9,77.5z M58.7,76.8l-0.2-0.6
			c-0.2-0.5-0.3-1.1-0.4-1.6l0,0c-0.1,0.5-0.3,1.1-0.4,1.6l-0.2,0.6H58.7z"/>
		<path class="st26" d="M61.4,74.7H60V74h3.7v0.7h-1.4v4.1h-0.9C61.4,78.8,61.4,74.7,61.4,74.7z"/>
		<path class="st26" d="M64.5,74h2.9v0.7h-2.1v1.2h1.8v0.7h-1.8V78h2.1v0.7h-3L64.5,74L64.5,74z"/>
	</g>
</g>
</svg>
