<?xml version="1.0" encoding="utf-8"?>
<!-- Generator: Adobe Illustrator 25.0.0, SVG Export Plug-In . SVG Version: 6.00 Build 0)  -->
<svg version="1.1" id="Layer_1" xmlns="http://www.w3.org/2000/svg" xmlns:xlink="http://www.w3.org/1999/xlink" x="0px" y="0px"
	 viewBox="0 0 100 100" style="enable-background:new 0 0 100 100;" xml:space="preserve">
<style type="text/css">
	.st0{fill:url(#SVGID_1_);}
	.st1{fill:#EDEDEE;}
	.st2{fill:url(#SVGID_2_);}
	.st3{fill:url(#SVGID_3_);}
	.st4{fill:url(#SVGID_4_);}
	.st5{fill:url(#SVGID_5_);}
	.st6{fill:url(#SVGID_6_);}
	.st7{fill:url(#SVGID_7_);}
	.st8{fill:url(#SVGID_8_);}
	.st9{fill:url(#SVGID_9_);}
	.st10{fill:url(#SVGID_10_);}
	.st11{fill:url(#SVGID_11_);}
	.st12{fill:url(#SVGID_12_);}
	.st13{fill:url(#SVGID_13_);}
	.st14{fill:url(#SVGID_14_);}
	.st15{fill:url(#SVGID_15_);}
	.st16{fill:url(#SVGID_16_);}
	.st17{fill:url(#SVGID_17_);}
	.st18{fill:url(#SVGID_18_);}
	.st19{fill:url(#SVGID_19_);}
	.st20{fill:url(#SVGID_20_);}
	.st21{fill:url(#SVGID_21_);}
	.st22{fill:url(#SVGID_22_);}
	.st23{fill:url(#SVGID_23_);}
	.st24{fill:#022B45;}
	.st25{fill:#FFFFFF;}
	.st26{filter:url(#Adobe_OpacityMaskFilter);}
	.st27{filter:url(#Adobe_OpacityMaskFilter_1_);}
	.st28{mask:url(#SVGID_24_);fill:url(#SVGID_25_);}
	.st29{opacity:0.33;fill:url(#SVGID_26_);}
	.st30{fill:url(#SVGID_27_);}
	.st31{fill:url(#SVGID_28_);}
	.st32{fill:url(#SVGID_29_);}
	.st33{fill:url(#SVGID_30_);}
	.st34{fill:url(#SVGID_31_);}
	.st35{fill:url(#SVGID_32_);}
	.st36{fill:url(#SVGID_33_);}
	.st37{fill:url(#SVGID_34_);}
	.st38{fill:url(#SVGID_35_);}
	.st39{fill:url(#SVGID_36_);}
	.st40{fill:url(#SVGID_37_);}
	.st41{fill:url(#SVGID_38_);}
	.st42{fill:url(#SVGID_39_);}
	.st43{fill:url(#SVGID_40_);}
	.st44{fill:url(#SVGID_41_);}
	.st45{fill:url(#SVGID_42_);}
	.st46{fill:url(#SVGID_43_);}
	.st47{fill:url(#SVGID_44_);}
	.st48{fill:url(#SVGID_45_);}
	.st49{fill:url(#SVGID_46_);}
	.st50{fill:url(#SVGID_47_);}
	.st51{fill:url(#SVGID_48_);}
	.st52{fill:url(#SVGID_49_);}
	.st53{fill:url(#SVGID_50_);}
	.st54{fill:url(#SVGID_51_);}
	.st55{fill:url(#SVGID_52_);}
	.st56{fill:url(#SVGID_53_);}
	.st57{fill:url(#SVGID_54_);}
	.st58{fill:url(#SVGID_55_);}
	.st59{fill:url(#SVGID_56_);}
	.st60{fill:url(#SVGID_57_);}
	.st61{fill:url(#SVGID_58_);}
	.st62{fill:url(#SVGID_59_);}
	.st63{fill:url(#SVGID_60_);}
	.st64{fill:url(#SVGID_61_);}
	.st65{fill:url(#SVGID_62_);}
	.st66{fill:url(#SVGID_63_);}
	.st67{fill:url(#SVGID_64_);}
	.st68{fill:url(#SVGID_65_);}
	.st69{fill:url(#SVGID_66_);}
	.st70{fill:url(#SVGID_67_);}
	.st71{fill:url(#SVGID_68_);}
	.st72{fill:url(#SVGID_69_);}
	.st73{fill:url(#SVGID_70_);}
	.st74{fill:url(#SVGID_71_);}
	.st75{fill:url(#SVGID_72_);}
	.st76{fill:url(#SVGID_73_);}
	.st77{fill:url(#SVGID_74_);}
	.st78{fill:url(#SVGID_75_);}
	.st79{fill:url(#SVGID_76_);}
	.st80{fill:url(#SVGID_77_);}
	.st81{fill:url(#SVGID_78_);}
	.st82{fill:url(#SVGID_79_);}
	.st83{fill:url(#SVGID_80_);}
	.st84{fill:url(#SVGID_81_);}
	.st85{fill:url(#SVGID_82_);}
	.st86{fill:url(#SVGID_83_);}
	.st87{fill:url(#SVGID_84_);}
	.st88{fill:url(#SVGID_85_);}
	.st89{fill:url(#SVGID_86_);}
	.st90{fill:url(#SVGID_87_);}
	.st91{fill:url(#SVGID_88_);}
	.st92{fill:url(#SVGID_89_);}
	.st93{fill:url(#SVGID_90_);}
	.st94{fill:url(#SVGID_91_);}
	.st95{fill:url(#SVGID_92_);}
	.st96{fill:url(#SVGID_93_);}
	.st97{fill:url(#SVGID_94_);}
	.st98{fill:url(#SVGID_95_);}
	.st99{fill:url(#SVGID_96_);}
	.st100{fill:url(#SVGID_97_);}
	.st101{fill:url(#SVGID_98_);}
	.st102{fill-rule:evenodd;clip-rule:evenodd;fill:url(#SVGID_99_);}
	.st103{fill-rule:evenodd;clip-rule:evenodd;fill:url(#SVGID_100_);}
	.st104{fill-rule:evenodd;clip-rule:evenodd;fill:url(#SVGID_101_);}
	.st105{fill-rule:evenodd;clip-rule:evenodd;fill:url(#SVGID_102_);}
	.st106{fill-rule:evenodd;clip-rule:evenodd;fill:url(#SVGID_103_);}
	.st107{fill-rule:evenodd;clip-rule:evenodd;fill:url(#SVGID_104_);}
	.st108{fill-rule:evenodd;clip-rule:evenodd;fill:url(#SVGID_105_);}
	.st109{fill:url(#SVGID_106_);}
	.st110{fill:url(#SVGID_107_);}
	.st111{fill:url(#SVGID_108_);}
	.st112{fill-rule:evenodd;clip-rule:evenodd;fill:url(#SVGID_109_);}
	.st113{fill-rule:evenodd;clip-rule:evenodd;fill:url(#SVGID_110_);}
</style>
<g>
	<radialGradient id="SVGID_1_" cx="50.0822" cy="35.1992" r="36.4761" gradientUnits="userSpaceOnUse">
		<stop  offset="3.067480e-02" style="stop-color:#4A95D0"/>
		<stop  offset="1" style="stop-color:#005183"/>
	</radialGradient>
	<path class="st0" d="M76.3,67.2H23.8c-2.9,0-5.3-2.4-5.3-5.3L9.6,8.5c0-2.9,2.4-5.3,5.3-5.3h70.3c2.9,0,5.3,2.4,5.3,5.3l-8.9,53.4
		C81.7,64.8,79.3,67.2,76.3,67.2z"/>
	<g>
		<g>
			<path class="st1" d="M26.2,7.8h-1.8V6.6h5.1v1.2h-1.8V13h-1.5V7.8z"/>
			<path class="st1" d="M30.6,6.6h4.1v1.2H32v1.3h2.2v1.2H32v1.5h2.7V13h-4.2V6.6z"/>
			<path class="st1" d="M38.9,6.5c0.8,0,1.5,0.4,2,0.8l-0.8,0.9c-0.3-0.3-0.7-0.5-1.1-0.5c-0.9,0-1.6,0.8-1.6,2.1
				c0,1.3,0.6,2.1,1.6,2.1c0.5,0,0.9-0.2,1.3-0.6l0.8,0.9c-0.5,0.6-1.3,0.9-2.1,0.9c-1.7,0-3.1-1.1-3.1-3.3
				C35.8,7.7,37.2,6.5,38.9,6.5z"/>
			<path class="st1" d="M42,6.6h1.5V9h2.3V6.6h1.5V13h-1.5v-2.7h-2.3V13H42V6.6z"/>
			<path class="st1" d="M48.8,6.6h1.5L52,9.8l0.6,1.4h0c-0.1-0.7-0.2-1.6-0.2-2.3V6.6H54V13h-1.5l-1.7-3.2l-0.6-1.4h0
				c0.1,0.7,0.2,1.6,0.2,2.3V13h-1.4V6.6z"/>
			<path class="st1" d="M55.5,6.6H57V13h-1.5V6.6z"/>
			<path class="st1" d="M61.4,6.5c0.8,0,1.5,0.4,2,0.8l-0.8,0.9c-0.3-0.3-0.7-0.5-1.1-0.5c-0.9,0-1.6,0.8-1.6,2.1
				c0,1.3,0.6,2.1,1.6,2.1c0.5,0,0.9-0.2,1.3-0.6l0.8,0.9c-0.5,0.6-1.3,0.9-2.1,0.9c-1.7,0-3.1-1.1-3.1-3.3
				C58.3,7.7,59.7,6.5,61.4,6.5z"/>
			<path class="st1" d="M67.5,11.4h-2L65.1,13h-1.5l2.1-6.4h1.8l2.1,6.4H68L67.5,11.4z M67.2,10.3l-0.2-0.6
				c-0.2-0.6-0.4-1.4-0.5-2.1h0c-0.2,0.7-0.3,1.4-0.5,2.1l-0.2,0.6H67.2z"/>
			<path class="st1" d="M70.2,6.6h1.5v5.2h2.6V13h-4.1V6.6z"/>
		</g>
	</g>
	<g>
		<linearGradient id="SVGID_2_" gradientUnits="userSpaceOnUse" x1="6.9941" y1="70.5661" x2="19.6417" y2="70.5661">
			<stop  offset="0" style="stop-color:#0E4066"/>
			<stop  offset="1" style="stop-color:#00609D"/>
		</linearGradient>
		<path class="st2" d="M7,62.1c0,0,0.4,0.2,1,0.4c1.9,0.8,8.5,2,11.7,0v15.7c0,0-8.3,2-12.6-1c0,0,3-3.1,4.2-6.5
			C11.2,70.8,10,69,7,62.1z"/>
		<g>
			<g>
				<radialGradient id="SVGID_3_" cx="13.9559" cy="74.5456" r="21.413" gradientUnits="userSpaceOnUse">
					<stop  offset="0" style="stop-color:#D4EFFC"/>
					<stop  offset="1" style="stop-color:#6FBCE9"/>
				</radialGradient>
				<path class="st3" d="M9.2,77.3c-0.1,0-0.3-0.1-0.4-0.1l-0.3-0.1l0.2-0.2c0.1-0.1,0.2-0.2,0.2-0.3l0.3,0.2c0,0,0,0.1-0.1,0.1
					c0,0,0.1,0,0.1,0L9.2,77.3z"/>
			</g>
			<g>
				<radialGradient id="SVGID_4_" cx="13.9563" cy="74.5439" r="21.4196" gradientUnits="userSpaceOnUse">
					<stop  offset="0" style="stop-color:#D4EFFC"/>
					<stop  offset="1" style="stop-color:#6FBCE9"/>
				</radialGradient>
				<path class="st4" d="M9.7,76.3L9.4,76c0.1-0.2,0.3-0.4,0.4-0.6l0.3,0.2C10,75.9,9.9,76.1,9.7,76.3z M10.6,75.1l-0.3-0.2
					c0.1-0.2,0.3-0.4,0.4-0.6l0.3,0.2C10.9,74.7,10.7,74.9,10.6,75.1z M11.4,73.8L11,73.6c0.1-0.2,0.2-0.4,0.3-0.6l0.4,0.2
					C11.6,73.4,11.5,73.6,11.4,73.8z M12,72.5l-0.4-0.2c0.1-0.2,0.2-0.4,0.3-0.7l0.4,0.1C12.2,72,12.1,72.3,12,72.5z"/>
			</g>
			<g>
				<radialGradient id="SVGID_5_" cx="13.9561" cy="74.5444" r="21.4224" gradientUnits="userSpaceOnUse">
					<stop  offset="0" style="stop-color:#D4EFFC"/>
					<stop  offset="1" style="stop-color:#6FBCE9"/>
				</radialGradient>
				<polygon class="st5" points="12.6,71.1 12.2,71 12.3,70.7 12.1,70.5 12.5,70.2 12.7,70.7 				"/>
			</g>
			<g>
				<radialGradient id="SVGID_6_" cx="13.9563" cy="74.5425" r="21.416" gradientUnits="userSpaceOnUse">
					<stop  offset="0" style="stop-color:#D4EFFC"/>
					<stop  offset="1" style="stop-color:#6FBCE9"/>
				</radialGradient>
				<path class="st6" d="M11.8,69.8c-0.1-0.2-0.2-0.4-0.3-0.6l0.4-0.2c0.1,0.3,0.3,0.5,0.3,0.6L11.8,69.8z M11.1,68.5
					c-0.1-0.2-0.2-0.4-0.3-0.6l0.4-0.2c0.1,0.2,0.2,0.4,0.3,0.6L11.1,68.5z M10.4,67.2c-0.1-0.2-0.2-0.4-0.3-0.6l0.4-0.2
					c0.1,0.2,0.2,0.4,0.3,0.6L10.4,67.2z M9.8,65.9c-0.1-0.2-0.2-0.4-0.3-0.7l0.4-0.2c0.1,0.2,0.2,0.4,0.3,0.7L9.8,65.9z"/>
			</g>
			<g>
				<radialGradient id="SVGID_7_" cx="13.9564" cy="74.5345" r="21.4028" gradientUnits="userSpaceOnUse">
					<stop  offset="0" style="stop-color:#D4EFFC"/>
					<stop  offset="1" style="stop-color:#6FBCE9"/>
				</radialGradient>
				<path class="st7" d="M9.2,64.6l-0.3-0.7L9.3,64c0.1,0,0.3,0.1,0.4,0.1l-0.1,0.4l0,0l0,0c0,0,0,0,0,0L9.2,64.6z"/>
			</g>
			<g>
				<radialGradient id="SVGID_8_" cx="13.9559" cy="74.5385" r="21.4087" gradientUnits="userSpaceOnUse">
					<stop  offset="0" style="stop-color:#D4EFFC"/>
					<stop  offset="1" style="stop-color:#6FBCE9"/>
				</radialGradient>
				<path class="st8" d="M15,65.1l0-0.4c0.3,0,0.5,0,0.8,0l0,0.4C15.5,65,15.3,65.1,15,65.1z M14.2,65.1c-0.3,0-0.5,0-0.8,0l0-0.4
					c0.3,0,0.5,0,0.8,0L14.2,65.1z M16.6,65l0-0.4c0.3,0,0.5-0.1,0.8-0.1l0.1,0.4C17.1,64.9,16.8,64.9,16.6,65z M12.7,65
					c-0.3,0-0.5-0.1-0.8-0.1l0-0.4c0.3,0,0.5,0.1,0.8,0.1L12.7,65z M11.1,64.8c-0.3,0-0.5-0.1-0.8-0.1l0.1-0.4
					c0.2,0,0.5,0.1,0.8,0.1L11.1,64.8z"/>
			</g>
			<g>
				<radialGradient id="SVGID_9_" cx="13.9564" cy="74.5431" r="21.4181" gradientUnits="userSpaceOnUse">
					<stop  offset="0" style="stop-color:#D4EFFC"/>
					<stop  offset="1" style="stop-color:#6FBCE9"/>
				</radialGradient>
				<path class="st9" d="M18.7,64.8h-0.4v-0.1c0,0-0.1,0-0.1,0L18,64.3c0.1,0,0.3-0.1,0.4-0.1l0.3-0.1V64.8z"/>
			</g>
			<g>
				<radialGradient id="SVGID_10_" cx="13.9561" cy="74.5439" r="21.4185" gradientUnits="userSpaceOnUse">
					<stop  offset="0" style="stop-color:#D4EFFC"/>
					<stop  offset="1" style="stop-color:#6FBCE9"/>
				</radialGradient>
				<path class="st10" d="M18.7,76.2h-0.4v-0.8h0.4V76.2z M18.7,74.5h-0.4v-0.8h0.4V74.5z M18.7,72.9h-0.4v-0.8h0.4V72.9z
					 M18.7,71.3h-0.4v-0.8h0.4V71.3z M18.7,69.7h-0.4v-0.8h0.4V69.7z M18.7,68.1h-0.4v-0.8h0.4V68.1z M18.7,66.4h-0.4v-0.8h0.4V66.4
					z"/>
			</g>
			<g>
				<radialGradient id="SVGID_11_" cx="13.9564" cy="74.5444" r="21.4153" gradientUnits="userSpaceOnUse">
					<stop  offset="0" style="stop-color:#D4EFFC"/>
					<stop  offset="1" style="stop-color:#6FBCE9"/>
				</radialGradient>
				<path class="st11" d="M18.1,77.6L18,77.2c0.1,0,0.2,0,0.2,0V77h0.4v0.6l-0.2,0C18.4,77.6,18.2,77.6,18.1,77.6z"/>
			</g>
			<g>
				<radialGradient id="SVGID_12_" cx="13.9559" cy="74.5433" r="21.4192" gradientUnits="userSpaceOnUse">
					<stop  offset="0" style="stop-color:#D4EFFC"/>
					<stop  offset="1" style="stop-color:#6FBCE9"/>
				</radialGradient>
				<path class="st12" d="M13.8,78c-0.2,0-0.4,0-0.6,0l0-0.4c0.2,0,0.4,0,0.6,0l0.2,0l0,0.4L13.8,78z M14.9,78l0-0.4
					c0.3,0,0.5,0,0.8-0.1l0,0.4C15.4,77.9,15.1,78,14.9,78z M12.4,78c-0.3,0-0.5,0-0.8-0.1l0-0.4c0.3,0,0.5,0.1,0.8,0.1L12.4,78z
					 M16.5,77.9l0-0.4c0.3,0,0.5-0.1,0.8-0.1l0.1,0.4C17,77.8,16.8,77.8,16.5,77.9z M10.8,77.8c-0.3-0.1-0.5-0.1-0.8-0.2l0.1-0.4
					c0.2,0.1,0.5,0.1,0.8,0.2L10.8,77.8z"/>
			</g>
		</g>
	</g>
	<g>
		
			<linearGradient id="SVGID_13_" gradientUnits="userSpaceOnUse" x1="1034.3242" y1="70.5661" x2="1046.9731" y2="70.5661" gradientTransform="matrix(-1 0 0 1 1127.3301 0)">
			<stop  offset="0" style="stop-color:#0E4066"/>
			<stop  offset="1" style="stop-color:#00609D"/>
		</linearGradient>
		<path class="st13" d="M93,62.1c0,0-0.4,0.2-1,0.4c-1.9,0.8-8.5,2-11.7,0v15.7c0,0,8.3,2,12.6-1c0,0-3-3.1-4.2-6.5
			C88.8,70.8,90,69,93,62.1z"/>
		<g>
			<g>
				<radialGradient id="SVGID_14_" cx="93.4002" cy="73.5108" r="13.0516" gradientUnits="userSpaceOnUse">
					<stop  offset="0" style="stop-color:#D4EFFC"/>
					<stop  offset="1" style="stop-color:#6FBCE9"/>
				</radialGradient>
				<path class="st14" d="M90.8,77.3c0.1,0,0.3-0.1,0.4-0.1l0.3-0.1l-0.2-0.2c-0.1-0.1-0.2-0.2-0.2-0.3l-0.3,0.2
					c0,0,0.1,0.1,0.1,0.1c0,0-0.1,0-0.1,0L90.8,77.3z"/>
			</g>
			<g>
				<radialGradient id="SVGID_15_" cx="93.3998" cy="73.5083" r="13.0599" gradientUnits="userSpaceOnUse">
					<stop  offset="0" style="stop-color:#D4EFFC"/>
					<stop  offset="1" style="stop-color:#6FBCE9"/>
				</radialGradient>
				<path class="st15" d="M89.8,75.7l0.3-0.2c0.1,0.2,0.3,0.4,0.4,0.6l-0.3,0.2C90.1,76.1,90,75.9,89.8,75.7z M89,74.4l0.3-0.2
					c0.1,0.2,0.3,0.4,0.4,0.6l-0.3,0.2C89.3,74.9,89.1,74.7,89,74.4z M88.3,73.2l0.4-0.2c0.1,0.2,0.2,0.4,0.3,0.6l-0.3,0.2
					C88.5,73.6,88.4,73.4,88.3,73.2z M87.7,71.8l0.4-0.1c0.1,0.2,0.2,0.4,0.3,0.7L88,72.5C87.9,72.3,87.8,72,87.7,71.8z"/>
			</g>
			<g>
				<radialGradient id="SVGID_16_" cx="93.3998" cy="73.5085" r="13.0602" gradientUnits="userSpaceOnUse">
					<stop  offset="0" style="stop-color:#D4EFFC"/>
					<stop  offset="1" style="stop-color:#6FBCE9"/>
				</radialGradient>
				<polygon class="st16" points="87.4,71.1 87.8,71 87.7,70.7 87.9,70.5 87.5,70.2 87.3,70.7 				"/>
			</g>
			<g>
				<radialGradient id="SVGID_17_" cx="93.3999" cy="73.507" r="13.0586" gradientUnits="userSpaceOnUse">
					<stop  offset="0" style="stop-color:#D4EFFC"/>
					<stop  offset="1" style="stop-color:#6FBCE9"/>
				</radialGradient>
				<path class="st17" d="M87.9,69.6c0.1-0.2,0.2-0.4,0.3-0.6l0.3,0.2c-0.1,0.3-0.3,0.5-0.3,0.6L87.9,69.6z M88.6,68.4
					c0.1-0.2,0.2-0.4,0.3-0.6l0.4,0.2c-0.1,0.2-0.2,0.4-0.3,0.6L88.6,68.4z M89.2,67.1c0.1-0.2,0.2-0.4,0.3-0.6l0.4,0.2
					c-0.1,0.2-0.2,0.4-0.3,0.6L89.2,67.1z M89.8,65.8c0.1-0.2,0.2-0.4,0.3-0.7l0.4,0.2c-0.1,0.2-0.2,0.4-0.3,0.7L89.8,65.8z"/>
			</g>
			<g>
				<radialGradient id="SVGID_18_" cx="93.3997" cy="73.4997" r="13.049" gradientUnits="userSpaceOnUse">
					<stop  offset="0" style="stop-color:#D4EFFC"/>
					<stop  offset="1" style="stop-color:#6FBCE9"/>
				</radialGradient>
				<path class="st18" d="M90.8,64.6l0.3-0.7L90.7,64c-0.1,0-0.3,0.1-0.4,0.1l0.1,0.4l0,0l0,0c0,0,0,0,0,0L90.8,64.6z"/>
			</g>
			<g>
				<radialGradient id="SVGID_19_" cx="93.3996" cy="73.5034" r="13.0507" gradientUnits="userSpaceOnUse">
					<stop  offset="0" style="stop-color:#D4EFFC"/>
					<stop  offset="1" style="stop-color:#6FBCE9"/>
				</radialGradient>
				<path class="st19" d="M84.2,65l0-0.4c0.2,0,0.5,0,0.8,0l0,0.4C84.7,65.1,84.5,65,84.2,65z M85.8,64.7c0.3,0,0.5,0,0.8,0l0,0.4
					c-0.3,0-0.5,0-0.8,0L85.8,64.7z M82.7,64.9l0.1-0.4c0.2,0,0.5,0.1,0.8,0.1l0,0.4C83.2,64.9,82.9,64.9,82.7,64.9z M87.3,64.6
					c0.3,0,0.5-0.1,0.8-0.1l0,0.4c-0.3,0-0.5,0.1-0.8,0.1L87.3,64.6z M88.8,64.4c0.3,0,0.5-0.1,0.8-0.1l0.1,0.4
					c-0.2,0-0.5,0.1-0.8,0.1L88.8,64.4z"/>
			</g>
			<g>
				<radialGradient id="SVGID_20_" cx="93.3994" cy="73.5075" r="13.0595" gradientUnits="userSpaceOnUse">
					<stop  offset="0" style="stop-color:#D4EFFC"/>
					<stop  offset="1" style="stop-color:#6FBCE9"/>
				</radialGradient>
				<path class="st20" d="M81.3,64.8h0.4v-0.1c0,0,0.1,0,0.1,0l0.1-0.4c-0.1,0-0.3-0.1-0.4-0.1l-0.3-0.1V64.8z"/>
			</g>
			<g>
				<radialGradient id="SVGID_21_" cx="93.3995" cy="73.5083" r="13.0595" gradientUnits="userSpaceOnUse">
					<stop  offset="0" style="stop-color:#D4EFFC"/>
					<stop  offset="1" style="stop-color:#6FBCE9"/>
				</radialGradient>
				<path class="st21" d="M81.3,75.4h0.4v0.8h-0.4V75.4z M81.3,73.7h0.4v0.8h-0.4V73.7z M81.3,72.1h0.4v0.8h-0.4V72.1z M81.3,70.5
					h0.4v0.8h-0.4V70.5z M81.3,68.9h0.4v0.8h-0.4V68.9z M81.3,67.2h0.4v0.8h-0.4V67.2z M81.3,65.6h0.4v0.8h-0.4V65.6z"/>
			</g>
			<g>
				<radialGradient id="SVGID_22_" cx="93.3992" cy="73.5091" r="13.0586" gradientUnits="userSpaceOnUse">
					<stop  offset="0" style="stop-color:#D4EFFC"/>
					<stop  offset="1" style="stop-color:#6FBCE9"/>
				</radialGradient>
				<path class="st22" d="M81.9,77.6l0.1-0.4c-0.1,0-0.2,0-0.2,0V77h-0.4v0.6l0.2,0C81.6,77.6,81.8,77.6,81.9,77.6z"/>
			</g>
			<g>
				<radialGradient id="SVGID_23_" cx="93.3996" cy="73.5076" r="13.0596" gradientUnits="userSpaceOnUse">
					<stop  offset="0" style="stop-color:#D4EFFC"/>
					<stop  offset="1" style="stop-color:#6FBCE9"/>
				</radialGradient>
				<path class="st23" d="M86,78l0-0.4l0.2,0c0.2,0,0.4,0,0.6,0l0,0.4c-0.2,0-0.4,0-0.6,0L86,78z M84.3,77.9l0-0.4
					c0.3,0,0.5,0,0.8,0.1l0,0.4C84.9,78,84.6,77.9,84.3,77.9z M87.6,77.6c0.3,0,0.5,0,0.8-0.1l0,0.4c-0.3,0-0.5,0.1-0.8,0.1
					L87.6,77.6z M82.7,77.8l0.1-0.4c0.2,0,0.5,0.1,0.8,0.1l0,0.4C83.2,77.8,83,77.8,82.7,77.8z M89.1,77.4c0.3,0,0.5-0.1,0.8-0.2
					l0.1,0.4c-0.3,0.1-0.5,0.1-0.8,0.2L89.1,77.4z"/>
			</g>
		</g>
	</g>
	<path class="st24" d="M47.8,96.8c-0.3,0-0.7,0-1.1-0.1c-2-0.2-3.6-0.9-5-2.2c-0.3-0.2-0.6-0.5-1.1-0.7c-0.3-0.1-0.5-0.1-0.8-0.2
		c-0.2,0-0.3,0-0.5,0c-0.3,0-0.6,0-0.8,0.1c-0.6,0.1-1.2,0.2-1.7,0.2c-1.3,0-2.5-0.3-3.7-0.9c-1.8-0.8-3.1-2.1-4-3.8
		c-0.2-0.3-0.4-0.7-0.8-1.1c-0.2-0.1-0.4-0.3-0.6-0.4c-0.5-0.2-0.9-0.3-1.3-0.4c-1.9-0.3-3.5-1.1-4.9-2.6c-1.4-1.4-2.2-3-2.4-4.9
		c0-0.4-0.2-0.8-0.4-1.2c-0.2-0.2-0.3-0.5-0.5-0.7c-0.4-0.3-0.7-0.6-1-0.8c-1.7-0.9-2.9-2.2-3.7-4.1c-0.8-1.8-1.1-3.6-0.6-5.5
		c0.1-0.4,0.1-0.8,0.1-1.3c0-0.1-0.2-0.6-0.2-0.7c-0.2-0.5-0.5-0.8-0.7-1.1c-1.3-1.4-2-3.1-2.1-5.1c-0.2-2,0.2-3.7,1.3-5.3
		c0.2-0.3,0.4-0.7,0.5-1.2c0-0.3,0-0.5,0.1-0.8c0-0.5-0.1-0.9-0.3-1.2c-0.7-1.8-0.8-3.6-0.2-5.5c0.5-1.9,1.5-3.4,3-4.6
		c0.3-0.2,0.6-0.5,0.9-1c0.1-0.2,0.2-0.4,0.3-0.7c0.1-0.5,0.2-0.9,0.2-1.3c-0.1-1.9,0.5-3.6,1.7-5.3c1.1-1.6,2.6-2.7,4.4-3.3
		c0.3-0.1,0.7-0.3,1.2-0.6c0.2-0.2,0.4-0.4,0.6-0.6c0.3-0.4,0.5-0.8,0.6-1.1c0.6-1.8,1.7-3.3,3.4-4.4c1.5-1,3-1.6,4.8-1.6
		c0.2,0,0.3,0,0.5,0c0.1,0,0.1,0,0.2,0c0.3,0,0.7,0,1.1-0.1c0.2-0.1,0.5-0.2,0.7-0.3c0.4-0.3,0.7-0.6,1-0.9c1.2-1.5,2.7-2.5,4.7-3
		c0.8-0.2,1.5-0.3,2.3-0.3c1.1,0,2.2,0.2,3.2,0.7c0.3,0.1,0.8,0.2,1.3,0.3c0.3,0,0.5,0,0.8-0.1c0.5-0.1,0.9-0.3,1.2-0.5
		c1.3-0.8,2.8-1.3,4.3-1.3c0.3,0,0.7,0,1.1,0.1c2,0.2,3.6,0.9,5,2.2c0.3,0.3,0.6,0.5,1.1,0.7c0.3,0.1,0.5,0.1,0.8,0.2
		c0.2,0,0.3,0,0.5,0c0.3,0,0.6,0,0.8-0.1c0.6-0.1,1.2-0.2,1.7-0.2c1.3,0,2.5,0.3,3.7,0.9c1.8,0.8,3.1,2.1,4,3.8
		c0.2,0.3,0.4,0.7,0.8,1.1c0.2,0.1,0.4,0.3,0.6,0.4c0.5,0.2,0.9,0.3,1.3,0.4c1.9,0.3,3.5,1.1,4.9,2.6c1.4,1.4,2.2,3,2.4,4.9
		c0,0.4,0.2,0.8,0.4,1.2c0.2,0.2,0.3,0.4,0.5,0.7c0.3,0.3,0.7,0.6,1,0.8c1.7,0.9,2.9,2.2,3.7,4.1c0.8,1.8,1.1,3.6,0.6,5.5
		c-0.1,0.4-0.1,0.8-0.1,1.3c0,0.1,0.2,0.6,0.2,0.7c0.2,0.5,0.5,0.8,0.7,1.1c1.3,1.4,2,3.1,2.1,5.1c0.2,2-0.2,3.7-1.3,5.3
		c-0.2,0.3-0.4,0.7-0.5,1.2c0,0.3,0,0.5-0.1,0.8c0.1,0.5,0.1,0.9,0.3,1.2c0.7,1.8,0.8,3.6,0.2,5.5c-0.5,1.9-1.5,3.4-3,4.6
		c-0.3,0.2-0.6,0.5-0.9,1c-0.1,0.2-0.2,0.4-0.3,0.7c-0.1,0.5-0.2,0.9-0.2,1.3c0.1,1.9-0.5,3.7-1.7,5.3c-1.1,1.6-2.6,2.7-4.4,3.3
		c-0.3,0.1-0.7,0.3-1.2,0.6c-0.2,0.2-0.4,0.4-0.6,0.6c-0.3,0.4-0.5,0.8-0.6,1.1c-0.6,1.8-1.7,3.3-3.4,4.4c-1.5,1-3,1.6-4.8,1.6l0,0
		c-0.2,0-0.3,0-0.5,0c-0.1,0-0.1,0-0.2,0c-0.3,0-0.7,0.1-1.1,0.1c-0.2,0.1-0.5,0.2-0.7,0.3c-0.4,0.3-0.7,0.6-1,0.9
		c-1.2,1.5-2.7,2.5-4.7,3C60,95.9,59.3,96,58.5,96c-1.1,0-2.1-0.2-3.2-0.7c-0.3-0.1-0.8-0.2-1.3-0.3c-0.3,0-0.5,0-0.8,0.1
		c-0.5,0.1-0.9,0.3-1.2,0.5C50.8,96.4,49.3,96.8,47.8,96.8z"/>
	<path class="st25" d="M41.7,22.8c-18.5,4.8-29.6,23.6-24.8,42.1C21.7,83.4,40.5,94.5,59,89.7C77.5,85,88.7,66.1,83.9,47.6
		C79.1,29.1,60.2,18,41.7,22.8z M58.9,89.2C40.7,93.9,22.1,83,17.4,64.8C12.7,46.6,23.7,28,41.9,23.3c18.2-4.7,36.8,6.2,41.5,24.4
		C88,65.9,77.1,84.5,58.9,89.2z"/>
	<defs>
		<filter id="Adobe_OpacityMaskFilter" filterUnits="userSpaceOnUse" x="25.2" y="21.9" width="60.1" height="67.8">
			<feFlood  style="flood-color:white;flood-opacity:1" result="back"/>
			<feBlend  in="SourceGraphic" in2="back" mode="normal"/>
		</filter>
	</defs>
	<mask maskUnits="userSpaceOnUse" x="25.2" y="21.9" width="60.1" height="67.8" id="SVGID_24_">
		<g class="st26">
			<defs>
				<filter id="Adobe_OpacityMaskFilter_1_" filterUnits="userSpaceOnUse" x="25.2" y="21.9" width="60.1" height="67.8">
					<feFlood  style="flood-color:white;flood-opacity:1" result="back"/>
					<feBlend  in="SourceGraphic" in2="back" mode="normal"/>
				</filter>
			</defs>
			<mask maskUnits="userSpaceOnUse" x="25.2" y="21.9" width="60.1" height="67.8" id="SVGID_24_">
				<g class="st27">
				</g>
			</mask>
			
				<linearGradient id="SVGID_25_" gradientUnits="userSpaceOnUse" x1="77.692" y1="15.6177" x2="115.6139" y2="87.4071" gradientTransform="matrix(-0.1344 1.1462 -1.1893 -0.1394 126.104 -47.6304)">
				<stop  offset="0" style="stop-color:#FFFFFF"/>
				<stop  offset="5.383337e-02" style="stop-color:#E0E0E0"/>
				<stop  offset="0.1552" style="stop-color:#ACACAC"/>
				<stop  offset="0.2611" style="stop-color:#7E7E7E"/>
				<stop  offset="0.3694" style="stop-color:#575757"/>
				<stop  offset="0.4805" style="stop-color:#383838"/>
				<stop  offset="0.5954" style="stop-color:#1F1F1F"/>
				<stop  offset="0.7159" style="stop-color:#0E0E0E"/>
				<stop  offset="0.8453" style="stop-color:#030303"/>
				<stop  offset="1" style="stop-color:#000000"/>
			</linearGradient>
			<path class="st28" d="M37.4,33.1c18.7,2.2,32.1,19.3,29.9,38.1c-0.8,7.1-3.7,13.4-8.1,18.4c13.4-3.4,24-14.8,25.7-29.4
				c2.2-18.9-11.2-35.9-29.9-38.1c-11.7-1.4-22.7,3.4-29.9,11.7C29.1,32.9,33.2,32.6,37.4,33.1z"/>
		</g>
	</mask>
	
		<linearGradient id="SVGID_26_" gradientUnits="userSpaceOnUse" x1="77.692" y1="15.6177" x2="115.6139" y2="87.4071" gradientTransform="matrix(-0.1344 1.1462 -1.1893 -0.1394 126.104 -47.6304)">
		<stop  offset="0" style="stop-color:#F5F5F5"/>
		<stop  offset="7.761335e-02" style="stop-color:#F5F5F5"/>
		<stop  offset="1" style="stop-color:#F5F5F5"/>
	</linearGradient>
	<path class="st29" d="M37.4,33.1c18.7,2.2,32.1,19.3,29.9,38.1c-0.8,7.1-3.7,13.4-8.1,18.4c13.4-3.4,24-14.8,25.7-29.4
		c2.2-18.9-11.2-35.9-29.9-38.1c-11.7-1.4-22.7,3.4-29.9,11.7C29.1,32.9,33.2,32.6,37.4,33.1z"/>
	<g>
		<radialGradient id="SVGID_27_" cx="76.3425" cy="49.4729" r="53.2467" gradientUnits="userSpaceOnUse">
			<stop  offset="2.453990e-02" style="stop-color:#FFFFFF"/>
			<stop  offset="1" style="stop-color:#B4E4FA"/>
		</radialGradient>
		<polygon class="st30" points="50.4,25.7 48.7,23.9 47.4,23.9 49.1,25.8 		"/>
		<radialGradient id="SVGID_28_" cx="76.3408" cy="49.4727" r="53.2446" gradientUnits="userSpaceOnUse">
			<stop  offset="2.453990e-02" style="stop-color:#FFFFFF"/>
			<stop  offset="1" style="stop-color:#B4E4FA"/>
		</radialGradient>
		<polygon class="st31" points="47.8,25.9 45.9,24.1 44.6,24.3 46.5,26 		"/>
		<radialGradient id="SVGID_29_" cx="76.3407" cy="49.4728" r="53.2449" gradientUnits="userSpaceOnUse">
			<stop  offset="2.453990e-02" style="stop-color:#FFFFFF"/>
			<stop  offset="1" style="stop-color:#B4E4FA"/>
		</radialGradient>
		<polygon class="st32" points="45.1,26.2 43.1,24.6 41.8,24.9 43.9,26.5 		"/>
		<radialGradient id="SVGID_30_" cx="76.3468" cy="49.4734" r="53.2517" gradientUnits="userSpaceOnUse">
			<stop  offset="2.453990e-02" style="stop-color:#FFFFFF"/>
			<stop  offset="1" style="stop-color:#B4E4FA"/>
		</radialGradient>
		<polygon class="st33" points="42.5,26.8 40.4,25.4 39.1,25.8 41.3,27.2 		"/>
		<radialGradient id="SVGID_31_" cx="76.3422" cy="49.4733" r="53.2469" gradientUnits="userSpaceOnUse">
			<stop  offset="2.453990e-02" style="stop-color:#FFFFFF"/>
			<stop  offset="1" style="stop-color:#B4E4FA"/>
		</radialGradient>
		<polygon class="st34" points="40,27.6 37.7,26.4 36.5,26.9 38.8,28.1 		"/>
		<radialGradient id="SVGID_32_" cx="76.3399" cy="49.4729" r="53.2441" gradientUnits="userSpaceOnUse">
			<stop  offset="2.453990e-02" style="stop-color:#FFFFFF"/>
			<stop  offset="1" style="stop-color:#B4E4FA"/>
		</radialGradient>
		<polygon class="st35" points="37.5,28.6 35.2,27.6 34,28.2 36.4,29.2 		"/>
		<radialGradient id="SVGID_33_" cx="76.3407" cy="49.4728" r="53.2449" gradientUnits="userSpaceOnUse">
			<stop  offset="2.453990e-02" style="stop-color:#FFFFFF"/>
			<stop  offset="1" style="stop-color:#B4E4FA"/>
		</radialGradient>
		<polygon class="st36" points="35.2,29.8 32.7,29 31.6,29.7 34.1,30.5 		"/>
		<radialGradient id="SVGID_34_" cx="76.3425" cy="49.473" r="53.2472" gradientUnits="userSpaceOnUse">
			<stop  offset="2.453990e-02" style="stop-color:#FFFFFF"/>
			<stop  offset="1" style="stop-color:#B4E4FA"/>
		</radialGradient>
		<polygon class="st37" points="32.9,31.3 30.4,30.7 29.4,31.5 31.9,32 		"/>
		<radialGradient id="SVGID_35_" cx="76.3426" cy="49.4728" r="53.2468" gradientUnits="userSpaceOnUse">
			<stop  offset="2.453990e-02" style="stop-color:#FFFFFF"/>
			<stop  offset="1" style="stop-color:#B4E4FA"/>
		</radialGradient>
		<polygon class="st38" points="28.3,32.5 27.3,33.4 29.8,33.7 30.8,32.9 		"/>
		<radialGradient id="SVGID_36_" cx="76.3369" cy="49.473" r="53.2411" gradientUnits="userSpaceOnUse">
			<stop  offset="2.453990e-02" style="stop-color:#FFFFFF"/>
			<stop  offset="1" style="stop-color:#B4E4FA"/>
		</radialGradient>
		<polygon class="st39" points="26.3,34.5 25.4,35.5 28,35.6 28.8,34.7 		"/>
		<radialGradient id="SVGID_37_" cx="76.3427" cy="49.4731" r="53.2468" gradientUnits="userSpaceOnUse">
			<stop  offset="2.453990e-02" style="stop-color:#FFFFFF"/>
			<stop  offset="1" style="stop-color:#B4E4FA"/>
		</radialGradient>
		<polygon class="st40" points="24.5,36.7 23.7,37.8 26.2,37.7 27,36.6 		"/>
		<radialGradient id="SVGID_38_" cx="76.3463" cy="49.4725" r="53.2503" gradientUnits="userSpaceOnUse">
			<stop  offset="2.453990e-02" style="stop-color:#FFFFFF"/>
			<stop  offset="1" style="stop-color:#B4E4FA"/>
		</radialGradient>
		<polygon class="st41" points="22.9,39.1 22.2,40.2 24.7,39.8 25.4,38.7 		"/>
		<radialGradient id="SVGID_39_" cx="76.339" cy="49.4738" r="53.2434" gradientUnits="userSpaceOnUse">
			<stop  offset="2.453990e-02" style="stop-color:#FFFFFF"/>
			<stop  offset="1" style="stop-color:#B4E4FA"/>
		</radialGradient>
		<polygon class="st42" points="24,41 21.5,41.5 20.9,42.7 23.4,42.1 		"/>
		<radialGradient id="SVGID_40_" cx="76.3511" cy="49.4729" r="53.2551" gradientUnits="userSpaceOnUse">
			<stop  offset="2.453990e-02" style="stop-color:#FFFFFF"/>
			<stop  offset="1" style="stop-color:#B4E4FA"/>
		</radialGradient>
		<polygon class="st43" points="22.8,43.3 20.3,44.1 19.8,45.3 22.3,44.5 		"/>
		<radialGradient id="SVGID_41_" cx="76.3434" cy="49.4724" r="53.2478" gradientUnits="userSpaceOnUse">
			<stop  offset="2.453990e-02" style="stop-color:#FFFFFF"/>
			<stop  offset="1" style="stop-color:#B4E4FA"/>
		</radialGradient>
		<polygon class="st44" points="21.7,45.8 19.4,46.8 19,48 21.3,47 		"/>
		<radialGradient id="SVGID_42_" cx="76.347" cy="49.4731" r="53.251" gradientUnits="userSpaceOnUse">
			<stop  offset="2.453990e-02" style="stop-color:#FFFFFF"/>
			<stop  offset="1" style="stop-color:#B4E4FA"/>
		</radialGradient>
		<polygon class="st45" points="20.9,48.3 18.7,49.5 18.4,50.8 20.7,49.6 		"/>
		<radialGradient id="SVGID_43_" cx="76.3483" cy="49.4731" r="53.2524" gradientUnits="userSpaceOnUse">
			<stop  offset="2.453990e-02" style="stop-color:#FFFFFF"/>
			<stop  offset="1" style="stop-color:#B4E4FA"/>
		</radialGradient>
		<polygon class="st46" points="20.4,50.9 18.2,52.3 18,53.6 20.2,52.2 		"/>
		<radialGradient id="SVGID_44_" cx="76.3377" cy="49.473" r="53.2424" gradientUnits="userSpaceOnUse">
			<stop  offset="2.453990e-02" style="stop-color:#FFFFFF"/>
			<stop  offset="1" style="stop-color:#B4E4FA"/>
		</radialGradient>
		<polygon class="st47" points="20,53.6 18,55.1 17.9,56.4 19.9,54.9 		"/>
		<radialGradient id="SVGID_45_" cx="76.3557" cy="49.4729" r="53.2586" gradientUnits="userSpaceOnUse">
			<stop  offset="2.453990e-02" style="stop-color:#FFFFFF"/>
			<stop  offset="1" style="stop-color:#B4E4FA"/>
		</radialGradient>
		<polygon class="st48" points="19.9,56.2 18,58 18,59.3 19.9,57.5 		"/>
		<radialGradient id="SVGID_46_" cx="76.3567" cy="49.4736" r="53.2592" gradientUnits="userSpaceOnUse">
			<stop  offset="2.453990e-02" style="stop-color:#FFFFFF"/>
			<stop  offset="1" style="stop-color:#B4E4FA"/>
		</radialGradient>
		<polygon class="st49" points="20,58.9 18.3,60.8 18.4,62.1 20.2,60.2 		"/>
		<radialGradient id="SVGID_47_" cx="76.3422" cy="49.4733" r="53.2461" gradientUnits="userSpaceOnUse">
			<stop  offset="2.453990e-02" style="stop-color:#FFFFFF"/>
			<stop  offset="1" style="stop-color:#B4E4FA"/>
		</radialGradient>
		<polygon class="st50" points="20.3,61.5 18.8,63.6 19.1,64.8 20.6,62.8 		"/>
		<radialGradient id="SVGID_48_" cx="76.3492" cy="49.4719" r="53.2528" gradientUnits="userSpaceOnUse">
			<stop  offset="2.453990e-02" style="stop-color:#FFFFFF"/>
			<stop  offset="1" style="stop-color:#B4E4FA"/>
		</radialGradient>
		<polygon class="st51" points="20.9,64.1 19.5,66.3 19.9,67.5 21.3,65.4 		"/>
		<radialGradient id="SVGID_49_" cx="76.329" cy="49.4763" r="53.2342" gradientUnits="userSpaceOnUse">
			<stop  offset="2.453990e-02" style="stop-color:#FFFFFF"/>
			<stop  offset="1" style="stop-color:#B4E4FA"/>
		</radialGradient>
		<polygon class="st52" points="21.7,66.7 20.5,68.9 21,70.1 22.2,67.9 		"/>
		<radialGradient id="SVGID_50_" cx="76.3428" cy="49.4727" r="53.247" gradientUnits="userSpaceOnUse">
			<stop  offset="2.453990e-02" style="stop-color:#FFFFFF"/>
			<stop  offset="1" style="stop-color:#B4E4FA"/>
		</radialGradient>
		<polygon class="st53" points="22.7,69.1 21.7,71.5 22.3,72.6 23.3,70.3 		"/>
		<radialGradient id="SVGID_51_" cx="76.3436" cy="49.4685" r="53.2493" gradientUnits="userSpaceOnUse">
			<stop  offset="2.453990e-02" style="stop-color:#FFFFFF"/>
			<stop  offset="1" style="stop-color:#B4E4FA"/>
		</radialGradient>
		<polygon class="st54" points="23.2,73.9 23.9,75 24.7,72.6 24,71.5 		"/>
		<radialGradient id="SVGID_52_" cx="76.3509" cy="49.4763" r="53.2521" gradientUnits="userSpaceOnUse">
			<stop  offset="2.453990e-02" style="stop-color:#FFFFFF"/>
			<stop  offset="1" style="stop-color:#B4E4FA"/>
		</radialGradient>
		<polygon class="st55" points="24.8,76.2 25.6,77.3 26.2,74.8 25.4,73.7 		"/>
		<radialGradient id="SVGID_53_" cx="76.3436" cy="49.4763" r="53.2458" gradientUnits="userSpaceOnUse">
			<stop  offset="2.453990e-02" style="stop-color:#FFFFFF"/>
			<stop  offset="1" style="stop-color:#B4E4FA"/>
		</radialGradient>
		<polygon class="st56" points="26.7,78.4 27.5,79.3 27.9,76.8 27,75.8 		"/>
		<radialGradient id="SVGID_54_" cx="76.334" cy="49.4715" r="53.241" gradientUnits="userSpaceOnUse">
			<stop  offset="2.453990e-02" style="stop-color:#FFFFFF"/>
			<stop  offset="1" style="stop-color:#B4E4FA"/>
		</radialGradient>
		<polygon class="st57" points="28.7,80.4 29.6,81.2 29.8,78.7 28.8,77.8 		"/>
		<radialGradient id="SVGID_55_" cx="76.3438" cy="49.469" r="53.2502" gradientUnits="userSpaceOnUse">
			<stop  offset="2.453990e-02" style="stop-color:#FFFFFF"/>
			<stop  offset="1" style="stop-color:#B4E4FA"/>
		</radialGradient>
		<polygon class="st58" points="30.9,82.2 31.9,83 31.8,80.4 30.8,79.6 		"/>
		<radialGradient id="SVGID_56_" cx="76.3486" cy="49.4722" r="53.2518" gradientUnits="userSpaceOnUse">
			<stop  offset="2.453990e-02" style="stop-color:#FFFFFF"/>
			<stop  offset="1" style="stop-color:#B4E4FA"/>
		</radialGradient>
		<polygon class="st59" points="32.9,81.2 33.2,83.8 34.3,84.5 34,81.9 		"/>
		<radialGradient id="SVGID_57_" cx="76.3417" cy="49.4805" r="53.2409" gradientUnits="userSpaceOnUse">
			<stop  offset="2.453990e-02" style="stop-color:#FFFFFF"/>
			<stop  offset="1" style="stop-color:#B4E4FA"/>
		</radialGradient>
		<polygon class="st60" points="35.1,82.7 35.7,85.2 36.8,85.8 36.3,83.3 		"/>
		<radialGradient id="SVGID_58_" cx="76.3387" cy="49.4675" r="53.2483" gradientUnits="userSpaceOnUse">
			<stop  offset="2.453990e-02" style="stop-color:#FFFFFF"/>
			<stop  offset="1" style="stop-color:#B4E4FA"/>
		</radialGradient>
		<polygon class="st61" points="37.5,83.9 38.2,86.3 39.4,86.8 38.7,84.4 		"/>
		<radialGradient id="SVGID_59_" cx="76.3432" cy="49.473" r="53.2473" gradientUnits="userSpaceOnUse">
			<stop  offset="2.453990e-02" style="stop-color:#FFFFFF"/>
			<stop  offset="1" style="stop-color:#B4E4FA"/>
		</radialGradient>
		<polygon class="st62" points="39.9,84.9 40.9,87.3 42.1,87.7 41.2,85.3 		"/>
		<radialGradient id="SVGID_60_" cx="76.3396" cy="49.4699" r="53.248" gradientUnits="userSpaceOnUse">
			<stop  offset="2.453990e-02" style="stop-color:#FFFFFF"/>
			<stop  offset="1" style="stop-color:#B4E4FA"/>
		</radialGradient>
		<polygon class="st63" points="42.5,85.7 43.7,88 44.9,88.3 43.7,86 		"/>
		<radialGradient id="SVGID_61_" cx="76.3424" cy="49.4622" r="53.2567" gradientUnits="userSpaceOnUse">
			<stop  offset="2.453990e-02" style="stop-color:#FFFFFF"/>
			<stop  offset="1" style="stop-color:#B4E4FA"/>
		</radialGradient>
		<polygon class="st64" points="45.1,86.3 46.4,88.5 47.7,88.6 46.4,86.5 		"/>
		<radialGradient id="SVGID_62_" cx="76.3406" cy="49.4814" r="53.2376" gradientUnits="userSpaceOnUse">
			<stop  offset="2.453990e-02" style="stop-color:#FFFFFF"/>
			<stop  offset="1" style="stop-color:#B4E4FA"/>
		</radialGradient>
		<polygon class="st65" points="47.7,86.6 49.3,88.7 50.6,88.7 49,86.7 		"/>
		<radialGradient id="SVGID_63_" cx="76.3392" cy="49.4863" r="53.2311" gradientUnits="userSpaceOnUse">
			<stop  offset="2.453990e-02" style="stop-color:#FFFFFF"/>
			<stop  offset="1" style="stop-color:#B4E4FA"/>
		</radialGradient>
		<polygon class="st66" points="50.4,86.8 52.1,88.7 53.4,88.6 51.7,86.7 		"/>
		<radialGradient id="SVGID_64_" cx="76.3441" cy="49.4822" r="53.2373" gradientUnits="userSpaceOnUse">
			<stop  offset="2.453990e-02" style="stop-color:#FFFFFF"/>
			<stop  offset="1" style="stop-color:#B4E4FA"/>
		</radialGradient>
		<polygon class="st67" points="53,86.6 54.9,88.4 56.2,88.2 54.3,86.5 		"/>
		<radialGradient id="SVGID_65_" cx="76.3417" cy="49.469" r="53.251" gradientUnits="userSpaceOnUse">
			<stop  offset="2.453990e-02" style="stop-color:#FFFFFF"/>
			<stop  offset="1" style="stop-color:#B4E4FA"/>
		</radialGradient>
		<polygon class="st68" points="55.7,86.3 57.7,87.9 59,87.6 56.9,86 		"/>
		<radialGradient id="SVGID_66_" cx="76.3439" cy="49.4862" r="53.2307" gradientUnits="userSpaceOnUse">
			<stop  offset="2.453990e-02" style="stop-color:#FFFFFF"/>
			<stop  offset="1" style="stop-color:#B4E4FA"/>
		</radialGradient>
		<polygon class="st69" points="58.3,85.7 60.4,87.1 61.7,86.7 59.5,85.3 		"/>
		<radialGradient id="SVGID_67_" cx="76.3432" cy="49.4767" r="53.2419" gradientUnits="userSpaceOnUse">
			<stop  offset="2.453990e-02" style="stop-color:#FFFFFF"/>
			<stop  offset="1" style="stop-color:#B4E4FA"/>
		</radialGradient>
		<polygon class="st70" points="60.8,84.9 63.1,86.1 64.3,85.6 62,84.4 		"/>
		<radialGradient id="SVGID_68_" cx="76.343" cy="49.4687" r="53.2535" gradientUnits="userSpaceOnUse">
			<stop  offset="2.453990e-02" style="stop-color:#FFFFFF"/>
			<stop  offset="1" style="stop-color:#B4E4FA"/>
		</radialGradient>
		<polygon class="st71" points="63.3,83.9 65.6,84.9 66.8,84.3 64.4,83.3 		"/>
		<radialGradient id="SVGID_69_" cx="76.3432" cy="49.4732" r="53.2469" gradientUnits="userSpaceOnUse">
			<stop  offset="2.453990e-02" style="stop-color:#FFFFFF"/>
			<stop  offset="1" style="stop-color:#B4E4FA"/>
		</radialGradient>
		<polygon class="st72" points="65.6,82.7 68.1,83.5 69.2,82.8 66.7,82 		"/>
		<radialGradient id="SVGID_70_" cx="76.342" cy="49.4567" r="53.2735" gradientUnits="userSpaceOnUse">
			<stop  offset="2.453990e-02" style="stop-color:#FFFFFF"/>
			<stop  offset="1" style="stop-color:#B4E4FA"/>
		</radialGradient>
		<polygon class="st73" points="67.9,81.3 70.4,81.8 71.4,81 68.9,80.5 		"/>
		<radialGradient id="SVGID_71_" cx="76.3426" cy="49.4628" r="53.265" gradientUnits="userSpaceOnUse">
			<stop  offset="2.453990e-02" style="stop-color:#FFFFFF"/>
			<stop  offset="1" style="stop-color:#B4E4FA"/>
		</radialGradient>
		<polygon class="st74" points="70,79.6 72.5,80 73.5,79.1 70.9,78.8 		"/>
		<radialGradient id="SVGID_72_" cx="76.3431" cy="49.4674" r="53.2571" gradientUnits="userSpaceOnUse">
			<stop  offset="2.453990e-02" style="stop-color:#FFFFFF"/>
			<stop  offset="1" style="stop-color:#B4E4FA"/>
		</radialGradient>
		<polygon class="st75" points="72,77.8 74.5,78 75.4,77 72.8,76.9 		"/>
		<radialGradient id="SVGID_73_" cx="76.3429" cy="49.4589" r="53.276" gradientUnits="userSpaceOnUse">
			<stop  offset="2.453990e-02" style="stop-color:#FFFFFF"/>
			<stop  offset="1" style="stop-color:#B4E4FA"/>
		</radialGradient>
		<polygon class="st76" points="73.8,75.9 76.3,75.8 77.1,74.7 74.5,74.9 		"/>
		<radialGradient id="SVGID_74_" cx="76.3427" cy="49.4841" r="53.2221" gradientUnits="userSpaceOnUse">
			<stop  offset="2.453990e-02" style="stop-color:#FFFFFF"/>
			<stop  offset="1" style="stop-color:#B4E4FA"/>
		</radialGradient>
		<polygon class="st77" points="75.4,73.8 77.9,73.4 78.6,72.4 76.1,72.7 		"/>
		<radialGradient id="SVGID_75_" cx="76.3424" cy="49.4649" r="53.2668" gradientUnits="userSpaceOnUse">
			<stop  offset="2.453990e-02" style="stop-color:#FFFFFF"/>
			<stop  offset="1" style="stop-color:#B4E4FA"/>
		</radialGradient>
		<polygon class="st78" points="76.8,71.5 79.3,71 79.9,69.8 77.4,70.4 		"/>
		<radialGradient id="SVGID_76_" cx="76.3429" cy="49.4715" r="53.2512" gradientUnits="userSpaceOnUse">
			<stop  offset="2.453990e-02" style="stop-color:#FFFFFF"/>
			<stop  offset="1" style="stop-color:#B4E4FA"/>
		</radialGradient>
		<polygon class="st79" points="78,69.2 80.5,68.4 81,67.2 78.5,68 		"/>
		<radialGradient id="SVGID_77_" cx="76.3424" cy="49.4743" r="53.243" gradientUnits="userSpaceOnUse">
			<stop  offset="2.453990e-02" style="stop-color:#FFFFFF"/>
			<stop  offset="1" style="stop-color:#B4E4FA"/>
		</radialGradient>
		<polygon class="st80" points="79.1,66.7 81.4,65.7 81.8,64.5 79.4,65.5 		"/>
		<radialGradient id="SVGID_78_" cx="76.3431" cy="49.4717" r="53.2499" gradientUnits="userSpaceOnUse">
			<stop  offset="2.453990e-02" style="stop-color:#FFFFFF"/>
			<stop  offset="1" style="stop-color:#B4E4FA"/>
		</radialGradient>
		<polygon class="st81" points="79.9,64.2 82.1,63 82.4,61.7 80.1,62.9 		"/>
		<radialGradient id="SVGID_79_" cx="76.3428" cy="49.4737" r="53.2435" gradientUnits="userSpaceOnUse">
			<stop  offset="2.453990e-02" style="stop-color:#FFFFFF"/>
			<stop  offset="1" style="stop-color:#B4E4FA"/>
		</radialGradient>
		<polygon class="st82" points="80.4,61.6 82.6,60.2 82.8,58.9 80.6,60.3 		"/>
		<radialGradient id="SVGID_80_" cx="76.3428" cy="49.4728" r="53.249" gradientUnits="userSpaceOnUse">
			<stop  offset="2.453990e-02" style="stop-color:#FFFFFF"/>
			<stop  offset="1" style="stop-color:#B4E4FA"/>
		</radialGradient>
		<polygon class="st83" points="80.8,57.6 80.8,58.9 82.8,57.4 82.9,56.1 		"/>
		<radialGradient id="SVGID_81_" cx="76.3433" cy="49.4731" r="53.2448" gradientUnits="userSpaceOnUse">
			<stop  offset="2.453990e-02" style="stop-color:#FFFFFF"/>
			<stop  offset="1" style="stop-color:#B4E4FA"/>
		</radialGradient>
		<polygon class="st84" points="80.9,56.3 82.8,54.5 82.7,53.3 80.8,55 		"/>
		<radialGradient id="SVGID_82_" cx="76.3427" cy="49.4731" r="53.2451" gradientUnits="userSpaceOnUse">
			<stop  offset="2.453990e-02" style="stop-color:#FFFFFF"/>
			<stop  offset="1" style="stop-color:#B4E4FA"/>
		</radialGradient>
		<polygon class="st85" points="80.8,53.6 82.5,51.7 82.4,50.4 80.6,52.3 		"/>
		<radialGradient id="SVGID_83_" cx="76.3421" cy="49.4727" r="53.2518" gradientUnits="userSpaceOnUse">
			<stop  offset="2.453990e-02" style="stop-color:#FFFFFF"/>
			<stop  offset="1" style="stop-color:#B4E4FA"/>
		</radialGradient>
		<polygon class="st86" points="80.4,51 82,48.9 81.7,47.7 80.2,49.7 		"/>
		<radialGradient id="SVGID_84_" cx="76.3434" cy="49.4729" r="53.2399" gradientUnits="userSpaceOnUse">
			<stop  offset="2.453990e-02" style="stop-color:#FFFFFF"/>
			<stop  offset="1" style="stop-color:#B4E4FA"/>
		</radialGradient>
		<polygon class="st87" points="79.9,48.4 81.3,46.2 80.9,45 79.5,47.1 		"/>
		<radialGradient id="SVGID_85_" cx="76.342" cy="49.4723" r="53.2492" gradientUnits="userSpaceOnUse">
			<stop  offset="2.453990e-02" style="stop-color:#FFFFFF"/>
			<stop  offset="1" style="stop-color:#B4E4FA"/>
		</radialGradient>
		<polygon class="st88" points="79.1,45.8 80.3,43.6 79.8,42.4 78.6,44.6 		"/>
		<radialGradient id="SVGID_86_" cx="76.3426" cy="49.4736" r="53.2514" gradientUnits="userSpaceOnUse">
			<stop  offset="2.453990e-02" style="stop-color:#FFFFFF"/>
			<stop  offset="1" style="stop-color:#B4E4FA"/>
		</radialGradient>
		<polygon class="st89" points="78.1,43.4 79,41 78.4,39.9 77.5,42.2 		"/>
		<radialGradient id="SVGID_87_" cx="76.3427" cy="49.4728" r="53.2462" gradientUnits="userSpaceOnUse">
			<stop  offset="2.453990e-02" style="stop-color:#FFFFFF"/>
			<stop  offset="1" style="stop-color:#B4E4FA"/>
		</radialGradient>
		<polygon class="st90" points="77.6,38.6 76.9,37.5 76.1,39.9 76.8,41 		"/>
		<radialGradient id="SVGID_88_" cx="76.3425" cy="49.473" r="53.2472" gradientUnits="userSpaceOnUse">
			<stop  offset="2.453990e-02" style="stop-color:#FFFFFF"/>
			<stop  offset="1" style="stop-color:#B4E4FA"/>
		</radialGradient>
		<polygon class="st91" points="76,36.3 75.2,35.2 74.6,37.7 75.4,38.8 		"/>
		<radialGradient id="SVGID_89_" cx="76.3426" cy="49.4728" r="53.2467" gradientUnits="userSpaceOnUse">
			<stop  offset="2.453990e-02" style="stop-color:#FFFFFF"/>
			<stop  offset="1" style="stop-color:#B4E4FA"/>
		</radialGradient>
		<polygon class="st92" points="74.1,34.1 73.2,33.2 72.9,35.7 73.8,36.7 		"/>
		<radialGradient id="SVGID_90_" cx="76.3426" cy="49.4728" r="53.2466" gradientUnits="userSpaceOnUse">
			<stop  offset="2.453990e-02" style="stop-color:#FFFFFF"/>
			<stop  offset="1" style="stop-color:#B4E4FA"/>
		</radialGradient>
		<polygon class="st93" points="72.1,32.1 71.1,31.3 71,33.8 72,34.7 		"/>
		<radialGradient id="SVGID_91_" cx="76.3413" cy="49.4728" r="53.2455" gradientUnits="userSpaceOnUse">
			<stop  offset="2.453990e-02" style="stop-color:#FFFFFF"/>
			<stop  offset="1" style="stop-color:#B4E4FA"/>
		</radialGradient>
		<polygon class="st94" points="69.9,30.3 68.9,29.5 69,32.1 70,32.9 		"/>
		<radialGradient id="SVGID_92_" cx="76.3411" cy="49.4732" r="53.2459" gradientUnits="userSpaceOnUse">
			<stop  offset="2.453990e-02" style="stop-color:#FFFFFF"/>
			<stop  offset="1" style="stop-color:#B4E4FA"/>
		</radialGradient>
		<polygon class="st95" points="67.9,31.3 67.6,28.7 66.5,28 66.8,30.6 		"/>
		<radialGradient id="SVGID_93_" cx="76.3398" cy="49.473" r="53.2441" gradientUnits="userSpaceOnUse">
			<stop  offset="2.453990e-02" style="stop-color:#FFFFFF"/>
			<stop  offset="1" style="stop-color:#B4E4FA"/>
		</radialGradient>
		<polygon class="st96" points="65.7,29.8 65.1,27.3 64,26.7 64.5,29.2 		"/>
		<radialGradient id="SVGID_94_" cx="76.3457" cy="49.4729" r="53.2501" gradientUnits="userSpaceOnUse">
			<stop  offset="2.453990e-02" style="stop-color:#FFFFFF"/>
			<stop  offset="1" style="stop-color:#B4E4FA"/>
		</radialGradient>
		<polygon class="st97" points="63.3,28.6 62.5,26.2 61.3,25.7 62.1,28.1 		"/>
		<radialGradient id="SVGID_95_" cx="76.3411" cy="49.473" r="53.2455" gradientUnits="userSpaceOnUse">
			<stop  offset="2.453990e-02" style="stop-color:#FFFFFF"/>
			<stop  offset="1" style="stop-color:#B4E4FA"/>
		</radialGradient>
		<polygon class="st98" points="60.8,27.6 59.9,25.2 58.6,24.8 59.6,27.2 		"/>
		<radialGradient id="SVGID_96_" cx="76.3445" cy="49.4733" r="53.2492" gradientUnits="userSpaceOnUse">
			<stop  offset="2.453990e-02" style="stop-color:#FFFFFF"/>
			<stop  offset="1" style="stop-color:#B4E4FA"/>
		</radialGradient>
		<polygon class="st99" points="58.3,26.8 57.1,24.5 55.9,24.2 57,26.5 		"/>
		<radialGradient id="SVGID_97_" cx="76.3428" cy="49.4731" r="53.247" gradientUnits="userSpaceOnUse">
			<stop  offset="2.453990e-02" style="stop-color:#FFFFFF"/>
			<stop  offset="1" style="stop-color:#B4E4FA"/>
		</radialGradient>
		<polygon class="st100" points="55.7,26.2 54.3,24 53.1,23.9 54.4,26 		"/>
		<radialGradient id="SVGID_98_" cx="76.3448" cy="49.473" r="53.2492" gradientUnits="userSpaceOnUse">
			<stop  offset="2.453990e-02" style="stop-color:#FFFFFF"/>
			<stop  offset="1" style="stop-color:#B4E4FA"/>
		</radialGradient>
		<polygon class="st101" points="53.1,25.9 51.5,23.8 50.2,23.8 51.8,25.8 		"/>
	</g>
	<g>
		<g>
			<g>
				<radialGradient id="SVGID_99_" cx="50.3749" cy="34.3765" r="1.578" gradientUnits="userSpaceOnUse">
					<stop  offset="2.453990e-02" style="stop-color:#FFFFFF"/>
					<stop  offset="1" style="stop-color:#B4E4FA"/>
				</radialGradient>
				<path class="st102" d="M50.4,32.8l0.4,1.2l1.2,0l-1,0.7l0.4,1.2l-1-0.7l-1,0.7l0.4-1.2l-1-0.7l1.2,0L50.4,32.8z"/>
			</g>
			<g>
				<radialGradient id="SVGID_100_" cx="45.1136" cy="35.1817" r="1.5778" gradientUnits="userSpaceOnUse">
					<stop  offset="2.453990e-02" style="stop-color:#FFFFFF"/>
					<stop  offset="1" style="stop-color:#B4E4FA"/>
				</radialGradient>
				<path class="st103" d="M45.1,33.6l0.4,1.2l1.2,0l-1,0.7l0.4,1.2l-1-0.7l-1,0.7l0.4-1.2l-1-0.7l1.2,0L45.1,33.6z"/>
			</g>
			<g>
				<radialGradient id="SVGID_101_" cx="55.6804" cy="35.1817" r="1.5778" gradientUnits="userSpaceOnUse">
					<stop  offset="2.453990e-02" style="stop-color:#FFFFFF"/>
					<stop  offset="1" style="stop-color:#B4E4FA"/>
				</radialGradient>
				<path class="st104" d="M55.7,33.6l0.4,1.2l1.2,0l-1,0.7l0.4,1.2l-1-0.7l-1,0.7l0.4-1.2l-1-0.7l1.2,0L55.7,33.6z"/>
			</g>
		</g>
		
			<radialGradient id="SVGID_102_" cx="-106.1388" cy="-192.5804" r="3.026" gradientTransform="matrix(0.729 0 0 0.5 116.7961 131.625)" gradientUnits="userSpaceOnUse">
			<stop  offset="2.453990e-02" style="stop-color:#FFFFFF"/>
			<stop  offset="1" style="stop-color:#B4E4FA"/>
		</radialGradient>
		<rect x="36.3" y="35.3" class="st105" width="6.2" height="0.1"/>
		
			<radialGradient id="SVGID_103_" cx="-272.1466" cy="-191.4095" r="3.0258" gradientTransform="matrix(0.5571 0 0 0.5 191.7693 131.625)" gradientUnits="userSpaceOnUse">
			<stop  offset="2.453990e-02" style="stop-color:#FFFFFF"/>
			<stop  offset="1" style="stop-color:#B4E4FA"/>
		</radialGradient>
		<rect x="37.8" y="35.9" class="st106" width="4.8" height="0.1"/>
		
			<radialGradient id="SVGID_104_" cx="1111.454" cy="-192.5804" r="3.026" gradientTransform="matrix(-0.729 0 0 0.5 871.711 131.625)" gradientUnits="userSpaceOnUse">
			<stop  offset="2.453990e-02" style="stop-color:#FFFFFF"/>
			<stop  offset="1" style="stop-color:#B4E4FA"/>
		</radialGradient>
		<rect x="58.3" y="35.3" class="st107" width="6.2" height="0.1"/>
		
			<radialGradient id="SVGID_105_" cx="1321.1509" cy="-191.4095" r="3.0258" gradientTransform="matrix(-0.5571 0 0 0.5 796.7387 131.625)" gradientUnits="userSpaceOnUse">
			<stop  offset="2.453990e-02" style="stop-color:#FFFFFF"/>
			<stop  offset="1" style="stop-color:#B4E4FA"/>
		</radialGradient>
		<rect x="58.3" y="35.9" class="st108" width="4.8" height="0.1"/>
	</g>
	<g>
		<path class="st25" d="M32.4,52.4c-1.6,1.2-2.8,1.7-3.6,1.8H36l0-1.9C34.8,50.7,32.4,52.4,32.4,52.4L32.4,52.4z"/>
		<path class="st25" d="M25.7,52.7l-1.5,1.5h3.5C26.8,54,25.9,53.4,25.7,52.7L25.7,52.7z"/>
		<path class="st25" d="M26.2,52.2c0.8,0.8,2.6,0.8,5.8-1.5c0,0,3.1-2.2,4,0.8l0-9.1L26.2,52.2L26.2,52.2z"/>
		<polygon class="st25" points="37.3,53.2 36.9,53.2 36.9,53.1 37.8,53.1 37.8,53.2 37.4,53.2 37.4,54.2 37.3,54.2 37.3,53.2 		"/>
		<polygon class="st25" points="37.9,53.1 38.1,53.1 38.5,54 38.9,53.1 39,53.1 39,54.2 38.9,54.2 38.9,53.2 38.9,53.2 38.5,54.2 
			38.5,54.2 38,53.2 38,53.2 38,54.2 37.9,54.2 37.9,53.1 		"/>
		<path class="st25" d="M43.8,47.6c-0.4-0.4-0.8-0.5-1.2-0.5c-1.1,0-1.9,0.9-1.9,2c0,1.2,0.8,2.1,1.9,2.1c0.4,0,0.9-0.2,1.2-0.7
			l0.8,0.6c-0.5,0.7-1.2,1-2.1,1c-1.7,0-2.9-1.2-2.9-2.9c0-1.8,1.2-2.9,2.9-2.9c0.7,0,1.4,0.2,1.9,0.9L43.8,47.6L43.8,47.6z"/>
		<path class="st25" d="M48.5,49.8l-0.8-2.2l-0.9,2.2H48.5L48.5,49.8z M47.2,46.3h0.8l2.4,5.5h-1.1l-0.5-1.3h-2.4l-0.5,1.3h-1.1
			L47.2,46.3L47.2,46.3z"/>
		<polygon class="st25" points="51.1,46.3 52.1,46.3 52.1,51 54.5,51 54.5,51.9 51.1,51.9 51.1,46.3 		"/>
		<polygon class="st25" points="56.6,49.5 54.5,46.3 55.8,46.3 57.1,48.5 58.5,46.3 59.7,46.3 57.6,49.5 57.6,51.9 56.6,51.9 
			56.6,49.5 		"/>
		<path class="st25" d="M61.8,48.7c0.6,0,1.3,0,1.3-0.8c0-0.7-0.6-0.8-1.2-0.8h-0.7v1.6H61.8L61.8,48.7z M60.2,46.3h1.9
			c1.1,0,2,0.4,2,1.6c0,1.4-1,1.6-2.2,1.6h-0.7v2.3h-1V46.3L60.2,46.3z"/>
		<path class="st25" d="M67.8,47.5c-0.2-0.3-0.6-0.4-1-0.4c-0.5,0-0.9,0.2-0.9,0.7c0,1.1,2.6,0.5,2.6,2.4c0,1.2-0.9,1.8-2,1.8
			c-0.7,0-1.4-0.2-1.8-0.7l0.7-0.7c0.2,0.4,0.7,0.6,1.1,0.6c0.5,0,1-0.2,1-0.8c0-1.2-2.6-0.5-2.6-2.5c0-1.1,1-1.7,2-1.7
			c0.6,0,1.2,0.2,1.6,0.6L67.8,47.5L67.8,47.5z"/>
		<path class="st25" d="M72.3,51.1c1.1,0,1.9-0.9,1.9-2.1c0-1.1-0.8-2-1.9-2c-1.1,0-1.9,0.9-1.9,2C70.4,50.2,71.1,51.1,72.3,51.1
			L72.3,51.1z M72.3,46.2c1.7,0,2.9,1.1,2.9,2.9c0,1.7-1.2,2.9-2.9,2.9c-1.7,0-2.9-1.2-2.9-2.9C69.3,47.4,70.6,46.2,72.3,46.2
			L72.3,46.2z"/>
		<path class="st25" d="M75.7,46.7V47c0,0,0,0,0.1,0c0.1,0,0.1,0,0.2,0c0,0,0-0.1,0-0.1C76,46.8,75.9,46.7,75.7,46.7L75.7,46.7
			L75.7,46.7L75.7,46.7z M76,47.4l-0.2-0.4h-0.1v0.4h-0.1v-0.8h0.2c0.2,0,0.3,0.1,0.3,0.2c0,0.1-0.1,0.2-0.2,0.2l0.2,0.4H76L76,47.4
			z M76.4,47c0-0.2-0.1-0.3-0.2-0.4c-0.1-0.1-0.2-0.2-0.4-0.2c-0.2,0-0.3,0.1-0.4,0.2c-0.1,0.1-0.2,0.2-0.2,0.4
			c0,0.2,0.1,0.3,0.2,0.4c0.1,0.1,0.2,0.2,0.4,0.2c0.2,0,0.3-0.1,0.4-0.2C76.3,47.3,76.4,47.2,76.4,47L76.4,47z M75.1,47
			c0-0.2,0.1-0.4,0.2-0.5c0.1-0.1,0.3-0.2,0.5-0.2c0.2,0,0.4,0.1,0.5,0.2c0.1,0.1,0.2,0.3,0.2,0.5c0,0.2-0.1,0.4-0.2,0.5
			c-0.1,0.1-0.3,0.2-0.5,0.2c-0.2,0-0.4-0.1-0.5-0.2C75.2,47.4,75.1,47.2,75.1,47L75.1,47z"/>
	</g>
	<g>
		<path class="st25" d="M39.1,59.9c0.5,0,0.9,0.2,1.2,0.5l-0.4,0.4c-0.2-0.2-0.4-0.3-0.7-0.3c-0.7,0-1.1,0.6-1.1,1.5
			c0,0.9,0.4,1.5,1.1,1.5c0.4,0,0.6-0.1,0.9-0.4l0.4,0.4c-0.3,0.4-0.8,0.6-1.3,0.6c-1,0-1.8-0.7-1.8-2.1
			C37.3,60.7,38.1,59.9,39.1,59.9z"/>
		<path class="st25" d="M41.1,60h2.4v0.6h-1.7v1h1.5v0.6h-1.5v1.2h1.8v0.6h-2.5V60z"/>
		<path class="st25" d="M46.6,64.1l-0.9-1.6h-0.6v1.6h-0.7V60h1.4c0.8,0,1.5,0.3,1.5,1.2c0,0.6-0.3,1-0.8,1.2l1,1.7H46.6z
			 M45.1,61.9h0.6c0.6,0,0.9-0.2,0.9-0.7c0-0.5-0.3-0.6-0.9-0.6h-0.6V61.9z"/>
		<path class="st25" d="M48.8,60.6h-1.2V60h3.1v0.6h-1.2v3.5h-0.7V60.6z"/>
		<path class="st25" d="M51.4,60h0.7v4.1h-0.7V60z"/>
		<path class="st25" d="M53.1,60h2.5v0.6h-1.7v1.1h1.5v0.6h-1.5v1.7h-0.7V60z"/>
		<path class="st25" d="M56.3,60H57v4.1h-0.7V60z"/>
		<path class="st25" d="M58.1,60h2.4v0.6h-1.7v1h1.5v0.6h-1.5v1.2h1.8v0.6h-2.5V60z"/>
		<path class="st25" d="M61.4,60h1.1c1.2,0,2,0.7,2,2c0,1.3-0.7,2-1.9,2h-1.1V60z M62.4,63.5c0.8,0,1.3-0.5,1.3-1.5
			c0-1-0.5-1.4-1.3-1.4h-0.3v2.9H62.4z"/>
	</g>
	<g>
		
			<linearGradient id="SVGID_106_" gradientUnits="userSpaceOnUse" x1="14.595" y1="152.7699" x2="86.8799" y2="152.7699" gradientTransform="matrix(1 0 0 1.1999 0 -106.8255)">
			<stop  offset="0" style="stop-color:#0E4066"/>
			<stop  offset="1" style="stop-color:#00609D"/>
		</linearGradient>
		<path class="st109" d="M86.9,83.4c-23.9,4.2-48.4,4.2-72.3,0c0-5.7,0-11.3,0-17c23.9,4.2,48.4,4.2,72.3,0
			C86.9,72.1,86.9,77.8,86.9,83.4z"/>
		<g>
			<radialGradient id="SVGID_107_" cx="50.6577" cy="69.8537" r="23.8069" gradientUnits="userSpaceOnUse">
				<stop  offset="0" style="stop-color:#D4EFFC"/>
				<stop  offset="1" style="stop-color:#6FBCE9"/>
			</radialGradient>
			<path class="st110" d="M84.3,68.7c-0.4,0.1-0.8,0.1-1.2,0.2c0-0.1,0-0.2,0-0.3c0.4-0.1,0.8-0.1,1.2-0.2
				C84.3,68.5,84.3,68.6,84.3,68.7z M81.9,69c-0.4,0.1-0.8,0.1-1.2,0.2c0-0.1,0-0.2,0-0.3c0.4-0.1,0.8-0.1,1.2-0.2
				C81.9,68.8,81.9,68.9,81.9,69z M79.6,69.4c-0.4,0.1-0.8,0.1-1.2,0.2c0-0.1,0-0.2,0-0.3c0.4-0.1,0.8-0.1,1.2-0.2
				C79.6,69.2,79.6,69.3,79.6,69.4z M77.2,69.7c-0.4,0-0.8,0.1-1.2,0.1c0-0.1,0-0.2,0-0.3c0.4,0,0.8-0.1,1.2-0.1
				C77.2,69.5,77.2,69.6,77.2,69.7z M74.9,70c-0.4,0-0.8,0.1-1.2,0.1c0-0.1,0-0.2,0-0.3c0.4,0,0.8-0.1,1.2-0.1
				C74.9,69.8,74.9,69.9,74.9,70z M72.5,70.2c-0.4,0-0.8,0.1-1.2,0.1c0-0.1,0-0.2,0-0.3c0.4,0,0.8-0.1,1.2-0.1
				C72.5,70,72.5,70.1,72.5,70.2z M70.2,70.5c-0.4,0-0.8,0.1-1.2,0.1c0-0.1,0-0.2,0-0.3c0.4,0,0.8-0.1,1.2-0.1
				C70.2,70.3,70.2,70.4,70.2,70.5z M67.8,70.7c-0.4,0-0.8,0.1-1.2,0.1c0-0.1,0-0.2,0-0.3c0.4,0,0.8-0.1,1.2-0.1
				C67.8,70.5,67.8,70.6,67.8,70.7z M65.4,70.8c-0.4,0-0.8,0.1-1.2,0.1c0-0.1,0-0.2,0-0.3c0.4,0,0.8-0.1,1.2-0.1
				C65.4,70.6,65.4,70.7,65.4,70.8z M63.1,71c-0.4,0-0.8,0-1.2,0.1c0-0.1,0-0.2,0-0.3c0.4,0,0.8,0,1.2-0.1
				C63.1,70.8,63.1,70.9,63.1,71z M60.7,71.1c-0.4,0-0.8,0-1.2,0.1c0-0.1,0-0.2,0-0.3c0.4,0,0.8,0,1.2-0.1
				C60.7,70.9,60.7,71,60.7,71.1z M58.4,71.2c-0.4,0-0.8,0-1.2,0c0-0.1,0-0.2,0-0.3c0.4,0,0.8,0,1.2,0C58.4,71,58.4,71.1,58.4,71.2z
				 M56,71.3c-0.4,0-0.8,0-1.2,0c0-0.1,0-0.2,0-0.3c0.4,0,0.8,0,1.2,0C56,71.1,56,71.2,56,71.3z M53.6,71.3c-0.4,0-0.8,0-1.2,0
				c0-0.1,0-0.2,0-0.3c0.4,0,0.8,0,1.2,0C53.6,71.1,53.6,71.2,53.6,71.3z M51.2,71.4c-0.4,0-0.8,0-1.2,0c0-0.1,0-0.2,0-0.3
				c0.4,0,0.8,0,1.2,0C51.2,71.2,51.2,71.3,51.2,71.4z M48.9,71.4c-0.4,0-0.8,0-1.2,0c0-0.1,0-0.2,0-0.3c0.4,0,0.8,0,1.2,0
				C48.9,71.2,48.9,71.3,48.9,71.4z M46.5,71.3c-0.4,0-0.8,0-1.2,0c0-0.1,0-0.2,0-0.3c0.4,0,0.8,0,1.2,0
				C46.5,71.1,46.5,71.2,46.5,71.3z M44.1,71.3c-0.4,0-0.8,0-1.2,0c0-0.1,0-0.2,0-0.3c0.4,0,0.8,0,1.2,0
				C44.1,71.1,44.1,71.2,44.1,71.3z M41.8,71.2c-0.4,0-0.8,0-1.2-0.1c0-0.1,0-0.2,0-0.3c0.4,0,0.8,0,1.2,0.1
				C41.8,71,41.8,71.1,41.8,71.2z M39.4,71.1c-0.4,0-0.8,0-1.2-0.1c0-0.1,0-0.2,0-0.3c0.4,0,0.8,0,1.2,0.1
				C39.4,70.9,39.4,71,39.4,71.1z M37,70.9c-0.4,0-0.8-0.1-1.2-0.1c0-0.1,0-0.2,0-0.3c0.4,0,0.8,0.1,1.2,0.1
				C37,70.7,37,70.8,37,70.9z M34.7,70.7c-0.4,0-0.8-0.1-1.2-0.1c0-0.1,0-0.2,0-0.3c0.4,0,0.8,0.1,1.2,0.1
				C34.7,70.6,34.7,70.6,34.7,70.7z M32.3,70.6c-0.4,0-0.8-0.1-1.2-0.1c0-0.1,0-0.2,0-0.3c0.4,0,0.8,0.1,1.2,0.1
				C32.3,70.4,32.3,70.5,32.3,70.6z M30,70.3c-0.4,0-0.8-0.1-1.2-0.1c0-0.1,0-0.2,0-0.3c0.4,0,0.8,0.1,1.2,0.1
				C30,70.1,30,70.2,30,70.3z M27.6,70.1c-0.4,0-0.8-0.1-1.2-0.1c0-0.1,0-0.2,0-0.3c0.4,0,0.8,0.1,1.2,0.1
				C27.6,69.9,27.6,70,27.6,70.1z M25.2,69.8c-0.4,0-0.8-0.1-1.2-0.1c0-0.1,0-0.2,0-0.3c0.4,0,0.8,0.1,1.2,0.1
				C25.2,69.6,25.2,69.7,25.2,69.8z M22.9,69.5c-0.4-0.1-0.8-0.1-1.2-0.2c0-0.1,0-0.2,0-0.3c0.4,0.1,0.8,0.1,1.2,0.2
				C22.9,69.3,22.9,69.4,22.9,69.5z M20.5,69.2c-0.4-0.1-0.8-0.1-1.2-0.2c0-0.1,0-0.2,0-0.3c0.4,0.1,0.8,0.1,1.2,0.2
				C20.5,69,20.5,69.1,20.5,69.2z M18.2,68.8c-0.4-0.1-0.8-0.1-1.2-0.2c0-0.1,0-0.2,0-0.3c0.4,0.1,0.8,0.1,1.2,0.2
				C18.2,68.6,18.2,68.7,18.2,68.8z"/>
		</g>
		<g>
			<radialGradient id="SVGID_108_" cx="50.6577" cy="83.124" r="23.8069" gradientUnits="userSpaceOnUse">
				<stop  offset="0" style="stop-color:#D4EFFC"/>
				<stop  offset="1" style="stop-color:#6FBCE9"/>
			</radialGradient>
			<path class="st111" d="M84.3,81.9c-0.4,0.1-0.8,0.1-1.2,0.2c0-0.1,0-0.2,0-0.3c0.4-0.1,0.8-0.1,1.2-0.2
				C84.3,81.7,84.3,81.8,84.3,81.9z M81.9,82.3c-0.4,0.1-0.8,0.1-1.2,0.2c0-0.1,0-0.2,0-0.3c0.4-0.1,0.8-0.1,1.2-0.2
				C81.9,82.1,81.9,82.2,81.9,82.3z M79.6,82.6c-0.4,0.1-0.8,0.1-1.2,0.2c0-0.1,0-0.2,0-0.3c0.4-0.1,0.8-0.1,1.2-0.2
				C79.6,82.4,79.6,82.5,79.6,82.6z M77.2,83c-0.4,0-0.8,0.1-1.2,0.1c0-0.1,0-0.2,0-0.3c0.4,0,0.8-0.1,1.2-0.1
				C77.2,82.8,77.2,82.9,77.2,83z M74.9,83.2c-0.4,0-0.8,0.1-1.2,0.1c0-0.1,0-0.2,0-0.3c0.4,0,0.8-0.1,1.2-0.1
				C74.9,83,74.9,83.1,74.9,83.2z M72.5,83.5c-0.4,0-0.8,0.1-1.2,0.1c0-0.1,0-0.2,0-0.3c0.4,0,0.8-0.1,1.2-0.1
				C72.5,83.3,72.5,83.4,72.5,83.5z M70.2,83.7c-0.4,0-0.8,0.1-1.2,0.1c0-0.1,0-0.2,0-0.3c0.4,0,0.8-0.1,1.2-0.1
				C70.2,83.5,70.2,83.6,70.2,83.7z M67.8,83.9C67.4,84,67,84,66.6,84c0-0.1,0-0.2,0-0.3c0.4,0,0.8-0.1,1.2-0.1
				C67.8,83.7,67.8,83.8,67.8,83.9z M65.4,84.1c-0.4,0-0.8,0.1-1.2,0.1c0-0.1,0-0.2,0-0.3c0.4,0,0.8-0.1,1.2-0.1
				C65.4,83.9,65.4,84,65.4,84.1z M63.1,84.3c-0.4,0-0.8,0-1.2,0.1c0-0.1,0-0.2,0-0.3c0.4,0,0.8,0,1.2-0.1
				C63.1,84.1,63.1,84.2,63.1,84.3z M60.7,84.4c-0.4,0-0.8,0-1.2,0.1c0-0.1,0-0.2,0-0.3c0.4,0,0.8,0,1.2-0.1
				C60.7,84.2,60.7,84.3,60.7,84.4z M58.4,84.5c-0.4,0-0.8,0-1.2,0c0-0.1,0-0.2,0-0.3c0.4,0,0.8,0,1.2,0
				C58.4,84.3,58.4,84.4,58.4,84.5z M56,84.6c-0.4,0-0.8,0-1.2,0c0-0.1,0-0.2,0-0.3c0.4,0,0.8,0,1.2,0C56,84.4,56,84.5,56,84.6z
				 M53.6,84.6c-0.4,0-0.8,0-1.2,0c0-0.1,0-0.2,0-0.3c0.4,0,0.8,0,1.2,0C53.6,84.4,53.6,84.5,53.6,84.6z M51.2,84.6
				c-0.4,0-0.8,0-1.2,0c0-0.1,0-0.2,0-0.3c0.4,0,0.8,0,1.2,0C51.2,84.4,51.2,84.5,51.2,84.6z M48.9,84.6c-0.4,0-0.8,0-1.2,0
				c0-0.1,0-0.2,0-0.3c0.4,0,0.8,0,1.2,0C48.9,84.4,48.9,84.5,48.9,84.6z M46.5,84.6c-0.4,0-0.8,0-1.2,0c0-0.1,0-0.2,0-0.3
				c0.4,0,0.8,0,1.2,0C46.5,84.4,46.5,84.5,46.5,84.6z M44.1,84.5c-0.4,0-0.8,0-1.2,0c0-0.1,0-0.2,0-0.3c0.4,0,0.8,0,1.2,0
				C44.1,84.3,44.1,84.4,44.1,84.5z M41.8,84.4c-0.4,0-0.8,0-1.2-0.1c0-0.1,0-0.2,0-0.3c0.4,0,0.8,0,1.2,0.1
				C41.8,84.2,41.8,84.3,41.8,84.4z M39.4,84.3c-0.4,0-0.8,0-1.2-0.1c0-0.1,0-0.2,0-0.3c0.4,0,0.8,0,1.2,0.1
				C39.4,84.1,39.4,84.2,39.4,84.3z M37,84.2c-0.4,0-0.8-0.1-1.2-0.1c0-0.1,0-0.2,0-0.3c0.4,0,0.8,0.1,1.2,0.1
				C37,84,37,84.1,37,84.2z M34.7,84c-0.4,0-0.8-0.1-1.2-0.1c0-0.1,0-0.2,0-0.3c0.4,0,0.8,0.1,1.2,0.1C34.7,83.8,34.7,83.9,34.7,84z
				 M32.3,83.8c-0.4,0-0.8-0.1-1.2-0.1c0-0.1,0-0.2,0-0.3c0.4,0,0.8,0.1,1.2,0.1C32.3,83.6,32.3,83.7,32.3,83.8z M30,83.6
				c-0.4,0-0.8-0.1-1.2-0.1c0-0.1,0-0.2,0-0.3c0.4,0,0.8,0.1,1.2,0.1C30,83.4,30,83.5,30,83.6z M27.6,83.4c-0.4,0-0.8-0.1-1.2-0.1
				c0-0.1,0-0.2,0-0.3c0.4,0,0.8,0.1,1.2,0.1C27.6,83.2,27.6,83.3,27.6,83.4z M25.2,83.1c-0.4,0-0.8-0.1-1.2-0.1c0-0.1,0-0.2,0-0.3
				c0.4,0.1,0.8,0.1,1.2,0.1C25.2,82.9,25.2,83,25.2,83.1z M22.9,82.8c-0.4-0.1-0.8-0.1-1.2-0.2c0-0.1,0-0.2,0-0.3
				c0.4,0.1,0.8,0.1,1.2,0.2C22.9,82.6,22.9,82.7,22.9,82.8z M20.5,82.5c-0.4-0.1-0.8-0.1-1.2-0.2c0-0.1,0-0.2,0-0.3
				c0.4,0.1,0.8,0.1,1.2,0.2C20.5,82.3,20.5,82.4,20.5,82.5z M18.2,82.1C17.8,82,17.4,82,17,81.9c0-0.1,0-0.2,0-0.3
				c0.4,0.1,0.8,0.1,1.2,0.2C18.2,81.9,18.2,82,18.2,82.1z"/>
		</g>
		<radialGradient id="SVGID_109_" cx="55.5276" cy="76.6147" r="26.8268" gradientUnits="userSpaceOnUse">
			<stop  offset="0" style="stop-color:#D4EFFC"/>
			<stop  offset="1" style="stop-color:#6FBCE9"/>
		</radialGradient>
		<path class="st112" d="M19.4,74.6c0,0,0.1,0,0.1,0.1l1.2,1.1h0l0,0h0h0h0h0l-1.2,1.1c0,0-0.1,0.1-0.1,0.1c-0.2,0.1-0.5,0-0.7-0.2
			c-0.1-0.2-0.1-0.3,0-0.5c-0.3,0-0.5-0.2-0.5-0.5c0-0.3,0.2-0.5,0.5-0.5c-0.1-0.1-0.1-0.3,0-0.5C18.9,74.5,19.2,74.4,19.4,74.6z"/>
		<radialGradient id="SVGID_110_" cx="55.5274" cy="76.6144" r="26.8265" gradientUnits="userSpaceOnUse">
			<stop  offset="0" style="stop-color:#D4EFFC"/>
			<stop  offset="1" style="stop-color:#6FBCE9"/>
		</radialGradient>
		<path class="st113" d="M82.4,77c0,0-0.1,0-0.1-0.1l-1.2-1.1h0h0h0l0,0h0h0l1.2-1.1c0,0,0.1-0.1,0.1-0.1c0.2-0.1,0.5,0,0.7,0.2
			c0.1,0.2,0.1,0.3,0,0.5c0.3,0,0.5,0.2,0.5,0.5c0,0.3-0.2,0.5-0.5,0.5c0.1,0.1,0.1,0.3,0,0.5C82.9,77,82.6,77.1,82.4,77z"/>
	</g>
	<g>
		<path class="st25" d="M38.2,74.2h3v0.7h-2.1v1.3h1.8v0.7h-1.8v1.5h2.2v0.7h-3V74.2z"/>
		<path class="st25" d="M43.1,76.6l-1.3-2.4h1l0.5,1.1c0.1,0.2,0.2,0.5,0.4,0.8h0c0.1-0.3,0.2-0.5,0.3-0.8l0.5-1.1h0.9l-1.3,2.4
			l1.4,2.5h-1L44,78c-0.1-0.3-0.2-0.5-0.4-0.8h0c-0.1,0.3-0.2,0.6-0.4,0.8l-0.6,1.2h-0.9L43.1,76.6z"/>
		<path class="st25" d="M46.3,74.2H48c1.1,0,1.9,0.4,1.9,1.5c0,1.1-0.8,1.6-1.9,1.6h-0.8v1.8h-0.9V74.2z M47.9,76.6
			c0.7,0,1.1-0.3,1.1-0.9c0-0.6-0.4-0.8-1.1-0.8h-0.7v1.7H47.9z"/>
		<path class="st25" d="M50.8,74.2h3v0.7h-2.1v1.3h1.8v0.7h-1.8v1.5h2.2v0.7h-3V74.2z"/>
		<path class="st25" d="M57.5,79.1l-1.1-1.9h-0.8v1.9h-0.9v-4.9h1.7c1,0,1.8,0.4,1.8,1.5c0,0.8-0.4,1.2-1,1.4l1.2,2.1H57.5z
			 M55.7,76.5h0.7c0.7,0,1-0.3,1-0.8c0-0.6-0.4-0.8-1-0.8h-0.7V76.5z"/>
		<path class="st25" d="M60.2,74.9h-1.4v-0.7h3.7v0.7h-1.4v4.2h-0.9V74.9z"/>
	</g>
</g>
</svg>
