<?xml version="1.0" encoding="utf-8"?>
<!-- Generator: Adobe Illustrator 25.0.0, SVG Export Plug-In . SVG Version: 6.00 Build 0)  -->
<svg version="1.1" id="Layer_1" xmlns="http://www.w3.org/2000/svg" xmlns:xlink="http://www.w3.org/1999/xlink" x="0px" y="0px"
	 viewBox="0 0 100 100" style="enable-background:new 0 0 100 100;" xml:space="preserve">
<style type="text/css">
	.st0{fill:none;stroke:#FFFFFF;stroke-width:4;stroke-linecap:round;stroke-linejoin:round;stroke-miterlimit:10;}
</style>
<g>
	<path class="st0" d="M40.8,20v3.6c0,0.8-0.6,1.4-1.4,1.4h-8v8c0,0.8-0.6,1.4-1.4,1.4h-3.6c-0.8,0-1.4-0.6-1.4-1.4v-8h-8
		c-0.8,0-1.4-0.6-1.4-1.4V20c0-0.8,0.6-1.4,1.4-1.4h8v-8c0-0.8,0.6-1.4,1.4-1.4H30c0.8,0,1.4,0.6,1.4,1.4v8h8
		C40.2,18.6,40.8,19.2,40.8,20z"/>
	<path class="st0" d="M85.2,20v3.6c0,0.8-0.6,1.4-1.4,1.4h-8v8c0,0.8-0.6,1.4-1.4,1.4h-3.6c-0.8,0-1.4-0.6-1.4-1.4v-8h-8
		c-0.8,0-1.4-0.6-1.4-1.4V20c0-0.8,0.6-1.4,1.4-1.4h8v-8c0-0.8,0.6-1.4,1.4-1.4h3.6c0.8,0,1.4,0.6,1.4,1.4v8h8
		C84.6,18.6,85.2,19.2,85.2,20z"/>
	<path class="st0" d="M63,45.3v3.6c0,0.8-0.6,1.4-1.4,1.4h-8v8c0,0.8-0.6,1.4-1.4,1.4h-3.6c-0.8,0-1.4-0.6-1.4-1.4v-8h-8
		c-0.8,0-1.4-0.6-1.4-1.4v-3.6c0-0.8,0.6-1.4,1.4-1.4h8v-8c0-0.8,0.6-1.4,1.4-1.4h3.6c0.8,0,1.4,0.6,1.4,1.4v8h8
		C62.4,43.9,63,44.5,63,45.3z"/>
	<g>
		<path class="st0" d="M47.2,75.5v16.1h-19v-7.9L15.5,71l-8.2-8.2c-0.9-0.9-1.4-2.2-1.4-3.5V40.6c0-2.7,2.2-4.8,4.8-4.8
			c1.3,0,2.5,0.5,3.4,1.4s1.4,2.1,1.4,3.4v16.3c0,0.5,0.2,1.1,0.6,1.5l2.7,2.7l3.1,3.1c-1.7-1.7-1.7-4.4,0-6.1
			c0.8-0.8,2-1.3,3.1-1.3s2.2,0.4,3.1,1.3l5.2,5.2h1.6C41.7,63.1,47.2,68.7,47.2,75.5z"/>
	</g>
	<g>
		<path class="st0" d="M53.3,75.5v16.1h19v-7.9L85,71l8.2-8.2c0.9-0.9,1.4-2.2,1.4-3.5V40.6c0-2.7-2.2-4.8-4.8-4.8
			c-1.3,0-2.5,0.5-3.4,1.4C85.6,38,85,39.3,85,40.6v16.3c0,0.5-0.2,1.1-0.6,1.5L81.7,61l-3,3c1.7-1.7,1.7-4.4,0-6.1
			c-0.8-0.8-2-1.3-3.1-1.3s-2.2,0.4-3.1,1.3l-5.2,5.2h-1.6C58.8,63.1,53.3,68.7,53.3,75.5z"/>
	</g>
</g>
</svg>
