<?xml version="1.0" encoding="utf-8"?>
<!-- Generator: Adobe Illustrator 25.0.0, SVG Export Plug-In . SVG Version: 6.00 Build 0)  -->
<svg version="1.1" id="Layer_1" xmlns="http://www.w3.org/2000/svg" xmlns:xlink="http://www.w3.org/1999/xlink" x="0px" y="0px"
	 viewBox="0 0 100 100" style="enable-background:new 0 0 100 100;" xml:space="preserve">
<style type="text/css">
	.st0{fill:none;stroke:#FCFCFC;stroke-width:4;stroke-linecap:round;stroke-linejoin:round;stroke-miterlimit:10;}
</style>
<g>
	<path class="st0" d="M61.5,96.8c-0.6-0.3-1.3-0.6-1.9-1c-1.6-1.1-2.3-2.7-2.3-4.6c0-6.9,0-13.8,0-20.7c0-0.4,0-0.7,0-1.2
		c-0.4,0-0.8,0-1.1,0c-6.8,0-13.6,0-20.4,0c-3.3,0-5.7-1.7-6.7-4.7c-0.2-0.7-0.3-1.4-0.3-2.1c0-11,0-21.9,0-32.9
		c0-4.7,3.2-8.5,7.8-9.4c1-0.2,1.8,0,2.5,0.9c2.8,3.4,5.7,6.7,8.6,10c0.8,0.9,1.2,1.7,1.1,2.8c-0.1,0.4,0,0.7,0,1.2
		c0.4,0,0.8,0,1.1,0c7.7,0,15.4,0,23,0c3.3,0,5.3,3.3,3.7,6.1c-0.7,1.3-1.8,2.1-3.3,2.1c-2.5,0.1-5,0-7.5,0c-5.7,0-11.4,0-17.1,0
		c-1.3,0-2.3-0.5-3.2-1.5c-2.4-2.7-4.9-5.3-7.3-8c-0.2-0.2-0.4-0.5-0.6-0.6c-0.3-0.1-0.7-0.1-0.9,0.1c-0.1,0.1-0.1,0.5,0,0.8
		c0,0.1,0.1,0.2,0.2,0.3c2.6,2.8,5.1,5.6,7.7,8.4c1,1.1,2.3,1.7,4,1.7c0,3.7,0,7.4,0,11.3c0.4,0,0.8,0,1.1,0c4.1,0,8.3,0,12.4,0
		c2.8,0,4.8,1.5,5.5,4c0.2,0.7,0.2,1.4,0.2,2.1c0,9.3-0.1,18.5,0,27.8c0,3.3-1,5.7-4.3,6.8C63,96.8,62.3,96.8,61.5,96.8z"/>
	<path class="st0" d="M20.1,44.8c-4.2,1-7.4,3.3-9.5,7c-4.9,8.6,0.2,19.5,9.9,21.2c0.8,0.1,1.4,0.2,2.1-0.6c0.6-0.7,1.7-0.9,2.6-1.3
		c0.3-0.1,0.7-0.1,1.1-0.1c9.5,0,19,0,28.4,0c0.3,0,0.6,0,1,0c0,2.8,0,5.5,0,8.3c-0.4,0-0.7,0-1,0c-9.4,0-18.8,0-28.2,0
		c-1.8,0-3.3-0.4-4.4-2c-0.2-0.3-0.7-0.4-1.1-0.4c-3-0.3-5.7-1.4-8.1-3c-5.8-3.9-9-11.3-7.7-18c1.4-7.4,6.7-13.1,13.8-14.6
		c0.9-0.2,1.2-0.5,1.1-1.4c-0.1-2.4,0-4.9,0-7.3c0-2.6,2.1-4.3,4.5-3.7c1.4,0.3,2.4,1.5,2.6,2.9c0,0.4,0.1,0.7,0.1,1.1
		c0,6.5,0,13,0,19.6c0,1.5-0.4,2.7-1.6,3.6c-1.1,0.7-2.3,0.8-3.6,0.2c-1.3-0.7-2-1.9-2-3.4c0-2.3,0-4.6,0-6.9
		C20.1,45.6,20.1,45.3,20.1,44.8z"/>
	<path class="st0" d="M50.3,23.9C44.6,23.8,40,19.2,40,13.5c0-5.8,4.8-10.4,10.7-10.3C56.2,3.3,60.8,8,60.8,13.6
		C60.7,19.3,56,23.9,50.3,23.9z"/>
	<path class="st0" d="M95.1,49.6c0,1.7,0,3.3,0,4.9c-0.4,0-0.7,0-1,0c-13.7,0-27.4,0-41,0c-2.7,0-2.9-1.7-2.5-3.7
		c0.2-0.7,0.8-1.2,1.5-1.2c0.3,0,0.5,0,0.8,0c13.8,0,27.5,0,41.3,0C94.5,49.6,94.8,49.6,95.1,49.6z"/>
	<path class="st0" d="M70.3,48.5c-4.3,0-8.5,0-12.8,0c-1.3,0-2.1-0.6-2.1-1.7c0-0.8,0.4-1.4,1.2-1.6c0.4-0.1,0.9-0.1,1.4-0.1
		c7.8,0,15.5,0,23.3,0c0.7,0,1.1-0.2,1.4-0.9c2.1-6.3,4.3-12.6,6.4-18.9c0.6-1.6,1.3-2.2,2.4-1.8c1,0.4,1.3,1.3,0.8,2.9
		c-2.3,6.7-4.6,13.4-6.9,20.2c-0.6,1.7-0.9,2-2.7,2C78.6,48.5,74.5,48.5,70.3,48.5z"/>
</g>
</svg>
