<?xml version="1.0" encoding="utf-8"?>
<!-- Generator: Adobe Illustrator 25.0.0, SVG Export Plug-In . SVG Version: 6.00 Build 0)  -->
<svg version="1.1" id="Layer_1" xmlns="http://www.w3.org/2000/svg" xmlns:xlink="http://www.w3.org/1999/xlink" x="0px" y="0px"
	 viewBox="0 0 100 100" style="enable-background:new 0 0 100 100;" xml:space="preserve">
<style type="text/css">
	.st0{fill:#6B5E69;}
	.st1{opacity:0.19;fill:#020202;}
	.st2{fill:#B4DCF5;}
	.st3{opacity:9.000000e-02;}
	.st4{fill:#E0EBF8;}
	.st5{opacity:0.56;fill:#B4DCF5;}
	.st6{fill:#6BAEE0;}
	.st7{fill:#FDE280;}
	.st8{fill:#F16470;}
	.st9{opacity:0.16;}
	.st10{opacity:8.000000e-02;}
	.st11{fill:#020202;}
	.st12{fill:#FFFFFF;}
</style>
<g>
	<path class="st0" d="M88.3,71.9l-76.4,0.5c-3,0-5.5-2.4-5.5-5.5L6.1,15.3c0-3,2.4-5.5,5.5-5.5l76.4-0.5c3,0,5.5,2.4,5.5,5.5
		l0.3,51.7C93.8,69.5,91.3,71.9,88.3,71.9z"/>
	<g>
		<path class="st1" d="M17.2,72.2h-5.7c-2.9,0-5.2-2.3-5.2-5.2V14.8c0-2.9,2.3-5.2,5.2-5.2h5.7c-2.9,0-5.2,2.3-5.2,5.2V67
			C11.9,69.9,14.3,72.2,17.2,72.2z"/>
		<path class="st2" d="M65.6,84.9c-5.9-1.9-8.9-5.5-6.8-12.6l-17,0.1c1.1,7.3-1.2,10.5-7,12.5H65.6z"/>
		<path class="st3" d="M58.8,72.3c-0.2,0.8-0.4,1.5-0.5,2.2l-9.5,0.1c-0.8,0-1.5,0.7-1.4,1.5c0.4,4.2-0.6,6.9-2.9,8.8h-9.8
			c5.9-1.9,8.1-5.1,7-12.5L58.8,72.3z"/>
		<path d="M88.5,73.4h-77c-3.5,0-6.3-2.8-6.3-6.3V14.9c0-3.5,2.8-6.3,6.3-6.3h77c3.5,0,6.3,2.8,6.3,6.3v23.3c0,0.6-0.5,1.1-1.1,1.1
			c-0.6,0-1.1-0.5-1.1-1.1V14.9c0-2.3-1.9-4.2-4.2-4.2h-77c-2.3,0-4.2,1.9-4.2,4.2v52.1c0,2.3,1.9,4.2,4.2,4.2h77
			c2.3,0,4.2-1.9,4.2-4.2V44.2c0-0.6,0.5-1.1,1.1-1.1c0.6,0,1.1,0.5,1.1,1.1v22.8C94.8,70.6,92,73.4,88.5,73.4z"/>
		<rect x="31.8" y="85.2" class="st4" width="37" height="4.9"/>
		<rect x="31.8" y="85.2" class="st5" width="8.6" height="5"/>
		<rect x="19.8" y="14.7" class="st6" width="68.1" height="6.6"/>
		<rect x="11.8" y="21.5" class="st7" width="76.4" height="44.9"/>
		<rect x="11.9" y="15.1" class="st8" width="7.6" height="6.4"/>
		<path class="st8" d="M73.4,57.2H55.5c-4.1,5.2-7.7,5-10.9,0H26.2V30.8h47.3V57.2z"/>
		<rect x="26.2" y="30.8" class="st9" width="8.5" height="26.4"/>
		<rect x="11.8" y="15" class="st10" width="5.4" height="52.7"/>
		<path class="st11" d="M88.3,14.1H53.2c-0.6,0-1.1,0.5-1.1,1.1c0,0.6,0.5,1.1,1.1,1.1h34v4.3H20.6v-4.3h26.5c0.6,0,1.1-0.5,1.1-1.1
			c0-0.6-0.5-1.1-1.1-1.1H11.6c-0.6,0-1.1,0.5-1.1,1.1v51.5c0,0.6,0.5,1.1,1.1,1.1h76.6c0.6,0,1.1-0.5,1.1-1.1V15.1
			C89.3,14.5,88.8,14.1,88.3,14.1z M12.7,16.2h5.9v4.3h-5.9V16.2z M87.2,65.6H12.7v-43h74.5V65.6z"/>
		<path class="st4" d="M49.9,53.2c-10.5-6.3-15.8,4-18.6,0V30c5.9,0.5,10.3-7,18.6,0V53.2z"/>
		<path class="st4" d="M49.8,53.2c10.5-6.3,15.8,4,18.6,0V30c-4.7,0.4-8.5-4.4-14.2-2.6c-1.3,0.4-2.8,1.2-4.4,2.6V53.2z"/>
		<g>
			<path class="st2" d="M35.3,29.3v24.1c-1.7,0.8-3,1.2-4-0.2V30C32.7,30.2,34,29.8,35.3,29.3z"/>
		</g>
		<path class="st2" d="M54.2,51.4c-1.3,0.3-2.8,0.9-4.4,1.8V30c1.5-1.2,2.8-2,4.1-2.5L54.2,51.4z"/>
		<path d="M49.8,63.3c-2.3,0-4.5-1.3-5.8-3.6H26.1c-0.6,0-1.1-0.5-1.1-1.1V31.5c0-0.6,0.5-1.1,1.1-1.1H30c0.6,0,1.1,0.5,1.1,1.1
			s-0.5,1.1-1.1,1.1h-2.9v25.1h17.5c0.4,0,0.8,0.2,0.9,0.6c1,2,2.7,3.1,4.5,3c1.7-0.1,3.1-1.2,3.8-2.9c0.2-0.4,0.5-0.7,1-0.7h17.7
			V32.5h-3.2c-0.6,0-1.1-0.5-1.1-1.1s0.5-1.1,1.1-1.1h4.2c0.6,0,1.1,0.5,1.1,1.1v27.2c0,0.6-0.5,1.1-1.1,1.1h-18
			c-1.1,2.1-3,3.4-5.3,3.5C50.1,63.3,50,63.3,49.8,63.3z"/>
		<path d="M67.2,55.6c-1.1,0-2.2-0.6-3.5-1.3c-3-1.6-7.2-3.8-13.2,0.3c-0.4,0.2-0.8,0.3-1.2,0c-5.8-3.9-9.5-2-12.4-0.5
			c-2.3,1.2-4.8,2.5-7.1-0.6c-0.1-0.2-0.2-0.4-0.2-0.6V29.7c0-0.3,0.2-0.6,0.4-0.8c0.3-0.2,0.6-0.3,0.9-0.2c1.9,0.6,3.7-0.2,5.7-1.2
			c3.3-1.5,7.4-3.4,13.2,0.9c6.1-4.5,9.1-3.2,12.5-1.6c1.8,0.8,3.7,1.7,6.4,1.9c0.6,0,1,0.5,1,1.1v23.5c0,0.2,0,0.3-0.1,0.4
			c-0.4,0.9-1,1.5-1.7,1.7C67.8,55.5,67.5,55.6,67.2,55.6z M57.3,50.1c3.2,0,5.7,1.3,7.5,2.3c1,0.5,2.2,1.2,2.6,1
			c0.1,0,0.3-0.2,0.4-0.4V30.7c-2.6-0.3-4.4-1.2-6.1-2c-3.3-1.5-5.4-2.5-11,1.8c-0.4,0.3-0.9,0.3-1.3,0c-5.2-4.1-8.3-2.6-11.7-1.1
			c-1.8,0.8-3.7,1.7-5.8,1.5v21.6c1,1.2,1.9,0.8,4.2-0.3c3-1.5,7.4-3.8,14,0.2C52.7,50.7,55.1,50.1,57.3,50.1z"/>
		<path d="M50,54.8c-0.6,0-1.1-0.5-1.1-1.1v-24c0-0.6,0.5-1.1,1.1-1.1c0.6,0,1.1,0.5,1.1,1.1v24C51.1,54.3,50.6,54.8,50,54.8z"/>
		<path d="M34.6,49.8c-0.4,0-0.7-0.2-0.9-0.5c-0.3-0.5-0.2-1.1,0.3-1.5c4.9-3,8.8-3.7,12-2c0.5,0.3,0.7,0.9,0.4,1.4
			c-0.3,0.5-0.9,0.7-1.4,0.4c-2.5-1.3-5.8-0.7-9.9,1.9C35,49.8,34.8,49.8,34.6,49.8z"/>
		<path d="M34.6,44.8c-0.4,0-0.7-0.2-0.9-0.5c-0.3-0.5-0.2-1.1,0.3-1.5c4.9-3,8.8-3.7,12-2c0.5,0.3,0.7,0.9,0.4,1.4
			c-0.3,0.5-0.9,0.7-1.4,0.4c-2.5-1.3-5.8-0.7-9.9,1.9C35,44.7,34.8,44.8,34.6,44.8z"/>
		<path d="M34.6,40.2c-0.4,0-0.7-0.2-0.9-0.5c-0.3-0.5-0.2-1.1,0.3-1.5c4.9-3,8.8-3.7,12-2c0.5,0.3,0.7,0.9,0.4,1.4
			c-0.3,0.5-0.9,0.7-1.4,0.4c-2.5-1.3-5.8-0.7-9.9,1.9C35,40.2,34.8,40.2,34.6,40.2z"/>
		<path d="M34.8,35.4c-0.4,0-0.7-0.2-0.9-0.5c-0.3-0.5-0.2-1.1,0.3-1.5c4.9-3,8.8-3.7,12-2c0.5,0.3,0.7,0.9,0.4,1.4
			c-0.3,0.5-0.9,0.7-1.4,0.4c-2.5-1.3-5.8-0.7-9.9,1.9C35.2,35.4,35,35.4,34.8,35.4z"/>
		<path d="M65.3,49.8c-0.2,0-0.4-0.1-0.6-0.2c-4.2-2.6-7.4-3.2-9.9-1.9c-0.5,0.3-1.2,0.1-1.4-0.4c-0.3-0.5-0.1-1.2,0.4-1.4
			c3.2-1.7,7.2-1.1,12,2c0.5,0.3,0.6,1,0.3,1.5C66,49.6,65.6,49.8,65.3,49.8z"/>
		<path d="M65.3,44.8c-0.2,0-0.4-0.1-0.6-0.2c-4.2-2.6-7.4-3.2-9.9-1.9c-0.5,0.3-1.2,0.1-1.4-0.4c-0.3-0.5-0.1-1.2,0.4-1.4
			c3.2-1.7,7.2-1.1,12,2c0.5,0.3,0.6,1,0.3,1.5C66,44.6,65.6,44.8,65.3,44.8z"/>
		<path d="M65.3,40.2c-0.2,0-0.4-0.1-0.6-0.2c-4.2-2.6-7.4-3.2-9.9-1.9c-0.5,0.3-1.2,0.1-1.4-0.4c-0.3-0.5-0.1-1.2,0.4-1.4
			c3.2-1.7,7.2-1.1,12,2c0.5,0.3,0.6,1,0.3,1.5C66,40.1,65.6,40.2,65.3,40.2z"/>
		<path d="M65,35.4c-0.2,0-0.4-0.1-0.6-0.2c-4.2-2.6-7.4-3.2-9.9-1.9c-0.5,0.3-1.2,0.1-1.4-0.4c-0.3-0.5-0.1-1.2,0.4-1.4
			c3.2-1.7,7.2-1.1,12,2c0.5,0.3,0.6,1,0.3,1.5C65.7,35.2,65.4,35.4,65,35.4z"/>
		<path class="st12" d="M34.8,85.9C34.8,85.9,34.8,85.9,34.8,85.9c-0.1,0-0.1,0-0.1,0H34.8z"/>
		<path d="M67.4,84h-1.7c-6-2-7.8-5.4-6-11.4c0.1-0.5-0.1-1-0.6-1.2c-0.5-0.2-1,0.1-1.2,0.6c-1.6,5.4-0.5,9.4,3.4,11.9H39
			c3.5-2.4,4.6-6,3.8-11.7c-0.1-0.5-0.6-0.9-1.1-0.8c-0.5,0.1-0.9,0.6-0.8,1.1c1,6.5-0.7,9.5-6.3,11.4H33c-1.4,0-2.6,1.2-2.6,2.6
			v2.2c0,1.4,1.2,2.6,2.6,2.6h34.4c1.4,0,2.6-1.2,2.6-2.6v-2.2C70,85.2,68.9,84,67.4,84z M68.2,88.7c0,0.4-0.3,0.7-0.7,0.7H33
			c-0.4,0-0.7-0.3-0.7-0.7v-2.2c0-0.4,0.3-0.7,0.7-0.7h34.4c0.4,0,0.7,0.3,0.7,0.7V88.7z"/>
		<path class="st12" d="M65.7,85.9C65.6,85.9,65.6,85.9,65.7,85.9c-0.1,0-0.1,0-0.1,0H65.7z"/>
	</g>
</g>
</svg>
