<?xml version="1.0" encoding="utf-8"?>
<!-- Generator: Adobe Illustrator 25.0.0, SVG Export Plug-In . SVG Version: 6.00 Build 0)  -->
<svg version="1.1" id="Layer_1" xmlns="http://www.w3.org/2000/svg" xmlns:xlink="http://www.w3.org/1999/xlink" x="0px" y="0px"
	 viewBox="0 0 100 100" style="enable-background:new 0 0 100 100;" xml:space="preserve">
<style type="text/css">
	.st0{fill:#3C4752;}
	.st1{fill:#2F7ABF;}
	.st2{fill:#3D4753;}
	.st3{fill:#3D4752;}
</style>
<g>
	<path class="st0" d="M73.1,70.3c0-6.5,0-12.9,0-19.4c0-0.7,0.2-0.9,0.9-0.9c6,0,12,0,18,0c0.7,0,0.9,0.1,0.8,0.9
		c-0.4,4.6-0.8,9.3-1.2,13.9c-0.4,4.8-0.8,9.5-1.2,14.3c-0.3,3.7-0.6,7.4-0.9,11c0,0.4-0.2,0.6-0.6,0.6c-5.1,0-10.2,0-15.2,0
		c-0.7,0-0.6-0.4-0.6-0.8c0-4.2,0-8.4,0-12.7C73.1,74.8,73.1,72.6,73.1,70.3z"/>
	<path class="st0" d="M45.4,48.1c-2.4-1.6-4.9-3.2-7.3-4.9c-0.6-0.4-0.8-0.3-1.2,0.2c-2.8,4.2-5.7,8.4-8.5,12.6
		c-0.2,0.3-0.3,0.6-0.7,0.8c-0.2-0.4-0.3-0.8-0.5-1.2c-1.3-2.8-3.1-5.1-6.1-6.1c-3.9-1.2-7.3,1.4-7,5.1c0.1,1.1,0.6,2.1,1.2,3.1
		c0.7,1,1.4,1.9,2.1,3c-0.3,0.1-0.5,0-0.7-0.1c-1.3-0.4-2.5-0.8-3.9-0.9C11,59.4,9.3,59.9,8,61.5c-1.2,1.6-1.2,3.4-0.4,5.2
		c0.9,2,2.6,3.3,4.6,4.1c1.8,0.7,3.6,0.9,5.5,0.8c0,0.4-0.3,0.7-0.5,0.9c-2.7,4-5.4,8.1-8.2,12.1c-0.4,0.6-0.3,0.8,0.2,1.2
		c2.4,1.6,4.8,3.2,7.2,4.9c0.7,0.5,0.9,0.3,1.3-0.3c9.3-13.7,18.5-27.3,27.8-41C46,48.7,46,48.5,45.4,48.1z M21.7,65.9
		c-0.5,0.6-0.9,1.3-1.3,1.9c-0.4,0.6-1.1,0.7-1.7,0.9c-0.7,0.2-1.4,0.3-2.1,0.3c-1.6-0.1-3.1-0.3-4.5-1.1c-0.9-0.5-1.7-1.2-2.1-2.2
		c-0.8-2,0.4-3.7,2.6-3.4c2.1,0.2,4.1,0.9,6,1.7c1,0.4,2,0.9,2.9,1.3C21.9,65.4,22,65.5,21.7,65.9z M24.3,62c-0.6,1-0.7,1-1.6,0.2
		c-2-1.9-3.8-3.8-5.3-6.1c-0.9-1.5-1-2.6-0.3-3.4c0.8-0.9,2.3-1.2,3.7-0.5c2.9,1.5,4.2,4.2,4.6,7.3C25.7,60.6,24.8,61.2,24.3,62z"/>
	<path class="st0" d="M54.2,70.3c0,6.4,0,12.9,0,19.3c0,0.8-0.2,1-1,1c-4.9,0-9.7,0-14.6,0c-0.7,0-0.9-0.2-1-0.9
		c-0.3-3.9-0.6-7.8-1-11.7c-0.3-3.1-0.5-6.2-0.8-9.3c0-0.5,0.1-0.9,0.3-1.3c3.8-5.6,7.7-11.3,11.5-16.9c0.3-0.4,0.6-0.6,1.1-0.6
		c1.5,0,3,0,4.5,0c0.7,0,0.9,0.2,0.9,0.9C54.2,57.4,54.2,63.8,54.2,70.3z"/>
	<path class="st1" d="M56.8,70.3c0-6.5,0-12.9,0-19.4c0-0.8,0.2-1,1-1c4,0,7.9,0,11.9,0c0.7,0,0.9,0.1,0.9,0.9c0,13,0,25.9,0,38.9
		c0,0.7-0.2,0.9-0.9,0.9c-4,0-8,0-12,0c-0.8,0-0.9-0.3-0.9-0.9C56.8,83.2,56.8,76.8,56.8,70.3z"/>
	<path class="st1" d="M71.2,15.8c0,0.3-0.1,0.6-0.3,0.9c-4.1,6.4-8.2,12.9-12.4,19.3c-0.5,0.7-1.2,0.9-1.8,0.5
		c-0.7-0.4-0.8-1.1-0.3-1.9c0.1-0.1,0.2-0.3,0.2-0.4c3.4-5.3,6.7-10.6,10.1-15.9c0.7-1.1,1.3-2.1,2-3.2c0.4-0.5,0.9-0.8,1.5-0.6
		C70.9,14.8,71.1,15.2,71.2,15.8z"/>
	<path class="st1" d="M72.2,31.4c-0.1-2.1-1.8-3.7-3.8-3.8c-2-0.1-3.9,1.4-4.1,3.3c-0.2,1.2-0.2,2.5,0,3.7c0.2,1.9,1.7,3.2,3.7,3.5
		c1.7,0.2,3.5-1,4.1-2.7c0.3-0.8,0.2-1.7,0.2-2.6C72.2,32.3,72.2,31.8,72.2,31.4z M69.6,34.1c-0.1,0.8-0.7,1.3-1.4,1.3
		c-0.7,0-1.3-0.5-1.3-1.4c0-0.9,0-1.7,0-2.6c0-0.8,0.6-1.3,1.3-1.4c0.8,0,1.4,0.5,1.5,1.3c0,0.4,0,0.9,0,1.3h0
		C69.6,33.2,69.6,33.7,69.6,34.1z"/>
	<path class="st1" d="M63.1,17c-0.1-2.2-1.8-3.9-4-3.9c-2.2,0-3.9,1.7-4,3.9c0,0.4,0,0.9,0,1.3c0,0.5,0,0.9,0,1.4
		c0.1,2.2,1.8,3.9,4,3.9c2.1,0,3.9-1.8,4-3.9C63.2,18.8,63.2,17.9,63.1,17z M60.6,19.7c-0.1,0.8-0.7,1.3-1.4,1.3
		c-0.7,0-1.3-0.6-1.4-1.3c0-0.9,0-1.8,0-2.7c0-0.8,0.6-1.3,1.4-1.3c0.7,0,1.3,0.5,1.4,1.3c0,0.5,0,0.9,0,1.4
		C60.6,18.9,60.6,19.3,60.6,19.7z"/>
	<path class="st2" d="M51.1,35.7c0,0.5-0.3,0.8-0.6,1.1c-1.8,1.8-3.5,3.5-5.3,5.3c-0.7,0.7-1.4,0.8-2,0.2c-0.6-0.6-0.5-1.3,0.2-2
		c1.7-1.8,3.5-3.5,5.3-5.3c0.4-0.4,0.9-0.7,1.6-0.4C50.8,34.8,51,35.2,51.1,35.7z"/>
	<path class="st3" d="M44.1,9.2c0.4,0,0.8,0.2,1.1,0.5c1.8,1.8,3.6,3.6,5.4,5.4c0.6,0.7,0.6,1.4,0.1,2c-0.5,0.5-1.3,0.5-1.9-0.1
		c-1.8-1.8-3.7-3.6-5.5-5.5c-0.4-0.4-0.6-0.9-0.3-1.5C43.2,9.4,43.6,9.2,44.1,9.2z"/>
	<path class="st3" d="M84.5,10.4c0,0.5-0.2,0.8-0.5,1.1c-1.8,1.8-3.6,3.6-5.4,5.4c-0.7,0.6-1.4,0.6-1.9,0.1
		c-0.5-0.5-0.5-1.3,0.1-1.9c1.8-1.8,3.6-3.6,5.5-5.5c0.4-0.4,0.9-0.6,1.5-0.3C84.2,9.5,84.4,9.9,84.5,10.4z"/>
	<path class="st3" d="M84.4,41.4c0,0.5-0.3,0.9-0.8,1.2c-0.6,0.3-1.1,0.1-1.5-0.4c-1.4-1.4-2.8-2.8-4.2-4.2
		c-0.4-0.4-0.8-0.8-1.2-1.2c-0.6-0.6-0.6-1.4,0-1.9c0.6-0.5,1.3-0.5,1.8,0c1.9,1.8,3.7,3.7,5.6,5.5C84.3,40.7,84.4,41,84.4,41.4z"/>
	<path class="st3" d="M46.4,27.2c-1,0-2,0-3,0c-0.9,0-1.5-0.5-1.5-1.3c0-0.8,0.6-1.3,1.5-1.3c2,0,4.1,0,6.1,0c0.9,0,1.4,0.5,1.4,1.2
		c0,0.8-0.5,1.3-1.4,1.3C48.5,27.2,47.4,27.2,46.4,27.2z"/>
	<path class="st3" d="M80.9,27.2c-1,0-2,0-3,0c-0.9,0-1.5-0.5-1.5-1.3c0-0.8,0.6-1.3,1.5-1.3c2,0,4.1,0,6.1,0c0.9,0,1.4,0.5,1.4,1.3
		c0,0.8-0.5,1.2-1.4,1.2C82.9,27.2,81.9,27.2,80.9,27.2z"/>
</g>
</svg>
