<?xml version="1.0" encoding="utf-8"?>
<!-- Generator: Adobe Illustrator 25.0.0, SVG Export Plug-In . SVG Version: 6.00 Build 0)  -->
<svg version="1.1" id="Layer_1" xmlns="http://www.w3.org/2000/svg" xmlns:xlink="http://www.w3.org/1999/xlink" x="0px" y="0px"
	 viewBox="0 0 100 100" style="enable-background:new 0 0 100 100;" xml:space="preserve">
<style type="text/css">
	.st0{fill:#FC9E2C;}
	.st1{fill:#022B45;}
	.st2{fill:#FAA232;}
	.st3{fill:#0C314A;}
	.st4{fill:#FEEEDB;}
	.st5{fill:#FEEDDA;}
	.st6{fill:#7C5A50;}
	.st7{fill:#EFBF86;}
	.st8{fill:#5A4146;}
	.st9{fill:#707486;}
	.st10{fill:#D19A6E;}
	.st11{fill:#5B5D6E;}
	.st12{fill:#77798A;}
	.st13{fill:#46586E;}
	.st14{fill:#787A8B;}
	.st15{fill:#002540;}
	.st16{fill:#FEFEFE;}
	.st17{fill:#26435B;}
	.st18{fill:#002640;}
	.st19{fill:#001E39;}
	.st20{fill:#00243F;}
	.st21{fill:#001A36;}
	.st22{fill:#00203B;}
	.st23{fill:#001B37;}
	.st24{fill:#001936;}
	.st25{fill:#F5C489;}
	.st26{fill:#F7C488;}
	.st27{fill:#FC991E;}
	.st28{fill:#001D39;}
</style>
<g>
	<path class="st0" d="M71.9,22.6c-2.8,0-5.6,0-8.4,0c-0.3,0-0.4-0.1-0.3-0.4c0.8-3.2,1.5-6.4,2.2-9.6c0.2-0.7,0.5-1.1,1.3-1.2
		c0.6-0.1,1.3-0.1,1.9,0c0.7,0.1,1.1,0.5,1.3,1.2c0.8,3.2,1.5,6.5,2.3,9.7C72.3,22.5,72.2,22.6,71.9,22.6z"/>
	<path class="st0" d="M93.6,8.7c-0.1-0.1,0-0.3-0.1-0.5c-0.3-0.7-0.4-1.4-0.8-2c-1.2-1.9-3-3-5.3-3c-13.2,0-26.3,0-39.5,0
		c-0.2,0-0.3,0-0.5,0c-2.5,0.3-4.7,2.3-5.3,4.8c-0.3,1-0.1,2.1-0.2,3.2c-0.1,0.1-0.1,0.1-0.1,0.2c0,0.2,0,0.3,0,0.5
		c0,6.8,0,13.6,0,20.4c0,1.4,0.5,2.6,1.2,3.8c1.3,1.9,3.2,2.8,5.4,2.8c3.3,0.1,6.5,0,9.8,0c0.1,0.1,0.3,0.2,0.4,0.4c2,2,4,4,6,6
		c0.2,0.2,0.3,0.3,0.6,0.4c0.6,0.1,1-0.3,1-1.1c0-1.8,0-3.5,0-5.3c0-0.5,0.1-0.6,0.6-0.6c6.7,0,13.4,0,20.1,0c0.4,0,0.9,0,1.3-0.1
		c1.7-0.3,3.1-1.2,4.2-2.6c0.5-0.7,0.8-1.6,1.1-2.4c0.1-0.1,0-0.3,0.1-0.5V33c-0.1-0.2,0-0.3,0-0.5c0-7.7,0-15.4,0-23.1
		c0-0.2,0-0.4,0-0.5V8.7z M76.2,32.1c-0.8,0.2-1.7-0.2-1.9-1c-0.4-1.6-0.8-3.2-1.1-4.8c-0.1-0.4-0.2-0.5-0.6-0.5c-3.2,0-6.5,0-9.7,0
		c-0.4,0-0.5,0.1-0.6,0.5c-0.3,1.6-0.7,3.1-1.1,4.6c-0.2,0.9-1,1.5-1.9,1.3c-0.9-0.2-1.4-1-1.1-2c0.7-3.1,1.4-6.2,2.1-9.3
		c0.7-2.9,1.4-5.9,2-8.8c0.6-2.5,2.4-4,5-4h0.4c1.6-0.1,3,0.3,4.2,1.5c0.8,0.8,1.1,1.8,1.3,2.8c0.7,3,1.4,6,2.1,9
		c0.7,3,1.4,5.9,2.1,8.9C77.5,31.1,77,31.9,76.2,32.1z"/>
	<path class="st0" d="M82.4,81.9c1.5,0.4,2.9,1.1,4.3,1.6c0.8,0.3,1.5,0.6,2.2,0.9c1.9,0.7,3,2.5,3,4.4c0,1.5,0,3.1,0,4.6
		c0,1.4-0.9,2.8-2.2,3.2c-0.1,0-0.2,0.1-0.2,0.2c-0.1,0-0.2,0-0.3,0c-0.2-0.1-0.3,0-0.5,0c-10.8,0-21.7,0-32.5,0c-0.2,0-0.4,0-0.5,0
		c-0.1,0-0.2,0-0.3,0c-0.3-0.3-0.8-0.5-1.2-0.8c-0.6-0.5-0.9-1.2-1-1.9c-0.2-1.7-0.1-3.4-0.1-5.1c0-1.7,0.7-3.1,2.1-4.2
		c0.6-0.5,1.4-0.7,2.1-0.9c1.7-0.6,3.4-1.3,5.1-1.9c0.1,0,0.2,0,0.2-0.1c0.4,0.1,0.7,0.4,1,0.7c2.1,1.8,4.2,3.5,6.3,5.2
		c0.2,0.2,0.4,0.4,0.6,0.5c0.9,0.9,2.9,1,3.9,0.1c1.6-1.4,3.3-2.7,5-4.1c0.8-0.7,1.5-1.3,2.3-2C82,82.2,82.2,82,82.4,81.9z"/>
	<path class="st1" d="M36.4,84.6c0.9,0.4,1.7,0.9,2.6,1.4c0.7,0.4,1.5,0.8,2.2,1.2c1.5,0.9,2.4,2.2,2.4,4c0,0.8,0,1.6,0,2.4
		c0.1,1.2-0.8,2.5-2.1,3c-0.1,0-0.2,0-0.3,0.2c-0.1,0-0.1,0-0.2,0c-0.2-0.1-0.3,0-0.5,0c-8.7,0-17.4,0-26.2,0c-0.2,0-0.4,0-0.5,0
		c-0.1,0-0.2,0-0.3,0c0-0.2-0.2-0.2-0.3-0.2c-1.1-0.4-2-1.7-2-2.9c0-0.7,0-1.4,0-2c0-1.9,0.7-3.3,2.3-4.3c1.6-1,3.2-1.9,4.9-2.8
		c0.3,0,0.4,0.3,0.5,0.5c1.6,2,3.3,3.8,5.5,5.2c0.7,0.5,1.5,0.8,2.2,1.2c0.6,0.3,1.1,0.2,1.6-0.1c1.4-0.7,2.7-1.5,3.9-2.4
		c1.5-1.2,2.7-2.6,3.8-4.1C36.1,84.8,36.1,84.6,36.4,84.6z"/>
	<path class="st2" d="M55.7,96.8c0.1-0.2,0.3-0.1,0.5-0.1c10.9,0,21.7,0,32.6,0c0.2,0,0.4-0.1,0.5,0.1
		C78.1,96.8,66.9,96.8,55.7,96.8z"/>
	<path class="st3" d="M13.8,96.8c0.1-0.2,0.3-0.1,0.5-0.1c8.7,0,17.5,0,26.2,0c0.2,0,0.4-0.1,0.5,0.1C31.9,96.8,22.9,96.8,13.8,96.8
		z"/>
	<path class="st2" d="M93.6,33c-0.2-0.1-0.1-0.3-0.1-0.5c0-7.7,0-15.4,0-23.1c0-0.2-0.1-0.4,0.1-0.5C93.6,16.9,93.6,25,93.6,33z"/>
	<path class="st4" d="M93.6,8.7c-0.2-0.1-0.1-0.3-0.1-0.5c0,0,0.1,0,0.1,0C93.6,8.4,93.6,8.6,93.6,8.7z"/>
	<path class="st5" d="M93.5,33.7c0-0.2-0.1-0.4,0.1-0.5C93.6,33.4,93.6,33.5,93.5,33.7L93.5,33.7L93.5,33.7z"/>
	<path class="st1" d="M32.1,31.5c-0.1,0.7-0.3,1.3-0.6,1.9c-0.1,0.3-0.3,0.4-0.5,0.1c-0.5-0.6-1.2-0.6-1.8-0.4c-0.7,0.2-1,0.9-1,1.5
		c0,0.5,0.2,1,0.6,1.3c0.2,0.2,0.2,0.2-0.1,0.4c-2.2,1.2-4.9,0.9-6.9-0.7c-1.3-1-2-2.3-2.4-3.9c-0.1-0.2,0-0.4,0-0.7
		c-0.1-0.1-0.1-0.2-0.1-0.3c0-1.7,0-3.5,0-5.2c0-0.1,0-0.2,0.1-0.2c0.1-1.5,0.7-2.9,1.7-4c1-1,2.2-1.7,3.6-1.9c0.2-0.1,0.4,0,0.7,0
		c0.2-0.2,0.5-0.1,0.7,0c0.3,0.1,0.5,0,0.8,0.1c2.6,0.5,4.5,2.4,5.2,4.9c0,0.1,0,0.3,0,0.4c0,2,0,4,0,6C32.1,31,32.1,31.2,32.1,31.5
		z"/>
	<path class="st1" d="M57.1,42c-2.9,0-5.8,0-8.7,0c-0.2,0-0.5,0-0.7,0c-0.1,0-0.1,0-0.2-0.1c-0.1,0-0.2-0.1-0.3-0.1
		c-2.5-0.4-4.6-1.4-6.2-3.4c-1.2-1.4-2-3-2.1-4.9c0-0.2,0-0.3-0.2-0.4c0,0-0.1-0.1-0.1-0.1c0-0.2,0-0.5,0-0.7c0-5.3,0-10.6,0-15.9
		c0-1.6,0-3.3,0-4.9c0,0,0,0,0-0.1c0,0-0.1-0.1-0.1-0.1c-0.1,0-0.1,0-0.2,0c-8.7,0-17.4,0-26.1,0c-0.1,0-0.3,0-0.4,0
		c-1.6,0.2-2.9,1.1-4,2.3c-1,1.2-1.4,2.5-1.4,4.1c0,7.5,0,15,0,22.5c0,1.3,0.3,2.5,1,3.5c1.2,1.9,3,3,5.2,3c6.9,0.1,13.8,0,20.7,0
		c0.4,0,0.6,0.1,0.6,0.5c0,1.8,0,3.6,0,5.4c0,0.7,0.4,1.1,1,1c0.3,0,0.5-0.3,0.7-0.5c2.1-2.1,4.1-4.1,6.2-6.2
		c0.2-0.2,0.4-0.3,0.7-0.3c3.2,0,6.4,0,9.5,0c0.2,0,0.4,0,0.5,0c1.7-0.2,3-1,4.1-2.3c0.6-0.7,1.1-1.5,1.2-2.4
		C57.6,41.9,57.3,42,57.1,42z M34,36.5c0.4,0.4,0.9,0.8,1.2,1.3c0.4,0.5,0.4,1.1,0.1,1.7c-0.3,0.5-0.7,0.8-1.4,0.8
		c-0.6,0-1.1-0.2-1.5-0.7c-0.3-0.3-0.6-0.8-1-0.9c-0.4-0.1-0.8,0.4-1.2,0.6c-1,0.5-1.9,0.8-3,0.9c0,0-0.1,0-0.1,0
		c-0.9,0-1.9,0.1-2.8,0c-0.2,0-0.3-0.1-0.5,0c-1.1-0.3-2.2-0.7-3.2-1.3c-2.2-1.4-3.7-3.4-4.3-6c0-0.1,0.1-0.3-0.1-0.4
		c0-0.2,0-0.4-0.1-0.5c0-0.6,0-1.2,0-1.7c0-2,0-3.9,0-5.9h0c0.2-1.1,0.5-2.2,1.1-3.2c1.5-2.6,3.6-4.3,6.6-4.9c0.3-0.1,0.5,0,0.8-0.2
		c0.8,0,1.7,0,2.5,0c0.9,0.2,1.8,0.4,2.6,0.8c1.8,0.8,3.3,2.1,4.3,3.7c0.8,1.2,1.3,2.5,1.4,3.9c0.2,2.3,0.1,4.7,0.1,7
		c0,1.6-0.6,3.1-1.5,4.4C33.8,36.2,33.8,36.3,34,36.5z"/>
	<path class="st6" d="M20.4,83.4c-2.1-0.4-4.3-0.9-6.3-1.7c-1-0.4-1.3-0.8-1.3-1.9c0.1-4.8,0.4-9.5,1.5-14.2
		c0.7-2.7,1.6-5.3,3.3-7.6c2.3-3.2,5.5-4.7,9.4-4.8c2.8,0,5.3,0.5,7.6,2.2c2.1,1.5,3.4,3.6,4.4,6c1.2,2.7,1.8,5.6,2.2,8.6
		c0.4,2.9,0.6,5.7,0.6,8.6c0,0.5,0,0.9,0,1.4c0,0.7-0.3,1.2-1,1.5c-2.1,0.9-4.3,1.4-6.5,1.8c-0.2,0.2-0.4,0-0.6-0.1
		c-1-0.7-1.6-1.6-1.6-2.8c0-0.4,0-0.7,0.1-1.1c0.1-0.3,0.4-0.4,0.6-0.5c1.8-1,2.6-2.5,2.6-4.5c0-2.5,0-5,0-7.5
		c0-0.5-0.1-0.8-0.5-1.2c-0.7-0.7-1.5-1.5-2.2-2.2c-0.4-0.4-0.4-0.4-0.8-0.1c-1.2,0.9-2.5,1.4-3.9,1.8c-1.8,0.5-3.7,0.8-5.5,0.9
		c-0.9,0.1-1.9,0.1-2.8,0.2c0,0-0.1,0-0.1,0.1c-0.1,0.2-0.1,0.4-0.1,0.6c0,2.5,0,5,0,7.6c0,1.8,0.7,3.2,2.2,4.2
		c0.3,0.2,0.6,0.3,0.8,0.6c0.4,1.7-0.1,3.3-1.6,4.1C20.8,83.4,20.6,83.5,20.4,83.4z"/>
	<path class="st7" d="M83.3,60c-0.1,1.2-0.2,2.5-0.2,3.7c0,1.2-0.3,2.5-0.2,3.7c0.1,1-0.2,1.9-0.7,2.7c-1,1.7-2.6,2.6-4.6,2.6
		c-1.5,0-2.9,0-4.4,0c-0.3,0-0.6-0.1-1,0c-0.7,0.2-1.2,0.8-1.2,1.5c0.1,0.7,0.7,1.3,1.4,1.4c0.3,0,0.5,0,0.8,0c1.5,0,3,0,4.5,0
		c1.4,0,2.6-0.3,3.9-0.9c0.2-0.1,0.4-0.3,0.6-0.2c-0.4,1.4-1.3,2.4-2.5,3.2c-0.3,0.2-0.5,0.3-0.7,0.6c-0.6,0.6-1.3,1-1.9,1.5
		c-0.6,0.5-1.3,0.7-2,0.9c-0.3,0-0.5,0.1-0.8,0.1c-1.1,0-2.3,0-3.4,0c-1,0-1.9-0.3-2.7-0.8c-0.5-0.3-0.9-0.7-1.4-1
		c-0.2-0.2-0.5-0.3-0.7-0.3c0-0.3-0.1-0.5-0.3-0.6c-0.6-0.5-1.3-0.9-1.8-1.5c-0.8-0.9-1.1-1.9-1.2-3c-0.1-1.7-0.2-3.4-0.3-5.2
		c-0.1-1.3-0.2-2.5-0.3-3.8c0.5-0.3,1-0.2,1.6-0.2c2.6-0.2,5.3-0.6,7.9-1c3-0.5,5.9-1.1,8.7-2.1c0.8-0.3,1.7-0.6,2.5-1
		C82.9,60,83.1,59.9,83.3,60z"/>
	<path class="st8" d="M83.3,60c-4.6,2.2-9.6,3.1-14.7,3.8c-2,0.3-4,0.5-5.9,0.7c-0.2,0-0.4,0-0.6,0c-0.1-2.1-0.3-4.1-0.4-6.2
		c-0.2-3.4,2.6-6.6,6.3-6.7c3.1,0,6.2-0.1,9.3,0c3.6,0.1,6.3,3.3,6.1,6.9C83.4,59,83.4,59.5,83.3,60z"/>
	<path class="st9" d="M47.5,41.9c-2.1-0.2-3.9-1-5.5-2.3c-1.6-1.4-2.7-3.1-3.1-5.2c-0.1-0.4-0.1-0.8-0.2-1.2c0-0.1-0.1-0.1,0-0.2
		c0-6.8,0-13.7,0-20.5c0-1.5,0-1.2,1.2-1.3c0.5,0,1,0,1.5,0c0.2,0,0.4,0,0.5,0.1c0,0.2,0,0.4,0,0.6c0,6.7,0,13.5,0,20.2
		c0,3.1,2.1,5.8,5.3,6.5c0.4,0.1,0.8,0.1,1.2,0.1c3,0,6.1,0,9.1,0c0.2,0,0.5-0.1,0.6,0.2c-0.1,0.8,0.1,1.6-0.1,2.4
		c0,0.2-0.1,0.3-0.1,0.5C57.7,42,57.4,42,57.2,42c-3.2,0-6.3,0-9.5,0C47.6,42,47.5,42,47.5,41.9z"/>
	<path class="st10" d="M32.3,79.4c0,0.4,0,0.9,0,1.3c0,1.2,1.1,2.4,2.1,2.6c0.2,0.3,0.6,0.4,0.8,0.6c0.4,0.2,0.7,0.4,1.1,0.7
		c-2.1,2.9-4.7,5.4-8,6.9c-0.6,0.3-1.2,0.3-1.9,0c-2.6-1.2-4.7-3.1-6.6-5.2c-0.5-0.6-0.9-1.2-1.4-1.8c0.5-0.3,1.1-0.6,1.6-0.9
		c0.1-0.1,0.3-0.1,0.3-0.3c1-0.2,2-1.4,2.1-2.5c0-0.5,0-1,0-1.5c0.2-0.1,0.3,0,0.4,0.1c0.9,0.6,1.8,1.1,2.8,1.7
		c1.2,0.7,2.3,0.7,3.5,0c0.8-0.5,1.6-1,2.4-1.5C31.8,79.5,32,79.3,32.3,79.4z"/>
	<path class="st10" d="M66.1,78.6c0.2-0.3,0.3-0.1,0.5,0c0.6,0.4,1.2,0.9,1.8,1.3c0.7,0.5,1.5,0.7,2.4,0.7c1,0,2,0,3,0
		c1.4,0.1,2.7-0.4,3.8-1.3c0.5-0.4,0.9-0.8,1.5-1c0.2,1.6,1,2.8,2.6,3.3c0.3,0.1,0.5,0.2,0.8,0.3c-0.6,0.6-1.2,1.1-1.9,1.6
		c-1,0.8-2,1.7-2.9,2.5c-1.1,0.9-2.2,1.9-3.4,2.8c-1,0.8-2.7,0.6-3.7-0.3c-1.3-1.2-2.7-2.3-4.1-3.4c-1.1-0.9-2.3-1.9-3.4-2.9
		c-0.1-0.1-0.3-0.2-0.4-0.3c0.2-0.1,0.4-0.2,0.6-0.2C64.9,81.3,65.8,80.2,66.1,78.6z"/>
	<path class="st11" d="M73.1,72.6c1.5,0,3.1,0,4.6,0c2.4,0,4.5-1.7,4.9-4c0.1-0.4,0.1-0.8,0.2-1.1c0.5-0.8,1.2-1.1,2-0.8
		c0.8,0.3,1.2,1,1,2c-0.3,2.6-1.6,4.5-3.7,5.9c-1.5,0.9-3.1,1.3-4.9,1.3c-1.4,0-2.8,0-4.2,0c0-0.2,0.1-0.3,0.3-0.4
		c0.9-0.7,0.9-1.8,0-2.5C73.3,72.8,73.1,72.8,73.1,72.6z"/>
	<path class="st12" d="M41.9,11.3c-0.8,0-1.6,0-2.4,0c-0.7,0-0.7,0-0.7,0.7c0,6.9,0,13.7,0,20.6c0,0.2,0.1,0.4-0.1,0.6
		c-0.2-0.1-0.1-0.3-0.1-0.5c0-6.9,0-13.8,0-20.8c0-0.1,0-0.3,0-0.4c0-0.1,0-0.1,0.1-0.2c0.7-0.2,1.3,0,2-0.1c0.4,0,0.8,0,1.2,0
		C41.9,11.2,41.9,11.3,41.9,11.3z"/>
	<path class="st9" d="M38.7,11.2c0,0,0,0.1,0,0.1c0,0-0.1,0-0.1,0c-1.6,0-3.2,0-4.7,0c-7.4,0-14.7,0-22.1,0c0.1-0.1,0.3-0.1,0.4-0.1
		C21,11.2,29.8,11.2,38.7,11.2z"/>
	<path class="st13" d="M47.5,41.9c0,0,0.1,0,0.1,0c0.1-0.1,0.3,0,0.4,0c3.2,0,6.4,0,9.6,0c0.1,0,0.3,0,0.4,0c0,0.1,0,0.1-0.1,0.1
		c-0.1,0.1-0.3,0-0.4,0c-3.2,0-6.4,0-9.6,0C47.8,42.1,47.6,42.1,47.5,41.9C47.5,42,47.5,41.9,47.5,41.9z"/>
	<path class="st14" d="M57.9,41.9c-3.4,0-6.9,0-10.3,0c0.2-0.2,0.4-0.1,0.6-0.1c3.3,0,6.5,0,9.8,0C57.9,41.9,57.9,41.9,57.9,41.9z"
		/>
	<path class="st15" d="M47.5,42c3.5,0,6.9,0,10.4,0c0,0,0,0.1,0,0.1c-3.3,0-6.5,0-9.8,0C47.8,42.1,47.6,42.2,47.5,42z"/>
	<path class="st16" d="M71.9,22.6c-2.8,0-5.6,0-8.4,0c-0.3,0-0.4-0.1-0.3-0.4c0.8-3.2,1.5-6.4,2.2-9.6c0.2-0.7,0.5-1.1,1.3-1.2
		c0.6-0.1,1.3-0.1,1.9,0c0.7,0.1,1.1,0.5,1.3,1.2c0.8,3.2,1.5,6.5,2.3,9.7C72.3,22.5,72.2,22.6,71.9,22.6z"/>
	<polygon class="st16" points="16.1,24.4 16.1,24.4 16.1,24.4 	"/>
	<path class="st16" d="M16.2,32.6c-0.1-0.2-0.1-0.3-0.1-0.5C16.2,32.2,16.2,32.4,16.2,32.6z"/>
	<path class="st16" d="M24.4,40.3c-0.2,0.1-0.3,0-0.5,0C24,40.2,24.2,40.2,24.4,40.3z"/>
	<path class="st16" d="M27.1,16.1c-0.8,0-1.7,0-2.5,0C25.4,16,26.2,16,27.1,16.1z"/>
	<path class="st16" d="M27.2,40.3C27.2,40.3,27.2,40.3,27.2,40.3C27.2,40.3,27.2,40.2,27.2,40.3z"/>
	<path class="st16" d="M32.1,31.5c-0.1,0.7-0.3,1.3-0.6,1.9c-0.1,0.3-0.3,0.4-0.5,0.1c-0.5-0.6-1.2-0.6-1.8-0.4
		c-0.7,0.2-1,0.9-1,1.5c0,0.5,0.2,1,0.6,1.3c0.2,0.2,0.2,0.2-0.1,0.4c-2.2,1.2-4.9,0.9-6.9-0.7c-1.3-1-2-2.3-2.4-3.9
		c-0.1-0.2,0-0.4,0-0.7c-0.1-0.1-0.1-0.2-0.1-0.3c0-1.7,0-3.5,0-5.2c0-0.1,0-0.2,0.1-0.2c0.1-1.5,0.7-2.9,1.7-4c1-1,2.2-1.7,3.6-1.9
		c0.2-0.1,0.4,0,0.7,0c0.2-0.2,0.5-0.1,0.7,0c0.3,0.1,0.5,0,0.8,0.1c2.6,0.5,4.5,2.4,5.2,4.9c0,0.1,0,0.3,0,0.4c0,2,0,4,0,6
		C32.1,31,32.1,31.2,32.1,31.5z"/>
	<path class="st17" d="M38.6,11.3C38.6,11.3,38.6,11.3,38.6,11.3c0.1,7,0.1,14.1,0.1,21.1c0,0.2,0,0.4,0,0.6c0,0,0,0.1,0,0.1
		c0,0,0,0,0,0l0,0c-0.1-0.1,0-0.3,0-0.5c0-6.9,0-13.9,0-20.8C38.5,11.7,38.5,11.6,38.6,11.3C38.6,11.4,38.6,11.4,38.6,11.3z"/>
	<path class="st18" d="M38.6,11.4c0,7.3,0,14.5,0,21.8c-0.2-0.1-0.1-0.3-0.1-0.5c0-6.9,0-13.8,0-20.8C38.5,11.8,38.4,11.6,38.6,11.4
		z"/>
	<path class="st19" d="M16,24.4c0,2.5,0,4.9,0,7.4c-0.1-0.1-0.1-0.2-0.1-0.2c0-2.3,0-4.5,0-6.8C15.9,24.7,15.9,24.5,16,24.4L16,24.4
		z"/>
	<path class="st20" d="M35.6,31.6c0-2.3,0-4.5,0-6.8c0,0,0,0,0,0C35.6,27.1,35.6,29.4,35.6,31.6C35.6,31.6,35.6,31.6,35.6,31.6z"/>
	<path class="st21" d="M27.2,40.4c-0.3,0.2-0.7,0.1-1,0.1c-0.5,0-1,0-1.6-0.1C25.4,40.4,26.3,40.4,27.2,40.4L27.2,40.4z"/>
	<path class="st22" d="M27.1,16.1c-0.8,0-1.7,0-2.5,0c0.1-0.2,0.3-0.1,0.4-0.1c0.5,0,1.1,0,1.6,0C26.8,16,27,15.9,27.1,16.1z"/>
	<path class="st21" d="M34.3,40.4c-0.3,0-0.6,0-0.9,0c0,0,0,0,0,0C33.7,40.4,34,40.4,34.3,40.4C34.3,40.4,34.3,40.4,34.3,40.4z"/>
	<path class="st23" d="M16.2,32.6c-0.3-0.1-0.2-0.3-0.1-0.5C16.2,32.2,16.2,32.4,16.2,32.6z"/>
	<path class="st24" d="M24.4,40.3c-0.2,0.2-0.3,0.2-0.5,0C24,40.2,24.2,40.2,24.4,40.3z"/>
	<path class="st24" d="M27.6,40.3c-0.1,0.1-0.3,0-0.4,0.1l0,0c0,0,0,0,0-0.1c0,0,0,0,0.1,0C27.3,40.3,27.4,40.3,27.6,40.3z"/>
	<path class="st21" d="M16.1,24.4C16.1,24.4,16.1,24.4,16.1,24.4L16.1,24.4L16,24C16.2,24.1,16.1,24.3,16.1,24.4z"/>
	<polygon class="st21" points="16.1,24.4 16.1,24.4 16.1,24.4 	"/>
	<path class="st7" d="M32.3,79.4c-0.9,0.5-1.8,1-2.7,1.6c-1.4,0.9-2.8,1-4.3,0.1c-0.9-0.6-1.9-1.2-2.8-1.7c-1.5-0.7-2.6-1.8-3-3.4
		c-0.1-0.4-0.2-0.8-0.2-1.1c0-2.7,0-5.5,0-8.2c0-0.1-0.1-0.3,0.1-0.4c0.1,0.2,0,0.3,0,0.5c0,2.7,0,5.3,0,8c0,0.1,0,0.3,0,0.4
		c-0.1,0,0-0.1,0-0.2c0-2.8,0-5.7,0-8.5c0-0.1,0-0.2,0-0.2c2.8-0.1,5.6-0.3,8.3-1.1c1.5-0.4,3.1-0.9,4.3-2c0.2-0.2,0.3-0.1,0.4,0
		c1,1,1.9,1.9,2.9,2.9c0.1,0.1,0.2,0.3,0.2,0.5c0,2.8,0,5.6,0,8.4c0,1.7-0.8,3-2.2,3.9C32.9,79,32.6,79.2,32.3,79.4z"/>
	<path class="st25" d="M19.5,66.1c0,3,0,6,0,9c0,0-0.1,0-0.1,0C19.4,72.1,19.4,69.1,19.5,66.1C19.5,66.1,19.5,66.1,19.5,66.1z"/>
	<path class="st9" d="M73.1,72.6c0.5,0.3,1,0.7,1.1,1.4c0,0.7-0.2,1.2-0.8,1.5c-0.1,0.1-0.2,0.1-0.2,0.2c-0.6,0.1-1.2,0-1.7-0.4
		c-0.5-0.5-0.6-1.2-0.4-1.8c0.3-0.6,0.9-1,1.7-1C72.9,72.6,73,72.6,73.1,72.6z"/>
	<path class="st26" d="M72.4,75.9c2,0,4.1,0,6.1,0c0,0,0,0,0,0C76.5,76,74.4,76,72.4,75.9C72.4,75.9,72.4,75.9,72.4,75.9z"/>
	<path class="st0" d="M71.9,22.6c-2.8,0-5.6,0-8.4,0c-0.3,0-0.4-0.1-0.3-0.4c0.8-3.2,1.5-6.4,2.2-9.6c0.2-0.7,0.5-1.1,1.3-1.2
		c0.6,0,1.3,0,1.9,0c0.7,0.1,1.1,0.5,1.3,1.2c0.8,3.2,1.5,6.5,2.3,9.7C72.3,22.5,72.2,22.6,71.9,22.6z"/>
	<path class="st27" d="M68.7,11.3c-0.6,0.2-1.3,0.2-1.9,0C67.4,11.2,68,11.2,68.7,11.3z"/>
	<path class="st1" d="M32.1,31.5c-0.1,0.7-0.3,1.3-0.6,1.9c-0.1,0.3-0.3,0.4-0.5,0.1c-0.5-0.6-1.2-0.6-1.8-0.4c-0.7,0.2-1,0.9-1,1.5
		c0,0.5,0.2,1,0.6,1.3c0.2,0.2,0.2,0.2-0.1,0.4c-2.2,1.2-4.9,0.9-6.9-0.7c-1.3-1-2-2.3-2.4-3.9c-0.1-0.2,0-0.4,0-0.7
		c0-1.9,0-3.8,0-5.7c0.1-1.5,0.7-2.9,1.7-4c1-1,2.2-1.7,3.6-1.9c0.2,0,0.4,0.1,0.7,0c0.2-0.2,0.5-0.1,0.7,0c0.2,0.2,0.5,0.1,0.8,0.1
		c2.6,0.5,4.5,2.4,5.2,4.9c0,0.1,0,0.3,0,0.4c0,2,0,4,0,6C32.1,31,32.1,31.2,32.1,31.5z"/>
	<path class="st21" d="M32.1,31.5C32,31.4,32,31.3,32,31.1c0-2,0-4,0-6.1c0-0.1,0-0.2,0.1-0.3c0.1,0.1,0.1,0.2,0.1,0.3
		c0,2.1,0,4.2,0,6.2C32.2,31.3,32.1,31.4,32.1,31.5z"/>
	<path class="st28" d="M19.5,30.7c0,0.1,0,0.3-0.1,0.4c-0.1-0.1-0.1-0.2-0.1-0.3c0-1.7,0-3.5,0-5.2c0-0.1,0-0.2,0.1-0.2
		c0.1,0.1,0.1,0.3,0.1,0.4C19.5,27.4,19.5,29.1,19.5,30.7z"/>
	<path class="st28" d="M26.9,19.5c-0.3,0.1-0.5,0.2-0.8-0.1C26.4,19.5,26.6,19.4,26.9,19.5z"/>
	<path class="st28" d="M25.4,19.5c-0.2,0.2-0.4,0.1-0.7,0C25,19.4,25.2,19.4,25.4,19.5z"/>
</g>
</svg>
