<?xml version="1.0" encoding="utf-8"?>
<!-- Generator: Adobe Illustrator 24.0.2, SVG Export Plug-In . SVG Version: 6.00 Build 0)  -->
<svg version="1.1" id="Layer_1" xmlns="http://www.w3.org/2000/svg" xmlns:xlink="http://www.w3.org/1999/xlink" x="0px" y="0px"
	 viewBox="0 0 512 512" style="enable-background:new 0 0 512 512;" xml:space="preserve">
<style type="text/css">
	.st0{fill:#FFFFFF;}
</style>
<g>
	<g>
		<path class="st0" d="M444.9,347.7c-4.4-3.5-10.8-2.8-14.3,1.6c-4.7,5.8-9.7,11.5-15,16.9c-4,4-3.9,10.5,0.1,14.4
			c2,2,4.6,2.9,7.1,2.9c2.6,0,5.3-1,7.3-3c5.8-5.9,11.3-12,16.4-18.4C450,357.6,449.3,351.2,444.9,347.7z"/>
	</g>
</g>
<g>
	<g>
		<path class="st0" d="M404.9,390.1c-3.4-4.5-9.8-5.4-14.3-2c-38.6,29.2-85.3,46.2-135.2,49c-5.6,0.3-9.9,5.1-9.6,10.8
			c0.3,5.4,4.8,9.6,10.2,9.6c0.2,0,0.4,0,0.6,0c53.9-3,104.5-21.4,146.3-53.1C407.4,401,408.3,394.6,404.9,390.1z"/>
	</g>
</g>
<g>
	<g>
		<path class="st0" d="M504.8,199.9L504.8,199.9c-5.8-22.1-15.1-43.3-27.5-63c-17.7-28-40.9-52-69.2-71.3
			C363.8,35.4,311.2,19.4,256,19.4c-15.4,0-31,1.3-46.1,3.8C167,30.4,126.5,47.9,92.7,73.8c-49.6,38-81.7,91.2-90.3,149.9
			C0.8,234.4,0,245.3,0,256c0,42.1,12.1,83.5,35.1,119.6c22.2,34.9,53.9,64.2,91.7,84.7c0,0,0,0,0,0c21.5,11.6,44.6,20.2,68.7,25.6
			c19.7,4.4,40.1,6.7,60.5,6.7c49.5,0,97.5-13.1,138.9-37.8c40.4-24.2,72.6-58.2,93-98.4c16-31.5,24.1-65.3,24.1-100.4
			C512,237.1,509.6,218.2,504.8,199.9z M412.1,94.1c12.8,10.4,24.2,21.9,34.3,34.5l-20.2-4.6c-6.5-1.5-13.1,0.1-18.2,4.3
			c-5.1,4.2-7.9,10.4-7.7,17.1c0,0.3-0.1,0.5-0.4,0.7l-14.8,9.7c-0.3,0.2-0.6,0.2-0.8,0l-20.9-11.9c-1.9-1.1-2.8-3.3-2.3-5.3l4.7-20
			c0.5-2.2,2.4-3.7,4.6-3.8l17.7-0.5C400,114,409.8,105.3,412.1,94.1z M126.7,414.1l-3,20.8C59.6,394.9,20.4,327.5,20.4,256
			c0-6.3,0.3-12.7,0.9-19.1l13.7,2.2c3.4,0.6,7,0.8,10.4,0.8h6.9c9.6,0,19.1,3.1,26.8,8.9l10.5,7.8c0.9,0.7,1.5,1.7,1.6,2.8
			l1.4,13.1c0.2,2.1-1.2,4-3.4,4.4c-11.9,1.9-20.8,12.4-20.5,24.5l0.8,46.2c0.1,5.3,1.8,10.2,5,14.4l16.6,21.8
			c7.8,10.3,18.5,17.9,30.7,22.1C125.1,407.2,127.2,410.6,126.7,414.1z M192.4,464.2c-17.3-4.4-33.9-10.7-49.6-18.6l4.1-28.6
			c1.9-13.2-5.9-26-18.5-30.3c-8.4-2.9-15.7-8.2-21.1-15.2l-16.6-21.8c-0.5-0.7-0.8-1.5-0.8-2.4l-0.8-46.2c0-2,1.4-3.7,3.4-4
			c12.8-2,21.8-13.8,20.4-26.7l-1.4-13.1c-0.7-6.8-4.3-12.9-9.7-17l-10.5-7.8c-11.2-8.3-25-12.9-39-12.9h-6.9
			c-2.4,0-4.8-0.2-7.2-0.6l-13.9-2.3c9.9-49.5,38.3-94.2,80.8-126.8c30-23,65.8-38.8,103.8-45.8c5.8,4.8,10.2,11,13,18l0.6,1.5
			c1.4,3.7,2.4,7.5,2.9,11.4l0.5,4.4c0.9,7.9-0.3,16-3.5,23.3l-5.6,12.6c-3.6,8.3-9.6,15.2-17.2,20l-6.9,4.4
			c-7,4.4-11.1,12.3-10.7,20.5l0.9,18.7c0.1,0.9-0.4,1.6-0.8,1.9s-1,0.8-2,0.7c-0.8-0.1-1.6-0.6-2-1.3l-8.5-15.8
			c-2.9-5.5-8.1-9.5-14-11.2l-30-8.4c-7.9-2.2-16.3-1.6-23.8,1.8l-7.1,3.3c-15,6.8-23.2,23.5-19.5,39.6c1.5,6.4,4.7,12.2,9.3,16.8
			l19.5,19.5c1.1,1.1,2.2,2.3,3.1,3.5l13.4,16.5c5.9,7.3,14.6,11.4,24,11.4c0,0,0.1,0,0.1,0l36.4-0.1c0,0,0,0,0,0
			c3.7,0,7.2,2,9.1,5.2c4.4,7.5,11.7,12.8,20.2,14.6l13.6,2.9c3,0.6,5.6,2.5,7,5.3l6.6,12.1c2.6,4.8,6.6,8.7,11.6,11.2l31,15.7
			c2.5,1.3,4,4.1,3.7,6.9c-0.2,1.6-1,3.1-2.2,4.3l-11.8,10.4c-3.3,2.9-5.9,6.7-7.4,10.8l-2.6,6.8c-0.8,2.1-2.4,3.8-4.5,4.6
			l-12.5,5.2c-10.7,4.4-17.6,14.7-17.6,26.3c0,1.3-0.3,2.6-0.9,3.7L192.4,464.2z M256,472.2c-14.4,0-28.8-1.2-42.9-3.6l29.4-56
			c2.1-4.1,3.3-8.6,3.3-13.2c0-3.3,1.9-6.2,5-7.5l12.5-5.2c7.3-3,13-9,15.8-16.3l2.6-6.8c0.4-1,1-2,1.9-2.7l11.8-10.4
			c5-4.4,8.1-10.4,9-17c1.4-11.3-4.5-22.4-14.7-27.6l-31-15.7c-1.2-0.6-2.2-1.6-2.9-2.8l-6.6-12.1c-4.3-7.9-11.9-13.5-20.7-15.4
			l-13.6-2.9c-2.9-0.6-5.4-2.4-6.9-5c-5.5-9.5-15.8-15.3-26.7-15.3c0,0-0.1,0-0.1,0l-36.4,0.1c0,0,0,0,0,0c-3.2,0-6.2-1.4-8.2-3.9
			l-13.4-16.5c-1.4-1.8-3-3.5-4.6-5.1l-19.5-19.5c-1.9-1.9-3.3-4.3-3.9-7c-1.5-6.7,1.9-13.6,8.1-16.4l7.1-3.3
			c3.1-1.4,6.6-1.7,9.9-0.8l30,8.4c0.7,0.2,1.2,0.6,1.5,1.2l8.5,15.8c3.6,6.8,10.4,11.2,18,11.9c6.6,0.6,13.2-1.6,18-6.3
			s7.4-11.1,7.1-17.7l-0.9-18.7c0-0.9,0.4-1.8,1.2-2.3l6.9-4.4c11.1-7,19.8-17,25-29.1l5.6-12.6c4.6-10.6,6.4-22.3,5.1-33.8
			l-0.5-4.4c-0.6-5.7-2.1-11.3-4.2-16.6l-0.6-1.5c-2-4.9-4.5-9.6-7.5-13.8h0c7.5-0.7,15-1,22.5-1c49.3,0,96.3,13.7,136.2,39.8
			l0.1,9.4c0,2.6-2.1,4.8-4.7,4.9l-17.7,0.5c-11.5,0.3-21.3,8.3-23.9,19.5l-4.7,20c-2.5,10.8,2.4,22.2,12.1,27.7l20.9,11.9
			c3.3,1.9,6.9,2.8,10.5,2.8c4,0,8-1.2,11.6-3.5l14.8-9.7c6.2-4,9.9-11.1,9.6-18.5c0-0.1,0-0.4,0.3-0.6c0.3-0.3,0.6-0.2,0.7-0.2
			l22.9,5.3c0.6,0.1,1.1,0.2,1.7,0.3l16.2,2.3c7,11.7,12.9,24,17.4,36.6l-15.8-3.8c-0.6-0.1-1.3-0.3-1.9-0.4l-17.3-2.8
			c-18.7-3-37.8,3.3-50.9,17l-2.6,2.7c-7.7,8-12.9,18-15.1,28.9l-6.6,33.2c-2.3,11.6-1,23.4,3.7,34.3c8.2,18.9,26,32.1,46.5,34.5
			l3.2,0.4c8.8,1,17.8,0,26.1-3l10.9-3.9c1.9-0.7,4.1-0.1,5.4,1.5l1.4,1.8c0.7,0.8,1,1.9,1.1,2.9l0.5,17.7
			C429.5,424.1,346.3,472.2,256,472.2z M482.5,315.6l-1.2-1.5c-4.9-6-12.2-9.4-19.6-9.4c-2.8,0-5.7,0.5-8.5,1.5l-10.9,3.9
			c-5.4,1.9-11.2,2.6-16.9,2l-3.2-0.4c-13.3-1.5-24.8-10.1-30.1-22.3c-3-7-3.9-14.7-2.4-22.2l6.6-33.2c1.4-7.1,4.8-13.5,9.8-18.7
			l2.6-2.7c8.5-8.9,20.9-13,33-11l17.3,2.8c0.1,0,0.2,0,0.4,0.1l27.2,6.6c3.4,14.8,5.1,29.9,5.1,45
			C491.6,276.4,488.6,296.4,482.5,315.6z"/>
	</g>
</g>
</svg>
