<?xml version="1.0" encoding="utf-8"?>
<!-- Generator: Adobe Illustrator 25.0.0, SVG Export Plug-In . SVG Version: 6.00 Build 0)  -->
<svg version="1.1" id="Layer_1" xmlns="http://www.w3.org/2000/svg" xmlns:xlink="http://www.w3.org/1999/xlink" x="0px" y="0px"
	 viewBox="0 0 100 100" style="enable-background:new 0 0 100 100;" xml:space="preserve">
<style type="text/css">
	.st0{fill:#3C6FB5;}
	.st1{fill:#6C6E70;}
	.st2{fill:#58585A;}
	.st3{fill:#0D4C90;}
	.st4{fill:#231F20;}
	.st5{fill:#242021;}
	.st6{fill:#232021;}
	.st7{fill:#221F20;}
	.st8{fill:#242020;}
	.st9{fill:#211D1D;}
	.st10{fill:#262121;}
	.st11{fill:#231F21;}
	.st12{fill:#251C1B;}
	.st13{fill:#252020;}
	.st14{fill:#262222;}
	.st15{fill:#1D1A1B;}
	.st16{fill:#626466;}
	.st17{fill:#16427C;}
	.st18{fill:#2E66B3;}
	.st19{fill:#262224;}
	.st20{fill:#2B282A;}
	.st21{fill:#242428;}
	.st22{fill:#474648;}
	.st23{fill:#181617;}
	.st24{fill:#151113;}
	.st25{fill:#515252;}
	.st26{fill:#3B3434;}
	.st27{fill:#363636;}
	.st28{fill:#242222;}
	.st29{fill:#292527;}
	.st30{fill:#29282D;}
	.st31{fill:#3E3735;}
	.st32{fill:#171714;}
	.st33{fill:#151415;}
	.st34{fill:#151212;}
	.st35{fill:#26262E;}
	.st36{fill:#140F0F;}
	.st37{fill:#3064B3;}
	.st38{fill:#292526;}
	.st39{fill:#2C2727;}
	.st40{fill:#131215;}
	.st41{fill:#161314;}
	.st42{fill:#171314;}
	.st43{fill:#171415;}
	.st44{fill:#141213;}
	.st45{fill:#121010;}
	.st46{fill:#61656F;}
	.st47{fill:#1A1011;}
	.st48{fill:#221F21;}
	.st49{fill:#2C476D;}
	.st50{fill:#4173BD;}
	.st51{fill:#292828;}
	.st52{fill:#3E74C1;}
	.st53{fill:#252324;}
	.st54{fill:#0C4B91;}
	.st55{fill:#212738;}
	.st56{fill:#1C436C;}
	.st57{fill:#FAD2B8;}
	.st58{fill:#EEBE8D;}
	.st59{fill:#F0BC97;}
	.st60{fill:#F9D2B8;}
	.st61{fill:#F6CFB6;}
	.st62{fill:#272121;}
	.st63{fill:#252021;}
	.st64{fill:#14131B;}
	.st65{fill:#19151A;}
	.st66{fill:#FDC69E;}
	.st67{fill:#241E1F;}
	.st68{fill:#0D0C0F;}
	.st69{fill:#151215;}
	.st70{fill:#191414;}
	.st71{fill:#1A1414;}
	.st72{fill:#1D1410;}
	.st73{fill:#141315;}
	.st74{fill:#181212;}
	.st75{fill:#39302D;}
	.st76{fill:#211A1D;}
	.st77{fill:#FEDDC1;}
	.st78{fill:#FEFEFE;}
	.st79{fill:#272323;}
	.st80{fill:#151619;}
	.st81{fill:#EFBB97;}
	.st82{fill:#312927;}
	.st83{fill:#E4E4E4;}
	.st84{fill:#F7D1B7;}
	.st85{fill:#919195;}
	.st86{fill:#382F29;}
	.st87{fill:#282627;}
	.st88{fill:#9E9E9F;}
	.st89{fill:#242223;}
	.st90{fill:#FCC7A3;}
	.st91{fill:#F6D2B9;}
	.st92{fill:#6B6C6E;}
	.st93{fill:#EFF0F0;}
	.st94{fill:#262324;}
	.st95{fill:#F9DCC8;}
	.st96{fill:#766257;}
	.st97{fill:#594943;}
	.st98{fill:#C0A390;}
	.st99{fill:#FDDDC5;}
	.st100{fill:#F1EEEF;}
	.st101{fill:#F1F0F0;}
	.st102{fill:#FDDDC3;}
</style>
<g>
	<path class="st0" d="M5.4,53.4c-0.2-0.4-0.2-0.8-0.1-1.2c0.2-0.3,0.1-0.5,0.1-0.7c0.1,0.1,0,0.2-0.1,0.3c-0.2-0.7-0.2-1.4-0.1-2.1
		c0.1-1.5,0.1-2.9,0-4.4C5.2,42.5,5.4,39.7,6,37c0.3-1.5,1-2.8,2.5-3.5c0.2-0.1,0.5-0.1,0.7-0.2c0.2-0.1,0.4-0.1,0.6-0.2
		c0.8-0.2,1.6,0,2.3,0.3c0.9,0.4,1.1,1.1,0.4,1.8c-0.9,0.9-2.1,1.5-3,1.7c2.2-0.6,2.1-0.7,4.2-2.4c1.9-1.5,4.3-2.3,6.8-2
		c0.9,0.1,1.8,0.7,2.4,1.5c0.4,0.5,0.3,0.8-0.2,1.2c-0.7,0.4-1.4,0.9-2,1.4c-3.1,2.5-4.2,5.7-3.8,9.6c0.1,0.9,0.2,1.7,0.3,2.5
		c0.1-0.2-0.1-0.6-0.1-0.9c0-0.3,0-0.3,0.4-0.4c0,0.6,0,1.3,0,1.9c0-0.9,0.1-1.8-0.2-2.7c-0.1-2.5,0.5-4.8,1.7-7
		c0.9-1.6,2.1-3,3.8-3.8c0.2-0.1,0.5,0,0.7,0c1,0.2,2.1,0.1,3.1,0.1c0.8,0,1.6,0,2.4,0c0.4-0.2,0.9,0,1.2-0.4
		c0.1-0.2,0.3-0.3,0.5-0.2c0.4,0.3,0.4,0.6,0.1,1c-1,1-1.4,2.2-1.7,3.5c-0.3,1.3-0.4,2.6-0.5,4c-0.2,2-0.2,4,0,5.9
		c0.1,0.4,0.1,0.9,0.1,1.3c0,0.4,0,0.7,0.1,1.1c0.1,0.2,0.1,0.4,0.1,0.7c0,0.4,0,0.7,0.1,1C29,54,29,54.2,29,54.4
		c0,0.3,0,0.6-0.2,0.8c-0.6,0.1-0.5-0.4-0.6-0.7c-0.4-1.2-0.4-1.3-1.7-1.2c-2.1,0.1-4.3,0.1-6.2-0.7c-1.2-0.5-1.8-0.3-2.5,0.8
		c-0.6,0.8-1.4,1.5-2.2,2c-1.4,0.9-2.6,0.9-3.8-0.3c-1.3-1.2-2.9-1.8-4.6-2.2C6.4,52.6,5.8,52.7,5.4,53.4z"/>
	<path class="st1" d="M88.5,30.6c2.7-0.1,4.2,0.8,5.2,3.3c1,2.5,1.3,5.2,1.3,7.8c-0.1,1.5-0.1,3,0,4.6c0,1.1,0.1,2.3-0.1,3.4
		c-0.4-0.4-0.2-0.9-0.3-1.4c0-0.1,0-0.3,0-0.3c-0.8,1.4-1.6,2.9-3.2,3.8c-0.9,0.5-1.9,0.8-3,0.6c-0.5-0.1-0.9-0.3-1-0.9
		c-0.1-0.6-0.4-1.2-0.6-2c-0.4,0.5-0.5,1-0.7,1.5c-1,2.7-2.2,5.2-3.4,7.8c-0.8,1.7-1.7,3.3-2.6,4.8c-0.3,0.4-0.7,0.8-1.2,0.9
		c-0.2,0.1-0.4,0.1-0.6-0.1c0-0.3,0.1-0.5,0.3-0.7c0.8-1.1,1.4-2.3,1.7-3.6c0.8-2.3,1.4-4.6,1.9-6.9c0.7-3.9,0.8-7.9-0.2-11.8
		c-0.6-2.4-1.7-4.5-3.1-6.5c-0.3-0.4-0.5-0.7-0.5-1.2c0-0.9-1.6-1.3-2.4-0.7c-0.3,0.2-0.6,0.5-0.8,0.9c-0.2,0.3-0.4,0.6-0.8,0.8
		c-0.8,0-1-0.2-0.7-1c0.8-1.6,2-2.6,3.8-2.9c0.8-0.1,1.5-0.1,2.3,0c0.1,0,0.2,0,0.3,0.1c0.3,0.2,0.6,0.2,0.9,0.2c0.1,0,0.3,0,0.4,0
		c0.4,0.1,0.8,0.1,1.2,0.1c0.4,0,0.7,0,1.1,0.1c0.7,0.2,1.4,0.2,2.1,0c0.3-0.1,0.6-0.3,0.9-0.4c0.2-0.1,0.5-0.1,0.7-0.1
		C87.6,30.7,88.1,30.7,88.5,30.6z"/>
	<path class="st2" d="M78.3,64.4c0.6,0.1,1.1-0.3,1.4-0.8c1.9-2.8,3.2-5.8,4.5-8.9c0.8-1.7,1.4-3.5,2.2-5.3c0.1-0.1,0.1-0.2,0.2-0.4
		c0.6,0.8,0.7,1.6,0.9,2.4c0.1,0.5,0.3,0.6,0.7,0.7c1.5,0.4,3.5-0.4,4.5-1.9c0.6-0.9,1.2-1.7,1.7-2.7c0.3,0.2,0.1,0.4,0.2,0.6
		c-0.1,0.7-0.1,1.4,0,2.2c-0.1,3.3-0.5,6.6-1.7,9.7c-0.4,1.1-1,2-1.8,2.8c-0.4,0.3-0.8,0.5-1.3,0.5c-0.7,0-1.4,0-2,0.2
		c-2.3,0.4-4.6,1-6.8,2c-1,0.4-1.9,0.5-3,0.5c-0.7,0-1.3-0.3-1.6-0.9c-0.2-0.2-0.3-0.5-0.1-0.8c0.2-0.3,0.4-0.2,0.7-0.2
		C77.5,64.2,77.9,64.2,78.3,64.4z"/>
	<path class="st3" d="M5.4,53.4c0.1-0.8,0.3-1.1,1.3-0.9c2,0.4,3.9,1.1,5.4,2.6c0.9,0.9,2.2,0.9,3.4,0c1.1-0.8,2.1-1.8,2.9-2.9
		c0.3-0.4,0.5-0.5,1-0.2c1,0.6,2.1,0.7,3.2,0.9c1.4,0.3,2.9,0.2,4.4,0.2c0.8,0,1.1,0.3,1.4,1c0.1,0.4,0.1,0.9,0.5,1.2
		c0.1,0,0.2,0,0.2,0.1c0.2,0.7,0.2,1.4,0.3,2.1c0,0.4-0.1,0.7-0.6,0.8c-2-0.2-4.1-0.1-6.1-0.3c-0.5,0-0.9-0.1-1.4-0.2c0,0,0,0,0,0.1
		c0,0,0,0,0,0c1.5,0.1,3,0.2,4.5,0.2c0.2,0,0.5,0,0.3,0.3c-1,0.3-2,0.1-3,0.1c-0.4,0-0.8,0.1-1.2,0c-0.1,0-0.2-0.1-0.4,0
		c0.1,0,0.1,0,0.2,0c0.2,0.1,0.5,0.2,0.5,0.5c0,0.1,0,0.2-0.1,0.2c-0.6,1-1.4,1.7-2.5,2.1c-1,0.4-1.9,0.3-2.7-0.3
		c-1.4-1.1-2.9-2.1-4.6-2.9c-1-0.4-2-0.6-3-0.8c-0.1,0,0,0.2,0,0.1c0,0,0,0,0.1,0c0.9,0,1.7,0.4,2.4,0.8c0.8,0.4,0.7,1-0.1,1.4
		c-0.8,0.4-1.7,0.4-2.6,0.3C8.9,60.1,8.7,60,8.5,60c-0.3-0.1-0.5-0.2-0.7-0.4c-0.3-0.2-0.5-0.4-0.8-0.6C6.1,57.2,5.6,55.4,5.4,53.4z
		"/>
	<path class="st4" d="M59.4,68.6L59.4,68.6l-0.1,0c-0.5,0.2-0.4-0.2-0.5-0.4c0-0.3,0.2-0.5,0-0.8c0-0.1-0.1-0.2-0.1-0.3
		c0-0.5,0.2-0.9,0-1.4c-0.1-0.4-0.3-0.8-0.7-1c-0.6-0.4-1.4-0.1-2.1-0.4c0,0-0.1-0.1-0.1-0.1c0-0.1,0-0.1,0-0.1
		c0.4-0.2,0.8,0,1.2-0.1c-0.4,0.1-0.7,0-1.1,0c-0.5,0.5-0.2,1.2-0.4,1.8c-0.1,0.2,0.1,0.7-0.5,0.6c-0.2-0.2-0.1-0.5-0.1-0.7
		c-0.1-1.4-1.9-2.6-3.3-2.2c-0.1,0-0.2,0.2-0.3,0.3c0,0.1-0.1,0.2-0.2,0.3c-0.8,0.1-0.3-0.4-0.3-0.7c-0.1,0.3-0.1,0.5-0.4,0.6
		c-0.5-0.1-0.7-0.5-0.9-0.8c-0.8-1.1-3.1-1.2-4-0.2c-0.1,0-0.1,0-0.2-0.1c-0.1-0.1,0.1-0.2,0-0.2c-0.1,0,0,0.1,0,0.2
		c0,0.3,0.1,0.7-0.4,0.7c-0.2-1.1-0.9-1.9-1.6-2.7c0-0.2,0-0.3,0.2-0.4c0.4,0,0.7,0.3,1,0.6c0.4,0.5,0.8,0.7,1.3,0.4
		c0.1-0.1,0.3,0,0.4,0c0.5,0.1,1.1,0.1,1.6,0c0.3,0,0.5,0,0.7,0.1c1.1,0.8,2.3,0.4,3.5,0.3c0.5,0,0.6-0.2,0.4-0.6
		c-0.1-0.3-0.2-0.7-0.1-1.1c0.1-0.8,0.1-1.5,0-2.3c-0.1-1.1,0.3-2.1,0.6-3.1c0.2-0.4,0.3-0.9,0.5-1.3c0.4-0.8,0.8-1.6,1.3-2.4
		c0.4-0.8,0.5-1.7,0.3-2.5c-0.1-0.4-0.3-0.7-0.7-0.9c-2.7-1.2-4.9-3-7.1-4.8c-0.8-0.6-1.5-1.4-1.9-2.3c-0.1-0.2-0.1-0.3-0.1-0.5
		c0-0.3,0-0.5,0.1-0.8c0.3,0.2,0.3-0.3,0.6-0.2c0.6,2.5,2.7,3.4,4.8,4.3c2,0.9,3.9,1.9,5.4,3.5c0.5,0.5,0.7,1,0.6,1.7
		c-0.1,0.4-0.1,0.8,0,1.2c0.1,1.2-0.4,2.2-1,3.2c-1.1,2.1-1.9,4.2-1.8,6.6c0.1,1.5,0.4,2.8,2,3.4c0,0.1,0.2,0.2-0.1,0.2
		c0.1,0.1,0.2,0.1,0.3,0.1c0-0.1-0.1-0.1-0.1-0.2c0.3-0.4,0.7-0.3,1-0.5c1.2-0.7,2-1.7,2.2-3.1c0.1-0.9,0.3-1.7,1-2.4
		c0.2-0.1,0.1-0.2-0.1-0.3c-0.3,0-0.5,0.1-0.8,0.1c-0.6,0.1-1.2,0.1-1.8,0c-0.3,0-0.7,0-0.7-0.4c0-0.4,0.4-0.5,0.7-0.5
		c0.1,0,0.3,0,0.4,0c0.2,0,0.3,0.1,0.4,0.2c0.1,0.1,0.2,0.1,0.3,0.1c-0.1-0.1-0.2,0-0.2-0.2c0.1-0.3,0.5-0.3,0.7-0.3
		c2-0.4,3.4-1.6,4.3-3.6c0.4-1,0.8-2.1,1.3-3.1c0.3-0.1,0.4,0.1,0.5,0.3c0.1,0.6-0.3,1.2-0.3,1.8c-0.2,0.8-0.5,1.6-0.9,2.4
		c-0.3,0.6-0.1,0.9,0.4,1.2c0.6,0.4,1.3,0.6,1.8,1.1c0,0.3-0.1,0.4-0.3,0.5c-0.8,0-1.4-0.5-2.1-0.9c-0.6-0.3-0.9-0.2-1.3,0.2
		c-0.6,0.6-1.1,1.3-1.5,2c-1.1,2.1-1,2.4,1.2,3.3c1.3,0.5,2.6,0.8,4,1.1c0.5,0.1,1,0.1,1.5,0c0.5-0.1,0.9-0.3,1.4-0.3
		c0.3,0.1,0.5,0.1,0.5,0.4c-0.5,0.1-1,0.3-1.5,0.4c-0.8,0.1-1.6,0.1-2.3,0c-0.4,0.2-0.3,0.6-0.4,0.9c-0.7,1.4-1.9,2.2-3.3,2.6
		c-0.4,0.1-0.7,0.4-0.8,0.8c-0.4-0.5-1-0.5-1.6-0.6C59.6,67.2,59.6,67.9,59.4,68.6z"/>
	<path class="st5" d="M45.9,39.1c-0.2,0-0.3,0.6-0.6,0.1c-0.1,0.1-0.1,0.1-0.2,0c-0.1-0.1-0.2-0.2-0.2-0.4c0.1-0.5,0.1-1,0-1.5
		c-0.1-0.3,0-0.6,0.3-0.7c0.8,1.1,1.6,0.4,2.4,0.1c1.2-0.6,2.5-1.1,3.8-1.6c0.7-0.3,0.7-0.6,0.1-0.9c-1.6-0.9-2.6-2.5-4-3.7
		c-0.7-0.6-1.4-1.1-2.3-1.2c-0.5-0.2-1-0.2-1.5,0c-2.3,0.5-4.4,1.6-6.3,2.9c-2.2,1.5-4.2,3.2-6.2,5c-0.6,0.6-1.1,1.2-1.3,2
		c-0.1,0.3-0.2,0.7-0.6,0.8c-0.3,0-0.3-0.2-0.4-0.4c0.2-1.3,0.7-2.5,1.6-3.4c0.3-0.3,0.3-0.5,0-0.8c-0.1-0.2-0.3-0.1-0.4-0.2
		c-0.1-0.2-0.1-0.3,0.1-0.2c0.4-0.2,0.8-0.2,1,0.3c0.2,0.2,0.4,0.2,0.6,0c2-1.7,3.9-3.4,6.2-4.6c1.5-0.9,3.1-1.6,4.7-2.2
		c0.3-0.1,0.6-0.3,1-0.2c0.4,0.1,0.9,0.1,1.3,0c1.2,0,2.2,0.4,3,1.3c1.4,1.7,3,3.2,4.8,4.5c0.5,0.4,0.9,0.8,1.6,0.6
		c0.1,0,0.1,0.1,0.2,0.1c0.2,0.1,0.3,0,0.5-0.1c0.1,0,0.1-0.1,0.2-0.1c0.1-0.1,0.3,0,0.4-0.1c0.2,0,0.4,0,0.6,0
		c1.5-0.1,2.9-0.1,4.4,0c0.2,0,0.4,0,0.6,0c0.1,0.1,0.1,0.1,0.1,0.2C61.1,35,60.8,35,60.5,35c-1.1,0.1-2.2,0-3.3,0
		c-0.1,0-0.2,0-0.3,0c-0.1,0-0.2,0-0.2-0.1c-0.2-0.2-0.5-0.2-0.7-0.1c-0.1,0.1-0.3,0.1-0.4,0.2c-0.1,0.1-0.2,0.1-0.3,0.2
		c-0.8,0.3-1.6,0.4-2.4,0.6c-2.3,0.6-4.4,1.6-6.3,2.9C46.5,39,46.3,39.2,45.9,39.1z"/>
	<path class="st4" d="M22.7,35.8c-3.3,2-4.7,5-5.2,8.6c-0.1,0.6-0.2,1.2-0.2,1.8c0.1,0.3,0.1,0.5,0,0.8c-0.3,0.6,0,1.2-0.2,1.7
		c-1.5-5.3-0.4-10.7,5.3-13.8c0.6-0.3,0.6-0.5,0.2-1c-1.2-1.5-2.8-1.7-4.4-1.3c-1.9,0.4-3.8,1.1-5.2,2.6c-1.1,1.1-2.5,1.7-4.3,1.7
		c1-0.5,1.8-0.8,2.6-1.3c0.6-0.3,1.5-0.7,1.4-1.5c-0.1-0.8-1.1-0.7-1.7-1c-0.4-0.1-0.8-0.1-1.3-0.1c-0.2,0.1-0.2,0-0.2-0.2
		c0.4-0.1,0.8-0.3,1.2-0.2c0.3,0.1,0.6,0,0.9,0.1c0.6,0.2,1.2,0.3,1.6,0.7c0.3,0.2,0.5,0,0.6-0.2c1-0.6,2-1.2,3.2-1.3
		c0.1,0.1,0.2,0.1,0.3,0.1c0.1,0,0.1,0,0.2,0c0-0.1-0.1,0-0.2-0.1c1.3-0.3,2.7-0.3,4,0.1c1.2,0.4,1.9,1.2,2.2,2.4
		c0.1,0.6,0.4,0.6,0.8,0.6c1.7,0,3.4-0.1,5.1,0.1c-0.3,0.3-0.7,0.2-1.1,0.3c-1.6,0-3.2-0.1-4.9,0.2C23.3,35.8,23,35.7,22.7,35.8z"/>
	<path class="st6" d="M60.7,34.8c0.2-0.1,0.3-0.1,0.5-0.2c0.3-0.1,0.6-0.1,0.9,0c1.6,0.3,3.2,0.5,4.7,1c0.3,0.1,0.4-0.1,0.6-0.2
		c0.3-0.2,0.6-0.4,1-0.3c0.1,0.1,0.1,0.1,0.2,0.1c0.1,0,0.1,0,0.2,0c-0.1,0-0.1,0-0.1-0.1c0.3-0.2,0.7-0.1,1.1-0.1
		c0.8,0.1,1.6,0.1,2.4,0c0.4,0,0.6-0.2,0.8-0.6c0.8-2,2.1-3.2,4.3-3.5c0.9-0.1,1.8-0.1,2.6,0c0.5,0.3,1.1,0,1.7,0.2
		c1.2,0.1,2.5,0.1,3.7,0c0.2,0,0.4,0,0.6,0c0.3,0,0.6-0.3,0.7,0.2c-0.3,0.1-0.5,0.2-0.8,0.4c-0.7,0.1-1.5,0.1-2.2,0
		c-0.4,0-0.8,0-1.2,0c-0.4-0.2-0.8,0-1.2-0.2c-0.1,0-0.2,0-0.3,0c-0.3-0.2-0.6,0-0.9-0.1l-0.1,0l-0.1,0c-0.8-0.2-1.7-0.1-2.5,0
		c-1.6,0.4-2.8,1.4-3.5,2.9c-0.3,0.5-0.1,0.8,0.5,0.7c0.1,0.2-0.1,0.3-0.3,0.4c-0.3,0.1-0.6,0-0.9,0.1c0,0,0.1,0.1,0.1,0
		c0,0,0-0.1,0-0.1c0.2,0,0.3-0.1,0.4,0.1c-0.2,0.4-0.5,0.3-0.8,0.3c-1.1,0.2-2.1,0.3-3.4,0.4c2.8,2.7,4,5.8,4,9.5c0,0.4,0,0.7,0,1.1
		c0,0.1,0,0.2-0.1,0.3c-0.1,0.2-0.2,0.5-0.5,0.3c-0.4-0.7-0.5-1.4-0.4-2.2c0.1-0.3,0.3-0.4,0.3-0.7c-0.1,0,0,0.3-0.2,0.3
		c-0.3-0.2-0.3-0.5-0.4-0.8c-0.3-1.4-0.8-2.7-1.4-3.9c-0.6-1.5-1.8-2.4-3.2-3c-1.7-0.8-3.5-1-5.3-1.5c-0.3-0.1-0.6-0.1-0.9-0.1
		c-0.2,0-0.4,0-0.6-0.2C60.7,35,60.7,34.9,60.7,34.8z"/>
	<path class="st7" d="M50.4,64c0.1-0.3,0.3-0.5,0.4-0.8c0.4,0.2-0.2,0.7,0.3,0.9c0.2,1.2-0.3,2.1-0.9,3c-0.5,0.7-1.2,1.2-1.9,1.7
		c-0.9,0.6-0.9,0.6,0,1.1c0.6,0.2,1.3-0.1,1.9,0.2c0,0-0.2,0-0.1-0.1c0.1-0.3,0.4-0.3,0.6-0.2c0.2,0.2,0.4,0.5,0.5,0.8
		c-0.7,0.1-1.4,0.2-2,0.3c-0.3,0-0.6,0.1-0.9-0.1c0.2-0.2,0.4-0.1,0.6-0.1c-0.3,0-0.6-0.1-0.9,0.1c-0.6,0-0.9-0.4-1.2-0.8
		c-0.3-0.2-0.6-0.2-0.9,0c-1.9,1-3.5,0.6-4.7-1.2c-0.3-0.5-0.6-0.7-1.2-0.4c-0.4,0.2-0.8,0.3-1.3,0.2c-0.3-0.1-0.6-0.1-0.8,0
		c-1.8-0.1-2.9-1.4-3.1-3.5c-0.1-0.4,0-0.8-0.1-1.2c0-0.5,0.1-1,0-1.5c-0.1-0.6,0.2-0.9,0.7-1.1c0.1,0,0.2,0,0.2,0
		c0.2,0.4,0.2,0.8-0.1,1.1c-0.2,0.2-0.1,0.4-0.1,0.7c0,0.2,0,0.3,0,0.5c-0.1,0.4-0.1,0.9,0,1.3c0.1,0.5,0.3,1,0.6,1.5
		c0.8,1.2,2.4,1.7,3.8,1.2c1.6-0.6,3-1.4,4.2-2.6c0.4-0.4,0.5-1,1.1-1.3c0.3-0.2,0-0.6,0.3-0.8c0.1,0.2,0.2,0.4,0.2,0.6
		c-0.1,1.6-1.2,2.6-2.3,3.5c-0.3,0.2-0.5,0.4-0.8,0.6c-0.6,0.4-0.6,0.7-0.1,1.2c0.6,0.6,1.3,0.6,2,0.6c1.2-0.1,2.3-0.5,3.4-1.2
		c0.5-0.4,1.1-0.7,1.6-1.1c0.5-0.4,0.9-0.9,1.2-1.5c0.2-0.3,0.1-0.7,0.1-1.1C50.3,64.2,50.3,64,50.4,64z"/>
	<path class="st4" d="M9,60c0.9,0.1,1.8,0.1,2.6-0.3c0.2-0.1,0.6-0.2,0.6-0.5c0-0.3-0.3-0.5-0.6-0.6c-0.8-0.4-1.6-0.7-2.6-0.9
		c1.2-0.2,2.8,0.1,4.2,0.9c1.2,0.7,2.3,1.4,3.4,2.2c1.4,1.1,2.7,1.1,4.1-0.2c0.5-0.4,0.9-0.9,1.3-1.4c0.2,0,0.3,0.2,0.3,0.3
		c-1.3,2.6-3.7,3.9-6.4,2.4c-0.9-0.5-1.7-1.3-2.6-1.7c-0.9-0.5-1.8,0.6-2.8,0.4c-0.2-0.1-0.4,0-0.7,0c-0.3-0.1-0.7,0-0.9-0.3
		C8.9,60.1,9,60,9,60z"/>
	<path class="st6" d="M73.2,46.8c0-0.1,0-0.1,0-0.2c0.1-0.1,0.2,0,0.2,0c0.2,0.3,0.2,0.6,0.2,0.8c0,0.6-0.1,1.1,0.1,1.7
		c0.1,0.5,0.1,1,0.1,1.5c0,0.9,0,1.8,0,2.8c0,0.4,0,0.9-0.1,1.3c-0.1,0.4-0.1,0.7-0.1,1.1c-0.2,0.9-0.2,1.9-0.8,2.8
		c-0.2,0.2-0.3,0.5-0.6,0.6c-0.3,0.1-0.4,0.3-0.3,0.5c-0.1,0.5-0.5,0.8-0.7,1.2c-0.4,0-0.4-0.3-0.4-0.6c0.4-1,0.8-2,0.4-3.2
		c-0.2-0.7-0.5-0.8-1-0.3c-1,0.8-2.2,0.7-3.2-0.2c-0.1-0.3,0.1-0.4,0.3-0.5c0.3,0,0.5,0.1,0.7,0.1c0.4,0.1,0.7,0.2,1.1,0
		c0.9-0.8,1.6-1.8,2.3-2.8c0.2-0.2,0.3-0.6,0.6-0.6c0.2,0,0.3,0.2,0.3,0.4c0,0.2-0.2,0.6,0.2,0.7c0.3,0.1,0.4-0.1,0.5-0.4
		c0-1.5,0.1-3.1-0.1-4.6c-0.1-0.3-0.1-0.6-0.1-0.9C72.8,47.7,73,47.3,73.2,46.8z"/>
	<path class="st5" d="M77.1,64.4c-0.2,0-0.4-0.3-0.6,0c-0.1,0.2,0.1,0.4,0.1,0.5c0.3,0.6,0.9,0.8,1.5,0.9c1.4,0.2,2.6-0.4,3.8-0.8
		c1.9-0.8,3.9-1.3,5.9-1.5c0.1-0.1,0.1-0.1,0.2,0c0.1,0.1,0.1,0.2,0,0.3c-2.7,0.5-5.3,1.6-7.9,2.4c-0.2,0.1-0.4,0.1-0.6,0.1
		c-0.1,0-0.1-0.1-0.2-0.1c-0.1,0-0.1,0-0.2,0c0.1,0,0.1,0,0.1,0.1c-0.2,0.2-0.5,0.2-0.7,0.1c-0.5-0.1-1,0.1-1.5,0
		c-0.7-0.3-0.9-0.9-1.2-1.5c-0.5-1-0.8-2-0.9-3.1c0-0.1,0.1-0.1,0.1-0.2c0-0.1,0-0.2,0-0.2c-0.1,0,0,0.2-0.1,0.2
		c-0.2-0.7-0.3-1.3-0.3-2c0-0.5,0.2-0.5,0.6-0.3c0.3,0.6,0.3,1.3,0.4,1.9c0.2,1.2,0.8,2.1,1.6,3C77.2,64.2,77.2,64.3,77.1,64.4z"/>
	<path class="st8" d="M22.9,58.3c1.1,0,2.1,0,3.2-0.1c0.6-0.2,1.3-0.1,1.9-0.2c0.2,0.1,0.4,0.1,0.7,0.1c0.6,0.1,0.7-0.2,0.5-0.7
		c-0.2-0.7-0.2-1.4-0.2-2.2c-0.2-0.3,0-0.6-0.1-0.9c0-0.2,0-0.4,0-0.6c-0.2-0.3,0-0.7-0.1-1.1c0-0.2,0-0.4,0-0.6
		c-0.1-0.3,0-0.6-0.1-1c0-0.1,0-0.2,0-0.3c0.1-0.1,0.2-0.1,0.3,0c0.2,0.2,0.2,0.5,0.2,0.8c0,0.3,0,0.6,0.1,0.9
		c0,0.2,0.1,0.3,0.1,0.5c0,0.3,0,0.6,0.1,0.9c0.1,1,0.5,1.9,0.8,2.8c0.2,0.5,0.5,0.9,0.9,1.2c0.3,0.2,0.6,0.4,0.7,0.8
		c0,0.2-0.1,0.3-0.2,0.4c-0.3-0.3-0.7-0.4-1.1-0.4c0.1-0.1,0.2-0.1,0.2-0.1c-0.1,0-0.3-0.1-0.5,0.1c-0.1,0.2-0.2,0.3-0.5,0.3
		c-1,0.1-2,0.1-3,0c-0.2,0-0.4,0-0.6,0c-0.4-0.2-0.7,0-1.1-0.1c-0.2,0-0.4,0-0.6,0c-0.1-0.1-0.1-0.1-0.2-0.1
		C23.8,58.5,23.2,58.9,22.9,58.3z"/>
	<path class="st9" d="M51.1,70.4c-0.2-0.2-0.7-0.2-0.3-0.6c0.2-0.3,0.5-0.4,0.8-0.5c1.4-0.5,2.5-1.3,3.3-2.6
		c0.1-0.1,0.2-0.3,0.4-0.3c0.2-0.6,0.3-1.3,0.3-1.9c0-0.3-0.1-0.6,0.4-0.4l0,0c0,0.1,0,0.1,0,0.2c0,0,0,0.1,0,0.1
		c0.1,0.5,0,0.9,0,1.4c0,1.8-1.1,2.9-2.5,3.8c-0.1,0.1-0.3,0.2-0.4,0.2c-1,0.5-1,0.5-0.5,1.4c0,0.1,0,0.2-0.1,0.2
		C51.8,71.2,51.4,70.8,51.1,70.4z"/>
	<path class="st5" d="M31.5,59.1c0-0.2,0.1-0.3,0.2-0.3c0.2-0.1,0.4,0,0.5,0.1c0.9,0.6,1.9,1.2,2.8,1.8c0.2,0.1,0.3,0.2,0.3,0.5
		c-1.1,0.5-0.5,1.6-0.7,2.4c-0.1,0.1-0.1,0.1-0.1,0c0.3-1.5-0.4-2.5-1.7-3.2C32.4,60,32,59.5,31.5,59.1z"/>
	<path class="st10" d="M52.3,71.4c0-0.1,0-0.2,0-0.3c0.2-0.2,0.4-0.2,0.7-0.2c0.4,0,0.7,0,1.1,0c1.1-0.1,2.1-0.6,3-1.3
		c0.3-0.2,0.5-0.6,0.9-0.5c0.1,0.1,0.3,0.2,0.1,0.4c-0.9,0.8-1.9,1.6-3.1,2C54.1,71.9,53.1,72,52.3,71.4z"/>
	<path class="st11" d="M75.1,59.3c-0.3-0.2-0.5-0.1-0.6,0.2c-0.7-0.2-1.5,0.2-2.2-0.1c-0.1-0.1-0.4,0-0.3-0.3c0.4,0,0.3-0.4,0.5-0.5
		c0.1,0.1,0.2,0.2,0.4,0.2c0.4,0.1,0.9,0.1,1.3-0.1c0.7-0.2,1.3-0.7,2.1-0.8c0.5,0.1,1.1,0.1,1.7,0.1c0.4,0,0.8-0.1,1.1,0.3
		c0,0.1-0.1,0.2-0.2,0.2c-1.2,0.3-2.3,0.6-3.5,0.8C75.3,59.4,75.2,59.4,75.1,59.3z"/>
	<path class="st12" d="M23.4,35.7c0.8-0.4,1.7-0.3,2.5-0.3c1.2,0,2.4,0,3.6,0c0.3-0.1,0.4-0.7,0.9-0.3c-0.2,0.3,0.4,0.1,0.3,0.4
		c-0.2,0-0.3,0.1-0.3,0.3c-1.8,0.3-3.7,0.1-5.5,0.2C24.3,35.8,23.8,36,23.4,35.7z"/>
	<path class="st13" d="M59.4,68.6c-0.3-0.8,0.2-1.5-0.1-2.4c0.7,0.3,1.6-0.1,1.9,0.9C60.8,67.9,60.2,68.3,59.4,68.6z"/>
	<path class="st14" d="M70.9,60.5c0.1,0.2,0.2,0.4,0.3,0.5c-0.4,0.7-1,1.1-1.7,1.3c-0.2-0.1-0.3-0.2-0.5-0.3c0.4-0.7,1.1-1,1.6-1.6
		C70.7,60.4,70.8,60.4,70.9,60.5z"/>
	<path class="st13" d="M58.1,69.5c-0.1-0.1-0.1-0.3-0.2-0.4c0.1-0.7,0.5-1.3,1-1.7c0.1,0.1,0.5,0.2,0.2,0.5
		c-0.2,0.2-0.3,0.6,0.2,0.7C58.7,68.8,58.5,69.3,58.1,69.5z"/>
	<path class="st15" d="M22.9,58.3c0.4,0.4,1.1-0.1,1.5,0.3c-0.5,0.2-1,0.1-1.4,0c-0.6,0-0.3,0.6-0.6,0.8c-0.1-0.1-0.2-0.2-0.3-0.3
		c0,0,0,0,0,0c0.3-0.7-0.4-0.3-0.5-0.5c-0.1,0-0.2,0-0.3,0c-0.1-0.3,0.2-0.2,0.3-0.3C22,58.3,22.4,58.3,22.9,58.3z"/>
	<path class="st16" d="M94.9,46.3c-0.3-0.7-0.2-1.4-0.1-2c0-0.8-0.2-1.7,0.1-2.5C95,43.3,95,44.8,94.9,46.3z"/>
	<path class="st17" d="M9,60.2c0.3,0.1,0.6,0.2,0.8,0.3c-1.2,0-2.2-0.5-2.9-1.5c0.4,0,0.7,0.2,0.9,0.5c0.2,0.2,0.3,0.2,0.5,0.3
		C8.5,60,8.8,59.9,9,60.2z"/>
	<path class="st18" d="M5.1,45.3c0.2,1.5,0.3,2.9,0,4.4C5,48.2,5,46.8,5.1,45.3z"/>
	<path class="st19" d="M60.7,34.5c-1.5,0-2.9,0-4.4,0C57.7,34.2,59.2,34.2,60.7,34.5z"/>
	<path class="st20" d="M85.3,31c-1.2,0.3-2.5,0.3-3.7,0C82.8,31,84,31,85.3,31z"/>
	<path class="st21" d="M26.7,59c1,0,2,0,3,0C28.7,59.3,27.7,59.2,26.7,59z"/>
	<path class="st22" d="M88.1,63.4c-0.1,0-0.1,0-0.2,0c0.7-0.2,1.3-0.2,2,0c-0.3,0.1-0.7,0.2-1,0.2C88.7,63.3,88.4,63.6,88.1,63.4z"
		/>
	<path class="st19" d="M79.9,30.8c-0.9,0-1.8,0-2.6,0C78.1,30.5,79,30.5,79.9,30.8z"/>
	<path class="st23" d="M72.2,34.8c-0.8,0.3-1.6,0.2-2.4,0C70.7,34.8,71.4,34.7,72.2,34.8z"/>
	<path class="st24" d="M77.1,66.4c0.5-0.3,1-0.2,1.5,0C78.2,66.5,77.6,66.6,77.1,66.4z"/>
	<path class="st25" d="M94.7,50.4c-0.3-0.7-0.2-1.4,0-2.2c0,0.5,0,1,0.1,1.5C94.7,49.9,94.7,50.2,94.7,50.4z"/>
	<path class="st26" d="M65.7,62.7c0.8,0,1.6,0,2.3,0C67.3,62.9,66.5,62.9,65.7,62.7z"/>
	<path class="st27" d="M88.5,30.6c-0.4,0.2-0.8,0.2-1.2,0.3c-0.1-0.1-0.2-0.1-0.2-0.2C87.5,30.5,88,30.6,88.5,30.6z"/>
	<path class="st28" d="M72.1,59.1c0.1,0.1,0.2,0.2,0.3,0.3c-0.3-0.1-0.3,0.2-0.5,0.4C71.3,59.4,72,59.4,72.1,59.1z"/>
	<path class="st29" d="M87.1,30.8c0.1,0.1,0.1,0.1,0.2,0.2C87,31,86.8,31,86.6,31.1c-0.2-0.2-0.5-0.1-0.7-0.2
		C86.3,30.7,86.7,30.8,87.1,30.8z"/>
	<path class="st23" d="M45.7,69.8c0.3-0.3,0.7-0.3,1-0.1c0,0,0,0.1,0,0.1c0,0,0,0-0.1,0.1C46.4,69.8,46,69.8,45.7,69.8z"/>
	<path class="st30" d="M22.9,58.7c0.5,0,1,0,1.4,0c0,0,0,0.1,0,0.1C23.9,58.8,23.4,58.8,22.9,58.7z"/>
	<path class="st31" d="M34.6,63.5c0,0,0.1,0,0.1,0c0,0.5,0,0.9,0,1.4C34.5,64.5,34.5,64,34.6,63.5z"/>
	<path class="st32" d="M45.2,28.2c-0.4,0.2-0.9,0.2-1.3,0C44.3,28.2,44.7,28.2,45.2,28.2z"/>
	<path class="st33" d="M88.1,63.4c0.3,0,0.6-0.1,0.8,0.1c-0.3,0.1-0.6,0.1-0.8,0.2C88.1,63.6,88.1,63.5,88.1,63.4z"/>
	<path class="st34" d="M47.9,70.6c0.3-0.3,0.7-0.1,1,0c-0.2,0-0.5,0.1-0.7,0.1C48.1,70.6,48,70.6,47.9,70.6z"/>
	<path class="st35" d="M9.5,33c0.1,0.1,0.1,0.1,0.2,0.2c-0.2,0.1-0.4,0.1-0.5,0.2C9,33.4,9,33.3,9,33.2C9.2,33.1,9.3,33,9.5,33z"/>
	<path class="st36" d="M31.9,35.3c0.1,0.3-0.2,0.2-0.2,0.2c-0.1,0-0.4,0.2-0.3-0.2C31.6,35.3,31.8,35.3,31.9,35.3z"/>
	<path class="st21" d="M25,58.8c0.4,0,0.8-0.1,1.1,0.1C25.7,59,25.3,59,25,58.8z"/>
	<path class="st37" d="M5.3,51.8c0-0.1,0-0.3,0.1-0.6c0.1,0.5,0.2,0.8-0.1,1C5.3,52.1,5.3,51.9,5.3,51.8z"/>
	<path class="st38" d="M11.6,32.9c-0.3,0-0.7,0.1-0.9-0.1C11,32.8,11.3,32.7,11.6,32.9z"/>
	<path class="st19" d="M55.7,34.5c-0.1,0.1-0.2,0.1-0.4,0.2c-0.2,0.1-0.4,0.1-0.5,0C55.1,34.5,55.4,34.5,55.7,34.5z"/>
	<path class="st39" d="M62.2,34.6c-0.3,0-0.6,0-0.9,0c0-0.1,0-0.1,0-0.2C61.6,34.5,61.9,34.5,62.2,34.6z"/>
	<path class="st40" d="M54.8,34.6c0.2,0,0.4,0,0.5,0c0,0.1,0,0.1,0,0.2c-0.3,0.1-0.6,0.1-0.8,0c0,0,0-0.1,0-0.1
		C54.6,34.7,54.7,34.6,54.8,34.6z"/>
	<path class="st41" d="M68.8,35c0.1,0,0.3,0,0.5,0.1c-0.4,0.1-0.6,0.2-0.8-0.1C68.6,35,68.7,35,68.8,35z"/>
	<path class="st42" d="M79.4,66.3c-0.1,0-0.3,0-0.5-0.1c0.4-0.1,0.6-0.2,0.8,0C79.6,66.2,79.5,66.3,79.4,66.3z"/>
	<path class="st43" d="M74.9,61.6c0-0.1,0-0.3,0.1-0.5c0.1,0.4,0.2,0.6,0,0.8C74.9,61.8,74.9,61.7,74.9,61.6z"/>
	<path class="st44" d="M37.7,68.4c0.3-0.2,0.6-0.2,0.8,0C38.3,68.5,38,68.5,37.7,68.4z"/>
	<path class="st45" d="M30.2,58.7c0.1-0.3,0.4-0.2,0.7-0.2c-0.1,0.2-0.3,0.1-0.4,0.2C30.3,58.7,30.2,58.7,30.2,58.7z"/>
	<path class="st46" d="M9,33.2c0.1,0.1,0.1,0.1,0.2,0.2c-0.2,0.2-0.5,0.1-0.7,0.2C8.6,33.3,8.8,33.2,9,33.2z"/>
	<path class="st47" d="M17.4,32.1c0.1,0,0.3,0,0.5,0.1c-0.3,0.1-0.6,0.2-0.8,0C17.2,32.1,17.3,32.1,17.4,32.1z"/>
	<path class="st48" d="M28.6,50.9c0,0.1,0,0.1,0,0.2c0,0.1-0.1,0.1-0.1,0c0-0.4,0-0.9,0-1.3c-0.1-2.1-0.1-4.1,0-6.2
		c0-1.4,0.1-2.7,0.5-4c0.1,0.1,0.2,0.2,0.4,0.3c0.4,0.7,0,1.4,0,2.1c-0.4,2.1-0.4,4.3-0.4,6.4c0,0.3,0,0.6,0,0.9
		C28.8,49.9,29,50.4,28.6,50.9z"/>
	<path class="st49" d="M23.4,35.7c2.3,0,4.6,0,6.9,0c-0.4,0.3-0.8,0.3-1.2,0.2c-1.9,0.1-3.8,0.1-5.7,0c-0.2,0-0.5,0-0.7,0
		C22.9,35.6,23.1,35.7,23.4,35.7z"/>
	<path class="st50" d="M23.4,35.9c1.9,0,3.8,0,5.7,0c-0.1,0.1-0.2,0.3-0.2,0.3c-1.7-0.4-3.5-0.1-5.2-0.2
		C23.6,36,23.5,35.9,23.4,35.9z"/>
	<path class="st51" d="M28.4,43.6c0,2.1,0,4.1,0,6.2C28.2,47.7,28.2,45.6,28.4,43.6z"/>
	<path class="st52" d="M17.3,47.1c0-0.3,0-0.5,0-0.8c0.4,0.9,0,1.9,0.2,2.9c-0.1,0-0.1,0-0.2,0C17.3,48.5,17.3,47.8,17.3,47.1z"/>
	<path class="st53" d="M28.6,52.7c0.3,0.3,0.1,0.7,0.1,1.1C28.6,53.5,28.6,53.1,28.6,52.7z"/>
	<path class="st53" d="M28.5,51c0,0,0.1,0,0.1,0c0,0.4,0,0.7,0,1.1C28.4,51.8,28.5,51.4,28.5,51z"/>
	<path class="st53" d="M28.8,54.4c0.3,0.3,0.1,0.6,0.1,0.9c0,0-0.1,0-0.1,0C28.8,55,28.8,54.7,28.8,54.4z"/>
	<path class="st11" d="M79,58.3c-0.9-0.2-1.8,0.3-2.7-0.2c0.1-0.1,0.1-0.1,0.2-0.2c0.7-0.2,1.5,0,2.2-0.2c0.4-0.1,0.8-0.2,1.3-0.2
		c0.2,0,0.4,0.1,0.6,0c0-0.1,0.1-0.1,0.1-0.2c0.1-0.2,0.1-0.4,0.2-0.5c0.6-3.2,1.1-6.4,1-9.7c-0.1-3.2-0.7-6.3-2.1-9.2
		c-0.4-0.9-0.9-1.9-1.5-2.7c-0.4-0.5-0.8-0.7-1.4-0.5c-0.7,0.2-1.5,0.4-2.2,0.5c-0.3,0.1-0.6,0.1-0.9-0.1c-0.1-0.1-0.1-0.3,0-0.4
		c0.1,0,0.3,0,0.3-0.2c0.5-0.3,0.6-0.9,1-1.3c0.9-1,2.3-1,3.2,0c0.1,0.1,0.2,0.2,0.2,0.3c-0.4,0.7,0.2,1.1,0.5,1.5
		c2.4,3.4,3.6,7.2,3.7,11.4c0.1,2.7-0.1,5.3-0.7,7.9c-0.5,1.8-0.7,3.7-1.5,5.4c-0.1,0.2-0.1,0.4-0.1,0.6c-0.4,0.1-0.4-0.2-0.5-0.5
		c0-0.5,0.1-1,0.3-1.4c-0.2-0.3-0.5,0-0.7,0C79.4,58.5,79.2,58.5,79,58.3z"/>
	<path class="st11" d="M80.2,59.8c0,0.2,0.1,0.4,0.3,0.5c-0.5,1.5-1.1,2.9-2.2,4.1c-0.4,0.3-0.8,0-1.2,0c0-0.1,0-0.1,0-0.2
		c1.6-0.8,2.1-2.3,2.6-3.9C79.8,60.1,79.8,59.8,80.2,59.8z"/>
	<path class="st19" d="M77.3,31.1c0.8-0.2,1.7-0.3,2.5,0C79,31.1,78.2,31.1,77.3,31.1z"/>
	<path class="st19" d="M83.5,31.5c0.7,0,1.5,0,2.2,0C85,31.7,84.3,31.7,83.5,31.5z"/>
	<path class="st20" d="M81.2,31.3c0.4,0,0.8-0.2,1.2,0.2C82,31.4,81.6,31.5,81.2,31.3z"/>
	<path class="st19" d="M80,31.1c0.3,0,0.6-0.1,0.9,0.1C80.6,31.3,80.2,31.3,80,31.1z"/>
	<path class="st54" d="M28.1,58.3c-0.7,0-1.4,0-2,0c-0.5-0.2-1-0.1-1.5-0.1c-1.3,0-2.5,0.1-3.8-0.2c0.1-0.2,0.3-0.3,0.6-0.2
		c1.7,0.3,3.3,0.3,5,0.3c0.8,0,1.6-0.4,2.4,0.1C28.6,58.3,28.3,58.1,28.1,58.3z"/>
	<path class="st21" d="M28.1,58.3c0.2-0.2,0.5-0.1,0.7-0.2c0.3-0.1,0.3-0.4,0.3-0.7C29.4,58.3,29.3,58.3,28.1,58.3z"/>
	<path class="st30" d="M21.5,58.3c-0.1,0.1-0.2,0.2-0.3,0.3c-0.2,0-0.4,0-0.4-0.1C20.9,58.1,21.3,58.4,21.5,58.3z"/>
	<path class="st30" d="M21.5,58.7c0.3,0,0.6-0.1,0.8,0.2c0.1,0.1-0.1,0.2-0.2,0.3C22.1,58.7,21.6,58.9,21.5,58.7z"/>
	<path class="st55" d="M9,60.2c-0.3,0-0.5-0.1-0.7-0.3c0.1-0.1,0.1-0.1,0.2,0c0.2,0,0.4,0,0.5,0.2C9,60,9,60.1,9,60.2z"/>
	<path class="st56" d="M8.5,59.8c-0.1,0-0.1,0-0.2,0c-0.2,0-0.4-0.1-0.5-0.3C8.1,59.5,8.3,59.6,8.5,59.8z"/>
	<path class="st57" d="M29.1,41.9c0.1-0.7,0.1-1.3,0.2-2c0.1-0.1,0.2-0.1,0.2-0.2C29.9,38,31,37,32.2,36c2.2-1.9,4.4-3.7,7-5.2
		c1.4-0.8,2.9-1.4,4.5-1.8c0.6,0,1.1,0,1.7,0c0.9,0.1,1.7,0.5,2.3,1.1c0.7,0.8,1.5,1.6,2.3,2.4c0.5,0.6,1.1,1,1.8,1.4
		c0.3,0.2,0.6,0.4,0.6,0.8c0,0.4-0.4,0.4-0.7,0.5c-1.6,0.6-3.1,1.3-4.7,2c-1.1,0.5-1.1,0.5-1.7-0.6c-0.2-0.1-0.2-0.2-0.2-0.4
		c0-0.1,0.1-0.3,0.1-0.4c0-0.1,0,0,0-0.1c0,0,0,0-0.1,0C45,36,45,36.2,45,36.4c-0.2,0.8,0,1.6,0,2.5c0.1,0.1,0.1,0.2,0.2,0.3
		c0.1,0.3,0,0.6,0.1,0.9c0.1,0.7,0.5,1.2,1,1.7c2.4,2.2,5,4.2,8,5.6c0.5,0.2,0.8,0.5,0.9,1.1c0.2,1,0.1,2-0.4,2.9
		c-0.4,0.7-0.7,1.4-1.1,2.1c-1,1.4-1.8,3-2,4.8c-0.3,2.5-0.3,2.5-2.7,2.6c-0.3,0-0.7,0.1-1,0.1c-0.8,0.1-1.5,0-2.2-0.7
		c-1.1-1.1-2.4-1.8-4.2-1.7c-1.5,0.1-3-0.2-4.4-0.4c-0.6-0.1-1.2-0.4-1.7-0.7c-2.1-1.6-3.8-3.5-5-5.8c-1.1-2.1-1.7-4.3-1.6-6.7
		C29,43.9,29,42.9,29.1,41.9z"/>
	<path class="st57" d="M60.7,35c0.2,0,0.4,0,0.6,0c0.3,0.1,0.6,0,0.9,0.1c1.9,0.4,3.8,0.7,5.6,1.5c1.4,0.7,2.6,1.4,3.1,3
		c0.6,1.7,0.9,3.5,1,5.3c0.2,2.6-0.4,5.1-1.7,7.4c-0.7,1.3-1.9,1.7-3.3,1.2c-1.1-0.4-2-1-2.1-2.4c-0.1-0.6,0.3-1.1,0.3-1.7
		c-0.1-0.1,0.2-0.6-0.3-0.3c-0.4,1.2-0.8,2.4-1.3,3.6c-0.9,1.9-2.4,3-4.5,3.4c-0.2,0-0.3,0.1-0.5,0.1c-0.1,0.1-0.2,0.1-0.3,0
		c-0.9,0-0.9,0-1.4,0.5c1,0,1.9,0,2.8,0c0.3-0.1,0.7-0.1,0.8,0.3c-0.6,0.6-0.8,1.4-1,2.2c-0.3,2.1-1.4,3.4-3.5,3.9l-0.1,0
		c-1.4-0.4-2.1-1.3-2.2-3c-0.3-2.7,0.6-5.2,1.9-7.5c0.5-0.9,1-1.9,0.9-3c-0.1-0.4-0.1-0.8,0-1.2c0.1-0.9-0.4-1.4-1-1.9
		c-1.6-1.5-3.6-2.4-5.6-3.3c-1.1-0.5-2.2-1.1-3-1.9c-0.6-0.6-1.3-1.3-1-2.3c2.9-2.1,6.1-3.4,9.6-3.9c0.3-0.1,0.6-0.2,0.9-0.3
		c0.2,0,0.3,0,0.5,0.1c0.1,0,0.1,0,0.2,0C58.3,34.9,59.5,34.9,60.7,35z"/>
	<path class="st58" d="M29.1,41.9c0,1,0,2.1,0,3.1c0.1,3.5,1.2,6.6,3.4,9.3c0.9,1.1,2,2.1,3.1,3c1,0.8,2.3,0.7,3.4,0.9
		c1.4,0.1,2.8,0.1,4.1,0.2c1.1,0.1,2.1,0.9,2.8,1.7c0.5,0.5,1,0.7,1.6,0.6c0.9-0.2,1.8-0.2,2.8-0.1c0.5,0,0.7-0.1,0.8-0.6
		c0.3-1.7,0.5-3.4,1.3-4.9c0.3-0.6,0.6-1.2,1.2-1.6c-0.5,1.4-1.2,2.8-1.2,4.4c0,0.8,0.1,1.6,0,2.4c0,0.6,0.3,1.2,0.4,1.8
		c-0.9,0-1.8,0-2.6,0.3c-0.3,0.1-0.5,0-0.7-0.1c-0.6-0.3-1.2-0.7-1.9-0.7c-0.6,0-1.1,0-1.7,0c-0.9,0.5-1.5,0.1-2-0.6
		c-0.1-0.2-0.4-0.3-0.6-0.5c-0.2-0.1-0.4-0.1-0.6-0.2c-1.3-0.7-2.6-0.5-3.9,0.1c-0.6,0.2-1.1,0.6-1.6,1c-0.9,0.6-1.1,0.6-1.9-0.2
		c0,0-0.1-0.1-0.1-0.1c-1.2-0.8-2.4-1.6-3.7-2.4c-1.9-1.1-2.3-2.9-2.6-4.9c-0.2-0.3,0-0.6-0.1-0.9c0-0.2,0-0.3,0-0.5
		c-0.1-0.3,0-0.6-0.1-0.9c0-0.3,0-0.5,0-0.8c-0.2-0.5,0-1.1-0.1-1.6c0-2.3-0.1-4.5,0.3-6.8C29,42.3,29,42.1,29.1,41.9z"/>
	<path class="st57" d="M70.9,60.5c0,0-0.1,0-0.1,0C70.2,60.9,69.6,61,69,61c-2,0.1-4.1,0.3-6-0.5c-1.4-0.6-2.1-1.5-2-2.9
		c0.4-1,1.2-1.7,1.8-2.5c0.3-0.3,0.4-0.2,0.7,0c0.7,0.5,1.4,1,2.3,1.2c0.5,0.1,0.9,0.1,1.2,0.5c0.6,0.4,1.4,0.5,2.1,0.7
		c0.3,0.1,0.5,0,0.6-0.3c0.1-0.1,0.2-0.3,0.3-0.4c0.7-0.5,1.1-0.9,1.4,0.4C71.7,58.4,71.5,59.4,70.9,60.5z"/>
	<path class="st58" d="M64.8,51.2c0.5,1.1,1.3,2,2.6,2.3c1,0.2,1.9-0.1,2.4-1c1.5-2.5,2.1-5.2,1.8-8.1c-0.2-1.6-0.6-3.1-0.7-4.7
		c0.9,1.5,1.2,3.1,1.7,4.8c0.1,0.1,0.1,0.2,0,0.3c0,0.8,0.2,1.6,0.4,2.4c0,0.1,0.1,0.2,0,0.3c-0.1,1.3,0.1,2.6-0.2,3.9
		c-0.1,0.3,0,0.6-0.2,0.9c-0.2,0.3-0.3,0.7-0.7,0.9c-0.7,1.3-1.7,2.5-2.7,3.6c-0.4,0.2-0.8,0.1-1.2,0c-0.2,0-0.5,0-0.6-0.2
		c-0.4-0.1-0.9,0-1.2-0.5c-0.9-0.3-1.5-0.9-2.3-1.3c-0.3-0.1-0.3-0.3-0.2-0.6C64,53.1,64.4,52.2,64.8,51.2z"/>
	<path class="st57" d="M44.9,63.5c-0.3,0.5-0.5,1-0.9,1.3c-2.8,0.7-5.5,0.6-8.1-0.9c-0.4-0.2-0.8-0.5-0.8-1c0-0.3,0-0.6,0.3-0.7
		c0.3-0.1,0.6,0,0.8,0.3c0.4,0.6,0.7,0.3,0.9-0.1c0.5-0.8,1.2-1.5,2.1-1.9c0.4-0.2,0.8-0.4,1.2-0.3c0.5,0.1,0.9,0.1,1.4,0
		c0.6,0,1.1,0.1,1.5,0.7C44.2,61.6,45,62.3,44.9,63.5z"/>
	<path class="st57" d="M43,66.7c0.9-0.8,1.8-1.6,2.2-2.8c0.1-0.2,0-0.3,0-0.5c0.1-0.1,0-0.4,0.2-0.5c0.1-0.4,0.3-0.6,0.7-0.7
		c2-0.4,3.1,0,4.3,1.8c0,0.1,0,0.2,0.1,0.3c0.1,0.4,0.1,0.8,0,1.2c-0.3,0.6-0.6,1.2-1.2,1.5c-2,1-4,0.7-6,0.2
		C43.1,67.1,42.9,67,43,66.7z"/>
	<path class="st59" d="M58.9,67.4c-0.3,0.6-0.6,1.2-1,1.7c-1,1-2.2,1.9-3.7,2c-0.4-0.1-0.8-0.1-1.2,0c-0.2,0-0.4,0-0.7,0
		c-0.3-0.2-0.7-0.4-0.6-0.9c0.1-0.4,0.5-0.4,0.8-0.5c1.8-0.7,3-1.9,3.2-3.9c0-0.1,0.1-0.2,0.1-0.3c0.8-0.2,1.7-0.3,2.4-0.9
		c0.4,0.2,0.6,0.5,0.7,1c0.1,0.5-0.1,1,0,1.5C58.8,67.2,58.9,67.3,58.9,67.4z"/>
	<path class="st59" d="M55,66.7c-0.9,1.7-2.4,2.6-4.2,3.1c-0.3,0-0.5,0-0.7,0.1c-0.6,0.2-1.2,0.2-1.7,0c-0.3-0.3-1,0.2-1.1-0.4
		c-0.1-0.6,0.5-0.7,0.9-1c1.2-0.9,2.3-1.8,2.7-3.3c0.1-0.4,0.1-0.9,0.2-1.3c0-0.1,0-0.2,0-0.3c0.2,0,0.3,0.2,0.3,0.3
		c0.1,1.3,1.1,1.7,2.1,2.1C54,66.4,54.6,66.3,55,66.7z"/>
	<path class="st58" d="M57.9,63.6c0.6-0.4,1.1-0.8,1.4-1.3c0.4-0.7,0.8-0.7,1.5-0.5c1.1,0.4,2.3,0.7,3.4,1c0.5,0.1,0.6,0.4,0.4,0.8
		c-0.2,0.5-0.6,0.9-1,1.2c-0.6,0.4-1.3,0.7-1.8,1.2c-0.4,0.3-0.8,0.1-1.2,0.2c-0.6,0.2-0.6-0.3-0.8-0.7
		C59.3,64.7,58.6,64.1,57.9,63.6z"/>
	<path class="st58" d="M60.9,57.6c0.6,2.6,2.4,3,4.7,3.2c1.7,0.1,3.4,0.1,5.1-0.3c-0.4,0.7-1.1,1.1-1.7,1.5
		c-0.4,0.1-0.9,0.2-1.3,0.4c-0.5,0.1-1,0.1-1.5,0c-2-0.2-3.9-1-5.7-1.8c-0.4-0.2-0.5-0.4-0.4-0.8C60.2,59,60.4,58.3,60.9,57.6z"/>
	<path class="st60" d="M55,66.7c-0.8-0.2-1.6-0.3-2.4-0.7c-1-0.5-1.4-1.3-1.4-2.3c-0.1-0.5,0.2-0.4,0.5-0.5c2.1-0.4,3.7,1,3.6,3.2
		C55.1,66.5,55,66.6,55,66.7z"/>
	<path class="st61" d="M58.2,64.6c-0.5,1-1.5,0.9-2.4,1c-0.1-0.5-0.1-0.9,0-1.4l0,0C56.6,64.2,57.5,64,58.2,64.6z"/>
	<path class="st62" d="M40.5,60.3c-0.4-0.1-0.8,0.2-1.2,0.3c-0.2,0-0.3-0.1-0.4-0.3c1.7-0.9,3.3-0.9,4.6,0.2
		c-0.1,0.1-0.1,0.2-0.2,0.4c-0.5-0.2-0.9-0.5-1.5-0.5C41.3,60.4,40.9,60.5,40.5,60.3z"/>
	<path class="st63" d="M66.1,56c0.4,0.1,0.8,0.3,1.2,0.5c-0.2,0-0.4,0.1-0.4,0.4c-0.4-0.1-0.9-0.2-1.2-0.5
		C65.9,56.2,66.1,56.1,66.1,56z"/>
	<path class="st64" d="M52.5,60.2c-0.1-0.8-0.2-1.6,0-2.4C52.7,58.6,52.7,59.4,52.5,60.2z"/>
	<path class="st65" d="M46,61.5c0.6-0.2,1.1-0.2,1.7,0C47.2,61.8,46.6,61.8,46,61.5z"/>
	<path class="st66" d="M58.8,67.1c-0.2-0.5-0.2-1,0-1.5C59.2,66.1,58.9,66.6,58.8,67.1z"/>
	<path class="st67" d="M60.4,57.1c-0.2-0.3-0.6-0.2-0.8-0.3c0.3-0.3,0.6-0.2,1,0c0.1,0.1,0.2,0.2,0.1,0.4c0,0-0.1,0-0.1,0
		C60.5,57.2,60.4,57.1,60.4,57.1z"/>
	<path class="st68" d="M64.8,49.2c0.1-0.2,0.1-0.5,0.4-0.7c0.1,0.4,0,0.7-0.1,1.1C65,49.4,64.9,49.3,64.8,49.2z"/>
	<path class="st69" d="M53.3,59.6c0-0.4,0-0.7,0-1.1C53.5,58.9,53.5,59.3,53.3,59.6z"/>
	<path class="st70" d="M55.8,64c0.4-0.3,0.9-0.1,1.3,0C56.7,64,56.3,64,55.8,64C55.8,64,55.8,64,55.8,64z"/>
	<path class="st26" d="M66.2,62.4c0.5,0,1,0,1.5,0C67.2,62.6,66.7,62.6,66.2,62.4z"/>
	<path class="st71" d="M56.5,48.5c0.1,0.4,0.1,0.8,0,1.2C56.3,49.3,56.3,48.9,56.5,48.5z"/>
	<path class="st72" d="M45.4,62.9c0,0.2,0,0.4-0.2,0.5c0-0.2,0-0.5,0-0.7c0-0.1,0-0.2,0-0.2C45.5,62.6,45.3,62.8,45.4,62.9z"/>
	<path class="st73" d="M55.9,63.2L55.9,63.2C55.9,63.2,56,63.2,55.9,63.2c0.2,0,0.3,0.1,0.5,0.1c-0.2,0.2-0.5,0.2-0.6,0.1
		C55.5,63.2,55.9,63.2,55.9,63.2z"/>
	<path class="st74" d="M58.2,56.3c0.1,0,0.2,0,0.3,0c0.1,0,0.3,0,0.5,0.1C58.6,56.5,58.4,56.5,58.2,56.3z"/>
	<path class="st75" d="M45.3,40.1c-0.2-0.3-0.1-0.6-0.1-0.9c0,0,0.1,0,0.1,0C45.4,39.5,45.3,39.8,45.3,40.1z"/>
	<path class="st76" d="M45.1,38.9c-0.4-0.9-0.2-1.8-0.2-2.7c0.1-0.2,0.1-0.3,0.3-0.2c0,0.1,0,0.1,0,0.2c0,0.1,0,0.3,0,0.4
		c-0.3,0.4-0.1,0.7-0.1,1.1C45.2,38.1,45.3,38.5,45.1,38.9z"/>
	<path class="st19" d="M60.7,35c-1.2,0-2.5,0-3.7,0c1.2-0.3,2.5-0.1,3.7-0.1C60.7,34.9,60.7,34.9,60.7,35z"/>
	<path class="st77" d="M45.4,29.1c-0.6,0.2-1.1,0.2-1.7,0C44.2,28.9,44.8,28.9,45.4,29.1z"/>
	<path class="st42" d="M56.8,35c-0.2,0-0.3,0-0.5,0c-0.2,0.1-0.5,0.1-0.7,0c0.1-0.1,0.2-0.2,0.3-0.2c0.3-0.1,0.6-0.1,0.8,0
		C56.8,34.9,56.8,34.9,56.8,35z"/>
	<path class="st19" d="M56.8,34.8c-0.3,0-0.6,0-0.8,0C56.3,34.6,56.6,34.6,56.8,34.8z"/>
	<path class="st19" d="M54.5,34.8c0.3,0,0.6,0,0.8,0C55,35.1,54.8,35.1,54.5,34.8z"/>
	<path class="st19" d="M55.7,35c0.2,0,0.5,0,0.7,0c-0.3,0.1-0.6,0.1-0.9,0.1C55.6,35.1,55.6,35,55.7,35z"/>
	<path class="st78" d="M73.9,35.1c1.2-0.1,2.3-0.4,3.4-0.8c0.4-0.1,0.6-0.1,0.9,0.3c0.7,1,1.4,1.9,1.8,3.1c0.5,2.3,0.5,4.6,0.6,6.9
		c0,1.8-0.1,3.7-0.8,5.5c-0.5,1.2-1.1,2.2-2.4,2.6c-0.8,0.2-1.6,0.2-2.3-0.1c-0.5-0.2-0.9-0.2-1.4-0.1c-0.1-0.6,0.1-1.3-0.1-1.9
		c0.1-0.5,0-1,0-1.4c-0.2-0.6,0.1-1.2-0.1-1.8c0.1-0.3,0-0.5,0-0.7c-0.2-0.4,0-0.9-0.1-1.3c0-3.7-1.4-6.9-4.3-9.5
		c1.6-0.3,3.1-0.3,4.6-0.7C73.7,35.1,73.8,35.1,73.9,35.1z"/>
	<path class="st79" d="M72.9,47.3c0-0.1,0-0.1,0.1-0.2c0.1-0.1,0.2-0.2,0.3-0.3c-0.1,0.5-0.1,0.9-0.2,1.4
		C72.6,48,72.9,47.6,72.9,47.3z"/>
	<path class="st79" d="M73.3,45.4c0.2,0.4,0.2,0.8,0.1,1.3c-0.1,0-0.1,0-0.2,0C73.3,46.2,73.3,45.8,73.3,45.4z"/>
	<path class="st43" d="M73.9,35.1c-0.1,0-0.2,0-0.3,0c-0.2,0-0.4,0-0.6-0.1c0.4-0.1,0.6-0.2,0.9-0.3C73.9,34.9,73.9,35,73.9,35.1z"
		/>
	<path class="st39" d="M62.3,35.1c-0.3,0-0.6,0-0.9-0.1C61.7,35,62,34.9,62.3,35.1z"/>
	<path class="st80" d="M72.6,44.8c0-0.1,0-0.2,0-0.3c0-0.1,0-0.3,0.1-0.5C72.8,44.4,72.8,44.6,72.6,44.8z"/>
	<path class="st59" d="M35.2,62.8c0,0.5,0.3,0.7,0.7,0.9c2.2,1.4,4.6,1.6,7.1,1.1c0.3-0.1,0.6-0.2,1,0c-1.4,1.5-3,2.4-5,2.9
		c-1.9,0.5-3.5-0.8-4-3c-0.1-0.5-0.1-0.9,0-1.4c0-0.1,0-0.3,0-0.4C35.1,62.9,35.1,62.8,35.2,62.8z"/>
	<path class="st81" d="M43,66.7c1.5,0.8,3.2,0.6,4.8,0.5c0.5,0,1-0.2,1.5-0.3c-1.5,1.3-3.1,2.4-5.1,2.5c-1,0.1-1.9-0.1-2.5-1
		c-0.3-0.4-0.3-0.8,0.2-1C42.3,67.2,42.6,66.9,43,66.7z"/>
	<path class="st5" d="M35.2,62.8c0,0-0.1,0.1-0.1,0.1c-0.1-0.3-0.3-0.7,0.3-0.9c0.3-0.1-0.1-0.6,0.2-0.8c0.7,0.6,1.4,0.5,2.1-0.2
		c0.3-0.3,0.8-0.6,1.3-0.7c0.2,0.1,0.3,0.2,0.4,0.3c-0.9,0.6-1.6,1.3-2.2,2.3c-0.3,0.5-0.6,0.6-0.8,0c-0.1-0.3-0.3-0.5-0.7-0.5
		C35.3,62.4,35.2,62.6,35.2,62.8z"/>
	<path class="st9" d="M48.3,69.9c0.6,0,1.2,0,1.7,0c0.1,0.1,0.3,0.1,0.1,0.2c-0.7,0.1-1.3,0.1-2,0C47.9,70.1,48.2,70,48.3,69.9z"/>
	<path class="st31" d="M35,63.4c0,0.5,0,0.9,0,1.4C34.8,64.3,34.8,63.8,35,63.4z"/>
	<path class="st82" d="M50.4,65.4c0-0.4,0-0.8,0-1.2C50.7,64.6,50.7,65,50.4,65.4z"/>
	<path class="st83" d="M73.8,52.6c0.2-0.5,0.4-0.6,0.9-0.3c2,1,3.4,0.3,4.2-0.7c0.6-0.9,1-1.9,1.2-2.9c0.5-2.8,0.3-5.7,0.1-8.5
		c-0.1-0.8-0.3-1.5-0.1-2.3c1.1,1.8,1.6,3.8,1.9,5.9c0.6,3.7,0.4,7.4-0.3,11.1c-0.2,0.8-0.2,1.6-0.5,2.4c-0.2,0.1-0.1,0.3-0.2,0.5
		c-0.1,0-0.1,0-0.2,0.1c-0.2,0.1-0.4,0-0.5,0.1c-0.4,0.1-0.9,0.1-1.3,0.2c-0.2,0.1-0.3,0.1-0.5,0c-0.6-0.1-1.2-0.1-1.7,0
		c-0.1,0-0.1,0.1-0.2,0.1l-0.1,0l0,0c-0.7,0.2-1.3,0.7-2,0.8c-0.1,0.1-0.2,0.1-0.3,0.1c-0.3-0.1-0.6-0.1-0.9,0c-0.1,0-0.2,0-0.3,0
		c-0.2-0.1-0.2-0.2-0.1-0.4c0.6-0.5,0.4-1.2,0.6-1.8c0.1-0.2,0.2-0.6,0.2-0.8c0.2-0.3,0-0.7,0.1-1.1c0.1-0.4,0.1-0.8,0-1.3
		C73.8,53.3,73.6,52.9,73.8,52.6z"/>
	<path class="st84" d="M72.9,47.3c0.1,0.3,0.1,0.6,0.2,0.9c0,0.3,0,0.5,0,0.8c0.1,0.4,0,0.9,0.1,1.3c-0.1,0.8-0.1,1.6,0,2.4
		c0,0.4,0.1,0.8,0,1.2c-0.1,0.8-0.7,0.4-1,0.3c-0.4-0.1-0.2-0.5,0-0.8c0.1-0.4,0.1-0.8,0.3-1.2c0.2-1.2,0.3-2.5,0.4-3.7
		C72.8,48.1,72.6,47.7,72.9,47.3z"/>
	<path class="st85" d="M72.4,57.7c-0.2-0.7-0.3-1.4-0.7-2c-0.2-0.4-0.1-0.5,0.3-0.5c1-0.1,1.2,0,1,1c-0.1,0.5-0.1,1-0.3,1.5
		c-0.1,0,0-0.1-0.1-0.1C72.5,57.6,72.4,57.6,72.4,57.7z"/>
	<path class="st79" d="M73.1,50.4c0-0.5,0-0.9,0-1.4c0.3,1.3,0.1,2.6,0.1,3.9c0,0.3,0.1,0.7-0.1,1c0-0.4,0-0.8,0-1.2
		C73,51.9,72.9,51.2,73.1,50.4z"/>
	<path class="st79" d="M73.8,52.6c-0.1,0.4-0.1,0.7-0.2,1.1c0-1,0-2,0-3.1C73.8,51.2,73.6,51.9,73.8,52.6z"/>
	<path class="st79" d="M73.4,47.4c0.2,0.6,0.1,1.2,0.1,1.8C73.2,48.6,73.5,48,73.4,47.4z"/>
	<path class="st86" d="M72.4,52.3c0,0.4-0.1,0.8-0.3,1.2c0-0.2,0-0.3-0.2-0.4C72,52.8,72.1,52.4,72.4,52.3z"/>
	<path class="st63" d="M68,56.6c0.4,0,0.8,0.1,1.2,0C68.8,56.9,68.4,56.9,68,56.6z"/>
	<path class="st87" d="M73.6,54.9c0,0.4,0,0.7-0.1,1.1C73.5,55.6,73.3,55.3,73.6,54.9z"/>
	<path class="st88" d="M72.4,57.7c0-0.1,0-0.3,0.1-0.4c0.2,0.1,0.1,0.2,0.1,0.4c0,0.1,0,0.2-0.1,0.2C72.4,57.9,72.4,57.7,72.4,57.7z
		"/>
	<path class="st2" d="M80.2,59.8c-0.5,0.9-0.6,1.9-1.1,2.8c-0.4,0.8-1,1.4-1.9,1.6c-1.8-1.2-1.8-3-2-4.9c1.2-0.5,2.6-0.7,3.9-1
		c0.2,0,0.4,0,0.7,0c0.3-0.1,0.6-0.1,0.8,0C80.3,58.8,80.2,59.3,80.2,59.8z"/>
	<ellipse class="st89" cx="25.6" cy="58.6" rx="0.9" ry="0.1"/>
	<path class="st51" d="M28.6,49.3c0.2,0.5,0.1,1.1,0.1,1.6c0,0-0.1,0-0.1,0C28.6,50.3,28.6,49.8,28.6,49.3z"/>
	<path class="st53" d="M28.8,51.6c0.1,0.3,0.1,0.6,0.1,0.9C28.7,52.3,28.8,51.9,28.8,51.6z"/>
	<path class="st53" d="M29,53c0.1,0.3,0.2,0.6,0.1,0.9C28.8,53.6,29,53.3,29,53z"/>
	<path class="st89" d="M27.2,58.8c-0.1,0-0.4,0-0.4,0c0-0.2,0.2-0.1,0.3-0.1c0.1,0,0.1,0,0.2,0C27.3,58.7,27.2,58.8,27.2,58.8z"/>
	<path class="st4" d="M55.8,64.2c0,0.5,0,0.9,0,1.4c0,0.1-0.1,0.2-0.1,0.2C55.7,65.3,55.5,64.7,55.8,64.2z"/>
	<path class="st90" d="M53,71.1c0.4-0.3,0.8-0.3,1.2,0C53.7,71.2,53.4,71.3,53,71.1z"/>
	<path class="st28" d="M73.9,59c0.1,0,0.2,0,0.3,0c-0.5,0.3-1,0.2-1.5,0c0.1,0,0.2,0,0.3,0C73.4,58.9,73.6,58.9,73.9,59z"/>
	<path class="st91" d="M59.4,68c0.3-0.6-0.3-1.2,0.5-1.4c0.2-0.1,0.8-0.2,0.8,0.1C60.7,67.3,60.2,67.7,59.4,68z"/>
	<path class="st92" d="M78.2,33.8c-0.8,0.2-1.6,0.4-2.3,0.5c-0.1,0-0.3,0-0.4,0c-0.2-0.1,0-0.3,0.1-0.4C76,32.7,76.9,32.7,78.2,33.8
		z"/>
	<path class="st11" d="M76.4,58.1c0,0,0.1-0.1,0.1-0.1c0.6-0.2,1.2-0.1,1.9,0c0.2,0,0.3,0,0.5,0C78,58.3,77.2,58.1,76.4,58.1z"/>
	<path class="st11" d="M80.5,58.3c-0.3,0-0.6,0-0.8,0C80,58.1,80.2,58,80.5,58.3z"/>
	<path class="st93" d="M80.9,57.6c-0.2-0.2-0.1-0.5,0-0.6c0.1-0.2,0.1,0.1,0.1,0.1C81,57.3,81.2,57.5,80.9,57.6z"/>
	<path class="st94" d="M80.1,57.8c0.2-0.1,0.3-0.2,0.5-0.1C80.7,58.3,80.3,57.6,80.1,57.8z"/>
	<path class="st95" d="M45.2,36.2c0,0,0-0.1-0.1-0.1c-0.1-0.1-0.1-0.2,0-0.3c0-0.1,0-0.3,0.1-0.1C45.4,35.7,45.4,36,45.2,36.2z"/>
	<path class="st96" d="M45.2,35.7c0,0.1,0,0.2,0,0.3c-0.1,0.1-0.2,0.1-0.3,0.2C44.9,35.9,44.8,35.7,45.2,35.7z"/>
	<path class="st97" d="M65.5,47.3c0,0.3,0,0.6-0.1,1c-0.6-0.4,0-0.9-0.1-1.3C65.7,47,65.5,47.2,65.5,47.3z"/>
	<path class="st98" d="M65.5,47.3c-0.1-0.1-0.1-0.2-0.2-0.3c0-0.1,0-0.4,0.1-0.3C65.8,46.9,65.7,47.1,65.5,47.3z"/>
	<path class="st99" d="M40.5,60.3c0.4-0.1,0.9-0.1,1.3,0C41.3,60.6,40.9,60.6,40.5,60.3z"/>
	<path class="st100" d="M78.3,57.9c-0.6,0.1-1.2,0.1-1.9,0C77.1,57.7,77.7,57.7,78.3,57.9z"/>
	<path class="st101" d="M73.9,59c-0.3,0.1-0.6,0.1-0.8,0C73.4,58.7,73.6,58.7,73.9,59z"/>
	<path class="st102" d="M73.1,50.4c0.1,0.8,0.1,1.6,0,2.4C72.8,51.9,72.8,51.2,73.1,50.4z"/>
</g>
</svg>
