<?xml version="1.0" encoding="utf-8"?>
<!-- Generator: Adobe Illustrator 25.0.0, SVG Export Plug-In . SVG Version: 6.00 Build 0)  -->
<svg version="1.1" id="Layer_1" xmlns="http://www.w3.org/2000/svg" xmlns:xlink="http://www.w3.org/1999/xlink" x="0px" y="0px"
	 viewBox="0 0 100 100" style="enable-background:new 0 0 100 100;" xml:space="preserve">
<style type="text/css">
	.st0{fill:none;stroke:#FFFFFF;stroke-width:4;stroke-linecap:round;stroke-linejoin:round;stroke-miterlimit:10;}
	.st1{fill:#E7CB78;stroke:#FFFFFF;stroke-width:4;stroke-linecap:round;stroke-linejoin:round;stroke-miterlimit:10;}
	.st2{fill:#EACF86;stroke:#FFFFFF;stroke-width:4;stroke-linecap:round;stroke-linejoin:round;stroke-miterlimit:10;}
	.st3{fill:#E6C76F;stroke:#FFFFFF;stroke-width:4;stroke-linecap:round;stroke-linejoin:round;stroke-miterlimit:10;}
</style>
<g>
	<path class="st0" d="M80.1,28.4c-2.4,0.9-4.9,1.7-7.3,2.6c-0.2,0.1-0.4,0.1-0.7,0.2c-0.3-0.3-0.3-0.7-0.3-1.1c0-1.4-0.1-2.8,0-4.2
		c0.1-1.3-0.6-2.1-1.7-2.7c-1.2-0.6-2.5-1-3.9-1.3c-4.1-0.9-8.3-1.4-12.5-1.5c-1.6,0-3.2-0.2-4.8-0.2c-5,0.2-10.1,0.4-15,1.6
		c-1.3,0.3-2.6,0.7-3.9,1.2c-1.3,0.6-2,1.4-1.9,3c0.1,1.3,0,2.7,0,4c0,0.4,0.1,0.8-0.3,1.1c-5.6-2-11.3-4-16.9-6
		c-1.6-0.6-3.3-1.2-4.9-1.8c-0.7-0.2-1.3-0.6-1.7-1.2c0-0.4,0-0.7,0-1.1c0.4-0.6,1-0.9,1.7-1.2c14.3-5,28.6-10.1,42.9-15.2
		c0.8-0.3,1.5-0.3,2.3,0C61.1,8.2,71,11.7,81,15.2c0.2,0.1,0.4,0.1,0.6,0.2c0.2,0.2,0.2,0.5,0.2,0.7c-0.1,3.4-0.1,6.9,0,10.3
		C81.4,27.3,80.7,27.8,80.1,28.4z"/>
	<path class="st0" d="M7.9,84.5c-0.9,0.3-1.2-0.4-1.5-1c-0.7-1.5-1-3.1-1.3-4.7c-0.2-1.5-0.4-3-0.5-4.5c0-0.2,0-0.4-0.2-0.5
		c0-0.6,0-1.2,0-1.8c0.1-0.5,0.1-1,0-1.4c0-1.1,0-2.3,0-3.4c0.2-0.3,0-0.6,0.1-0.9c0-0.3,0.1-0.7-0.1-1.1c0-0.5,0-1,0-1.4
		c0.4-1.2,0.3-2.5,0.5-3.7c0.3-2,0.6-3.9,1.4-5.8c0.3-0.7,0.6-1.4,1.6-1.2c0.8,0.3,1,1,1.3,1.7c0.7,1.9,1,4,1.3,6
		c0.5,3.9,0.4,7.8,0.3,11.6c-0.1,3.2-0.4,6.3-1.3,9.4C9.2,82.9,9,84,7.9,84.5z"/>
	<path class="st0" d="M45.3,95.6c-1.1-0.7-1.3-1.9-1.8-3c-0.2-0.5-0.4-0.6-0.9-0.4c-0.6,0.3-1.2,0.5-1.9,0.8s-1.3,0.3-1.9-0.3
		c-0.6-0.5-0.6-1.2-0.3-1.9c1.2-2.9,2.4-5.8,3.6-8.7c0.1-0.2,0.2-0.5,0.2-0.8c0.1-0.7,0.1-1.3,0.9-1.7c0.4,0.1,0.5,0.5,0.7,0.7
		c1.6,2.2,3.8,3.3,6.5,3.7c0.3,0,0.7,0,0.9,0.4c0.1,0.7-0.3,1.2-0.5,1.8c-1.1,2.6-2.1,5.1-3.2,7.7c-0.3,0.7-0.6,1.3-1.4,1.5
		C46.1,95.6,45.7,95.6,45.3,95.6z"/>
	<path class="st0" d="M60.6,81.7c1.2,3,2.4,6,3.7,8.9c0.3,0.8,0.5,1.5-0.1,2.1c-0.7,0.7-1.4,0.5-2.2,0.2c-0.7-0.3-1.5-1.1-2.1-0.8
		c-0.5,0.3-0.7,1.3-1,2c-0.2,0.6-0.6,1-1,1.4c-0.4,0-0.8,0-1.2,0c-0.6-0.2-1-0.6-1.2-1.2c-1.2-2.9-2.4-5.8-3.6-8.6
		c-0.1-0.3-0.2-0.7-0.3-1c0.1-0.4,0.5-0.4,0.8-0.4c2.8-0.3,5-1.6,6.7-3.8c0.2-0.3,0.4-0.6,0.8-0.7C60.5,80.3,60.6,81,60.6,81.7z"/>
	<path class="st1" d="M4.3,70.6c0.3,0.5,0.3,1,0,1.4C4.3,71.6,4.3,71.1,4.3,70.6z"/>
	<path class="st2" d="M4.3,65.3c0.3,0.3,0.1,0.7,0.2,1.1c-0.1,0.1-0.1,0.1-0.2,0C4.3,66,4.3,65.7,4.3,65.3z"/>
	<path class="st3" d="M4.3,66.4c0.1,0,0.1,0,0.2,0c0,0.3,0.1,0.6-0.2,0.9C4.3,67,4.3,66.7,4.3,66.4z"/>
	<path class="st0" d="M60.6,81.7c-0.3-0.6-0.6-1.2-0.9-1.8c-0.2-0.3,0-0.6,0.1-0.9c1.6-3.6,1-6.9-1.5-10c-0.3-0.4-0.7-0.7-0.8-1.2
		c-0.1-2.6-0.2-5.1-0.7-7.6c-0.2-1-0.5-2-0.7-3c-0.1-0.3-0.3-0.7-0.1-1c2.7-0.1,5.3-0.1,8-0.2c3.9-0.2,7.7-0.5,11.6-0.8
		c4.3-0.4,8.6-0.9,12.9-1.5c0.9-0.1,1.9-0.2,2.8-0.4c1.5-0.3,1.9-0.1,2.4,1.3c0.5,1.4,0.9,2.8,1.1,4.3c0.7,4.2,0.9,8.4,0.7,12.7
		c-0.2,3.7-0.4,7.4-1.6,11c-0.1,0.2-0.1,0.5-0.2,0.7c-0.5,1.3-0.9,1.4-2.2,1.2c-3.3-0.5-6.7-0.9-10-1.3c-3.6-0.4-7.2-0.7-10.9-1
		C67.3,81.9,64,81.6,60.6,81.7z"/>
	<path class="st0" d="M43.4,79.9c-0.3,0.6-0.6,1.1-0.8,1.7C31,81.8,19.4,82.8,8,84.6c1.2-1.2,1.5-2.9,1.8-4.5
		c1.1-5.1,1-10.2,0.9-15.3c-0.1-2.9-0.4-5.7-1.2-8.5c-0.3-1.1-0.6-2.2-1.4-3c1.8,0.3,3.7,0.5,5.5,0.8c2.2,0.3,4.5,0.6,6.7,0.8
		c3.1,0.3,6.2,0.6,9.3,0.9c1.1,0.1,2.1,0.1,3.2,0.2c2.3,0.2,4.7,0.2,7,0.2c0.8,0,1.6,0.1,2.4,0.2c0.3,0.2,0.4,0.6,0.5,0.9
		c1.2,4.1,1.7,8.3,1.5,12.5c-0.1,0.4-0.3,0.8-0.5,1.1c-1.4,2.6-1.5,5.3-0.4,8C43.3,79.1,43.5,79.4,43.4,79.9z"/>
	<path class="st0" d="M27.9,31.1c0-1.9,0-3.7,0-5.6c0-0.9,0.3-1.6,1.1-2.1c1.7-1,3.5-1.5,5.4-1.9c4.1-0.8,8.2-1.2,12.4-1.3
		c1.5,0,3.1-0.2,4.6-0.1c3.9,0.2,7.9,0.3,11.8,1c2.2,0.4,4.4,0.8,6.5,1.7c1.9,0.7,2.4,1.4,2.4,3.4c0,1.7,0,3.3,0,5
		c0,3.5,0,6.9-0.1,10.4c0,0.3,0.1,0.6-0.1,0.9C71.4,41,70.3,40.4,69,40c-2.9-1-5.9-1.5-9-1.8c-3.6-0.4-7.2-0.6-10.8-0.5
		c-5.5,0.1-11.1,0.4-16.5,1.8c-0.6,0.2-1.1,0.3-1.7,0.5c-1.3,0.5-2.5,1-3,2.4c-0.2-0.3-0.1-0.6-0.1-0.9C27.9,38,27.9,34.6,27.9,31.1
		z"/>
	<path class="st0" d="M28,42.3c-0.1-0.8,0.4-1.3,1-1.7c1.7-1.1,3.6-1.5,5.5-1.9c2.8-0.6,5.6-0.9,8.4-1.1c2.8-0.2,5.6-0.4,8.4-0.3
		c5.1,0.2,10.1,0.4,15.1,1.6c1.6,0.4,3.1,0.8,4.5,1.7c0.6,0.4,1,0.9,0.9,1.7c-0.2,0.9-1,1.3-1.7,1.6c-2.2,1-4.5,1.5-6.8,1.9
		C55.7,47,48.1,47,40.4,46.3c-3.6-0.3-7.2-0.8-10.5-2.3C29.1,43.7,28.3,43.3,28,42.3z"/>
	<path class="st0" d="M43.7,69.8c0-2.8,0-5.6-0.5-8.4c-0.3-1.7-0.7-3.5-1.2-5.2c4.7,0,9.4,0,14.1,0C57.4,60,58,63.9,57.8,68
		c-0.3,0.2-0.6,0-0.8-0.2c-4-3-9.3-2.2-12.4,1.4C44.4,69.4,44.2,69.8,43.7,69.8z"/>
	<path class="st0" d="M84.6,16.6c3.3,1.2,6.5,2.3,9.8,3.5c0.7,0.3,1.2,0.8,1.2,1.6c0,0.8-0.5,1.3-1.2,1.5c-3.3,1.2-6.6,2.3-9.8,3.5
		c-0.4-0.3-0.3-0.7-0.3-1.2c0-2.6,0-5.2,0-7.8C84.3,17.3,84.2,16.9,84.6,16.6z"/>
	<path class="st0" d="M80.1,28.4c0.3-0.7,0.7-1.2,1.4-1.6c0.9-0.8,2.2-0.8,3.1,0c1.1,0.7,1.6,1.8,1.6,3.1c0,1.4,0,2.7,0,4.1
		c0,1.2-0.6,1.8-1.8,1.9c-0.9,0-1.9,0-2.8,0c-1.1-0.1-1.7-0.6-1.6-1.8C80,32.1,79.7,30.2,80.1,28.4z"/>
	<path class="st0" d="M84.6,26.8c-1-0.4-2.1-0.5-3.1,0c-0.1-3.8-0.1-7.5,0-11.3c0.4-0.7,1-1.2,1.9-0.9c1.1,0.3,1.2,1.2,1.2,2.1
		c0,3.3,0,6.7,0,10C84.6,26.7,84.6,26.7,84.6,26.8z"/>
	<path class="st0" d="M43.7,69.8c0.8-0.9,1.6-1.8,2.6-2.5c3.4-2.2,7.9-2.1,11,0.5c0.1,0.1,0.3,0.1,0.4,0.2c1,1.2,2,2.4,2.6,3.9
		c0.9,2.5,0.8,4.9-0.3,7.3c-0.1,0.3-0.2,0.5-0.3,0.8c-0.9,1.1-1.8,2.3-3,3.1c-1.4,0.9-3,1.4-4.6,1.5c-0.2,0-0.4,0-0.6,0.2h-0.1
		c-0.3-0.4-0.8-0.2-1.3-0.3c-3-0.5-5.2-2.1-6.8-4.6C41.6,76.4,41.8,73.1,43.7,69.8z"/>
</g>
</svg>
