<?xml version="1.0" encoding="utf-8"?>
<!-- Generator: Adobe Illustrator 24.0.2, SVG Export Plug-In . SVG Version: 6.00 Build 0)  -->
<svg version="1.1" id="Layer_1" xmlns="http://www.w3.org/2000/svg" xmlns:xlink="http://www.w3.org/1999/xlink" x="0px" y="0px"
	 viewBox="0 0 463 463" style="enable-background:new 0 0 463 463;" xml:space="preserve">
<style type="text/css">
	.st0{fill:#FFFFFF;}
</style>
<g>
	<g>
		<g>
			<path class="st0" d="M455.5,348H447V99.5c0-17.4-14.1-31.5-31.5-31.5h-368C30.1,68,16,82.1,16,99.5V348H7.5
				c-4.1,0-7.5,3.4-7.5,7.5v16c0,13,10.5,23.5,23.5,23.5h416c13,0,23.5-10.5,23.5-23.5v-16C463,351.4,459.6,348,455.5,348z M31,99.5
				C31,90.4,38.4,83,47.5,83h368c9.1,0,16.5,7.4,16.5,16.5V348H31V99.5z M448,371.5c0,4.7-3.8,8.5-8.5,8.5h-416
				c-4.7,0-8.5-3.8-8.5-8.5V363h169c0,0.2,0,0.3,0,0.5c0,4.1,3.4,7.5,7.5,7.5h80c4.1,0,7.5-3.4,7.5-7.5c0-0.2,0-0.3,0-0.5h169V371.5
				z"/>
			<path class="st0" d="M407.5,100h-352c-4.1,0-7.5,3.4-7.5,7.5v216c0,4.1,3.4,7.5,7.5,7.5h352c4.1,0,7.5-3.4,7.5-7.5v-216
				C415,103.4,411.6,100,407.5,100z M400,316H63V115h337V316z"/>
		</g>
	</g>
</g>
</svg>
