<?xml version="1.0" encoding="utf-8"?>
<!-- Generator: Adobe Illustrator 25.0.0, SVG Export Plug-In . SVG Version: 6.00 Build 0)  -->
<svg version="1.1" id="Layer_1" xmlns="http://www.w3.org/2000/svg" xmlns:xlink="http://www.w3.org/1999/xlink" x="0px" y="0px"
	 viewBox="0 0 100 100" style="enable-background:new 0 0 100 100;" xml:space="preserve">
<style type="text/css">
	.st0{fill:#16ABBF;}
</style>
<g>
	<path class="st0" d="M41.7,33.2c-9.7,0-19.5,0-29.2,0c-1.1,0-1.4,0.3-1.4,1.4c0,11.9,0,23.8,0,35.7c0,1.8,0,1.8,1.9,1.8
		c10,0,20.1,0,30.1,0c1.2,0,1.5,0.3,1.4,1.5c-0.1,1.3,0.5,3-0.2,3.8c-0.8,0.9-2.5,0.3-3.9,0.3c-9.5,0-19,0-28.6,0
		c-3.7,0-6.3-2.5-6.3-6.3c0-16.2,0-32.5,0-48.7c0-3.8,2.9-6.6,7.7-6.1c0.5,0.1,0.6,0.3,0.6,0.7c0,0.7,0,1.4,0,2.1
		c0.1,3.2,2.5,5.6,5.6,5.5c3,0,5.4-2.5,5.5-5.6c0-2.7,0-2.7,2.8-2.7c9.5,0,19,0,28.6,0c1.9,0,2,0,1.9,1.9c0,2.2,0.6,4.2,2.5,5.5
		c1.7,1.2,3.6,1.3,5.4,0.4c1.9-0.9,3-2.5,3.2-4.6c0.1-0.8,0-1.6,0-2.5c0-0.6,0.2-0.7,0.8-0.8c4.6-0.4,7.6,2.2,7.6,6.9
		c0,6.6,0,13.2,0,19.7c0,1-0.2,1.3-1.2,1.2c-0.9-0.1-1.8-0.1-2.7,0c-1.2,0.1-1.7-0.2-1.6-1.5c0.1-2.8,0-5.5,0.1-8.3
		c0-1.1-0.3-1.4-1.4-1.4C61.2,33.2,51.4,33.2,41.7,33.2z"/>
	<path class="st0" d="M94.4,72.2c0,11.5-9,22-22,22.1c-12.9,0.1-22.2-10-22.4-21.9c-0.2-11.9,9.1-22.6,22.2-22.6
		C85.1,49.9,94.5,60.4,94.4,72.2z M55.6,72c-0.2,9.2,7.6,16.9,16.8,16.7c9-0.1,16.5-7.4,16.5-16.4c0-9.7-7.5-17-17.1-16.9
		C62.9,55.6,55.5,63.1,55.6,72z"/>
	<path class="st0" d="M22.4,55.5c1.5,0,2.9,0,4.4,0c0.7,0,1.1,0.1,1.1,1c0,3,0,6.1,0,9.1c0,0.9-0.3,1.1-1.1,1.1c-3,0-6,0-8.9,0
		c-0.9,0-1.1-0.3-1.1-1.1c0-3,0-6,0-8.9c0-0.9,0.3-1.1,1.1-1.1C19.3,55.5,20.9,55.5,22.4,55.5C22.4,55.5,22.4,55.5,22.4,55.5z"/>
	<path class="st0" d="M38.9,55.5c1.5,0,3,0,4.5,0c0.7,0,1,0.1,1,0.9c0,3.1,0,6.2,0,9.3c0,0.7-0.3,0.9-0.9,0.9c-3.1,0-6.2,0-9.3,0
		c-0.7,0-0.9-0.3-0.9-0.9c0-3.1,0-6.2,0-9.3c0-0.7,0.3-0.9,0.9-0.9C35.8,55.5,37.4,55.5,38.9,55.5C38.9,55.5,38.9,55.5,38.9,55.5z"
		/>
	<path class="st0" d="M22.3,49.9c-1.6,0-3.1,0-4.7,0c-0.7,0-1-0.3-1-1c0-3,0-6.1,0-9.1c0-0.7,0.3-1,1-1c3.1,0,6.1,0,9.2,0
		c0.7,0,1,0.3,1,1c0,3,0,6.1,0,9.1c0,0.7-0.3,1-1,1C25.4,49.8,23.8,49.9,22.3,49.9z"/>
	<path class="st0" d="M38.9,49.9c-1.5,0-3,0-4.5,0c-0.7,0-1-0.2-1-1c0-3,0-6.1,0-9.1c0-0.7,0.2-1,1-1c3.1,0,6.2,0,9.3,0
		c0.6,0,0.8,0.2,0.8,0.8c0,3.1,0,6.2,0,9.3c0,0.7-0.3,0.9-1,0.9C42,49.8,40.4,49.9,38.9,49.9z"/>
	<path class="st0" d="M61.1,44.5c0,1.5,0,2.9,0,4.4c0,0.7-0.2,1-1,1c-3.1,0-6.1,0-9.2,0c-0.7,0-1-0.2-1-1c0-3,0-6.1,0-9.1
		c0-0.7,0.2-1,1-1c3.1,0,6.1,0,9.2,0c0.7,0,1,0.2,1,1C61.1,41.4,61.1,42.9,61.1,44.5z"/>
	<path class="st0" d="M22.2,13.8c0,1.8,0,3.5,0,5.3c0,1.8-1.1,2.9-2.8,2.9c-1.7,0-2.7-1.1-2.7-2.9c0-3.5,0-7.1,0-10.6
		c0-2,0.9-2.9,2.8-2.9c1.8,0,2.7,0.9,2.7,2.9C22.2,10.3,22.2,12.1,22.2,13.8z"/>
	<path class="st0" d="M66.6,13.8c0,1.8,0,3.5,0,5.3c0,1.8-1.1,2.9-2.8,2.9c-1.6,0-2.7-1.2-2.7-3c0-3.5,0-7.1,0-10.6
		c0-1.9,0.9-2.8,2.8-2.8c1.7,0,2.7,0.9,2.7,2.7C66.7,10.2,66.6,12,66.6,13.8z"/>
	<path class="st0" d="M75,77.6c-1.7,0-3.5,0-5.2,0c-2.1,0-3.1-1-3.1-3.1c0-3.5,0-7,0-10.5c0-1.7,1.2-2.9,2.8-3
		c1.4-0.1,2.7,1.1,2.8,2.8c0.1,1.7,0,3.4,0,5.1c0,3.2,0,3.2,3.2,3.2c1.6,0,3.2,0,4.8,0c1.9,0,3,1.1,3,2.8c0,1.7-1.1,2.6-3,2.6
		C78.5,77.6,76.7,77.6,75,77.6z"/>
</g>
</svg>
