<?xml version="1.0" encoding="utf-8"?>
<!-- Generator: Adobe Illustrator 25.0.0, SVG Export Plug-In . SVG Version: 6.00 Build 0)  -->
<svg version="1.1" id="Layer_1" xmlns="http://www.w3.org/2000/svg" xmlns:xlink="http://www.w3.org/1999/xlink" x="0px" y="0px"
	 viewBox="0 0 100 100" style="enable-background:new 0 0 100 100;" xml:space="preserve">
<style type="text/css">
	.st0{fill:#FFFFFF;}
</style>
<g>
	<path class="st0" d="M2.1,68.9c0.5-1.4,1.7-1.7,2.9-2c1-0.3,1.9-0.5,2.9-0.8c1-0.3,1.4-0.1,1.6,0.9c0.4,2.5,0.8,5,1.1,7.5
		c0,0.3,0.1,0.5,0.2,1c0.3-2,0.5-3.9,1-5.6c1.1-4.2,2.2-8.5,4.7-12.1c0.9-1.3,1.9-2.5,3.1-3.6c1.9-1.7,3.9-3.1,5.8-4.7
		c0.1-0.1,0.2-0.2,0.3-0.2c1.6-0.4,1.8-1.8,2.2-3.1c-1.4-0.8-2.1-2.1-2.3-3.8c0-0.2-0.1-0.4-0.3-0.6c-2-2-2-4.2-1-6.6
		c0.6-1.3,1.3-2.5,1.9-3.8c0.1-0.3,0.2-0.7,0.1-0.9c-1.9-2.6-1-5,0.2-7.5c1.2-2.4,3.2-4.1,5.3-5.5c0.8-0.5,1.9-0.6,2.9-1
		c0.4-0.1,0.9-0.3,1.2-0.6c1.7-1.3,3.5-1.5,5.5-0.7c1.8,0.7,3.3,1.7,4.7,3.3c-0.3,0.1-0.6,0.2-0.8,0.3c0,0.1,0,0.2,0,0.3
		c0.9-0.1,1.8,0,2.6-0.2c1.9-0.6,3.8-1.2,5.9-0.7c1.5,0.3,2.3,1.3,3.2,2.4c0.3,0.3,0.6,0.7,1,0.8c2.2,0.9,3.9,2.4,5.3,4.3
		c1.2,1.6,0.7,3.3,0.3,5c0,0.2-0.3,0.4-0.4,0.4c-0.2,0-0.4-0.2-0.4-0.4c-0.1-0.4-0.1-0.7-0.2-1.3c-0.5,1.3-0.9,2.5-1.3,3.7
		c2.2,4.6,2,9.2-1.1,13.5c0.7,0.5,1.3,0.9,1.9,1.4c1.4,1.2,1.7,2.5,0.9,4.1c-0.7,1.4-2.5,2.5-4,2.1c-0.6-0.1-1.3-0.4-1.8-0.8
		c-0.7-0.5-1.1-0.5-1.7,0c-2.6,2.2-5.5,3.7-8.8,4.2c-0.5,0.1-1.1,0.2-1.6,0.1c-1.3-0.2-2,0.4-2.6,1.4c-0.2,0.3-0.4,0.6-0.6,0.9
		c1.7,2.2,2,4.7,1.7,7.3c1.9,0.7,3.9,1.6,5.9,2.1c1.3,0.3,2.8,0,4.2,0.1c0.7,0,1.3,0.2,2,0.4c0.4,0.1,0.9,0.3,1.3,0.4
		c0.1-0.1,0.2-0.2,0.2-0.3c-0.8-1.3-1.6-2.6-2.4-3.9c-0.6-0.9-0.6-1.1,0.4-1.5c0.6-0.2,1.2-0.4,1.8-0.6c0.8-0.4,1.5-0.2,1.9,0.6
		c0.2,0.4,0.4,0.8,0.6,1.1c1.3,2.2,2.6,4.5,4,6.6c0.3,0.5,0.9,0.8,1.3,1.2c0.9,0.8,1.8,1.5,2.5,2.3c1,1.2,1,2.1-0.2,3.4
		c1.1,0.1,2.1,0.2,3.1,0.3c5.3,0.4,10.3-0.8,15.4-2c1.5-0.4,3-0.9,4.5-1.3c0.1,0,0.2-0.1,0.3-0.1c0.6,0.1,1.2,0.1,1.8,0.2
		c-0.2,0.5-0.3,1.2-0.7,1.6c-1,1.2-2.2,2.4-3.4,3.6c2.4-0.2,4.7-0.4,7-0.7c1.4-0.1,2.5,0.9,2.6,2.8c0.1,0.7-0.1,1.4-0.2,2.1
		c0,0.4-0.1,0.9,0,1.3c0,0.6-0.2,1-0.8,1.2c-0.4,0.1-0.9,0.2-1.3,0.3c-0.1,1-0.1,2-0.2,3.1c0,0.9-0.5,1.2-1.4,1.3
		c-4.4,0.3-8.9,0.6-13.3,0.8c-3.5,0.2-7,0.2-10.6,0.4c-1.6,0.1-3.2,0.2-4.8,0.2c-2.1,0-4.3,0-6.4,0c-1,0-2.1,0.1-3.1,0.2
		c-2,0.3-3-0.4-3-2.5c0-0.6,0.1-1.2,0.1-1.8C53,90.1,52.9,90,52.9,90c-2.4-0.1-2.5-0.1-3.1-2.4c-0.3-1.1-0.4-2.3-0.7-3.6
		c-1.3-0.1-2.9-0.2-4.7-0.3c0.1,0.6,0.1,1.1,0.2,1.7c0.3,2.6,0.3,5.2,0,7.8c-0.1,0.9-0.6,1.2-1.5,1.2c-0.4,0-0.7,0-1.1,0.2
		c-1.1,0.5-2.2,0.5-3.3,0.3c-0.6-0.1-1.2-0.1-1.8-0.1c-1.9,0.1-3.8,0.2-5.7,0.3c-2,0.1-4,0.1-6.1,0.2c-1.6,0.1-3.1,0.2-4.7,0.2
		c-1.7,0-3.4-0.1-5.1-0.1c-0.3,0-0.7,0.1-1,0.2c-0.3,0.1-0.6,0.3-0.9,0.3c-1.4,0.1-2.9,0.3-4.3,0.3c-1.8,0-3.3-1.4-3.8-3.2
		C4,87.7,3.3,82.2,2.8,76.8c-0.1-1.3-0.5-2.6-0.7-3.9C2.1,71.5,2.1,70.2,2.1,68.9z M27.3,49.6c-1.1,0.9-2.1,1.6-3.1,2.5
		c-1.9,1.7-3.9,3.4-5.5,5.4c-3.2,4.1-4.5,9-5.4,14c-0.8,4.4-1.2,8.9-0.9,13.4c0.1,2.1,0.6,4.1,1.1,6.1c0.2,0.9,0.9,1.8,1.8,1.9
		c1.5,0.2,3,0.2,4.5,0.2c1,0,1.9-0.1,2.9-0.1c0.6,0,1.2,0,1.9-0.1c1.3-0.1,2.5-0.2,3.8-0.2c3.9-0.1,7.9-0.1,11.8-0.1
		c0.3,0,0.7-0.1,1-0.2c0.6,0,0.8-0.4,0.8-0.9c0.2-2.1,0.4-4.2,0.5-6.3c0-0.6-0.1-1.3-0.1-1.8c-2.1-0.7-4.1-1.3-6.1-2
		C35.2,81,34,80.5,33,79.8c-2.8-1.7-4.7-4.2-6.3-7c-0.1-0.2,0-0.6,0-0.9c0.3,0.1,0.6,0.1,0.8,0.2c0.7,0.7,1.3,1.4,1.9,2.2
		c1.4,2,3.5,3.3,5.6,4.3c4.5,2.1,9.3,3.1,14.3,2.8c2.1-0.1,4.1-0.3,5-2.8c0.7-2,1.2-4.1,0.8-6.2c-0.2-1-0.8-1.4-1.6-1.2
		c-2.2,0.5-4.3,0.4-6.4-0.3c-2.3-0.8-4.7-1.6-7.1-1.9c-4-0.6-6.9-2.5-8.9-5.9c-0.5-0.7-1-1.4-1.5-2.1c-0.1-0.2-0.2-0.4-0.4-0.5
		c1.2,0.4,2.3,1,3,2c1.3,1.9,3.1,3,5.2,3.7c1.3,0.5,2.8,0.5,4.1,0.8c-0.2-0.9-0.4-1.7-0.5-2.4c-0.2-1.5-0.6-2.8-2.3-3.2
		c-0.3-0.1-0.7-0.4-1-0.6c-1.9-1.4-3.8-2.8-5.7-4.2c-2.1-1.6-3.8-3.4-4.4-6.1C27.6,50.1,27.5,49.9,27.3,49.6z M49.1,54.9
		c0,0,0.2,0,0.3-0.1c1.7-1,3.5-2,5.2-3.1c1.3-0.8,1.7-0.8,2.9,0c0.5,0.3,1,0.7,1.5,0.9c0.9,0.3,2.1-0.3,2.5-1.2
		c0.4-0.8,0.2-1.7-0.7-2.3c-0.6-0.4-1.2-0.7-1.9-0.9c-1.1-0.4-1.3-1-0.8-2c0.4-0.7,0.9-1.4,1.3-2.2c1.8-3,1.5-6.1,0.6-9.3
		c-0.2-0.7-0.6-0.9-1.3-0.5c-0.5,0.3-1.1,0.6-1.7,0.7c-3,0.5-6,1.5-9.1,0.7c-0.4,1.1-0.8,2.1-1.3,3.1c-0.7,1.5-1.7,2.6-3.3,3.1
		c-1.4,0.5-2.1,0.2-2.9-1c-0.1-0.2-0.3-0.4-0.5-0.4c-0.7-0.3-0.9-0.8-0.4-1.4c0.3-0.5,0.9-0.8,1.2-1.3c0.6-0.8,1.2-1.6,1.8-2.5
		c-0.1-0.1-0.1-0.3-0.2-0.4c-0.9,1.4-1.6,0.6-2.4,0c-0.5-0.4-1.2-0.7-1.8-1c-1.6-0.6-2.7-0.3-3.5,1.1c-0.5,0.9-0.7,1.9-0.8,2.8
		c-0.1,0.4,0.3,0.9,0.6,1.2c1,0.9,2.2,1.3,3.5,0.5c0.2-0.1,0.8-0.1,0.9,0.1c0.1,0.2,0.1,0.7-0.1,0.9c-0.6,1.1-2.1,1.7-3.3,1.1
		c-1.4-0.7-2.9-1.4-3.4-2.9c-0.4,3.6-1.2,7.2-3.7,10c0.5,1,0.9,1.9,1.3,2.8c0.2,0.3,0.3,0.7,0.6,0.9c2.9,2.9,6.2,4.9,9.9,6.7
		c0.5-0.6,1-1.1,1.5-1.7c-6.5-1.6-8.9-6.8-8-11.2c0.7,3.1,2.6,5.5,4.9,7.4c2.6,2.2,5.6,1.8,8.8,1.7c-2.5-3.1-2.4-6-1-7.4
		C47.1,50.5,47.1,53.1,49.1,54.9z M95.9,82.5c-2.9,0.2-5.8,0.5-8.6,0.7c-2.1,0.1-4.2,0-6.3,0.1c-3.2,0.2-6.3,0.4-9.5,0.6
		C70.3,84,69,84,67.8,84c-1.7,0-3.4-0.1-5.1-0.2c-2.4-0.1-4.8-0.5-7.2-0.1c-0.9,0.2-2,0.1-2.9,0c-1.1-0.1-2.1,0.5-1.9,1.5
		c0.2,0.9,0.6,1.8,1,2.7c0,0.1,0.2,0.2,0.4,0.2c1.3,0,2.7,0.1,4-0.1c3.9-0.6,7.8-1.2,11.7-0.7c0.3,0,0.6,0,0.8-0.1
		c3.2-0.2,6.4-0.4,9.6-0.6c0.7,0,1.3-0.1,1.9-0.2c1.3-0.1,2.6-0.5,3.9-0.3c3.7,0.4,7.4-0.6,11.1,0.1c0.1,0,0.1,0,0.3-0.1
		C95.5,84.8,95.7,83.6,95.9,82.5z M93.3,90.6c0-0.4,0-0.8,0-1.2c0-1.2-0.3-1.4-1.4-1.3c-1.7,0.1-3.5,0.2-5.2,0.3
		c-2.7,0.1-5.4,0.3-8.1,0.4c-2.6,0.1-5.3,0.1-7.9,0.2c-1.2,0-2.4,0.3-3.5,0.2c-4.3-0.3-8.6,0.4-12.9,0.9c0,0.7,0.1,1.4,0.1,2.1
		c0,0.9,0.5,1,1.2,0.9c1.5-0.1,3.1-0.2,4.6-0.3c1.5,0,3,0,4.5-0.1c2.8-0.1,5.7-0.2,8.5-0.4c2.2-0.1,4.4-0.3,6.6-0.5
		C84.2,91.4,88.7,91,93.3,90.6z M12.2,93.8c-0.5-1.2-1-2.3-1.3-3.5c-0.8-2.9-0.8-5.9-0.7-8.9c0-0.4-0.1-0.8-0.2-1.2
		c-0.2-0.5-0.5-1-0.6-1.6c-0.3-1.7-0.5-3.4-0.8-5.2c-0.3-1.8-0.5-3.7-0.7-5.5c-1.1,0.3-2.1,0.5-3,0.7c-0.7,0.1-1.1,0.5-1,1.3
		c0.2,2,0.4,4,0.6,6C5.1,81.5,5.7,87,7.3,92.3C7.6,93.5,8.3,94,9.6,94C10.5,94,11.4,93.9,12.2,93.8z M65.7,77.3
		c-0.4-1.6-1.8-2.9-3.4-2.9c-0.3,0-0.6,0-0.8-0.1c-1.5-0.1-3-0.3-3.5-2.2c-0.1-0.3-0.6-0.5-0.9-0.6c0,2.1,0.3,4-0.1,5.8
		c-0.4,1.8-1.5,3.4-2.2,4.9c0.7-0.1,1.6-0.5,2.5-0.4c1.6,0.1,3.1-0.3,4.6-0.9c0.7-0.3,1.2-0.7,1.3-1.5
		C63.5,77.9,64.1,77.4,65.7,77.3z M65,79.5c-0.7,1-1.2,1.8-1.7,2.6c0.1,0,0.3,0.1,0.5,0.1c3.7,0,7.4,0.1,11.1-0.1
		c3.2-0.1,6.5-0.4,9.7-0.6c0.3,0,0.6,0,0.8-0.1c1.6-1,3.1-1.9,4.6-3c0.4-0.3,0.7-0.7,1-1.1C82.4,80.1,73.8,82,65,79.5z M55.9,65.5
		c0.8,1.5,1.5,3,2.3,4.4c0.1,0.1,0.2,0.2,0.3,0.4c0.4,0.5,0.7,1.1,1.1,1.6c0.2,0.3,0.5,0.6,0.8,0.7c0.6,0.2,1.2,0.2,1.9,0.3
		c-1.4-2.5-2.8-5-4.2-7.5c-0.1-0.2-0.5-0.3-0.7-0.3C56.9,65.1,56.5,65.3,55.9,65.5z M34.1,18.6c-0.1-0.1-0.2-0.2-0.4-0.3
		c-1.9,0.9-3.1,2.6-4.6,4.1c1.3-0.8,2.6-1.5,3.8-2.4C33.4,19.6,33.7,19.1,34.1,18.6z M29.7,28.9c0,0,0.1,0.1,0.1,0.1
		c2.1-2.2,4.3-4.4,6.4-6.5c0,0,0,0.1,0.1,0.1C34.1,24.7,31.9,26.8,29.7,28.9z M54.4,20.5c0-0.1,0-0.2,0.1-0.3
		c-1.2-0.5-2.5-0.6-3.8-0.2C52,20.1,53.2,20.3,54.4,20.5z M37.9,19.7c-0.1,0.2-0.2,0.5-0.3,0.8c1-0.2,1.9-0.3,2.8-0.5
		c0-0.1,0-0.1,0-0.2C39.6,19.8,38.8,19.8,37.9,19.7z M41.5,40.5c0.3-0.6,0.5-1.1,0.7-1.7c-0.1-0.1-0.2-0.2-0.2-0.2
		c-0.5,0.4-1,0.8-1.5,1.3C40.9,40.2,41.2,40.3,41.5,40.5z M39.1,32.4c0,0.1,0.1,0.2,0.1,0.3c1.1,0.3,1.5-0.8,2.2-1.4
		C40.7,31.6,39.9,32,39.1,32.4z M33.1,34.1c0.5-0.6,0.9-1.1,1.3-1.7c-0.1-0.1-0.1-0.1-0.2-0.2c-0.5,0.3-1,0.6-1.4,0.8
		C32.9,33.4,33,33.7,33.1,34.1z M28.3,35.2c-0.1,0-0.1-0.1-0.2-0.1c-0.5,0.9-0.9,1.8-1.4,2.7c0.1,0.1,0.3,0.1,0.4,0.2
		C27.5,37,27.9,36.1,28.3,35.2z M40.5,17c0-0.1,0-0.1,0-0.2c-0.8,0-1.7,0-2.5,0c0,0.1,0,0.1,0,0.2C38.8,17,39.7,17,40.5,17z"/>
	<path class="st0" d="M67.6,21.9c0-2.4,0.4-4.9,1.2-7.4c0.8-2.7,2.3-4.8,4.6-6.4c1.8-1.3,3.5-2.7,5.7-3.2c1.7-0.4,3.4-0.8,5.1-1
		c1-0.1,2.1,0,3,0.5c3.3,1.9,6.3,4.2,8.4,7.4c1.8,2.8,2.2,5.9,2.1,9.1c-0.2,4.6-2.4,8.2-5.3,11.5c-1.8,2-4.2,3.1-6.9,3.5
		c-4.7,0.8-9-0.5-12.8-2.8C68.7,30.9,67.2,27,67.6,21.9z M69.7,21.6c0,0.4,0,1.3,0,2.2c0.1,3.6,2.4,7,5.8,8.2
		c3.3,1.2,6.5,2.1,10.1,1.5c2.6-0.4,4.8-1.6,6.4-3.6c2.2-2.8,3.6-5.9,3.7-9.6c0.1-3.2-0.6-6.1-2.6-8.4c-1.4-1.7-3.3-3-5-4.5
		c-2.7-2.3-5.9-1.8-8.9-1C76.4,7,74.3,9,72.3,11c-0.7,0.7-1.1,1.6-1.5,2.4C69.8,15.9,69.5,18.5,69.7,21.6z"/>
	<path class="st0" d="M41.5,40.5c-0.3-0.2-0.6-0.3-1.1-0.6c0.6-0.5,1-0.9,1.5-1.3c0.1,0.1,0.2,0.2,0.2,0.2
		C42,39.4,41.7,39.9,41.5,40.5z"/>
	<path class="st0" d="M21.3,61.2c0.1,0.1,0.4,0.2,0.4,0.4c0,0.3-0.1,0.7-0.3,0.8c-1.1,0.8-2.3,1.4-3,2.6c-0.3,0.5-1,0.3-1.1-0.3
		c0-0.2,0-0.4,0-0.6C17.5,63.3,20.1,61.3,21.3,61.2z"/>
	<path class="st0" d="M20.8,65.1c-0.2,0.3-0.4,0.7-0.7,0.9c-0.7,0.6-1.5,1.2-2.3,1.7c-0.3,0.2-0.7,0.1-1,0.1c0.1-0.4,0-0.8,0.2-1
		c0.5-0.5,1.2-0.9,1.8-1.3c0.4-0.3,0.7-0.5,1.1-0.8c0.1-0.1,0.4-0.2,0.5-0.2C20.5,64.6,20.6,64.8,20.8,65.1z"/>
	<path class="st0" d="M15,82.7c0-1,1.4-2.9,2.3-3.1c0.2-0.1,0.6,0.1,0.7,0.3c0.1,0.2,0.1,0.6,0,0.7c-0.6,0.8-1.3,1.6-2,2.3
		c-0.2,0.2-0.5,0.3-0.7,0.3C15.1,83.1,15,82.8,15,82.7z"/>
	<path class="st0" d="M17.5,70.5c-0.4,0.1-0.7,0.2-1.1,0.3c0.1-0.4,0.2-0.9,0.5-1.2c0.7-0.7,1.5-1.3,2.3-2c0.1-0.1,0.6,0.3,0.6,0.3
		c-0.1,0.4-0.2,0.8-0.5,1C18.7,69.5,18.1,70,17.5,70.5C17.5,70.5,17.5,70.5,17.5,70.5z"/>
	<path class="st0" d="M35.9,73.8c-0.2,0.9-0.4,1.7-0.6,2.4c-0.1,0.2-0.4,0.4-0.7,0.5c-0.2-0.3-0.5-0.6-0.5-0.8
		c0.2-0.9,0.6-1.8,0.9-2.7c0-0.1,0.5-0.3,0.5-0.2C35.7,73.3,35.8,73.6,35.9,73.8z"/>
	<path class="st0" d="M15.8,85.5c0.5-0.8,1-1.6,1.4-2.3c0.1-0.1,0.3-0.1,0.4-0.1c0.1,0.1,0.3,0.3,0.2,0.4c-0.3,0.8-0.6,1.6-1,2.4
		c-0.1,0.2-0.5,0.2-0.7,0.2C16,86,16,85.7,15.8,85.5z"/>
	<path class="st0" d="M37.8,74.9c-0.3,0.5-0.6,1.1-0.9,1.5c-0.1,0.1-0.6,0.2-0.6,0.1c-0.2-0.3-0.4-0.7-0.3-0.9
		c0.2-0.5,0.6-0.9,1-1.3c0.1-0.1,0.4-0.1,0.5,0C37.6,74.4,37.6,74.6,37.8,74.9z"/>
	<path class="st0" d="M37.8,76.3c0.3-0.4,0.6-0.6,0.8-0.9c0.3,0.3,0.8,0.6,0.8,0.9c-0.1,0.5-0.5,0.9-0.8,1.4
		C38.4,77.3,38.2,76.9,37.8,76.3z"/>
	<path class="st0" d="M17.5,70.5c0.7-0.2,0.8,0.3,0.8,0.8c-0.1,0.7-0.8,1.3-1.9,1.4c0.4-0.5,0.7-0.9,0.9-1.3
		C17.4,71.1,17.5,70.8,17.5,70.5C17.5,70.5,17.5,70.5,17.5,70.5z"/>
	<path class="st0" d="M54.1,44.9c-1.3,0-2.2-0.8-2.2-2c0-1.2,0.9-2.1,2-2.1c1.1,0,2.1,1.1,2.1,2.2C56,44.2,55.2,44.9,54.1,44.9z"/>
	<path class="st0" d="M36.2,36.8c-0.3-0.1-0.7-0.2-0.7-0.3c0-0.3,0.1-0.6,0.3-0.8c0.7-0.8,1.6-0.9,2.2-0.3c0.7,0.7,1,2.4,0.3,2.9
		c-0.3,0.2-0.9,0.4-1.2,0.2c-0.4-0.2-0.6-0.6-0.8-1C36.1,37.3,36.2,37,36.2,36.8z"/>
	<path class="st0" d="M71.4,22.1c0.1-2.2,0.3-4.7,1.2-7c0.6-1.4,1.4-2.7,2.6-3.6c1.1-0.8,2.2-1.8,3.5-2.3c1.7-0.7,3.6-0.9,5.4-1.3
		c0.5-0.1,1.2,0,1.6,0.3c3.1,1.8,6,3.9,7.3,7.4c1.5,4.3,0.7,8.2-2,11.8c-0.6,0.9-1.3,1.7-2.2,2.4c-2.8,2.2-6,2.6-9.4,1.6
		c-0.8-0.2-1.6-0.4-2.4-0.7C73.5,29.6,71.4,26.4,71.4,22.1z M72.8,20.8c0.1,0,0.2,0,0.3,0c0,0.6,0,1.2,0,1.8c0,3,2,5.7,4.8,6.5
		c2.2,0.7,4.4,1.3,6.9,0.9c2-0.3,3.6-1.1,4.8-2.6c1.7-2.1,2.7-4.4,2.8-7.3c0-3-0.9-5.4-3-7.4c-0.8-0.8-1.7-1.4-2.6-2.1
		C84.6,9,82.2,9.2,80,9.9c-1.5,0.5-2.8,1.6-4.2,2.6c-1.1,0.8-1.9,1.9-2.2,3.2C73.3,17.4,73.1,19.1,72.8,20.8z"/>
	<path class="st0" d="M81.8,20.8c0.3-2.6,0.5-5.1,0.8-7.6c0-0.3,0.5-0.6,0.7-0.9c0.2,0.3,0.6,0.6,0.6,0.9c0,1.3,0,2.6,0,3.9
		c0,0.7,0,1.5,0.2,2.3c0.9-1.2,1.9-2.3,2.8-3.5c0.1,0.1,0.2,0.1,0.3,0.2c-0.1,0.3-0.2,0.6-0.3,0.8c-0.8,1-1.6,2.1-2.4,3.1
		c-0.2,0.3-0.2,0.7-0.1,1.1c0.3,0.9,0.1,1.3-0.7,1.7c-0.1,0-0.1,0.1-0.2,0.1c-1.9,0.2-2.5,1.6-3,3.1c-0.1,0.2-0.1,0.3-0.2,0.5
		c-0.4-0.6-0.4-0.6,0.6-3c-1.1,0-2.2,0-3.2,0c-0.6,0-1.2-0.2-1.7-0.4c-0.7-0.3-0.9-0.8-0.7-1.5c0.2-0.7,0.8-0.9,1.4-0.7
		C78.5,21.2,80.2,21.1,81.8,20.8z"/>
	<path class="st0" d="M82.1,27.6c0.2-0.5,0.4-1.1,0.7-1.6c1.8-2.4,3.7-4.8,5.5-7.2c0.2-0.3,0.3-0.7,0.5-0.9c0.1-0.2,0.4-0.3,0.6-0.4
		c0.1,0.2,0.3,0.5,0.2,0.6c-0.1,0.4-0.3,0.7-0.6,1c-1.7,2.2-3.4,4.4-5.1,6.6c-0.5,0.7-1,1.4-1.4,2.1C82.3,27.7,82.2,27.7,82.1,27.6z
		"/>
</g>
</svg>
