<?xml version="1.0" encoding="utf-8"?>
<!-- Generator: Adobe Illustrator 25.0.0, SVG Export Plug-In . SVG Version: 6.00 Build 0)  -->
<svg version="1.1" id="Layer_1" xmlns="http://www.w3.org/2000/svg" xmlns:xlink="http://www.w3.org/1999/xlink" x="0px" y="0px"
	 viewBox="0 0 100 100" style="enable-background:new 0 0 100 100;" xml:space="preserve">
<style type="text/css">
	.st0{fill:#BABCBE;}
	.st1{fill:#919496;}
	.st2{fill:#07242E;}
	.st3{fill:#F5F6F6;}
	.st4{fill:#CFD2D3;}
	.st5{fill:#BD202F;}
	.st6{fill:#FACBB2;}
	.st7{fill:#414142;}
	.st8{fill:#8BC43F;}
	.st9{fill:#372C25;}
	.st10{fill:#221812;}
	.st11{fill:#77AA42;}
	.st12{fill:#F59220;}
	.st13{fill:#F17923;}
	.st14{fill:#ED6B8F;}
	.st15{fill:#B83C69;}
</style>
<g>
	<rect x="42.3" y="47.4" class="st0" width="15.1" height="15.8"/>
	<rect x="42.3" y="47.4" class="st1" width="15.1" height="7"/>
	<path class="st2" d="M81.8,9.3H17.9c-1.7,0-3.1,1.4-3.1,3.1v30.8H85V12.4C85,10.7,83.6,9.3,81.8,9.3z"/>
	<rect x="17.2" y="11.3" class="st0" width="65.4" height="28.9"/>
	<path class="st0" d="M14.7,43.2v7c0,1.7,1.4,3.1,3.1,3.1h63.9c1.7,0,3.1-1.4,3.1-3.1v-7H14.7z"/>
	<rect x="14.7" y="42.1" class="st3" width="70.2" height="2.1"/>
	<path class="st0" d="M64.8,63.1c0,0.9-0.7,1.6-1.6,1.6H36.6c-0.9,0-1.6-0.7-1.6-1.6l0,0c0-0.9,0.7-1.6,1.6-1.6h26.6
		C64,61.5,64.8,62.2,64.8,63.1L64.8,63.1z"/>
	<path class="st1" d="M52.2,48.9c0,1.3-1.1,2.4-2.4,2.4s-2.4-1.1-2.4-2.4c0-1.3,1.1-2.4,2.4-2.4S52.2,47.6,52.2,48.9z"/>
	<polygon class="st4" points="17.2,11.3 82.5,40.2 82.5,11.3 	"/>
	<path class="st5" d="M62.9,30.1c0,0.8-0.6,1.4-1.4,1.4h-24c-0.8,0-1.4-0.6-1.4-1.4V21c0-0.8,0.6-1.4,1.4-1.4h24
		c0.8,0,1.4,0.6,1.4,1.4V30.1z"/>
	<polygon class="st3" points="54.6,25.7 47.2,21.4 47.2,30 54.6,25.7 47.2,21.4 47.2,30 	"/>
</g>
<g>
	<path class="st6" d="M53.8,69.6c0,3.9-4.4,3.4-4.4,3.4l0,0c0,0-4.4,0.5-4.4-3.4v-9.6c0-2.4,2-4.4,4.4-4.4l0,0c2.4,0,4.4,2,4.4,4.4
		L53.8,69.6z"/>
	<path class="st7" d="M57.6,74.6c0,1.1-0.9,2.1-2.1,2.1H43.4c-1.1,0-2.1-0.9-2.1-2.1v-4.7c0-1.1,0.9-2.1,2.1-2.1h12.1
		c1.1,0,2.1,0.9,2.1,2.1V74.6z"/>
	<path class="st8" d="M65.2,90.7v-14c0-6.5-9.9-7.8-15.8-7.8c-5.9,0-15.7,1.1-15.7,7.8v14H65.2z"/>
	<g>
		<path class="st6" d="M59.2,57.3c0,5.4-4.4,9.8-9.8,9.8l0,0c-5.4,0-9.8-4.4-9.8-9.8v-9c0-5.4,4.4-9.8,9.8-9.8l0,0
			c5.4,0,9.8,4.4,9.8,9.8V57.3z"/>
		<path class="st6" d="M38,48.2c-1.2,0-2.1,3.2-2.1,4.4v0.6c0,1.2,0.5,4.1,2.1,4.1c1.6,0,2.1-0.8,2.1-2v-4.9
			C40.1,49.1,39.2,48.2,38,48.2z"/>
		<path class="st6" d="M61,48.2c1.2,0,2.1,3.2,2.1,4.4v0.6c0,1.2-0.5,4.1-2.1,4.1c-1.6,0-2.1-0.8-2.1-2v-4.9
			C58.8,49.1,59.8,48.2,61,48.2z"/>
		<path class="st9" d="M61,56.2c0,4-5.1,7.2-11.5,7.2l0,0c-6.3,0-11.5-3.2-11.5-7.2V43.4c0-4,1.1-11.3,15.1-8.8l0,0
			c8.1,0,7.9,3.2,7.9,8.8V56.2z"/>
	</g>
	<path class="st10" d="M46.9,34.1c6,0.4,11.5,5.1,11.5,5.1c-1.5-3.1-5.3-4.7-5.3-4.7C50.7,34.2,48.6,34,46.9,34.1z"/>
	<path class="st11" d="M49.9,69c-0.1,0-0.3,0-0.4,0c-5.9,0-15.7,1.1-15.7,7.8v14h16.1V69z"/>
</g>
<g>
	<path class="st6" d="M21.4,68.9c0,3.5-3.9,3-3.9,3l0,0c0,0-3.9,0.5-3.9-3v-8.5c0-2.2,1.7-3.9,3.9-3.9l0,0c2.2,0,3.9,1.7,3.9,3.9
		L21.4,68.9z"/>
	<path class="st7" d="M24.7,73.3c0,1-0.8,1.8-1.8,1.8H12.1c-1,0-1.8-0.8-1.8-1.8v-4.2c0-1,0.8-1.8,1.8-1.8h10.8c1,0,1.8,0.8,1.8,1.8
		V73.3z"/>
	<path class="st12" d="M31.5,87.7V75.2c0-5.8-8.8-7-14.1-7c-5.3,0-14,1-14,7v12.5H31.5z"/>
	<g>
		<path class="st6" d="M26.2,57.8c0,4.8-3.9,8.8-8.8,8.8l0,0c-4.8,0-8.8-3.9-8.8-8.8v-8.1c0-4.8,3.9-8.8,8.8-8.8l0,0
			c4.8,0,8.8,3.9,8.8,8.8V57.8z"/>
		<path class="st6" d="M7.2,49.7c-1.1,0-1.9,2.9-1.9,3.9v0.5c0,1.1,0.5,3.6,1.9,3.6c1.4,0,1.9-0.8,1.9-1.8v-4.4
			C9.1,50.5,8.3,49.7,7.2,49.7z"/>
		<path class="st6" d="M27.7,49.7c1.1,0,1.9,2.9,1.9,3.9v0.5c0,1.1-0.5,3.6-1.9,3.6c-1.4,0-1.9-0.8-1.9-1.8v-4.4
			C25.8,50.5,26.7,49.7,27.7,49.7z"/>
		<path class="st9" d="M27.7,56.9c0,3.5-4.6,6.4-10.3,6.4l0,0c-5.7,0-10.3-2.9-10.3-6.4V45.5c0-3.5,0.9-10.1,13.5-7.9l0,0
			c7.2,0,7,2.9,7,7.9V56.9z"/>
	</g>
	<path class="st10" d="M15.1,37.1c5.4,0.4,10.3,4.6,10.3,4.6c-1.3-2.8-4.7-4.2-4.7-4.2C18.5,37.2,16.7,37.1,15.1,37.1z"/>
	<path class="st13" d="M17.5,68.3C17.4,68.3,17.4,68.3,17.5,68.3c-5.4,0-14,1-14,7v12.5h14V68.3z"/>
</g>
<g>
	<path class="st6" d="M86.4,68.9c0,3.5-3.9,3-3.9,3l0,0c0,0-3.9,0.5-3.9-3v-8.5c0-2.2,1.7-3.9,3.9-3.9l0,0c2.2,0,3.9,1.7,3.9,3.9
		L86.4,68.9z"/>
	<path class="st7" d="M89.8,73.3c0,1-0.8,1.8-1.8,1.8H77.1c-1,0-1.8-0.8-1.8-1.8v-4.2c0-1,0.8-1.8,1.8-1.8h10.8c1,0,1.8,0.8,1.8,1.8
		V73.3z"/>
	<path class="st14" d="M96.6,87.7V75.2c0-5.8-8.8-7-14.1-7c-5.3,0-14,1-14,7v12.5H96.6z"/>
	<g>
		<path class="st6" d="M91.2,57.8c0,4.8-3.9,8.8-8.8,8.8l0,0c-4.8,0-8.8-3.9-8.8-8.8v-8.1c0-4.8,3.9-8.8,8.8-8.8l0,0
			c4.8,0,8.8,3.9,8.8,8.8V57.8z"/>
		<path class="st6" d="M72.3,49.7c-1.1,0-1.9,2.9-1.9,3.9v0.5c0,1.1,0.5,3.6,1.9,3.6c1.4,0,1.9-0.8,1.9-1.8v-4.4
			C74.2,50.5,73.3,49.7,72.3,49.7z"/>
		<path class="st6" d="M92.8,49.7c1.1,0,1.9,2.9,1.9,3.9v0.5c0,1.1-0.5,3.6-1.9,3.6c-1.4,0-1.9-0.8-1.9-1.8v-4.4
			C90.9,50.5,91.7,49.7,92.8,49.7z"/>
		<path class="st9" d="M92.8,56.9c0,3.5-4.6,6.4-10.3,6.4l0,0c-5.7,0-10.3-2.9-10.3-6.4V45.5c0-3.5,0.9-10.1,13.5-7.9l0,0
			c7.2,0,7,2.9,7,7.9V56.9z"/>
	</g>
	<path class="st10" d="M80.2,37.1c5.4,0.4,10.3,4.6,10.3,4.6c-1.3-2.8-4.7-4.2-4.7-4.2C83.6,37.2,81.8,37.1,80.2,37.1z"/>
	<path class="st15" d="M82.5,68.3C82.5,68.3,82.5,68.3,82.5,68.3c-5.4,0-14,1-14,7v12.5h14V68.3z"/>
</g>
<path class="st9" d="M92.7,51.3l-10.2,0.8l-10.2-0.8c0,0-0.3,11.7-3.8,13.4c0,0,2.3,8.4,14,8.4c11.7,0,14-8.4,14-8.4
	C93,63,92.7,51.3,92.7,51.3z"/>
</svg>
