<?xml version="1.0" encoding="utf-8"?>
<!-- Generator: Adobe Illustrator 24.0.2, SVG Export Plug-In . SVG Version: 6.00 Build 0)  -->
<svg version="1.1" id="Capa_1" xmlns="http://www.w3.org/2000/svg" xmlns:xlink="http://www.w3.org/1999/xlink" x="0px" y="0px"
	 viewBox="0 0 456 456" style="enable-background:new 0 0 456 456;" xml:space="preserve">
<style type="text/css">
	.st0{fill:#FFFFFF;}
</style>
<g>
	<path class="st0" d="M336,169.7v-111h-191v111H336L336,169.7z M159.9,73.7h161v81h-161V73.7z"/>
	<rect x="175.9" y="89.5" class="st0" width="129" height="15"/>
	<rect x="175.9" y="119.5" class="st0" width="129" height="15"/>
	<path class="st0" d="M391.1,0H104.2C82.5,0,64.9,17.6,64.9,39.3v332.5c0,21.7,17.6,39.3,39.3,39.3h22.9V456H183v-44.8h208L391.1,0z
		 M376.1,332.5H111.7V15h264.4L376.1,332.5L376.1,332.5z M96.7,16.2v317c-6.1,1.2-11.9,3.8-16.8,7.7V39.3
		C79.9,28.5,87,19.4,96.7,16.2z M104.2,396.1c-13.4,0-24.3-10.9-24.3-24.3c0-6.5,2.5-12.6,7.1-17.2c4.6-4.6,10.7-7.1,17.2-7.1h22.9
		v48.6H104.2z M142.1,441v-93.5H168V441H142.1L142.1,441z M376.1,396.1H183v-48.6h193V396.1L376.1,396.1z"/>
</g>
</svg>
