<?xml version="1.0" encoding="utf-8"?>
<!-- Generator: Adobe Illustrator 25.0.0, SVG Export Plug-In . SVG Version: 6.00 Build 0)  -->
<svg version="1.1" id="Layer_1" xmlns="http://www.w3.org/2000/svg" xmlns:xlink="http://www.w3.org/1999/xlink" x="0px" y="0px"
	 viewBox="0 0 100 100" style="enable-background:new 0 0 100 100;" xml:space="preserve">
<style type="text/css">
	.st0{fill:#C11F6C;}
	.st1{fill:#FDD92E;}
	.st2{fill:#F04E4E;}
	.st3{fill:#FFDF63;}
	.st4{fill:#4680C2;}
	.st5{fill:#27ACE3;}
	.st6{fill:#FABE15;}
	.st7{fill:#FBB267;}
	.st8{fill:#FDCD9A;}
	.st9{fill:#2C347C;}
	.st10{fill:#2553A5;}
	.st11{fill:#3776BC;}
	.st12{fill:#3776BB;}
</style>
<g>
	<path class="st0" d="M79.3,80.8c2.7-0.1,5.4-0.4,8.1,0.3c3.8,0.9,6.6,4.6,6.7,8.5c0,0.5,0,1,0,1.5c0.1,1.4-0.4,2.4-1.7,3
		c-4.4,0-8.7,0-13.1,0c-0.2-0.3-0.3-0.6-0.3-0.9c0-3.8,0-7.6,0-11.4C79,81.4,79,81.1,79.3,80.8z"/>
	<path class="st1" d="M16,38.4c-2.3,0-4.6-0.1-6.9,0c-1.5,0-2.6-0.4-3.2-1.8c0-0.1,0-0.1,0-0.2c0.1-1,0.1-2,0-2.9c0-0.3,0-0.6,0-0.9
		c0.3-0.2,0.2-0.5,0.3-0.8c1-4,4.5-6.7,8.6-6.8c2,0,4,0,5.9,0c0.3,0.3,0.3,0.7,0.3,1.1c0,3.7,0,7.4,0,11c0,0.4,0,0.7-0.2,1.1
		c-0.2,0.2-0.5,0.2-0.7,0.2C18.7,38.5,17.4,38.7,16,38.4z"/>
	<path class="st2" d="M79.3,80.8c0,4.4,0,8.9,0,13.3c-4.4,0-8.7,0-13.1,0c-1.3-0.7-1.6-1.8-1.6-3.3c-0.1-3.2,0.8-5.9,3.3-8
		c1.5-1.3,3.3-2,5.3-2C75.2,80.8,77.3,80.8,79.3,80.8z"/>
	<path class="st3" d="M5.9,33.4c0.3,1,0.3,2,0,2.9C5.9,35.4,5.9,34.4,5.9,33.4z"/>
	<path class="st4" d="M50,14.2C54.9,14,59.7,15,64.1,17c11.4,5.2,18.5,13.9,21.1,26.2c1.4,6.6,0.7,13.2-1.7,19.5
		c-0.3,0.1-0.6,0-0.8-0.1c-1.1-0.5-2.3-0.7-3.5-0.6c-0.3,0-0.7,0-1-0.2c-0.2-0.5,0.1-0.9,0.2-1.4c0.8-2.2,1.3-4.4,1.6-6.7
		c0.1-0.7-0.1-0.9-0.8-0.9c-4.5,0-9,0-13.5,0c-0.7,0-0.9,0.3-1,0.9c-0.1,1.6-0.2,3.3-0.4,4.9c-0.9,7.3-2.9,14.2-6.8,20.5
		c0,0.1-0.1,0.1,0,0.3c0.5,0,0.9-0.2,1.4-0.3c4-1.3,7.7-3.2,10.9-6c0.2-0.2,0.5-0.4,0.8-0.5c0.4,0,0.5,0.3,0.6,0.6
		c0.5,1.4,1.2,2.6,2.2,3.6c0.1,0.1,0.3,0.3,0.2,0.5c-5.1,4.3-11,7-17.5,8.2C54,85.8,52,86,50,85.9c-0.5-0.9-0.2-1.8-0.2-2.7
		c0.3-1.1,0-2.2,0.2-3.2c0-0.1,0.1-0.3,0.2-0.4c1.7-2,3.2-4.1,4.3-6.5c2.3-4.7,3.6-9.6,4.2-14.8c0.2-1.5,0.3-3,0.4-4.5
		c0-0.8-0.2-0.9-0.9-0.9c-2.4,0-4.7,0-7.1,0c-0.3,0-0.7,0-1-0.1c-0.1,0-0.2-0.1-0.2-0.2c-0.2-1.7-0.2-3.3,0-5c0-0.1,0.1-0.2,0.2-0.2
		c0.4-0.2,0.8-0.1,1.2-0.1c2.4,0,4.7,0,7.1,0c0.4,0,0.8,0,0.8-0.7c-0.3-6.8-1.6-13.4-4.6-19.5c-1.2-2.4-2.7-4.6-4.5-6.6
		c0-0.1-0.1-0.2-0.1-0.3c-0.1-1.1,0.1-2.2-0.2-3.2C49.8,16,49.5,15,50,14.2z"/>
	<path class="st5" d="M50,83.1c0,0.9,0,1.9,0,2.8c-8.2,0.1-15.6-2.5-22.1-7.6C20.6,72.5,16.1,65,14.6,55.8c-1-5.9-0.4-11.8,1.5-17.5
		c1.6,0,3.1-0.1,4.7-0.1c0.3-0.1,0.7-0.1,0.9,0.2c0.2,0.4,0,0.7-0.1,1.1c-0.8,2.2-1.4,4.5-1.6,6.9c-0.1,0.6,0.1,0.8,0.7,0.8
		c4.6,0,9.3,0,13.9,0c0.6,0,0.8-0.3,0.8-0.8c0.2-2.2,0.3-4.4,0.6-6.6c1-6.5,2.9-12.7,6.4-18.4c0.1-0.2,0.4-0.4,0.2-0.6
		c-0.2-0.2-0.4,0-0.6,0c-3.5,1-6.8,2.5-9.7,4.7c-0.4,0.3-0.8,0.7-1.3,0.7c-0.3,0-0.5-0.1-0.7-0.2c-1.4-0.6-2.8-0.8-4.2-0.8
		c-0.5,0-1,0.1-1.4-0.3c2.4-2.8,5.3-4.8,8.6-6.5c5.1-2.7,10.6-4.2,16.4-4.3c0.2,0,0.4,0,0.6,0c0,0.9,0,1.8,0,2.8
		c0.1,1,0,2.1,0.1,3.1c0,0.3-0.2,0.6-0.4,0.8c-3.3,3.7-5.3,8.1-6.7,12.8c-1.2,4.1-1.8,8.4-2.1,12.6c0,0.7,0.2,0.9,0.8,0.8
		c2.4,0,4.7,0,7.1,0c0.4,0,0.8-0.1,1.1,0.3c0,1.7,0,3.4,0,5.1c-0.3,0.4-0.7,0.3-1.1,0.3c-2.3,0-4.6,0-7,0c-0.9,0-1,0.1-0.9,0.9
		c0.3,4.3,0.9,8.6,2.1,12.8c1.3,4.5,3.3,8.7,6.4,12.4c0.3,0.3,0.6,0.6,0.6,1C50,81,50.2,82,50,83.1z"/>
	<path class="st6" d="M24.5,25c1.5,0.1,3-0.2,4.5,0.4c0.6,0.2,1.3,0.5,1.9,0.7c1.1,0.1,1.8,0.9,2.4,1.7c2.1,2.3,2.7,5.1,2.4,8.2
		c-0.2,1.8-1.3,2.7-3.2,2.8c-2,0-4.1,0-6.1,0c-1.2,0-2.5,0-3.7,0c-0.4,0-0.8,0.1-1.1-0.2c-0.3-0.1-0.7,0.1-1-0.1c0-4.4,0-8.8,0-13.3
		C22,25,23.2,25,24.5,25z"/>
	<path class="st7" d="M79.3,61.7c1.5-0.2,2.9,0.3,4.2,1c3.2,1.9,4.8,4.6,4.7,8.3c-0.1,4.2-3.7,8-7.7,8.3C79.1,79.5,79,79.4,79,78
		c0-5,0-10.1,0-15.1C79,62.5,79,62.1,79.3,61.7z"/>
	<path class="st7" d="M20.7,5.9c4.1-0.2,8.9,3.2,8.9,8.9c0,4.9-4.1,9-8.9,8.8c-0.3-0.3-0.3-0.7-0.3-1.1c0-5.1,0-10.3,0-15.4
		C20.4,6.6,20.4,6.2,20.7,5.9z"/>
	<path class="st8" d="M20.7,5.9c0,5.9,0,11.8,0,17.7c-4.4,0.1-8.8-3.3-8.9-8.8C11.8,9.5,16,5.8,20.7,5.9z"/>
	<path class="st8" d="M79.3,61.7c0,5.6,0,11.3,0,16.9c0,1.1,0.8,0.5,1.2,0.7c-2.1,0.4-3.9-0.2-5.7-1.2c-0.5-0.3-0.9-0.6-1.3-0.9
		c-1.3-1.3-2.2-2.9-2.8-4.7c-0.7-1-0.5-2.2-0.3-3.2c0.5-3.8,3.3-6.8,7-7.6c0.3-0.1,0.6-0.2,0.9,0C78.6,61.7,79,61.7,79.3,61.7z"/>
	<path class="st9" d="M56.8,20.2c3.6,0.8,6.7,2.1,9.6,4c7.4,4.9,12,11.7,13.7,20.4c0.1,0.7,0.1,1.4,0.3,2c0.2,0.7-0.2,0.7-0.7,0.7
		c-2.4,0-4.7,0-7.1,0c-2.4,0-4.8,0-7.2,0c-0.6,0-0.8-0.1-0.8-0.7c-0.3-4.7-0.8-9.3-2.1-13.9c-1.2-4.3-2.9-8.4-5.4-12.1
		C57,20.6,57,20.5,56.8,20.2z"/>
	<path class="st9" d="M78.3,61.7c-3.8,0.7-6.4,2.8-7.5,6.6c-0.4,1.4-0.3,2.8-0.1,4.2c-3.9,3.6-8.5,6-13.8,7.3c0.5-0.9,1-1.7,1.4-2.4
		c2.9-5.1,4.6-10.5,5.5-16.3c0.4-2.6,0.6-5.2,0.8-7.9c0-0.6,0.3-0.7,0.8-0.7c4.8,0,9.6,0,14.4,0c0.6,0,0.7,0.1,0.6,0.7
		C80.1,56.2,79.3,59,78.3,61.7z"/>
	<path class="st10" d="M50,79.8c-3-3.2-5-7-6.5-11.2c-1.5-4.4-2.4-9-2.7-13.7c0-0.5-0.1-1.1-0.1-1.6c-0.1-0.6,0.2-0.8,0.8-0.8
		c2.6,0,5.2,0,7.8,0c0.2,0,0.5,0,0.7,0c0.1,0,0.1,0,0.2,0c0.3,0.3,0.3,0.8,0.3,1.1c0,8.2,0,16.5,0,24.7c0,0.4-0.1,0.8-0.1,1.2
		c0,0.1-0.1,0.1-0.1,0.2C50.1,79.9,50,79.9,50,79.8z"/>
	<path class="st10" d="M50,47.5c-2.8,0-5.7,0-8.5,0c-0.5,0-0.8,0-0.8-0.7c0.4-7.2,1.7-14.1,5.1-20.5c1.1-2.2,2.6-4.2,4.2-6
		c0.1-0.1,0.1-0.1,0.2,0c0,0,0,0.1,0,0.1c0.2,0.4,0.3,0.9,0.3,1.4c0,8.1,0,16.3,0,24.4c0,0.5,0.1,0.9-0.3,1.3
		C50.1,47.4,50,47.4,50,47.5z"/>
	<path class="st9" d="M50.2,47.4c0-9,0-18.1,0-27.1c2.6,2.6,4.3,5.7,5.7,9.1c1.9,4.6,2.9,9.4,3.3,14.3c0.1,1,0.1,2,0.2,3
		c0.1,0.7-0.1,0.8-0.7,0.8C55.8,47.4,53,47.4,50.2,47.4z"/>
	<path class="st9" d="M50.3,79.6c-0.2-0.2-0.2-0.4-0.2-0.6c0-8.7,0-17.4,0-26c0-0.1,0-0.2,0-0.3c2.7,0,5.4,0,8.2,0
		c0.8,0,1,0.1,1,1.1c-0.2,4.2-0.8,8.4-2,12.4C56,71,53.9,75.7,50.3,79.6z"/>
	<path class="st11" d="M50.2,20.2c-0.1,0-0.1,0-0.2,0c0-1.1,0-2.2,0-3.3C50.3,18,50.1,19.1,50.2,20.2z"/>
	<path class="st12" d="M50,79.8c0.1,0,0.1,0,0.2,0c-0.1,1.1,0.2,2.2-0.2,3.2C50,82,50,80.9,50,79.8z"/>
	<path class="st10" d="M43.2,79.8c-1.6-0.3-3.2-0.8-4.6-1.4c-10.2-4.4-16.5-12-18.8-22.9c-0.2-0.8-0.2-1.6-0.4-2.4
		c-0.1-0.5,0.1-0.6,0.6-0.6c4.9,0,9.9,0,14.8,0c0.6,0,0.6,0.3,0.6,0.7c0.3,4.6,0.8,9.1,2,13.5c1.2,4.4,2.9,8.6,5.5,12.5
		C43.1,79.4,43.1,79.6,43.2,79.8z"/>
	<path class="st10" d="M21.6,38.4c3.6,0,7.1,0,10.7,0c2.3,0,3.1-0.9,3.2-3.2c0-2.6-0.4-5-2.2-7.1c-0.7-0.8-1.5-1.4-2.4-2
		c3.3-2.5,6.9-4.4,10.9-5.6c0.2,0,0.3-0.1,0.5-0.1c0.3-0.1,0.6-0.2,0.7,0c0.2,0.2-0.1,0.5-0.2,0.7c-3.4,5.4-5.4,11.4-6.4,17.7
		c-0.4,2.7-0.6,5.3-0.8,8c0,0.5-0.1,0.6-0.6,0.6c-4.9,0-9.9,0-14.8,0c-0.5,0-0.6-0.2-0.5-0.7C19.9,43.9,20.6,41.1,21.6,38.4z"/>
</g>
</svg>
