<?xml version="1.0" encoding="utf-8"?>
<!-- Generator: Adobe Illustrator 24.0.2, SVG Export Plug-In . SVG Version: 6.00 Build 0)  -->
<svg version="1.1" id="Capa_1" xmlns="http://www.w3.org/2000/svg" xmlns:xlink="http://www.w3.org/1999/xlink" x="0px" y="0px"
	 viewBox="0 0 490.6 490.6" style="enable-background:new 0 0 490.6 490.6;" xml:space="preserve">
<style type="text/css">
	.st0{fill:#FFFFFF;}
</style>
<g>
	<path class="st0" d="M456.6,9.9H34c-18.8,0-34,15.3-34,34v266.2c0,18.8,15.3,34,34,34h260.6c-4-10.4-6.5-21.7-7.2-33.7l-254-0.3
		L34,43.5l423.1,0.5v266.2c0,0.3-0.2,0.5-0.5,0.5l-15.3,0c-0.6,11.9-3.1,23.3-7.1,33.6h22.4c18.8,0,34-15.3,34-34V43.9
		C490.6,25.2,475.4,9.9,456.6,9.9z"/>
	<path class="st0" d="M364.5,381c33.4,0,60.4-34.1,60.4-76.3c0-42.1-27-76.3-60.4-76.3c-33.4,0-60.4,34.1-60.4,76.3
		C304.1,346.9,331.1,381,364.5,381z"/>
	<path class="st0" d="M81.1,118.3h149.6c9.3,0,16.8-7.5,16.8-16.8s-7.5-16.8-16.8-16.8H81.1c-9.3,0-16.8,7.5-16.8,16.8
		C64.3,110.8,71.8,118.3,81.1,118.3z"/>
	<path class="st0" d="M415.2,177.1c0-9.3-7.5-16.8-16.8-16.8H81.1c-9.3,0-16.8,7.5-16.8,16.8s7.5,16.8,16.8,16.8h317.3
		C407.7,193.8,415.2,186.3,415.2,177.1z"/>
	<path class="st0" d="M81.1,235.8c-9.3,0-16.8,7.5-16.8,16.8c0,9.3,7.5,16.8,16.8,16.8h149.6c9.3,0,16.8-7.5,16.8-16.8
		c0-9.3-7.5-16.8-16.8-16.8H81.1z"/>
	<path class="st0" d="M415.4,374.5c-0.1,0.1-23.3,26.9-55.7,23.1l40.3,81.6c0.5,1,1.5,1.6,2.6,1.6c0.1,0,0.1,0,0.2,0
		c1.2-0.1,2.2-0.9,2.6-2l10.2-31.2c0.2-0.7,0.8-1.4,1.5-1.7c0.4-0.2,0.9-0.3,1.3-0.3c0.3,0,0.7,0,1,0.2l31,10.9
		c0.3,0.1,0.6,0.2,1,0.2c0.8,0,1.6-0.4,2.2-1c0.8-0.9,1-2.2,0.4-3.2L415.4,374.5z"/>
	<path class="st0" d="M313.6,374.6c0,0-0.1-0.1-0.2-0.1l-38.6,78c-0.5,1.1-0.4,2.4,0.5,3.3c0.6,0.6,1.4,1,2.2,1c0.3,0,0.6,0,1-0.2
		l31-10.9c0.3-0.1,0.7-0.2,1-0.2c0.4,0,0.9,0.1,1.3,0.3c0.7,0.4,1.2,1,1.5,1.7l10.2,31.2c0.4,1.1,1.4,1.9,2.6,2c0.1,0,0.1,0,0.2,0
		c1.1,0,2.1-0.6,2.6-1.6l26.2-53l-16.8-33.9C338.3,392.2,323.6,386.3,313.6,374.6z"/>
</g>
</svg>
