<?xml version="1.0" encoding="utf-8"?>
<!-- Generator: Adobe Illustrator 25.0.0, SVG Export Plug-In . SVG Version: 6.00 Build 0)  -->
<svg version="1.1" id="Layer_1" xmlns="http://www.w3.org/2000/svg" xmlns:xlink="http://www.w3.org/1999/xlink" x="0px" y="0px"
	 viewBox="0 0 100 100" style="enable-background:new 0 0 100 100;" xml:space="preserve">
<style type="text/css">
	.st0{fill:#44748E;}
	.st1{fill:#F68B4B;}
	.st2{fill:#F9B49E;}
	.st3{fill:#333E6B;}
	.st4{fill:#FFFFFF;}
	.st5{fill:#EF3F42;}
	.st6{fill:#404D85;}
	.st7{fill:#242D5C;}
	.st8{fill:#18224A;}
	.st9{fill:#FAFDFD;}
	.st10{fill:#5CC2A4;}
	.st11{fill:#813B1D;}
	.st12{fill:#86BAE5;}
	.st13{fill:#BD6846;}
</style>
<g>
	<path class="st0" d="M88.3,41.6H51c-1.9,0-3.4-1.5-3.4-3.4v-26c0-1.9,1.5-3.4,3.4-3.4h37.3c1.9,0,3.4,1.5,3.4,3.4v26
		C91.7,40.1,90.2,41.6,88.3,41.6z"/>
	<g>
		<path class="st1" d="M62.7,22.2L49.5,32.7l-1.8-2.3l13.2-10.5c0.6-0.5,1.6-0.4,2.1,0.2v0C63.4,20.8,63.3,21.7,62.7,22.2z"/>
		<g>
			<circle class="st2" cx="27.2" cy="10.6" r="6.2"/>
			<g>
				<rect x="27.8" y="47.1" class="st3" width="7.3" height="26.5"/>
				<polygon class="st4" points="22.4,18.8 31.8,18.8 27.1,31 				"/>
				<path class="st5" d="M27.7,31.7l-1.2,0c0,0-1.3-6.4-1.5-8.2c0-0.1,0-0.2,0.1-0.3l0.8-1.1c0.3-0.5,0.3-1.1,0-1.6
					c-0.2-0.2-0.4-0.5-0.5-0.7C25,19.5,25,19.2,25.3,19l0.2-0.2h3.2l0,0c0.3,0.2,0.4,0.7,0.1,1l-0.5,0.6c-0.4,0.4-0.4,1.1-0.1,1.5
					l0.6,0.8c0.2,0.2,0.2,0.5,0.2,0.7C29.1,25.1,28.3,28.6,27.7,31.7z"/>
				<rect x="19.1" y="47.1" class="st6" width="7.3" height="26.5"/>
				<polygon class="st7" points="27.1,31 27.1,48 19.1,48 19.1,18.8 22.4,18.8 				"/>
				<polygon class="st8" points="35,18.8 35,48 27.1,48 27.1,31 31.8,18.8 				"/>
				<g>
					<path class="st8" d="M47.4,28.4l3.1,5.1l-10.1,6.3c-0.4,0.2-0.8,0.3-1.2,0.3c-1.4,0-2.7-1.1-2.7-2.7V25.6l0-0.1
						c-0.1-0.7-0.8-1-1.4-0.7v-6.1l0.5,0c3.8,0,6.9,3,6.9,6.9v5.9L47.4,28.4z"/>
					<path class="st2" d="M53,30.3c0,1-0.5,2-1.4,2.5l-3.2-5c1.4-0.9,3.2-0.5,4.1,0.9C52.8,29.2,53,29.7,53,30.3z"/>
					<polygon class="st9" points="47.4,28.4 48.4,27.8 51.6,32.8 50.4,33.5 					"/>
				</g>
				<g>
					<path class="st2" d="M11.6,48.2h6.1v0.2c0,1.7-1.4,3-3,3c-0.8,0-1.6-0.3-2.2-0.9c-0.6-0.6-0.9-1.3-0.9-2.2V48.2z"/>
					<path class="st7" d="M19.1,18.8v6.1c-0.1-0.1-0.3-0.1-0.4-0.1c-0.6,0-1,0.4-1,1v20.8h-6.1V25.9c0-3.9,3.2-7.1,7.1-7.1H19.1z"/>
					<rect x="11.6" y="46.7" class="st4" width="6.1" height="1.5"/>
				</g>
			</g>
		</g>
	</g>
	<g>
		<path class="st7" d="M64.9,78.1l-0.1,6.4H59v-6.7c0-0.7-0.6-1.3-1.3-1.3l0.1,8c0,0-15.7,0.1-15.7,0c0-0.1,0-7.8,0-7.8
			c-0.7,0-1.3,0.6-1.3,1.3v0l0.1,6.5h-5.8v-6.7c0-3.8,3.1-6.9,6.9-6.9h15.8C61.7,70.9,64.9,74.1,64.9,78.1z"/>
		<g>
			<circle class="st2" cx="50" cy="62.7" r="6"/>
			<path class="st2" d="M53.1,70.9c-0.9,0.5-1.9,0.8-3.1,0.8c-1.1,0-2.2-0.3-3.1-0.8H53.1z"/>
			<polygon class="st2" points="35.1,82.1 40.9,82.1 40.9,84.5 35.1,84.5 			"/>
			<polygon class="st2" points="59.1,82.1 64.9,82.1 64.9,84.5 59.1,84.5 			"/>
		</g>
	</g>
	<g>
		<path class="st10" d="M95.9,78l-0.1,6.4H90v-6.7c0-0.7-0.6-1.3-1.3-1.3l0.1,8c0,0-15.7,0.1-15.7,0c0-0.1,0-7.8,0-7.8
			c-0.7,0-1.3,0.6-1.3,1.3v0l0.1,6.5h-5.8v-6.7c0-3.8,3.1-6.9,6.9-6.9h15.8C92.8,70.9,95.9,74.1,95.9,78z"/>
		<g>
			<circle class="st11" cx="81" cy="62.7" r="6"/>
			<path class="st11" d="M84.1,70.9c-0.9,0.5-1.9,0.8-3.1,0.8s-2.2-0.3-3.1-0.8H84.1z"/>
			<polygon class="st11" points="66.1,82.1 71.9,82.1 71.9,84.5 66.1,84.5 			"/>
			<polygon class="st11" points="90.1,82.1 95.9,82.1 95.9,84.5 90.1,84.5 			"/>
		</g>
	</g>
	<g>
		<path class="st12" d="M33.9,78.1l-0.1,6.4H28v-6.7c0-0.7-0.6-1.3-1.3-1.3l0.1,8c0,0-15.7,0.1-15.7,0c0-0.1,0-7.8,0-7.8
			c-0.7,0-1.3,0.6-1.3,1.3v0l0.1,6.5H4.1v-6.7c0-3.8,3.1-6.9,6.9-6.9h15.8C30.8,70.9,33.9,74.1,33.9,78.1z"/>
		<g>
			<circle class="st2" cx="19" cy="62.8" r="6"/>
			<path class="st2" d="M22.1,70.9c-0.9,0.5-1.9,0.8-3.1,0.8s-2.2-0.3-3.1-0.8H22.1z"/>
			<polygon class="st2" points="4.1,82.2 9.9,82.2 9.9,84.5 4.1,84.5 			"/>
			<polygon class="st2" points="28.1,82.2 33.9,82.2 33.9,84.5 28.1,84.5 			"/>
		</g>
	</g>
	<g>
		<path class="st12" d="M82.1,89.1l-0.1,6.4h-5.8v-6.7c0-0.7-0.6-1.3-1.3-1.3l0.1,8c0,0-15.7,0.1-15.7,0c0-0.1,0-7.8,0-7.8
			c-0.7,0-1.3,0.6-1.3,1.3v0l0.1,6.5h-5.8v-6.7c0-3.8,3.1-6.9,6.9-6.9H75C79,81.9,82.2,85.1,82.1,89.1z"/>
		<g>
			<circle class="st2" cx="67.2" cy="73.8" r="6"/>
			<path class="st2" d="M70.3,81.9c-0.9,0.5-1.9,0.8-3.1,0.8s-2.2-0.3-3.1-0.8H70.3z"/>
			<polygon class="st2" points="52.3,93.2 58.1,93.2 58.2,95.5 52.3,95.5 			"/>
			<polygon class="st2" points="76.3,93.2 82.1,93.2 82.1,95.5 76.3,95.5 			"/>
		</g>
	</g>
	<g>
		<path class="st5" d="M51,89.1L51,95.5h-5.8v-6.7c0-0.7-0.6-1.3-1.3-1.3l0.1,8c0,0-15.7,0.1-15.7,0c0-0.1,0-7.8,0-7.8
			c-0.7,0-1.3,0.6-1.3,1.3v0l0.1,6.5h-5.8v-6.7c0-3.8,3.1-6.9,6.9-6.9h15.8C47.9,81.9,51.1,85.2,51,89.1z"/>
		<g>
			<circle class="st13" cx="36.1" cy="73.8" r="6"/>
			<path class="st13" d="M39.2,81.9c-0.9,0.5-1.9,0.8-3.1,0.8s-2.2-0.3-3.1-0.8H39.2z"/>
			<polygon class="st13" points="21.2,93.2 27,93.2 27.1,95.5 21.2,95.5 			"/>
			<polygon class="st13" points="45.2,93.2 51,93.2 51,95.5 45.2,95.5 			"/>
		</g>
	</g>
</g>
</svg>
