<?xml version="1.0" encoding="utf-8"?>
<!-- Generator: Adobe Illustrator 25.0.0, SVG Export Plug-In . SVG Version: 6.00 Build 0)  -->
<svg version="1.1" id="Layer_1" xmlns="http://www.w3.org/2000/svg" xmlns:xlink="http://www.w3.org/1999/xlink" x="0px" y="0px"
	 viewBox="0 0 100 100" style="enable-background:new 0 0 100 100;" xml:space="preserve">
<g>
	<path d="M90.7,38.5c0,0.1-0.1,0.3-0.1,0.4c-0.2,3-0.9,6-2,8.8C83.4,60.1,70.1,67.1,57,64.2C46.3,61.8,37.8,53.5,35.6,42
		c-0.3-1.6-0.3-3.2-0.3-4.9c0-1.4,0-2.7,0.2-4.1c1.2-7.3,4.6-13.4,10.5-18c5.8-4.5,12.4-6.3,19.6-5.7c4,0.4,7.9,1.6,11.3,3.7
		c7.7,4.6,12.2,11.4,13.5,20.3c0.1,0.7,0.2,1.4,0.2,2.1C90.7,36.5,90.7,37.5,90.7,38.5z M71.4,14.8c-3.2-1.2-6.4-1.5-9.7-1.4
		c-5.2,0.2-9.7,2-13.7,5.2c-4.1,3.3-6.7,7.5-8.1,12.6c-3.2,12,3.7,24.7,15.5,28.5c9.5,3,17.9,0.8,24.9-6.2c3.3-3.3,5.2-7.4,6.1-11.9
		c0.3-1.5,0.3-3,0.4-4.5C87,26.5,79.3,17.7,71.4,14.8z"/>
	<path d="M15.4,90.7c0.9,0.2,2-0.6,2.9-1.4c1.7-1.6,3.5-3.3,5.2-4.9c4.9-4.9,9.9-9.9,14.8-14.9c0.4-0.4,0.8-0.8,1.2-1.2
		c2-2,1.6-5.3,0-7.1c-1.7-1.9-4.2-2.2-6.3-1.4c-0.5,0.2-0.9,0.5-1.3,0.9c-2.5,2.4-5,4.9-7.5,7.3c-4,4-8,8-11.9,12
		c-0.8,0.8-1.6,1.8-2.3,2.7c-0.5,0.7-0.8,1.4-0.7,2.3c0,0.9,0,1.7,0.4,2.5C10.7,89.5,12.5,90.6,15.4,90.7z"/>
	<path d="M43.6,63.3c0.9-0.1,1.5-0.4,1.9-1.1c0.4-0.7,0.3-1.3-0.2-1.9c-0.4-0.5-0.8-0.9-1.2-1.4c-1.3-1.3-2.7-2.6-4-4
		c-1.1-1.2-2.8-0.5-3.3,0.9c-0.1,0.3,0,0.7,0.1,1c0.2,0.4,0.5,0.8,0.8,1.1c1.5,1.5,3,3,4.5,4.5c0.2,0.2,0.5,0.4,0.7,0.6
		C43.2,63.1,43.5,63.2,43.6,63.3z"/>
	<path d="M82.9,36.5c0.2-2.8-0.8-5.8-2.1-8.6c-0.2-0.3-0.3-0.6-0.6-0.9c-0.5-0.6-1.4-0.7-2-0.2c-0.3,0.3-0.5,0.6-0.4,1
		c0.2,0.5,0.4,1.1,0.7,1.6c1.5,3,2,6.2,1.7,9.5c-0.7,5.8-3.6,10.2-8.6,13.2c-3,1.7-6.2,2.5-9.6,2.3c-1.2-0.1-2.4-0.3-3.6-0.5
		c-0.8-0.1-1.4,0.3-1.5,0.9c-0.2,0.7,0.2,1.4,1,1.6c1.1,0.3,2.2,0.5,3.4,0.6c4,0.3,7.7-0.4,11.2-2.3c5.1-2.7,8.3-7,9.9-12.5
		C82.8,40.5,82.9,38.7,82.9,36.5z"/>
</g>
</svg>
