<?xml version="1.0" encoding="utf-8"?>
<!-- Generator: Adobe Illustrator 24.0.2, SVG Export Plug-In . SVG Version: 6.00 Build 0)  -->
<svg version="1.1" id="Layer_1" xmlns="http://www.w3.org/2000/svg" xmlns:xlink="http://www.w3.org/1999/xlink" x="0px" y="0px"
	 viewBox="0 0 237 128.3" style="enable-background:new 0 0 237 128.3;" xml:space="preserve">
<style type="text/css">
	.st0{fill:#FFFFFF;}
</style>
<title>group</title>
<path class="st0" d="M57.4,128.3c-0.6,0-1.1-0.1-1.6-0.4l-1-0.6v-1.1c0-0.5,0-1.1,0-1.6c0-1.3,0-2.7,0-4.1c0-1.1,0.5-2.2,1.4-2.9
	c1.7-1.4,3.5-2.7,5.4-3.7l0.6-0.4c8.6-5.2,17.9-9.1,26.9-13l3.6-1.5c1.2-0.4,2.2-1.4,2.5-2.6c0.3-1.2,0.7-2.3,1-3.4
	c0.2-0.7,0.4-1.4,0.7-2.1c0.4-1.8,1.7-3.3,3.5-3.9c0-0.1,0-0.1,0-0.2c0.4-2.7,0.6-5.5,0.8-8.2v-0.5c0-0.3-0.1-0.6-0.3-0.8
	c-2.6-3.3-4.3-7.2-4.9-11.3c-0.3-1.3-0.7-2.5-1.2-3.8c-0.5-1.3-0.9-2.6-1.3-3.9l-0.4-1.8c-0.7-2.6-1.1-5.2-1.3-7.8
	c-0.2-1.8,0.7-3.6,2.3-4.4c0-0.3,0-0.6,0-0.9v-0.1c0-3.4,0-6.8,0-10.1c0-1.2,0-2.5,0-3.7c0-0.2,0-0.4,0-0.5c0-0.3,0-0.5,0-0.8
	C93.5,19.8,97,13.1,105.1,8c5.3-3.4,11.2-5,16.2-6.2c1.8-0.4,3.7-0.7,5.5-1.1c0.7-0.1,1.3-0.2,2-0.4l0.1-0.4h2l0.2,0.1
	c0.4,0.1,0.8,0.1,1.2,0l0.2-0.1h1.2l0.5,0.5c0.7,0.5,1.2,1.4,1.1,2.3c-0.1,0.9-0.6,1.8-1.4,2.3c-0.5,0.3-0.9,0.7-1.3,1.1
	c0.4,0.4,0.8,0.8,1.2,1.2c0.8,0.7,1.6,1.5,2.5,2.2c1.6,1.5,3.2,3,4.9,4.4c3.4,2.9,5.3,7.2,5.2,11.7c0,6,0,12.5,0,18.8
	c0,0.3,0,0.6,0.1,0.8l0,0c0,0,0.1,0.1,0.1,0.1c1.3,0.6,2,2,1.8,3.4c-0.3,3.1-0.6,6.2-0.8,9.2c0,0.5-0.2,1-0.4,1.4
	c-1.4,2.4-2.4,5-3,7.7c-0.3,1-0.6,2-0.9,3c-0.5,1.7-1.2,3.2-2.2,4.7c-1,1.6-1.4,3.5-1.3,5.4c-0.1,1.8,0,3.8,0,5.6V87
	c0,0.1,0,0.2,0,0.3l0,0c1.3,0.8,2.3,2.1,2.6,3.6c0.2,0.7,0.5,1.4,0.7,2.1c0.4,1.3,0.9,2.7,1.3,4c0.3,0.8,0.9,1.5,1.8,1.7
	c6.4,2.5,12,4.9,17.1,7.2c4.5,2,10.4,4.8,16.2,8h0l0.2,0.1c1.9,1,6.9,3.8,5.5,10.2c0,0.4,0,0.7,0,1.1c0,0.3,0,0.6,0,0.9v1.2l-1,0.5
	c-0.6,0.3-1.3,0.4-2,0.3H182c-41.7,0-83.4,0-124,0h-0.2C57.7,128.3,57.5,128.3,57.4,128.3z M58.7,124.3h122.7c0-0.3,0.1-0.6,0.1-0.9
	c0.6-2.6-0.3-4-3.6-5.8l0,0l-0.2-0.1c-5.7-3.2-11.5-5.9-16-7.9c-5.1-2.3-10.7-4.7-17-7.2c-2-0.7-3.5-2.3-4.1-4.3
	c-0.4-1.3-0.8-2.7-1.2-3.9l-0.7-2.2c-0.3-0.8-0.5-1.2-0.7-1.3c-1.4-0.7-2.3-2.2-2.2-3.8v-1.4c0-1.9-0.1-3.8,0-5.8
	c0-2.7,0.8-5.3,2.3-7.6c0.7-1.1,1.2-2.3,1.6-3.5c0.3-0.9,0.6-1.9,0.9-2.9c0.7-3,1.8-5.9,3.3-8.5c0.3-2.8,0.5-5.7,0.8-8.6
	c-1.4-1-2.2-2.6-2-4.3c0-6.3,0-12.8,0-18.8c0.1-3.3-1.2-6.4-3.8-8.6c-1.7-1.5-3.4-3-5-4.5l-2.4-2.2c-1.4-1.2-2.7-2.6-2.6-4.5
	c0-0.5,0.2-1.1,0.5-1.5l-1.8,0.3c-1.8,0.3-3.6,0.6-5.3,1c-4.7,1-10.1,2.5-15,5.7c-6.8,4.4-9.7,9.6-9.1,16.6c0,0.4,0,0.8,0,1.3
	c0,0.1,0,0.3,0,0.4c0,1.2,0,2.5,0,3.7c0,3.3,0,6.8,0,10.1v0.1c0,1.1,0,3.5-2.3,4.5h-0.1c0,0.2,0,0.4,0,0.6c0.1,2.4,0.5,4.7,1.1,7
	c0.2,0.6,0.3,1.3,0.4,1.9c0.3,1.1,0.6,2.2,1.1,3.3c0.6,1.5,1.1,3,1.4,4.6c0.5,3.4,1.8,6.7,4,9.4c0.9,1,1.4,2.4,1.3,3.8V79
	c-0.2,2.8-0.4,5.6-0.9,8.4c-0.1,1.5-1.2,2.9-2.7,3.3c-0.4,0.1-0.7,0.3-1,1.3c-0.2,0.7-0.4,1.5-0.7,2.2c-0.3,1.1-0.7,2.1-1,3.2
	c-0.6,2.4-2.4,4.4-4.7,5.2l-3.6,1.5c-8.8,3.8-18,7.7-26.4,12.7l-0.6,0.4c-1.7,1-3.4,2.1-4.9,3.3l0,0
	C58.7,121.9,58.7,123.1,58.7,124.3L58.7,124.3z"/>
<path class="st0" d="M190,126.4c0-3.3,0-6.6,0-10c0.8,0.2,0.6,0.9,0.6,1.4c0,1.9,0,3.7,0,5.6c0,2.3,0,2.3,2.1,2.3h40.1
	c0.8,0,1.5-0.1,2.2-0.4h0.2c0.2,0.9-0.1,1-0.9,1C219.5,126.4,204.8,126.4,190,126.4z"/>
<path class="st0" d="M49.9,126.2v0.2H2.6c-0.3,0-0.7,0.3-1-0.2c0.1-0.1,0.3-0.2,0.4-0.3c0.6-0.1,1.2-0.2,1.8-0.1
	c14.6,0,29.2,0,43.8,0C48.4,125.8,49.2,125.6,49.9,126.2z"/>
<path class="st0" d="M1.9,126.1H1.7v-5.5h0.2C2.5,122.4,2.5,124.4,1.9,126.1z"/>
<path class="st0" d="M133,2c-0.7,0.4-1.5,0.4-2.1,0H133z"/>
<path class="st0" d="M51.6,128.2h-9.5H3.5H2.4H1.9H0V120l0.5-0.6c1.3-1.3,2.8-2.4,4.4-3.3c7.6-4.4,15.5-8.3,23.7-11.6
	c0.7-0.3,1.4-0.6,2-0.9s1.3-0.6,2-0.9c0.3-0.1,0.6-0.4,0.6-0.7c0.3-0.8,0.5-1.6,0.8-2.4c0.3-1,0.6-1.9,0.9-2.9c0.3-1.6,1.5-3,3-3.6
	l0.4-4c0.1-1.1,0.2-2.1,0.3-3.2c0-0.1,0-0.2-0.3-0.6c-2.1-2.6-3.5-5.8-4-9.1c-0.2-1.2-0.6-2.4-1.1-3.5c-0.5-1.2-0.9-2.5-1.2-3.8
	l-0.3-1.3c-0.5-2.1-0.9-4.3-1-6.4c0-0.7-0.1-2.9,1.9-3.7c0.1,0,0.1,0,0.1-0.1c0.1-0.2,0.1-0.5,0.1-0.8c0-1.3,0-2.5,0-3.8
	c0-2.9,0-5.9,0-8.9c0-1.2,0.1-2.5,0.1-3.7v-0.3c0.2-3,1.4-5.9,3.4-8.1c3.1-3.6,6.8-6.5,11.1-8.5c5.1-2.4,11.1-2.3,16.2,0.1
	c4.2,2,8,4.9,11,8.4c2.2,2.5,3.4,5.8,3.4,9.1c0,3.5,0.1,7,0.1,10.4c0,1.7,0,3.4,0,5.1c0,0.3,0,0.7,0.1,1l0.1,0.1
	c1.3,0.6,1.9,1.8,1.8,3.7c-0.3,3.8-1,7.6-2.3,11.2l-0.2,0.4c-0.5,1.5-1,3-1.3,4.5c-0.5,2.9-1.8,5.5-3.6,7.8
	c-0.4,0.4-0.5,0.9-0.4,1.4c0.3,2.1,0.5,4.2,0.7,6.4c0,0.1,0,0.1,0,0.2c1.4,0.5,2.4,1.6,2.8,2.9c0.1,0.4,0.3,0.8,0.4,1.2
	c0.3,0.8,0.5,1.5,0.8,2.2c0.6,1.3,0,2.9-1.3,3.5c-0.1,0-0.2,0.1-0.3,0.1c-4.9,2.2-9.6,4.6-14.2,7.4l-1.9,1.1
	c-2.8,1.6-5.3,3.6-7.5,5.9l0,0c0,0,0,0.1,0,0.1c0,1,0,2,0,2.9c0,1.9,0,3.8-0.1,5.8L51.6,128.2z M3.8,124.2h38.3H48
	c0-1.2,0-2.4,0-3.6c0-1,0-2,0-3c0-1.1,0.4-2.1,1.2-2.9c2.5-2.6,5.3-4.8,8.4-6.6l1.9-1.1c4.4-2.6,9-5,13.7-7.2
	c-0.2-0.4-0.3-0.9-0.4-1.3s-0.2-0.8-0.4-1.1s-0.2-0.4-0.3-0.5c-1.6-0.5-2.7-1.9-2.7-3.6c-0.2-2.1-0.4-4.2-0.7-6.3
	c-0.2-1.6,0.2-3.3,1.3-4.5c1.4-1.7,2.4-3.7,2.8-5.9c0.4-1.7,0.8-3.4,1.4-5l0.2-0.4c1.2-3.2,1.9-6.6,2.1-10.1l0,0c-2-1.2-2-3.3-2-4.4
	c0-1.7,0-3.4,0-5.1c0-3.4-0.1-6.9-0.1-10.3c0-2.4-0.8-4.7-2.4-6.5c-2.7-3.2-6-5.7-9.7-7.5c-4.1-2-9-2-13.1-0.1
	c-3.8,1.8-7.1,4.3-9.8,7.5c-1.4,1.6-2.3,3.6-2.4,5.7v0.3c-0.1,1.2-0.1,2.3-0.1,3.5c0,3,0,6,0,8.9c0,1.3,0,2.5,0,3.8
	c0.2,1.7-0.6,3.3-2,4.2v0.2c0.1,1.9,0.4,3.8,0.9,5.7c0.1,0.4,0.2,0.8,0.3,1.3c0.3,1.1,0.6,2.1,1,3.2c0.6,1.4,1,2.8,1.3,4.3
	c0.4,2.6,1.5,5.1,3.1,7.2c0.9,1,1.4,2.3,1.2,3.7c-0.1,1.1-0.2,2.1-0.3,3.2c-0.1,1.4-0.3,2.7-0.4,4.1c-0.1,1.5-1.1,2.7-2.5,3.2
	C39.2,97,39,97.1,38.7,98s-0.6,2-0.9,2.9l-0.8,2.4c-0.4,1.4-1.5,2.6-2.8,3.1l-1.9,0.8c-0.7,0.3-1.4,0.6-2.1,0.9
	c-8,3.2-15.8,6.9-23.3,11.2c-1.1,0.6-2.1,1.3-3,2.1V124.2z"/>
<path class="st0" d="M191.6,128.2c-0.9,0.1-1.9-0.3-2.5-0.9c-0.6-0.7-0.9-1.7-0.8-2.7c0.1-1.8,0-3.7,0-5.4c0-0.5,0-0.9,0-1.4
	c0-0.1,0-0.2,0-0.2c-4-4.8-9.3-7.4-15-10.2c-0.8-0.4-1.7-0.8-2.5-1.2c-1.7-0.8-3.4-1.6-5.2-2.5l-2.5-1.2l-2.4-1.1l1.8-2
	c1.1-1.5,2.8-2.6,4.6-3c1.1-0.1,2-0.9,2.1-2c0.8-2.8,1-5.8,0.6-8.8c0-0.6-0.4-1.2-1-1.4c-2-0.8-4-1.7-6-2.6l-1.7-0.8
	c-3.2-1.4-4-3.1-2.8-6.5c2-5.8,3.4-11.7,4.2-17.8c0.3-2.3,0.4-4.8,0.5-7.1c0.1-1.6,0.2-3.3,0.3-4.9c0.2-4.3,1.4-8.5,3.5-12.3
	c1.5-2.6,3.8-4.6,6.6-5.5c1-0.3,1.9-0.7,2.8-1.2c3.8-2.3,8-2.6,12.8-1.1c5.3,1.7,9.1,4.5,11.6,8.5s3.1,8.4,3.3,11.8
	c0.1,1.2,0.2,2.5,0.2,3.7c0.2,5.2,0.8,10.3,1.8,15.4c0.8,3.3,1.8,6.7,2.9,10.3c0.5,1.5,0.8,2.8,0.3,4.1c-0.5,1.3-1.7,1.9-3.1,2.5
	c-2.5,1.1-4.9,2.2-7.4,3.2c-0.7,0.2-1.3,0.9-1.3,1.6c-0.4,3.2-0.1,6.5,1,9.6c0.1,0.5,0.6,0.9,1.1,0.9c2,0.4,3.8,1.4,5.1,3
	c0.9,0.9,2,1.7,3.1,2.2c4.6,2.2,9.2,4.1,14.7,6.4c6.6,2.7,11,7,13.2,13c0.6,1.5,1,3,1.2,4.6v0.2v0.3c-0.3,2.6-2.4,2.5-2.8,2.4H225
	C214.1,128.2,202.8,128.2,191.6,128.2L191.6,128.2z M191.4,115.1c0.6,0.7,0.9,1.6,0.8,2.6c0,0,0,0.1,0,0.1c0,0.4,0,0.9,0,1.4
	c0,1.7,0,3.4,0,5.1c10.9,0,22.1,0,32.8,0h7.9c-0.2-0.7-0.4-1.4-0.7-2.1c-1.9-4.9-5.5-8.4-11.1-10.7s-10.2-4.3-14.9-6.4
	c-1.6-0.7-3.1-1.7-4.3-3c-0.8-0.9-1.8-1.6-3-1.8c-2-0.3-3.6-1.7-4.1-3.6c-1.3-3.7-1.7-7.7-1.1-11.6c0.2-2.1,1.7-3.9,3.7-4.7
	c2.4-1,4.7-2,7.3-3.2c0.4-0.1,0.7-0.3,1-0.5c-0.1-0.4-0.2-0.8-0.3-1.2c-1.2-3.7-2.2-7.2-3-10.6c-1.1-5.3-1.8-10.6-2-16
	c-0.1-1.2-0.1-2.4-0.2-3.6c-0.2-2.9-0.7-6.7-2.7-9.9s-5.1-5.5-9.6-6.9c-3.8-1.2-6.9-1-9.7,0.7c-1.1,0.6-2.3,1.2-3.5,1.5
	c-2,0.7-3.6,2.1-4.6,3.9c-1.8,3.2-2.8,6.7-3,10.4c-0.1,1.6-0.2,3.2-0.3,4.8c-0.1,2.4-0.2,4.9-0.5,7.4c-0.8,6.3-2.3,12.5-4.4,18.5
	c-0.1,0.3-0.2,0.7-0.3,1c0.3,0.2,0.7,0.4,1,0.5l1.7,0.8c1.9,0.9,3.9,1.8,5.9,2.6c1.8,0.7,3.1,2.4,3.4,4.3c0.5,3.5,0.3,7-0.6,10.4
	c-0.4,2.6-2.5,4.7-5.2,5.1c1.6,0.8,3.2,1.5,4.8,2.3l2.5,1.2C180.8,106.6,186.8,109.5,191.4,115.1L191.4,115.1z"/>
</svg>
