<?xml version="1.0" encoding="utf-8"?>
<!-- Generator: Adobe Illustrator 25.0.0, SVG Export Plug-In . SVG Version: 6.00 Build 0)  -->
<svg version="1.1" id="Layer_1" xmlns="http://www.w3.org/2000/svg" xmlns:xlink="http://www.w3.org/1999/xlink" x="0px" y="0px"
	 viewBox="0 0 100 100" style="enable-background:new 0 0 100 100;" xml:space="preserve">
<style type="text/css">
	.st0{fill:#F05563;}
	.st1{fill:#4BC0EB;}
	.st2{fill:#A0CE63;}
	.st3{fill:#CDD2D9;}
	.st4{fill:#FFD047;}
	.st5{fill:#F5F7FA;}
	.st6{fill:#A0CE62;}
</style>
<g>
	<path class="st0" d="M67,30.1c-0.4-7.8-4-13.6-11.2-16.7c-7.3-3.1-14.2-1.9-20,3.6c-4.5,4.2-6.6,9.5-5.5,15.7
		c0.5,3.1,2,5.8,3.5,8.5c2.3,4.1,4.6,8.1,7,12.2c-0.1,0.7,0.4,1.2,0.7,1.8c1.9,3.2,3.8,6.4,5.7,9.6c0.1,0.2,0.2,0.3,0.3,0.5
		c0.9,1.3,1.3,1.3,2.1-0.1c0.4-0.6,0.7-1.2,1.1-1.8c1.2-2.3,2.5-4.4,3.8-6.7c0.6-1.1,1.5-2,1.6-3.3c0.2-0.5,0.4-0.9,0.7-1.4
		c3-5.5,6.5-10.7,9-16.5C66.4,33.8,67,32,67,30.1z M48.5,36.6c-2.7,0-5-2.2-5.1-4.9c-0.1-2.8,2.2-5.1,5-5.2c2.8,0,5.1,2.2,5.1,5
		C53.5,34.3,51.2,36.6,48.5,36.6z"/>
	<path class="st1" d="M93.9,87.1c-1.5,0.8-3.1,1.1-4.8,1.1c-26.1,0-52.2,0-78.3,0c-1.8,0-3.5-0.4-4.9-1.6C6,86,6.6,85.9,7.1,85.7
		c12.5-5,24.9-10.2,37.4-15.2c0.6-0.2,1.1-0.5,1.7-0.5c4.4,1.3,8.8,2.9,13.1,4.4c4.1,1.4,8.1,2.8,12.2,4.2c7,2.4,14.1,4.8,21.1,7.3
		C93.2,86.1,94.2,85.9,93.9,87.1z"/>
	<path class="st2" d="M40.7,53.4c2.3,3.7,4.5,7.4,6.6,11.3c-0.2,0.7-0.9,0.8-1.4,1c-8.6,3.3-17.1,6.6-25.7,10
		c-4.8,1.9-9.7,3.7-14.5,5.6c-0.5,0.2-1,0.5-1.6,0.2c2.4-7.3,4.7-14.5,7.1-21.8c0.3-0.9,0.6-1.8,0.9-2.7c0.9-2.6,2.2-3.6,5-3.6
		c7.4,0,14.8,0,22.2,0C39.7,53.4,40.2,53.4,40.7,53.4z"/>
	<path class="st3" d="M85.5,53.8c1.4,0.6,2.1,1.7,2.5,3.1c1.7,5.5,3.6,10.9,5.3,16.4c0.9,2.7,1.6,5.3,2.7,8c0.2,0.4,0.3,0.8-0.1,1.2
		c-0.5,0.4-1.1,0.2-1.6,0c-11.2-3.9-22.5-7.7-33.7-11.6c-2.2-0.8-4.4-1.5-6.6-2.2c-0.5-0.2-1.1-0.3-1.5-0.7
		c-0.2-0.8,0.5-0.8,0.9-0.9c5.5-2.3,11-4.4,16.5-6.7C75,58,80.3,55.9,85.5,53.8z"/>
	<path class="st4" d="M85.5,53.8c0,0.7-0.7,0.7-1.1,0.8C73.7,59,63,63.3,52.3,67.7c-1.9,1.3-4,2-6.2,2.5
		C32.7,75.7,19.2,81.1,5.8,86.6c-1.5-1.4-2.4-3-1.7-5.1C18.2,76,32.2,70.6,46.3,65.1c0.3-0.1,0.7-0.3,1-0.5c1.2,1.6,1.2,1.6,2.2-0.2
		c0.3-0.4,0.6-0.8,0.9-1.2c0.7-0.6,1.7-0.8,2.5-1.1c6.9-2.7,13.8-5.3,20.7-8.1c0.7-0.3,1.6-0.3,2.3-0.6
		C79.1,53.5,82.3,53.1,85.5,53.8z"/>
	<path class="st5" d="M46.2,70.2c2-1,4.1-1.8,6.2-2.5c3.6,0.9,7.1,2.3,10.6,3.5c9.2,3.1,18.4,6.3,27.6,9.4c1.8,0.6,3.5,1.4,5.3,1.7
		c0.7,2.1-0.6,3.5-2,4.7c0-0.8-0.7-0.7-1.1-0.8c-13.9-4.8-27.9-9.6-41.9-14.4C49.3,71.4,47.7,70.8,46.2,70.2z"/>
	<path class="st6" d="M75.9,53.5c-3.7,1.5-7.3,3-11,4.4c-4.3,1.7-8.7,3.4-13,5.1c-0.5,0.2-0.9,0.4-1.5,0.3c0.4-1.5,1.4-2.7,2.1-4
		c1.1-2,2.3-3.9,3.4-5.9c6,0,12.1,0,18.1,0C74.7,53.4,75.3,53.5,75.9,53.5z"/>
</g>
</svg>
