<?xml version="1.0" encoding="utf-8"?>
<!-- Generator: Adobe Illustrator 25.0.0, SVG Export Plug-In . SVG Version: 6.00 Build 0)  -->
<svg version="1.1" id="Layer_1" xmlns="http://www.w3.org/2000/svg" xmlns:xlink="http://www.w3.org/1999/xlink" x="0px" y="0px"
	 viewBox="0 0 128 128" style="enable-background:new 0 0 128 128;" xml:space="preserve">
<style type="text/css">
	.st0{fill:#393E42;}
	.st1{fill:#FEFEFE;}
	.st2{fill:#F9BA69;}
	.st3{fill:#F8BA69;}
	.st4{fill:#87CBE3;}
	.st5{fill:#3B4043;}
	.st6{fill:#3A4043;}
	.st7{fill:#3B4143;}
	.st8{fill:#F5931E;}
	.st9{fill:#F05F6B;}
	.st10{fill:#3A3E42;}
</style>
<g>
	<path class="st0" d="M115.4,122.5c-0.1,0.7-0.5,1.2-1.2,1.4c-0.3,0-0.6,0-0.9,0c-32.9,0-65.7,0-98.6,0c-0.3,0-0.6,0-0.9,0
		c-0.9-0.3-1.2-0.9-1.2-1.9c0-20.2,0-40.4,0-60.6c0-0.7,0.3-1.2,0.7-1.7c2.5-2.7,5-5.4,7.5-8.1c0.5-0.6,0.8-1.1,0.8-1.9
		c0-14.9,0-29.7,0-44.6c0-1,0.3-1.2,1.2-1.2c27.5,0,55,0,82.5,0c0.9,0,1.2,0.2,1.2,1.2c0,14.9,0,29.7,0,44.6c0,0.8,0.2,1.3,0.8,1.9
		c2.5,2.7,5,5.4,7.5,8.1c0.3,0.3,0.6,0.7,0.7,1.1c0,0.3,0,0.5,0,0.8c0,20,0,39.9,0,59.9C115.4,121.9,115.4,122.2,115.4,122.5z"/>
	<path class="st1" d="M33.8,74.8c-2.6-2.4-5.5-4.5-8.3-6.7c-0.5-0.4-0.7-0.8-0.7-1.5c0-19.4,0-38.8,0-58.3c0-0.8,0.2-1,1-1
		c25.5,0,51,0,76.5,0c0.8,0,1,0.2,1,1c0,19.5,0,38.9,0,58.4c0,0.4,0.1,0.8-0.3,1.1c-2.2,1.7-4.5,3.4-6.7,5.2
		c-0.3-0.3-0.3-0.7-0.3-1.1c0-2.3,0-4.7,0-7c-0.1-2.1-0.1-2.1-2.2-2.1c-9.4,0-18.9,0-28.3,0c-0.2,0-0.4,0-0.6,0
		c-1.4,0-1.4,0.1-1.4,1.5c0,8.1,0,16.2,0,24.4c0,0.6,0.2,1.2-0.4,1.7c-2.9,0-5.8,0-8.6,0c-0.6,0-1-0.2-1.4-0.5
		c-2.3-1.8-4.6-3.6-6.9-5.4c-0.1-1,0.7-0.7,1.1-0.7c2.6,0,5.1-0.1,7.7,0c0.9,0,1.8,0,2.6,0c0.6,0,0.8-0.3,0.8-0.9
		c0-0.5-0.2-0.8-0.8-0.9c-0.3,0-0.7,0-1,0c-3.5,0-7.1,0-10.6,0c-0.5,0-1.1,0.1-1.6-0.3c-1.4,0.2-2.6-0.4-3.6-1.4
		c-0.9-0.9-2-1.6-3-2.4c0.1-0.6,0.6-0.5,0.9-0.5c0.9-0.1,1.8,0,2.6,0c5.2,0,10.5,0,15.7,0c1.1,0,1.3-0.2,1.3-1
		c0-0.5-0.2-0.8-0.7-0.8c-0.4,0-0.7,0-1.1,0c-6.9,0-13.7,0-20.6,0C35.1,75.5,34.3,75.5,33.8,74.8z"/>
	<path class="st2" d="M109.1,120.8c-30.1,0-60,0-90,0c-0.1-0.4,0.3-0.5,0.5-0.6c11.1-8.8,22.3-17.5,33.4-26.3
		c0.4-0.3,0.9-0.5,1.4-0.5c6.4,0,12.8,0,19.3,0c0.5,0,0.9,0.1,1.3,0.4c11.2,8.8,22.4,17.7,33.6,26.5
		C108.7,120.4,108.8,120.5,109.1,120.8z"/>
	<path class="st3" d="M112.1,119c-11.6-9.1-23-18.1-34.5-27.2c11.5-9.1,22.9-18.1,34.5-27.2C112.1,82.7,112.1,100.7,112.1,119z"/>
	<path class="st2" d="M33,78c5.8,4.6,11.5,9.1,17.4,13.8c-11.5,9.1-22.9,18.1-34.5,27.2c0-18.2,0-36.2,0-54.4
		C21.3,68.8,26.6,73,32,77.2C32.4,77.3,32.8,77.5,33,78z"/>
	<path class="st4" d="M96.2,64.8c0,2.7,0,5.4,0,8.1c-3.3,2.6-6.6,5.3-9.9,7.9c-3.8,3-7.5,5.9-11.3,8.9c-0.5,0.4-1,0.5-1.6,0.5
		c-2.6,0-5.2,0-7.8,0c-0.4-0.4-0.4-0.9-0.4-1.3c0-7.6,0-15.2,0-22.8c0-1.4,0.2-1.7,1.7-1.7c9.3,0,18.6,0,27.9,0
		C95.3,64.4,95.8,64.4,96.2,64.8z"/>
	<path class="st5" d="M96.2,64.8c-4.4,0-8.9,0-13.3,0c-5.4,0-10.9,0-16.3,0c-0.6,0-1-0.1-1,0.8c0,8,0,16,0,24c0,0.2,0.1,0.4,0.1,0.6
		c-0.1,0.1-0.2,0.2-0.2,0.3c-0.2,1-0.9,1.4-1.9,1.1c-0.3-0.1-0.4-0.3-0.4-0.5c0-0.4-0.1-0.7-0.2-1c0-8.2,0-16.3,0-24.5
		c0-0.8,0.1-1.6,0-2.3c-0.1-0.9,0.1-1.1,1.1-1.1c6,0.1,12,0,18,0c4.4,0,8.8,0,13.3,0c0.8,0,1.1,0.2,1,1
		C96.2,63.7,96.2,64.2,96.2,64.8z"/>
	<path class="st6" d="M33,78c-0.3-0.3-0.7-0.6-1-0.8c0.6-0.5,0.3-1.1,0.4-1.7c0.2-0.8,1.2,0.1,1.4-0.8c0.5,0.3,1.1,0.3,1.7,0.3
		c7.4,0,14.7,0,22.1,0c0.9,0,1.3,0.1,1.2,1.1c-0.1,1.4,0,1.4-1.5,1.4c-6.1,0-12.3,0-18.4,0c-0.4,0-0.7-0.2-1.1,0.2
		C36.2,77.6,34.5,77.3,33,78z"/>
	<path class="st7" d="M44.4,81.5c4.6,0,9.2,0,13.7,0c0.5,0,0.6,0.2,0.6,0.7c0.1,1.9,0.1,1.9-1.8,1.9c-3.3,0-6.6,0-10,0
		c-0.3,0-0.8-0.3-0.9,0.3c-0.4-0.2-0.4-0.5-0.2-0.7c0.3-0.4,0.8-0.5,1.4-0.4c1.2,0.3,2.4-0.1,3.6,0.1c0.3,0.1,0.7-0.1,0.6-0.5
		c0-0.3-0.3-0.6-0.6-0.5c-1.9,0.5-3.7-0.2-5.6,0.1C44.6,82.5,44.5,81.9,44.4,81.5z"/>
	<path class="st8" d="M21.5,55.7c0,3.2,0,6.1,0,9.2c-1.6-1.3-3.1-2.5-4.6-3.6c-0.3-0.2-0.2-0.4,0-0.6C18.3,59,19.8,57.4,21.5,55.7z"
		/>
	<path class="st8" d="M106.5,64.9c0-3.1,0-6,0-9.1c0.6,0.6,1.2,1.1,1.7,1.7c1,1,1.9,2,2.8,3c0.2,0.3,0.5,0.5,0,0.8
		C109.6,62.4,108.1,63.6,106.5,64.9z"/>
	<path class="st9" d="M64.2,39.4c-10.2,0-20.5,0-30.7,0c-1.1,0-1.3-0.3-1.3-1.3c0-6.1,0-12.2,0-18.4c0-0.8,0.2-1.1,1.1-1.1
		c20.6,0,41.3,0,61.9,0c0.8,0,1,0.2,1,1c0,6.3,0,12.5,0,18.8c0,0.9-0.3,1-1,1C84.9,39.4,74.5,39.4,64.2,39.4z"/>
	<path class="st5" d="M64.3,52c-10.3,0-20.6,0-30.9,0c-0.4,0-1,0.2-1.1-0.2c-0.2-0.7-0.2-1.5,0-2.2c0-0.1,0.2-0.1,0.4-0.1
		c0.2,0,0.5,0,0.7,0c20.6,0,41.1,0,61.7,0c0.4,0,1-0.2,1.1,0.2c0.1,0.7,0.1,1.5,0,2.2c-0.1,0.3-0.6,0.1-0.9,0.1
		C84.9,52,74.6,52,64.3,52z"/>
	<path class="st5" d="M64.2,58.4c-10.1,0-20.3,0-30.4,0c-1.6,0-1.5,0-1.6-1.6c0-0.8,0.2-1.2,1.1-1.1c0.1,0,0.1,0,0.2,0
		c20.5,0,41,0,61.5,0c0.4,0,1-0.3,1.2,0.2c0.2,0.7,0.1,1.5,0,2.2c0,0.3-0.5,0.1-0.7,0.1c-2.8,0-5.5,0-8.3,0
		C79.5,58.4,71.9,58.4,64.2,58.4z"/>
	<path class="st5" d="M57.7,14.3c-8.1,0-16.2,0-24.4,0c-0.9,0-1.1-0.2-1.1-1.1c0.1-1.8-0.1-1.6,1.2-1.6c16.2,0,32.4,0,48.5,0
		c0.4,0,0.9-0.3,1,0.3c0.1,0.7,0.2,1.5-0.1,2.2c-0.1,0.3-0.6,0.1-1,0.1C73.8,14.3,65.8,14.3,57.7,14.3z"/>
	<path class="st5" d="M45.4,71.2c-4,0-8.1,0-12.1,0c-0.9,0-1.2-0.2-1-1.1c0-0.2,0-0.4,0-0.6c-0.1-0.8,0.2-1,0.9-1
		c4.8,0,9.5,0,14.3,0c3.5,0,6.9,0,10.4,0c0.7,0,0.9,0.2,0.9,0.9c0,1.7,0,1.7-1.7,1.7C53.2,71.2,49.3,71.2,45.4,71.2z"/>
	<path class="st7" d="M92.1,11.7c1.1,0,2.2,0,3.4,0c0.6,0,0.7,0.2,0.7,0.7c0,1.9,0,1.9-1.8,1.9c-1.8,0-3.7,0-5.5,0
		c-0.7,0-0.9-0.2-0.8-0.9c0-1.8,0-1.8,1.7-1.8C90.6,11.7,91.4,11.7,92.1,11.7z"/>
	<path class="st0" d="M71.4,25.8c-0.8,3.2-1.7,6.3-2.5,9.5c-0.2,0.9-0.6,1.1-1.5,1.1c-2.1-0.1-2.1,0-2.6-2.1
		c-0.9-3.9-1.9-7.9-2.8-11.8c-0.2-0.7-0.2-1.1,0.8-1.1c2.1,0.1,2.1,0,2.5,2.1c0.5,2.4,1.1,4.8,1.6,7.1c0,0.2,0.1,0.4,0.3,0.8
		c0.7-2.6,1.3-5,2-7.3c0-0.1,0-0.1,0-0.2c0.7-2.7,0.9-2.8,3.7-2.5c0.6,0.1,0.7,0.5,0.8,0.9c0.8,3,1.5,6,2.5,9.1
		c0.3-1.1,0.5-2.2,0.8-3.3c0.4-2,0.9-3.9,1.3-5.9c0.1-0.6,0.4-0.8,1-0.8c2.2,0,2.2,0,1.7,2.1c-1,4-2,8-2.9,12
		c-0.2,0.7-0.4,0.9-1.1,0.9c-2.4,0-2.4,0-3-2.3c-0.7-2.8-1.5-5.6-2.2-8.3C71.6,25.8,71.5,25.8,71.4,25.8z"/>
	<path class="st10" d="M43.4,31.1c0-2.8,0-5.7,0-8.5c0-0.9,0.3-1.1,1.1-1.1c2,0.1,1.8-0.2,1.8,1.7c0,4,0,8.1,0,12.1
		c0,0.9-0.3,1-1.1,1.1c-1.5,0.2-2.4-0.4-3.1-1.7c-1.4-2.5-3-5-4.6-7.5c-0.4,0.2-0.2,0.5-0.2,0.8c0,2.5,0,5,0,7.5
		c0,0.7-0.2,0.9-0.9,0.9c-2,0-2,0-2-1.9c0-4,0-8,0-12c0-0.7,0.2-0.9,0.9-1c1.5-0.2,2.3,0.4,3,1.7c1.5,2.7,3.2,5.3,4.8,7.9
		C43.2,31.1,43.3,31.1,43.4,31.1z"/>
	<path class="st10" d="M49.3,28.9c0-2.2,0-4.4,0-6.5c0-0.7,0.2-0.9,0.9-0.9c3.1,0,6.2,0,9.3,0c0.7,0,0.9,0.3,0.9,0.9
		c-0.1,2,0.2,1.6-1.7,1.7c-1.8,0-3.7,0-5.5,0c-0.6,0-0.8,0.1-0.8,0.8c0,2.5-0.1,2.5,2.4,2.5c1.4,0,2.9,0,4.3,0
		c0.7,0,0.9,0.2,0.9,0.9c0,0.1,0,0.2,0,0.3c0,1.3,0,1.3-1.3,1.3c-1.8,0-3.6,0-5.4,0c-0.6,0-0.8,0.2-0.8,0.8c0,0.8,0.1,1.6,0,2.3
		c-0.1,0.7,0.2,0.9,0.9,0.9c2.1,0,4.3,0,6.4,0c0.8,0,1.1,0.2,1,1c-0.1,1.7,0.1,1.5-1.5,1.5c-3,0-6,0-9,0c-0.8,0-1-0.2-1-1
		C49.4,33.3,49.3,31.1,49.3,28.9z"/>
	<path class="st0" d="M88.2,21.3c1.7,0.1,3.5,0.3,4.7,2c0.5,0.7,1.1,1.7,0.6,2.3c-0.5,0.6-1.6,0.3-2.5,0.3c-0.4,0-0.4-0.3-0.5-0.6
		c-0.7-1.6-3.4-2.2-4.7-1c-0.7,0.6-0.5,1.5,0.3,1.9c0.8,0.4,1.7,0.6,2.5,0.8c0.8,0.2,1.6,0.4,2.3,0.7c2.2,0.8,3.3,2.4,3.1,4.5
		c-0.1,2-1.5,3.6-3.6,4.1c-1.8,0.4-3.6,0.4-5.3-0.2c-1.8-0.7-2.7-2.1-3.1-3.9c-0.1-0.6,0.1-0.8,0.7-0.8c0.2,0,0.3,0,0.5,0
		c1-0.2,1.7-0.1,2.1,1.2c0.7,1.8,3.9,2.1,5.2,0.7c0.8-0.9,0.6-2-0.5-2.5c-1-0.5-2.1-0.6-3.1-0.9c-0.8-0.2-1.6-0.5-2.4-0.9
		c-1.4-0.8-2.1-2-2.1-3.6c0-1.6,0.8-2.7,2.2-3.4C85.8,21.5,86.9,21.3,88.2,21.3z"/>
</g>
</svg>
