<?xml version="1.0" encoding="utf-8"?>
<!-- Generator: Adobe Illustrator 25.0.0, SVG Export Plug-In . SVG Version: 6.00 Build 0)  -->
<svg version="1.1" id="Layer_1" xmlns="http://www.w3.org/2000/svg" xmlns:xlink="http://www.w3.org/1999/xlink" x="0px" y="0px"
	 viewBox="0 0 100 100" style="enable-background:new 0 0 100 100;" xml:space="preserve">
<style type="text/css">
	.st0{fill:#010101;}
	.st1{fill:#EAECEF;}
	.st2{fill:#EAC092;}
	.st3{fill:#4EC8F4;}
	.st4{fill:#3688C9;}
	.st5{fill:#ED7161;}
	.st6{fill:#9FDCF8;}
	.st7{fill:#010202;}
	.st8{fill:#010405;}
	.st9{fill:#FFD36C;}
	.st10{fill:#FBD06B;}
	.st11{fill:#F3CA68;}
</style>
<g>
	<path class="st0" d="M57.2,5.1c0.6,0.3,1.3,0.5,1.8,0.9c1.5,1.1,2,2.6,2,4.4c0,16.5,0,33,0,49.5c0,0.7,0,1,0.9,0.9
		c1.2-0.1,1.9-0.3,2.6-1.4c1.7-2.5,5.1-2.8,7.3-0.7c4.2,4,8.2,8.1,12.3,12.3c1.9,1.9,2.4,4.4,1.8,7c-0.1,0.4,0,0.7,0.3,1
		c0.8,0.8,1.7,1.6,2.5,2.5c1.1,1.1,1.1,2,0,3.1c-3.2,3.2-6.4,6.4-9.6,9.6c-1,1-1.9,1-3,0c-1-0.9-1.9-1.9-2.9-2.9
		c-0.2-0.2-0.5-0.4-0.8-0.3c-2.4,0.5-4.6-0.1-7-0.4c-1.7-0.2-3.2-0.1-4.3,1.4c-0.3,0.4-0.8,0.8-1.2,1.2c-2.3,2.3-5.3,2-7.2-0.6
		c-0.4-0.5-0.7-1-0.9-1.6c-0.2-0.8-0.6-0.8-1.2-0.8c-11.6,0-23.2,0-34.7,0c-3.3,0-5.4-2.3-5.4-5.4c0.1-24.5,0.1-49,0-73.4
		c0-3,0.7-5.2,3.7-6.3C28.5,5.1,42.9,5.1,57.2,5.1z"/>
	<path class="st1" d="M46.5,74.7c-0.5,0-0.7,0-1,0c-10.2,0-20.4,0-30.6,0c-0.8,0-0.9-0.3-0.9-1c0-17.1,0-34.1,0-51.2
		c0-0.7,0.1-1,0.9-1c13.9,0,27.7,0,41.6,0c0.8,0,1,0.2,1,1c0,13.9,0,27.8,0,41.8c0,0.6-0.1,0.9-0.8,1.1c-1.1,0.2-2,0.9-2.7,1.9
		c-0.4,0.6-0.6,0.4-0.9,0c0,0,0,0-0.1-0.1c-0.9-0.9-2.1-1.7-2.6-2.8c-0.5-1.1-0.1-2.5-0.1-3.7c0-0.3,0-0.6,0-1
		c-0.1-1.2-0.7-1.9-1.9-1.9c-1.1,0-2.1,0-3.2,0c-7.3,0-14.5,0-21.8,0c-1.8,0-2.5,0.6-2.5,2.5c0,3.1,0,6.3,0,9.4
		c0,2.1,0.6,2.7,2.6,2.7c6.5,0,12.9,0,19.4,0c0.8,0,1.3,0.1,1.8,0.7C45.4,73.7,45.9,74.1,46.5,74.7z"/>
	<path class="st2" d="M82.5,76.1c0,1.1-0.3,2-1.1,2.8c-2.5,2.4-4.9,4.8-7.3,7.3c-1.2,1.2-2.6,1.6-4.2,1.4c-2-0.2-4-0.6-6-0.6
		c-1.9,0-3.5,0.6-4.8,2c-0.6,0.6-1.1,1.2-1.7,1.7c-0.7,0.6-1.2,0.6-1.8-0.2c-0.9-1.2-1-2.8,0-4c0.6-0.8,1.4-1.5,2.1-2.2
		c1.3-1.3,1.3-2,0-3.3c-5-5-10-10-15-14.9c-0.3-0.3-0.7-0.6-0.8-1.1c-0.3-1,0.7-2,1.7-1.7c0.5,0.1,0.8,0.4,1.1,0.8
		c3.7,3.7,7.4,7.4,11.2,11.2c0.5,0.5,1,1,1.8,0.9c1.4-0.2,2-1.6,1.2-2.7c-0.4-0.5-0.9-1-1.4-1.5c-0.2-0.3-0.5-0.5-0.7-0.8
		c-0.5-0.7-0.4-1.5,0.2-2c0.6-0.5,1.3-0.5,1.9,0.1c0.6,0.5,1.1,1.1,1.7,1.7c0.9,0.9,2,0.9,2.7,0.2c0.7-0.7,0.6-1.8-0.2-2.7
		c-0.5-0.6-1.1-1.1-1.6-1.6c-0.6-0.7-0.6-1.6,0-2.1c0.6-0.5,1.4-0.5,2,0.1c0.6,0.5,1.1,1.1,1.7,1.7c0.9,0.8,1.9,0.8,2.6,0.2
		c0.7-0.7,0.7-1.7,0-2.6c-0.2-0.3-0.5-0.5-0.7-0.8c-0.4-0.6-0.4-1.2,0.1-1.7c0.4-0.5,1-0.7,1.7-0.4c0.3,0.1,0.5,0.3,0.8,0.6
		c3.8,3.8,7.6,7.6,11.4,11.3C82,73.8,82.5,74.9,82.5,76.1z"/>
	<path class="st3" d="M35.8,18.1c-6.9,0-13.9,0-20.8,0c-0.7,0-1-0.1-1-0.9c0.1-2.3,0-4.6,0-6.9c0-1.3,0.4-1.7,1.7-1.7
		c13.3,0,26.7,0,40,0c1.3,0,1.7,0.4,1.7,1.7c0,2.3,0,4.7,0,7c0,0.7-0.2,0.8-0.8,0.8C49.7,18.1,42.8,18.1,35.8,18.1z"/>
	<path class="st4" d="M33.3,86.7c-5.8,0-11.6,0-17.4,0c-1.5,0-1.9-0.4-1.9-1.9c0-2,0-3.9,0-5.9c0-0.5,0.1-0.7,0.7-0.7
		c11.6,0,23.2,0,34.8,0c0.3,0,0.6,0.1,0.9,0.3c1.2,1.2,2.4,2.4,3.7,3.6c0.3,0.3,0.4,0.5,0,0.8c-1,0.9-1.9,1.9-2.3,3.3
		c-0.2,0.5-0.6,0.3-0.9,0.3c-4.9,0-9.7,0-14.6,0C35.3,86.7,34.3,86.7,33.3,86.7z"/>
	<path class="st5" d="M39.5,61.4c-1.4,2.3-1.7,4.6,0.8,7.3c-0.1,0.3-0.4,0.2-0.6,0.2c-4.8,0-9.5,0-14.3,0c-0.6,0-0.8-0.1-0.8-0.8
		c0-2,0-4,0-6c0-0.3-0.1-0.7,0.5-0.7C29.9,61.4,34.6,61.4,39.5,61.4z"/>
	<path class="st6" d="M85.2,83.1c-0.1,0.1-0.2,0.2-0.3,0.3c-2.3,2.3-4.6,4.6-6.9,6.9c-0.3,0.3-0.5,0.3-0.8,0c-1.1-1.1-1.1-1,0-2.1
		c2-2,4-4,6-6c0.5-0.5,0.8-0.6,1.3,0C84.6,82.5,85,82.7,85.2,83.1z"/>
	<path class="st0" d="M35.9,24.5c8.1-0.1,15.2,6.8,15.4,14.9c0.2,8.8-6.7,15.8-14.9,16c-8.8,0.2-15.8-6.5-16.1-15.1
		C20.1,31.8,27,24.4,35.9,24.5z"/>
	<path class="st7" d="M32.5,15.1c-3.2,0-6.4,0-9.6,0c-0.6,0-1.1,0-1.6-0.4c-0.5-0.5-0.7-1-0.6-1.7c0.1-0.7,0.5-1.1,1.2-1.3
		c0.4-0.1,0.8-0.1,1.2-0.1c6.3,0,12.6,0,18.9,0c0.3,0,0.6,0,1,0.1c1,0.2,1.5,0.9,1.4,1.9c-0.1,0.9-0.7,1.5-1.7,1.5
		c-0.3,0-0.5,0-0.8,0C38.8,15.1,35.6,15.1,32.5,15.1z"/>
	<path class="st8" d="M49.2,15.1c-1,0-1.8-0.8-1.8-1.7c0-0.9,0.8-1.7,1.7-1.8c0.9,0,1.7,0.8,1.8,1.7C50.9,14.3,50.2,15.1,49.2,15.1z
		"/>
	<path class="st0" d="M35.8,84.2c-1.2,0-2.5,0-3.7,0c-1.2,0-2-0.7-2-1.7c0-1.1,0.7-1.8,2-1.8c2.4,0,4.9,0,7.3,0c1.2,0,2,0.8,1.9,1.8
		c0,1-0.8,1.7-1.9,1.7C38.3,84.2,37,84.2,35.8,84.2z"/>
	<path class="st9" d="M35.8,28c6.6,0,11.9,5.5,11.9,12.2c0,6.4-5.5,11.7-12.1,11.7c-6.4,0-11.9-5.5-11.8-11.9
		C23.9,33.2,29.2,28,35.8,28z"/>
	<path class="st0" d="M35.2,42.6c0-0.2,0-0.5,0-0.7c0.1-0.7-0.2-1-0.8-1.2c-0.3-0.1-0.6-0.2-0.9-0.4c-1.7-0.9-2.4-2.2-2.2-4.1
		c0.2-1.5,1.3-2.7,3-3.2c0.5-0.1,0.9-0.1,0.9-0.8c0-0.3,0.3-0.5,0.6-0.4c0.3,0,0.7,0.1,0.7,0.5c0,0.6,0.3,0.6,0.7,0.6
		c0.7,0.1,1.4,0.2,2,0.6c0.8,0.5,1,1.2,0.5,2.1c-0.4,0.7-0.8,0.8-1.8,0.4c-1.4-0.7-1.4-0.7-1.4,0.9c0,0.1,0,0.2,0,0.3
		c-0.2,1,0.2,1.4,1.1,1.8c1.9,0.8,2.8,2.3,2.7,4.1c-0.1,2.1-1.2,3.4-3.2,4c-0.4,0.1-0.6,0.3-0.6,0.7c0,0.4-0.4,0.5-0.7,0.5
		c-0.3,0-0.7-0.1-0.7-0.4c0-0.7-0.5-0.6-0.9-0.7c-1.1-0.2-2.1-0.6-2.9-1.4c-0.6-0.7-0.6-1.4-0.1-2.1c0.5-0.7,1-0.8,1.8-0.4
		c0.5,0.3,1,0.6,1.5,0.9c0.5,0.3,0.7,0.1,0.7-0.4C35.2,43.3,35.2,42.9,35.2,42.6z"/>
	<path class="st10" d="M36.5,41.6c0.7,0.3,1.1,0.7,1.1,1.3c0,0.5-0.2,0.8-0.6,1.1c-0.3,0.2-0.6,0.3-0.6-0.3
		C36.5,43.1,36.5,42.4,36.5,41.6z"/>
	<path class="st11" d="M35.4,37.8c-0.6-0.2-1.1-0.4-1.2-1.1c-0.1-0.5,0.2-0.8,0.6-1c0.4-0.2,0.7-0.3,0.6,0.3
		C35.4,36.6,35.4,37.1,35.4,37.8z"/>
</g>
</svg>
