<?xml version="1.0" encoding="utf-8"?>
<!-- Generator: Adobe Illustrator 25.0.0, SVG Export Plug-In . SVG Version: 6.00 Build 0)  -->
<svg version="1.1" id="Layer_1" xmlns="http://www.w3.org/2000/svg" xmlns:xlink="http://www.w3.org/1999/xlink" x="0px" y="0px"
	 viewBox="0 0 100 100" style="enable-background:new 0 0 100 100;" xml:space="preserve">
<style type="text/css">
	.st0{fill:#1A91A1;}
	.st1{fill:#20D0C2;}
	.st2{fill:#C0EEEC;}
	.st3{fill:#C3EFED;}
	.st4{fill:#45CDC6;}
	.st5{fill:#78DBD6;}
	.st6{fill:#73D9D4;}
	.st7{fill:#807D7D;}
	.st8{fill:#C7C9CC;}
	.st9{fill:#FFFFFF;}
	.st10{fill:#666666;}
	.st11{fill:#FED198;}
	.st12{fill:#D6D5D4;}
	.st13{fill:#F0B97D;}
	.st14{fill:#FFBA1B;}
	.st15{fill:#C8CACC;}
	.st16{fill:#F5A209;}
	.st17{fill:#FF816F;}
	.st18{fill:#DFE1E3;}
	.st19{fill:#F4A20A;}
	.st20{fill:#6D6D6D;}
	.st21{fill:#FEFBF7;}
	.st22{fill:#FFFFFE;}
	.st23{fill:#FEFDFB;}
</style>
<path class="st0" d="M47.7,96C47.7,95.9,47.7,95.9,47.7,96c-1.5-0.2-3-0.3-4.5-0.5c-0.2,0-0.5,0-0.7-0.1c0,0,0-0.1,0-0.1
	c0,0,0,0,0,0c0,0,0,0,0.1,0c1.4,0.2,2.9,0.4,4.3,0.5c0.3,0,0.5,0,0.8,0.1C47.7,95.8,47.7,95.9,47.7,96C47.7,95.9,47.7,95.9,47.7,96
	C47.7,95.9,47.7,95.9,47.7,96z"/>
<path class="st0" d="M62.2,94.2C62.2,94.2,62.2,94.2,62.2,94.2L62.2,94.2c-0.6,0.3-1.1,0.4-1.7,0.5c-1.7,0.4-3.4,0.7-5.2,0.9
	c-1,0.1-2,0.2-3,0.3c0,0,0,0,0,0.1c0,0,0,0,0-0.1c0,0,0,0,0,0c0,0,0,0,0,0c0.6-0.2,1.2-0.2,1.8-0.2c2.6-0.2,5.2-0.7,7.8-1.4
	C62.1,94.2,62.1,94.2,62.2,94.2C62.1,94.2,62.2,94.2,62.2,94.2z"/>
<path class="st0" d="M37.5,6C37.5,6,37.4,6,37.5,6C37.4,6,37.4,6,37.5,6C37.2,6,36.9,6,36.6,6.1c-3.3,0.1-6.7,0.1-10,0.1
	c-0.5,0-0.9,0.2-1.3,0.5c-1.3,1.2-2.5,2.4-3.8,3.6c-1.3,1.2-2.5,2.4-3.8,3.6c-1.3,1.2-2.5,2.4-3.8,3.6c-1.2,1.2-2.5,2.4-3.7,3.5
	c-1.3,1.2-2.5,2.4-3.8,3.6c-0.6,0.6-1.2,1.2-1.8,1.7c-0.1,0.1-0.1,0.1-0.2,0.2c0,0,0,0,0,0c0,0.1,0.1,0.1,0.1,0.1c0,0,0,0,0,0
	c0.1,0,0.2,0,0.3,0c1.6,0,3.2,0,4.8,0c0.2,0,0.4,0,0.6,0.1c0,0,0,0,0,0.1c0,0,0,0,0,0h0c-0.2-0.1-0.3-0.1-0.5-0.1
	c-1.7,0-3.4,0-5.1,0c-0.1,0-0.2,0-0.3,0c-0.2,0-0.2-0.1-0.1-0.3c1.1-1,2.1-2,3.2-3.1c2.6-2.5,5.2-5,7.8-7.5c2.4-2.3,4.9-4.7,7.3-7
	c0.9-0.9,1.9-1.8,2.8-2.7c0.1-0.1,0.3-0.2,0.5-0.2c1.2-0.1,2.4,0,3.7,0c1.6,0,3.2,0,4.8,0c0.8,0,1.6,0,2.4,0c0.2,0,0.3-0.1,0.5-0.1
	C37.4,5.9,37.4,5.9,37.5,6z"/>
<path class="st1" d="M62.2,94.2C62.2,94.2,62.2,94.2,62.2,94.2L62.2,94.2c-0.6,0.3-1.1,0.4-1.7,0.5c-1.7,0.4-3.4,0.7-5.2,0.9
	c-1,0.1-2,0.2-3,0.3c0,0,0,0,0,0c-0.3,0.1-0.5,0-0.8,0h-0.4c0,0,0,0,0,0c-0.2,0-0.4,0-0.6,0h-1c-0.2-0.1-0.4,0-0.6,0c0,0,0,0,0,0
	h-0.3c-0.3,0-0.6,0-0.9,0c0,0,0,0,0,0c-1.5-0.1-3-0.2-4.5-0.5c-0.2,0-0.5,0-0.7-0.1c0,0,0-0.1,0-0.1c-0.2-0.4-0.1-0.9,0-1.3
	c0-0.3,0.1-0.5,0-0.8c0-1.6,0.1-3.2,0.1-4.8c0-2,0.1-4,0.1-6c0-0.8,0-1.6,0.1-2.4c0-0.5,0.1-0.6,0.6-0.6c0.3,0,0.6,0,0.9,0
	c0.3,0,0.4-0.1,0.4-0.4c0-0.9,0-1.7,0-2.6c0-0.2-0.1-0.4,0.2-0.5c0,0,0,0,0,0c0,0,0,0,0,0C45,76,45,76.2,45,76.4c0,0.8,0,1.7,0,2.5
	c0,0.4,0,0.5,0.5,0.5c4.6,0,9.3,0,13.9,0c0.1,0,0.3,0,0.4,0c0,0,0,0,0.1,0c0,0,0,0,0,0c0.5-0.1,1,0,1.6,0c0.3,0,0.4,0.1,0.5,0.4
	c0,0.2,0.1,0.4,0.1,0.6c0,1,0,1.9,0.1,2.9c0,1.5,0.1,3.1,0.1,4.6c0,1.9,0.1,3.9,0.1,5.8C62.2,93.8,62.3,94,62.2,94.2z"/>
<path class="st2" d="M48.7,95.9C48.6,95.9,48.6,96,48.7,95.9l-0.9,0c0,0,0,0,0-0.1h0C48,95.9,48.3,95.9,48.7,95.9
	C48.6,95.9,48.7,95.9,48.7,95.9C48.7,95.9,48.7,95.9,48.7,95.9z"/>
<path class="st3" d="M52.4,95.9C52.4,95.9,52.4,95.9,52.4,95.9L51.5,96c0,0,0,0,0,0c0,0,0,0,0,0c0,0,0,0,0,0
	C51.8,95.9,52.1,95.9,52.4,95.9L52.4,95.9z"/>
<path class="st4" d="M48.9,95.9c0.2,0,0.4-0.1,0.6,0.1C49.3,96,49.1,96,48.9,95.9C48.9,95.9,48.9,95.9,48.9,95.9
	C48.9,95.9,48.9,95.9,48.9,95.9z"/>
<path class="st4" d="M50.5,96c0.2-0.2,0.4,0,0.6-0.1c0,0,0,0,0,0c0,0,0,0,0,0C50.9,96,50.7,96,50.5,96z"/>
<path class="st5" d="M51.1,96C51.1,95.9,51.1,95.9,51.1,96c0.1-0.1,0.3-0.1,0.4-0.1c0,0,0,0,0,0.1C51.4,96,51.3,96,51.1,96z"/>
<path class="st6" d="M48.9,95.9C48.9,95.9,48.9,95.9,48.9,95.9C48.8,96,48.7,96,48.6,96c0,0,0,0,0-0.1
	C48.7,95.9,48.8,95.9,48.9,95.9z"/>
<path class="st0" d="M34.8,65c-0.8,0.4-1.8,0.3-2.4-0.3c-0.1-0.1-0.1-0.1-0.2-0.2c-0.1-0.1-0.1-0.1-0.2,0c-0.1,0.1-0.1,0.1-0.2,0.1
	c-1.4,0.8-2.8,0.9-4.2,0.1c-0.2-0.1-0.4-0.1-0.6,0c-1,0.7-2.1,0.8-3.2,0.2c-1.1-0.6-1.6-1.6-1.6-2.8c0-1.7,1.4-3.1,3.2-3
	c0.2,0,0.4,0,0.6,0.1c0.2,0.1,0.3,0,0.5-0.2c0.5-0.8,1.3-1.3,2.2-1.5c2.4-0.7,4.9,0.9,5.2,3.5c0,0.3,0,0.3,0.3,0.3
	c0.9,0.1,1.6,0.7,1.8,1.6C36,63.6,35.6,64.5,34.8,65z"/>
<path class="st0" d="M81,22.8c-0.1,0.3-0.3,0.6-0.6,0.8c-3,1.9-5.9,3.9-8.9,5.8c0,0,0,0,0,0c0.9,0.5,1.8,0.9,2.6,1.3
	c0.8,0.4,1.5,0.7,2.3,1.1c0.1,0,0.2,0,0.2,0.2c-0.5,0.1-1,0.1-1.5,0.2c-0.6,0.1-1.1,0.1-1.7,0.2c-0.2,0-0.4,0.1-0.4,0.3
	c-0.2,0.7-0.5,1.4-0.8,2c0,0.1-0.1,0.2-0.2,0.4c-1.4-1-2.8-2.1-4.2-3.1c-1.3,0.9-2.6,1.7-4,2.6c-3.4,2.2-6.8,4.4-10.2,6.7
	c-0.6,0.4-1.1,0.4-1.7,0.1c-0.5-0.2-0.9-0.6-1.3-1c-0.9-1-1.4-2.1-1.7-3.4c-0.1-0.5,0-0.9,0.4-1.2c0.3-0.2,0.6-0.4,0.9-0.6
	c0-0.1,0.2-0.1,0-0.2c-0.4-0.1-0.8-0.3-1.2-0.4c0-0.1,0.1-0.2,0.2-0.2c4.5-2.9,9.1-5.8,13.6-8.7c0.1,0,0.2-0.1,0.2-0.1
	c0.8-0.5,1.6-1,2.4-1.5c0.6-0.4,1.1-0.8,1.7-1.1c0.4-0.2,0.7-0.5,1.1-0.7c2.7-1.7,5.3-3.4,8-5.1c0.6-0.4,1.2-0.4,1.8-0.2
	c0.4,0.1,0.8,0.4,1.1,0.7c1.3,1.2,1.9,2.7,2,4.5C81.1,22.2,81,22.5,81,22.8z"/>
<path class="st0" d="M85.9,46.9c-0.1,1.6-0.8,2.8-2.2,3.6c-1.4,0.7-2.9,0.6-4.2-0.2c-0.1,0-0.1-0.1-0.2-0.1c-0.2-0.2-0.3-0.2-0.5,0
	c-0.7,0.4-1.4,0.7-2.2,0.8C75.3,51,74,50.7,72.9,50c-0.1,0-0.1-0.1-0.2-0.1c-0.2-0.2-0.2-0.2-0.4,0.1c-1.4,1.5-3.7,1.1-4.5-0.6
	c-0.9-1.8,0.4-3.8,2.3-3.9c0.3,0,0.3,0,0.3-0.3c0.2-3,2.9-5.2,5.9-4.9c1.6,0.2,2.9,1,3.9,2.3c0.2,0.3,0.2,0.3,0.5,0.2
	c2.4-0.5,4.7,1,5.1,3.5C85.9,46.4,85.9,46.6,85.9,46.9z"/>
<path class="st0" d="M62.2,94.2C62.2,94.2,62.2,94.2,62.2,94.2L62.2,94.2C62.1,94.3,62.1,94.3,62.2,94.2
	C62.1,94.2,62.1,94.2,62.2,94.2c0-1.5-0.1-3-0.2-4.5c0-1.2,0-2.4-0.1-3.6c0-1,0-2-0.1-2.9c-0.1-1,0-2-0.1-3c0-0.2,0-0.4-0.1-0.6
	c0-0.2-0.1-0.1-0.3-0.1c-0.5,0-1.1,0-1.6,0c0,0,0-0.1-0.1-0.1c-0.1-0.1-0.1-0.3-0.1-0.5c0-0.8,0-1.6,0-2.5c0-0.4,0-0.4-0.5-0.5
	c-0.5,0-1,0-1.6,0c-0.2,0-0.3,0-0.5-0.1c0,0-0.1,0-0.1-0.1c0,0,0,0,0,0c-0.1-0.1,0-0.2,0-0.3c0-2.3,0-4.7,0-7c0-0.2,0-0.4,0.1-0.5
	c0.9-1.6,1.2-3.3,1.5-5.1c0.1-1.1,0.1-2.1,0.1-3.2c-0.1-2,0-3.9,0-5.9c0-0.8,0.3-1.5,0.4-2.3c0.1-0.6,0.1-0.6-0.5-0.8
	c-1.1-0.3-2.5,0.3-3.2,1.4c-0.2,0.4-0.4,0.7-0.5,1.2c-0.2,1.5-0.5,2.9-0.7,4.4c0,0.1,0,0.3-0.1,0.4c-0.1,0.4-0.2,0.4-0.5,0.3
	c-0.7-0.2-1.5-0.5-2.2-0.8c-0.9-0.3-1.8-0.6-2.6-0.9c-0.1,0-0.2-0.1-0.4-0.1c0,0-0.1,0-0.1,0c-0.5-0.1-0.6-0.4-0.7-0.8
	c-0.2-1.5-0.5-3-0.7-4.4c-0.1-0.6-0.1-0.6,0.4-0.8c0.9-0.5,1.9-1,2.8-1.5c0.8-0.4,0.9-1.7,0.2-2.2c-0.2-0.2-0.4-0.2-0.6-0.1
	c-1.8,0.8-3.7,1.5-5.5,2.2c-0.9,0.3-1.4,0.7-1.4,1.7c0,0.1,0,0.3-0.2,0.3c-0.2,0-0.2-0.2-0.2-0.3c-0.2-0.6-0.4-1.1-0.5-1.7
	c0,0,0-0.1,0-0.1c0,0,0,0,0-0.1c0.1-0.1,0.2-0.2,0.3-0.2c1.8-1.2,3.7-2.4,5.5-3.6c0.8-0.5,1-1.5,0.6-2.2c-0.2-0.5-0.6-0.6-1.1-0.3
	c-1.5,0.9-3,1.9-4.5,2.8c-0.1,0.1-0.2,0.2-0.4,0.2c-0.1,0-0.1,0-0.2,0c0,0,0,0,0,0c0,0,0,0,0-0.1c0.4-0.9,1-1.8,1.5-2.7
	c0.3-0.5,0.6-1,0.8-1.5c0.3-0.6,0.3-1.2-0.1-1.8c-0.5-0.7-1.3-0.7-1.7,0c-0.7,1.1-1.4,2.2-2.1,3.2c-0.1,0.1-0.2,0.3-0.3,0.4
	c-0.1,0.1-0.1,0.2-0.3,0.2c-0.2,0-0.2-0.2-0.2-0.3c0-0.5-0.1-1-0.1-1.5c0-0.9-0.1-1.7-0.2-2.6c-0.1-0.9-1.1-1.4-1.8-0.9
	c-0.1,0-0.1,0.1-0.2,0.2c-0.1,0.1-0.1,0.2-0.1,0.3c0,0.4,0,0.7,0,1.1v0c0,1.4,0,2.7,0,4.1c0,1.1,0,2.1,0.1,3.2c0,0.2,0,0.5-0.1,0.7
	c-0.1,0.2-0.1,0.4,0,0.5c0.3,1,0.6,2,0.9,3c0.8,2.5,1.6,5.1,2.4,7.6c0.1,0.2,0.1,0.5,0.1,0.7c-0.1,0.3,0,0.5,0.2,0.8
	c1.2,1.6,2.3,3.2,3.5,4.9c1.3,1.9,2.7,3.8,4,5.7c0.2,0.2,0.3,0.4,0.2,0.7c-0.3,1.5-0.6,2.9-0.9,4.4c0,0.1,0,0.2-0.1,0.2c0,0,0,0,0,0
	c0,0-0.1,0.1-0.1,0.1c-0.9,0.1-1.8,0-2.7,0c-0.1,0-0.1,0-0.2-0.1c0,0,0,0,0,0c-0.1,0.1-0.1,0.2-0.1,0.4c0,0.9,0,1.8,0,2.7
	c0,0.5,0,0.5-0.5,0.5c-0.4,0-0.7,0-1.1,0c-0.3,0-0.3,0-0.3,0.3c0,1.1-0.1,2.1-0.1,3.2c0,0.5,0,1,0,1.5c-0.1,1.1,0,2.1-0.1,3.2
	c-0.1,1,0,1.9-0.1,2.9c-0.1,1,0,2.1-0.1,3.1c0,0.5,0,1.1-0.1,1.6c0,0,0,0.1,0,0.1c0,0,0-0.1,0-0.1c-0.2-0.4-0.1-0.9,0-1.3
	c0-0.3,0.1-0.5,0-0.8c0-1.6,0.1-3.2,0.1-4.8c0-2,0.1-4,0.1-6c0-0.8,0-1.6,0.1-2.4c0-0.5,0.1-0.6,0.6-0.6c0.3,0,0.6,0,0.9,0
	c0.3,0,0.4-0.1,0.4-0.4c0-0.9,0-1.7,0-2.6c0-0.2-0.1-0.4,0.2-0.5c0,0,0,0,0,0c0.8,0,1.7,0,2.5,0c0.1,0,0.3,0,0.4,0
	c0.2-1,0.4-1.9,0.6-2.9c0.1-0.6,0.2-1.2,0.4-1.8c0.1-0.2,0-0.4-0.1-0.5c-1.1-1.5-2.1-3-3.2-4.4c-1.5-2.1-3-4.2-4.5-6.3
	c-0.1-0.2-0.2-0.4-0.1-0.6c0.1-0.3,0.1-0.6,0-0.9c-1.1-3.5-2.2-7.1-3.4-10.6c-0.1-0.2-0.1-0.4,0.1-0.6c0.1-0.1,0.1-0.3,0.1-0.4
	c0-2.7-0.1-5.4-0.1-8.1c0-0.1,0-0.2,0-0.3c0-0.2-0.1-0.5,0.2-0.6c0.3-0.2,0.6-0.4,1-0.3c0.5,0.1,1,0.8,1.1,1.3
	c0.1,1.3,0.2,2.7,0.2,4c0,0.1,0,0.2,0.1,0.3c0.1,0,0.2-0.2,0.2-0.3c0.7-1.1,1.5-2.3,2.2-3.4c0.1-0.1,0.1-0.2,0.2-0.3
	c0.4-0.6,1.1-0.6,1.6-0.1c0.6,0.5,0.7,1.4,0.3,2.1c-0.5,0.9-1,1.8-1.5,2.7c-0.3,0.5-0.6,1-0.8,1.5v0l0,0c0.2,0.1,0.2,0,0.3-0.1
	c1.1-0.7,2.2-1.3,3.2-2c0.5-0.3,1-0.6,1.5-1c0.3-0.2,0.6-0.2,0.8,0.1c0.4,0.4,0.5,1,0.4,1.5c-0.1,0.5-0.3,0.8-0.7,1.1
	c-1.9,1.2-3.7,2.4-5.6,3.6c-0.1,0.1-0.2,0.1-0.3,0.2c0.2,0.6,0.4,1.3,0.6,1.9c0.1,0,0.1-0.1,0.1-0.2c0.1-0.4,0.2-0.7,0.2-1.1
	c0-0.2,0.1-0.3,0.3-0.4c2.2-0.9,4.4-1.8,6.7-2.7c0.2-0.1,0.3,0,0.4,0c0.6,0.4,0.8,0.8,0.6,1.5c0,0,0,0.1,0,0.1
	c-0.1,0.4-0.3,0.7-0.8,0.9c-1,0.4-1.9,1-2.8,1.4c-0.2,0.1-0.3,0.2-0.2,0.4c0.3,1.5,0.5,3,0.7,4.4c0,0.1,0,0.1,0,0.2
	c0,0.4,0.1,0.7,0.5,0.7c0.5,0.1,1,0.3,1.5,0.5c1.4,0.5,2.7,1,4.1,1.4c0.1-0.1,0.1-0.1,0.1-0.2c0.2-1.5,0.5-3,0.7-4.5
	c0.1-1,0.5-1.8,1.3-2.4c0.9-0.7,1.9-0.8,2.9-0.5c0.3,0.1,0.3,0.1,0.3,0.5c-0.2,0.7-0.3,1.5-0.5,2.2c-0.1,0.3-0.1,0.5-0.1,0.8
	c0,1.8,0,3.6,0,5.4c0,0.4,0,0.8,0,1.2c0.1,1.1-0.1,2.2-0.3,3.3c-0.2,0.9-0.4,1.8-0.7,2.7c-0.1,0.4-0.3,0.7-0.5,1.1
	c-0.1,0.2-0.2,0.4-0.2,0.6c0,1.6,0,3.3,0,4.9c0,0.8,0,1.6,0,2.4c0.7,0,1.4,0,2.2,0c0.6,0,0.5-0.1,0.5,0.5c0,1,0,2,0,3
	c0.5-0.1,1,0,1.6,0c0.3,0,0.4,0.1,0.5,0.4c0,0.2,0.1,0.4,0.1,0.6c0,1,0,1.9,0.1,2.9c0,1.5,0.1,3.1,0.1,4.6c0,1.9,0.1,3.9,0.1,5.8
	C62.2,93.8,62.3,94,62.2,94.2z"/>
<path class="st0" d="M55.4,6.1c0,0.1-0.1,0.1-0.2,0.2c-1.5,1.5-2.9,2.9-4.4,4.4c-0.8,0.8-1.6,1.5-2.3,2.3h0c0.2,0.5,0.5,1,0.7,1.5
	c0.2,0.5,0.4,1,0.7,1.5c0.6,1.3,1.2,2.5,1.8,3.8c0.1,0.2,0.1,0.3,0.1,0.5c-0.3,1.7-0.9,3.2-1.7,4.7c-1.1,1.8-2.4,3.3-3.9,4.8
	c-0.9,0.8-1.9,1.6-2.9,2.3c-1.2,0.8-2.5,1.6-3.8,2.2c-1.4,0.7-2.9,1.2-4.5,1.6c-0.9,0.2-1.9,0.4-2.8,0.6c-0.5,0.1-1.1,0.1-1.6,0.2
	c-0.7,0.1-1.4,0.1-2.1,0.1c-0.7,0-1.3,0-2-0.1c-0.7-0.1-1.3-0.1-2-0.3c-1.8-0.3-3.5-0.9-5-2c-0.2-0.1-0.3-0.3-0.5-0.4
	c-0.2-0.2-0.3-0.4-0.4-0.6c-0.7-1.7-1.4-3.3-2.1-5c-0.1-0.1-0.1-0.3-0.2-0.3C16,28.1,16,28.2,16,28.4c0,0.8,0.1,1.6,0.1,2.4
	c0,0.8,0.1,1.6,0.1,2.4c0.1,1.6,0.1,3.2,0.2,4.8c0.1,2.7,0.2,5.3,0.3,8c0,0.7,0.1,1.4,0.1,2.2v0c0.3,0.1,0.7,0.2,0.9,0.5
	c0.6,0.7,0.3,1.8-0.4,2.2c-0.1,0.1-0.2,0.1-0.3,0.1c0.1,0.8,0.2,1.6,0.4,2.4c0.2,1.6,0.5,3.1,0.7,4.7c0,0.2,0.1,0.3,0.1,0.5
	c0,0.3-0.2,0.5-0.5,0.4c-0.2,0-0.3-0.1-0.4,0c-0.1,0.1-0.3,0.1-0.4,0c-0.2-0.1-0.3-0.1-0.4,0c-0.1,0.1-0.2,0.1-0.3,0
	c-0.3-0.2-0.7,0-1-0.1C15,59,15,58.8,15,58.7c0.1-0.5,0.2-1,0.2-1.5c0.2-1.6,0.5-3.1,0.7-4.7c0.1-0.5,0.1-1,0.2-1.5
	c-0.5-0.2-0.8-0.4-1-0.9c-0.2-0.7,0-1.4,0.7-1.8c0.1-0.1,0.2-0.1,0.3-0.2c0-0.9-0.1-1.9-0.1-2.9c-0.1-2.6-0.2-5.2-0.4-7.9
	c-0.1-1.2-0.1-2.4-0.2-3.6c-0.1-1.9-0.2-3.7-0.3-5.6c0-0.3,0.1-0.5,0.3-0.6c0.2-0.1,0.3-0.2,0.4-0.4c-0.1-0.1-0.1-0.2-0.2-0.4h0
	c-1.8,0-3.6,0-5.5,0h0c0,0,0,0,0,0c0.1-0.1,0.3-0.1,0.4-0.1c1.6,0,3.1,0,4.7,0c0.1,0,0.2,0,0.3,0.1c0,0,0.1,0.1,0.1,0.1
	c0,0,0,0,0,0.1c0.1,0.1,0.1,0.2,0.1,0.3c0,0,0,0,0,0c0,0,0,0,0,0.1c0,0.1,0,0.1-0.1,0.2c-0.6,0.4-0.5,0.9-0.5,1.5c0.1,1,0.1,2,0.2,3
	c0.1,1.4,0.1,2.7,0.2,4.1c0.1,0.6,0.1,1.3,0.1,1.9c0,1.4,0.1,2.9,0.2,4.3c0.1,1.9,0.2,3.7,0.3,5.6c0,0.1,0,0.1,0,0.2
	c0,0,0,0.1,0,0.1c0,0,0,0,0,0c-0.1,0.1-0.2,0.1-0.3,0.2c-0.7,0.4-0.9,0.9-0.7,1.6c0,0.1,0,0.1,0.1,0.1c0,0.1,0.1,0.1,0.1,0.2
	c0.1,0.2,0.3,0.3,0.5,0.4c0.1,0,0.2,0.1,0.2,0.2c0,0,0,0,0,0c0,0,0,0,0,0.1c0,0.4-0.1,0.9-0.2,1.3c-0.3,2-0.6,4-0.9,6.1
	c-0.1,0.5-0.1,0.5,0.5,0.6c0.4,0.1,0.8,0,1.3,0c0.3,0.1,0.6-0.1,0.9-0.1c0.2,0,0.2-0.3,0.2-0.5c-0.1-0.5-0.2-1.1-0.2-1.6
	c-0.3-1.8-0.6-3.5-0.8-5.3c0-0.2,0-0.3,0-0.5c0,0,0,0,0-0.1c0,0,0,0,0,0c0.1-0.1,0.2-0.2,0.3-0.2c0.6-0.4,0.8-1,0.6-1.6
	c0-0.1-0.1-0.2-0.1-0.3c0,0-0.1-0.1-0.1-0.1c-0.2-0.2-0.4-0.4-0.6-0.4c-0.1,0-0.2-0.1-0.2-0.2c0,0,0,0,0,0c0,0,0,0,0-0.1
	c-0.1-0.4-0.1-0.8-0.1-1.2c-0.1-1.7-0.1-3.3-0.2-5c0-0.6-0.1-1.3-0.1-1.9c0-1.6-0.1-3.2-0.2-4.8C16.1,33.1,16,31,15.9,29
	c0-0.3-0.1-0.7,0.2-0.9c0,0,0.1,0,0.1,0c0,0,0,0,0,0c0.2,0,0.2,0.2,0.3,0.4c0.5,1.1,0.9,2.2,1.3,3.2c0.2,0.4,0.4,0.8,0.5,1.2
	c0.2,0.7,0.7,1.1,1.2,1.5c1.3,0.8,2.6,1.4,4.1,1.7c1.3,0.3,2.6,0.4,4,0.5c4.5,0.1,8.7-0.9,12.6-3c2.7-1.4,5.1-3.2,7.2-5.5
	c1.4-1.5,2.6-3.2,3.4-5.2c0.4-0.9,0.6-1.8,0.8-2.8c0-0.2,0-0.3-0.1-0.5c-0.7-1.6-1.5-3.1-2.2-4.7c-0.3-0.7-0.7-1.3-0.9-2
	c0,0,0,0,0,0c0,0,0,0,0,0c0-0.2,0.2-0.3,0.3-0.4c2.1-2,4.2-4.1,6.2-6.1c0.1-0.1,0.2-0.2,0.3-0.3c0,0,0-0.1,0-0.1c0,0,0,0,0,0
	c0,0-0.1,0-0.1,0C51.8,6,48.4,5.9,45.1,6c-2.4,0.1-4.7,0-7.1,0.1c-0.2,0-0.4,0.1-0.6-0.1c0,0,0,0-0.1-0.1c0,0,0.1,0.1,0.1,0.1
	c0.1,0,0.2,0,0.2,0c2.2,0,4.3,0,6.5,0c2.9-0.1,5.8,0,8.7-0.1c0.7,0,1.5,0,2.2-0.1c0.1,0,0.3,0,0.4,0.1C55.5,5.9,55.5,6,55.4,6.1z"/>
<path class="st7" d="M55.4,5.9c0,0,0,0.1-0.1,0.1c-0.3,0.4-0.7,0.7-1,1.1c-0.1,0.1-0.2,0.2-0.3,0.3c-1,1-2,2-3.1,3
	c-1.9,1.9-3.8,3.7-5.8,5.5c-1.2,1.1-2.4,2.3-3.6,3.4c-1.9,1.8-3.8,3.6-5.7,5.5c-0.5,0.5-1,1-1.5,1.5c-0.2,0.2-0.4,0.3-0.7,0.3
	c0,0,0,0,0,0c0,0,0,0,0,0c-4.5,0-9.1,0.1-13.6,0.1c-0.5,0-1,0.1-1.4,0.1c-0.1,0-0.3,0-0.4-0.1c0,0,0,0,0,0c0,0,0,0,0,0
	c0-0.2,0.2-0.3,0.3-0.4c1.2-1,2.4-1.9,3.6-2.9c2.7-2.2,5.4-4.4,8.1-6.5c0.1-0.1,0.4-0.2,0.2-0.5c-0.2-0.2-0.4,0-0.5,0.1
	c-4.2,3.3-8.3,6.7-12.5,10.1c-0.1,0.1-0.2,0.2-0.4,0.2c0,0-0.1,0-0.1,0c0,0,0,0,0,0c-1.4,0-2.8,0-4.1,0c-2.6,0.1-5.2,0.1-7.8,0.1
	c-0.1,0-0.2,0-0.3,0c0,0,0,0,0,0c-0.1,0-0.2,0-0.3-0.2c1.1-1,2.1-2,3.2-3.1c2.6-2.5,5.2-5,7.8-7.5c2.4-2.3,4.9-4.7,7.3-7
	c0.9-0.9,1.9-1.8,2.8-2.7c0.1-0.1,0.3-0.2,0.5-0.2c1.2-0.1,2.4,0,3.7,0c1.6,0,3.2,0,4.8,0c0.8,0,1.6,0,2.4,0c0.2,0,0.3-0.1,0.5-0.1
	c0,0,0.1,0.1,0.1,0.1c0.1,0,0.2,0,0.2,0c2.2,0,4.3,0,6.5,0c2.9-0.1,5.8,0,8.7-0.1c0.7,0,1.5,0,2.2-0.1C55.2,5.8,55.3,5.8,55.4,5.9z"
	/>
<path class="st8" d="M17,26.5C17,26.6,17,26.6,17,26.5c-0.1,0.3-0.3,0.4-0.6,0.5c0,0,0,0,0,0c0,0-0.1,0-0.1,0c-0.1,0-0.2,0-0.3,0
	c0,0-0.1,0-0.1-0.1h0c-1.8,0-3.6,0-5.5,0h0c-0.2-0.1-0.3-0.1-0.5-0.1c-1.7,0-3.4,0-5.1,0c-0.1,0-0.2,0-0.3,0c-0.2,0-0.2-0.1-0.1-0.3
	c0,0.1,0.1,0.1,0.1,0.1c0.1,0,0.1,0,0.2,0c1.8,0,3.7,0,5.5,0C12.5,26.5,14.7,26.6,17,26.5z"/>
<path class="st9" d="M59.8,79.3L59.8,79.3c-0.1,0.2-0.2,0.1-0.4,0.1c-4.7,0-9.5,0-14.2,0c-0.1,0-0.1,0-0.2,0c-0.2,0-0.2-0.1-0.2-0.2
	c0-0.6,0-1.3,0-1.9c0-0.5,0-1,0-1.4h0c0.8,0,1.7,0,2.5,0c0.1,0,0.3,0,0.4,0c0,0,0.1,0,0.1,0c0.1,0,0.2-0.1,0.3-0.1
	c2.8,0,5.6,0,8.4,0c0,0,0,0,0,0c0,0,0,0,0.1,0c0.2,0,0.3,0,0.4,0.1c0,0,0.1,0,0.1,0c0.7,0,1.4,0,2.2,0c0.6,0,0.5-0.1,0.5,0.5
	C59.8,77.3,59.8,78.3,59.8,79.3z"/>
<path class="st10" d="M51.8,20.2c-0.3,1.7-0.9,3.2-1.7,4.7c-1.1,1.8-2.4,3.3-3.9,4.8c-0.9,0.8-1.9,1.6-2.9,2.3
	c-1.2,0.8-2.5,1.6-3.8,2.2c-1.4,0.7-2.9,1.2-4.5,1.6c-0.9,0.2-1.9,0.4-2.8,0.6c-0.5,0.1-1.1,0.1-1.6,0.2c-0.7,0.1-1.4,0.1-2.1,0.1
	c-0.7,0-1.3,0-2-0.1c-0.7-0.1-1.3-0.1-2-0.3c-1.8-0.3-3.5-0.9-5-2c-0.2-0.1-0.3-0.3-0.5-0.4c-0.2-0.2-0.3-0.4-0.4-0.6
	c-0.7-1.7-1.4-3.3-2.1-5c-0.1-0.1-0.1-0.3-0.2-0.3c0,0,0,0,0,0c0-0.1,0-0.1,0.1-0.2c0.4-0.4,0.8-0.8,1.3-1c0,0,0,0,0,0
	c0,0,0.1,0,0.1,0c0.5,0,0.9,0,1.4,0c4.8,0,9.7,0.1,14.5,0.1c0.4,0,0.7-0.1,1-0.4c3-3,6.1-6,9.1-9c1.4-1.5,3-2.8,4.4-4.3
	c0.1-0.1,0.2-0.2,0.4-0.2c0,0,0,0,0,0h0c0.2,0.5,0.5,1,0.7,1.5c0.2,0.5,0.4,1,0.7,1.5c0.6,1.3,1.2,2.5,1.8,3.8
	C51.8,19.9,51.8,20,51.8,20.2z"/>
<path class="st11" d="M56.7,75.7c0,0,0,0.1,0,0.1c-0.2,0-0.4,0-0.6,0c-2.6,0-5.1,0-7.7,0c-0.1,0-0.3,0-0.4,0c0,0,0,0-0.1,0v0
	c0.2-1,0.4-1.9,0.6-2.9c0.1-0.6,0.2-1.2,0.4-1.8c0.1-0.2,0-0.4-0.1-0.5c-1.1-1.5-2.1-3-3.2-4.4c-1.5-2.1-3-4.2-4.5-6.3
	c-0.1-0.2-0.2-0.4-0.1-0.6c0.1-0.3,0.1-0.6,0-0.9c-1.1-3.5-2.2-7.1-3.4-10.6c-0.1-0.2-0.1-0.4,0.1-0.6c0.1-0.1,0.1-0.3,0.1-0.4
	c0-2.7-0.1-5.4-0.1-8.1c0-0.1,0-0.2,0-0.3c0-0.2-0.1-0.5,0.2-0.6c0.3-0.2,0.6-0.4,1-0.3c0.5,0.1,1,0.8,1.1,1.3
	c0.1,1.3,0.2,2.7,0.2,4c0,0.1,0,0.2,0.1,0.3c0.1,0,0.2-0.2,0.2-0.3c0.7-1.1,1.5-2.3,2.2-3.4c0.1-0.1,0.1-0.2,0.2-0.3
	c0.4-0.6,1.1-0.6,1.6-0.1c0.6,0.5,0.7,1.4,0.3,2.1c-0.5,0.9-1,1.8-1.5,2.7c-0.3,0.5-0.6,1-0.8,1.5v0c0,0,0,0,0,0.1
	c0,0.4-0.3,0.7-0.5,1c-0.3,0.4-0.3,0.9-0.1,1.3c0.1,0.3,0.3,0.6,0.3,1c0,0,0,0.1,0,0.1c0.2,0.6,0.4,1.3,0.6,1.9
	c0.1,0,0.1-0.1,0.1-0.2c0.1-0.4,0.2-0.7,0.2-1.1c0-0.2,0.1-0.3,0.3-0.4c2.2-0.9,4.4-1.8,6.7-2.7c0.2-0.1,0.3,0,0.4,0
	c0.6,0.4,0.8,0.8,0.6,1.5c0,0,0,0.1,0,0.1c-0.1,0.4-0.3,0.7-0.8,0.9c-1,0.4-1.9,1-2.8,1.4c-0.2,0.1-0.3,0.2-0.2,0.4
	c0.3,1.5,0.5,3,0.7,4.4c0,0.1,0,0.1,0,0.2c0,0.4,0.1,0.7,0.5,0.7c0.2,0.1,0.4,0.2,0.5,0.3c2.4,1.3,4.3,2.9,5.7,5.3
	c0.9,1.5,1.3,3,1.4,4.7c0,0.5,0,1.1,0,1.6c-0.1,1,0.1,2.1,0.2,3.1c0.1,1.4,0.3,2.7,0.4,4C56.7,75.5,56.7,75.6,56.7,75.7z"/>
<path class="st12" d="M67.8,31.4c-0.2-1.6-0.8-2.9-1.7-4.1c-0.5-0.7-1.2-1.2-1.9-1.6c-0.3-0.2-0.7-0.3-1.1-0.2
	c-0.1,0-0.2,0.1-0.2,0.1c-4.5,2.9-9.1,5.8-13.6,8.7c-0.1,0-0.2,0.1-0.2,0.2c0.4,0.1,0.8,0.3,1.2,0.4c0.2,0.1,0.4,0.2,0.6,0.3
	c0,0,0.1,0,0.1,0.1c-0.1,0-0.1-0.1-0.2-0.1c-0.2-0.1-0.4-0.1-0.5,0c-0.3,0.2-0.6,0.4-0.9,0.6c-0.4,0.3-0.5,0.7-0.4,1.2
	c0.3,1.3,0.9,2.4,1.7,3.4c0.4,0.4,0.8,0.8,1.3,1c0.6,0.3,1.1,0.2,1.7-0.1c3.4-2.2,6.8-4.4,10.2-6.7c1.3-0.9,2.6-1.7,4-2.6
	c0,0,0,0,0.1,0c0,0,0,0,0,0c0,0,0,0,0,0C67.8,31.7,67.8,31.5,67.8,31.4z M51,39.8c-0.7-0.8-1.1-1.7-1.4-2.7c0-0.1-0.1-0.3,0-0.4
	c0.2-0.1,0.3,0,0.5,0.1c0.4,0.3,0.6,0.6,0.8,1c0.1,0.2,0,0.3-0.1,0.4c-0.3,0.2-0.3,0.4,0,0.8c0.2,0.3,0.4,0.4,0.7,0.2
	c0.5-0.3,0.9-0.6,1.4-0.8c0.2-0.1,0.3-0.3,0.2-0.6c-0.2-0.6-0.5-1.2-0.9-1.7c-0.1-0.1-0.2-0.2-0.3-0.3c0.7,0.7,1.2,1.6,1.5,2.6
	c0.1,0.5,0,1-0.2,1.4c-0.3,0.5-0.9,0.7-1.5,0.4C51.3,40.2,51.1,40,51,39.8z"/>
<path class="st12" d="M85.9,46.9c-0.1,1.6-0.8,2.8-2.2,3.6c-1.4,0.7-2.9,0.6-4.2-0.2c-0.1,0-0.1-0.1-0.2-0.1c-0.2-0.2-0.3-0.2-0.5,0
	c-0.7,0.4-1.4,0.7-2.2,0.8C75.3,51,74,50.7,72.9,50c-0.1,0-0.1-0.1-0.2-0.1c-0.2-0.2-0.2-0.2-0.4,0.1c-1.4,1.5-3.7,1.1-4.5-0.6
	c-0.9-1.8,0.4-3.8,2.3-3.9c0.3,0,0.3,0,0.3-0.3c0.2-3,2.9-5.2,5.9-4.9c1.6,0.2,2.9,1,3.9,2.3c0.2,0.3,0.2,0.3,0.5,0.2
	c2.4-0.5,4.7,1,5.1,3.5C85.9,46.4,85.9,46.6,85.9,46.9z"/>
<path class="st12" d="M81,22.8c-0.1,0.3-0.3,0.6-0.6,0.8c-3,1.9-5.9,3.9-8.9,5.8c-0.1-0.1-0.1-0.1-0.1-0.2c0.1-0.8,0-1.5-0.3-2.2
	c-0.5-1.3-1.3-2.6-2.4-3.5c-0.4-0.3-0.8-0.5-1.2-0.6c-0.1,0-0.2,0-0.3-0.1c0.4-0.2,0.7-0.5,1.1-0.7c2.7-1.7,5.3-3.4,8-5.1
	c0.6-0.4,1.2-0.4,1.8-0.2c0.4,0.1,0.8,0.4,1.1,0.7c1.3,1.2,1.9,2.7,2,4.5C81.1,22.2,81,22.5,81,22.8z"/>
<path class="st12" d="M34.8,65c-0.8,0.4-1.8,0.3-2.4-0.3c-0.1-0.1-0.1-0.1-0.2-0.2c-0.1-0.1-0.1-0.1-0.2,0c-0.1,0.1-0.1,0.1-0.2,0.1
	c-1.4,0.8-2.8,0.9-4.2,0.1c-0.2-0.1-0.4-0.1-0.6,0c-1,0.7-2.1,0.8-3.2,0.2c-1.1-0.6-1.6-1.6-1.6-2.8c0-1.7,1.4-3.1,3.2-3
	c0.2,0,0.4,0,0.6,0.1c0.2,0.1,0.3,0,0.5-0.2c0.5-0.8,1.3-1.3,2.2-1.5c2.4-0.7,4.9,0.9,5.2,3.5c0,0.3,0,0.3,0.3,0.3
	c0.9,0.1,1.6,0.7,1.8,1.6C36,63.6,35.6,64.5,34.8,65z"/>
<path class="st13" d="M58.9,53.4c-0.1,0.3-0.1,0.5-0.1,0.8c0,1.8,0,3.6,0,5.4c0,0.4,0,0.8,0,1.2c0.1,1.1-0.1,2.2-0.3,3.3
	c-0.2,0.9-0.4,1.8-0.7,2.7c-0.1,0.4-0.3,0.7-0.5,1.1c-0.1,0.2-0.2,0.4-0.2,0.6c0,1.6,0,3.3,0,4.9c0,0.8,0,1.6,0,2.4c0,0,0,0-0.1,0
	c-0.2,0-0.3,0-0.5,0c0,0,0-0.1,0-0.1c-0.1-0.3-0.1-0.7-0.1-1c-0.1-0.4-0.1-0.7-0.1-1.1c0-0.3,0-0.6-0.1-0.8c0-0.4-0.1-0.8-0.1-1.1
	c0-0.4-0.1-0.8-0.1-1.2c0,0,0-0.1,0-0.1c0-0.7-0.1-1.5-0.1-2.2c0-0.3,0.1-0.5,0.1-0.8c-0.1-1.8-0.4-3.6-1.3-5.2
	c-0.3-0.6-0.7-1.2-1.2-1.7c-1.2-1.5-2.7-2.6-4.3-3.6c-0.2-0.1-0.5-0.2-0.7-0.4c-0.1,0-0.1-0.1-0.1-0.1c0.5,0.1,1,0.3,1.5,0.5
	c1.4,0.5,2.7,1,4.1,1.4c0.1-0.1,0.1-0.1,0.1-0.2c0.2-1.5,0.5-3,0.7-4.5c0.1-1,0.5-1.8,1.3-2.4c0.9-0.7,1.9-0.8,2.9-0.5
	c0.3,0.1,0.3,0.1,0.3,0.5C59.2,51.9,59.1,52.7,58.9,53.4z"/>
<path class="st14" d="M71.5,28.9c0,0.2,0,0.4-0.1,0.6c0,0,0,0,0,0c-0.1,0.1-0.2,0.2-0.3,0.3c-1,0.7-2.1,1.4-3.1,2.1
	c-0.1,0.1-0.2,0.2-0.3,0.1c0,0,0,0,0,0c-0.1-2.2-1-4.1-2.7-5.5c-0.6-0.5-1.2-0.8-2-0.9c0.8-0.5,1.6-1,2.4-1.5
	c0.6-0.4,1.1-0.8,1.7-1.1c0.6,0,1.2,0.3,1.6,0.6c1.2,1,2,2.2,2.5,3.7C71.4,27.7,71.5,28.3,71.5,28.9z"/>
<path class="st12" d="M30.5,16.5c-0.1,0.1-0.2,0.2-0.3,0.2c-2.3,1.8-4.6,3.7-6.9,5.5c-1.7,1.4-3.5,2.8-5.2,4.2c0,0,0,0,0,0.1
	c-0.1,0.1-0.2,0.2-0.3,0.3c-0.1,0-0.1,0.1-0.2,0.1c-0.5,0.3-0.9,0.7-1.4,1.1c0,0,0,0,0,0C16,28.1,16,28.2,16,28.4
	c0,0.8,0.1,1.6,0.1,2.4c0,0.8,0.1,1.6,0.1,2.4c0.1,1.6,0.1,3.2,0.2,4.8c0.1,2.7,0.2,5.3,0.3,8c0,0.7,0.1,1.4,0.1,2.2v0h0
	c0,0,0,0,0,0c-0.2,0.1-0.4,0.1-0.5,0c0,0,0,0,0,0c0-0.9-0.1-1.9-0.1-2.9c-0.1-2.6-0.2-5.2-0.4-7.9c-0.1-1.2-0.1-2.4-0.2-3.6
	c-0.1-1.9-0.2-3.7-0.3-5.6c0-0.3,0.1-0.5,0.3-0.6c0.2-0.1,0.3-0.2,0.4-0.4c0,0,0,0,0,0c0.1-0.1,0.1-0.2,0.3-0.3c0,0,0.1,0,0.2,0
	c0.1-0.1,0.3-0.2,0.4-0.4c0,0,0.1-0.1,0.1-0.1c1.3-1.1,2.7-2.2,4-3.2c2.9-2.4,5.9-4.7,8.8-7.1c0.1-0.1,0.2-0.1,0.3-0.2
	c0.1-0.1,0.3,0,0.4,0.1C30.6,16.2,30.6,16.4,30.5,16.5z"/>
<path class="st15" d="M55.4,6.1c0,0.1-0.1,0.1-0.2,0.2c-1.5,1.5-2.9,2.9-4.4,4.4c-0.8,0.8-1.6,1.5-2.3,2.3c0,0,0,0,0,0
	c-0.5,0.5-1,1-1.5,1.5c-2.3,2.3-4.6,4.6-7,6.9c-1.8,1.8-3.6,3.6-5.4,5.4c-0.2,0.2-0.4,0.3-0.6,0.3c-3.1,0-6.2,0-9.3,0
	c-2.3,0-4.6,0-6.9,0c-0.1,0-0.1,0-0.2,0c0,0,0.1-0.1,0.1-0.1c0.1-0.1,0.3-0.2,0.4-0.3c0,0,0,0,0,0c0.3,0.1,0.7,0.1,1,0
	c0.1,0,0.3,0,0.4,0c2.6,0,5.2,0,7.7,0c2.2-0.1,4.3,0,6.5-0.1c0.2,0,0.3-0.1,0.5-0.2c0.9-0.9,1.8-1.7,2.7-2.6c1.3-1.3,2.7-2.6,4-3.9
	c1.2-1.2,2.4-2.3,3.7-3.5c1.3-1.2,2.5-2.4,3.8-3.7c1.2-1.2,2.4-2.3,3.7-3.5c1.1-1,2.1-2,3.2-3.1c0,0,0.1-0.1,0.1-0.1
	C55.5,5.9,55.5,6,55.4,6.1z"/>
<path class="st13" d="M48.7,43.8c-0.1,0.5-0.3,0.8-0.7,1.1c-1.9,1.2-3.7,2.4-5.6,3.6c-0.1,0.1-0.2,0.1-0.3,0.2c0,0,0,0,0,0
	c-0.1-0.4-0.3-0.9-0.4-1.3c-0.1-0.3-0.1-0.6,0.1-0.9c0.2-0.3,0.4-0.6,0.6-0.9c0.1-0.1,0.1-0.2,0.2-0.3c0,0,0,0,0,0l0,0
	c0.2,0.1,0.2,0,0.3-0.1c1.1-0.7,2.2-1.3,3.2-2c0.5-0.3,1-0.6,1.5-1c0.3-0.2,0.6-0.2,0.8,0.1C48.7,42.7,48.8,43.3,48.7,43.8z"/>
<path class="st16" d="M76.5,32c-0.5,0.1-1,0.1-1.5,0.2c-0.6,0.1-1.1,0.1-1.7,0.2c-0.2,0-0.4,0.1-0.4,0.3c-0.2,0.7-0.5,1.4-0.8,2
	c0,0.1-0.1,0.2-0.2,0.4c-1.4-1-2.8-2.1-4.2-3.1c0,0,0,0,0-0.1c0,0,0,0,0.1,0c1.1-0.7,2.2-1.5,3.4-2.2c0.1-0.1,0.2-0.1,0.3-0.2
	c0.9,0.5,1.8,0.9,2.6,1.3c0.8,0.4,1.5,0.7,2.3,1.1C76.4,31.8,76.5,31.9,76.5,32z"/>
<path class="st17" d="M17.7,59c-0.2,0-0.3-0.1-0.4,0c-0.1,0.1-0.3,0.1-0.4,0c-0.2-0.1-0.3-0.1-0.4,0c-0.1,0.1-0.2,0.1-0.3,0
	c-0.3-0.2-0.7,0-1-0.1C15,59,15,58.8,15,58.7c0.1-0.5,0.2-1,0.2-1.5c0.2-1.6,0.5-3.1,0.7-4.7c0.1-0.5,0.1-1,0.2-1.5c0,0,0,0,0,0
	c0.2-0.1,0.5-0.1,0.7,0c0,0,0,0,0,0c0.1,0.8,0.2,1.6,0.4,2.4c0.2,1.6,0.5,3.1,0.7,4.7c0,0.2,0.1,0.3,0.1,0.5
	C18.2,58.9,18,59.1,17.7,59z"/>
<path class="st18" d="M52.7,40.3c-0.4,0.3-1,0.3-1.4,0c-0.3-0.2-0.5-0.5-0.7-0.7c-0.6-0.8-1-1.7-1.2-2.6c-0.1-0.3,0.1-0.4,0.4-0.3
	c0.4,0.1,0.6,0.4,0.8,0.7c0.1,0.2,0.2,0.4,0.3,0.6c0.1,0.2,0.1,0.3-0.1,0.4c-0.3,0.2-0.3,0.2-0.1,0.5c0.1,0.1,0.1,0.2,0.2,0.3
	c0.2,0.2,0.3,0.2,0.5,0.1c0.5-0.3,1-0.6,1.5-0.9c0.1-0.1,0.2-0.2,0.1-0.3c-0.3-0.8-0.7-1.6-1.3-2.2c-0.4-0.4-0.8-0.7-1.4-0.7
	c0-0.1,0.2-0.1,0-0.2c0.6,0.1,1,0.4,1.4,0.8c0.5,0.5,1,1,1.3,1.7c0.2,0.5,0.4,1,0.5,1.5C53.4,39.4,53.2,39.9,52.7,40.3z"/>
<path class="st14" d="M17.5,50.2c-0.4,0.4-0.9,0.6-1.5,0.4c-0.2,0-0.3-0.1-0.4-0.2c-0.1-0.1-0.2-0.2-0.3-0.3c-0.2-0.7,0-1.4,0.7-1.8
	c0.1-0.1,0.2-0.1,0.3-0.2c0,0,0,0,0.1,0c0.2,0,0.3,0,0.5,0c0,0,0,0,0,0h0c0.3,0.1,0.7,0.2,0.9,0.5c0.1,0.2,0.1,0.3,0.1,0.4
	C17.9,49.5,17.8,49.9,17.5,50.2z"/>
<path class="st19" d="M17.3,50.8c-0.1,0.1-0.2,0.1-0.3,0.1h0c-0.2,0-0.5,0-0.7,0c0,0,0,0,0,0c-0.5-0.2-0.8-0.4-1-0.9
	c0,0,0.1,0.1,0.1,0.1c0.1,0.1,0.2,0.1,0.2,0.2c0.6,0.4,1.1,0.3,1.5,0c0.5-0.3,0.7-0.8,0.6-1.4c0,0,0,0,0,0c0-0.1,0-0.1,0-0.2
	C18.3,49.4,18,50.5,17.3,50.8z"/>
<path class="st20" d="M16.5,27C16.4,27,16.4,27,16.5,27c-0.2,0.1-0.3,0.2-0.4,0.3c0,0,0,0,0,0c-0.1-0.1-0.1-0.2-0.2-0.4h0v0
	c0,0,0,0,0.1,0C16.1,26.9,16.3,26.8,16.5,27z"/>
<path class="st21" d="M42.9,40.4c-0.2-0.1-0.3-0.2-0.5-0.3c-0.1-0.1,0-0.2,0.1-0.3c0.2-0.2,0.4-0.5,0.5-0.7c0.1-0.1,0.2-0.1,0.3-0.1
	c0.3,0.2,0.4,0.4,0.2,0.6c-0.1,0.2-0.3,0.5-0.5,0.7C43,40.4,42.9,40.4,42.9,40.4z"/>
<path class="st22" d="M50.3,46.9c0,0.1,0,0.2-0.2,0.3c-0.3,0.1-0.6,0.3-0.8,0.4c-0.1,0.1-0.2,0-0.2-0.1c0,0,0,0,0,0
	c-0.3-0.6-0.3-0.4,0.2-0.6c0.2-0.1,0.4-0.2,0.6-0.3c0.3-0.1,0.4-0.1,0.5,0.2C50.3,46.9,50.3,46.9,50.3,46.9z"/>
<path class="st23" d="M37.7,38.7c0-0.1,0-0.3,0-0.4c0-0.3,0-0.3,0.2-0.3c0.3,0,0.4,0.1,0.5,0.3c0,0.1,0,0.3,0,0.5c0,0.2,0,0.3,0,0.5
	c0,0.1-0.1,0.2-0.2,0.2c-0.1,0-0.2,0-0.3,0c-0.1,0-0.2-0.1-0.2-0.2C37.7,39,37.7,38.8,37.7,38.7C37.7,38.7,37.7,38.7,37.7,38.7z"/>
</svg>
