<?xml version="1.0" encoding="utf-8"?>
<!-- Generator: Adobe Illustrator 25.0.0, SVG Export Plug-In . SVG Version: 6.00 Build 0)  -->
<svg version="1.1" id="Layer_1" xmlns="http://www.w3.org/2000/svg" xmlns:xlink="http://www.w3.org/1999/xlink" x="0px" y="0px"
	 viewBox="0 0 100 100" style="enable-background:new 0 0 100 100;" xml:space="preserve">
<style type="text/css">
	.st0{fill:#FFFFFF;}
</style>
<g>
	<path class="st0" d="M95.9,54c-1.5,3.9-4.7,6.5-7.3,9.6c-2.8,3.5-5.8,6.8-8.6,10.2c-2.5,3-5.7,4.4-9.5,4.6
		c-7.2,0.4-14.4,0.1-21.6,0.1c-2.8,0-5.5,0.1-8.2,0.4c-0.1,0-0.2,0.1-0.3,0.1c0.1,0.4,0.4,0.5,0.6,0.8c1,1.1,1,2,0,3.1
		c-3.2,3.3-6.4,6.5-9.5,9.8c-0.8,0.8-1.5,1.6-2.3,2.4c-0.9,0.9-1.9,0.9-2.8,0c-6.9-6.5-13.7-13-20.6-19.6c-1-0.9-1-1.9-0.1-2.9
		c4-4.2,8-8.4,12.1-12.5c0.9-0.9,1.8-0.9,2.8,0c0.7,0.6,1.3,1.2,1.9,1.9c0.4,0.4,0.6,0.3,0.9-0.1c2-2.7,4.4-4.9,7.4-6.5
		c4.6-2.5,9.4-3,14.4-1.7c2.8,0.8,5.7,1.1,8.7,1.1c4.3,0,8.5,0,12.8,0c2.5,0,4.7,0.7,6.2,2.9c0.4,0.6,0.6,0,0.8-0.2
		c3.1-3.1,6.3-6.2,9.4-9.3c3.3-3.2,8.3-3,11.4,0.4c0.8,0.9,1.2,1.9,1.6,2.9C95.9,52.4,95.9,53.2,95.9,54z M56.8,75
		c4.1,0,8.4,0.1,12.8,0c3.2-0.1,5.9-1.2,7.9-3.8c3.1-3.9,6.4-7.6,9.6-11.4c1.4-1.6,2.8-3.3,4.2-4.9c1.5-1.8,1.1-3.6-1-4.7
		c-1.8-1-3.5-0.7-5,0.7c-3.6,3.6-7.2,7.1-10.8,10.7c-0.4,0.4-0.7,0.9-0.7,1.5c-0.3,3.1-3,5.8-6,5.9c-4.3,0.1-8.7,0-13,0
		c-0.4,0-0.8-0.1-1.1-0.3c-0.6-0.5-0.9-1.2-0.7-2s0.9-1.3,1.9-1.3c4,0,8,0,12.1,0c1.1,0,2-0.3,2.6-1.2c0.9-1.3,0.9-2.7,0.3-4.1
		c-0.6-1.3-1.7-1.6-3.1-1.6c-4.4,0-8.9,0-13.3,0c-3.1,0-6.1-0.3-9.1-1.2c-2.6-0.7-5.2-0.9-7.9-0.3c-4.5,1-7.8,3.8-10.6,7.4
		c-0.4,0.5-0.4,0.8,0.1,1.2c3.4,3.2,6.7,6.4,10,9.7c0.5,0.5,1,0.6,1.7,0.5c2-0.2,4-0.5,6-0.7C48,74.8,52.3,75.1,56.8,75z M37.3,81.5
		C31.4,75.7,25.5,70,19.6,64.3c-0.4-0.4-0.6-0.2-0.9,0.1c-3,3.1-5.9,6.2-8.9,9.3c-0.4,0.4-0.3,0.6,0,1c5.8,5.5,11.6,11,17.3,16.5
		c0.4,0.3,0.5,0.3,0.9,0c2.5-2.6,5-5.2,7.5-7.8C36.1,82.7,36.7,82.1,37.3,81.5z"/>
	<path class="st0" d="M37,26c0.8-1,1.7-1.9,2.7-2.5c0.5-0.3,0.4-0.4,0.2-0.8c-4-5.7-1.6-13.4,4.9-15.8c5.9-2.2,12.5,1.7,13.6,7.9
		c0.5,2.9-0.1,5.5-1.8,7.9c-0.3,0.4-0.3,0.6,0.2,0.8c0.9,0.5,1.7,1.2,2.3,2c0.3,0.5,0.5,0.4,0.8,0c0.6-0.8,1.3-1.4,2.2-1.9
		c0.5-0.3,0.6-0.5,0.2-1c-2.5-3.7-2.6-7.5-0.4-11.3s6.7-5.6,11-4.7c4.1,0.9,7.3,4.3,8,8.6c0.4,2.8-0.2,5.3-1.8,7.5
		c-0.3,0.4-0.3,0.6,0.2,0.9c2.9,1.8,4.4,4.5,4.5,8c0,2.7,0,5.4,0,8.1c0,2.6-1.8,4.5-4.4,4.5c-5.7,0-11.5,0-17.2,0
		c-1,0-1.8-0.7-2.7-0.7c-0.8,0-1.7,0.7-2.6,0.7c-5.7,0-11.5,0-17.2,0c-1,0-1.9-0.7-2.7-0.7s-1.7,0.7-2.7,0.7c-5.7,0-11.4,0-17.1,0
		c-2.6,0-4.4-1.8-4.5-4.3c-0.1-3-0.1-6,0-9s1.6-5.4,4.1-7.1c0.8-0.5,0.7-0.8,0.3-1.5c-2.3-3.6-2.4-7.3-0.2-10.9
		c2.2-3.7,5.6-5.4,9.9-5c7.8,0.7,11.9,9.8,7.4,16.2c-0.4,0.6-0.3,0.8,0.2,1.1C35.5,24.2,36.3,25,37,26z M70.7,40.4
		c2.8,0,5.6,0,8.4,0c0.7,0,1.1-0.3,1.1-1c0-2.7,0-5.3,0-8c0-2.6-1.8-4.7-4.2-5.4c-0.4-0.1-0.7-0.1-1.1,0.1c-2.8,1.2-5.5,1.2-8.3,0
		C66.3,26,66,25.9,65.7,26c-2.3,0.6-4.1,2.5-4.3,4.9c-0.2,2.9-0.1,5.8-0.1,8.7c0,0.7,0.4,0.9,1.1,0.9C65.2,40.4,68,40.4,70.7,40.4z
		 M25.8,40.4c2.8,0,5.6,0,8.4,0c0.7,0,1-0.3,1-1c0-2.7,0-5.5,0-8.2c-0.1-2.5-1.8-4.5-4.2-5.2c-0.4-0.1-0.7-0.1-1,0.1
		c-2.8,1.2-5.6,1.2-8.4,0c-0.3-0.1-0.6-0.2-1-0.1c-2.5,0.7-4.2,2.9-4.2,5.5s0,5.3,0,7.9c0,0.8,0.3,1.1,1.1,1.1
		C20.2,40.4,23,40.4,25.8,40.4z M48.2,40.4c2.8,0,5.6,0,8.3,0c0.8,0,1.2-0.2,1.2-1.1c0-2.6,0-5.3,0-7.9s-1.7-4.8-4.2-5.5
		c-0.3-0.1-0.6-0.1-0.9,0c-2.8,1.2-5.7,1.2-8.5,0c-0.3-0.1-0.6-0.2-0.9-0.1c-2.5,0.7-4.2,2.8-4.3,5.4c0,2.7,0,5.3,0,8
		c0,0.8,0.3,1.1,1.1,1.1C42.7,40.4,45.5,40.4,48.2,40.4z M64.1,16.6c0,3.7,3,6.8,6.7,6.7c3.7,0,6.7-3,6.7-6.7s-3.1-6.8-6.8-6.8
		C67.1,9.9,64.1,12.9,64.1,16.6z M32.5,16.7c0-3.7-3-6.8-6.7-6.8S19,13,19,16.7s3.1,6.7,6.7,6.7C29.4,23.3,32.5,20.3,32.5,16.7z
		 M48.2,23.3c3.7,0,6.8-3,6.8-6.7c0-3.6-3.1-6.7-6.7-6.7c-3.7,0-6.8,3-6.8,6.8C41.5,20.3,44.6,23.3,48.2,23.3z"/>
	<path class="st0" d="M47.5,65.4c1,0,1.8,0.8,1.8,1.8S48.5,69,47.4,69c-1,0-1.8-0.9-1.7-1.9C45.7,66.1,46.5,65.3,47.5,65.4z"/>
</g>
</svg>
