<?xml version="1.0" encoding="utf-8"?>
<!-- Generator: Adobe Illustrator 25.0.0, SVG Export Plug-In . SVG Version: 6.00 Build 0)  -->
<svg version="1.1" id="Layer_1" xmlns="http://www.w3.org/2000/svg" xmlns:xlink="http://www.w3.org/1999/xlink" x="0px" y="0px"
	 viewBox="0 0 100 100" style="enable-background:new 0 0 100 100;" xml:space="preserve">
<style type="text/css">
	.st0{fill:#21409A;}
</style>
<g>
	<path class="st0" d="M46.9,7.6c2,0,4.1,0,6.1,0c0.2,0.1,0.5,0.1,0.7,0.2c1.6,0.2,3.1,0.4,4.7,0.7c22.7,4.5,38.8,27.4,32.6,52
		c-5.9,23.5-30.2,37.3-53.3,30.1c-16.2-5.1-26-16.3-29.5-33C8,56,7.8,54.5,7.6,53c0-2,0-4.1,0-6.1c0.1-0.2,0.1-0.5,0.2-0.7
		c0.5-2.8,0.8-5.7,1.6-8.4c5.4-16.1,16.4-26,33-29.5C43.9,7.9,45.4,7.8,46.9,7.6z M87.8,35.9c-0.1-1.1-1.1-1.6-1.8-2.3
		c-0.1,0.1-0.1,0.1-0.2,0.2C86.5,34.4,87.1,35.1,87.8,35.9c-0.2,0.3-0.4,0.5-0.5,0.8c-0.3-0.5-0.5-0.9-0.8-1.4
		c-0.5-0.7-0.9-1.4-1.4-2.1c-0.1-0.2-0.4-0.3-0.6-0.2c-0.4,0-0.8,0.1-1.2,0.2c-0.2,0.1-0.2,0.5-0.5,0.6c-0.7,0.3-0.6,0.9-0.7,1.5
		C82,35.5,81.6,36,81.4,36c-0.8,0-1.6,0.7-2.4-0.1c-0.2-0.2-0.9,0.1-0.8-0.7c0-0.4-0.4-0.9-0.3-1.1c0.4-0.8,0.1-1.5,0-2.3
		c0-0.2,0.3-0.5,0.5-0.5c0.5,0.1,0.9,0.3,1.4,0.4c0.4,0.1,0.8,0,1.2,0c0-0.4,0.1-0.8-0.1-1.1c-0.4-0.5-0.9-1-1.4-1.5
		c-0.1-0.1-0.2-0.3-0.3-0.4c0.1,0,0.3-0.2,0.4-0.1c1.2,0.7,1.4-1.2,2.5-0.9c0-0.3-0.1-0.5-0.1-0.8c0.4,0.1,0.7,0.1,1,0.2
		c0-0.2,0-0.3,0-0.3c-0.2-0.3-0.4-0.6-0.6-0.8C78.8,21,74.2,17,68.8,14.2c-0.8-0.4-2.1-0.2-2.6,0.5c-0.5,0.7-1.1,1-1.9,1
		c-0.7,0-1.1,0.3-0.9,1.2c0.1,0.2-0.2,0.6-0.3,1c0,0.3,0.2,0.7,0.1,1.2c0,0.3-0.3,0.8-0.5,0.9c-0.2,0.1-0.8-0.1-1-0.3
		c-0.5-0.5-1-0.6-1.6-0.5c-1.8,0.2-3.2-0.5-4.1-2.1c-0.2-0.4-0.5-0.8-0.8-1c-1.4-1.1-1.3-2,0.5-2.9c-0.6,0.1-0.9,0.2-1.2,0.2
		c-0.3,0-0.6-0.1-0.8-0.2c-0.1,0-0.1-0.4,0-0.4c0.3-0.1,0.5-0.3,0.8-0.3c0.3,0,0.6,0,1.2,0c-0.8-0.4-1.5-0.7-2-1.1
		c-0.7-0.7-1.5-1.3-2.4-1.4c-1.3-0.2-2.7-0.4-4-0.3c-8.5,0.6-16,3.6-22.6,9c-0.2,0.2-0.5,0.4-0.7,0.6c0.4,0.1,0.8,0.1,1.1,0
		c1.7-0.4,3.4-0.9,5-1.3c0.2,0,0.3-0.1,0.5-0.2c0.6-0.1,1.2-0.1,1.8-0.1c0.3,0,0.7,0,0.9-0.2c0.4-0.3,0.8-0.8,1.1-1.2
		c0.3-0.5,0.7-0.6,1.2-0.3c0.2,0.1,0.4,0,0.6,0c0.3,0,0.5-0.1,0.8-0.1c0,0.2,0,0.5,0,0.9c0.4-0.2,0.9-0.2,1.1-0.4
		c1-1.2,1.5-1.2,2.5,0.3c-0.8,0.3-1.5,0.8-2.2,0.7c-0.8-0.1-1.2,0.3-1.4,0.8c-0.2,0.9-0.9,1.1-1.6,1.3c-1.1,0.2-1.8,0.8-2.3,1.7
		c-0.7,1.3-0.3,2.8,1.1,3.2c0.9,0.3,1.8,0.3,2.7,0.3c1.4-0.1,2.2,0.5,2.4,1.8c0.1,0.4,0.1,0.8,0.3,1.1c0.1,0.2,0.5,0.5,0.7,0.5
		c0.2,0,0.5-0.4,0.7-0.7C41,27.3,41,27,41,26.8c-0.3-1,0.1-1.6,0.9-2.1c0.9-0.5,0.8-1.1,0.1-1.8c-0.2-0.2-0.4-0.7-0.3-0.8
		c0.6-0.6,0.4-1.3,0.3-1.9c-0.1-0.6,0.1-0.7,0.7-0.6c0.4,0.1,0.8,0.1,1.2,0.1c1.6-0.1,2.5,0.5,3.3,2c0.1,0.2,0.3,0.3,0.5,0.4
		c0.7,0.3,1.4,0.2,1.9-0.5c0.3-0.4,0.6-0.6,1-0.2c0.4,0.4,0.7,0.8,1,1.3c0.6,1.2,0.6,1.3,2,1c1.3-0.2,2.3,0.5,2.3,1.9
		c0,0.3,0,0.6,0,0.9c0,0.7-0.4,1.1-1.2,1.2c-0.4,0.1-0.8,0.1-1,0.2c-0.8,0.5-1.6,0.5-2.4,0.4c-1.6-0.2-3,0.4-4.1,1.4
		c0.9-0.2,1.7-0.4,2.6-0.5c0.2,0,0.4,0.2,0.6,0.3c-0.1,0.2-0.3,0.3-0.4,0.5c-0.1,0.1-0.2,0.1-0.2,0.1c0.5,1,1.1,1.8,2.3,1.6
		c0.1,0,0.2,0.2,0.3,0.3c-0.1,0.1-0.3,0.3-0.4,0.3c-0.8,0.1-1.5,0.2-2,0.9c-0.1,0.1-0.4,0-0.7,0c0-0.2,0-0.5,0.1-0.7
		c0.3-0.2,0.6-0.3,0.9-0.5c0-0.1-0.1-0.2-0.1-0.3c-1.3,0.8-3,0.4-4.1,1.7c-0.1,0.1-0.1,0.2-0.1,0.2c-0.8,1-1.6,2.1-2.5,2.9
		c-0.6,0.5-0.9,1-1,1.7c-0.3,1.4-1.1,2.5-2.3,3.3c-1.3,0.8-1.5,1.3-1,2.8c0.2,0.7,0.3,1.5,0.5,2.2c0,0.2-0.1,0.5-0.2,0.6
		c-0.1,0.1-0.5-0.1-0.6-0.2c-0.4-0.7-0.7-1.3-1-2c-0.2-0.7-0.4-1.3-1.3-0.9c-0.2,0.1-0.5-0.1-0.7-0.2c-0.6-0.4-1.1-0.3-1.8,0
		c-0.7,0.3-1.4,0.5-2.2,0.6c-1.7,0.1-2.6,0.7-3.1,2.3c-0.1,0.2-0.2,0.4-0.3,0.6c-0.7,1.2-0.4,2.3,0.3,3.3c0.6,1.1,1.6,1.6,2.9,1.3
		c0.4-0.1,0.9-0.5,1-0.9c0.4-1.1,1.2-1.5,2.5-1c-0.1,0.2-0.3,0.4-0.4,0.6c-0.2,0.7-0.5,1.4-0.6,2.1c-0.1,0.6,0.2,1,0.9,1
		c0.2,0,0.5,0,0.7,0c1.3,0,1.9,0.7,1.7,2c-0.2,0.9-0.1,1.8,0.7,2.4c0.3,0.2,0.9,0.4,1.2,0.3c1.7-0.5,2.3-0.1,2.4,1.8
		c0,0.4,0.2,0.7,0.3,1.1c0.4-1.1,0.8-1.7,1.5-1.4c0.6,0.3,1.3,0.4,2,0.5c0.3,0,0.7,0.4,1,0.3c1.1-0.2,2,0,2.6,1
		c0.1,0.1,0.3,0.2,0.5,0.3c0.4,0.3,0.9,0.5,1.3,0.8c0.6,0.6,1.2,1,2.1,0.8c1.1-0.2,2.1,0.3,2.6,1.3c0.4,0.7,0.6,1.4,0.8,1.9
		c1.2,0.4,2.3,0.7,3.5,1.1c1.7,0.6,3.5,1.3,5.2,2c0.3,0.1,0.7,0.5,0.7,0.8c0,0.9-0.1,1.8-1,2.4c-0.8,0.5-1.1,1.2-1.3,2.1
		c-0.2,1-0.8,2-1.2,2.9c-0.2,0.3-0.4,0.6-0.6,0.9c-0.3,0.8-0.8,1.1-1.6,1.2c-0.8,0.1-1.7,0.3-2.4,0.7c-0.4,0.2-0.6,0.7-0.8,1.1
		c-0.2,0.3-0.3,0.7-0.5,0.9c-0.3,0.3-0.6,0.6-1,0.9c-0.7,0.6-1.5,1.2-2.3,1.7c-0.5,0.4-1,0.8-1.5,1.1c-0.3,0.2-0.7,0.4-1,0.4
		c-0.8-0.1-1.4,0-1.9,0.8c-0.1,0.2-0.5,0.3-0.8,0.4c-0.3,0.1-0.6,0.3-0.9,0.5c-0.2,0.2-0.3,0.6-0.4,0.8c0.3,0.1,0.6,0.4,0.8,0.4
		c3-0.1,6,0.1,8.9-0.4c12.3-2,21.8-8.4,28.5-18.9c0.3-0.4,0.3-0.9,0.4-1.4c0.4-1.5,0.4-3.1,1.1-4.5c0.9-1.8,0.9-3.5,0.2-5.4
		c-0.2-0.6-0.2-1.4-0.1-2c0.3-1.2-0.5-2.2-1.8-2c-1.5,0.3-3,0.5-4.5,0.8c-0.3,0-0.6-0.1-0.8-0.3c-1.3-1.4-2.6-2.8-3.8-4.3
		c-0.4-0.5-0.3-1.4-0.4-2.1c0,0,0-0.1,0.1-0.1c0.7-0.8,0.6-1.7,0-2.6c-0.5-0.8-0.5-1.8,0.1-2.6c0.8-1.2,1.6-2.4,2.5-3.5
		c0.4-0.5,0.8-1,0.8-1.7c0-0.4,0.3-0.8,0.5-1.1c0.3-0.5,0.7-0.9,1.1-1.5c-0.1,0,0,0,0.1,0c0.8,0.4,1.6,0.6,2.5,0.1
		c1.1-0.6,2.7-0.1,3.2,1.1c0.5,1.1,1.3,1.8,2.2,2.5c0.2,0.1,0.6,0.2,0.7,0.1c0.2-0.1,0.4-0.5,0.3-0.8C88.7,38.5,88.2,37.2,87.8,35.9
		z M39.3,60.1c-1.1-0.5-2-1-3.1-1.5c-0.6-0.3-1-0.7-1.2-1.3c-0.2-0.8-0.7-1.2-1.4-1.4c-0.5-0.1-1-0.2-1.5-0.4
		c-0.4-0.2-0.9-0.5-1.2-0.8c-0.4-0.6-0.9-0.7-1.5-0.6c-0.4,0.1-0.8,0-1.1-0.1c-1-0.5-2-1-3-1.5c-0.8-0.4-1.3-0.9-1.5-1.8
		c-0.2-1.2-0.7-2.1-1.7-2.9c-0.2-0.1-0.3-0.3-0.4-0.5c-0.6-1.1-1.3-2.3-1.9-3.4c0,0-0.1,0-0.3-0.1c-0.3,0.8,0,1.3,0.4,2
		c0.6,1.2,1.3,2.4,1.9,3.6c-0.1,0.1-0.2,0.1-0.3,0.2c-0.3-0.3-0.7-0.6-0.8-1c-0.2-1.2-1.3-1.8-1.6-3c-0.2-0.8-0.8-1.5-0.9-2.5
		c0-0.2-0.2-0.5-0.4-0.6c-1-0.3-1.2-1-1.3-1.9c0-0.3-0.2-0.5-0.2-0.8c-0.5-1.5-0.4-3,0.1-4.6c0.2-0.5,0.4-1.1,0.2-1.6
		c-0.3-1.2-0.8-2.4-1.2-3.6c0-0.1-0.5-0.1-0.6,0c-0.2,0.2-0.3,0.5-0.4,0.7c-4.5,8.4-6.1,17.4-4.1,26.8C13.7,73.6,23.5,84,39.2,88.9
		c1,0.3,2.1,0.5,3.4,0.8c0-0.6,0.1-1,0-1.4c-0.7-1.9,0.5-3.6,0.4-5.5c-0.1-1.1,0.4-2.2,0.5-3.4c0.1-1-0.4-1.7-1.3-2.1
		c-2-0.9-3.3-2.4-4.3-4.3c-0.3-0.7-0.9-1.2-1.4-1.7c-0.2-0.2-0.3-0.4-0.4-0.6c-0.5-0.7,0.1-1.1,0.4-1.4c-0.2-0.4-0.5-0.8-0.4-1.1
		c0.3-0.7,0.4-1.5,1.1-2C38,65.8,38,64.9,38,64c0-0.6,0.1-1.2,0.4-1.7c0.5-0.9,1-1.9,2.1-2.2c0.5-0.2,0.4-0.6,0-0.9
		C39.9,58.9,39.6,59.1,39.3,60.1z"/>
	<path class="st0" d="M38,14.8c0.2-0.1,0.4-0.1,0.6-0.2c-0.3,0-0.5-0.1-0.9-0.1c0.1-1.1,1-1.1,1.6-1.3c0.2,0.4,0.4,0.9,0.7,1.3
		c0-1.6,1.2-1.5,2.2-1.7c0.1,0.2,0.1,0.5,0.2,0.9c0.8-0.2,1.6-0.4,2.5-0.6c0.6-0.2,0.9,0,0.8,0.5c1.3,0.3,2.6,0.6,3.9,0.9
		c-0.2,0.3-0.3,0.6-0.5,1c1.3,0.4,2.6,0.8,3.9,1.2c-0.2,0.7-1.1,1.2-1.6,0.9c-0.7-0.4-1.3-1-2.2-0.3c0.8,0.5,1.6,1,2.4,1.5
		c-0.9,1-1.8-0.1-2.6,0.1c0.5,0.3,1,0.6,1.4,0.9c0,0.1-0.1,0.2-0.1,0.2c-0.6-0.1-1.3-0.2-1.9-0.4c-0.7-0.3-1.3-0.8-2-1.1
		c-0.6-0.3-1.1-0.5-1.8-0.1c-0.4,0.2-0.9,0.1-1.4,0.1c0.6-1.1,1.7-0.3,2.5-0.9c-0.5-0.9,0.8-0.7,0.9-1.5c-0.7-0.4-1.5-0.8-2.4-1.2
		c-0.9-0.4-1.7-0.2-2.7,0.1c-1.2,0.4-2.5,0.2-3.8,0.3C38.1,15,38,14.9,38,14.8z"/>
	<path class="st0" d="M82.6,27.8c-0.8-0.1-1.4-0.1-1.9-0.3c-0.6-0.1-0.7-0.8-0.5-1.6c0.1-0.3,0-0.6-0.1-0.8
		c-0.3-0.5-0.8-0.8-1.1-1.3c-0.1-0.2-0.1-0.6-0.1-0.9c0,0,0.4-0.2,0.5-0.1c0.7,0.9,1.4,1.8,2.1,2.7C81.8,26.2,82.1,26.9,82.6,27.8z"
		/>
	<path class="st0" d="M44.7,51.4c-0.7,0.1-1.4,0.1-2.1,0.2c-0.2-1.2-1.3-1.1-2-1.5c-0.9-0.4-1.8-0.6-2.6,0.2c0-0.1-0.1-0.2-0.1-0.3
		c0.2-0.2,0.4-0.5,0.6-0.5c0.8-0.1,1.6-0.2,2.3-0.1c0.7,0.1,1.4,0.6,2,0.9c0.7,0.3,1.3,0.6,2,0.9C44.7,51.3,44.7,51.3,44.7,51.4z"/>
	<path class="st0" d="M48.6,52.5c-0.7,0.1-1.4,0.3-2.2,0.4c-0.4-0.1-1.1-0.2-1.7-0.4c0,0,0-0.1,0-0.1c0.4,0,0.7-0.1,1.3-0.1
		c-0.3-0.3-0.4-0.5-0.7-0.8C46.6,51.5,47.9,51.3,48.6,52.5z"/>
	<path class="st0" d="M77.4,24.5c0.1,0,0.2,0,0.2,0c1-0.4,1-0.4,1.4,0.7c0.3,0.9,0.2,1.1-0.8,1c-0.2,0-0.5-0.2-0.5-0.4
		C77.6,25.4,77.6,25,77.4,24.5z"/>
</g>
</svg>
