<?xml version="1.0" encoding="utf-8"?>
<!-- Generator: Adobe Illustrator 25.0.0, SVG Export Plug-In . SVG Version: 6.00 Build 0)  -->
<svg version="1.1" id="Layer_1" xmlns="http://www.w3.org/2000/svg" xmlns:xlink="http://www.w3.org/1999/xlink" x="0px" y="0px"
	 viewBox="0 0 1697.1 241.8" style="enable-background:new 0 0 1697.1 241.8;" xml:space="preserve">
<style type="text/css">
@import url(https://fonts.googleapis.com/css?family=Source+Sans+Pro:|Ubuntu:400|Ubuntu:300,300ital.st129{font-family: Ubuntu, Georgia, serif; font-weight: 500;}ic,400,400italic,700,700italic&#038;ver=4.4.4);
	.st0{fill:none;}
	.st1{fill:#FFFFFF;stroke:#E2E2E2;stroke-miterlimit:10;}
	.st2{fill:url(#SVGID_1_);}
	.st3{fill:url(#SVGID_2_);}
	.st4{enable-background:new    ;}
	.st5{fill:#FFFFFF;}
	.st6{fill:url(#SVGID_3_);}
	.st7{fill:url(#SVGID_4_);}
	.st8{fill:url(#SVGID_5_);}
	.st9{fill:url(#SVGID_6_);}
	.st10{fill:url(#SVGID_7_);}
	.st11{display:none;fill:url(#SVGID_8_);}
	.st12{display:none;fill:url(#SVGID_9_);}
	.st13{fill:url(#SVGID_10_);}
	.st14{font-family:'Ubuntu';}
	.st15{font-size:25.2561px;}
	.st16{font-family:'Ubuntu-Medium';}
	.st17{font-size:16px;}
	.st18{fill:url(#SVGID_11_);}
	.st19{fill:url(#SVGID_12_);}
	.st20{fill:url(#SVGID_13_);}
	.st21{fill:url(#SVGID_14_);}
	.st22{fill:url(#SVGID_15_);}
	.st23{fill:url(#SVGID_16_);}
	.st24{fill:url(#SVGID_17_);}
	.st25{fill:url(#SVGID_18_);}
	.st26{fill:url(#SVGID_19_);}
	.st27{fill:url(#SVGID_20_);}
	.st28{fill:url(#SVGID_21_);}
	.st29{fill:url(#SVGID_22_);}
	.st30{fill:url(#SVGID_23_);}
	.st31{fill:url(#SVGID_24_);}
	.st32{fill:url(#SVGID_25_);}
	.st33{fill:url(#SVGID_26_);}
	.st34{fill:url(#SVGID_27_);}
	.st35{fill:url(#SVGID_28_);}
	.st36{fill:url(#SVGID_29_);}
	.st37{fill:url(#SVGID_30_);}
	.st38{fill:url(#SVGID_31_);}
	.st39{fill:url(#SVGID_32_);}
	.st40{fill:url(#SVGID_33_);}
	.st41{fill:#012B45;}
	.st42{clip-path:url(#SVGID_38_);}
	.st43{clip-path:url(#SVGID_39_);fill:url(#SVGID_40_);}
	.st44{opacity:0.33;fill:url(#SVGID_41_);enable-background:new    ;}
	.st45{fill:url(#SVGID_42_);}
	.st46{fill:url(#SVGID_43_);}
	.st47{fill:url(#SVGID_44_);}
	.st48{fill:url(#SVGID_45_);}
	.st49{fill:url(#SVGID_46_);}
	.st50{fill:url(#SVGID_47_);}
	.st51{fill:url(#SVGID_48_);}
	.st52{fill:url(#SVGID_49_);}
	.st53{fill:url(#SVGID_50_);}
	.st54{fill:url(#SVGID_51_);}
	.st55{fill:url(#SVGID_52_);}
	.st56{fill:url(#SVGID_53_);}
	.st57{fill:url(#SVGID_54_);}
	.st58{fill:url(#SVGID_55_);}
	.st59{fill:url(#SVGID_56_);}
	.st60{fill:url(#SVGID_57_);}
	.st61{fill:url(#SVGID_58_);}
	.st62{fill:url(#SVGID_59_);}
	.st63{fill:url(#SVGID_60_);}
	.st64{fill:url(#SVGID_61_);}
	.st65{fill:url(#SVGID_62_);}
	.st66{fill:url(#SVGID_63_);}
	.st67{fill:url(#SVGID_64_);}
	.st68{fill:url(#SVGID_65_);}
	.st69{fill:url(#SVGID_66_);}
	.st70{fill:url(#SVGID_67_);}
	.st71{fill:url(#SVGID_68_);}
	.st72{fill:url(#SVGID_69_);}
	.st73{fill:url(#SVGID_70_);}
	.st74{fill:url(#SVGID_71_);}
	.st75{fill:url(#SVGID_72_);}
	.st76{fill:url(#SVGID_73_);}
	.st77{fill:url(#SVGID_74_);}
	.st78{fill:url(#SVGID_75_);}
	.st79{fill:url(#SVGID_76_);}
	.st80{fill:url(#SVGID_77_);}
	.st81{fill:url(#SVGID_78_);}
	.st82{fill:url(#SVGID_79_);}
	.st83{fill:url(#SVGID_80_);}
	.st84{fill:url(#SVGID_81_);}
	.st85{fill:url(#SVGID_82_);}
	.st86{fill:url(#SVGID_83_);}
	.st87{fill:url(#SVGID_84_);}
	.st88{fill:url(#SVGID_85_);}
	.st89{fill:url(#SVGID_86_);}
	.st90{fill:url(#SVGID_87_);}
	.st91{fill:url(#SVGID_88_);}
	.st92{fill:url(#SVGID_89_);}
	.st93{fill:url(#SVGID_90_);}
	.st94{fill:url(#SVGID_91_);}
	.st95{fill:url(#SVGID_92_);}
	.st96{fill:url(#SVGID_93_);}
	.st97{fill:url(#SVGID_94_);}
	.st98{fill:url(#SVGID_95_);}
	.st99{fill:url(#SVGID_96_);}
	.st100{fill:url(#SVGID_97_);}
	.st101{fill:url(#SVGID_98_);}
	.st102{fill:url(#SVGID_99_);}
	.st103{fill:url(#SVGID_100_);}
	.st104{fill:url(#SVGID_101_);}
	.st105{fill:url(#SVGID_102_);}
	.st106{fill:url(#SVGID_103_);}
	.st107{fill:url(#SVGID_104_);}
	.st108{fill:url(#SVGID_105_);}
	.st109{fill:url(#SVGID_106_);}
	.st110{fill:url(#SVGID_107_);}
	.st111{fill:url(#SVGID_108_);}
	.st112{fill:url(#SVGID_109_);}
	.st113{fill:url(#SVGID_110_);}
	.st114{fill:url(#SVGID_111_);}
	.st115{fill:url(#SVGID_112_);}
	.st116{fill:url(#SVGID_113_);}
	.st117{fill-rule:evenodd;clip-rule:evenodd;fill:url(#SVGID_114_);}
	.st118{fill-rule:evenodd;clip-rule:evenodd;fill:url(#SVGID_115_);}
	.st119{fill-rule:evenodd;clip-rule:evenodd;fill:url(#SVGID_116_);}
	.st120{fill-rule:evenodd;clip-rule:evenodd;fill:url(#SVGID_117_);}
	.st121{fill-rule:evenodd;clip-rule:evenodd;fill:url(#SVGID_118_);}
	.st122{fill-rule:evenodd;clip-rule:evenodd;fill:url(#SVGID_119_);}
	.st123{fill-rule:evenodd;clip-rule:evenodd;fill:url(#SVGID_120_);}
	.st124{fill:url(#SVGID_121_);}
	.st125{fill:url(#SVGID_122_);}
	.st126{fill:url(#SVGID_123_);}
	.st127{fill-rule:evenodd;clip-rule:evenodd;fill:url(#SVGID_124_);}
	.st128{fill-rule:evenodd;clip-rule:evenodd;fill:url(#SVGID_125_);}
	.st129{font-family: Ubuntu, Georgia, serif; font-weight: 500;}
</style>
<rect x="519.4" y="117.4" class="st0" width="75.2" height="31.6"/>
<rect x="264.1" y="117.7" class="st0" width="75.2" height="36.5"/>
<rect x="814.9" y="117.4" class="st0" width="75.2" height="34.8"/>
<rect x="1088.3" y="54.8" class="st1" width="244.4" height="136.4"/>
<rect x="742.9" y="54.8" class="st1" width="206.4" height="136"/>
<rect x="373" y="54.8" class="st1" width="225.7" height="136"/>
<rect x="10.5" y="54.8" class="st1" width="223.8" height="136"/>
<g>
	
		<radialGradient id="SVGID_1_" cx="239.325" cy="-75.0383" r="80.1711" gradientTransform="matrix(1 0 0 1 0 197.9605)" gradientUnits="userSpaceOnUse">
		<stop  offset="0" style="stop-color:#A8A8A8"/>
		<stop  offset="0.1552" style="stop-color:#B7B7B7"/>
		<stop  offset="0.488" style="stop-color:#D3D3D3"/>
		<stop  offset="0.7806" style="stop-color:#E4E4E4"/>
		<stop  offset="1" style="stop-color:#EAEAEA"/>
	</radialGradient>
	<circle class="st2" cx="239.3" cy="122.9" r="68.7"/>
	
		<linearGradient id="SVGID_2_" gradientUnits="userSpaceOnUse" x1="283.9644" y1="1029.3163" x2="410.6266" y2="978.6511" gradientTransform="matrix(0.6982 0.7159 -0.7159 0.6982 747.162 -823.4733)">
		<stop  offset="0" style="stop-color:#1E476C"/>
		<stop  offset="9.326005e-02" style="stop-color:#1A4A74"/>
		<stop  offset="0.4504" style="stop-color:#0D5490"/>
		<stop  offset="0.7646" style="stop-color:#055BA1"/>
		<stop  offset="1" style="stop-color:#025DA7"/>
	</linearGradient>
	<path class="st3" d="M364.5,134.3l-26.1,23.1c-7.1,6.2-18,1.1-18-8.3l0.2-11.3h-30.8c-2.4,8.3-6.8,16.3-13.5,22.7
		c-20.3,19.7-52.6,19.3-72.3-0.9s-19.3-52.6,0.9-72.3c20.3-19.7,52.6-19.3,72.3,0.9c6,6.2,10.1,13.5,12.4,21.2H321l0.2-13
		c0.2-8.3,10.3-12.6,16.3-6.8l27.8,26.5C370.4,121,370.2,129.6,364.5,134.3z"/>
	<g class="st4">
		<path class="st5" d="M224.1,108.2c0.4,0,0.6,0,0.9,0c0.2,0,0.4-0.2,0.4-0.2s0.2-0.2,0.2-0.4c0-0.2,0-0.2,0-0.4
			c0-0.4-0.2-0.6-0.4-0.9c-0.2-0.2-0.9-0.4-1.7-0.6c-0.4-0.2-0.6-0.2-1.1-0.4c-0.4-0.2-0.6-0.4-0.9-0.6c-0.2-0.2-0.4-0.4-0.6-0.9
			c-0.2-0.4-0.2-0.6-0.2-1.3s0-0.9,0.2-1.3c0.2-0.4,0.4-0.6,0.9-1.1c0.4-0.2,0.6-0.4,1.3-0.6c0.4-0.2,1.1-0.2,1.5-0.2
			c0.6,0,1.3,0,1.7,0.2c0.4,0.2,0.9,0.2,1.3,0.4l-0.6,1.9c-0.2-0.2-0.6-0.2-1.1-0.4c-0.4-0.2-0.9-0.2-1.3-0.2c-0.6,0-0.9,0-1.3,0.2
			c-0.2,0.2-0.4,0.4-0.4,0.6c0,0.2,0,0.4,0.2,0.4c0.2,0,0.2,0.2,0.4,0.4c0.2,0,0.4,0.2,0.6,0.2c0.2,0,0.4,0.2,0.6,0.2
			c0.6,0.2,1.1,0.4,1.5,0.6c0.4,0.2,0.6,0.4,1.1,0.6c0.4,0.2,0.4,0.6,0.6,0.9c0.2,0.4,0.2,0.9,0.2,1.3c0,1.1-0.4,1.7-1.1,2.4
			c-0.6,0.4-1.7,0.9-3,0.9c-0.4,0-0.9,0-1.3,0c-0.4,0-0.6-0.2-1.1-0.2c-0.2,0-0.4-0.2-0.6-0.2s-0.4-0.2-0.4-0.2l0.6-1.9
			c0.2,0.2,0.6,0.2,1.1,0.4C223.1,108.2,223.5,108.2,224.1,108.2z"/>
		<path class="st5" d="M237.4,99.6v1.9h-3v8.3h-2.4v-8.3h-3.2v-1.9H237.4z"/>
		<path class="st5" d="M238.9,110.1V99.8h7.1v1.9h-4.7v2.1h4.1v1.9h-4.1v2.6h4.9v1.9L238.9,110.1L238.9,110.1z"/>
		<path class="st5" d="M251.1,99.6c1.5,0,2.8,0.2,3.6,0.9s1.3,1.5,1.3,2.6c0,1.3-0.4,2.1-1.3,2.8c-0.9,0.6-2.1,0.9-3.6,0.9h-0.6v3.4
			h-2.4V99.8c0.4,0,1.1-0.2,1.7-0.2C250.2,99.6,250.7,99.6,251.1,99.6z M251.3,101.5c-0.2,0-0.4,0-0.4,0c-0.2,0-0.2,0-0.4,0v3h0.6
			c0.9,0,1.5-0.2,1.9-0.4c0.4-0.2,0.6-0.6,0.6-1.3c0-0.2,0-0.4-0.2-0.6c0-0.2-0.2-0.4-0.4-0.4c-0.2-0.2-0.4-0.2-0.6-0.2
			C251.9,101.5,251.5,101.5,251.3,101.5z"/>
	</g>
	<g class="st4">
		<path class="st5" d="M238.5,132.5c0,4.7-0.9,8.1-2.6,10.7c-1.7,2.6-4.3,3.6-7.3,3.6c-3,0-5.6-1.3-7.3-3.6c-1.7-2.6-2.6-6-2.6-10.7
			c0-2.4,0.2-4.3,0.6-6.2c0.4-1.9,1.1-3.2,1.9-4.5c0.9-1.3,1.9-2.1,3.2-2.8s2.6-0.9,4.1-0.9c3,0,5.6,1.3,7.3,3.6
			C237.6,124.4,238.5,127.8,238.5,132.5z M232.5,132.5c0-1.3,0-2.6-0.2-3.9s-0.4-2.1-0.6-3c-0.2-0.9-0.6-1.5-1.3-1.9
			c-0.4-0.4-1.1-0.6-1.9-0.6c-0.6,0-1.3,0.2-1.9,0.6c-0.4,0.4-0.9,1.1-1.3,1.9c-0.2,0.9-0.4,1.7-0.6,3c-0.2,1.1-0.2,2.4-0.2,3.9
			c0,1.3,0,2.6,0.2,3.9c0.2,1.1,0.4,2.1,0.6,3c0.2,0.9,0.6,1.5,1.3,1.9c0.4,0.4,1.1,0.6,1.9,0.6c0.6,0,1.3-0.2,1.9-0.6
			c0.6-0.4,0.9-1.1,1.3-1.9c0.4-0.9,0.4-1.7,0.6-3S232.5,133.8,232.5,132.5z"/>
		<path class="st5" d="M242.7,124.6c0.9-0.2,1.5-0.6,2.4-1.1c0.9-0.4,1.7-0.9,2.4-1.3c0.9-0.4,1.5-1.1,2.4-1.5
			c0.6-0.6,1.3-1.1,1.9-1.7h4.1v27.6h-6v-19.9c-0.9,0.4-1.7,1.1-2.6,1.5c-0.9,0.4-1.9,0.9-2.8,1.1L242.7,124.6z"/>
	</g>
</g>
<g>
	
		<radialGradient id="SVGID_3_" cx="607.6659" cy="-75.6374" r="79.8973" gradientTransform="matrix(1 0 0 1 0 197.9605)" gradientUnits="userSpaceOnUse">
		<stop  offset="0" style="stop-color:#A8A8A8"/>
		<stop  offset="0.1552" style="stop-color:#B7B7B7"/>
		<stop  offset="0.488" style="stop-color:#D3D3D3"/>
		<stop  offset="0.7806" style="stop-color:#E4E4E4"/>
		<stop  offset="1" style="stop-color:#EAEAEA"/>
	</radialGradient>
	<circle class="st6" cx="607.7" cy="122.3" r="68.4"/>
	
		<linearGradient id="SVGID_4_" gradientUnits="userSpaceOnUse" x1="540.8661" y1="765.1777" x2="667.078" y2="714.6928" gradientTransform="matrix(0.6982 0.7159 -0.7159 0.6982 747.162 -823.4733)">
		<stop  offset="0" style="stop-color:#03BBF3"/>
		<stop  offset="0.2503" style="stop-color:#02AEF0"/>
		<stop  offset="0.6785" style="stop-color:#009DED"/>
		<stop  offset="1" style="stop-color:#0097EC"/>
	</linearGradient>
	<path class="st7" d="M732.4,133.6l-26,23c-7,6.2-17.9,1.1-17.9-8.3l0.2-11.3H658c-2.3,8.3-6.8,16.2-13.4,22.6
		c-20.2,19.6-52.4,19.2-72-0.9c-19.6-20.2-19.2-52.4,0.9-72c20.2-19.6,52.4-19.2,72,0.9c6,6.2,10,13.4,12.4,21.1h31.3l0.2-13
		c0.2-8.3,10.2-12.6,16.2-6.8l27.7,26.4C738.3,120.4,738.1,128.9,732.4,133.6z"/>
	<g class="st4">
		<path class="st5" d="M592.5,107.6c0.4,0,0.6,0,0.9,0c0.2,0,0.4-0.2,0.4-0.2s0.2-0.2,0.2-0.4s0-0.2,0-0.4c0-0.4-0.2-0.6-0.4-0.9
			s-0.9-0.4-1.7-0.6c-0.4-0.2-0.6-0.2-1.1-0.4c-0.4-0.2-0.6-0.4-0.9-0.6c-0.2-0.2-0.4-0.4-0.6-0.9c-0.2-0.4-0.2-0.6-0.2-1.3
			s0-0.9,0.2-1.3s0.4-0.6,0.9-1.1c0.4-0.2,0.6-0.4,1.3-0.6c0.4-0.2,1.1-0.2,1.5-0.2c0.6,0,1.3,0,1.7,0.2c0.4,0.2,0.9,0.2,1.3,0.4
			l-0.6,1.9c-0.2-0.2-0.6-0.2-1.1-0.4c-0.4-0.2-0.9-0.2-1.3-0.2c-0.6,0-0.9,0-1.3,0.2c-0.2,0.2-0.4,0.4-0.4,0.6c0,0.2,0,0.4,0.2,0.4
			c0.2,0,0.2,0.2,0.4,0.4c0.2,0,0.4,0.2,0.6,0.2c0.2,0,0.4,0.2,0.6,0.2c0.6,0.2,1.1,0.4,1.5,0.6c0.4,0.2,0.6,0.4,1.1,0.6
			c0.4,0.2,0.4,0.6,0.6,0.9c0.2,0.4,0.2,0.9,0.2,1.3c0,1.1-0.4,1.7-1.1,2.3c-0.6,0.4-1.7,0.9-3,0.9c-0.4,0-0.9,0-1.3,0
			c-0.4,0-0.6-0.2-1.1-0.2c-0.2,0-0.4-0.2-0.6-0.2s-0.4-0.2-0.4-0.2l0.6-1.9c0.2,0.2,0.6,0.2,1.1,0.4
			C591.5,107.6,591.9,107.6,592.5,107.6z"/>
		<path class="st5" d="M605.7,99.1v1.9h-3.2v8.3h-2.3V101H597v-1.9H605.7z"/>
		<path class="st5" d="M607.2,109.5V99.3h7v1.9h-4.7v2.1h4v1.9h-4v2.6h4.9v1.9L607.2,109.5L607.2,109.5z"/>
		<path class="st5" d="M619.4,99.1c1.5,0,2.8,0.2,3.6,0.9c0.9,0.6,1.3,1.5,1.3,2.6c0,1.3-0.4,2.1-1.3,2.8s-2.1,0.9-3.6,0.9h-0.6v3.4
			h-2.3V99.3c0.4,0,1.1-0.2,1.7-0.2C618.5,99.1,619,99.1,619.4,99.1z M619.6,101c-0.2,0-0.4,0-0.4,0c-0.2,0-0.2,0-0.4,0v3h0.6
			c0.9,0,1.5-0.2,1.9-0.4c0.4-0.2,0.6-0.6,0.6-1.3c0-0.2,0-0.4-0.2-0.6c0-0.2-0.2-0.4-0.4-0.4c-0.2-0.2-0.4-0.2-0.6-0.2
			C620.2,101,619.8,101,619.6,101z"/>
	</g>
	<g class="st4">
		<path class="st5" d="M606.8,131.9c0,4.7-0.9,8.1-2.6,10.7s-4.3,3.6-7.2,3.6s-5.5-1.3-7.2-3.6c-1.7-2.6-2.6-6-2.6-10.7
			c0-2.3,0.2-4.3,0.6-6.2c0.4-1.9,1.1-3.2,1.9-4.5c0.9-1.3,1.9-2.1,3.2-2.8c1.3-0.6,2.6-0.9,4-0.9c3,0,5.5,1.3,7.2,3.6
			C606,123.8,606.8,127.2,606.8,131.9z M600.8,131.9c0-1.3,0-2.6-0.2-3.8c-0.2-1.3-0.4-2.1-0.6-3c-0.2-0.9-0.6-1.5-1.3-1.9
			c-0.4-0.4-1.1-0.6-1.9-0.6c-0.6,0-1.3,0.2-1.9,0.6c-0.4,0.4-0.9,1.1-1.3,1.9c-0.2,0.9-0.4,1.7-0.6,3c-0.2,1.1-0.2,2.3-0.2,3.8
			c0,1.3,0,2.6,0.2,3.8c0.2,1.1,0.4,2.1,0.6,3c0.2,0.9,0.6,1.5,1.3,1.9c0.4,0.4,1.1,0.6,1.9,0.6c0.6,0,1.3-0.2,1.9-0.6
			s0.9-1.1,1.3-1.9c0.4-0.9,0.4-1.7,0.6-3C600.8,134.5,600.8,133.2,600.8,131.9z"/>
		<path class="st5" d="M627.9,125.5c0,1.1-0.2,1.9-0.6,3c-0.4,0.9-0.9,1.9-1.5,2.8s-1.3,1.7-2.1,2.6c-0.9,0.9-1.5,1.5-2.3,2.3
			c-0.4,0.4-0.9,0.9-1.3,1.3c-0.4,0.4-0.9,0.9-1.3,1.5c-0.4,0.4-0.9,0.9-1.1,1.3c-0.4,0.4-0.6,0.9-0.6,1.1h11.7v4.9h-18.3
			c0-0.2,0-0.6,0-1.1s0-0.9,0-0.9c0-1.3,0.2-2.3,0.6-3.4c0.4-1.1,0.9-2.1,1.7-3c0.6-0.9,1.5-1.7,2.3-2.6c0.9-0.9,1.7-1.5,2.6-2.3
			c0.6-0.6,1.3-1.3,1.7-1.7c0.4-0.4,1.1-1.1,1.5-1.5c0.4-0.4,0.9-1.1,1.1-1.5c0.2-0.4,0.4-1.1,0.4-1.5c0-1.1-0.4-1.9-1.1-2.6
			c-0.6-0.4-1.5-0.6-2.6-0.6c-0.6,0-1.3,0.2-1.9,0.4s-1.3,0.4-1.7,0.9c-0.4,0.2-0.9,0.6-1.3,0.9c-0.4,0.2-0.6,0.6-0.9,0.6l-3-4
			c1.1-1.1,2.6-1.9,4-2.8c1.5-0.6,3.2-1.1,4.9-1.1s3,0.2,4.3,0.6c1.1,0.4,2.1,0.9,2.8,1.5c0.9,0.6,1.3,1.5,1.7,2.6
			C627.7,123.2,627.9,124.2,627.9,125.5z"/>
	</g>
</g>
<g>
	
		<radialGradient id="SVGID_5_" cx="956.1315" cy="-75.4135" r="80.0575" gradientTransform="matrix(1 0 0 1 0 197.9605)" gradientUnits="userSpaceOnUse">
		<stop  offset="0" style="stop-color:#A8A8A8"/>
		<stop  offset="0.1552" style="stop-color:#B7B7B7"/>
		<stop  offset="0.488" style="stop-color:#D3D3D3"/>
		<stop  offset="0.7806" style="stop-color:#E4E4E4"/>
		<stop  offset="1" style="stop-color:#EAEAEA"/>
	</radialGradient>
	<circle class="st8" cx="956.1" cy="122.5" r="68.6"/>
	
		<linearGradient id="SVGID_6_" gradientUnits="userSpaceOnUse" x1="784.181" y1="515.8987" x2="910.7001" y2="465.291" gradientTransform="matrix(0.6982 0.7159 -0.7159 0.6982 747.162 -823.4733)">
		<stop  offset="0" style="stop-color:#F9A700"/>
		<stop  offset="0.2369" style="stop-color:#FAB301"/>
		<stop  offset="0.6727" style="stop-color:#FCC402"/>
		<stop  offset="1" style="stop-color:#FDCA02"/>
	</linearGradient>
	<path class="st9" d="M1081.1,133.9l-26.1,23.1c-7.1,6.2-17.9,1.1-17.9-8.3l0.2-11.3h-30.8c-2.4,8.3-6.8,16.2-13.5,22.6
		c-20.3,19.7-52.6,19.2-72.2-0.9c-19.7-20.3-19.2-52.6,0.9-72.2c20.3-19.7,52.6-19.2,72.2,0.9c6,6.2,10,13.5,12.4,21.2h31.4l0.2-13
		c0.2-8.3,10.3-12.6,16.2-6.8l27.8,26.5C1087.1,120.6,1086.9,129.2,1081.1,133.9z"/>
	<g class="st4">
		<path class="st5" d="M941,107.8c0.4,0,0.6,0,0.9,0c0.2,0,0.4-0.2,0.4-0.2s0.2-0.2,0.2-0.4s0-0.2,0-0.4c0-0.4-0.2-0.6-0.4-0.9
			s-0.9-0.4-1.7-0.6c-0.4-0.2-0.6-0.2-1.1-0.4c-0.4-0.2-0.6-0.4-0.9-0.6c-0.2-0.2-0.4-0.4-0.6-0.9c-0.2-0.4-0.2-0.6-0.2-1.3
			s0-0.9,0.2-1.3c0.2-0.4,0.4-0.6,0.9-1.1c0.4-0.2,0.6-0.4,1.3-0.6c0.4-0.2,1.1-0.2,1.5-0.2c0.6,0,1.3,0,1.7,0.2
			c0.4,0.2,0.9,0.2,1.3,0.4l-0.6,1.9c-0.2-0.2-0.6-0.2-1.1-0.4c-0.4-0.2-0.9-0.2-1.3-0.2c-0.6,0-0.9,0-1.3,0.2
			c-0.2,0.2-0.4,0.4-0.4,0.6c0,0.2,0,0.4,0.2,0.4s0.2,0.2,0.4,0.4c0.2,0.2,0.4,0.2,0.6,0.2s0.4,0.2,0.6,0.2c0.6,0.2,1.1,0.4,1.5,0.6
			c0.4,0.2,0.6,0.4,1.1,0.6c0.2,0.2,0.4,0.6,0.6,0.9c0.2,0.2,0.2,0.9,0.2,1.3c0,1.1-0.4,1.7-1.1,2.4c-0.6,0.4-1.7,0.9-3,0.9
			c-0.4,0-0.9,0-1.3,0c-0.4,0-0.6-0.2-1.1-0.2c-0.4,0-0.4-0.2-0.6-0.2c-0.2,0-0.4-0.2-0.4-0.2l0.6-1.9c0.2,0.2,0.6,0.2,1.1,0.4
			C939.7,107.8,940.3,107.8,941,107.8z"/>
		<path class="st5" d="M954.2,99.3v1.9H951v8.3h-2.4v-8.3h-3.2v-1.9H954.2z"/>
		<path class="st5" d="M955.7,109.7V99.5h7.1v1.9h-4.7v2.1h4.1v1.9h-4.1v2.6h4.9v1.9L955.7,109.7L955.7,109.7z"/>
		<path class="st5" d="M967.9,99.3c1.5,0,2.8,0.2,3.6,0.9c0.9,0.6,1.3,1.5,1.3,2.6c0,1.3-0.4,2.1-1.3,2.8s-2.1,0.9-3.6,0.9h-0.6v3.4
			h-2.4V99.5c0.4,0,1.1-0.2,1.7-0.2S967.5,99.3,967.9,99.3z M968.1,101.2c-0.2,0-0.4,0-0.4,0c-0.2,0-0.2,0-0.4,0v3h0.6
			c0.9,0,1.5-0.2,1.9-0.4c0.4-0.2,0.6-0.6,0.6-1.3c0-0.2,0-0.4-0.2-0.6c0-0.2-0.2-0.4-0.4-0.4c-0.2-0.2-0.4-0.2-0.6-0.2
			C968.7,101.2,968.3,101.2,968.1,101.2z"/>
	</g>
	<g class="st4">
		<path class="st5" d="M955.3,132.2c0,4.7-0.9,8.1-2.6,10.7s-4.3,3.6-7.3,3.6c-3,0-5.6-1.3-7.3-3.6c-1.7-2.6-2.6-6-2.6-10.7
			c0-2.4,0.2-4.3,0.6-6.2s1.1-3.2,1.9-4.5s1.9-2.1,3.2-2.8c1.3-0.6,2.6-0.9,4.1-0.9c3.2,0,5.6,1.3,7.3,3.6
			C954.4,124,955.3,127.5,955.3,132.2z M949.3,132.2c0-1.3,0-2.6-0.2-3.8c-0.2-1.1-0.4-2.1-0.6-3c-0.2-0.9-0.6-1.5-1.3-1.9
			c-0.4-0.4-1.1-0.6-1.9-0.6s-1.3,0.2-1.9,0.6c-0.4,0.4-0.9,1.1-1.3,1.9c-0.4,0.9-0.4,1.7-0.6,3c-0.2,1.1-0.2,2.4-0.2,3.8
			c0,1.3,0,2.6,0.2,3.8c0.2,1.1,0.4,2.1,0.6,3c0.2,0.9,0.6,1.5,1.3,1.9s1.1,0.6,1.9,0.6s1.3-0.2,1.9-0.6s0.9-1.1,1.3-1.9
			c0.2-0.9,0.4-1.7,0.6-3C949.3,134.7,949.3,133.4,949.3,132.2z"/>
		<path class="st5" d="M965.7,146.5c-0.6,0-1.5,0-2.4-0.2c-0.9,0-1.5-0.2-2.4-0.4c-0.6-0.2-1.5-0.4-1.9-0.4s-1.1-0.4-1.5-0.4
			l1.1-4.9c0.6,0.2,1.5,0.6,2.6,0.9c1.1,0.4,2.4,0.4,4.1,0.4c1.9,0,3.2-0.4,4.1-1.1s1.3-1.7,1.3-2.8c0-0.6-0.2-1.3-0.4-1.7
			c-0.2-0.4-0.6-0.9-1.3-1.3c-0.6-0.4-1.1-0.4-1.9-0.6c-0.6-0.2-1.5-0.2-2.4-0.2h-2.4V129h2.6c0.6,0,1.1,0,1.7-0.2s1.1-0.2,1.5-0.6
			c0.4-0.2,0.9-0.6,1.1-1.1s0.4-1.1,0.4-1.7c0-0.4,0-0.9-0.2-1.3s-0.4-0.6-0.9-0.9c-0.4-0.2-0.6-0.4-1.1-0.6
			c-0.4-0.2-0.9-0.2-1.3-0.2c-1.1,0-2.1,0.2-3.2,0.4c-1.1,0.4-1.9,0.9-2.6,1.3l-2.1-4.3c0.4-0.2,0.9-0.6,1.5-0.9
			c0.6-0.2,1.3-0.6,1.9-0.9s1.5-0.4,2.1-0.6c0.9-0.2,1.7-0.2,2.6-0.2c1.7,0,3,0.2,4.3,0.6c1.3,0.4,2.1,0.9,3,1.7s1.3,1.5,1.7,2.6
			c0.4,0.9,0.6,1.9,0.6,3s-0.2,2.1-0.9,3.2c-0.6,1.1-1.5,1.7-2.6,2.4c1.5,0.6,2.6,1.5,3.4,2.6s1.1,2.6,1.1,4.1
			c0,1.3-0.2,2.4-0.6,3.4c-0.4,1.1-1.1,1.9-1.9,2.8s-2.1,1.5-3.4,1.9C969.8,145.8,967.7,146.5,965.7,146.5z"/>
	</g>
</g>
<g>
	
		<radialGradient id="SVGID_7_" cx="1340.3351" cy="-75.6087" r="79.8813" gradientTransform="matrix(1 0 0 1 0 197.9605)" gradientUnits="userSpaceOnUse">
		<stop  offset="0" style="stop-color:#A8A8A8"/>
		<stop  offset="0.1552" style="stop-color:#B7B7B7"/>
		<stop  offset="0.488" style="stop-color:#D3D3D3"/>
		<stop  offset="0.7806" style="stop-color:#E4E4E4"/>
		<stop  offset="1" style="stop-color:#EAEAEA"/>
	</radialGradient>
	<circle class="st10" cx="1340.3" cy="122.4" r="68.4"/>
	
		<linearGradient id="SVGID_8_" gradientUnits="userSpaceOnUse" x1="1052.478" y1="240.6662" x2="1178.6373" y2="190.2027" gradientTransform="matrix(0.6982 0.7159 -0.7159 0.6982 747.162 -823.4733)">
		<stop  offset="0" style="stop-color:#FB067B"/>
		<stop  offset="1.979089e-02" style="stop-color:#FB097D"/>
		<stop  offset="0.3138" style="stop-color:#FD2F94"/>
		<stop  offset="0.5848" style="stop-color:#FE4BA4"/>
		<stop  offset="0.8221" style="stop-color:#FF5CAE"/>
		<stop  offset="1" style="stop-color:#FF62B2"/>
	</linearGradient>
	<path class="st11" d="M1465,133.6l-26,23c-7,6.2-17.9,1.1-17.9-8.3l0.2-11.3h-30.7c-2.3,8.3-6.8,16.2-13.4,22.6
		c-20.2,19.6-52.4,19.2-72-0.9c-19.6-20.2-19.2-52.4,0.9-72c20.2-19.6,52.4-19.2,72,0.9c6,6.2,10,13.4,12.4,21.1h31.3l0.2-13
		c0.2-8.3,10.2-12.6,16.2-6.8l27.7,26.4C1471.1,120.4,1470.7,129,1465,133.6z"/>
	
		<linearGradient id="SVGID_9_" gradientUnits="userSpaceOnUse" x1="1290.4817" y1="-74.9695" x2="1392.3188" y2="-74.9695" gradientTransform="matrix(1 0 0 1 0 197.9605)">
		<stop  offset="0" style="stop-color:#FB067B"/>
		<stop  offset="1.979089e-02" style="stop-color:#FB097D"/>
		<stop  offset="0.3138" style="stop-color:#FD2F94"/>
		<stop  offset="0.5848" style="stop-color:#FE4BA4"/>
		<stop  offset="0.8221" style="stop-color:#FF5CAE"/>
		<stop  offset="1" style="stop-color:#FF62B2"/>
	</linearGradient>
	<circle class="st12" cx="1341.4" cy="123" r="50.9"/>
	
		<linearGradient id="SVGID_10_" gradientUnits="userSpaceOnUse" x1="1051.4166" y1="239.9254" x2="1177.5756" y2="189.4618" gradientTransform="matrix(0.6982 0.7159 -0.7159 0.6982 747.162 -823.4733)">
		<stop  offset="0" style="stop-color:#FB067B"/>
		<stop  offset="1.979089e-02" style="stop-color:#FB097D"/>
		<stop  offset="0.3138" style="stop-color:#FD2F94"/>
		<stop  offset="0.5848" style="stop-color:#FE4BA4"/>
		<stop  offset="0.8221" style="stop-color:#FF5CAE"/>
		<stop  offset="1" style="stop-color:#FF62B2"/>
	</linearGradient>
	<path class="st13" d="M1464.8,132.4l-26,23c-7,6.2-17.9,1.1-17.9-8.3l0.2-11.3h-30.7c-2.3,8.3-6.8,16.2-13.4,22.6
		c-20.2,19.6-52.4,19.2-72-0.9c-19.6-20.2-19.2-52.4,0.9-72c20.2-19.6,52.4-19.2,72,0.9c6,6.2,10,13.4,12.4,21.1h31.3l0.2-13
		c0.2-8.3,10.2-12.6,16.2-6.8l27.7,26.4C1470.7,119.2,1470.5,127.7,1464.8,132.4z"/>
	<g class="st4">
		<path class="st5" d="M1325.2,107.7c0.4,0,0.6,0,0.9,0s0.4-0.2,0.4-0.2s0.2-0.2,0.2-0.4c0-0.2,0-0.2,0-0.4c0-0.4-0.2-0.6-0.4-0.9
			c-0.2-0.2-0.9-0.4-1.7-0.6c-0.4-0.2-0.6-0.2-1.1-0.4c-0.4-0.2-0.6-0.4-0.9-0.6c-0.2-0.2-0.4-0.4-0.6-0.9c-0.2-0.4-0.2-0.6-0.2-1.3
			c0-0.6,0-0.9,0.2-1.3c0.2-0.4,0.4-0.6,0.9-1.1c0.4-0.2,0.6-0.4,1.3-0.6c0.4-0.2,1.1-0.2,1.5-0.2c0.6,0,1.3,0,1.7,0.2
			c0.4,0.2,0.9,0.2,1.3,0.4l-0.6,1.9c-0.2-0.2-0.6-0.2-1.1-0.4c-0.4-0.2-0.9-0.2-1.3-0.2c-0.6,0-0.9,0-1.3,0.2
			c-0.4,0.2-0.4,0.4-0.4,0.6c0,0.2,0,0.4,0.2,0.4s0.2,0.2,0.4,0.4c0.2,0,0.4,0.2,0.6,0.2s0.4,0.2,0.6,0.2c0.6,0.2,1.1,0.4,1.5,0.6
			c0.4,0.2,0.6,0.4,1.1,0.6c0.2,0.2,0.4,0.6,0.6,0.9c0.2,0.4,0.2,0.9,0.2,1.3c0,1.1-0.4,1.7-1.1,2.3c-0.6,0.4-1.7,0.9-3,0.9
			c-0.4,0-0.9,0-1.3,0c-0.4,0-0.6-0.2-1.1-0.2c-0.2,0-0.4-0.2-0.6-0.2s-0.4-0.2-0.4-0.2l0.6-1.9c0.2,0.2,0.6,0.2,1.1,0.4
			C1324.1,107.7,1324.6,107.7,1325.2,107.7z"/>
		<path class="st5" d="M1338.4,99.1v1.9h-3.2v8.3h-2.3V101h-3v-1.9H1338.4z"/>
		<path class="st5" d="M1339.9,109.6V99.3h7v1.9h-4.7v2.1h4v1.9h-4v2.6h4.9v1.9L1339.9,109.6L1339.9,109.6z"/>
		<path class="st5" d="M1352.1,99.1c1.5,0,2.8,0.2,3.6,0.9c0.9,0.6,1.3,1.5,1.3,2.6c0,1.3-0.4,2.1-1.3,2.8c-0.9,0.6-2.1,0.9-3.6,0.9
			h-0.6v3.4h-2.3V99.3c0.4,0,1.1-0.2,1.7-0.2C1351.2,99.1,1351.6,99.1,1352.1,99.1z M1352.3,101c-0.2,0-0.4,0-0.4,0s-0.2,0-0.4,0v3
			h0.6c0.9,0,1.5-0.2,1.9-0.4c0.4-0.2,0.6-0.6,0.6-1.3c0-0.2,0-0.4-0.2-0.6c0-0.2-0.2-0.4-0.4-0.4c-0.2-0.2-0.4-0.2-0.6-0.2
			C1352.9,101,1352.7,101,1352.3,101z"/>
	</g>
	<g class="st4">
		<path class="st5" d="M1339.7,131.9c0,4.7-0.9,8.1-2.6,10.7c-1.7,2.6-4.3,3.6-7.2,3.6c-3.2,0-5.5-1.3-7.2-3.6
			c-1.7-2.3-2.6-6-2.6-10.7c0-2.3,0.2-4.3,0.6-6.2c0.4-1.9,1.1-3.2,1.9-4.5c0.9-1.3,1.9-2.1,3.2-2.8c1.3-0.6,2.6-0.9,4-0.9
			c3,0,5.5,1.3,7.2,3.6C1338.6,123.8,1339.7,127.3,1339.7,131.9z M1333.5,131.9c0-1.3,0-2.6-0.2-3.8c-0.2-1.1-0.4-2.1-0.6-3
			c-0.2-0.9-0.6-1.5-1.3-1.9c-0.4-0.4-1.1-0.6-1.9-0.6c-0.6,0-1.3,0.2-1.9,0.6c-0.4,0.4-0.9,1.1-1.3,1.9c-0.2,0.9-0.4,1.7-0.6,3
			c-0.2,1.1-0.2,2.3-0.2,3.8c0,1.3,0,2.6,0.2,3.8c0.2,1.1,0.4,2.1,0.6,3c0.2,0.9,0.6,1.5,1.3,1.9c0.4,0.4,1.1,0.6,1.9,0.6
			c0.6,0,1.3-0.2,1.9-0.6c0.6-0.4,0.9-1.1,1.3-1.9c0.2-0.9,0.4-1.7,0.6-3S1333.5,133.2,1333.5,131.9z"/>
		<path class="st5" d="M1359.3,118.3v16.4h3v4.9h-3v6.2h-5.8v-6.2h-11.9v-4.3c0.6-1.1,1.3-2.6,2.1-3.8c0.9-1.5,1.9-3,3-4.5
			c1.1-1.5,2.1-3,3.4-4.5c1.3-1.5,2.3-2.8,3.6-4L1359.3,118.3L1359.3,118.3z M1353.5,125.5c-1.1,1.3-2.1,2.8-3.2,4.5
			c-1.1,1.5-2.1,3.2-3,4.9h6.2V125.5z"/>
	</g>
</g>
<g id="Layer_3">
</g>
<g>
	<path d="M40,93.9c-1.2,0-2.4-0.2-3.4-0.6c-1-0.4-1.9-1-2.6-1.8c-0.7-0.8-1.3-1.7-1.7-2.9c-0.4-1.1-0.6-2.4-0.6-3.9
		c0-1.5,0.2-2.8,0.7-3.9c0.4-1.1,1.1-2.1,1.8-2.9c0.8-0.8,1.7-1.4,2.7-1.8c1-0.4,2.1-0.6,3.2-0.6c0.7,0,1.4,0.1,2,0.2
		c0.6,0.1,1.1,0.2,1.5,0.4c0.4,0.1,0.8,0.3,1.1,0.4c0.3,0.1,0.5,0.2,0.6,0.3l-0.7,2c-0.2-0.1-0.4-0.2-0.7-0.3
		c-0.3-0.1-0.6-0.2-1-0.4c-0.4-0.1-0.8-0.2-1.2-0.3c-0.4-0.1-0.9-0.1-1.3-0.1c-0.9,0-1.8,0.2-2.5,0.5c-0.7,0.3-1.4,0.8-1.9,1.4
		s-0.9,1.3-1.2,2.2c-0.3,0.9-0.4,1.8-0.4,2.9c0,1,0.1,2,0.4,2.9c0.2,0.9,0.6,1.6,1.1,2.2c0.5,0.6,1.1,1.1,1.8,1.4
		c0.7,0.3,1.6,0.5,2.6,0.5c1.1,0,2.1-0.1,2.8-0.4c0.7-0.2,1.3-0.4,1.7-0.6l0.6,2c-0.1,0.1-0.3,0.2-0.6,0.3c-0.3,0.1-0.7,0.2-1.1,0.4
		c-0.5,0.1-1,0.2-1.6,0.3C41.4,93.9,40.7,93.9,40,93.9z"/>
	<path d="M48.1,93.5V74.2l2.4-0.4v6.8c0.4-0.2,0.9-0.3,1.4-0.4c0.5-0.1,1-0.1,1.5-0.1c1,0,1.9,0.1,2.6,0.4c0.7,0.3,1.2,0.7,1.7,1.2
		c0.4,0.5,0.7,1.2,0.9,1.9c0.2,0.7,0.3,1.6,0.3,2.5v7.4h-2.4v-6.9c0-0.8-0.1-1.5-0.2-2.1c-0.1-0.6-0.3-1-0.5-1.4
		c-0.3-0.4-0.6-0.6-1-0.8c-0.4-0.2-0.9-0.2-1.6-0.2c-0.3,0-0.5,0-0.8,0.1c-0.3,0-0.5,0.1-0.8,0.1c-0.2,0-0.5,0.1-0.7,0.1
		c-0.2,0.1-0.3,0.1-0.4,0.1v11H48.1z"/>
	<path d="M74.2,86.9c0,1-0.2,2-0.5,2.8c-0.3,0.8-0.7,1.6-1.3,2.2c-0.6,0.6-1.2,1.1-2,1.4c-0.8,0.3-1.6,0.5-2.5,0.5
		c-0.9,0-1.7-0.2-2.5-0.5c-0.8-0.3-1.4-0.8-2-1.4c-0.5-0.6-1-1.3-1.3-2.2c-0.3-0.8-0.5-1.8-0.5-2.8c0-1,0.2-2,0.5-2.8
		c0.3-0.9,0.7-1.6,1.3-2.2c0.5-0.6,1.2-1.1,2-1.4c0.8-0.3,1.6-0.5,2.5-0.5c0.9,0,1.7,0.2,2.5,0.5c0.8,0.3,1.4,0.8,2,1.4
		c0.5,0.6,1,1.3,1.3,2.2C74.1,85,74.2,85.9,74.2,86.9z M71.7,86.9c0-1.5-0.3-2.7-1-3.5c-0.7-0.9-1.6-1.3-2.7-1.3
		c-1.2,0-2.1,0.4-2.7,1.3c-0.7,0.9-1,2.1-1,3.5c0,1.5,0.3,2.7,1,3.5c0.7,0.9,1.6,1.3,2.7,1.3c1.2,0,2.1-0.4,2.7-1.3
		C71.4,89.6,71.7,88.4,71.7,86.9z"/>
	<path d="M89.2,86.9c0,1-0.2,2-0.5,2.8c-0.3,0.8-0.7,1.6-1.3,2.2c-0.6,0.6-1.2,1.1-2,1.4c-0.8,0.3-1.6,0.5-2.5,0.5
		c-0.9,0-1.7-0.2-2.5-0.5c-0.8-0.3-1.4-0.8-2-1.4c-0.5-0.6-1-1.3-1.3-2.2c-0.3-0.8-0.5-1.8-0.5-2.8c0-1,0.2-2,0.5-2.8
		c0.3-0.9,0.7-1.6,1.3-2.2c0.5-0.6,1.2-1.1,2-1.4c0.8-0.3,1.6-0.5,2.5-0.5c0.9,0,1.7,0.2,2.5,0.5c0.8,0.3,1.4,0.8,2,1.4
		c0.5,0.6,1,1.3,1.3,2.2C89,85,89.2,85.9,89.2,86.9z M86.7,86.9c0-1.5-0.3-2.7-1-3.5c-0.7-0.9-1.6-1.3-2.7-1.3
		c-1.2,0-2.1,0.4-2.7,1.3c-0.7,0.9-1,2.1-1,3.5c0,1.5,0.3,2.7,1,3.5c0.7,0.9,1.6,1.3,2.7,1.3c1.2,0,2.1-0.4,2.7-1.3
		C86.4,89.6,86.7,88.4,86.7,86.9z"/>
	<path d="M95.6,91.8c1,0,1.7-0.1,2.1-0.4c0.5-0.3,0.7-0.7,0.7-1.2c0-0.6-0.2-1-0.7-1.4c-0.5-0.3-1.2-0.7-2.3-1.1
		c-0.5-0.2-1-0.4-1.5-0.6c-0.5-0.2-0.9-0.5-1.2-0.7c-0.3-0.3-0.6-0.6-0.8-1c-0.2-0.4-0.3-0.9-0.3-1.5c0-1.2,0.4-2.1,1.3-2.8
		c0.9-0.7,2-1,3.5-1c0.4,0,0.7,0,1.1,0.1c0.4,0,0.7,0.1,1,0.2c0.3,0.1,0.6,0.1,0.9,0.2c0.2,0.1,0.4,0.1,0.6,0.2l-0.4,2
		c-0.3-0.1-0.7-0.3-1.2-0.4c-0.5-0.1-1.2-0.2-2-0.2c-0.7,0-1.2,0.1-1.7,0.4c-0.5,0.3-0.7,0.7-0.7,1.2c0,0.3,0.1,0.5,0.2,0.8
		c0.1,0.2,0.3,0.4,0.5,0.6c0.2,0.2,0.5,0.3,0.9,0.5c0.3,0.2,0.7,0.3,1.2,0.5c0.6,0.2,1.2,0.5,1.7,0.7c0.5,0.2,0.9,0.5,1.3,0.8
		c0.3,0.3,0.6,0.7,0.8,1.1c0.2,0.4,0.3,1,0.3,1.6c0,1.2-0.5,2.1-1.4,2.8c-0.9,0.6-2.2,0.9-3.9,0.9c-1.2,0-2.1-0.1-2.7-0.3
		c-0.7-0.2-1.1-0.3-1.3-0.4l0.4-2c0.3,0.1,0.7,0.3,1.3,0.5C93.8,91.7,94.6,91.8,95.6,91.8z"/>
	<path d="M103.1,87c0-1.2,0.2-2.2,0.5-3.1s0.8-1.6,1.3-2.2c0.6-0.6,1.2-1,1.9-1.3c0.7-0.3,1.5-0.4,2.2-0.4c1.8,0,3.1,0.6,4.1,1.7
		c0.9,1.1,1.4,2.8,1.4,5.1c0,0.1,0,0.2,0,0.4c0,0.2,0,0.3,0,0.4h-9c0.1,1.4,0.5,2.4,1.2,3.1c0.7,0.7,1.8,1.1,3.2,1.1
		c0.8,0,1.5-0.1,2.1-0.2c0.6-0.1,1-0.3,1.3-0.4l0.3,2c-0.3,0.2-0.8,0.3-1.5,0.5c-0.7,0.2-1.5,0.3-2.4,0.3c-1.2,0-2.1-0.2-3-0.5
		c-0.8-0.3-1.5-0.8-2.1-1.4c-0.5-0.6-0.9-1.3-1.2-2.2C103.2,88.9,103.1,88,103.1,87z M112.2,85.7c0-1.1-0.2-1.9-0.8-2.6
		c-0.6-0.7-1.3-1-2.3-1c-0.5,0-1,0.1-1.4,0.3c-0.4,0.2-0.8,0.5-1.1,0.8c-0.3,0.3-0.5,0.7-0.7,1.2c-0.2,0.4-0.3,0.9-0.3,1.3H112.2z"
		/>
</g>
<text transform="matrix(1 0 0 1 393.9502 93.8028)" class="st14 st15 st129">Prepare</text>
<text transform="matrix(1 0 0 1 392.5186 125.4683)"><tspan x="0" y="0" class="st16 st17 st129">Prepare for your </tspan><tspan x="0" y="19.2" class="st16 st17 st129">exam using our </tspan><tspan x="0" y="38.4" class="st16 st17 st129">learning resources.</tspan></text>
<text transform="matrix(1 0 0 1 28.627 125.1197)"><tspan x="0" y="0" class="st16 st17 st129">Choose Your</tspan><tspan x="0" y="19.2" class="st16 st17 st129">Certification type</tspan><tspan x="0" y="38.4" class="st16 st17 st129">(FO,BO,Technical).</tspan></text>
<text transform="matrix(1 0 0 1 761.2505 93.5059)" class="st14 st15 st129">Enroll</text>
<text transform="matrix(1 0 0 1 759.0482 125.4683)"><tspan x="0" y="0" class="st16 st17 st129">Register to take </tspan><tspan x="0" y="19.2" class="st16 st17 st129">your exam.</tspan></text>
<text transform="matrix(1 0 0 1 1107.0562 93.8028)" class="st14 st15 st129">Earn Credits</text>
<text transform="matrix(1 0 0 1 1105.8804 123.6347)"><tspan x="0" y="0" class="st16 st17 st129">Pass the exams and </tspan><tspan x="0" y="19.2" class="st16 st17 st129">earn minimum credits </tspan><tspan x="0" y="38.4" class="st16 st17 st129">required to complete</tspan><tspan x="0" y="57.6" class="st16 st17 st129">the Certification.</tspan></text>
<g>
	<radialGradient id="SVGID_11_" cx="1578.1182" cy="88.8991" r="88.4512" gradientUnits="userSpaceOnUse">
		<stop  offset="3.067480e-02" style="stop-color:#4A94D0"/>
		<stop  offset="1" style="stop-color:#005282"/>
	</radialGradient>
	<path class="st18" d="M1641.9,166.5h-127.3c-7.1,0-13-5.9-13-13L1480,24.2c0-7.1,5.9-13,13-13h170.2c7.1,0,13,5.9,13,13
		l-21.6,129.3C1654.6,160.9,1649,166.5,1641.9,166.5z"/>
	<g>
		<linearGradient id="SVGID_12_" gradientUnits="userSpaceOnUse" x1="1473.7543" y1="174.6795" x2="1504.4108" y2="174.6795">
			<stop  offset="0" style="stop-color:#0B4166"/>
			<stop  offset="1" style="stop-color:#00609C"/>
		</linearGradient>
		<path class="st19" d="M1473.7,154.3c0,0,1,0.5,2.4,1c4.4,1.7,20.8,4.9,28.2,0v38.2c0,0-20.1,4.9-30.6-2.4c0,0,7.3-7.3,10.3-15.9
			C1484,175.3,1481,170.9,1473.7,154.3z"/>
		<g>
			<g>
				<radialGradient id="SVGID_13_" cx="1490.629" cy="184.3954" r="51.9026" gradientUnits="userSpaceOnUse">
					<stop  offset="0" style="stop-color:#D3EEFB"/>
					<stop  offset="1" style="stop-color:#70BBE7"/>
				</radialGradient>
				<path class="st20" d="M1479.1,191.3c-0.2,0-0.7-0.2-1-0.2l-0.5-0.5l0.5-0.5c0.2-0.2,0.5-0.5,0.5-0.7l0.7,0.5c0,0,0,0.2-0.2,0.2
					h0.2L1479.1,191.3z"/>
			</g>
			<g>
				<radialGradient id="SVGID_14_" cx="1490.63" cy="184.3914" r="51.9188" gradientUnits="userSpaceOnUse">
					<stop  offset="0" style="stop-color:#D3EEFB"/>
					<stop  offset="1" style="stop-color:#70BBE7"/>
				</radialGradient>
				<path class="st21" d="M1480.5,188.6l-0.7-0.5c0.2-0.5,0.7-1,1-1.5l0.7,0.5C1481,187.6,1480.8,188.1,1480.5,188.6z M1482.5,185.6
					l-0.7-0.5c0.2-0.5,0.7-1,1-1.5l0.7,0.5C1483.2,184.7,1482.7,185.1,1482.5,185.6z M1484.4,182.7l-0.7-0.5c0.2-0.5,0.5-1,0.7-1.5
					l0.7,0.5C1484.9,181.5,1484.7,182.2,1484.4,182.7z M1485.9,179.5l-1-0.5c0.2-0.5,0.5-1,0.7-1.7l1,0.2
					C1486.4,178.3,1486.2,178.8,1485.9,179.5z"/>
			</g>
			<g>
				<radialGradient id="SVGID_15_" cx="1490.6295" cy="184.3924" r="51.9257" gradientUnits="userSpaceOnUse">
					<stop  offset="0" style="stop-color:#D3EEFB"/>
					<stop  offset="1" style="stop-color:#70BBE7"/>
				</radialGradient>
				<polygon class="st22" points="1487.4,176.1 1486.4,175.8 1486.6,175.1 1486.2,174.4 1487.1,173.9 1487.6,174.9 				"/>
			</g>
			<g>
				<radialGradient id="SVGID_16_" cx="1490.63" cy="184.3878" r="51.91" gradientUnits="userSpaceOnUse">
					<stop  offset="0" style="stop-color:#D3EEFB"/>
					<stop  offset="1" style="stop-color:#70BBE7"/>
				</radialGradient>
				<path class="st23" d="M1485.4,172.9c-0.2-0.5-0.5-1-0.7-1.5l0.7-0.5c0.2,0.7,0.5,1.2,0.7,1.5L1485.4,172.9z M1483.7,170
					c-0.2-0.5-0.5-1-0.7-1.5l1-0.5c0.2,0.5,0.5,1,0.7,1.5L1483.7,170z M1482.2,166.8c-0.2-0.5-0.5-1-0.7-1.5l1-0.5
					c0.2,0.5,0.5,1,0.7,1.5L1482.2,166.8z M1480.5,163.6c-0.2-0.5-0.5-1-0.7-1.5l1-0.5c0.2,0.5,0.5,1,0.7,1.5L1480.5,163.6z"/>
			</g>
			<g>
				<radialGradient id="SVGID_17_" cx="1490.6302" cy="184.3684" r="51.8779" gradientUnits="userSpaceOnUse">
					<stop  offset="0" style="stop-color:#D3EEFB"/>
					<stop  offset="1" style="stop-color:#70BBE7"/>
				</radialGradient>
				<path class="st24" d="M1479.1,160.4l-0.7-1.7l1,0.2c0.2,0,0.5,0.2,1,0.2l-0.2,0.7l0,0l0,0l0,0L1479.1,160.4z"/>
			</g>
			<g>
				<radialGradient id="SVGID_18_" cx="1490.629" cy="184.378" r="51.8923" gradientUnits="userSpaceOnUse">
					<stop  offset="0" style="stop-color:#D3EEFB"/>
					<stop  offset="1" style="stop-color:#70BBE7"/>
				</radialGradient>
				<path class="st25" d="M1493.3,161.4v-1c0.7,0,1.2,0,2,0v1C1494.5,161.4,1493.7,161.4,1493.3,161.4z M1491.3,161.4
					c-0.7,0-1.2,0-2,0v-1c0.7,0,1.2,0,2,0V161.4z M1496.9,161.1v-1c0.7,0,1.2-0.2,1.7-0.2l0.2,1
					C1498.2,161.1,1497.7,161.1,1496.9,161.1z M1487.4,161.1c-0.7,0-1.2-0.2-2-0.2v-1c0.5,0,1.2,0.2,2,0.2V161.1z M1483.7,160.7
					c-0.7,0-1.2-0.2-2-0.2l0.2-1c0.5,0,1.2,0.2,2,0.2L1483.7,160.7z"/>
			</g>
			<g>
				<radialGradient id="SVGID_19_" cx="1490.6302" cy="184.3895" r="51.9149" gradientUnits="userSpaceOnUse">
					<stop  offset="0" style="stop-color:#D3EEFB"/>
					<stop  offset="1" style="stop-color:#70BBE7"/>
				</radialGradient>
				<path class="st26" d="M1502.1,160.9h-1v-0.2h-0.2l-0.2-1c0.2,0,0.5-0.2,1-0.2l0.5-0.2V160.9z"/>
			</g>
			<g>
				<radialGradient id="SVGID_20_" cx="1490.6295" cy="184.3912" r="51.9161" gradientUnits="userSpaceOnUse">
					<stop  offset="0" style="stop-color:#D3EEFB"/>
					<stop  offset="1" style="stop-color:#70BBE7"/>
				</radialGradient>
				<path class="st27" d="M1502.1,188.3h-1v-2h1V188.3z M1502.1,184.4h-1v-2h1V184.4z M1502.1,180.5h-1v-2h1V180.5z M1502.1,176.6
					h-1v-2h1V176.6z M1502.1,172.7h-1v-2h1V172.7z M1502.1,168.7h-1v-2h1V168.7z M1502.1,164.8h-1v-2h1V164.8z"/>
			</g>
			<g>
				<radialGradient id="SVGID_21_" cx="1490.63" cy="184.3924" r="51.9083" gradientUnits="userSpaceOnUse">
					<stop  offset="0" style="stop-color:#D3EEFB"/>
					<stop  offset="1" style="stop-color:#70BBE7"/>
				</radialGradient>
				<path class="st28" d="M1500.6,192v-1c0.2,0,0.5,0,0.5,0v-0.5h1v1.5h-0.5C1501.3,191.8,1501.1,191.8,1500.6,192z"/>
			</g>
			<g>
				<radialGradient id="SVGID_22_" cx="1490.629" cy="184.3897" r="51.9178" gradientUnits="userSpaceOnUse">
					<stop  offset="0" style="stop-color:#D3EEFB"/>
					<stop  offset="1" style="stop-color:#70BBE7"/>
				</radialGradient>
				<path class="st29" d="M1490.3,192.7c-0.5,0-1,0-1.5,0v-1c0.5,0,1,0,1.5,0h0.5v1H1490.3z M1492.8,192.7v-1c0.7,0,1.2,0,2,0v1
					C1494.2,192.7,1493.5,192.7,1492.8,192.7z M1486.9,192.7c-0.7,0-1.2,0-2-0.2v-1c0.7,0,1.2,0.2,2,0.2V192.7z M1496.7,192.5v-1
					c0.7,0,1.2-0.2,2-0.2l0.2,1C1498.2,192.2,1497.4,192.2,1496.7,192.5z M1483,192.2c-0.7-0.2-1.2-0.2-2-0.5l0.2-1
					c0.5,0.2,1.2,0.2,2,0.5L1483,192.2z"/>
			</g>
		</g>
	</g>
	<g>
		
			<linearGradient id="SVGID_23_" gradientUnits="userSpaceOnUse" x1="303.6662" y1="174.6795" x2="334.3257" y2="174.6795" gradientTransform="matrix(-1 0 0 1 1985.9033 0)">
			<stop  offset="0" style="stop-color:#0B4166"/>
			<stop  offset="1" style="stop-color:#00609C"/>
		</linearGradient>
		<path class="st30" d="M1682.3,154.3c0,0-1,0.5-2.4,1c-4.4,1.7-20.8,4.9-28.2,0v38.2c0,0,20.1,4.9,30.6-2.4c0,0-7.3-7.3-10.3-15.9
			C1672,175.3,1675,170.9,1682.3,154.3z"/>
		<g>
			<g>
				<radialGradient id="SVGID_24_" cx="1683.1927" cy="181.8871" r="31.6356" gradientUnits="userSpaceOnUse">
					<stop  offset="0" style="stop-color:#D3EEFB"/>
					<stop  offset="1" style="stop-color:#70BBE7"/>
				</radialGradient>
				<path class="st31" d="M1676.9,191.3c0.2,0,0.7-0.2,1-0.2l0.5-0.2l-0.5-0.5c-0.2-0.2-0.5-0.5-0.5-0.7l-0.7,0.5l0.2,0.2h-0.2
					L1676.9,191.3z"/>
			</g>
			<g>
				<radialGradient id="SVGID_25_" cx="1683.192" cy="181.881" r="31.6557" gradientUnits="userSpaceOnUse">
					<stop  offset="0" style="stop-color:#D3EEFB"/>
					<stop  offset="1" style="stop-color:#70BBE7"/>
				</radialGradient>
				<path class="st32" d="M1674.5,187.1l0.7-0.5c0.2,0.5,0.7,1,1,1.5l-0.7,0.5C1675.2,188.1,1675,187.6,1674.5,187.1z M1672.5,184.2
					l0.7-0.5c0.2,0.5,0.7,1,1,1.5l-0.7,0.5C1673.3,185.1,1672.8,184.7,1672.5,184.2z M1670.8,181l0.7-0.5c0.2,0.5,0.5,1,0.7,1.5
					l-0.7,0.5C1671.3,182.2,1671.1,181.5,1670.8,181z M1669.3,177.8l1-0.2c0.2,0.5,0.5,1,0.7,1.7l-1,0.5
					C1669.8,178.8,1669.6,178.3,1669.3,177.8z"/>
			</g>
			<g>
				<radialGradient id="SVGID_26_" cx="1683.192" cy="181.8815" r="31.6564" gradientUnits="userSpaceOnUse">
					<stop  offset="0" style="stop-color:#D3EEFB"/>
					<stop  offset="1" style="stop-color:#70BBE7"/>
				</radialGradient>
				<polygon class="st33" points="1668.6,176.1 1669.6,175.8 1669.3,175.1 1669.8,174.4 1668.9,173.9 1668.4,174.9 				"/>
			</g>
			<g>
				<radialGradient id="SVGID_27_" cx="1683.1923" cy="181.8778" r="31.6525" gradientUnits="userSpaceOnUse">
					<stop  offset="0" style="stop-color:#D3EEFB"/>
					<stop  offset="1" style="stop-color:#70BBE7"/>
				</radialGradient>
				<path class="st34" d="M1669.8,172.4c0.2-0.5,0.5-1,0.7-1.5l0.7,0.5c-0.2,0.7-0.5,1.2-0.7,1.5L1669.8,172.4z M1671.5,169.5
					c0.2-0.5,0.5-1,0.7-1.5l0.7,0.5c-0.2,0.5-0.5,1-0.7,1.5L1671.5,169.5z M1673,166.3c0.2-0.5,0.5-1,0.7-1.5l1,0.5
					c-0.2,0.5-0.5,1-0.7,1.5L1673,166.3z M1674.5,163.1c0.2-0.5,0.5-1,0.7-1.5l1,0.5c-0.2,0.5-0.5,1-0.7,1.5L1674.5,163.1z"/>
			</g>
			<g>
				<radialGradient id="SVGID_28_" cx="1683.1915" cy="181.8604" r="31.6292" gradientUnits="userSpaceOnUse">
					<stop  offset="0" style="stop-color:#D3EEFB"/>
					<stop  offset="1" style="stop-color:#70BBE7"/>
				</radialGradient>
				<path class="st35" d="M1676.9,160.4l0.7-1.7l-1,0.2c-0.2,0-0.5,0.2-1,0.2l0.2,1l0,0l0,0l0,0L1676.9,160.4z"/>
			</g>
			<g>
				<radialGradient id="SVGID_29_" cx="1683.1915" cy="181.8692" r="31.6336" gradientUnits="userSpaceOnUse">
					<stop  offset="0" style="stop-color:#D3EEFB"/>
					<stop  offset="1" style="stop-color:#70BBE7"/>
				</radialGradient>
				<path class="st36" d="M1661,161.4v-1c0.5,0,1.2,0,2,0v1C1662.2,161.4,1661.5,161.4,1661,161.4z M1664.7,160.4c0.7,0,1.2,0,2,0v1
					c-0.7,0-1.2,0-2,0V160.4z M1657.1,160.9l0.2-1c0.5,0,1.2,0.2,1.7,0.2v1C1658.3,161.1,1657.8,161.1,1657.1,160.9z M1668.4,160.2
					c0.7,0,1.2-0.2,2-0.2v1c-0.7,0-1.2,0.2-2,0.2V160.2z M1672,159.7c0.7,0,1.2-0.2,2-0.2l0.2,1c-0.5,0-1.2,0.2-2,0.2L1672,159.7z"
					/>
			</g>
			<g>
				<radialGradient id="SVGID_30_" cx="1683.191" cy="181.879" r="31.6547" gradientUnits="userSpaceOnUse">
					<stop  offset="0" style="stop-color:#D3EEFB"/>
					<stop  offset="1" style="stop-color:#70BBE7"/>
				</radialGradient>
				<path class="st37" d="M1653.9,160.9h1v-0.2h0.2l0.2-1c-0.2,0-0.5-0.2-1-0.2l-0.5-0.2V160.9z"/>
			</g>
			<g>
				<radialGradient id="SVGID_31_" cx="1683.1913" cy="181.881" r="31.6549" gradientUnits="userSpaceOnUse">
					<stop  offset="0" style="stop-color:#D3EEFB"/>
					<stop  offset="1" style="stop-color:#70BBE7"/>
				</radialGradient>
				<path class="st38" d="M1653.9,186.4h1v2h-1V186.4z M1653.9,182.5h1v2h-1V182.5z M1653.9,178.5h1v2h-1V178.5z M1653.9,174.6h1v2
					h-1V174.6z M1653.9,170.7h1v2h-1V170.7z M1653.9,166.8h1v2h-1V166.8z M1653.9,162.9h1v2h-1V162.9z"/>
			</g>
			<g>
				<radialGradient id="SVGID_32_" cx="1683.1903" cy="181.8832" r="31.6527" gradientUnits="userSpaceOnUse">
					<stop  offset="0" style="stop-color:#D3EEFB"/>
					<stop  offset="1" style="stop-color:#70BBE7"/>
				</radialGradient>
				<path class="st39" d="M1655.4,192l0.2-1c-0.2,0-0.5,0-0.5,0v-0.5h-1.2v1.5h0.5C1654.6,191.8,1654.9,191.8,1655.4,192z"/>
			</g>
			<g>
				<radialGradient id="SVGID_33_" cx="1683.1915" cy="181.8795" r="31.6549" gradientUnits="userSpaceOnUse">
					<stop  offset="0" style="stop-color:#D3EEFB"/>
					<stop  offset="1" style="stop-color:#70BBE7"/>
				</radialGradient>
				<path class="st40" d="M1665.2,192.7v-1h0.5c0.5,0,1,0,1.5,0v1c-0.5,0-1,0-1.5,0H1665.2z M1661.3,192.5v-1c0.7,0,1.2,0,2,0v1
					C1662.5,192.7,1661.8,192.7,1661.3,192.5z M1669.1,191.8c0.7,0,1.2,0,2-0.2v1c-0.7,0-1.2,0.2-2,0.2V191.8z M1657.3,192.2l0.2-1
					c0.5,0,1.2,0.2,2,0.2v1C1658.6,192.2,1657.8,192.2,1657.3,192.2z M1672.8,191.3c0.7,0,1.2-0.2,2-0.5l0.2,1
					c-0.7,0.2-1.2,0.2-2,0.5L1672.8,191.3z"/>
			</g>
		</g>
	</g>
	<path class="st41" d="M1572.6,238.3c-0.7,0-1.7,0-2.7-0.2c-4.9-0.5-8.8-2.2-12.2-5.4c-0.7-0.5-1.5-1.2-2.7-1.7
		c-0.5-0.2-1.2-0.2-1.7-0.5c-0.5,0-0.7,0-1.2,0c-0.7,0-1.5,0-2,0.2c-1.5,0.2-2.9,0.5-4.2,0.5c-3.2,0-6.1-0.7-9.1-2.2
		c-4.4-2-7.6-4.9-9.6-9.3c-0.5-0.7-1-1.7-2-2.4c-0.5-0.2-1-0.7-1.5-1c-1.2-0.5-2.2-0.7-2.9-1c-4.7-0.7-8.6-2.7-11.8-6.1
		c-3.4-3.4-5.4-7.3-5.9-12c0-1-0.5-2-1-2.9c-0.5-0.5-0.7-1-1.2-1.7c-0.7-0.7-1.7-1.5-2.4-2c-4.2-2.2-7.1-5.4-9.1-9.8
		c-2-4.4-2.4-8.6-1.5-13.2c0.2-1,0.2-2,0.2-3.2c0-0.2-0.5-1.5-0.5-1.7c-0.5-1.2-1.2-2-1.7-2.7c-3.2-3.4-4.9-7.6-5.1-12.5
		c-0.5-4.9,0.5-9.1,3.2-13c0.5-0.7,1-1.7,1.2-2.9c0-0.7,0-1.2,0.2-2c0-1.2-0.2-2.2-0.7-2.9c-1.7-4.4-2-8.8-0.5-13.5
		c1.2-4.7,3.7-8.3,7.3-11c0.7-0.5,1.5-1.2,2.2-2.2c0.2-0.5,0.5-1,0.7-1.7c0.2-1.2,0.5-2.2,0.5-3.2c-0.2-4.7,1.2-8.8,3.9-12.7
		c2.7-3.9,6.4-6.6,10.8-7.8c0.7-0.2,1.7-0.7,2.7-1.5c0.5-0.5,1-1,1.5-1.2c0.7-1,1.2-2,1.5-2.7c1.5-4.4,4.2-7.8,8.1-10.5
		c3.7-2.4,7.3-3.7,11.5-3.7c0.5,0,0.7,0,1.2,0c0.2,0,0.2,0,0.5,0c0.7,0,1.7,0,2.7-0.2c0.5-0.2,1.2-0.5,1.7-0.7
		c1-0.7,1.7-1.5,2.2-2.2c2.9-3.7,6.6-6.1,11.3-7.1c2-0.5,3.7-0.7,5.6-0.7c2.7,0,5.1,0.5,7.8,1.7c0.7,0.2,2,0.5,2.9,0.7
		c0.7,0,1.2,0,2-0.2c1.2-0.2,2.2-0.7,2.9-1.2c3.2-2,6.9-2.9,10.5-2.9c0.7,0,1.7,0,2.7,0.2c4.9,0.5,8.8,2.2,12.2,5.4
		c0.7,0.5,1.5,1.2,2.7,1.7c0.5,0.2,1.2,0.2,1.7,0.5c0.5,0,0.7,0,1.2,0c0.7,0,1.5,0,2-0.2c1.5-0.2,2.9-0.5,4.2-0.5
		c3.2,0,6.1,0.7,9.1,2.2c4.4,2,7.6,4.9,9.6,9.1c0.5,0.7,1,1.7,2,2.7c0.5,0.2,1,0.7,1.5,1c1.2,0.5,2.2,0.7,2.9,1
		c4.7,0.7,8.6,2.7,11.8,6.1c3.4,3.4,5.4,7.3,5.9,12c0,1,0.5,2,1,2.9c0.5,0.5,0.7,1,1.2,1.7c0.7,0.7,1.7,1.5,2.4,2
		c4.2,2.2,7.1,5.4,9.1,9.8s2.4,8.6,1.5,13.2c-0.2,1-0.2,2-0.2,3.2c0,0.2,0.5,1.5,0.5,1.7c0.5,1.2,1.2,2,1.7,2.7
		c3.2,3.4,4.9,7.6,5.1,12.5c0.5,4.9-0.5,9.1-3.2,13c-0.5,0.7-1,1.7-1.2,2.9c0,0.7,0,1.2-0.2,2c0,1.2,0.2,2.2,0.7,2.9
		c1.7,4.4,2,8.8,0.5,13.5c-1.2,4.7-3.7,8.3-7.3,11c-0.7,0.5-1.5,1.2-2.2,2.2c-0.2,0.5-0.5,1-0.7,1.5c-0.2,1.2-0.5,2.2-0.5,3.2
		c0.2,4.7-1.2,8.8-3.9,12.7c-2.7,3.9-6.1,6.6-10.8,7.8c-0.7,0.2-1.7,0.7-2.7,1.5c-0.5,0.5-1,1-1.5,1.2c-0.7,1-1.2,2-1.5,2.7
		c-1.5,4.4-4.2,7.8-8.1,10.5c-3.7,2.4-7.3,3.7-11.5,3.7l0,0c-0.5,0-0.7,0-1.2,0c-0.2,0-0.2,0-0.5,0c-0.7,0-1.7,0-2.7,0.2
		c-0.5,0.2-1.2,0.5-1.7,0.7c-1,0.7-1.7,1.5-2.2,2.2c-2.9,3.7-6.6,6.1-11.3,7.1c-2,0.5-3.7,0.7-5.6,0.7c-2.7,0-5.1-0.5-7.6-1.7
		c-0.7-0.2-2-0.5-2.9-0.7c-0.7,0-1.2,0-2,0.2c-1.2,0.2-2.2,0.7-2.9,1.2C1580,237.3,1576.3,238.3,1572.6,238.3z"/>
	<path class="st5" d="M1557.9,58.8c-44.8,11.5-71.8,57.3-60.2,102.1c11.8,45.1,57.3,72,102.1,60.2c44.8-11.5,71.8-57.3,60.2-102.1
		S1602.7,47.3,1557.9,58.8z M1599.5,219.9c-44.1,11.3-89.1-15.2-100.4-59.3s15.2-89.1,59.3-100.4c44.1-11.3,89.1,15.2,100.4,59.3
		C1670.3,163.6,1643.6,208.7,1599.5,219.9z"/>
	<g>
		<g>
			<g>
				<defs>
					<polygon id="SVGID_34_" points="1458,4.9 1460.4,4.9 1458,7.3 					"/>
				</defs>
				<clipPath id="SVGID_35_">
					<use xlink:href="#SVGID_34_"  style="overflow:visible;"/>
				</clipPath>
			</g>
			<g>
				<defs>
					<polygon id="SVGID_36_" points="1458,4.9 1460.4,4.9 1458,7.3 					"/>
				</defs>
				<defs>
					<polygon id="SVGID_37_" points="1453.1,0 1450.6,0 1453.1,-2.4 					"/>
				</defs>
				<clipPath id="SVGID_38_">
					<use xlink:href="#SVGID_36_"  style="overflow:visible;"/>
				</clipPath>
				<clipPath id="SVGID_39_" class="st42">
					<use xlink:href="#SVGID_37_"  style="overflow:visible;"/>
				</clipPath>
				
					<linearGradient id="SVGID_40_" gradientUnits="userSpaceOnUse" x1="377.6284" y1="-876.7878" x2="469.5467" y2="-702.7783" gradientTransform="matrix(-0.1344 1.1462 -1.1893 -0.1394 700.0817 -456.3339)">
					<stop  offset="0" style="stop-color:#FFFFFF"/>
					<stop  offset="5.383337e-02" style="stop-color:#DFDFDF"/>
					<stop  offset="0.1552" style="stop-color:#ACACAC"/>
					<stop  offset="0.2611" style="stop-color:#7F7F7F"/>
					<stop  offset="0.3694" style="stop-color:#575757"/>
					<stop  offset="0.4805" style="stop-color:#383838"/>
					<stop  offset="0.5954" style="stop-color:#1F1F1F"/>
					<stop  offset="0.7159" style="stop-color:#0F0F10"/>
					<stop  offset="0.8453" style="stop-color:#030303"/>
					<stop  offset="1" style="stop-color:#000000"/>
				</linearGradient>
				<path class="st43" d="M1547.4,83.8c45.6,5.4,77.9,46.8,72.5,92.6c-2,17.1-9.1,32.6-19.6,44.6c32.6-8.1,58.3-35.8,62.4-71.3
					c5.4-45.6-26.9-86.9-72.5-92.3c-28.4-3.4-55.1,8.1-72.5,28.4C1527.3,83.5,1537.3,82.8,1547.4,83.8z"/>
			</g>
		</g>
	</g>
	
		<linearGradient id="SVGID_41_" gradientUnits="userSpaceOnUse" x1="377.6284" y1="-876.7878" x2="469.5467" y2="-702.7783" gradientTransform="matrix(-0.1344 1.1462 -1.1893 -0.1394 700.0817 -456.3339)">
		<stop  offset="0" style="stop-color:#F4F5F5"/>
		<stop  offset="7.761335e-02" style="stop-color:#F4F5F5"/>
		<stop  offset="1" style="stop-color:#F4F5F5"/>
	</linearGradient>
	<path class="st44" d="M1547.4,83.8c45.6,5.4,77.9,46.8,72.5,92.6c-2,17.1-9.1,32.6-19.6,44.6c32.6-8.1,58.3-35.8,62.4-71.3
		c5.4-45.6-26.9-86.9-72.5-92.3c-28.4-3.4-55.1,8.1-72.5,28.4C1527.3,83.5,1537.3,82.8,1547.4,83.8z"/>
	<g>
		<radialGradient id="SVGID_42_" cx="1641.847" cy="123.6219" r="129.0641" gradientUnits="userSpaceOnUse">
			<stop  offset="2.453990e-02" style="stop-color:#FFFFFF"/>
			<stop  offset="1" style="stop-color:#B4E3F9"/>
		</radialGradient>
		<polygon class="st45" points="1579,66.1 1574.8,61.5 1571.6,61.7 1575.8,66.4 		"/>
		<radialGradient id="SVGID_43_" cx="1641.8427" cy="123.6214" r="129.059" gradientUnits="userSpaceOnUse">
			<stop  offset="2.453990e-02" style="stop-color:#FFFFFF"/>
			<stop  offset="1" style="stop-color:#B4E3F9"/>
		</radialGradient>
		<polygon class="st46" points="1572.6,66.4 1568,62.2 1564.8,62.7 1569.4,66.9 		"/>
		<radialGradient id="SVGID_44_" cx="1641.8424" cy="123.6219" r="129.0597" gradientUnits="userSpaceOnUse">
			<stop  offset="2.453990e-02" style="stop-color:#FFFFFF"/>
			<stop  offset="1" style="stop-color:#B4E3F9"/>
		</radialGradient>
		<polygon class="st47" points="1566.2,67.1 1561.3,63.4 1558.2,64.2 1563.1,67.8 		"/>
		<radialGradient id="SVGID_45_" cx="1641.8577" cy="123.6232" r="129.0761" gradientUnits="userSpaceOnUse">
			<stop  offset="2.453990e-02" style="stop-color:#FFFFFF"/>
			<stop  offset="1" style="stop-color:#B4E3F9"/>
		</radialGradient>
		<polygon class="st48" points="1559.9,68.6 1554.7,65.1 1551.5,66.1 1556.9,69.6 		"/>
		<radialGradient id="SVGID_46_" cx="1641.8461" cy="123.6229" r="129.0644" gradientUnits="userSpaceOnUse">
			<stop  offset="2.453990e-02" style="stop-color:#FFFFFF"/>
			<stop  offset="1" style="stop-color:#B4E3F9"/>
		</radialGradient>
		<polygon class="st49" points="1553.8,70.5 1548.1,67.6 1545.4,68.8 1550.8,71.8 		"/>
		<radialGradient id="SVGID_47_" cx="1641.8407" cy="123.6219" r="129.0578" gradientUnits="userSpaceOnUse">
			<stop  offset="2.453990e-02" style="stop-color:#FFFFFF"/>
			<stop  offset="1" style="stop-color:#B4E3F9"/>
		</radialGradient>
		<polygon class="st50" points="1547.6,73 1542,70.5 1539.3,72 1544.9,74.4 		"/>
		<radialGradient id="SVGID_48_" cx="1641.8427" cy="123.6217" r="129.0597" gradientUnits="userSpaceOnUse">
			<stop  offset="2.453990e-02" style="stop-color:#FFFFFF"/>
			<stop  offset="1" style="stop-color:#B4E3F9"/>
		</radialGradient>
		<polygon class="st51" points="1542,75.9 1536.1,74.2 1533.4,75.7 1539.3,77.6 		"/>
		<radialGradient id="SVGID_49_" cx="1641.847" cy="123.6222" r="129.0651" gradientUnits="userSpaceOnUse">
			<stop  offset="2.453990e-02" style="stop-color:#FFFFFF"/>
			<stop  offset="1" style="stop-color:#B4E3F9"/>
		</radialGradient>
		<polygon class="st52" points="1536.6,79.3 1530.5,78.1 1528,80.1 1534.2,81.3 		"/>
		<radialGradient id="SVGID_50_" cx="1641.847" cy="123.6217" r="129.0641" gradientUnits="userSpaceOnUse">
			<stop  offset="2.453990e-02" style="stop-color:#FFFFFF"/>
			<stop  offset="1" style="stop-color:#B4E3F9"/>
		</radialGradient>
		<polygon class="st53" points="1525.3,82.5 1522.9,84.7 1529.3,85.5 1531.5,83.3 		"/>
		<radialGradient id="SVGID_51_" cx="1641.8336" cy="123.6224" r="129.0504" gradientUnits="userSpaceOnUse">
			<stop  offset="2.453990e-02" style="stop-color:#FFFFFF"/>
			<stop  offset="1" style="stop-color:#B4E3F9"/>
		</radialGradient>
		<polygon class="st54" points="1520.4,87.4 1518.5,89.9 1524.6,90.1 1526.8,87.7 		"/>
		<radialGradient id="SVGID_52_" cx="1641.8473" cy="123.6224" r="129.0644" gradientUnits="userSpaceOnUse">
			<stop  offset="2.453990e-02" style="stop-color:#FFFFFF"/>
			<stop  offset="1" style="stop-color:#B4E3F9"/>
		</radialGradient>
		<polygon class="st55" points="1516,92.8 1514.3,95.3 1520.4,95 1522.4,92.6 		"/>
		<radialGradient id="SVGID_53_" cx="1641.8562" cy="123.6212" r="129.0727" gradientUnits="userSpaceOnUse">
			<stop  offset="2.453990e-02" style="stop-color:#FFFFFF"/>
			<stop  offset="1" style="stop-color:#B4E3F9"/>
		</radialGradient>
		<polygon class="st56" points="1512.4,98.5 1510.6,101.1 1516.8,100.2 1518.5,97.7 		"/>
		<radialGradient id="SVGID_54_" cx="1641.8385" cy="123.6241" r="129.056" gradientUnits="userSpaceOnUse">
			<stop  offset="2.453990e-02" style="stop-color:#FFFFFF"/>
			<stop  offset="1" style="stop-color:#B4E3F9"/>
		</radialGradient>
		<polygon class="st57" points="1514.8,103.1 1508.9,104.3 1507.5,107.3 1513.6,105.8 		"/>
		<radialGradient id="SVGID_55_" cx="1641.8679" cy="123.6219" r="129.0842" gradientUnits="userSpaceOnUse">
			<stop  offset="2.453990e-02" style="stop-color:#FFFFFF"/>
			<stop  offset="1" style="stop-color:#B4E3F9"/>
		</radialGradient>
		<polygon class="st58" points="1511.9,108.7 1506,110.7 1504.8,113.4 1510.6,111.7 		"/>
		<radialGradient id="SVGID_56_" cx="1641.8492" cy="123.6207" r="129.0666" gradientUnits="userSpaceOnUse">
			<stop  offset="2.453990e-02" style="stop-color:#FFFFFF"/>
			<stop  offset="1" style="stop-color:#B4E3F9"/>
		</radialGradient>
		<polygon class="st59" points="1509.4,114.6 1503.8,117.1 1502.8,120 1508.4,117.8 		"/>
		<radialGradient id="SVGID_57_" cx="1641.8579" cy="123.6224" r="129.0744" gradientUnits="userSpaceOnUse">
			<stop  offset="2.453990e-02" style="stop-color:#FFFFFF"/>
			<stop  offset="1" style="stop-color:#B4E3F9"/>
		</radialGradient>
		<polygon class="st60" points="1507.5,121 1502.1,123.7 1501.3,126.9 1507,123.9 		"/>
		<radialGradient id="SVGID_58_" cx="1641.8611" cy="123.6224" r="129.0778" gradientUnits="userSpaceOnUse">
			<stop  offset="2.453990e-02" style="stop-color:#FFFFFF"/>
			<stop  offset="1" style="stop-color:#B4E3F9"/>
		</radialGradient>
		<polygon class="st61" points="1506.2,127.1 1500.9,130.5 1500.4,133.7 1505.7,130.3 		"/>
		<radialGradient id="SVGID_59_" cx="1641.8353" cy="123.6222" r="129.0533" gradientUnits="userSpaceOnUse">
			<stop  offset="2.453990e-02" style="stop-color:#FFFFFF"/>
			<stop  offset="1" style="stop-color:#B4E3F9"/>
		</radialGradient>
		<polygon class="st62" points="1505.3,133.5 1500.4,137.4 1500.1,140.6 1505.3,136.7 		"/>
		<radialGradient id="SVGID_60_" cx="1641.8789" cy="123.6219" r="129.093" gradientUnits="userSpaceOnUse">
			<stop  offset="2.453990e-02" style="stop-color:#FFFFFF"/>
			<stop  offset="1" style="stop-color:#B4E3F9"/>
		</radialGradient>
		<polygon class="st63" points="1505,140.1 1500.4,144.2 1500.6,147.4 1505.3,143 		"/>
		<radialGradient id="SVGID_61_" cx="1641.8813" cy="123.6236" r="129.0942" gradientUnits="userSpaceOnUse">
			<stop  offset="2.453990e-02" style="stop-color:#FFFFFF"/>
			<stop  offset="1" style="stop-color:#B4E3F9"/>
		</radialGradient>
		<polygon class="st64" points="1505.3,146.5 1501.1,151.1 1501.6,154 1505.7,149.6 		"/>
		<radialGradient id="SVGID_62_" cx="1641.8461" cy="123.6229" r="129.0627" gradientUnits="userSpaceOnUse">
			<stop  offset="2.453990e-02" style="stop-color:#FFFFFF"/>
			<stop  offset="1" style="stop-color:#B4E3F9"/>
		</radialGradient>
		<polygon class="st65" points="1506,152.8 1502.3,157.7 1503.1,160.9 1506.7,156 		"/>
		<radialGradient id="SVGID_63_" cx="1641.8633" cy="123.6195" r="129.0788" gradientUnits="userSpaceOnUse">
			<stop  offset="2.453990e-02" style="stop-color:#FFFFFF"/>
			<stop  offset="1" style="stop-color:#B4E3F9"/>
		</radialGradient>
		<polygon class="st66" points="1507.5,159.2 1504,164.3 1505,167.3 1508.4,162.1 		"/>
		<radialGradient id="SVGID_64_" cx="1641.8143" cy="123.6303" r="129.0335" gradientUnits="userSpaceOnUse">
			<stop  offset="2.453990e-02" style="stop-color:#FFFFFF"/>
			<stop  offset="1" style="stop-color:#B4E3F9"/>
		</radialGradient>
		<polygon class="st67" points="1509.4,165.3 1506.5,170.7 1507.7,173.6 1510.6,168.2 		"/>
		<radialGradient id="SVGID_65_" cx="1641.8475" cy="123.6214" r="129.0646" gradientUnits="userSpaceOnUse">
			<stop  offset="2.453990e-02" style="stop-color:#FFFFFF"/>
			<stop  offset="1" style="stop-color:#B4E3F9"/>
		</radialGradient>
		<polygon class="st68" points="1511.9,171.2 1509.4,177.1 1510.9,179.8 1513.3,174.1 		"/>
		<radialGradient id="SVGID_66_" cx="1641.8496" cy="123.6112" r="129.0702" gradientUnits="userSpaceOnUse">
			<stop  offset="2.453990e-02" style="stop-color:#FFFFFF"/>
			<stop  offset="1" style="stop-color:#B4E3F9"/>
		</radialGradient>
		<polygon class="st69" points="1513.1,182.9 1514.6,185.6 1516.5,179.5 1514.8,177.1 		"/>
		<radialGradient id="SVGID_67_" cx="1641.8674" cy="123.6303" r="129.0771" gradientUnits="userSpaceOnUse">
			<stop  offset="2.453990e-02" style="stop-color:#FFFFFF"/>
			<stop  offset="1" style="stop-color:#B4E3F9"/>
		</radialGradient>
		<polygon class="st70" points="1517,188.6 1519,191 1520.2,184.9 1518.2,182.5 		"/>
		<radialGradient id="SVGID_68_" cx="1641.8496" cy="123.6303" r="129.0619" gradientUnits="userSpaceOnUse">
			<stop  offset="2.453990e-02" style="stop-color:#FFFFFF"/>
			<stop  offset="1" style="stop-color:#B4E3F9"/>
		</radialGradient>
		<polygon class="st71" points="1521.4,193.7 1523.6,195.9 1524.4,189.8 1522.2,187.6 		"/>
		<radialGradient id="SVGID_69_" cx="1641.8265" cy="123.6187" r="129.0502" gradientUnits="userSpaceOnUse">
			<stop  offset="2.453990e-02" style="stop-color:#FFFFFF"/>
			<stop  offset="1" style="stop-color:#B4E3F9"/>
		</radialGradient>
		<polygon class="st72" points="1526.3,198.6 1528.8,200.6 1529,194.5 1526.6,192.2 		"/>
		<radialGradient id="SVGID_70_" cx="1641.8501" cy="123.6126" r="129.0724" gradientUnits="userSpaceOnUse">
			<stop  offset="2.453990e-02" style="stop-color:#FFFFFF"/>
			<stop  offset="1" style="stop-color:#B4E3F9"/>
		</radialGradient>
		<polygon class="st73" points="1531.7,202.8 1534.2,204.7 1533.9,198.6 1531.5,196.7 		"/>
		<radialGradient id="SVGID_71_" cx="1641.8618" cy="123.6202" r="129.0764" gradientUnits="userSpaceOnUse">
			<stop  offset="2.453990e-02" style="stop-color:#FFFFFF"/>
			<stop  offset="1" style="stop-color:#B4E3F9"/>
		</radialGradient>
		<polygon class="st74" points="1536.6,200.6 1537.3,206.7 1540,208.4 1539.1,202.3 		"/>
		<radialGradient id="SVGID_72_" cx="1641.8448" cy="123.6403" r="129.0499" gradientUnits="userSpaceOnUse">
			<stop  offset="2.453990e-02" style="stop-color:#FFFFFF"/>
			<stop  offset="1" style="stop-color:#B4E3F9"/>
		</radialGradient>
		<polygon class="st75" points="1542,204 1543.2,210.1 1546.2,211.6 1544.7,205.5 		"/>
		<radialGradient id="SVGID_73_" cx="1641.8378" cy="123.6087" r="129.0678" gradientUnits="userSpaceOnUse">
			<stop  offset="2.453990e-02" style="stop-color:#FFFFFF"/>
			<stop  offset="1" style="stop-color:#B4E3F9"/>
		</radialGradient>
		<polygon class="st76" points="1547.6,206.9 1549.6,213.1 1552.3,214.3 1550.6,208.2 		"/>
		<radialGradient id="SVGID_74_" cx="1641.8485" cy="123.6222" r="129.0653" gradientUnits="userSpaceOnUse">
			<stop  offset="2.453990e-02" style="stop-color:#FFFFFF"/>
			<stop  offset="1" style="stop-color:#B4E3F9"/>
		</radialGradient>
		<polygon class="st77" points="1553.5,209.6 1556,215.3 1558.9,216.2 1556.7,210.4 		"/>
		<radialGradient id="SVGID_75_" cx="1641.84" cy="123.6146" r="129.067" gradientUnits="userSpaceOnUse">
			<stop  offset="2.453990e-02" style="stop-color:#FFFFFF"/>
			<stop  offset="1" style="stop-color:#B4E3F9"/>
		</radialGradient>
		<polygon class="st78" points="1559.9,211.6 1562.6,217 1565.8,217.7 1562.8,212.1 		"/>
		<radialGradient id="SVGID_76_" cx="1641.8466" cy="123.5962" r="129.0881" gradientUnits="userSpaceOnUse">
			<stop  offset="2.453990e-02" style="stop-color:#FFFFFF"/>
			<stop  offset="1" style="stop-color:#B4E3F9"/>
		</radialGradient>
		<polygon class="st79" points="1566,212.8 1569.4,218.2 1572.6,218.5 1569.2,213.3 		"/>
		<radialGradient id="SVGID_77_" cx="1641.8424" cy="123.6425" r="129.0421" gradientUnits="userSpaceOnUse">
			<stop  offset="2.453990e-02" style="stop-color:#FFFFFF"/>
			<stop  offset="1" style="stop-color:#B4E3F9"/>
		</radialGradient>
		<polygon class="st80" points="1572.4,213.8 1576.3,218.7 1579.5,218.7 1575.5,213.8 		"/>
		<radialGradient id="SVGID_78_" cx="1641.839" cy="123.6543" r="129.0262" gradientUnits="userSpaceOnUse">
			<stop  offset="2.453990e-02" style="stop-color:#FFFFFF"/>
			<stop  offset="1" style="stop-color:#B4E3F9"/>
		</radialGradient>
		<polygon class="st81" points="1579,214 1583.1,218.7 1586.3,218.5 1581.9,213.8 		"/>
		<radialGradient id="SVGID_79_" cx="1641.851" cy="123.6445" r="129.0411" gradientUnits="userSpaceOnUse">
			<stop  offset="2.453990e-02" style="stop-color:#FFFFFF"/>
			<stop  offset="1" style="stop-color:#B4E3F9"/>
		</radialGradient>
		<polygon class="st82" points="1585.3,213.8 1590,218 1592.9,217.5 1588.5,213.3 		"/>
		<radialGradient id="SVGID_80_" cx="1641.8451" cy="123.6124" r="129.0744" gradientUnits="userSpaceOnUse">
			<stop  offset="2.453990e-02" style="stop-color:#FFFFFF"/>
			<stop  offset="1" style="stop-color:#B4E3F9"/>
		</radialGradient>
		<polygon class="st83" points="1591.7,212.8 1596.6,216.7 1599.8,216 1594.9,212.3 		"/>
		<radialGradient id="SVGID_81_" cx="1641.8503" cy="123.6543" r="129.0254" gradientUnits="userSpaceOnUse">
			<stop  offset="2.453990e-02" style="stop-color:#FFFFFF"/>
			<stop  offset="1" style="stop-color:#B4E3F9"/>
		</radialGradient>
		<polygon class="st84" points="1598.1,211.6 1603.2,214.8 1606.2,213.8 1601,210.6 		"/>
		<radialGradient id="SVGID_82_" cx="1641.8488" cy="123.6312" r="129.0521" gradientUnits="userSpaceOnUse">
			<stop  offset="2.453990e-02" style="stop-color:#FFFFFF"/>
			<stop  offset="1" style="stop-color:#B4E3F9"/>
		</radialGradient>
		<polygon class="st85" points="1604.2,209.6 1609.6,212.3 1612.5,211.3 1607.1,208.4 		"/>
		<radialGradient id="SVGID_83_" cx="1641.848" cy="123.6116" r="129.0803" gradientUnits="userSpaceOnUse">
			<stop  offset="2.453990e-02" style="stop-color:#FFFFFF"/>
			<stop  offset="1" style="stop-color:#B4E3F9"/>
		</radialGradient>
		<polygon class="st86" points="1610.1,207.2 1616,209.4 1618.6,207.9 1613,205.7 		"/>
		<radialGradient id="SVGID_84_" cx="1641.8485" cy="123.6227" r="129.0646" gradientUnits="userSpaceOnUse">
			<stop  offset="2.453990e-02" style="stop-color:#FFFFFF"/>
			<stop  offset="1" style="stop-color:#B4E3F9"/>
		</radialGradient>
		<polygon class="st87" points="1616,204.2 1621.8,206 1624.5,204.2 1618.4,202.5 		"/>
		<radialGradient id="SVGID_85_" cx="1641.8458" cy="123.5827" r="129.129" gradientUnits="userSpaceOnUse">
			<stop  offset="2.453990e-02" style="stop-color:#FFFFFF"/>
			<stop  offset="1" style="stop-color:#B4E3F9"/>
		</radialGradient>
		<polygon class="st88" points="1621.3,200.6 1627.5,202 1629.9,200.1 1623.8,198.9 		"/>
		<radialGradient id="SVGID_86_" cx="1641.8473" cy="123.5977" r="129.1082" gradientUnits="userSpaceOnUse">
			<stop  offset="2.453990e-02" style="stop-color:#FFFFFF"/>
			<stop  offset="1" style="stop-color:#B4E3F9"/>
		</radialGradient>
		<polygon class="st89" points="1626.5,196.7 1632.6,197.6 1634.8,195.4 1628.7,194.7 		"/>
		<radialGradient id="SVGID_87_" cx="1641.8483" cy="123.6087" r="129.0893" gradientUnits="userSpaceOnUse">
			<stop  offset="2.453990e-02" style="stop-color:#FFFFFF"/>
			<stop  offset="1" style="stop-color:#B4E3F9"/>
		</radialGradient>
		<polygon class="st90" points="1631.1,192.5 1637.5,192.7 1639.5,190.3 1633.3,190 		"/>
		<radialGradient id="SVGID_88_" cx="1641.8478" cy="123.5881" r="129.1349" gradientUnits="userSpaceOnUse">
			<stop  offset="2.453990e-02" style="stop-color:#FFFFFF"/>
			<stop  offset="1" style="stop-color:#B4E3F9"/>
		</radialGradient>
		<polygon class="st91" points="1635.5,187.6 1641.7,187.3 1643.6,184.9 1637.5,185.1 		"/>
		<radialGradient id="SVGID_89_" cx="1641.8475" cy="123.6491" r="129.0044" gradientUnits="userSpaceOnUse">
			<stop  offset="2.453990e-02" style="stop-color:#FFFFFF"/>
			<stop  offset="1" style="stop-color:#B4E3F9"/>
		</radialGradient>
		<polygon class="st92" points="1639.5,182.5 1645.6,181.7 1647.3,179 1641.2,179.8 		"/>
		<radialGradient id="SVGID_90_" cx="1641.8468" cy="123.6026" r="129.1126" gradientUnits="userSpaceOnUse">
			<stop  offset="2.453990e-02" style="stop-color:#FFFFFF"/>
			<stop  offset="1" style="stop-color:#B4E3F9"/>
		</radialGradient>
		<polygon class="st93" points="1642.9,177.1 1649,175.8 1650.5,172.9 1644.4,174.4 		"/>
		<radialGradient id="SVGID_91_" cx="1641.8478" cy="123.6185" r="129.0749" gradientUnits="userSpaceOnUse">
			<stop  offset="2.453990e-02" style="stop-color:#FFFFFF"/>
			<stop  offset="1" style="stop-color:#B4E3F9"/>
		</radialGradient>
		<polygon class="st94" points="1645.8,171.4 1652,169.5 1653.2,166.5 1647.1,168.5 		"/>
		<radialGradient id="SVGID_92_" cx="1641.8468" cy="123.6254" r="129.0551" gradientUnits="userSpaceOnUse">
			<stop  offset="2.453990e-02" style="stop-color:#FFFFFF"/>
			<stop  offset="1" style="stop-color:#B4E3F9"/>
		</radialGradient>
		<polygon class="st95" points="1648.5,165.3 1654.2,163.1 1655.1,160.2 1649.3,162.4 		"/>
		<radialGradient id="SVGID_93_" cx="1641.8483" cy="123.619" r="129.0717" gradientUnits="userSpaceOnUse">
			<stop  offset="2.453990e-02" style="stop-color:#FFFFFF"/>
			<stop  offset="1" style="stop-color:#B4E3F9"/>
		</radialGradient>
		<polygon class="st96" points="1650.2,159.2 1655.9,156.5 1656.6,153.3 1651,156.2 		"/>
		<radialGradient id="SVGID_94_" cx="1641.8478" cy="123.6239" r="129.056" gradientUnits="userSpaceOnUse">
			<stop  offset="2.453990e-02" style="stop-color:#FFFFFF"/>
			<stop  offset="1" style="stop-color:#B4E3F9"/>
		</radialGradient>
		<polygon class="st97" points="1651.7,153.1 1657.1,149.6 1657.3,146.5 1652.2,149.9 		"/>
		<radialGradient id="SVGID_95_" cx="1641.8478" cy="123.6217" r="129.0695" gradientUnits="userSpaceOnUse">
			<stop  offset="2.453990e-02" style="stop-color:#FFFFFF"/>
			<stop  offset="1" style="stop-color:#B4E3F9"/>
		</radialGradient>
		<polygon class="st98" points="1652.7,143.5 1652.7,146.5 1657.6,142.8 1657.6,139.6 		"/>
		<radialGradient id="SVGID_96_" cx="1641.8488" cy="123.6224" r="129.0595" gradientUnits="userSpaceOnUse">
			<stop  offset="2.453990e-02" style="stop-color:#FFFFFF"/>
			<stop  offset="1" style="stop-color:#B4E3F9"/>
		</radialGradient>
		<polygon class="st99" points="1652.9,140.1 1657.6,135.9 1657.3,132.7 1652.7,136.9 		"/>
		<radialGradient id="SVGID_97_" cx="1641.8473" cy="123.6224" r="129.0602" gradientUnits="userSpaceOnUse">
			<stop  offset="2.453990e-02" style="stop-color:#FFFFFF"/>
			<stop  offset="1" style="stop-color:#B4E3F9"/>
		</radialGradient>
		<polygon class="st100" points="1652.7,133.7 1656.9,129.1 1656.4,125.9 1652.2,130.5 		"/>
		<radialGradient id="SVGID_98_" cx="1641.8461" cy="123.6214" r="129.0764" gradientUnits="userSpaceOnUse">
			<stop  offset="2.453990e-02" style="stop-color:#FFFFFF"/>
			<stop  offset="1" style="stop-color:#B4E3F9"/>
		</radialGradient>
		<polygon class="st101" points="1651.7,127.3 1655.6,122.5 1654.9,119.3 1651.2,124.2 		"/>
		<radialGradient id="SVGID_99_" cx="1641.849" cy="123.6222" r="129.0475" gradientUnits="userSpaceOnUse">
			<stop  offset="2.453990e-02" style="stop-color:#FFFFFF"/>
			<stop  offset="1" style="stop-color:#B4E3F9"/>
		</radialGradient>
		<polygon class="st102" points="1650.5,121 1653.7,115.8 1652.7,112.7 1649.5,118 		"/>
		<radialGradient id="SVGID_100_" cx="1641.8458" cy="123.6207" r="129.07" gradientUnits="userSpaceOnUse">
			<stop  offset="2.453990e-02" style="stop-color:#FFFFFF"/>
			<stop  offset="1" style="stop-color:#B4E3F9"/>
		</radialGradient>
		<polygon class="st103" points="1648.5,114.9 1651.2,109.2 1650.2,106.5 1647.3,111.9 		"/>
		<radialGradient id="SVGID_101_" cx="1641.8473" cy="123.6236" r="129.0754" gradientUnits="userSpaceOnUse">
			<stop  offset="2.453990e-02" style="stop-color:#FFFFFF"/>
			<stop  offset="1" style="stop-color:#B4E3F9"/>
		</radialGradient>
		<polygon class="st104" points="1646.1,108.7 1648.3,103.1 1646.8,100.4 1644.6,106 		"/>
		<radialGradient id="SVGID_102_" cx="1641.8473" cy="123.6217" r="129.0627" gradientUnits="userSpaceOnUse">
			<stop  offset="2.453990e-02" style="stop-color:#FFFFFF"/>
			<stop  offset="1" style="stop-color:#B4E3F9"/>
		</radialGradient>
		<polygon class="st105" points="1644.9,97.2 1643.1,94.5 1641.4,100.4 1642.9,103.1 		"/>
		<radialGradient id="SVGID_103_" cx="1641.847" cy="123.6222" r="129.0653" gradientUnits="userSpaceOnUse">
			<stop  offset="2.453990e-02" style="stop-color:#FFFFFF"/>
			<stop  offset="1" style="stop-color:#B4E3F9"/>
		</radialGradient>
		<polygon class="st106" points="1640.9,91.6 1639,89.1 1637.8,95.3 1639.5,97.7 		"/>
		<radialGradient id="SVGID_104_" cx="1641.847" cy="123.6219" r="129.0639" gradientUnits="userSpaceOnUse">
			<stop  offset="2.453990e-02" style="stop-color:#FFFFFF"/>
			<stop  offset="1" style="stop-color:#B4E3F9"/>
		</radialGradient>
		<polygon class="st107" points="1636.5,86.5 1634.3,84 1633.6,90.4 1635.5,92.6 		"/>
		<radialGradient id="SVGID_105_" cx="1641.847" cy="123.6217" r="129.0639" gradientUnits="userSpaceOnUse">
			<stop  offset="2.453990e-02" style="stop-color:#FFFFFF"/>
			<stop  offset="1" style="stop-color:#B4E3F9"/>
		</radialGradient>
		<polygon class="st108" points="1631.6,81.6 1629.2,79.6 1628.9,85.7 1631.4,87.9 		"/>
		<radialGradient id="SVGID_106_" cx="1641.8441" cy="123.6217" r="129.0609" gradientUnits="userSpaceOnUse">
			<stop  offset="2.453990e-02" style="stop-color:#FFFFFF"/>
			<stop  offset="1" style="stop-color:#B4E3F9"/>
		</radialGradient>
		<polygon class="st109" points="1626.2,77.1 1623.8,75.4 1624,81.6 1626.5,83.5 		"/>
		<radialGradient id="SVGID_107_" cx="1641.8436" cy="123.6227" r="129.0622" gradientUnits="userSpaceOnUse">
			<stop  offset="2.453990e-02" style="stop-color:#FFFFFF"/>
			<stop  offset="1" style="stop-color:#B4E3F9"/>
		</radialGradient>
		<polygon class="st110" points="1621.3,79.6 1620.6,73.5 1617.9,71.8 1618.6,77.9 		"/>
		<radialGradient id="SVGID_108_" cx="1641.8405" cy="123.6222" r="129.044" gradientUnits="userSpaceOnUse">
			<stop  offset="2.453990e-02" style="stop-color:#FFFFFF"/>
			<stop  offset="1" style="stop-color:#B4E3F9"/>
		</radialGradient>
		<polygon class="st111" points="1616,75.9 1614.7,70 1611.8,68.6 1613.3,74.7 		"/>
		<radialGradient id="SVGID_109_" cx="1641.855" cy="123.6219" r="129.0724" gradientUnits="userSpaceOnUse">
			<stop  offset="2.453990e-02" style="stop-color:#FFFFFF"/>
			<stop  offset="1" style="stop-color:#B4E3F9"/>
		</radialGradient>
		<polygon class="st112" points="1610.3,73 1608.4,67.1 1605.4,65.9 1607.4,71.8 		"/>
		<radialGradient id="SVGID_110_" cx="1641.8434" cy="123.6224" r="129.0612" gradientUnits="userSpaceOnUse">
			<stop  offset="2.453990e-02" style="stop-color:#FFFFFF"/>
			<stop  offset="1" style="stop-color:#B4E3F9"/>
		</radialGradient>
		<polygon class="st113" points="1604.2,70.5 1602,64.9 1598.8,63.9 1601.3,69.6 		"/>
		<radialGradient id="SVGID_111_" cx="1641.8518" cy="123.6229" r="129.0702" gradientUnits="userSpaceOnUse">
			<stop  offset="2.453990e-02" style="stop-color:#FFFFFF"/>
			<stop  offset="1" style="stop-color:#B4E3F9"/>
		</radialGradient>
		<polygon class="st114" points="1598.1,68.6 1595.4,63.2 1592.2,62.4 1595.1,68.1 		"/>
		<radialGradient id="SVGID_112_" cx="1641.8478" cy="123.6224" r="129.0646" gradientUnits="userSpaceOnUse">
			<stop  offset="2.453990e-02" style="stop-color:#FFFFFF"/>
			<stop  offset="1" style="stop-color:#B4E3F9"/>
		</radialGradient>
		<polygon class="st115" points="1592,67.3 1588.5,62 1585.3,61.5 1588.8,66.9 		"/>
		<radialGradient id="SVGID_113_" cx="1641.8525" cy="123.6224" r="129.07" gradientUnits="userSpaceOnUse">
			<stop  offset="2.453990e-02" style="stop-color:#FFFFFF"/>
			<stop  offset="1" style="stop-color:#B4E3F9"/>
		</radialGradient>
		<polygon class="st116" points="1585.3,66.4 1581.7,61.5 1578.5,61.2 1582.4,66.4 		"/>
	</g>
	<g>
		<g>
			<g>
				<radialGradient id="SVGID_114_" cx="1578.9043" cy="87.03" r="3.8249" gradientUnits="userSpaceOnUse">
					<stop  offset="2.453990e-02" style="stop-color:#FFFFFF"/>
					<stop  offset="1" style="stop-color:#B4E3F9"/>
				</radialGradient>
				<path class="st117" d="M1579,83.3l0.7,2.9h2.9l-2.4,1.7l0.7,2.9l-2.4-1.7l-2.4,1.7l1-2.7l-2.4-1.7h2.9L1579,83.3z"/>
			</g>
			<g>
				<radialGradient id="SVGID_115_" cx="1566.1519" cy="88.9816" r="3.8244" gradientUnits="userSpaceOnUse">
					<stop  offset="2.453990e-02" style="stop-color:#FFFFFF"/>
					<stop  offset="1" style="stop-color:#B4E3F9"/>
				</radialGradient>
				<path class="st118" d="M1566.2,85.2l0.7,2.9h2.9l-2.4,1.7l0.7,2.9l-2.4-1.7l-2.4,1.7l1-2.7l-2.4-1.7h2.9L1566.2,85.2z"/>
			</g>
			<g>
				<radialGradient id="SVGID_116_" cx="1591.7643" cy="88.9816" r="3.8244" gradientUnits="userSpaceOnUse">
					<stop  offset="2.453990e-02" style="stop-color:#FFFFFF"/>
					<stop  offset="1" style="stop-color:#B4E3F9"/>
				</radialGradient>
				<path class="st119" d="M1591.7,85.2l1,2.9h2.9l-2.4,1.7l0.7,2.9l-2.4-1.7l-2.4,1.7l1-2.7l-2.4-1.7h2.9L1591.7,85.2z"/>
			</g>
		</g>
		
			<radialGradient id="SVGID_117_" cx="1809.6304" cy="-157.6925" r="7.3345" gradientTransform="matrix(0.729 0 0 0.5 233.1328 168.199)" gradientUnits="userSpaceOnUse">
			<stop  offset="2.453990e-02" style="stop-color:#FFFFFF"/>
			<stop  offset="1" style="stop-color:#B4E3F9"/>
		</radialGradient>
		<rect x="1544.7" y="89.1" class="st120" width="15.2" height="0.2"/>
		
			<radialGradient id="SVGID_118_" cx="2104.1748" cy="-154.8543" r="7.3343" gradientTransform="matrix(0.5571 0 0 0.5 381.9004 168.199)" gradientUnits="userSpaceOnUse">
			<stop  offset="2.453990e-02" style="stop-color:#FFFFFF"/>
			<stop  offset="1" style="stop-color:#B4E3F9"/>
		</radialGradient>
		<rect x="1548.4" y="90.6" class="st121" width="11.5" height="0.2"/>
		
			<radialGradient id="SVGID_119_" cx="11.2091" cy="-157.6925" r="7.3345" gradientTransform="matrix(-0.729 0 0 0.5 1613.9475 168.199)" gradientUnits="userSpaceOnUse">
			<stop  offset="2.453990e-02" style="stop-color:#FFFFFF"/>
			<stop  offset="1" style="stop-color:#B4E3F9"/>
		</radialGradient>
		<rect x="1598.3" y="89.1" class="st122" width="15.2" height="0.2"/>
		
			<radialGradient id="SVGID_120_" cx="-249.1696" cy="-154.8543" r="7.3343" gradientTransform="matrix(-0.5571 0 0 0.5 1465.1809 168.199)" gradientUnits="userSpaceOnUse">
			<stop  offset="2.453990e-02" style="stop-color:#FFFFFF"/>
			<stop  offset="1" style="stop-color:#B4E3F9"/>
		</radialGradient>
		<rect x="1598.3" y="90.6" class="st123" width="11.5" height="0.2"/>
	</g>
	<g>
		<path class="st5" d="M1535.4,130.8c-3.9,2.7-6.9,3.9-8.8,4.4h17.6v-4.4C1541,126.6,1535.4,130.8,1535.4,130.8L1535.4,130.8z"/>
		<path class="st5" d="M1519,131.3l-3.7,3.7h8.6C1521.7,134.7,1519.5,133,1519,131.3L1519,131.3z"/>
		<path class="st5" d="M1520.2,130.3c2,2,6.1,2,14-3.7c0,0,7.3-5.4,9.8,2v-22L1520.2,130.3L1520.2,130.3z"/>
		<polygon class="st5" points="1547.1,132.7 1546.4,132.7 1546.4,132.5 1548.4,132.5 1548.4,132.7 1547.4,132.7 1547.4,135.2 
			1547.1,135.2 		"/>
		<polygon class="st5" points="1548.9,132.5 1549.1,132.5 1550.1,134.7 1551.1,132.5 1551.5,132.5 1551.5,135.2 1551.3,135.2 
			1551.3,132.7 1551.1,132.7 1550.1,135.2 1550.1,135.2 1549.1,132.7 1549.1,132.7 1549.1,135.2 1548.9,135.2 		"/>
		<path class="st5" d="M1563.1,119.3c-1-1-2-1.2-2.7-1.2c-2.7,0-4.7,2.2-4.7,4.9c0,2.9,1.7,4.9,4.7,4.9c1,0,2.2-0.5,2.9-1.7l2,1.5
			c-1.2,1.7-2.9,2.4-4.9,2.4c-4.2,0-7.1-2.7-7.1-6.9c0-4.4,2.9-7.1,7.1-7.1c1.7,0,3.4,0.5,4.7,2.2L1563.1,119.3L1563.1,119.3z"/>
		<path class="st5" d="M1574.3,124.4l-2-5.4l-2.2,5.4H1574.3L1574.3,124.4z M1571.1,116.1h2l5.9,13.5h-2.7l-1.2-3.2h-5.9l-1.2,3.2
			h-2.7L1571.1,116.1L1571.1,116.1z"/>
		<polygon class="st5" points="1580.7,116.1 1583.1,116.1 1583.1,127.3 1588.8,127.3 1588.8,129.3 1580.7,129.3 		"/>
		<polygon class="st5" points="1593.9,123.7 1589,116.1 1592,116.1 1595.1,121.5 1598.6,116.1 1601.5,116.1 1596.4,123.7 
			1596.4,129.3 1593.9,129.3 		"/>
		<path class="st5" d="M1606.6,121.7c1.5,0,3.2,0,3.2-2c0-1.7-1.5-2-2.9-2h-1.7v3.7L1606.6,121.7L1606.6,121.7z M1602.7,116.1h4.7
			c2.7,0,4.9,1,4.9,3.9c0,3.4-2.4,3.9-5.4,3.9h-1.7v5.6h-2.4V116.1L1602.7,116.1z"/>
		<path class="st5" d="M1621.1,119c-0.5-0.7-1.5-1-2.4-1s-2.2,0.5-2.2,1.7c0,2.7,6.4,1.2,6.4,5.9c0,2.9-2.2,4.2-4.9,4.2
			c-1.7,0-3.2-0.5-4.4-1.7l1.7-1.7c0.5,1,1.5,1.5,2.7,1.5c1,0,2.4-0.5,2.4-1.7c0-2.9-6.4-1.2-6.4-6.1c0-2.7,2.4-4.2,4.9-4.2
			c1.5,0,2.7,0.5,3.9,1.5L1621.1,119L1621.1,119z"/>
		<path class="st5" d="M1631.9,127.6c2.7,0,4.7-2.2,4.7-4.9s-1.7-4.9-4.7-4.9c-2.7,0-4.7,2.2-4.7,4.9
			C1627.5,125.4,1629.2,127.6,1631.9,127.6L1631.9,127.6z M1631.9,115.6c4.2,0,7.1,2.7,7.1,7.1c0,4.2-2.9,6.9-7.1,7.1
			c-4.2,0-7.1-2.7-7.1-6.9C1624.8,118.5,1627.7,115.6,1631.9,115.6L1631.9,115.6z"/>
		<path class="st5" d="M1640.2,116.8v0.7c0,0,0,0,0.2,0s0.2,0,0.5,0v-0.2C1640.9,117.1,1640.7,116.8,1640.2,116.8L1640.2,116.8
			L1640.2,116.8L1640.2,116.8z M1640.9,118.8l-0.5-1h-0.2v1h-0.2v-2h0.5c0.5,0,0.7,0.2,0.7,0.5s-0.2,0.5-0.5,0.5l0.5,1L1640.9,118.8
			L1640.9,118.8z M1641.9,117.8c0-0.5-0.2-0.7-0.5-1c-0.2-0.2-0.5-0.5-1-0.5c-0.5,0-0.7,0.2-1,0.5c-0.2,0.2-0.2,0.5-0.2,1
			s0.2,0.7,0.5,1c0.2,0.2,0.5,0.5,1,0.5c0.5,0,0.7-0.2,1-0.5C1641.7,118.5,1641.9,118,1641.9,117.8L1641.9,117.8z M1639,117.8
			c0-0.5,0.2-0.7,0.5-1.2c0.2-0.2,0.7-0.5,1.2-0.5s0.7,0.2,1.2,0.5c0.2,0.2,0.5,0.7,0.5,1.2c0,0.5-0.2,0.7-0.5,1.2
			c-0.2,0.2-0.7,0.5-1.2,0.5s-0.7-0.2-1.2-0.5C1639,118.5,1639,118,1639,117.8L1639,117.8z"/>
	</g>
	<g>
		<path class="st5" d="M1551.8,148.9c1.2,0,2.2,0.5,2.7,1.2l-1,1.2c-0.5-0.5-1-0.7-1.7-0.7c-1.7,0-2.7,1.5-2.7,3.7s1,3.7,2.7,3.7
			c1,0,1.5-0.2,2-1l1,1c-0.7,1-2,1.5-3.2,1.5c-2.4,0-4.4-1.7-4.4-5.1S1549.1,148.9,1551.8,148.9z"/>
		<path class="st5" d="M1556.2,149.1h5.9v1.5h-4.2v2.4h3.4v1.5h-3.4v2.9h4.4v1.5h-6.1V149.1z"/>
		<path class="st5" d="M1569.9,158.9l-2.2-3.9h-1.5v3.9h-1.7v-9.8h3.4c2,0,3.7,0.7,3.7,2.9c0,1.5-0.7,2.4-2,2.9l2.4,4.2
			L1569.9,158.9L1569.9,158.9z M1566.2,153.8h1.5c1.2,0,2-0.5,2-1.7c0-1.2-0.7-1.5-2-1.5h-1.5V153.8z"/>
		<path class="st5" d="M1575.1,150.6h-2.9v-1.5h7.3v1.5h-2.9v8.3h-1.7v-8.3H1575.1z"/>
		<path class="st5" d="M1581.4,149.1h1.7v9.8h-1.7V149.1z"/>
		<path class="st5" d="M1585.6,149.1h5.9v1.5h-4.2v2.7h3.7v1.5h-3.7v4.2h-1.7V149.1z"/>
		<path class="st5" d="M1593.2,149.1h2v9.8h-1.7L1593.2,149.1L1593.2,149.1z"/>
		<path class="st5" d="M1597.6,149.1h5.9v1.5h-4.2v2.4h3.4v1.5h-3.4v2.9h4.4v1.5h-6.1V149.1z"/>
		<path class="st5" d="M1605.7,149.1h2.7c2.9,0,4.9,1.7,4.9,4.9s-1.7,4.9-4.7,4.9h-2.7L1605.7,149.1L1605.7,149.1z M1608.1,157.5
			c2,0,3.2-1.2,3.2-3.7c0-2.4-1.2-3.4-3.2-3.4h-0.7v7.1H1608.1z"/>
	</g>
	<g>
		
			<linearGradient id="SVGID_121_" gradientUnits="userSpaceOnUse" x1="1492.2804" y1="258.8576" x2="1667.3846" y2="258.8576" gradientTransform="matrix(1 0 0 1.1999 0 -121.4478)">
			<stop  offset="0" style="stop-color:#0B4166"/>
			<stop  offset="1" style="stop-color:#00609C"/>
		</linearGradient>
		<path class="st124" d="M1667.4,206c-58,10-117.3,10-175.1,0c0-13.7,0-27.4,0-41.1c58,10,117.3,10,175.1,0
			C1667.4,178.5,1667.4,192.2,1667.4,206z"/>
		<g>
			<radialGradient id="SVGID_122_" cx="1579.4652" cy="173.0229" r="57.7937" gradientUnits="userSpaceOnUse">
				<stop  offset="0" style="stop-color:#D3EEFB"/>
				<stop  offset="1" style="stop-color:#70BBE7"/>
			</radialGradient>
			<path class="st125" d="M1661,170.2c-1,0.2-2,0.2-2.9,0.5c0-0.2,0-0.5,0-0.7c1-0.2,2-0.2,2.9-0.5C1661,169.7,1661,170,1661,170.2z
				 M1655.4,170.9c-1,0.2-2,0.2-2.9,0.5c0-0.2,0-0.5,0-0.7c1-0.2,2-0.2,2.9-0.5C1655.4,170.5,1655.4,170.7,1655.4,170.9z
				 M1649.8,171.9c-1,0.2-2,0.2-2.9,0.5c0-0.2,0-0.5,0-0.7c1-0.2,2-0.2,2.9-0.5C1649.8,171.4,1649.8,171.7,1649.8,171.9z
				 M1644.1,172.7c-1,0-2,0.2-2.9,0.2c0-0.2,0-0.5,0-0.7c1,0,2-0.2,2.9-0.2C1644.1,172.2,1644.1,172.4,1644.1,172.7z M1638.2,173.4
				c-1,0-2,0.2-2.9,0.2c0-0.2,0-0.5,0-0.7c1,0,2-0.2,2.9-0.2C1638.2,172.9,1638.2,173.1,1638.2,173.4z M1632.6,173.9
				c-1,0-2,0.2-2.9,0.2c0-0.2,0-0.5,0-0.7c1,0,2-0.2,2.9-0.2C1632.6,173.4,1632.6,173.6,1632.6,173.9z M1627,174.6
				c-1,0-2,0.2-2.9,0.2c0-0.2,0-0.5,0-0.7c1,0,2-0.2,2.9-0.2C1627,174.1,1627,174.4,1627,174.6z M1621.1,175.1c-1,0-2,0.2-2.9,0.2
				c0-0.2,0-0.5,0-0.7c1,0,2-0.2,2.9-0.2C1621.1,174.6,1621.1,174.9,1621.1,175.1z M1615.5,175.3c-1,0-2,0.2-2.9,0.2
				c0-0.2,0-0.5,0-0.7c1,0,2-0.2,2.9-0.2C1615.5,174.9,1615.5,175.1,1615.5,175.3z M1609.6,175.8c-1,0-2,0-2.9,0.2
				c0-0.2,0-0.5,0-0.7c1,0,2,0,2.9-0.2C1609.6,175.3,1609.6,175.6,1609.6,175.8z M1604,176.1c-1,0-2,0-2.9,0.2c0-0.2,0-0.5,0-0.7
				c1,0,2,0,2.9-0.2C1604,175.6,1604,175.8,1604,176.1z M1598.3,176.3c-1,0-2,0-2.9,0c0-0.2,0-0.5,0-0.7c1,0,2,0,2.9,0
				C1598.3,175.8,1598.3,176.1,1598.3,176.3z M1592.4,176.6c-1,0-2,0-2.9,0c0-0.2,0-0.5,0-0.7c1,0,2,0,2.9,0
				C1592.4,176.1,1592.4,176.3,1592.4,176.6z M1586.8,176.6c-1,0-2,0-2.9,0c0-0.2,0-0.5,0-0.7c1,0,2,0,2.9,0
				C1586.8,176.1,1586.8,176.3,1586.8,176.6z M1580.9,176.6c-1,0-2,0-2.9,0c0-0.2,0-0.5,0-0.7c1,0,2,0,2.9,0
				C1580.9,176.1,1580.9,176.3,1580.9,176.6z M1575.3,176.6c-1,0-2,0-2.9,0c0-0.2,0-0.5,0-0.7c1,0,2,0,2.9,0
				C1575.3,176.1,1575.3,176.3,1575.3,176.6z M1569.4,176.6c-1,0-2,0-2.9,0c0-0.2,0-0.5,0-0.7c1,0,2,0,2.9,0
				C1569.4,176.1,1569.4,176.3,1569.4,176.6z M1563.8,176.3c-1,0-2,0-2.9,0c0-0.2,0-0.5,0-0.7c1,0,2,0,2.9,0
				C1563.8,175.8,1563.8,176.1,1563.8,176.3z M1558.2,176.3c-1,0-2,0-2.9-0.2c0-0.2,0-0.5,0-0.7c1,0,2,0,2.9,0.2
				C1558.2,175.8,1558.2,176.1,1558.2,176.3z M1552.3,175.8c-1,0-2,0-2.9-0.2c0-0.2,0-0.5,0-0.7c1,0,2,0,2.9,0.2
				C1552.3,175.3,1552.3,175.6,1552.3,175.8z M1546.6,175.6c-1,0-2-0.2-2.9-0.2c0-0.2,0-0.5,0-0.7c1,0,2,0.2,2.9,0.2
				C1546.6,175.1,1546.6,175.3,1546.6,175.6z M1540.8,175.1c-1,0-2-0.2-2.9-0.2c0-0.2,0-0.5,0-0.7c1,0,2,0.2,2.9,0.2
				C1540.8,174.6,1540.8,174.9,1540.8,175.1z M1535.1,174.6c-1,0-2-0.2-2.9-0.2c0-0.2,0-0.5,0-0.7c1,0,2,0.2,2.9,0.2
				C1535.1,174.1,1535.1,174.4,1535.1,174.6z M1529.5,174.1c-1,0-2-0.2-2.9-0.2c0-0.2,0-0.5,0-0.7c1,0,2,0.2,2.9,0.2
				C1529.5,173.6,1529.5,173.9,1529.5,174.1z M1523.6,173.6c-1,0-2-0.2-2.9-0.2c0-0.2,0-0.5,0-0.7c1,0,2,0.2,2.9,0.2
				C1523.6,173.1,1523.6,173.4,1523.6,173.6z M1518,172.9c-1,0-2-0.2-2.9-0.2c0-0.2,0-0.5,0-0.7c1,0,2,0.2,2.9,0.2
				C1518,172.4,1518,172.7,1518,172.9z M1512.4,172.2c-1-0.2-2-0.2-2.9-0.5c0-0.2,0-0.5,0-0.7c1,0.2,2,0.2,2.9,0.5
				C1512.4,171.7,1512.4,171.9,1512.4,172.2z M1506.5,171.4c-1-0.2-2-0.2-2.9-0.5c0-0.2,0-0.5,0-0.7c1,0.2,2,0.2,2.9,0.5
				C1506.5,170.9,1506.5,171.2,1506.5,171.4z M1500.9,170.5c-1-0.2-2-0.2-2.9-0.5c0-0.2,0-0.5,0-0.7c1,0.2,2,0.2,2.9,0.5
				C1500.9,170,1500.9,170.2,1500.9,170.5z"/>
		</g>
		<g>
			<radialGradient id="SVGID_123_" cx="1579.4652" cy="205.1884" r="57.7937" gradientUnits="userSpaceOnUse">
				<stop  offset="0" style="stop-color:#D3EEFB"/>
				<stop  offset="1" style="stop-color:#70BBE7"/>
			</radialGradient>
			<path class="st126" d="M1661,202.3c-1,0.2-2,0.2-2.9,0.5c0-0.2,0-0.5,0-0.7c1-0.2,2-0.2,2.9-0.5C1661,201.8,1661,202,1661,202.3z
				 M1655.4,203.3c-1,0.2-2,0.2-2.9,0.5c0-0.2,0-0.5,0-0.7c1-0.2,2-0.2,2.9-0.5C1655.4,202.8,1655.4,203,1655.4,203.3z M1649.8,204
				c-1,0.2-2,0.2-2.9,0.5c0-0.2,0-0.5,0-0.7c1-0.2,2-0.2,2.9-0.5C1649.8,203.5,1649.8,203.8,1649.8,204z M1644.1,204.7
				c-1,0-2,0.2-2.9,0.2c0-0.2,0-0.5,0-0.7c1,0,2-0.2,2.9-0.2C1644.1,204.2,1644.1,204.5,1644.1,204.7z M1638.2,205.5
				c-1,0-2,0.2-2.9,0.2c0-0.2,0-0.5,0-0.7c1,0,2-0.2,2.9-0.2C1638.2,205,1638.2,205.2,1638.2,205.5z M1632.6,206.2
				c-1,0-2,0.2-2.9,0.2c0-0.2,0-0.5,0-0.7c1,0,2-0.2,2.9-0.2C1632.6,205.7,1632.6,206,1632.6,206.2z M1627,206.7c-1,0-2,0.2-2.9,0.2
				c0-0.2,0-0.5,0-0.7c1,0,2-0.2,2.9-0.2C1627,206.2,1627,206.5,1627,206.7z M1621.1,207.2c-1,0-2,0.2-2.9,0.2c0-0.2,0-0.5,0-0.7
				c1,0,2-0.2,2.9-0.2C1621.1,206.7,1621.1,206.9,1621.1,207.2z M1615.5,207.7c-1,0-2,0.2-2.9,0.2c0-0.2,0-0.5,0-0.7
				c1,0,2-0.2,2.9-0.2C1615.5,207.2,1615.5,207.4,1615.5,207.7z M1609.6,207.9c-1,0-2,0-2.9,0.2c0-0.2,0-0.5,0-0.7c1,0,2,0,2.9-0.2
				C1609.6,207.4,1609.6,207.7,1609.6,207.9z M1604,208.2c-1,0-2,0-2.9,0.2c0-0.2,0-0.5,0-0.7c1,0,2,0,2.9-0.2
				C1604,207.7,1604,207.9,1604,208.2z M1598.3,208.4c-1,0-2,0-2.9,0c0-0.2,0-0.5,0-0.7c1,0,2,0,2.9,0
				C1598.3,207.9,1598.3,208.2,1598.3,208.4z M1592.4,208.7c-1,0-2,0-2.9,0c0-0.2,0-0.5,0-0.7c1,0,2,0,2.9,0
				C1592.4,208.2,1592.4,208.4,1592.4,208.7z M1586.8,208.9c-1,0-2,0-2.9,0c0-0.2,0-0.5,0-0.7c1,0,2,0,2.9,0
				C1586.8,208.4,1586.8,208.7,1586.8,208.9z M1580.9,208.9c-1,0-2,0-2.9,0c0-0.2,0-0.5,0-0.7c1,0,2,0,2.9,0
				C1580.9,208.4,1580.9,208.7,1580.9,208.9z M1575.3,208.9c-1,0-2,0-2.9,0c0-0.2,0-0.5,0-0.7c1,0,2,0,2.9,0
				C1575.3,208.4,1575.3,208.7,1575.3,208.9z M1569.4,208.7c-1,0-2,0-2.9,0c0-0.2,0-0.5,0-0.7c1,0,2,0,2.9,0
				C1569.4,208.2,1569.4,208.4,1569.4,208.7z M1563.8,208.7c-1,0-2,0-2.9,0c0-0.2,0-0.5,0-0.7c1,0,2,0,2.9,0
				C1563.8,208.2,1563.8,208.4,1563.8,208.7z M1558.2,208.4c-1,0-2,0-2.9-0.2c0-0.2,0-0.5,0-0.7c1,0,2,0,2.9,0.2
				C1558.2,207.9,1558.2,208.2,1558.2,208.4z M1552.3,208.2c-1,0-2,0-2.9-0.2c0-0.2,0-0.5,0-0.7c1,0,2,0,2.9,0.2
				C1552.3,207.7,1552.3,207.9,1552.3,208.2z M1546.6,207.7c-1,0-2-0.2-2.9-0.2c0-0.2,0-0.5,0-0.7c1,0,2,0.2,2.9,0.2
				C1546.6,207.2,1546.6,207.4,1546.6,207.7z M1540.8,207.4c-1,0-2-0.2-2.9-0.2c0-0.2,0-0.5,0-0.7c1,0,2,0.2,2.9,0.2
				C1540.8,206.9,1540.8,207.2,1540.8,207.4z M1535.1,206.9c-1,0-2-0.2-2.9-0.2c0-0.2,0-0.5,0-0.7c1,0,2,0.2,2.9,0.2
				C1535.1,206.5,1535.1,206.7,1535.1,206.9z M1529.5,206.5c-1,0-2-0.2-2.9-0.2c0-0.2,0-0.5,0-0.7c1,0,2,0.2,2.9,0.2
				C1529.5,206,1529.5,206.2,1529.5,206.5z M1523.6,205.7c-1,0-2-0.2-2.9-0.2c0-0.2,0-0.5,0-0.7c1,0,2,0.2,2.9,0.2
				C1523.6,205.2,1523.6,205.5,1523.6,205.7z M1518,205c-1,0-2-0.2-2.9-0.2c0-0.2,0-0.5,0-0.7c1,0.2,2,0.2,2.9,0.2
				C1518,204.5,1518,204.7,1518,205z M1512.4,204.2c-1-0.2-2-0.2-2.9-0.5c0-0.2,0-0.5,0-0.7c1,0.2,2,0.2,2.9,0.5
				C1512.4,203.8,1512.4,204,1512.4,204.2z M1506.5,203.5c-1-0.2-2-0.2-2.9-0.5c0-0.2,0-0.5,0-0.7c1,0.2,2,0.2,2.9,0.5
				C1506.5,203,1506.5,203.3,1506.5,203.5z M1500.9,202.8c-1-0.2-2-0.2-2.9-0.5c0-0.2,0-0.5,0-0.7c1,0.2,2,0.2,2.9,0.5
				C1500.9,202.3,1500.9,202.5,1500.9,202.8z"/>
		</g>
		<radialGradient id="SVGID_124_" cx="1591.394" cy="189.4107" r="65.0252" gradientUnits="userSpaceOnUse">
			<stop  offset="0" style="stop-color:#D3EEFB"/>
			<stop  offset="1" style="stop-color:#70BBE7"/>
		</radialGradient>
		<path class="st127" d="M1503.8,184.4c0,0,0.2,0,0.2,0.2l2.7,2.7l0,0l0,0l0,0l0,0l0,0l0,0l-2.7,2.7l-0.2,0.2
			c-0.5,0.2-1.2,0-1.7-0.5c-0.2-0.5-0.2-0.7,0-1.2c-0.7,0-1.2-0.5-1.2-1.2s0.5-1.2,1.2-1.2c-0.2-0.2-0.2-0.7,0-1.2
			C1502.6,184.4,1503.3,184.2,1503.8,184.4z"/>
		<radialGradient id="SVGID_125_" cx="1591.3936" cy="189.41" r="65.0244" gradientUnits="userSpaceOnUse">
			<stop  offset="0" style="stop-color:#D3EEFB"/>
			<stop  offset="1" style="stop-color:#70BBE7"/>
		</radialGradient>
		<path class="st128" d="M1656.6,190.3C1656.6,190.3,1656.4,190.3,1656.6,190.3l-2.9-2.9l0,0l0,0l0,0l0,0l0,0l0,0l2.7-2.7l0.2-0.2
			c0.5-0.2,1.2,0,1.7,0.5c0.2,0.5,0.2,0.7,0,1.2c0.7,0,1.2,0.5,1.2,1.2s-0.5,1.2-1.2,1.2c0.2,0.2,0.2,0.7,0,1.2
			C1657.8,190.5,1657.1,190.8,1656.6,190.3z"/>
	</g>
	<g>
		<path class="st5" d="M1549.3,183.4h7.1v1.7h-5.1v2.9h4.4v1.7h-4.4v3.4h5.1v1.7h-7.3L1549.3,183.4L1549.3,183.4z"/>
		<path class="st5" d="M1561.3,189.3l-3.2-5.9h2.4l1.2,2.7c0.2,0.5,0.5,1.2,1,1.7l0,0c0.2-0.7,0.5-1.2,0.7-1.7l1.2-2.7h2.2l-3.2,5.9
			l3.4,6.1h-2.4l-1.5-2.7c-0.2-0.7-0.5-1.2-1-2l0,0c-0.2,0.7-0.5,1.2-1,2l-1.5,2.7h-2.2L1561.3,189.3z"/>
		<path class="st5" d="M1569.2,183.4h3.9c2.7,0,4.7,1,4.7,3.7s-2,3.9-4.7,3.9h-2v4.4h-2.2v-12H1569.2z M1572.9,189.3
			c1.7,0,2.7-0.7,2.7-2.2s-1-2-2.7-2h-1.7v4.2C1571.1,189.3,1572.9,189.3,1572.9,189.3z"/>
		<path class="st5" d="M1580,183.4h7.1v1.7h-5.1v2.9h4.4v1.7h-4.4v3.4h5.1v1.7h-7.3L1580,183.4L1580,183.4z"/>
		<path class="st5" d="M1596.4,195.4l-2.7-4.7h-1.7v4.7h-2.2v-12h3.9c2.4,0,4.4,1,4.4,3.4c0,1.7-1,2.9-2.4,3.4l2.9,4.9L1596.4,195.4
			L1596.4,195.4z M1592,189.1h1.7c1.7,0,2.4-0.7,2.4-2c0-1.5-1-2-2.4-2h-1.7V189.1z"/>
		<path class="st5" d="M1602.7,185.4h-3.4v-1.7h9.1v1.7h-3.4v10h-2.2V185.4z"/>
	</g>
</g>
</svg>
